<svg width="503" height="496" viewBox="0 0 503 496" fill="none" xmlns="http://www.w3.org/2000/svg">
    <path d="M274.972 446.584L120.588 357.354V178.947L274.972 268.159V446.584Z" fill="#8089BD"/>
    <path d="M274.972 294.002V293.287L253.216 280.714V255.587L252.605 255.237V280.365L231.164 267.967V242.84L230.553 242.49V267.618L209.111 255.22V230.092L208.501 229.743V254.871L187.059 242.473V217.345L186.448 216.996V242.124L165.007 229.726V204.598L164.396 204.249V229.377L142.954 216.979V191.851L142.344 191.502V216.629L120.588 204.057V204.773L142.344 217.345V242.124L120.588 229.551V230.267L142.344 242.84V267.618L120.588 255.045V255.761L142.344 268.334V293.112L120.588 280.539V281.255L142.344 293.828V318.606L120.588 306.034V306.75L142.344 319.322V344.1L120.588 331.528V332.244L142.344 344.816V369.944L142.954 370.293V345.165L164.396 357.563V382.691L165.007 383.04V357.913L186.448 370.31V395.438L187.059 395.787V370.66L208.501 383.057V408.185L209.111 408.534V383.407L230.553 395.805V420.932L231.164 421.281V396.154L252.605 408.552V433.679L253.216 434.028V408.901L274.972 421.473V420.757L253.216 408.185V383.407L274.972 395.979V395.263L253.216 382.691V357.913L274.972 370.485V369.769L253.216 357.197V332.418L274.972 344.991V344.275L253.216 331.702V306.924L274.972 319.497V318.781L253.216 306.208V281.43L274.972 294.002ZM230.553 268.334V293.112L209.111 280.714V255.936L230.553 268.334ZM187.059 293.461V268.683L208.501 281.081V305.859L187.059 293.461ZM208.501 306.557V331.336L187.059 318.938V294.16L208.501 306.557ZM186.448 293.112L165.007 280.714V255.936L186.448 268.334V293.112ZM186.448 293.828V318.606L165.007 306.208V281.43L186.448 293.828ZM186.448 319.322V344.1L165.007 331.702V306.924L186.448 319.322ZM187.059 319.671L208.501 332.069V356.847L187.059 344.449V319.671ZM209.111 332.418L230.553 344.816V369.594L209.111 357.197V332.418ZM209.111 331.702V306.924L230.553 319.322V344.1L209.111 331.702ZM209.111 306.208V281.43L230.553 293.828V318.606L209.111 306.208ZM208.501 255.587V280.365L187.059 267.967V243.189L208.501 255.587ZM186.448 242.84V267.618L165.007 255.22V230.442L186.448 242.84ZM142.954 217.712L164.396 230.11V254.888L142.954 242.49V217.712ZM142.954 243.206L164.396 255.604V280.382L142.954 267.984V243.206ZM142.954 268.7L164.396 281.098V305.876L142.954 293.479V268.7ZM142.954 294.195L164.396 306.592V331.371L142.954 318.973V294.195ZM142.954 344.467V319.689L164.396 332.087V356.865L142.954 344.467ZM165.007 357.214V332.436L186.448 344.834V369.612L165.007 357.214ZM187.059 369.961V345.183L208.501 357.581V382.359L187.059 369.961ZM209.111 382.708V357.93L230.553 370.328V395.106L209.111 382.708ZM252.605 407.836L231.164 395.438V370.66L252.605 383.057V407.836ZM252.605 382.342L231.164 369.944V345.165L252.605 357.563V382.342ZM252.605 356.847L231.164 344.449V319.671L252.605 332.069V356.847ZM252.605 331.353L231.164 318.955V294.177L252.605 306.575V331.353ZM252.605 305.859L231.164 293.461V268.683L252.605 281.081V305.859Z" fill="black"/>
    <path d="M429.373 357.354L274.972 446.584V268.159L429.373 178.947V357.354Z" fill="#3C3D4C"/>
    <path d="M429.372 204.789V204.073L407.616 216.645V191.518L407.005 191.867V216.994L385.564 229.392V204.265L384.953 204.614V229.741L363.511 242.139V217.012L362.901 217.361V242.488L341.459 254.886V229.759L340.848 230.108V255.236L319.407 267.633V242.506L318.796 242.855V267.983L297.354 280.38V255.253L296.744 255.602V280.73L274.988 293.302V294.018L296.744 281.446V306.224L274.988 318.796V319.512L296.744 306.94V331.718L274.988 344.29V345.006L296.744 332.434V357.212L274.988 369.785V370.501L296.744 357.928V382.706L274.988 395.279V395.995L296.744 383.422V408.201L274.988 420.773V421.489L296.744 408.916V434.044L297.354 433.695V408.567L318.796 396.169V421.297L319.407 420.948V395.82L340.848 383.422V408.55L341.459 408.201V383.073L362.901 370.675V395.803L363.511 395.453V370.326L384.953 357.928V383.056L385.564 382.706V357.579L407.005 345.181V370.309L407.616 369.959V344.832L429.372 332.259V331.543L407.616 344.116V319.338L429.372 306.765V306.049L407.616 318.622V293.843L429.372 281.271V280.555L407.616 293.128V268.349L429.372 255.777V255.061L407.616 267.633V242.855L429.372 230.283V229.567L407.616 242.139V217.361L429.372 204.789ZM384.953 230.457V255.236L363.511 267.633V242.855L384.953 230.457ZM341.459 305.857V281.079L362.901 268.681V293.459L341.459 305.857ZM362.901 294.175V318.953L341.459 331.351V306.573L362.901 294.175ZM340.848 306.206L319.407 318.604V293.826L340.848 281.428V306.206ZM340.848 306.922V331.701L319.407 344.098V319.32L340.848 306.922ZM340.848 332.417V357.195L319.407 369.593V344.814L340.848 332.417ZM341.459 332.067L362.901 319.669V344.448L341.459 356.846V332.067ZM363.511 319.32L384.953 306.922V331.701L363.511 344.098V319.32ZM363.511 318.604V293.826L384.953 281.428V306.206L363.511 318.604ZM363.511 293.11V268.332L384.953 255.934V280.712L363.511 293.11ZM362.901 243.187V267.965L341.459 280.363V255.585L362.901 243.187ZM340.848 255.934V280.712L319.407 293.11V268.332L340.848 255.934ZM297.354 281.061L318.796 268.664V293.442L297.354 305.84V281.061ZM297.354 306.556L318.796 294.158V318.936L297.354 331.334V306.556ZM297.354 332.05L318.796 319.652V344.43L297.354 356.828V332.05ZM297.354 357.544L318.796 345.146V369.924L297.354 382.322V357.544ZM297.354 407.816V383.038L318.796 370.64V395.419L297.354 407.816ZM319.407 395.069V370.291L340.848 357.893V382.671L319.407 395.069ZM341.459 382.322V357.544L362.901 345.146V369.924L341.459 382.322ZM363.511 369.575V344.797L384.953 332.399V357.177L363.511 369.575ZM407.005 344.448L385.564 356.846V332.067L407.005 319.669V344.448ZM407.005 318.953L385.564 331.351V306.573L407.005 294.175V318.953ZM407.005 293.459L385.564 305.857V281.079L407.005 268.681V293.459ZM407.005 267.965L385.564 280.363V255.585L407.005 243.187V267.965ZM407.005 242.471L385.564 254.869V230.091L407.005 217.693V242.471Z" fill="black"/>
    <path d="M274.972 268.163L120.588 178.95L274.972 89.7383L429.356 178.95L274.972 268.163Z" fill="#8089BD"/>
    <path d="M274.972 266.518L122.001 178.127L120.588 178.948L274.972 268.16L429.356 178.948L427.943 178.127L274.972 266.518Z" fill="black"/>
    <path d="M407.008 191.872L407.619 191.523L385.863 178.95L407.619 166.378L407.008 166.028L385.253 178.601L363.811 166.203L385.567 153.631L384.956 153.281L363.2 165.854L341.758 153.456L363.514 140.883L362.904 140.534L341.148 153.107L319.706 140.709L341.462 128.136L340.851 127.787L319.095 140.36L297.654 127.962L319.41 115.389L318.799 115.04L297.043 127.613L275.601 115.215L297.357 102.642L296.746 102.293L274.991 114.865L253.235 102.293L252.624 102.642L274.38 115.215L252.938 127.613L231.183 115.04L230.572 115.389L252.328 127.962L230.886 140.36L209.13 127.787L208.52 128.136L230.275 140.709L208.834 153.107L187.078 140.534L186.467 140.883L208.223 153.456L186.781 165.854L165.025 153.281L164.415 153.631L186.171 166.203L164.729 178.601L142.973 166.028L142.362 166.378L164.118 178.95L142.362 191.523L142.973 191.872L164.729 179.299L186.171 191.697L164.415 204.27L165.025 204.619L186.781 192.046L208.223 204.444L186.467 217.017L187.078 217.366L208.834 204.793L230.275 217.191L208.52 229.764L209.13 230.113L230.886 217.541L252.328 229.938L230.572 242.511L231.183 242.86L252.938 230.288L274.38 242.685L252.624 255.258L253.235 255.607L274.991 243.035L296.746 255.607L297.357 255.258L275.601 242.685L297.043 230.288L318.799 242.86L319.41 242.511L297.654 229.938L319.095 217.541L340.851 230.113L341.462 229.764L319.706 217.191L341.148 204.793L362.904 217.366L363.514 217.017L341.758 204.444L363.2 192.046L384.956 204.619L385.567 204.27L363.811 191.697L385.253 179.299L407.008 191.872ZM362.59 166.203L341.148 178.601L319.706 166.203L341.148 153.805L362.59 166.203ZM275.601 166.203L297.043 153.805L318.485 166.203L297.043 178.601L275.601 166.203ZM296.432 178.95L274.991 191.348L253.549 178.95L274.991 166.552L296.432 178.95ZM274.991 165.854L253.549 153.456L274.991 141.058L296.432 153.456L274.991 165.854ZM274.38 166.203L252.938 178.601L231.497 166.203L252.938 153.805L274.38 166.203ZM252.328 178.95L230.886 191.348L209.444 178.95L230.886 166.552L252.328 178.95ZM252.938 179.299L274.38 191.697L252.938 204.095L231.497 191.697L252.938 179.299ZM274.991 192.046L296.432 204.444L274.991 216.842L253.549 204.444L274.991 192.046ZM275.601 191.697L297.043 179.299L318.485 191.697L297.043 204.095L275.601 191.697ZM297.654 178.95L319.095 166.552L340.537 178.95L319.095 191.348L297.654 178.95ZM340.537 153.456L319.095 165.854L297.654 153.456L319.095 141.058L340.537 153.456ZM318.485 140.709L297.043 153.107L275.601 140.709L297.043 128.311L318.485 140.709ZM274.991 115.581L296.432 127.979L274.991 140.377L253.549 127.979L274.991 115.581ZM252.938 128.328L274.38 140.726L252.938 153.124L231.497 140.726L252.938 128.328ZM230.886 141.076L252.328 153.473L230.886 165.871L209.444 153.473L230.886 141.076ZM208.834 153.823L230.275 166.22L208.834 178.618L187.392 166.22L208.834 153.823ZM165.34 178.95L186.781 166.552L208.223 178.95L186.781 191.348L165.34 178.95ZM187.392 191.697L208.834 179.299L230.275 191.697L208.834 204.095L187.392 191.697ZM209.444 204.444L230.886 192.046L252.328 204.444L230.886 216.842L209.444 204.444ZM231.497 217.191L252.938 204.793L274.38 217.191L252.938 229.589L231.497 217.191ZM274.991 242.319L253.549 229.921L274.991 217.523L296.432 229.921L274.991 242.319ZM297.043 229.572L275.601 217.174L297.043 204.776L318.485 217.174L297.043 229.572ZM319.095 216.825L297.654 204.427L319.095 192.029L340.537 204.427L319.095 216.825ZM341.148 204.078L319.706 191.68L341.148 179.282L362.59 191.68L341.148 204.078ZM363.2 191.33L341.758 178.933L363.2 166.535L384.642 178.933L363.2 191.33Z" fill="black"/>
    <path d="M461.296 210.204L440.622 198.277V222.148L461.296 234.091L481.953 222.148V198.277L461.296 210.204Z" fill="#8089BD"/>
    <path d="M461.296 234.091L440.622 222.148V198.277L461.296 210.204V234.091Z" fill="#8089BD"/>
    <path d="M481.953 222.148L461.296 234.091V210.204L481.953 198.277V222.148Z" fill="#3C3D4C"/>
    <path d="M461.296 210.206L440.622 198.28L461.296 186.336L481.953 198.28L461.296 210.206Z" fill="#8089BD"/>
    <path d="M461.296 210.207L441.529 198.787L440.622 199.311L461.296 211.255L481.953 199.311L481.063 198.787L461.296 210.207Z" fill="black"/>
    <g filter="url(#filter0_d_1262_7859)">
        <path d="M405.224 352.938L384.567 340.994V364.882L405.224 376.826L425.898 364.882V340.994L405.224 352.938Z" fill="#8089BD"/>
        <path d="M405.224 376.826L384.567 364.882V340.994L405.224 352.938V376.826Z" fill="#8089BD"/>
        <path d="M425.897 364.882L405.222 376.826V352.938L425.897 340.994V364.882Z" fill="#3C3D4C"/>
        <path d="M405.224 352.939L384.567 340.995L405.224 329.068L425.898 340.995L405.224 352.939Z" fill="#8089BD"/>
        <path d="M405.224 352.939L385.457 341.52L384.567 342.043L405.224 353.987L425.898 342.043L424.991 341.52L405.224 352.939Z" fill="black"/>
    </g>
    <g opacity="0.5">
        <path d="M405.272 104.497L394.943 98.5254V110.469L405.272 116.424L415.6 110.469V98.5254L405.272 104.497Z" fill="#8089BD"/>
        <path d="M405.272 116.424L394.943 110.469V98.5254L405.272 104.497V116.424Z" fill="#8089BD"/>
        <path d="M415.599 110.469L405.271 116.424V104.497L415.599 98.5254V110.469Z" fill="#3C3D4C"/>
        <path d="M405.272 104.499L394.943 98.5266L405.272 92.5547L415.6 98.5266L405.272 104.499Z" fill="#8089BD"/>
        <path d="M405.272 104.501L395.379 98.791L394.943 99.0355L405.272 105.007L415.6 99.0355L415.146 98.791L405.272 104.501Z" fill="black"/>
    </g>
    <path d="M186.144 103.77L144.272 79.5859V127.972L186.144 152.174L228.033 127.972V79.5859L186.144 103.77Z" fill="#8089BD"/>
    <path d="M186.144 152.174L144.272 127.972V79.5859L186.144 103.77V152.174Z" fill="#8089BD"/>
    <path d="M228.033 127.972L186.144 152.174V103.77L228.033 79.5859V127.972Z" fill="#3C3D4C"/>
    <path d="M186.144 103.773L144.272 79.5887L186.144 55.3867L228.033 79.5887L186.144 103.773Z" fill="#8089BD"/>
    <path d="M186.144 103.775L146.087 80.6387L144.272 81.6864L186.144 105.888L228.033 81.6864L226.219 80.6387L186.144 103.775Z" fill="black"/>
    <path d="M230.563 192.008L186.154 166.352L230.563 140.695L274.972 166.352L230.563 192.008Z" fill="black"/>
    <path d="M340.14 229.23L318.495 216.713L340.14 204.215L361.786 216.713L340.14 229.23Z" fill="black"/>
    <path d="M84.2544 329.051L63.5977 317.125V340.995L84.2544 352.939L104.911 340.995V317.125L84.2544 329.051Z" fill="#8089BD"/>
    <path d="M84.2544 352.939L63.5977 340.995V317.125L84.2544 329.051V352.939Z" fill="#8089BD"/>
    <path d="M104.909 340.995L84.2528 352.939V329.051L104.909 317.125V340.995Z" fill="#3C3D4C"/>
    <path d="M84.2544 329.05L63.5977 317.124L84.2544 305.18L104.911 317.124L84.2544 329.05Z" fill="#8089BD"/>
    <path d="M84.2544 329.051L64.4875 317.631L63.5977 318.155L84.2544 330.099L104.911 318.155L104.021 317.631L84.2544 329.051Z" fill="black"/>
    <path d="M231.029 319.457L208.651 306.534V280.672L231.029 293.595V319.457Z" fill="black"/>
    <g filter="url(#filter1_d_1262_7859)">
        <path d="M192.337 276.995L171.68 265.051V288.921L192.337 300.865L213.011 288.921V265.051L192.337 276.995Z" fill="#8089BD"/>
        <path d="M192.337 300.865L171.68 288.921V265.051L192.337 276.995V300.865Z" fill="#8089BD"/>
        <path d="M213.009 288.921L192.335 300.865V276.995L213.009 265.051V288.921Z" fill="#3C3D4C"/>
        <path d="M192.337 276.997L171.68 265.053L192.337 253.109L213.011 265.053L192.337 276.997Z" fill="#8089BD"/>
        <path d="M192.337 276.998L172.57 265.561L171.68 266.084L192.337 278.028L213.011 266.084L212.104 265.561L192.337 276.998Z" fill="black"/>
    </g>
    <g filter="url(#filter2_d_1262_7859)">
        <path d="M318.495 201.458L297.821 189.514V213.384L318.495 225.328L339.151 213.384V189.514L318.495 201.458Z" fill="#8089BD"/>
        <path d="M318.495 225.328L297.821 213.384V189.514L318.495 201.458V225.328Z" fill="#8089BD"/>
        <path d="M339.152 213.384L318.495 225.328V201.458L339.152 189.514V213.384Z" fill="#3C3D4C"/>
        <path d="M318.495 201.456L297.821 189.512L318.495 177.568L339.151 189.512L318.495 201.456Z" fill="#8089BD"/>
        <path d="M318.495 201.457L298.728 190.02L297.821 190.543L318.495 202.487L339.151 190.543L338.262 190.02L318.495 201.457Z" fill="black"/>
    </g>
    <defs>
        <filter id="filter0_d_1262_7859" x="350.567" y="313.068" width="89.3308" height="95.7578" filterUnits="userSpaceOnUse" color-interpolation-filters="sRGB">
            <feFlood flood-opacity="0" result="BackgroundImageFix"/>
            <feColorMatrix in="SourceAlpha" type="matrix" values="0 0 0 0 0 0 0 0 0 0 0 0 0 0 0 0 0 0 127 0" result="hardAlpha"/>
            <feOffset dx="-10" dy="8"/>
            <feGaussianBlur stdDeviation="12"/>
            <feComposite in2="hardAlpha" operator="out"/>
            <feColorMatrix type="matrix" values="0 0 0 0 0.0797691 0 0 0 0 0.0321876 0 0 0 0 0.214583 0 0 0 0.25 0"/>
            <feBlend mode="normal" in2="BackgroundImageFix" result="effect1_dropShadow_1262_7859"/>
            <feBlend mode="normal" in="SourceGraphic" in2="effect1_dropShadow_1262_7859" result="shape"/>
        </filter>
        <filter id="filter1_d_1262_7859" x="137.68" y="237.109" width="89.3307" height="95.7559" filterUnits="userSpaceOnUse" color-interpolation-filters="sRGB">
            <feFlood flood-opacity="0" result="BackgroundImageFix"/>
            <feColorMatrix in="SourceAlpha" type="matrix" values="0 0 0 0 0 0 0 0 0 0 0 0 0 0 0 0 0 0 127 0" result="hardAlpha"/>
            <feOffset dx="-10" dy="8"/>
            <feGaussianBlur stdDeviation="12"/>
            <feComposite in2="hardAlpha" operator="out"/>
            <feColorMatrix type="matrix" values="0 0 0 0 0.0797691 0 0 0 0 0.0321876 0 0 0 0 0.214583 0 0 0 0.25 0"/>
            <feBlend mode="normal" in2="BackgroundImageFix" result="effect1_dropShadow_1262_7859"/>
            <feBlend mode="normal" in="SourceGraphic" in2="effect1_dropShadow_1262_7859" result="shape"/>
        </filter>
        <filter id="filter2_d_1262_7859" x="263.821" y="161.568" width="89.3311" height="95.7598" filterUnits="userSpaceOnUse" color-interpolation-filters="sRGB">
            <feFlood flood-opacity="0" result="BackgroundImageFix"/>
            <feColorMatrix in="SourceAlpha" type="matrix" values="0 0 0 0 0 0 0 0 0 0 0 0 0 0 0 0 0 0 127 0" result="hardAlpha"/>
            <feOffset dx="-10" dy="8"/>
            <feGaussianBlur stdDeviation="12"/>
            <feComposite in2="hardAlpha" operator="out"/>
            <feColorMatrix type="matrix" values="0 0 0 0 0.0797691 0 0 0 0 0.0321876 0 0 0 0 0.214583 0 0 0 0.25 0"/>
            <feBlend mode="normal" in2="BackgroundImageFix" result="effect1_dropShadow_1262_7859"/>
            <feBlend mode="normal" in="SourceGraphic" in2="effect1_dropShadow_1262_7859" result="shape"/>
        </filter>
    </defs>
</svg>
