<svg class="cube-global" width="669" height="615" viewBox="0 0 669 615" fill="none" xmlns="http://www.w3.org/2000/svg">
<g class="bottom-opacity" opacity="0.2" filter="url(#filter0_f_1262_7859)">
<path d="M332.488 561L84 418L332.488 275L581 418L332.488 561Z" fill="#7857D4"/>
</g>
<path d="M332.918 540.224L146 432.285V216.471L332.918 324.389V540.224Z" fill="#9576EC"/>
<path d="M332.918 355.649V354.783L306.578 339.574V309.178L305.838 308.756V339.152L279.878 324.154V293.758L279.139 293.336V323.732L253.179 308.734V278.338L252.439 277.916V308.312L226.479 293.315V262.918L225.74 262.496V292.892L199.779 277.895V247.499L199.04 247.076V277.472L173.08 262.475V232.079L172.341 231.656V262.052L146 246.844V247.71L172.341 262.918V292.892L146 277.683V278.55L172.341 293.758V323.732L146 308.523V309.389L172.341 324.598V354.572L146 339.363V340.229L172.341 355.438V385.411L146 370.203V371.069L172.341 386.277V416.251L146 401.042V401.908L172.341 417.117V447.513L173.08 447.936V417.539L199.04 432.537V462.933L199.779 463.355V432.959L225.74 447.957V478.353L226.479 478.775V448.379L252.439 463.377V493.773L253.179 494.195V463.799L279.139 478.796V509.193L279.878 509.615V479.219L305.838 494.216V524.612L306.578 525.035V494.639L332.918 509.847V508.981L306.578 493.773V463.799L332.918 479.008V478.142L306.578 462.933V432.959L332.918 448.168V447.302L306.578 432.093V402.12L332.918 417.328V416.462L306.578 401.254V371.28L332.918 386.489V385.622L306.578 370.414V340.44L332.918 355.649ZM279.139 324.598V354.572L253.179 339.574V309.6L279.139 324.598ZM226.479 354.994V325.02L252.439 340.018V369.991L226.479 354.994ZM252.439 370.836V400.81L226.479 385.813V355.839L252.439 370.836ZM225.74 354.572L199.779 339.574V309.6L225.74 324.598V354.572ZM225.74 355.438V385.411L199.779 370.414V340.44L225.74 355.438ZM225.74 386.277V416.251L199.779 401.254V371.28L225.74 386.277ZM226.479 386.7L252.439 401.697V431.671L226.479 416.673V386.7ZM253.179 402.12L279.139 417.117V447.091L253.179 432.093V402.12ZM253.179 401.254V371.28L279.139 386.277V416.251L253.179 401.254ZM253.179 370.414V340.44L279.139 355.438V385.411L253.179 370.414ZM252.439 309.178V339.152L226.479 324.154V294.181L252.439 309.178ZM225.74 293.758V323.732L199.779 308.734V278.761L225.74 293.758ZM173.08 263.362L199.04 278.359V308.333L173.08 293.336V263.362ZM173.08 294.202L199.04 309.199V339.173L173.08 324.175V294.202ZM173.08 325.041L199.04 340.039V370.013L173.08 355.015V325.041ZM173.08 355.881L199.04 370.879V400.852L173.08 385.855V355.881ZM173.08 416.695V386.721L199.04 401.718V431.692L173.08 416.695ZM199.779 432.114V402.141L225.74 417.138V447.112L199.779 432.114ZM226.479 447.534V417.561L252.439 432.558V462.532L226.479 447.534ZM253.179 462.954V432.98L279.139 447.978V477.952L253.179 462.954ZM305.838 493.35L279.878 478.353V448.379L305.838 463.377V493.35ZM305.838 462.511L279.878 447.513V417.539L305.838 432.537V462.511ZM305.838 431.671L279.878 416.673V386.7L305.838 401.697V431.671ZM305.838 400.831L279.878 385.834V355.86L305.838 370.857V400.831ZM305.838 369.991L279.878 354.994V325.02L305.838 340.018V369.991Z" fill="#40248F"/>
<path d="M519.858 432.285L332.918 540.224V324.389L519.858 216.471V432.285Z" fill="#6B4DC0"/>
<path d="M519.858 247.731V246.865L493.517 262.074V231.678L492.778 232.1V262.496L466.818 277.494V247.098L466.078 247.52V277.916L440.118 292.914V262.517L439.379 262.94V293.336L413.418 308.333V277.937L412.679 278.36V308.756L386.719 323.753V293.357L385.979 293.78V324.176L360.019 339.173V308.777L359.28 309.2V339.596L332.939 354.804V355.67L359.28 340.462V370.435L332.939 385.644V386.51L359.28 371.301V401.275L332.939 416.484V417.35L359.28 402.141V432.115L332.939 447.323V448.189L359.28 432.981V462.954L332.939 478.163V479.029L359.28 463.821V493.794L332.939 509.003V509.869L359.28 494.66V525.056L360.019 524.634V494.238L385.979 479.24V509.637L386.719 509.214V478.818L412.679 463.821V494.217L413.418 493.794V463.398L439.379 448.401V478.797L440.118 478.374V447.978L466.078 432.981V463.377L466.818 462.954V432.558L492.778 417.561V447.957L493.517 447.535V417.138L519.858 401.93V401.064L493.517 416.272V386.299L519.858 371.09V370.224L493.517 385.433V355.459L519.858 340.25V339.384L493.517 354.593V324.619L519.858 309.411V308.545L493.517 323.753V293.78L519.858 278.571V277.705L493.517 292.914V262.94L519.858 247.731ZM466.078 278.782V308.756L440.118 323.753V293.78L466.078 278.782ZM413.418 369.992V340.018L439.379 325.021V354.994L413.418 369.992ZM439.379 355.86V385.834L413.418 400.831V370.858L439.379 355.86ZM412.679 370.414L386.719 385.412V355.438L412.679 340.441V370.414ZM412.679 371.28V401.254L386.719 416.251V386.278L412.679 371.28ZM412.679 402.12V432.094L386.719 447.091V417.117L412.679 402.12ZM413.418 401.698L439.379 386.7V416.674L413.418 431.671V401.698ZM440.118 386.278L466.078 371.28V401.254L440.118 416.251V386.278ZM440.118 385.412V355.438L466.078 340.441V370.414L440.118 385.412ZM440.118 354.572V324.598L466.078 309.601V339.574L440.118 354.572ZM439.379 294.181V324.155L413.418 339.152V309.178L439.379 294.181ZM412.679 309.601V339.574L386.719 354.572V324.598L412.679 309.601ZM360.019 339.997L385.979 325V354.973L360.019 369.971V339.997ZM360.019 370.837L385.979 355.839V385.813L360.019 400.81V370.837ZM360.019 401.676L385.979 386.679V416.653L360.019 431.65V401.676ZM360.019 432.516L385.979 417.519V447.492L360.019 462.49V432.516ZM360.019 493.329V463.356L385.979 448.358V478.332L360.019 493.329ZM386.719 477.91V447.936L412.679 432.939V462.912L386.719 477.91ZM413.418 462.49V432.516L439.379 417.519V447.492L413.418 462.49ZM440.118 447.07V417.096L466.078 402.099V432.073L440.118 447.07ZM492.778 416.674L466.818 431.671V401.698L492.778 386.7V416.674ZM492.778 385.834L466.818 400.831V370.858L492.778 355.86V385.834ZM492.778 354.994L466.818 369.992V340.018L492.778 325.021V354.994ZM492.778 324.155L466.818 339.152V309.178L492.778 294.181V324.155ZM492.778 293.315L466.818 308.312V278.339L492.778 263.341V293.315Z" fill="#40248F"/>
<path d="M332.918 324.39L146 216.473L332.918 108.555L519.837 216.473L332.918 324.39Z" fill="#9576EC"/>
<path d="M332.918 322.404L147.711 215.479L146 216.471L332.918 324.389L519.837 216.471L518.126 215.479L332.918 322.404Z" fill="black"/>
<path d="M492.778 232.102L493.517 231.679L467.177 216.471L493.517 201.262L492.778 200.84L466.437 216.048L440.477 201.051L466.818 185.842L466.078 185.42L439.738 200.628L413.777 185.631L440.118 170.422L439.379 170L413.038 185.208L387.078 170.211L413.418 155.002L412.679 154.58L386.339 169.789L360.378 154.791L386.719 139.583L385.979 139.16L359.639 154.369L333.679 139.371L360.019 124.163L359.28 123.74L332.939 138.949L306.599 123.74L305.86 124.163L332.2 139.371L306.24 154.369L279.899 139.16L279.16 139.583L305.501 154.791L279.54 169.789L253.2 154.58L252.46 155.002L278.801 170.211L252.841 185.208L226.5 170L225.761 170.422L252.101 185.631L226.141 200.628L199.801 185.42L199.061 185.842L225.402 201.051L199.441 216.048L173.101 200.84L172.362 201.262L198.702 216.471L172.362 231.679L173.101 232.102L199.441 216.893L225.402 231.89L199.061 247.099L199.801 247.522L226.141 232.313L252.101 247.31L225.761 262.519L226.5 262.941L252.841 247.733L278.801 262.73L252.46 277.939L253.2 278.361L279.54 263.153L305.501 278.15L279.16 293.359L279.899 293.781L306.24 278.573L332.2 293.57L305.86 308.779L306.599 309.201L332.939 293.992L359.28 309.201L360.019 308.779L333.679 293.57L359.639 278.573L385.979 293.781L386.719 293.359L360.378 278.15L386.339 263.153L412.679 278.361L413.418 277.939L387.078 262.73L413.038 247.733L439.379 262.941L440.118 262.519L413.777 247.31L439.738 232.313L466.078 247.522L466.818 247.099L440.477 231.89L466.437 216.893L492.778 232.102ZM438.998 201.051L413.038 216.048L387.078 201.051L413.038 186.053L438.998 201.051ZM333.679 201.051L359.639 186.053L385.599 201.051L359.639 216.048L333.679 201.051ZM358.9 216.471L332.939 231.468L306.979 216.471L332.939 201.473L358.9 216.471ZM332.939 200.628L306.979 185.631L332.939 170.633L358.9 185.631L332.939 200.628ZM332.2 201.051L306.24 216.048L280.28 201.051L306.24 186.053L332.2 201.051ZM305.501 216.471L279.54 231.468L253.58 216.471L279.54 201.473L305.501 216.471ZM306.24 216.893L332.2 231.89L306.24 246.888L280.28 231.89L306.24 216.893ZM332.939 232.313L358.9 247.31L332.939 262.308L306.979 247.31L332.939 232.313ZM333.679 231.89L359.639 216.893L385.599 231.89L359.639 246.888L333.679 231.89ZM360.378 216.471L386.339 201.473L412.299 216.471L386.339 231.468L360.378 216.471ZM412.299 185.631L386.339 200.628L360.378 185.631L386.339 170.633L412.299 185.631ZM385.599 170.211L359.639 185.208L333.679 170.211L359.639 155.214L385.599 170.211ZM332.939 139.815L358.9 154.812L332.939 169.81L306.979 154.812L332.939 139.815ZM306.24 155.235L332.2 170.232L306.24 185.23L280.28 170.232L306.24 155.235ZM279.54 170.655L305.501 185.652L279.54 200.649L253.58 185.652L279.54 170.655ZM252.841 186.074L278.801 201.072L252.841 216.069L226.88 201.072L252.841 186.074ZM200.181 216.471L226.141 201.473L252.101 216.471L226.141 231.468L200.181 216.471ZM226.88 231.89L252.841 216.893L278.801 231.89L252.841 246.888L226.88 231.89ZM253.58 247.31L279.54 232.313L305.501 247.31L279.54 262.308L253.58 247.31ZM280.28 262.73L306.24 247.733L332.2 262.73L306.24 277.728L280.28 262.73ZM332.939 293.126L306.979 278.129L332.939 263.132L358.9 278.129L332.939 293.126ZM359.639 277.706L333.679 262.709L359.639 247.712L385.599 262.709L359.639 277.706ZM386.339 262.287L360.378 247.289L386.339 232.292L412.299 247.289L386.339 262.287ZM413.038 246.867L387.078 231.869L413.038 216.872L438.998 231.869L413.038 246.867ZM439.738 231.447L413.777 216.449L439.738 201.452L465.698 216.449L439.738 231.447Z" fill="#40248F"/>
<path class="cube6" d="M558.508 254.281L533.477 239.854V268.729L558.508 283.177L583.518 268.729V239.854L558.508 254.281Z" fill="#9576EC"/>
<path class="cube6" d="M558.508 283.177L533.477 268.729V239.854L558.508 254.281V283.177Z" fill="#9576EC"/>
<path class="cube6" d="M583.518 268.729L558.508 283.177V254.281L583.518 239.854V268.729Z" fill="#6B4DC0"/>
<path class="cube6" d="M558.508 254.282L533.477 239.854L558.508 225.406L583.518 239.854L558.508 254.282Z" fill="#9576EC"/>
<path class="cube6" d="M558.508 254.283L534.576 240.469L533.477 241.102L558.508 255.551L583.518 241.102L582.441 240.469L558.508 254.283Z" fill="black"/>
<g filter="url(#filter1_d_1262_7859)">
<path class="cube4" d="M490.618 426.94L465.609 412.492V441.389L490.618 455.837L515.649 441.389V412.492L490.618 426.94Z" fill="#9576EC"/>
<path class="cube4" d="M490.618 455.837L465.609 441.389V412.492L490.618 426.94V455.837Z" fill="#9576EC"/>
<path class="cube4" d="M515.649 441.389L490.618 455.837V426.94L515.649 412.492V441.389Z" fill="#6B4DC0"/>
<path class="cube4" d="M490.618 426.942L465.609 412.493L490.618 398.066L515.649 412.493L490.618 426.942Z" fill="#9576EC"/>
<path class="cube4" d="M490.618 426.943L466.686 413.129L465.609 413.763L490.618 428.211L515.649 413.763L514.551 413.129L490.618 426.943Z" fill="black"/>
</g>
<g opacity="0.5">
<path class="cube7" d="M490.678 126.41L478.173 119.186V133.634L490.678 140.837L503.183 133.634V119.186L490.678 126.41Z" fill="#9576EC"/>
<path class="cube7" d="M490.678 140.837L478.173 133.634V119.186L490.678 126.41V140.837Z" fill="#9576EC"/>
<path class="cube7" d="M503.183 133.634L490.678 140.837V126.41L503.183 119.186V133.634Z" fill="#6B4DC0"/>
<path class="cube7" d="M490.678 126.411L478.173 119.187L490.678 111.963L503.183 119.187L490.678 126.411Z" fill="#9576EC"/>
<path class="cube7" d="M490.678 126.411L478.701 119.504L478.173 119.8L490.678 127.024L503.183 119.8L502.634 119.504L490.678 126.411Z" fill="black"/>
</g>
<path class="cube1" d="M225.372 125.531L174.677 96.2754V154.807L225.372 184.084L276.089 154.807V96.2754L225.372 125.531Z" fill="#9576EC"/>
<path class="cube1" d="M225.372 184.084L174.677 154.807V96.2754L225.372 125.531V184.084Z" fill="#9576EC"/>
<path class="cube1" d="M276.089 154.807L225.372 184.084V125.531L276.089 96.2754V154.807Z" fill="#6B4DC0"/>
<path class="cube1" d="M225.372 125.532L174.677 96.2766L225.372 67L276.089 96.2766L225.372 125.532Z" fill="#9576EC"/>
<path class="cube1" d="M225.372 125.533L176.874 97.5449L174.677 98.8123L225.372 128.089L276.089 98.8123L273.892 97.5449L225.372 125.533Z" fill="black"/>
<path d="M279.15 232.268L225.383 201.231L279.15 170.195L332.918 201.231L279.15 232.268Z" fill="#40248F"/>
<path d="M411.819 277.295L385.612 262.154L411.819 247.035L438.026 262.154L411.819 277.295Z" fill="#40248F"/>
<path class="cube5" d="M102.01 398.042L77 383.615V412.491L102.01 426.939L127.019 412.491V383.615L102.01 398.042Z" fill="#9576EC"/>
<path class="cube5" d="M102.01 426.939L77 412.491V383.615L102.01 398.042V426.939Z" fill="#9576EC"/>
<path class="cube5" d="M127.019 412.491L102.01 426.939V398.042L127.019 383.615V412.491Z" fill="#6B4DC0"/>
<path class="cube5" d="M102.01 398.043L77 383.616L102.01 369.168L127.019 383.616L102.01 398.043Z" fill="#9576EC"/>
<path class="cube5" d="M102.01 398.045L78.0773 384.23L77 384.864L102.01 399.312L127.019 384.864L125.942 384.23L102.01 398.045Z" fill="black"/>
<path d="M279.715 386.441L252.621 370.808V339.523L279.715 355.157V386.441Z" fill="#40248F"/>
<g filter="url(#filter4_d_1262_7859)">
<path class="cube3" d="M232.867 335.075L207.858 320.627V349.502L232.867 363.95L257.898 349.502V320.627L232.867 335.075Z" fill="#9576EC"/>
<path class="cube3" d="M232.867 363.95L207.858 349.502V320.627L232.867 335.075V363.95Z" fill="#9576EC"/>
<path class="cube3" d="M257.898 349.502L232.867 363.95V335.075L257.898 320.627V349.502Z" fill="#6B4DC0"/>
<path class="cube3" d="M232.867 335.076L207.858 320.628L232.867 306.18L257.898 320.628L232.867 335.076Z" fill="#9576EC"/>
<path class="cube3" d="M232.867 335.078L208.935 321.242L207.858 321.876L232.867 336.324L257.898 321.876L256.8 321.242L232.867 335.078Z" fill="black"/>
</g>
<g filter="url(#filter5_d_1262_7859)">
<path class="cube2" d="M385.612 243.696L360.581 229.248V258.123L385.612 272.572L410.622 258.123V229.248L385.612 243.696Z" fill="#9576EC"/>
<path class="cube2" d="M385.612 272.572L360.581 258.123V229.248L385.612 243.696V272.572Z" fill="#9576EC"/>
<path class="cube2" d="M410.622 258.123L385.612 272.572V243.696L410.622 229.248V258.123Z" fill="#6B4DC0"/>
<path class="cube2" d="M385.612 243.697L360.581 229.249L385.612 214.801L410.622 229.249L385.612 243.697Z" fill="#9576EC"/>
<path class="cube2" d="M385.612 243.699L361.679 229.863L360.581 230.497L385.612 244.945L410.622 230.497L409.544 229.863L385.612 243.699Z" fill="black"/>
</g>
<defs>
<filter id="filter0_f_1262_7859" x="30" y="221" width="605" height="394" filterUnits="userSpaceOnUse" color-interpolation-filters="sRGB">
<feFlood flood-opacity="0" result="BackgroundImageFix"/>
<feBlend mode="normal" in="SourceGraphic" in2="BackgroundImageFix" result="shape"/>
<feGaussianBlur stdDeviation="27" result="effect1_foregroundBlur_1262_7859"/>
</filter>
<filter id="filter1_d_1262_7859" x="431.609" y="382.066" width="98.0406" height="105.77" filterUnits="userSpaceOnUse" color-interpolation-filters="sRGB">
<feFlood flood-opacity="0" result="BackgroundImageFix"/>
<feColorMatrix in="SourceAlpha" type="matrix" values="0 0 0 0 0 0 0 0 0 0 0 0 0 0 0 0 0 0 127 0" result="hardAlpha"/>
<feOffset dx="-10" dy="8"/>
<feGaussianBlur stdDeviation="12"/>
<feComposite in2="hardAlpha" operator="out"/>
<feColorMatrix type="matrix" values="0 0 0 0 0.0797691 0 0 0 0 0.0321876 0 0 0 0 0.214583 0 0 0 0.25 0"/>
<feBlend mode="normal" in2="BackgroundImageFix" result="effect1_dropShadow_1262_7859"/>
<feBlend mode="normal" in="SourceGraphic" in2="effect1_dropShadow_1262_7859" result="shape"/>
</filter>
<filter id="filter2_f_1262_7859" x="15.5049" y="380.164" width="158.041" height="136.875" filterUnits="userSpaceOnUse" color-interpolation-filters="sRGB">
<feFlood flood-opacity="0" result="BackgroundImageFix"/>
<feBlend mode="normal" in="SourceGraphic" in2="BackgroundImageFix" result="shape"/>
<feGaussianBlur stdDeviation="27" result="effect1_foregroundBlur_1262_7859"/>
</filter>
<filter id="filter3_f_1262_7859" x="537.076" y="351.312" width="182.924" height="151.26" filterUnits="userSpaceOnUse" color-interpolation-filters="sRGB">
<feFlood flood-opacity="0" result="BackgroundImageFix"/>
<feBlend mode="normal" in="SourceGraphic" in2="BackgroundImageFix" result="shape"/>
<feGaussianBlur stdDeviation="27" result="effect1_foregroundBlur_1262_7859"/>
</filter>
<filter id="filter4_d_1262_7859" x="173.858" y="290.18" width="98.0406" height="105.771" filterUnits="userSpaceOnUse" color-interpolation-filters="sRGB">
<feFlood flood-opacity="0" result="BackgroundImageFix"/>
<feColorMatrix in="SourceAlpha" type="matrix" values="0 0 0 0 0 0 0 0 0 0 0 0 0 0 0 0 0 0 127 0" result="hardAlpha"/>
<feOffset dx="-10" dy="8"/>
<feGaussianBlur stdDeviation="12"/>
<feComposite in2="hardAlpha" operator="out"/>
<feColorMatrix type="matrix" values="0 0 0 0 0.0797691 0 0 0 0 0.0321876 0 0 0 0 0.214583 0 0 0 0.25 0"/>
<feBlend mode="normal" in2="BackgroundImageFix" result="effect1_dropShadow_1262_7859"/>
<feBlend mode="normal" in="SourceGraphic" in2="effect1_dropShadow_1262_7859" result="shape"/>
</filter>
<filter id="filter5_d_1262_7859" x="326.581" y="198.801" width="98.0406" height="105.771" filterUnits="userSpaceOnUse" color-interpolation-filters="sRGB">
<feFlood flood-opacity="0" result="BackgroundImageFix"/>
<feColorMatrix in="SourceAlpha" type="matrix" values="0 0 0 0 0 0 0 0 0 0 0 0 0 0 0 0 0 0 127 0" result="hardAlpha"/>
<feOffset dx="-10" dy="8"/>
<feGaussianBlur stdDeviation="12"/>
<feComposite in2="hardAlpha" operator="out"/>
<feColorMatrix type="matrix" values="0 0 0 0 0.0797691 0 0 0 0 0.0321876 0 0 0 0 0.214583 0 0 0 0.25 0"/>
<feBlend mode="normal" in2="BackgroundImageFix" result="effect1_dropShadow_1262_7859"/>
<feBlend mode="normal" in="SourceGraphic" in2="effect1_dropShadow_1262_7859" result="shape"/>
</filter>
</defs>
</svg>
