<svg width="609" height="672" viewBox="0 0 609 672" fill="none" xmlns="http://www.w3.org/2000/svg">

    <path d="M535.968 114.555H402.604C399.119 114.555 396.293 117.38 396.293 120.866V202.938C396.293 206.423 399.119 209.249 402.604 209.249H535.968C539.453 209.249 542.279 206.423 542.279 202.938V120.866C542.279 117.38 539.453 114.555 535.968 114.555Z" fill="url(#paint2_linear_1257_7175)"/>
    <path d="M533.107 118.215H405.545C402.26 118.215 399.598 120.878 399.598 124.162V200.372C399.598 203.656 402.26 206.319 405.545 206.319H533.107C536.391 206.319 539.054 203.656 539.054 200.372V124.162C539.054 120.878 536.391 118.215 533.107 118.215Z" stroke="url(#paint3_linear_1257_7175)" stroke-width="0.34" stroke-miterlimit="10"/>
    <path d="M462.476 175.596H477.172C477.648 175.596 478.048 175.433 478.371 175.106C478.693 174.78 478.854 174.375 478.854 173.893C478.854 173.41 478.693 173.009 478.371 172.689C478.048 172.369 477.648 172.209 477.172 172.209H462.476C461.999 172.209 461.6 172.372 461.277 172.699C460.955 173.025 460.793 173.43 460.793 173.912C460.793 174.395 460.955 174.796 461.277 175.116C461.6 175.436 461.999 175.596 462.476 175.596ZM462.476 165.999H477.172C477.648 165.999 478.048 165.836 478.371 165.509C478.693 165.183 478.854 164.778 478.854 164.296C478.854 163.813 478.693 163.412 478.371 163.092C478.048 162.772 477.648 162.612 477.172 162.612H462.476C461.999 162.612 461.6 162.775 461.277 163.102C460.955 163.428 460.793 163.833 460.793 164.316C460.793 164.798 460.955 165.199 461.277 165.519C461.6 165.839 461.999 165.999 462.476 165.999ZM455.24 185.193C454.343 185.193 453.558 184.854 452.885 184.177C452.212 183.499 451.875 182.709 451.875 181.806V143.418C451.875 142.515 452.212 141.725 452.885 141.047C453.558 140.37 454.343 140.031 455.24 140.031H474.087C474.552 140.031 474.996 140.125 475.417 140.314C475.839 140.502 476.199 140.746 476.499 141.047L486.763 151.378C487.062 151.679 487.305 152.042 487.492 152.466C487.679 152.891 487.773 153.337 487.773 153.806V181.806C487.773 182.709 487.436 183.499 486.763 184.177C486.09 184.854 485.305 185.193 484.407 185.193H455.24ZM473.806 152.225C473.806 152.705 473.968 153.107 474.29 153.432C474.613 153.756 475.012 153.918 475.489 153.918H484.407L473.806 143.418V152.225Z" fill="#F5FFF9"/>
    <g filter="url(#filter1_d_1257_7175)">
        <path d="M404.777 98.2012H294.754C291.878 98.2012 289.547 100.532 289.547 103.408V171.121C289.547 173.997 291.878 176.328 294.754 176.328H404.777C407.653 176.328 409.984 173.997 409.984 171.121V103.408C409.984 100.532 407.653 98.2012 404.777 98.2012Z" fill="url(#paint4_linear_1257_7175)"/>
    </g>
    <circle cx="302" cy="110" r="12" fill="#292B28"/>
    <path fill-rule="evenodd" clip-rule="evenodd" d="M338.111 120.455C341.482 118.202 345.445 117 349.5 117C354.937 117 360.151 119.16 363.996 123.004C367.84 126.849 370 132.063 370 137.5C370 141.555 368.798 145.518 366.545 148.889C364.293 152.26 361.091 154.888 357.345 156.44C353.599 157.991 349.477 158.397 345.501 157.606C341.524 156.815 337.871 154.863 335.004 151.996C332.137 149.129 330.185 145.476 329.394 141.499C328.603 137.523 329.009 133.401 330.56 129.655C332.112 125.909 334.74 122.707 338.111 120.455ZM339.738 152.11C342.627 154.041 346.025 155.071 349.5 155.071C354.16 155.071 358.63 153.22 361.925 149.925C365.22 146.63 367.071 142.16 367.071 137.5C367.071 134.025 366.041 130.627 364.11 127.738C362.179 124.848 359.435 122.596 356.224 121.266C353.014 119.936 349.481 119.588 346.072 120.266C342.663 120.944 339.533 122.618 337.075 125.075C334.618 127.533 332.944 130.663 332.266 134.072C331.588 137.481 331.936 141.014 333.266 144.224C334.596 147.435 336.848 150.179 339.738 152.11ZM341.365 125.325C343.773 123.716 346.604 122.857 349.5 122.857C353.384 122.857 357.108 124.4 359.854 127.146C362.6 129.892 364.143 133.616 364.143 137.5C364.143 140.396 363.284 143.227 361.675 145.635C360.066 148.043 357.779 149.92 355.104 151.028C352.428 152.137 349.484 152.426 346.643 151.861C343.803 151.296 341.194 149.902 339.146 147.854C337.098 145.806 335.704 143.197 335.139 140.357C334.574 137.516 334.863 134.572 335.972 131.896C337.08 129.221 338.957 126.934 341.365 125.325ZM348.465 130.607C348.19 130.882 348.036 131.255 348.036 131.643V134.571C348.036 134.96 348.19 135.332 348.465 135.607C348.739 135.881 349.112 136.036 349.5 136.036C349.888 136.036 350.261 135.881 350.535 135.607C350.81 135.332 350.964 134.96 350.964 134.571V131.643C350.964 131.255 350.81 130.882 350.535 130.607C350.261 130.333 349.888 130.179 349.5 130.179C349.112 130.179 348.739 130.333 348.465 130.607ZM343.643 138.964H346.571C346.96 138.964 347.332 138.81 347.607 138.535C347.881 138.261 348.036 137.888 348.036 137.5C348.036 137.112 347.881 136.739 347.607 136.465C347.332 136.19 346.96 136.036 346.571 136.036H343.643C343.255 136.036 342.882 136.19 342.607 136.465C342.333 136.739 342.179 137.112 342.179 137.5C342.179 137.888 342.333 138.261 342.607 138.535C342.882 138.81 343.255 138.964 343.643 138.964ZM350.535 144.393C350.81 144.118 350.964 143.745 350.964 143.357V140.429C350.964 140.04 350.81 139.668 350.535 139.393C350.261 139.119 349.888 138.964 349.5 138.964C349.112 138.964 348.739 139.119 348.465 139.393C348.19 139.668 348.036 140.04 348.036 140.429V143.357C348.036 143.745 348.19 144.118 348.465 144.393C348.739 144.667 349.112 144.821 349.5 144.821C349.888 144.821 350.261 144.667 350.535 144.393ZM352.429 138.964H355.357C355.745 138.964 356.118 138.81 356.393 138.535C356.667 138.261 356.821 137.888 356.821 137.5C356.821 137.112 356.667 136.739 356.393 136.465C356.118 136.19 355.745 136.036 355.357 136.036H352.429C352.04 136.036 351.668 136.19 351.393 136.465C351.119 136.739 350.964 137.112 350.964 137.5C350.964 137.888 351.119 138.261 351.393 138.535C351.668 138.81 352.04 138.964 352.429 138.964Z" fill="#F5FFF9"/>
    <path d="M402.266 100.594H297.279C294.558 100.594 292.352 102.8 292.352 105.521V169.023C292.352 171.745 294.558 173.951 297.279 173.951H402.266C404.987 173.951 407.194 171.745 407.194 169.023V105.521C407.194 102.8 404.987 100.594 402.266 100.594Z" stroke="url(#paint5_linear_1257_7175)" stroke-width="0.4" stroke-miterlimit="10"/>
    <path d="M188.957 277.076H78.9334C76.0577 277.076 73.7266 279.407 73.7266 282.283V349.996C73.7266 352.872 76.0577 355.203 78.9334 355.203H188.957C191.833 355.203 194.164 352.872 194.164 349.996V282.283C194.164 279.407 191.833 277.076 188.957 277.076Z" fill="url(#paint6_linear_1257_7175)"/>
    <path d="M185.524 280.195H82.3697C79.7018 280.195 77.5391 282.358 77.5391 285.026V347.253C77.5391 349.921 79.7018 352.084 82.3697 352.084H185.524C188.192 352.084 190.354 349.921 190.354 347.253V285.026C190.354 282.358 188.192 280.195 185.524 280.195Z" stroke="url(#paint7_linear_1257_7175)" stroke-width="0.43" stroke-miterlimit="10"/>
    <path d="M284.34 499.623H174.316C171.441 499.623 169.109 501.954 169.109 504.83V572.543C169.109 575.419 171.441 577.75 174.316 577.75H284.34C287.216 577.75 289.547 575.419 289.547 572.543V504.83C289.547 501.954 287.216 499.623 284.34 499.623Z" fill="url(#paint8_linear_1257_7175)"/>
    <path d="M281.997 501.746H176.671C173.936 501.746 171.719 503.963 171.719 506.698V570.661C171.719 573.396 173.936 575.613 176.671 575.613H281.997C284.732 575.613 286.949 573.396 286.949 570.661V506.698C286.949 503.963 284.732 501.746 281.997 501.746Z" stroke="url(#paint9_linear_1257_7175)" stroke-width="0.41" stroke-miterlimit="10"/>
    <path d="M215.097 558.659C211.771 554.386 212.645 523.716 215.097 521.167C218.616 517.514 250.44 535.804 250.44 539.907C250.44 544.009 218.799 563.429 215.097 558.647V558.659Z" fill="#F5FFF9"/>
    <g filter="url(#filter2_d_1257_7175)">
        <path d="M196.675 443.588H63.3113C59.8257 443.588 57 446.414 57 449.899V531.971C57 535.457 59.8257 538.282 63.3113 538.282H196.675C200.16 538.282 202.986 535.457 202.986 531.971V449.899C202.986 446.414 200.16 443.588 196.675 443.588Z" fill="url(#paint10_linear_1257_7175)"/>
    </g>
    <path d="M194.006 446.814H65.9832C62.6852 446.814 60.0117 449.488 60.0117 452.786V529.092C60.0117 532.39 62.6852 535.064 65.9832 535.064H194.006C197.304 535.064 199.978 532.39 199.978 529.092V452.786C199.978 449.488 197.304 446.814 194.006 446.814Z" stroke="url(#paint11_linear_1257_7175)" stroke-width="0.4" stroke-miterlimit="10"/>
    <path d="M144.898 480.521H144.06C141.669 474.246 135.601 469.768 128.488 469.768C119.276 469.768 111.812 477.232 111.812 486.444H108.11C101.034 486.444 95.293 492.185 95.293 499.261C95.293 506.337 101.034 512.078 108.11 512.078H145.177C153.77 511.92 160.688 504.917 160.688 496.299C160.688 487.585 153.624 480.521 144.91 480.521H144.898Z" fill="#F5FFF9"/>
    <path d="M545.675 285H412.311C408.826 285 406 287.826 406 291.311V373.383C406 376.869 408.826 379.694 412.311 379.694H545.675C549.16 379.694 551.986 376.869 551.986 373.383V291.311C551.986 287.826 549.16 285 545.675 285Z" fill="url(#paint12_linear_1257_7175)"/>
    <path d="M473.613 362C472.895 362 472.272 361.754 471.745 361.262C471.219 360.771 470.907 360.156 470.812 359.419L469.95 352.56C469.327 352.314 468.741 352.019 468.19 351.675C467.639 351.331 467.1 350.962 466.574 350.569L460.325 353.224C459.654 353.519 458.984 353.556 458.313 353.334C457.643 353.113 457.116 352.683 456.733 352.044L451.418 342.53C451.035 341.891 450.915 341.202 451.059 340.465C451.202 339.727 451.562 339.137 452.136 338.695L457.523 334.491C457.475 334.147 457.451 333.815 457.451 333.496V331.504C457.451 331.185 457.475 330.853 457.523 330.509L452.136 326.305C451.562 325.862 451.202 325.272 451.059 324.535C450.915 323.797 451.035 323.109 451.418 322.47L456.733 312.956C457.116 312.317 457.643 311.887 458.313 311.666C458.984 311.444 459.654 311.481 460.325 311.776L466.574 314.431C467.1 314.038 467.651 313.669 468.226 313.325C468.8 312.981 469.375 312.686 469.95 312.44L470.812 305.581C470.907 304.844 471.219 304.229 471.745 303.737C472.272 303.246 472.895 303 473.613 303H484.387C485.105 303 485.728 303.246 486.255 303.737C486.781 304.229 487.093 304.844 487.188 305.581L488.05 312.44C488.673 312.686 489.259 312.981 489.81 313.325C490.361 313.669 490.9 314.038 491.426 314.431L497.675 311.776C498.346 311.481 499.016 311.444 499.687 311.666C500.357 311.887 500.884 312.317 501.267 312.956L506.582 322.47C506.965 323.109 507.085 323.797 506.941 324.535C506.798 325.272 506.438 325.862 505.864 326.305L500.477 330.509C500.525 330.853 500.549 331.185 500.549 331.504V333.496C500.549 333.815 500.501 334.147 500.405 334.491L505.792 338.695C506.367 339.137 506.726 339.727 506.869 340.465C507.013 341.202 506.893 341.891 506.51 342.53L501.195 351.97C500.812 352.609 500.273 353.052 499.579 353.297C498.884 353.543 498.202 353.519 497.532 353.224L491.426 350.569C490.9 350.962 490.349 351.331 489.774 351.675C489.2 352.019 488.625 352.314 488.05 352.56L487.188 359.419C487.093 360.156 486.781 360.771 486.255 361.262C485.728 361.754 485.105 362 484.387 362H473.613ZM479.144 342.825C481.921 342.825 484.291 341.817 486.255 339.801C488.218 337.785 489.2 335.352 489.2 332.5C489.2 329.648 488.218 327.215 486.255 325.199C484.291 323.183 481.921 322.175 479.144 322.175C476.318 322.175 473.936 323.183 471.997 325.199C470.057 327.215 469.088 329.648 469.088 332.5C469.088 335.352 470.057 337.785 471.997 339.801C473.936 341.817 476.318 342.825 479.144 342.825Z" fill="#F5FFF9"/>
    <path d="M542.829 287.734H414.757C411.446 287.734 408.762 290.419 408.762 293.73V370.692C408.762 374.003 411.446 376.688 414.757 376.688H542.829C546.141 376.688 548.825 374.003 548.825 370.692V293.73C548.825 290.419 546.141 287.734 542.829 287.734Z" stroke="url(#paint13_linear_1257_7175)" stroke-width="0.36" stroke-miterlimit="10"/>
    <path d="M517.851 458.98H384.487C381.001 458.98 378.176 461.806 378.176 465.292V547.364C378.176 550.849 381.001 553.675 384.487 553.675H517.851C521.336 553.675 524.162 550.849 524.162 547.364V465.292C524.162 461.806 521.336 458.98 517.851 458.98Z" fill="url(#paint14_linear_1257_7175)"/>
    <path d="M514.829 462.027H387.51C384.219 462.027 381.551 464.695 381.551 467.987V544.682C381.551 547.973 384.219 550.641 387.51 550.641H514.829C518.121 550.641 520.789 547.973 520.789 544.682V467.987C520.789 464.695 518.121 462.027 514.829 462.027Z" stroke="url(#paint15_linear_1257_7175)" stroke-width="0.38" stroke-miterlimit="10"/>
    <path d="M444.03 483.947H406.866C404.064 483.947 401.793 486.219 401.793 489.021V512.676C401.793 515.478 404.064 517.749 406.866 517.749H444.03C446.832 517.749 449.104 515.478 449.104 512.676V489.021C449.104 486.219 446.832 483.947 444.03 483.947Z" fill="#F5FFF9"/>
    <path d="M426.928 515.408L410.082 515.517C410.483 515.651 435.655 525.919 435.655 525.919L426.928 515.408Z" fill="#F5FFF9"/>
    <path d="M495.773 492.115H458.608C455.807 492.115 453.535 494.387 453.535 497.189V520.844C453.535 523.646 455.807 525.917 458.608 525.917H495.773C498.574 525.917 500.846 523.646 500.846 520.844V497.189C500.846 494.387 498.574 492.115 495.773 492.115Z" fill="#F5FFF9"/>
    <path d="M473.672 523.15L490.518 523.26C490.118 523.393 464.945 533.661 464.945 533.661L473.672 523.15Z" fill="#F5FFF9"/>
    <path d="M200.62 94H67.2567C63.771 94 60.9453 96.8257 60.9453 100.311V182.383C60.9453 185.869 63.771 188.694 67.2567 188.694H200.62C204.106 188.694 206.931 185.869 206.931 182.383V100.311C206.931 96.8257 204.106 94 200.62 94Z" fill="url(#paint16_linear_1257_7175)"/>
    <path d="M197.029 98.1992H70.8505C67.6129 98.1992 64.9883 100.824 64.9883 104.061V178.632C64.9883 181.87 67.6129 184.495 70.8505 184.495H197.029C200.266 184.495 202.891 181.87 202.891 178.632V104.061C202.891 100.824 200.266 98.1992 197.029 98.1992Z" stroke="url(#paint17_linear_1257_7175)" stroke-width="0.32" stroke-miterlimit="10"/>
    <path fill-rule="evenodd" clip-rule="evenodd" d="M154.488 127.413C154.488 131.394 151.26 134.622 147.278 134.622C143.296 134.622 140.069 131.394 140.069 127.413C140.069 123.431 143.296 120.203 147.278 120.203C151.26 120.203 154.488 123.431 154.488 127.413ZM171.662 172.732H94.5662V172.72C92.8185 172.72 91.3984 171.3 91.3984 169.552V148.724L118.428 129.839C119.715 128.941 121.462 129.038 122.652 130.07L144.341 148.943C145.615 150.047 147.497 150.072 148.795 148.991L161.612 138.311C162.692 137.425 164.197 137.267 165.435 137.922L174.829 142.935V169.564C174.829 171.312 173.409 172.732 171.662 172.732Z" fill="#F5FFF9"/>
    <path fill-rule="evenodd" clip-rule="evenodd" d="M162.217 321.001L147.932 326.329C143.647 327.931 138.853 325.746 137.251 321.462L137.009 320.813L132.78 322.391L133.027 323.053C134.63 327.337 132.445 332.131 128.16 333.733L128.148 333.721L113.863 339.049C109.578 340.651 104.784 338.467 103.182 334.182L100.791 327.786C99.189 323.502 101.374 318.707 105.67 317.105L119.956 311.777C124.24 310.175 129.034 312.36 130.636 316.656L130.871 317.283L135.099 315.705L134.86 315.066C133.258 310.781 135.443 305.987 139.739 304.385L154.025 299.057C158.309 297.455 163.103 299.639 164.706 303.936L167.097 310.332C168.699 314.617 166.514 319.411 162.217 321.013V321.001ZM140.208 313.798L139.97 313.16C139.424 311.679 140.164 310.029 141.645 309.483L155.93 304.154C157.411 303.608 159.062 304.349 159.608 305.829L161.999 312.226C162.545 313.706 161.805 315.357 160.324 315.903L146.039 321.231C144.558 321.778 142.907 321.025 142.361 319.556L142.118 318.906L148.15 316.655C149.558 316.121 150.287 314.555 149.752 313.147C149.218 311.74 147.653 311.023 146.245 311.545L140.208 313.798ZM125.776 319.184L125.539 318.55C124.993 317.069 123.342 316.329 121.861 316.875L107.576 322.203C106.095 322.749 105.355 324.4 105.901 325.88L108.292 332.277C108.838 333.745 110.489 334.498 111.969 333.952L126.255 328.623C127.724 328.077 128.476 326.427 127.93 324.946L127.685 324.292L121.643 326.547C120.235 327.069 118.669 326.353 118.135 324.945C117.601 323.537 118.329 321.971 119.737 321.437L125.776 319.184Z" fill="#F5FFF9"/>
    <defs>
        <filter id="filter0_f_1257_7175" x="79.0312" y="114.723" width="453.027" height="466.975" filterUnits="userSpaceOnUse" color-interpolation-filters="sRGB">
            <feFlood flood-opacity="0" result="BackgroundImageFix"/>
            <feBlend mode="normal" in="SourceGraphic" in2="BackgroundImageFix" result="shape"/>
            <feGaussianBlur stdDeviation="75" result="effect1_foregroundBlur_1257_7175"/>
        </filter>
        <filter id="filter1_d_1257_7175" x="245.547" y="54.2012" width="228.438" height="186.127" filterUnits="userSpaceOnUse" color-interpolation-filters="sRGB">
            <feFlood flood-opacity="0" result="BackgroundImageFix"/>
            <feColorMatrix in="SourceAlpha" type="matrix" values="0 0 0 0 0 0 0 0 0 0 0 0 0 0 0 0 0 0 127 0" result="hardAlpha"/>
            <feOffset dx="10" dy="10"/>
            <feGaussianBlur stdDeviation="27"/>
            <feComposite in2="hardAlpha" operator="out"/>
            <feColorMatrix type="matrix" values="0 0 0 0 0 0 0 0 0 0 0 0 0 0 0 0 0 0 1 0"/>
            <feBlend mode="normal" in2="BackgroundImageFix" result="effect1_dropShadow_1257_7175"/>
            <feBlend mode="normal" in="SourceGraphic" in2="effect1_dropShadow_1257_7175" result="shape"/>
        </filter>
        <filter id="filter2_d_1257_7175" x="13" y="399.588" width="253.984" height="202.694" filterUnits="userSpaceOnUse" color-interpolation-filters="sRGB">
            <feFlood flood-opacity="0" result="BackgroundImageFix"/>
            <feColorMatrix in="SourceAlpha" type="matrix" values="0 0 0 0 0 0 0 0 0 0 0 0 0 0 0 0 0 0 127 0" result="hardAlpha"/>
            <feOffset dx="10" dy="10"/>
            <feGaussianBlur stdDeviation="27"/>
            <feComposite in2="hardAlpha" operator="out"/>
            <feColorMatrix type="matrix" values="0 0 0 0 0 0 0 0 0 0 0 0 0 0 0 0 0 0 1 0"/>
            <feBlend mode="normal" in2="BackgroundImageFix" result="effect1_dropShadow_1257_7175"/>
            <feBlend mode="normal" in="SourceGraphic" in2="effect1_dropShadow_1257_7175" result="shape"/>
        </filter>
        <linearGradient id="paint0_linear_1257_7175" x1="289.997" y1="406.014" x2="411.44" y2="267.578" gradientUnits="userSpaceOnUse">
            <stop stop-color="#353535"/>
            <stop offset="1" stop-color="#1B1B1B"/>
        </linearGradient>
        <linearGradient id="paint1_linear_1257_7175" x1="305.544" y1="264.723" x2="305.544" y2="431.697" gradientUnits="userSpaceOnUse">
            <stop/>
            <stop offset="1" stop-color="#646464"/>
        </linearGradient>
        <linearGradient id="paint2_linear_1257_7175" x1="454.454" y1="194.684" x2="511.414" y2="85.4595" gradientUnits="userSpaceOnUse">
            <stop stop-color="#353535"/>
            <stop offset="1" stop-color="#1B1B1B"/>
        </linearGradient>
        <linearGradient id="paint3_linear_1257_7175" x1="469.326" y1="118.215" x2="469.326" y2="206.319" gradientUnits="userSpaceOnUse">
            <stop/>
            <stop offset="1" stop-color="#646464"/>
        </linearGradient>
        <linearGradient id="paint4_linear_1257_7175" x1="337.53" y1="164.311" x2="384.526" y2="74.1989" gradientUnits="userSpaceOnUse">
            <stop stop-color="#353535"/>
            <stop offset="1" stop-color="#1B1B1B"/>
        </linearGradient>
        <linearGradient id="paint5_linear_1257_7175" x1="349.773" y1="100.594" x2="349.773" y2="173.951" gradientUnits="userSpaceOnUse">
            <stop/>
            <stop offset="1" stop-color="#646464"/>
        </linearGradient>
        <linearGradient id="paint6_linear_1257_7175" x1="121.709" y1="343.186" x2="168.705" y2="253.074" gradientUnits="userSpaceOnUse">
            <stop stop-color="#353535"/>
            <stop offset="1" stop-color="#1B1B1B"/>
        </linearGradient>
        <linearGradient id="paint7_linear_1257_7175" x1="133.947" y1="280.195" x2="133.947" y2="352.084" gradientUnits="userSpaceOnUse">
            <stop/>
            <stop offset="1" stop-color="#646464"/>
        </linearGradient>
        <linearGradient id="paint8_linear_1257_7175" x1="217.092" y1="565.733" x2="264.088" y2="475.621" gradientUnits="userSpaceOnUse">
            <stop stop-color="#353535"/>
            <stop offset="1" stop-color="#1B1B1B"/>
        </linearGradient>
        <linearGradient id="paint9_linear_1257_7175" x1="229.334" y1="501.746" x2="229.334" y2="575.613" gradientUnits="userSpaceOnUse">
            <stop/>
            <stop offset="1" stop-color="#646464"/>
        </linearGradient>
        <linearGradient id="paint10_linear_1257_7175" x1="115.161" y1="523.717" x2="172.121" y2="414.493" gradientUnits="userSpaceOnUse">
            <stop stop-color="#353535"/>
            <stop offset="1" stop-color="#1B1B1B"/>
        </linearGradient>
        <linearGradient id="paint11_linear_1257_7175" x1="129.995" y1="446.814" x2="129.995" y2="535.064" gradientUnits="userSpaceOnUse">
            <stop/>
            <stop offset="1" stop-color="#646464"/>
        </linearGradient>
        <linearGradient id="paint12_linear_1257_7175" x1="464.161" y1="365.129" x2="521.121" y2="255.905" gradientUnits="userSpaceOnUse">
            <stop stop-color="#353535"/>
            <stop offset="1" stop-color="#1B1B1B"/>
        </linearGradient>
        <linearGradient id="paint13_linear_1257_7175" x1="478.793" y1="287.734" x2="478.793" y2="376.688" gradientUnits="userSpaceOnUse">
            <stop/>
            <stop offset="1" stop-color="#646464"/>
        </linearGradient>
        <linearGradient id="paint14_linear_1257_7175" x1="436.337" y1="539.11" x2="493.297" y2="429.885" gradientUnits="userSpaceOnUse">
            <stop stop-color="#353535"/>
            <stop offset="1" stop-color="#1B1B1B"/>
        </linearGradient>
        <linearGradient id="paint15_linear_1257_7175" x1="451.17" y1="462.027" x2="451.17" y2="550.641" gradientUnits="userSpaceOnUse">
            <stop/>
            <stop offset="1" stop-color="#646464"/>
        </linearGradient>
        <linearGradient id="paint16_linear_1257_7175" x1="119.107" y1="174.129" x2="176.066" y2="64.9049" gradientUnits="userSpaceOnUse">
            <stop stop-color="#353535"/>
            <stop offset="1" stop-color="#1B1B1B"/>
        </linearGradient>
        <linearGradient id="paint17_linear_1257_7175" x1="133.94" y1="98.1992" x2="133.94" y2="184.495" gradientUnits="userSpaceOnUse">
            <stop/>
            <stop offset="1" stop-color="#646464"/>
        </linearGradient>
    </defs>
</svg>
