<svg width="713" height="952" viewBox="0 0 713 952" fill="none" xmlns="http://www.w3.org/2000/svg">
<g clip-path="url(#clip0_855_32194)">
<mask id="mask0_855_32194" style="mask-type:alpha" maskUnits="userSpaceOnUse" x="-314" y="-164" width="843" height="1547">
<path d="M-53 -73.5L527.5 -163L86 1381.5L-312.5 1327.5L-53 -73.5Z" fill="#D9D9D9" stroke="black"/>
</mask>
<g mask="url(#mask0_855_32194)">
<g opacity="0.4" filter="url(#filter0_f_855_32194)">
<ellipse cx="210.242" cy="408.706" rx="210.242" ry="408.706" transform="matrix(0.953003 0.30296 -0.220298 0.975433 257.074 -6.7207)" fill="#9576EC"/>
</g>
</g>
<g filter="url(#filter1_f_855_32194)">
<path class="fight-erc-20" d="M180.062 208.617L178.764 216H153.061L154.325 208.617H180.062ZM164.545 166.235L155.897 216H146.703L155.316 166.235H164.545ZM180.473 186.777L179.242 193.989H156.854L158.119 186.777H180.473ZM187.274 166.235L185.976 173.652H160.375L161.708 166.235H187.274Z" fill="#7D58E6"/>
<path class="fight-erc-20" d="M193.598 166.235L210.688 166.269C213.718 166.314 216.452 166.873 218.891 167.944C221.329 169.015 223.22 170.621 224.564 172.763C225.909 174.905 226.456 177.628 226.205 180.932C226 183.598 225.328 185.865 224.188 187.734C223.072 189.602 221.602 191.186 219.779 192.485C217.956 193.761 215.871 194.843 213.524 195.732L210.38 197.201H194.35L195.614 189.784L206.723 189.853C208.477 189.83 210.072 189.5 211.508 188.862C212.966 188.201 214.174 187.267 215.131 186.059C216.111 184.828 216.726 183.313 216.977 181.513C217.182 179.918 217.056 178.551 216.601 177.411C216.168 176.249 215.416 175.361 214.345 174.745C213.297 174.107 211.986 173.754 210.414 173.686L201.527 173.652L194.179 216H184.984L193.598 166.235ZM212.499 216L205.15 193.715L214.379 193.681L222.274 215.488V216H212.499Z" fill="#7D58E6"/>
<path class="fight-erc-20" d="M259.018 199.662L268.007 199.56C267.506 203.183 266.252 206.282 264.247 208.857C262.265 211.432 259.758 213.403 256.728 214.77C253.697 216.114 250.404 216.752 246.85 216.684C243.546 216.615 240.766 215.909 238.51 214.565C236.277 213.198 234.522 211.386 233.246 209.13C231.97 206.851 231.127 204.322 230.717 201.542C230.307 198.762 230.295 195.925 230.683 193.031L231.229 189.238C231.685 186.161 232.517 183.188 233.725 180.317C234.932 177.446 236.516 174.893 238.476 172.66C240.435 170.405 242.759 168.639 245.448 167.363C248.16 166.064 251.225 165.448 254.643 165.517C258.197 165.585 261.194 166.36 263.632 167.841C266.07 169.299 267.938 171.316 269.237 173.891C270.559 176.466 271.299 179.462 271.459 182.88H262.333C262.333 180.966 262.082 179.28 261.581 177.822C261.08 176.34 260.237 175.19 259.052 174.369C257.867 173.526 256.238 173.071 254.164 173.002C251.908 172.934 249.971 173.378 248.354 174.335C246.758 175.269 245.425 176.545 244.354 178.163C243.284 179.758 242.44 181.524 241.825 183.461C241.21 185.375 240.766 187.278 240.492 189.169L239.945 193.066C239.74 194.615 239.615 196.313 239.569 198.158C239.547 200.004 239.74 201.759 240.15 203.422C240.583 205.063 241.358 206.43 242.475 207.524C243.591 208.595 245.209 209.164 247.328 209.233C249.516 209.301 251.384 208.959 252.934 208.207C254.506 207.455 255.793 206.35 256.796 204.892C257.799 203.434 258.539 201.69 259.018 199.662Z" fill="#7D58E6"/>
<path class="fight-erc-20" d="M293.71 191.117L292.445 198.261H274.262L275.492 191.117H293.71Z" fill="#7D58E6"/>
<path class="fight-erc-20" d="M330.624 208.891L329.496 216H296.752L297.743 209.54L315.79 192.416C316.884 191.323 318.046 190.138 319.276 188.862C320.53 187.563 321.635 186.173 322.592 184.692C323.549 183.211 324.141 181.65 324.369 180.009C324.529 178.733 324.449 177.537 324.13 176.42C323.811 175.304 323.23 174.392 322.387 173.686C321.544 172.979 320.404 172.615 318.969 172.592C317.214 172.524 315.722 172.911 314.491 173.754C313.261 174.597 312.281 175.714 311.552 177.104C310.845 178.494 310.378 179.975 310.15 181.547L301.4 181.581C301.628 178.391 302.585 175.577 304.271 173.139C305.958 170.701 308.134 168.809 310.8 167.465C313.466 166.098 316.394 165.448 319.584 165.517C322.341 165.562 324.813 166.121 327.001 167.192C329.188 168.24 330.875 169.778 332.06 171.806C333.244 173.811 333.712 176.272 333.461 179.189C333.301 181.171 332.789 183.04 331.923 184.794C331.08 186.526 330.02 188.167 328.744 189.716C327.491 191.266 326.146 192.735 324.711 194.125C323.275 195.515 321.885 196.848 320.541 198.124L309.33 208.857L330.624 208.891Z" fill="#7D58E6"/>
<path class="fight-erc-20" d="M372.118 186.845L370.819 195.185C370.432 197.896 369.794 200.551 368.905 203.149C368.039 205.724 366.854 208.048 365.351 210.121C363.869 212.195 362.001 213.824 359.745 215.009C357.489 216.194 354.789 216.752 351.645 216.684C349.252 216.638 347.224 216.194 345.561 215.351C343.897 214.485 342.553 213.334 341.527 211.899C340.502 210.463 339.739 208.845 339.237 207.045C338.759 205.222 338.485 203.297 338.417 201.269C338.349 199.241 338.44 197.224 338.69 195.219L339.921 186.845C340.331 184.133 340.98 181.502 341.869 178.949C342.758 176.375 343.954 174.062 345.458 172.011C346.962 169.96 348.83 168.354 351.063 167.192C353.319 166.03 356.008 165.483 359.13 165.551C361.545 165.597 363.573 166.041 365.214 166.884C366.877 167.704 368.222 168.821 369.247 170.234C370.272 171.646 371.036 173.264 371.537 175.087C372.038 176.887 372.323 178.801 372.392 180.829C372.46 182.835 372.369 184.84 372.118 186.845ZM361.864 196.449L363.505 185.512C363.596 184.601 363.687 183.598 363.778 182.504C363.892 181.388 363.915 180.271 363.847 179.155C363.778 178.015 363.573 176.967 363.231 176.01C362.89 175.03 362.343 174.233 361.591 173.617C360.862 173.002 359.859 172.66 358.583 172.592C356.851 172.524 355.404 172.9 354.242 173.72C353.08 174.517 352.146 175.588 351.439 176.933C350.733 178.254 350.186 179.679 349.799 181.205C349.434 182.732 349.149 184.179 348.944 185.546L347.338 196.484C347.247 197.35 347.144 198.352 347.03 199.491C346.939 200.608 346.916 201.747 346.962 202.909C347.03 204.072 347.235 205.154 347.577 206.156C347.919 207.136 348.454 207.945 349.184 208.583C349.913 209.198 350.915 209.54 352.191 209.609C353.969 209.7 355.438 209.335 356.601 208.515C357.763 207.672 358.686 206.578 359.369 205.234C360.076 203.866 360.611 202.408 360.976 200.859C361.363 199.286 361.659 197.817 361.864 196.449Z" fill="#7D58E6"/>
</g>
<g filter="url(#filter2_f_855_32194)">
<path class="fight-erc-20" d="M180.062 209.106L178.764 216.489H153.061L154.325 209.106H180.062ZM164.545 166.723L155.897 216.489H146.703L155.316 166.723H164.545ZM180.473 187.265L179.242 194.477H156.854L158.119 187.265H180.473ZM187.274 166.723L185.976 174.14H160.375L161.708 166.723H187.274Z" fill="#472E8E"/>
<path class="fight-erc-20" d="M193.598 166.723L210.688 166.757C213.718 166.803 216.452 167.361 218.891 168.432C221.329 169.503 223.22 171.109 224.564 173.251C225.909 175.393 226.456 178.116 226.205 181.42C226 184.086 225.328 186.353 224.188 188.222C223.072 190.09 221.602 191.674 219.779 192.973C217.956 194.249 215.871 195.331 213.524 196.22L210.38 197.69H194.35L195.614 190.273L206.723 190.341C208.477 190.318 210.072 189.988 211.508 189.35C212.966 188.689 214.174 187.755 215.131 186.547C216.111 185.317 216.726 183.801 216.977 182.001C217.182 180.406 217.056 179.039 216.601 177.9C216.168 176.738 215.416 175.849 214.345 175.234C213.297 174.596 211.986 174.242 210.414 174.174L201.527 174.14L194.179 216.489H184.984L193.598 166.723ZM212.499 216.489L205.15 194.203L214.379 194.169L222.274 215.976V216.489H212.499Z" fill="#472E8E"/>
<path class="fight-erc-20" d="M259.018 200.151L268.007 200.048C267.506 203.671 266.252 206.77 264.247 209.345C262.265 211.92 259.758 213.891 256.728 215.258C253.697 216.602 250.404 217.24 246.85 217.172C243.546 217.104 240.766 216.397 238.51 215.053C236.277 213.686 234.522 211.874 233.246 209.618C231.97 207.34 231.127 204.81 230.717 202.031C230.307 199.251 230.295 196.414 230.683 193.52L231.229 189.726C231.685 186.65 232.517 183.676 233.725 180.805C234.932 177.934 236.516 175.382 238.476 173.149C240.435 170.893 242.759 169.127 245.448 167.851C248.16 166.552 251.225 165.937 254.643 166.005C258.197 166.073 261.194 166.848 263.632 168.329C266.07 169.788 267.938 171.804 269.237 174.379C270.559 176.954 271.299 179.95 271.459 183.368H262.333C262.333 181.454 262.082 179.768 261.581 178.31C261.08 176.829 260.237 175.678 259.052 174.858C257.867 174.015 256.238 173.559 254.164 173.49C251.908 173.422 249.971 173.866 248.354 174.823C246.758 175.758 245.425 177.034 244.354 178.652C243.284 180.247 242.44 182.013 241.825 183.949C241.21 185.864 240.766 187.766 240.492 189.657L239.945 193.554C239.74 195.103 239.615 196.801 239.569 198.647C239.547 200.492 239.74 202.247 240.15 203.91C240.583 205.551 241.358 206.918 242.475 208.012C243.591 209.083 245.209 209.653 247.328 209.721C249.516 209.789 251.384 209.448 252.934 208.696C254.506 207.944 255.793 206.838 256.796 205.38C257.799 203.922 258.539 202.179 259.018 200.151Z" fill="#472E8E"/>
<path class="fight-erc-20" d="M293.71 191.606L292.445 198.749H274.262L275.492 191.606H293.71Z" fill="#472E8E"/>
<path class="fight-erc-20" d="M330.624 209.379L329.496 216.489H296.752L297.743 210.029L315.79 192.905C316.884 191.811 318.046 190.626 319.276 189.35C320.53 188.051 321.635 186.661 322.592 185.18C323.549 183.699 324.141 182.138 324.369 180.497C324.529 179.221 324.449 178.025 324.13 176.908C323.811 175.792 323.23 174.88 322.387 174.174C321.544 173.468 320.404 173.103 318.969 173.08C317.214 173.012 315.722 173.399 314.491 174.242C313.261 175.086 312.281 176.202 311.552 177.592C310.845 178.982 310.378 180.463 310.15 182.035L301.4 182.07C301.628 178.879 302.585 176.065 304.271 173.627C305.958 171.189 308.134 169.298 310.8 167.953C313.466 166.586 316.394 165.937 319.584 166.005C322.341 166.051 324.813 166.609 327.001 167.68C329.188 168.728 330.875 170.266 332.06 172.294C333.244 174.299 333.712 176.76 333.461 179.677C333.301 181.659 332.789 183.528 331.923 185.282C331.08 187.014 330.02 188.655 328.744 190.204C327.491 191.754 326.146 193.224 324.711 194.614C323.275 196.003 321.885 197.337 320.541 198.613L309.33 209.345L330.624 209.379Z" fill="#472E8E"/>
<path class="fight-erc-20" d="M372.118 187.333L370.819 195.673C370.432 198.385 369.794 201.039 368.905 203.637C368.039 206.212 366.854 208.536 365.351 210.61C363.869 212.683 362.001 214.312 359.745 215.497C357.489 216.682 354.789 217.24 351.645 217.172C349.252 217.127 347.224 216.682 345.561 215.839C343.897 214.973 342.553 213.823 341.527 212.387C340.502 210.951 339.739 209.334 339.237 207.533C338.759 205.711 338.485 203.785 338.417 201.757C338.349 199.729 338.44 197.712 338.69 195.707L339.921 187.333C340.331 184.622 340.98 181.99 341.869 179.438C342.758 176.863 343.954 174.55 345.458 172.499C346.962 170.448 348.83 168.842 351.063 167.68C353.319 166.518 356.008 165.971 359.13 166.039C361.545 166.085 363.573 166.529 365.214 167.372C366.877 168.193 368.222 169.309 369.247 170.722C370.272 172.135 371.036 173.753 371.537 175.575C372.038 177.376 372.323 179.29 372.392 181.318C372.46 183.323 372.369 185.328 372.118 187.333ZM361.864 196.938L363.505 186C363.596 185.089 363.687 184.086 363.778 182.992C363.892 181.876 363.915 180.759 363.847 179.643C363.778 178.503 363.573 177.455 363.231 176.498C362.89 175.518 362.343 174.721 361.591 174.106C360.862 173.49 359.859 173.149 358.583 173.08C356.851 173.012 355.404 173.388 354.242 174.208C353.08 175.006 352.146 176.077 351.439 177.421C350.733 178.743 350.186 180.167 349.799 181.694C349.434 183.22 349.149 184.667 348.944 186.034L347.338 196.972C347.247 197.838 347.144 198.84 347.03 199.98C346.939 201.096 346.916 202.236 346.962 203.398C347.03 204.56 347.235 205.642 347.577 206.645C347.919 207.625 348.454 208.434 349.184 209.072C349.913 209.687 350.915 210.029 352.191 210.097C353.969 210.188 355.438 209.823 356.601 209.003C357.763 208.16 358.686 207.066 359.369 205.722C360.076 204.355 360.611 202.896 360.976 201.347C361.363 199.775 361.659 198.305 361.864 196.938Z" fill="#472E8E"/>
</g>
<path class="fight-erc-20" fill-rule="evenodd" clip-rule="evenodd" d="M268.3 199.045L259.31 199.145C258.83 201.175 258.09 202.915 257.09 204.375C256.08 205.835 254.8 206.945 253.23 207.695C251.68 208.445 249.81 208.785 247.62 208.715C245.5 208.645 243.88 208.075 242.77 207.005C241.65 205.915 240.88 204.545 240.44 202.905C240.03 201.245 239.84 199.485 239.86 197.645C239.91 195.795 240.03 194.095 240.24 192.555L240.78 188.655C241.06 186.765 241.5 184.865 242.12 182.945C242.73 181.005 243.58 179.245 244.65 177.645C245.72 176.035 247.05 174.755 248.65 173.815C250.26 172.865 252.2 172.415 254.46 172.485C256.53 172.555 258.16 173.015 259.34 173.855C260.53 174.675 261.37 175.825 261.87 177.305C262.37 178.765 262.62 180.455 262.62 182.365H271.75C271.59 178.945 270.85 175.955 269.53 173.375C268.23 170.805 266.36 168.785 263.92 167.325C261.49 165.845 258.49 165.075 254.93 165.005C251.52 164.935 248.45 165.545 245.74 166.845C243.05 168.125 240.73 169.885 238.77 172.145C236.81 174.375 235.22 176.935 234.02 179.805C232.81 182.675 231.98 185.645 231.52 188.725L230.97 192.515C230.59 195.415 230.6 198.245 231.01 201.025C231.42 203.805 232.26 206.335 233.54 208.615C234.81 210.875 236.57 212.685 238.8 214.045C241.06 215.395 243.84 216.105 247.14 216.165C250.7 216.235 253.99 215.595 257.02 214.255C260.05 212.885 262.56 210.915 264.54 208.345C266.54 205.765 267.8 202.665 268.3 199.045ZM333.75 178.676C333.59 180.656 333.08 182.526 332.22 184.276C331.37 186.016 330.31 187.656 329.04 189.206C327.78 190.756 326.44 192.226 325 193.606C323.57 194.996 322.18 196.336 320.83 197.606L309.62 208.346L330.92 208.376L329.79 215.486H297.04L298.03 209.026L316.08 191.906C317.18 190.806 318.34 189.626 319.57 188.346C320.82 187.046 321.93 185.656 322.88 184.176C323.84 182.696 324.43 181.136 324.66 179.496C324.82 178.216 324.74 177.026 324.42 175.906C324.1 174.786 323.52 173.876 322.68 173.176C321.84 172.466 320.7 172.096 319.26 172.076C317.51 172.006 316.01 172.396 314.78 173.236C313.55 174.086 312.57 175.196 311.84 176.586C311.14 177.976 310.67 179.456 310.44 181.036L301.69 181.066C301.92 177.876 302.88 175.066 304.56 172.626C306.25 170.186 308.43 168.296 311.09 166.946C313.76 165.586 316.69 164.936 319.88 165.006C322.63 165.046 325.11 165.606 327.29 166.676C329.48 167.726 331.17 169.266 332.35 171.296C333.54 173.296 334 175.756 333.75 178.676ZM371.83 174.576C372.33 176.376 372.61 178.286 372.68 180.316C372.75 182.316 372.66 184.326 372.41 186.326L371.11 194.666C370.72 197.386 370.09 200.036 369.2 202.636C368.33 205.206 367.15 207.536 365.64 209.606C364.16 211.676 362.29 213.306 360.04 214.496C357.78 215.676 355.08 216.236 351.94 216.166C349.54 216.126 347.52 215.676 345.85 214.836C344.19 213.966 342.84 212.816 341.82 211.386C340.79 209.946 340.03 208.336 339.53 206.526C339.05 204.706 338.78 202.786 338.71 200.756C338.64 198.726 338.73 196.706 338.98 194.706L340.21 186.326C340.62 183.616 341.27 180.986 342.16 178.436C343.05 175.856 344.25 173.546 345.75 171.496C347.25 169.446 349.12 167.836 351.36 166.676C353.61 165.516 356.3 164.966 359.42 165.036C361.84 165.086 363.86 165.526 365.51 166.366C367.17 167.186 368.51 168.306 369.54 169.716C370.56 171.136 371.33 172.746 371.83 174.576ZM363.8 184.996C363.89 184.086 363.98 183.086 364.07 181.986C364.18 180.876 364.21 179.756 364.14 178.636C364.07 177.496 363.86 176.456 363.52 175.496C363.18 174.516 362.64 173.716 361.88 173.106C361.15 172.486 360.15 172.146 358.88 172.076C357.14 172.006 355.7 172.386 354.53 173.206C353.37 174.006 352.44 175.076 351.73 176.416C351.03 177.736 350.48 179.166 350.09 180.696C349.73 182.216 349.44 183.666 349.24 185.036L347.63 195.966C347.597 196.282 347.563 196.616 347.527 196.967C347.465 197.581 347.396 198.25 347.32 198.976C347.23 200.096 347.21 201.236 347.25 202.396C347.32 203.556 347.53 204.636 347.87 205.646C348.21 206.626 348.75 207.426 349.48 208.066C350.2 208.686 351.21 209.026 352.48 209.096C354.26 209.186 355.73 208.816 356.89 207.996C358.05 207.156 358.98 206.066 359.66 204.716C360.37 203.356 360.9 201.896 361.27 200.346C361.66 198.776 361.95 197.306 362.16 195.936L363.8 184.996ZM274.55 197.745L275.78 190.605H294L292.74 197.745H274.55ZM224.86 172.246C223.51 170.106 221.62 168.496 219.18 167.426C216.74 166.356 214.01 165.796 210.98 165.756L193.89 165.716L185.28 215.486H194.47L197.73 196.686H206.59L212.79 215.486H222.57V214.976L215.21 194.656C216.99 193.876 218.62 192.986 220.07 191.966C221.89 190.676 223.36 189.086 224.48 187.216C225.62 185.346 226.29 183.086 226.5 180.416C226.75 177.116 226.2 174.386 224.86 172.246ZM217.27 180.996C217.02 182.796 216.4 184.316 215.42 185.546C214.47 186.756 213.26 187.686 211.8 188.346C210.36 188.986 208.77 189.316 207.01 189.336L199.02 189.286L201.82 173.136L210.71 173.176C212.28 173.236 213.59 173.596 214.64 174.236C215.71 174.846 216.46 175.736 216.89 176.896C217.35 178.036 217.47 179.406 217.27 180.996ZM161.27 186.266L163.55 173.136H186.27L187.57 165.716H155.61L147 215.486H179.06L180.35 208.106H157.47L160.02 193.476H179.53L180.76 186.266H161.27Z" fill="#9576EC"/>
<path class="fight-erc-20" fill-rule="evenodd" clip-rule="evenodd" d="M351.23 217.146H351.76C354.83 217.146 357.54 216.546 359.82 215.356C362.2 214.096 364.2 212.356 365.76 210.176C367.31 208.056 368.55 205.616 369.46 202.936C370.35 200.316 371.01 197.576 371.41 194.796L372.71 186.426C372.97 184.376 373.06 182.306 372.99 180.256C372.92 178.146 372.62 176.136 372.11 174.286C371.59 172.376 370.76 170.636 369.66 169.096C368.54 167.556 367.06 166.326 365.28 165.446C363.49 164.526 361.35 164.056 358.76 164.006C355.48 163.936 352.61 164.526 350.21 165.776C347.84 167.006 345.84 168.726 344.25 170.896C342.69 173.026 341.43 175.456 340.52 178.096C339.61 180.686 338.94 183.406 338.52 186.166L337.29 194.566C337.03 196.606 336.94 198.696 337.01 200.776C337.09 202.886 337.37 204.896 337.87 206.776C338.4 208.676 339.22 210.416 340.31 211.946C341.42 213.486 342.89 214.756 344.71 215.706C346.53 216.626 348.72 217.106 351.23 217.146ZM351.13 167.536C353.11 166.526 355.49 166.006 358.22 166.006L358.23 166.016H358.72C361.01 166.066 362.86 166.466 364.39 167.246C365.89 167.986 367.12 169.016 368.05 170.286C369.01 171.616 369.73 173.146 370.19 174.826C370.66 176.526 370.93 178.386 371 180.336C371.07 182.276 370.98 184.246 370.74 186.156L369.44 194.506C369.06 197.166 368.43 199.786 367.57 202.296C366.72 204.786 365.57 207.046 364.14 209.006C362.76 210.926 360.99 212.476 358.89 213.586C356.79 214.686 354.21 215.216 351.27 215.146C349.06 215.106 347.16 214.696 345.63 213.926C344.11 213.126 342.87 212.066 341.95 210.776C340.98 209.426 340.28 207.936 339.81 206.246C339.35 204.526 339.09 202.656 339.02 200.696C338.95 198.726 339.04 196.746 339.28 194.826L340.51 186.446C340.91 183.816 341.55 181.216 342.42 178.736C343.27 176.276 344.43 174.026 345.87 172.056C347.27 170.136 349.04 168.616 351.13 167.536ZM351.75 210.076C351.94 210.086 352.13 210.086 352.31 210.086H352.33C354.09 210.086 355.59 209.656 356.82 208.786C358.12 207.846 359.15 206.616 359.89 205.156C360.62 203.756 361.19 202.206 361.58 200.566C361.96 199.046 362.27 197.536 362.49 196.066L364.14 185.076C364.23 184.166 364.32 183.156 364.41 182.056C364.53 180.856 364.55 179.686 364.48 178.556C364.41 177.346 364.18 176.196 363.81 175.146C363.4 173.986 362.74 173.026 361.87 172.326C360.98 171.566 359.77 171.136 358.26 171.056C356.32 170.986 354.65 171.426 353.3 172.366C352.01 173.256 350.96 174.456 350.18 175.936C349.44 177.336 348.86 178.846 348.45 180.456C348.06 182.086 347.78 183.536 347.58 184.876L345.96 195.846L345.65 198.876C345.56 199.996 345.54 201.186 345.58 202.436C345.65 203.666 345.88 204.846 346.25 205.956C346.64 207.086 347.28 208.036 348.15 208.806C349.03 209.566 350.24 209.996 351.75 210.076ZM354.42 174.006C355.34 173.356 356.44 173.046 357.78 173.046L357.77 173.066H358.13C359.18 173.126 359.99 173.386 360.56 173.876C361.16 174.356 361.59 174.996 361.88 175.816C362.19 176.716 362.38 177.646 362.44 178.686C362.5 179.706 362.48 180.786 362.37 181.876V181.896C362.28 182.986 362.19 183.986 362.11 184.836L360.47 195.776C360.26 197.186 359.97 198.636 359.6 200.106C359.24 201.596 358.73 202.986 358.07 204.256C357.48 205.436 356.65 206.426 355.62 207.166C354.65 207.856 353.38 208.166 351.84 208.086C350.78 208.036 349.97 207.766 349.44 207.306C348.83 206.766 348.4 206.116 348.12 205.316C347.8 204.376 347.61 203.366 347.55 202.346C347.52 201.196 347.54 200.086 347.62 199.066L347.83 197.056L349.54 185.166C349.73 183.876 350 182.486 350.37 180.926C350.74 179.486 351.27 178.116 351.93 176.866C352.57 175.656 353.38 174.726 354.42 174.006ZM247.83 217.175H247.31C243.86 217.115 240.88 216.355 238.48 214.915C236.09 213.455 234.21 211.515 232.86 209.115C231.53 206.745 230.64 204.075 230.21 201.185C229.79 198.335 229.78 195.385 230.17 192.395L230.72 188.595C231.19 185.435 232.06 182.355 233.29 179.425C234.52 176.475 236.18 173.805 238.21 171.495C240.24 169.155 242.69 167.285 245.5 165.955C248.33 164.585 251.58 163.945 255.14 164.005C258.87 164.075 262.06 164.905 264.63 166.475C267.21 168.025 269.23 170.195 270.61 172.925C271.99 175.615 272.77 178.775 272.94 182.315L272.99 183.365H261.81V182.365C261.81 180.575 261.58 178.975 261.11 177.625C260.67 176.335 259.97 175.375 258.96 174.675C257.93 173.945 256.47 173.545 254.61 173.485C252.56 173.425 250.79 173.825 249.34 174.675C247.89 175.525 246.65 176.715 245.66 178.195C244.63 179.735 243.82 181.435 243.25 183.245C242.66 185.075 242.22 186.945 241.95 188.805L241.41 192.695C241.21 194.145 241.09 195.775 241.04 197.675C241.02 199.425 241.21 201.105 241.59 202.665C241.99 204.135 242.66 205.325 243.65 206.285C244.57 207.165 245.98 207.655 247.84 207.715C249.85 207.775 251.59 207.465 252.98 206.795C254.39 206.115 255.53 205.145 256.45 203.805C257.37 202.455 258.07 200.805 258.52 198.915L258.7 198.155L269.63 198.035L269.47 199.185C268.95 202.955 267.62 206.245 265.51 208.965C263.44 211.645 260.78 213.735 257.61 215.175C254.6 216.505 251.31 217.175 247.83 217.175ZM254.6 166.005C251.55 166.005 248.78 166.595 246.36 167.755C243.8 168.975 241.56 170.675 239.71 172.805C237.82 174.955 236.28 177.445 235.13 180.195C233.96 182.965 233.14 185.885 232.7 188.875L232.15 192.665C231.78 195.455 231.8 198.225 232.19 200.885C232.58 203.535 233.39 205.975 234.6 208.135C235.78 210.225 237.43 211.935 239.51 213.205C241.61 214.455 244.25 215.125 247.35 215.175C250.73 215.245 253.92 214.625 256.81 213.355C259.67 212.065 262.07 210.175 263.94 207.745C265.62 205.585 266.75 203.005 267.31 200.065L260.28 200.145C259.77 201.965 259.04 203.575 258.11 204.945C257 206.555 255.57 207.785 253.86 208.605C252.18 209.415 250.13 209.795 247.79 209.725C245.42 209.645 243.57 208.975 242.28 207.735C241.04 206.525 240.17 204.995 239.68 203.175C239.25 201.435 239.04 199.575 239.07 197.645C239.12 195.655 239.25 193.955 239.46 192.435L240 188.535C240.29 186.555 240.76 184.585 241.38 182.655C242 180.675 242.9 178.805 244.03 177.105C245.18 175.365 246.64 173.975 248.35 172.965C250.13 171.915 252.26 171.425 254.7 171.495C256.96 171.575 258.79 172.095 260.13 173.055C261.48 173.985 262.46 175.315 263.03 176.995C263.47 178.285 263.73 179.755 263.81 181.375H270.89C270.65 178.545 269.96 176.015 268.85 173.845C267.64 171.445 265.88 169.555 263.62 168.195C261.35 166.815 258.5 166.085 255.12 166.015H254.62L254.6 166.005ZM296.06 216.485H330.83V216.495L332.28 207.385L312.29 207.355L321.7 198.345C323.06 197.065 324.45 195.725 325.88 194.335C327.3 192.975 328.69 191.455 330 189.845C331.31 188.245 332.43 186.515 333.3 184.725C334.21 182.865 334.76 180.865 334.93 178.765C335.2 175.635 334.68 172.945 333.4 170.795C332.13 168.595 330.28 166.905 327.92 165.775C325.61 164.645 322.97 164.045 320.09 164.005C316.75 163.945 313.64 164.625 310.83 166.035C308.03 167.455 305.7 169.475 303.93 172.035C302.16 174.625 301.13 177.625 300.89 180.975L300.81 182.055L311.5 182.015L311.62 181.165C311.84 179.715 312.27 178.315 312.92 177.035C313.58 175.785 314.43 174.805 315.54 174.045C316.59 173.325 317.88 172.985 319.44 173.055C320.63 173.075 321.57 173.365 322.23 173.925C322.92 174.505 323.38 175.235 323.65 176.165C323.93 177.165 324 178.205 323.86 179.345C323.65 180.835 323.1 182.275 322.23 183.625C321.33 185.025 320.26 186.375 319.04 187.645C317.81 188.925 316.66 190.095 315.58 191.175L297.28 208.535L296.06 216.485ZM298.422 214.485H329.12L329.93 209.375L307.32 209.345L320.32 196.885C321.67 195.615 323.06 194.275 324.49 192.885C325.86 191.575 327.19 190.125 328.45 188.575C329.67 187.085 330.7 185.495 331.51 183.835C332.31 182.205 332.79 180.445 332.94 178.595C333.17 175.885 332.75 173.605 331.68 171.805C330.6 169.955 329.05 168.535 327.05 167.575C325 166.565 322.65 166.045 320.06 166.005C317.06 165.935 314.25 166.555 311.74 167.835C309.23 169.105 307.16 170.915 305.58 173.195C304.2 175.205 303.33 177.505 302.99 180.065L309.79 180.045C310.06 178.685 310.52 177.375 311.14 176.145C311.95 174.615 313.04 173.365 314.41 172.425C315.82 171.455 317.53 171.005 319.5 171.085C321.14 171.105 322.5 171.555 323.53 172.425C324.52 173.245 325.21 174.335 325.59 175.645C325.95 176.885 326.04 178.225 325.86 179.635C325.61 181.435 324.96 183.145 323.93 184.735C322.97 186.235 321.81 187.695 320.5 189.055C319.27 190.345 318.1 191.525 317 192.625L299.18 209.525L298.422 214.485ZM273.55 198.745H293.77L295.38 189.605H275.13L273.55 198.745ZM292.09 196.745H275.93H275.92L276.81 191.605H293L292.09 196.745ZM212.26 216.485H223.76V214.795L216.65 195.175C218.19 194.455 219.59 193.645 220.83 192.775C222.75 191.415 224.33 189.715 225.52 187.725C226.73 185.735 227.46 183.305 227.68 180.485C227.95 176.985 227.34 174.025 225.89 171.705C224.44 169.395 222.38 167.645 219.77 166.505C217.21 165.385 214.32 164.795 211.17 164.755L193.24 164.715L184.28 216.485H195.5L198.76 197.685H206.06L212.26 216.485ZM221.52 214.485H213.7V214.475L207.5 195.675H197.08L193.82 214.475H186.66L194.92 166.705L211.16 166.745C214.03 166.785 216.66 167.325 218.97 168.335C221.21 169.315 222.97 170.815 224.21 172.775C225.43 174.725 225.93 177.275 225.7 180.335C225.5 182.825 224.87 184.965 223.82 186.695C222.77 188.455 221.38 189.945 219.69 191.145C218.34 192.095 216.76 192.965 215 193.735L214.14 194.115L221.52 214.485ZM198.02 190.275L207.21 190.335C209.09 190.315 210.84 189.955 212.4 189.255C214.01 188.525 215.35 187.485 216.39 186.165C217.48 184.795 218.18 183.095 218.45 181.115C218.68 179.345 218.53 177.805 218.02 176.545C217.5 175.155 216.6 174.085 215.35 173.375C214.14 172.635 212.66 172.235 210.9 172.165L201.17 172.125L198.02 190.275ZM207.21 188.335L200.41 188.295L202.86 174.145L210.87 174.185C212.25 174.235 213.41 174.545 214.34 175.115C215.21 175.615 215.8 176.315 216.16 177.285C216.55 178.245 216.66 179.455 216.48 180.875C216.25 182.475 215.7 183.845 214.83 184.935C213.99 186.005 212.9 186.845 211.59 187.435C210.26 188.025 208.82 188.315 207.21 188.335ZM180.09 216.485H146L154.96 164.715H188.95L187.3 174.135H164.58L162.65 185.265H182.14L180.57 194.475H161.05L158.85 207.105H181.73L180.09 216.485ZM148.38 214.485H178.41L179.35 209.105H156.47L159.37 192.475H178.88L179.77 187.265H160.27L162.9 172.135H185.62L186.57 166.715H156.64L148.38 214.485Z" fill="url(#paint0_linear_855_32194)"/>
<mask id="mask1_855_32194" style="mask-type:alpha" maskUnits="userSpaceOnUse" x="102" y="-173" width="843" height="1547">
<path d="M684 1283L103.5 1372.5L545 -172L943.5 -118L684 1283Z" fill="#D9D9D9" stroke="black"/>
</mask>
<g mask="url(#mask1_855_32194)">
<g opacity="0.4" filter="url(#filter3_f_855_32194)">
<ellipse cx="210.242" cy="408.706" rx="210.242" ry="408.706" transform="matrix(-0.953003 -0.30296 0.220298 -0.975433 477.074 918)" fill="#3BD171"/>
</g>
</g>
<path class="fight-erc-223" fill-rule="evenodd" clip-rule="evenodd" d="M599.85 745C599.71 747.099 599.12 748.929 598.07 750.509C597.05 752.08 595.73 753.389 594.11 754.44C592.88 755.23 591.58 755.87 590.2 756.36C591.19 756.79 592.11 757.309 592.95 757.92C594.34 758.9 595.4 760.179 596.13 761.75C596.86 763.299 597.15 765.17 597.01 767.36C596.86 769.77 596.24 771.92 595.17 773.82C594.12 775.679 592.73 777.259 591 778.53C589.29 779.78 587.36 780.73 585.22 781.37C583.1 781.98 580.9 782.28 578.63 782.259C576.51 782.21 574.53 781.86 572.71 781.2C570.91 780.509 569.34 779.57 568 778.36C566.67 777.129 565.65 775.65 564.92 773.92C564.21 772.16 563.88 770.19 563.93 768.009H572.71C572.67 769.37 572.9 770.589 573.4 771.66C573.92 772.71 574.67 773.54 575.65 774.16C576.63 774.75 577.83 775.06 579.24 775.08C580.84 775.129 582.28 774.83 583.58 774.19C584.88 773.549 585.94 772.639 586.76 771.46C587.58 770.27 588.08 768.879 588.26 767.29C588.47 765.67 588.32 764.299 587.82 763.19C587.32 762.07 586.53 761.21 585.46 760.62C584.39 760.03 583.06 759.71 581.46 759.66L576.06 759.629L576.4 757.549H576.37L577.16 752.66L581.74 752.73C583.33 752.679 584.79 752.37 586.11 751.799C587.43 751.21 588.52 750.339 589.36 749.21C590.22 748.07 590.74 746.679 590.9 745.04C591.06 743.69 590.94 742.509 590.55 741.48C590.17 740.46 589.52 739.65 588.61 739.06C587.72 738.46 586.59 738.15 585.22 738.129C583.83 738.11 582.58 738.37 581.46 738.92C580.37 739.44 579.46 740.2 578.73 741.21C578 742.19 577.51 743.339 577.26 744.66L568.44 744.69C568.65 741.799 569.58 739.33 571.24 737.28C572.93 735.23 575.03 733.67 577.53 732.589C580.04 731.52 582.67 731 585.43 731.02C588.23 731.07 590.76 731.639 593.02 732.73C595.27 733.799 597.03 735.379 598.28 737.45C599.53 739.5 600.06 742.02 599.85 745ZM428.37 763.701C428.42 761.851 428.54 760.151 428.75 758.611L429.29 754.711C429.57 752.821 430.01 750.921 430.63 749.001C431.24 747.061 432.09 745.3 433.16 743.701C434.23 742.081 435.56 740.811 437.16 739.88C438.77 738.921 440.71 738.47 442.97 738.541C445.04 738.611 446.67 739.071 447.85 739.911C449.04 740.731 449.88 741.88 450.38 743.361C450.88 744.821 451.13 746.51 451.13 748.421H460.26C460.1 745.001 459.36 742.01 458.04 739.43C456.74 736.861 454.87 734.84 452.43 733.38C450 731.901 447 731.13 443.44 731.061C440.03 730.991 436.96 731.601 434.25 732.901C431.56 734.18 429.24 735.941 427.28 738.201C425.32 740.43 423.74 742.991 422.53 745.861C421.32 748.731 420.49 751.701 420.03 754.781L419.49 758.571C419.1 761.461 419.11 764.3 419.52 767.081C419.93 769.861 420.77 772.39 422.05 774.671C423.32 776.93 425.08 778.741 427.31 780.1C429.57 781.451 432.35 782.151 435.65 782.22C439.21 782.291 442.5 781.651 445.53 780.311C448.56 778.941 451.07 776.97 453.05 774.401C455.06 771.821 456.31 768.72 456.81 765.1L447.82 765.201C447.34 767.231 446.6 768.97 445.6 770.43C444.6 771.89 443.31 773.001 441.74 773.751C440.19 774.501 438.32 774.84 436.13 774.771C434.01 774.701 432.39 774.13 431.28 773.061C430.16 771.97 429.39 770.601 428.95 768.961C428.54 767.3 428.35 765.541 428.37 763.701ZM522.26 744.73C522.51 741.81 522.05 739.35 520.86 737.35C519.68 735.32 517.99 733.78 515.8 732.73C513.62 731.661 511.14 731.1 508.39 731.06C505.2 730.991 502.27 731.64 499.6 733.01C496.94 734.35 494.76 736.241 493.07 738.68C491.39 741.121 490.43 743.93 490.2 747.121L498.95 747.09C499.18 745.51 499.65 744.031 500.35 742.64C501.08 741.251 502.06 740.14 503.29 739.291C504.52 738.451 506.02 738.06 507.77 738.13C509.21 738.15 510.35 738.52 511.19 739.23C512.03 739.93 512.61 740.84 512.93 741.961C513.25 743.081 513.33 744.27 513.17 745.55C512.94 747.19 512.35 748.751 511.39 750.23C510.44 751.711 509.33 753.1 508.08 754.4C506.85 755.68 505.69 756.86 504.59 757.961L486.55 775.081L485.55 781.541H518.3L519.43 774.43L498.13 774.4L509.34 763.661C510.69 762.39 512.08 761.06 513.51 759.661C514.95 758.27 516.29 756.81 517.55 755.26C518.82 753.711 519.88 752.07 520.72 750.331C521.59 748.581 522.1 746.711 522.26 744.73ZM399.49 731.81C402.52 731.85 405.25 732.41 407.69 733.48C410.13 734.55 412.02 736.16 413.37 738.3C414.71 740.45 415.26 743.171 415.01 746.47C414.8 749.14 414.13 751.4 412.99 753.27C411.87 755.14 410.4 756.73 408.58 758.02C407.13 759.04 405.5 759.93 403.72 760.711L411.08 781.03V781.54H401.3L395.1 762.74H386.24L382.98 781.54H373.79L382.4 731.77L399.49 731.81ZM403.93 751.6C404.91 750.37 405.53 748.85 405.78 747.05C405.98 745.461 405.86 744.09 405.4 742.95C404.97 741.79 404.22 740.9 403.15 740.28C402.1 739.65 400.79 739.29 399.22 739.23L390.33 739.19L387.53 755.34L395.52 755.39C397.28 755.37 398.88 755.04 400.31 754.4C401.77 753.74 402.98 752.81 403.93 751.6ZM345.98 774.16L348.53 759.53H368.04L369.27 752.32H349.78L352.06 739.19H374.78L376.08 731.77H344.12L335.5 781.54H367.57L368.86 774.16H345.98ZM559.62 737.35C560.81 739.35 561.27 741.81 561.02 744.73C560.86 746.711 560.35 748.581 559.49 750.331C558.64 752.07 557.58 753.711 556.31 755.26C555.05 756.81 553.71 758.27 552.27 759.661L551.376 760.532L550.551 761.329C549.72 762.129 548.903 762.905 548.1 763.661L536.89 774.4L558.19 774.43L557.06 781.541H524.31L525.31 775.081L543.35 757.961C543.872 757.439 544.407 756.899 544.956 756.339C545.566 755.718 546.193 755.073 546.84 754.4C548.09 753.1 549.2 751.711 550.15 750.23C551.11 748.751 551.7 747.19 551.93 745.55C552.09 744.27 552.01 743.081 551.69 741.961C551.37 740.84 550.79 739.93 549.95 739.23C549.11 738.52 547.97 738.15 546.53 738.13C544.78 738.06 543.28 738.451 542.05 739.291C540.82 740.14 539.84 741.251 539.11 742.64C538.41 744.031 537.94 745.51 537.71 747.09L528.96 747.121C529.19 743.93 530.15 741.121 531.83 738.68C533.52 736.241 535.7 734.35 538.36 733.01C541.03 731.64 543.96 730.991 547.15 731.06C549.9 731.1 552.38 731.661 554.56 732.73C556.75 733.78 558.44 735.32 559.62 737.35ZM482.51 756.66H464.29L463.06 763.799H481.25L482.51 756.66Z" fill="#3BD171"/>
<path class="fight-erc-223" fill-rule="evenodd" clip-rule="evenodd" d="M578.839 783.27H578.619C576.369 783.22 574.269 782.84 572.369 782.15C570.429 781.41 568.739 780.39 567.328 779.11C565.898 777.79 564.779 776.18 563.999 774.32C563.239 772.43 562.879 770.31 562.929 768.001L562.949 767.02H573.739L573.708 768.05C573.669 769.251 573.879 770.33 574.309 771.251C574.739 772.11 575.359 772.8 576.189 773.33C576.999 773.82 578.039 774.08 579.259 774.09C580.709 774.14 581.979 773.88 583.139 773.3C584.299 772.73 585.209 771.94 585.939 770.9C586.659 769.86 587.109 768.61 587.268 767.19C587.458 765.751 587.329 764.55 586.909 763.61C586.489 762.68 585.859 761.99 584.979 761.501C584.049 760.99 582.859 760.711 581.429 760.66L574.889 760.62L576.319 751.64L581.768 751.72C583.179 751.67 584.529 751.39 585.729 750.87C586.879 750.36 587.839 749.59 588.569 748.6C589.319 747.6 589.779 746.37 589.919 744.93C590.059 743.74 589.959 742.7 589.629 741.82C589.319 740.99 588.819 740.36 588.078 739.88C587.339 739.38 586.389 739.13 585.219 739.11C583.989 739.09 582.889 739.32 581.919 739.8C580.959 740.26 580.189 740.9 579.559 741.78C578.919 742.64 578.479 743.67 578.259 744.83L578.109 745.64L567.389 745.68L567.469 744.6C567.689 741.51 568.708 738.83 570.489 736.63C572.279 734.47 574.519 732.791 577.159 731.65C579.779 730.53 582.579 729.98 585.458 730.001C588.398 730.05 591.099 730.66 593.479 731.81C595.899 732.961 597.809 734.68 599.159 736.91C600.519 739.14 601.089 741.87 600.869 745.04C600.719 747.3 600.059 749.32 598.919 751.04C597.839 752.711 596.399 754.13 594.669 755.26C593.989 755.69 593.289 756.09 592.569 756.44C592.752 756.553 592.932 756.667 593.108 756.783C593.259 756.882 593.406 756.984 593.549 757.09C595.059 758.16 596.249 759.58 597.049 761.31C597.839 763.001 598.169 765.05 598.018 767.41C597.859 769.94 597.199 772.26 596.049 774.3C594.919 776.29 593.429 777.98 591.599 779.33C589.799 780.65 587.749 781.65 585.518 782.32C583.369 782.94 581.129 783.251 578.859 783.251L578.839 783.27ZM565.839 773.56C565.292 772.209 564.992 770.689 564.93 769.05H571.689C571.769 770.16 572.029 771.2 572.469 772.14C573.069 773.34 573.949 774.32 575.099 775.05C576.229 775.73 577.609 776.09 579.169 776.11C580.909 776.16 582.529 775.83 583.979 775.12C585.429 774.41 586.619 773.38 587.539 772.06C588.449 770.74 589.009 769.18 589.208 767.45C589.439 765.65 589.269 764.09 588.689 762.81C588.099 761.49 587.159 760.47 585.898 759.77C584.689 759.11 583.189 758.74 581.419 758.69L577.189 758.67L577.499 756.58L577.958 753.7L581.719 753.76C583.439 753.7 585.029 753.36 586.469 752.74C587.939 752.08 589.169 751.1 590.109 749.84C591.089 748.55 591.679 746.98 591.849 745.19C592.019 743.69 591.889 742.34 591.439 741.16C590.979 739.94 590.199 738.961 589.119 738.26C588.079 737.55 586.749 737.18 585.189 737.16C583.679 737.14 582.229 737.44 580.989 738.05C579.749 738.64 578.699 739.51 577.889 740.64C577.229 741.53 576.739 742.55 576.429 743.69L569.518 743.711C569.849 741.49 570.679 739.55 571.979 737.94C573.559 736.03 575.549 734.54 577.889 733.53C580.249 732.52 582.769 731.99 585.379 732.04C588.019 732.08 590.439 732.63 592.559 733.65C594.629 734.63 596.249 736.09 597.398 737.99C598.539 739.86 599.018 742.2 598.828 744.95C598.699 746.89 598.169 748.53 597.208 749.98C596.279 751.42 595.039 752.64 593.549 753.61C592.389 754.36 591.149 754.97 589.849 755.43L587.458 756.28L589.789 757.29C590.719 757.69 591.578 758.18 592.359 758.751C593.589 759.62 594.549 760.78 595.208 762.19C595.859 763.57 596.129 765.29 595.999 767.31C595.859 769.54 595.289 771.57 594.289 773.34C593.299 775.08 591.989 776.56 590.398 777.73C588.779 778.92 586.939 779.82 584.929 780.42C582.898 781.001 580.789 781.3 578.639 781.27C576.629 781.23 574.739 780.89 573.059 780.28C571.369 779.63 569.889 778.74 568.669 777.64C567.459 776.52 566.509 775.14 565.839 773.56ZM519.149 782.541H484.379L485.609 774.59L503.899 757.231C504.979 756.151 506.129 754.981 507.359 753.701C508.578 752.43 509.648 751.081 510.549 749.68C511.419 748.331 511.969 746.89 512.179 745.401C512.319 744.26 512.249 743.22 511.969 742.22C511.699 741.291 511.239 740.56 510.549 739.981C509.889 739.42 508.949 739.13 507.759 739.111C506.219 739.05 504.909 739.38 503.859 740.1C502.749 740.861 501.898 741.84 501.239 743.09C500.589 744.371 500.159 745.77 499.939 747.22L499.819 748.071L489.129 748.111L489.209 747.031C489.449 743.68 490.479 740.68 492.249 738.09C494.029 735.521 496.349 733.51 499.149 732.09C501.949 730.651 505.089 729.97 508.409 730.031C511.289 730.071 513.929 730.67 516.239 731.8C518.599 732.93 520.449 734.621 521.719 736.81C523.009 738.97 523.519 741.661 523.249 744.781C523.079 746.89 522.529 748.89 521.609 750.741C520.749 752.51 519.649 754.241 518.319 755.861C517.039 757.43 515.649 758.941 514.199 760.35C512.769 761.751 511.369 763.081 510.019 764.361L500.609 773.371L520.599 773.401L519.149 782.51V782.541ZM486.709 780.541H517.439L518.249 775.43L495.639 775.401L508.639 762.941C509.989 761.67 511.379 760.34 512.799 758.951C514.199 757.6 515.529 756.151 516.759 754.63C517.989 753.13 519.009 751.541 519.799 749.901C520.609 748.271 521.089 746.51 521.239 744.651C521.469 741.941 521.049 739.661 519.979 737.861C518.909 736.01 517.349 734.59 515.349 733.63C513.299 732.621 510.949 732.1 508.359 732.06C505.349 732.001 502.549 732.611 500.039 733.901C497.529 735.161 495.459 736.961 493.869 739.251C492.489 741.26 491.619 743.56 491.279 746.121L498.079 746.1C498.349 744.741 498.809 743.43 499.429 742.201C500.229 740.67 501.329 739.42 502.689 738.481C504.109 737.51 505.819 737.061 507.779 737.14C509.419 737.161 510.779 737.611 511.809 738.481C512.799 739.3 513.489 740.39 513.869 741.701C514.219 742.941 514.319 744.291 514.139 745.691C513.889 747.491 513.239 749.201 512.208 750.791C511.249 752.291 510.089 753.751 508.779 755.111C508.429 755.474 508.085 755.831 507.746 756.179C506.89 757.059 506.066 757.893 505.279 758.68L487.469 775.581L486.709 780.541ZM436.169 783.23H435.629C432.159 783.161 429.188 782.401 426.798 780.97C424.408 779.52 422.528 777.571 421.178 775.17C419.848 772.8 418.958 770.13 418.529 767.241C418.108 764.38 418.098 761.42 418.499 758.451L419.039 754.651C419.509 751.491 420.378 748.411 421.608 745.48C422.858 742.501 424.518 739.831 426.529 737.55C428.559 735.211 431.018 733.34 433.819 732.01C436.648 730.651 439.898 729.991 443.458 730.071C447.188 730.14 450.379 730.97 452.949 732.541C455.529 734.09 457.548 736.26 458.928 738.991C460.308 741.68 461.089 744.84 461.259 748.38L461.309 749.43H450.129V748.43C450.129 746.64 449.898 745.041 449.428 743.691C448.998 742.401 448.288 741.441 447.279 740.741C446.249 740.01 444.788 739.611 442.928 739.55C440.878 739.491 439.109 739.89 437.669 740.751C436.178 741.611 434.978 742.76 433.988 744.26C432.958 745.8 432.148 747.501 431.578 749.31C430.988 751.14 430.548 753.01 430.268 754.871L429.729 758.76C429.529 760.211 429.408 761.84 429.358 763.741C429.338 765.491 429.529 767.18 429.909 768.73C430.309 770.201 430.978 771.39 431.969 772.35C432.888 773.23 434.298 773.72 436.159 773.781C438.168 773.84 439.908 773.531 441.298 772.861C442.708 772.191 443.868 771.18 444.768 769.871C445.698 768.52 446.388 766.871 446.839 764.98L447.018 764.22L457.949 764.1L457.789 765.251C457.268 769.041 455.928 772.331 453.828 775.031C451.758 777.711 449.098 779.8 445.928 781.241C442.918 782.571 439.638 783.241 436.159 783.241L436.169 783.23ZM442.928 732.06C439.868 732.06 437.098 732.651 434.678 733.81C432.118 735.031 429.888 736.73 428.029 738.861C426.158 740.991 424.618 743.48 423.449 746.251C422.279 749.02 421.458 751.941 421.018 754.93L420.479 758.711C420.099 761.491 420.108 764.26 420.509 766.93C420.898 769.581 421.708 772.02 422.919 774.18C424.099 776.27 425.748 777.98 427.828 779.251C429.908 780.491 432.548 781.161 435.669 781.22C439.048 781.3 442.238 780.67 445.118 779.401C447.978 778.111 450.378 776.22 452.249 773.791C453.928 771.64 455.059 769.06 455.618 766.111L448.589 766.191C448.078 768.01 447.359 769.621 446.419 770.991C445.319 772.59 443.889 773.821 442.169 774.651C440.488 775.47 438.439 775.85 436.099 775.77C433.728 775.691 431.878 775.02 430.589 773.781C429.348 772.581 428.478 771.041 427.988 769.22C427.558 767.48 427.358 765.63 427.379 763.691C427.428 761.701 427.558 760.001 427.768 758.48L428.309 754.581C428.598 752.6 429.068 750.63 429.689 748.701C430.309 746.72 431.198 744.85 432.339 743.151C433.488 741.411 434.939 740.02 436.669 739.02C438.439 737.97 440.569 737.47 443.009 737.541C445.268 737.621 447.099 738.14 448.439 739.1C449.788 740.031 450.768 741.361 451.339 743.041C451.779 744.331 452.038 745.8 452.118 747.42H459.199C458.958 744.59 458.268 742.06 457.159 739.88C455.948 737.48 454.188 735.59 451.928 734.23C449.658 732.85 446.808 732.121 443.428 732.05H442.939L442.928 732.06ZM400.578 782.54H412.078V780.85L404.978 761.23C406.518 760.5 407.928 759.7 409.158 758.83C411.078 757.48 412.658 755.78 413.848 753.79C415.058 751.79 415.788 749.36 416.008 746.54C416.278 743.05 415.678 740.09 414.218 737.76C412.768 735.45 410.708 733.7 408.098 732.56C405.538 731.44 402.648 730.85 399.498 730.81L381.568 730.77L372.608 782.54H383.828L387.088 763.74H394.378L400.578 782.54ZM409.828 780.54H402.018L402.038 780.53L395.838 761.73H385.408L382.148 780.53H374.988L383.248 732.76L399.478 732.8C402.348 732.84 404.978 733.37 407.288 734.39C409.518 735.37 411.278 736.86 412.518 738.82C413.738 740.78 414.238 743.32 414.008 746.38C413.808 748.88 413.178 751.02 412.128 752.75C411.078 754.51 409.688 756.001 407.998 757.2C406.648 758.14 405.068 759.02 403.308 759.79L402.448 760.17L409.828 780.54ZM386.338 756.33L395.528 756.38C397.418 756.36 399.168 756 400.718 755.3C402.328 754.57 403.668 753.53 404.708 752.211C405.798 750.84 406.498 749.14 406.768 747.16C406.998 745.39 406.848 743.85 406.338 742.59C405.828 741.211 404.928 740.14 403.668 739.41C402.458 738.69 400.978 738.29 399.228 738.22L389.488 738.18L386.338 756.33ZM395.528 754.39L388.718 754.35L391.168 740.2L399.178 740.24C400.558 740.3 401.718 740.6 402.648 741.16C403.518 741.67 404.108 742.37 404.468 743.34C404.858 744.3 404.968 745.51 404.788 746.93C404.568 748.53 404.018 749.9 403.148 750.99C402.308 752.05 401.218 752.9 399.908 753.49C398.608 754.07 397.128 754.37 395.528 754.39ZM334.309 782.54H368.409H368.419L370.059 773.16H347.179L349.379 760.53H368.889L370.459 751.32H350.969L352.899 740.19H375.619L377.269 730.77H343.279L334.309 782.54ZM366.729 780.54H336.699L344.969 732.77H374.899L373.949 738.19H351.229L348.599 753.32H368.089L367.199 758.53H347.689L344.789 775.16H367.669L366.729 780.54ZM557.909 782.541H523.139L524.369 774.59L542.659 757.231C543.739 756.151 544.889 754.981 546.119 753.701C547.339 752.43 548.409 751.081 549.309 749.68C550.179 748.331 550.729 746.89 550.939 745.401C551.079 744.26 551.009 743.22 550.729 742.22C550.459 741.291 549.999 740.56 549.309 739.981C548.649 739.42 547.708 739.13 546.519 739.111C544.969 739.05 543.669 739.38 542.619 740.1C541.509 740.861 540.659 741.84 539.999 743.09C539.349 744.371 538.919 745.77 538.708 747.22L538.589 748.071L527.899 748.111L527.979 747.031C528.219 743.68 529.239 740.68 531.019 738.09C532.799 735.521 535.119 733.51 537.919 732.09C540.719 730.651 543.839 729.97 547.179 730.031C550.059 730.071 552.699 730.67 555.009 731.8C557.369 732.93 559.219 734.621 560.489 736.81C561.779 738.97 562.289 741.661 562.019 744.781C561.849 746.88 561.299 748.88 560.389 750.741C559.519 752.531 558.399 754.251 557.089 755.861C555.809 757.43 554.419 758.941 552.969 760.35C552.177 761.126 551.397 761.879 550.628 762.616C550.008 763.209 549.395 763.79 548.789 764.361L539.379 773.371L559.369 773.401L557.919 782.51L557.909 782.541ZM525.49 780.541H556.199L557.009 775.43L534.399 775.401L547.399 762.941C547.851 762.515 548.308 762.083 548.769 761.643C549.684 760.772 550.615 759.875 551.559 758.951C552.959 757.6 554.289 756.151 555.519 754.63C556.739 753.14 557.768 751.541 558.578 749.89C559.379 748.26 559.859 746.501 560.009 744.651C560.239 741.941 559.819 739.661 558.749 737.861C557.679 736.01 556.119 734.59 554.119 733.63C552.069 732.621 549.719 732.1 547.129 732.06C544.119 732.001 541.319 732.611 538.809 733.901C536.299 735.161 534.229 736.961 532.639 739.251C531.259 741.26 530.389 743.56 530.059 746.121L536.859 746.1C537.129 744.741 537.589 743.43 538.208 742.201C539.019 740.67 540.109 739.42 541.479 738.481C542.899 737.51 544.599 737.071 546.569 737.14C548.209 737.161 549.569 737.611 550.599 738.481C551.589 739.3 552.279 740.39 552.659 741.701C553.019 742.941 553.109 744.291 552.929 745.691C552.679 747.491 552.029 749.201 550.999 750.791C550.039 752.291 548.879 753.751 547.569 755.111C546.329 756.39 545.169 757.581 544.069 758.68L526.259 775.581L525.49 780.541ZM461.999 765.2H482.219L483.829 756.06H463.579L461.999 765.2ZM480.539 763.2H464.369L465.259 758.06H481.449L480.539 763.2Z" fill="url(#paint1_linear_855_32194)"/>
<g class="fight-erc-223" filter="url(#filter4_f_855_32194)">
<path d="M368.383 774.62L367.084 782.003H341.381L342.646 774.62H368.383ZM352.865 732.237L344.218 782.003H335.023L343.637 732.237H352.865ZM368.793 752.779L367.562 759.991H345.175L346.439 752.779H368.793ZM375.595 732.237L374.296 739.654H348.695L350.028 732.237H375.595Z" fill="#17AE4D"/>
<path d="M381.918 732.237L399.008 732.271C402.038 732.317 404.773 732.875 407.211 733.946C409.649 735.017 411.54 736.623 412.885 738.765C414.229 740.907 414.776 743.63 414.525 746.934C414.32 749.6 413.648 751.868 412.509 753.736C411.392 755.605 409.923 757.188 408.1 758.487C406.277 759.763 404.192 760.845 401.845 761.734L398.7 763.204H382.67L383.935 755.787L395.043 755.855C396.798 755.832 398.393 755.502 399.828 754.864C401.286 754.203 402.494 753.269 403.451 752.061C404.431 750.831 405.046 749.315 405.297 747.515C405.502 745.92 405.377 744.553 404.921 743.414C404.488 742.252 403.736 741.363 402.665 740.748C401.617 740.11 400.307 739.757 398.734 739.688L389.848 739.654L382.499 782.003H373.305L381.918 732.237ZM400.819 782.003L393.471 759.718L402.699 759.683L410.595 781.49V782.003H400.819Z" fill="#17AE4D"/>
<path d="M447.338 765.665L456.327 765.562C455.826 769.185 454.573 772.284 452.567 774.859C450.585 777.434 448.078 779.405 445.048 780.772C442.017 782.117 438.725 782.755 435.17 782.686C431.866 782.618 429.086 781.912 426.83 780.567C424.597 779.2 422.842 777.388 421.566 775.133C420.29 772.854 419.447 770.325 419.037 767.545C418.627 764.765 418.616 761.928 419.003 759.034L419.55 755.24C420.006 752.164 420.837 749.19 422.045 746.319C423.253 743.448 424.836 740.896 426.796 738.663C428.756 736.407 431.08 734.641 433.769 733.365C436.48 732.066 439.545 731.451 442.963 731.519C446.518 731.588 449.514 732.362 451.952 733.843C454.39 735.302 456.259 737.318 457.558 739.893C458.879 742.468 459.62 745.465 459.779 748.883H450.653C450.653 746.968 450.403 745.282 449.901 743.824C449.4 742.343 448.557 741.192 447.372 740.372C446.187 739.529 444.558 739.073 442.484 739.005C440.229 738.936 438.292 739.381 436.674 740.338C435.079 741.272 433.746 742.548 432.675 744.166C431.604 745.761 430.761 747.527 430.146 749.464C429.53 751.378 429.086 753.28 428.812 755.172L428.266 759.068C428.061 760.618 427.935 762.315 427.89 764.161C427.867 766.007 428.061 767.761 428.471 769.425C428.904 771.065 429.678 772.432 430.795 773.526C431.911 774.597 433.529 775.167 435.648 775.235C437.836 775.303 439.704 774.962 441.254 774.21C442.826 773.458 444.114 772.353 445.116 770.894C446.119 769.436 446.859 767.693 447.338 765.665Z" fill="#17AE4D"/>
<path d="M482.03 757.12L480.766 764.263H462.582L463.812 757.12H482.03Z" fill="#17AE4D"/>
<path d="M518.944 774.893L517.816 782.003H485.072L486.063 775.543L504.11 758.419C505.204 757.325 506.366 756.14 507.597 754.864C508.85 753.565 509.955 752.175 510.912 750.694C511.869 749.213 512.462 747.652 512.689 746.011C512.849 744.735 512.769 743.539 512.45 742.423C512.131 741.306 511.55 740.395 510.707 739.688C509.864 738.982 508.725 738.617 507.289 738.594C505.535 738.526 504.042 738.913 502.812 739.757C501.581 740.6 500.601 741.716 499.872 743.106C499.166 744.496 498.699 745.977 498.471 747.55L489.721 747.584C489.949 744.394 490.906 741.579 492.592 739.141C494.278 736.703 496.454 734.812 499.12 733.468C501.786 732.1 504.714 731.451 507.904 731.519C510.661 731.565 513.134 732.123 515.321 733.194C517.509 734.242 519.195 735.78 520.38 737.808C521.565 739.814 522.032 742.274 521.781 745.191C521.622 747.174 521.109 749.042 520.243 750.797C519.4 752.528 518.34 754.169 517.064 755.718C515.811 757.268 514.467 758.738 513.031 760.128C511.596 761.518 510.206 762.851 508.861 764.127L497.65 774.859L518.944 774.893Z" fill="#17AE4D"/>
<path d="M557.704 774.893L556.576 782.003H523.832L524.823 775.543L542.87 758.419C543.964 757.325 545.126 756.14 546.356 754.864C547.61 753.565 548.715 752.175 549.672 750.694C550.629 749.213 551.221 747.652 551.449 746.011C551.609 744.735 551.529 743.539 551.21 742.423C550.891 741.306 550.31 740.395 549.467 739.688C548.624 738.982 547.484 738.617 546.049 738.594C544.294 738.526 542.802 738.913 541.571 739.757C540.341 740.6 539.361 741.716 538.632 743.106C537.925 744.496 537.458 745.977 537.23 747.55L528.48 747.584C528.708 744.394 529.665 741.579 531.352 739.141C533.038 736.703 535.214 734.812 537.88 733.468C540.546 732.1 543.474 731.451 546.664 731.519C549.421 731.565 551.894 732.123 554.081 733.194C556.269 734.242 557.955 735.78 559.14 737.808C560.325 739.814 560.792 742.274 560.541 745.191C560.382 747.174 559.869 749.042 559.003 750.797C558.16 752.528 557.1 754.169 555.824 755.718C554.571 757.268 553.227 758.738 551.791 760.128C550.355 761.518 548.965 762.851 547.621 764.127L536.41 774.859L557.704 774.893Z" fill="#17AE4D"/>
<path d="M576.674 753.121L581.254 753.189C582.849 753.144 584.307 752.836 585.629 752.266C586.951 751.674 588.033 750.808 588.876 749.669C589.742 748.529 590.255 747.139 590.414 745.499C590.574 744.154 590.46 742.969 590.072 741.944C589.685 740.919 589.035 740.11 588.124 739.517C587.235 738.925 586.107 738.617 584.74 738.594C583.35 738.572 582.097 738.834 580.98 739.381C579.887 739.905 578.975 740.668 578.246 741.671C577.517 742.65 577.027 743.801 576.776 745.123L567.958 745.157C568.163 742.263 569.097 739.791 570.761 737.74C572.447 735.689 574.543 734.128 577.05 733.057C579.556 731.986 582.188 731.462 584.945 731.485C587.748 731.531 590.277 732.1 592.533 733.194C594.789 734.265 596.544 735.837 597.797 737.911C599.05 739.962 599.574 742.48 599.369 745.465C599.232 747.561 598.64 749.395 597.592 750.968C596.566 752.54 595.245 753.85 593.627 754.898C592.009 755.946 590.255 756.732 588.363 757.257C586.472 757.781 584.592 758.043 582.724 758.043L575.888 758.009L576.674 753.121ZM575.58 760.093L576.366 755.274L582.177 755.308C584.136 755.354 585.993 755.627 587.748 756.129C589.525 756.63 591.098 757.382 592.465 758.385C593.855 759.364 594.914 760.64 595.644 762.213C596.373 763.762 596.669 765.631 596.532 767.818C596.373 770.233 595.757 772.387 594.687 774.278C593.638 776.147 592.248 777.719 590.517 778.995C588.808 780.248 586.882 781.194 584.74 781.832C582.621 782.447 580.422 782.743 578.144 782.72C576.024 782.675 574.053 782.322 572.23 781.661C570.43 780.977 568.858 780.032 567.514 778.824C566.192 777.593 565.167 776.112 564.438 774.381C563.731 772.626 563.401 770.655 563.446 768.468H572.23C572.185 769.835 572.413 771.054 572.914 772.125C573.438 773.173 574.19 774.005 575.17 774.62C576.15 775.212 577.346 775.52 578.759 775.543C580.354 775.588 581.801 775.292 583.1 774.654C584.398 774.016 585.458 773.105 586.278 771.92C587.099 770.735 587.6 769.345 587.782 767.75C587.987 766.132 587.839 764.765 587.338 763.648C586.837 762.532 586.05 761.677 584.979 761.085C583.909 760.492 582.576 760.173 580.98 760.128L575.58 760.093Z" fill="#17AE4D"/>
</g>
<g class="fight-erc-223" filter="url(#filter5_f_855_32194)">
<path d="M368.383 775.135L367.084 782.518H341.381L342.646 775.135H368.383ZM352.865 732.753L344.218 782.518H335.023L343.637 732.753H352.865ZM368.793 753.295L367.562 760.507H345.175L346.439 753.295H368.793ZM375.595 732.753L374.296 740.17H348.695L350.028 732.753H375.595Z" fill="#17AE4D" fill-opacity="0.75"/>
<path d="M381.918 732.753L399.008 732.787C402.038 732.832 404.773 733.391 407.211 734.462C409.649 735.533 411.54 737.139 412.885 739.281C414.229 741.423 414.776 744.146 414.525 747.45C414.32 750.116 413.648 752.383 412.509 754.252C411.392 756.12 409.923 757.704 408.1 759.003C406.277 760.279 404.192 761.361 401.845 762.25L398.7 763.719H382.67L383.935 756.302L395.043 756.371C396.798 756.348 398.393 756.018 399.828 755.38C401.286 754.719 402.494 753.785 403.451 752.577C404.431 751.346 405.046 749.831 405.297 748.031C405.502 746.436 405.377 745.069 404.921 743.929C404.488 742.767 403.736 741.879 402.665 741.263C401.617 740.625 400.307 740.272 398.734 740.204L389.848 740.17L382.499 782.518H373.305L381.918 732.753ZM400.819 782.518L393.471 760.233L402.699 760.199L410.595 782.006V782.518H400.819Z" fill="#17AE4D" fill-opacity="0.75"/>
<path d="M447.338 766.18L456.327 766.078C455.826 769.701 454.573 772.8 452.567 775.375C450.585 777.95 448.078 779.921 445.048 781.288C442.017 782.632 438.725 783.27 435.17 783.202C431.866 783.134 429.086 782.427 426.83 781.083C424.597 779.716 422.842 777.904 421.566 775.648C420.29 773.37 419.447 770.84 419.037 768.06C418.627 765.28 418.616 762.443 419.003 759.55L419.55 755.756C420.006 752.679 420.837 749.706 422.045 746.835C423.253 743.964 424.836 741.412 426.796 739.178C428.756 736.923 431.08 735.157 433.769 733.881C436.48 732.582 439.545 731.967 442.963 732.035C446.518 732.103 449.514 732.878 451.952 734.359C454.39 735.817 456.259 737.834 457.558 740.409C458.879 742.984 459.62 745.98 459.779 749.398H450.653C450.653 747.484 450.403 745.798 449.901 744.34C449.4 742.858 448.557 741.708 447.372 740.887C446.187 740.044 444.558 739.589 442.484 739.52C440.229 739.452 438.292 739.896 436.674 740.853C435.079 741.787 433.746 743.064 432.675 744.681C431.604 746.276 430.761 748.042 430.146 749.979C429.53 751.893 429.086 753.796 428.812 755.687L428.266 759.584C428.061 761.133 427.935 762.831 427.89 764.676C427.867 766.522 428.061 768.277 428.471 769.94C428.904 771.581 429.678 772.948 430.795 774.042C431.911 775.113 433.529 775.682 435.648 775.751C437.836 775.819 439.704 775.477 441.254 774.725C442.826 773.973 444.114 772.868 445.116 771.41C446.119 769.952 446.859 768.208 447.338 766.18Z" fill="#17AE4D" fill-opacity="0.75"/>
<path d="M482.03 757.635L480.766 764.779H462.582L463.812 757.635H482.03Z" fill="#17AE4D" fill-opacity="0.75"/>
<path d="M518.944 775.409L517.816 782.518H485.072L486.063 776.058L504.11 758.934C505.204 757.841 506.366 756.656 507.597 755.38C508.85 754.081 509.955 752.691 510.912 751.21C511.869 749.729 512.462 748.168 512.689 746.527C512.849 745.251 512.769 744.055 512.45 742.938C512.131 741.822 511.55 740.91 510.707 740.204C509.864 739.497 508.725 739.133 507.289 739.11C505.535 739.042 504.042 739.429 502.812 740.272C501.581 741.115 500.601 742.232 499.872 743.622C499.166 745.012 498.699 746.493 498.471 748.065L489.721 748.099C489.949 744.909 490.906 742.095 492.592 739.657C494.278 737.219 496.454 735.328 499.12 733.983C501.786 732.616 504.714 731.967 507.904 732.035C510.661 732.08 513.134 732.639 515.321 733.71C517.509 734.758 519.195 736.296 520.38 738.324C521.565 740.329 522.032 742.79 521.781 745.707C521.622 747.689 521.109 749.558 520.243 751.312C519.4 753.044 518.34 754.685 517.064 756.234C515.811 757.784 514.467 759.253 513.031 760.643C511.596 762.033 510.206 763.366 508.861 764.642L497.65 775.375L518.944 775.409Z" fill="#17AE4D" fill-opacity="0.75"/>
<path d="M557.704 775.409L556.576 782.518H523.832L524.823 776.058L542.87 758.934C543.964 757.841 545.126 756.656 546.356 755.38C547.61 754.081 548.715 752.691 549.672 751.21C550.629 749.729 551.221 748.168 551.449 746.527C551.609 745.251 551.529 744.055 551.21 742.938C550.891 741.822 550.31 740.91 549.467 740.204C548.624 739.497 547.484 739.133 546.049 739.11C544.294 739.042 542.802 739.429 541.571 740.272C540.341 741.115 539.361 742.232 538.632 743.622C537.925 745.012 537.458 746.493 537.23 748.065L528.48 748.099C528.708 744.909 529.665 742.095 531.352 739.657C533.038 737.219 535.214 735.328 537.88 733.983C540.546 732.616 543.474 731.967 546.664 732.035C549.421 732.08 551.894 732.639 554.081 733.71C556.269 734.758 557.955 736.296 559.14 738.324C560.325 740.329 560.792 742.79 560.541 745.707C560.382 747.689 559.869 749.558 559.003 751.312C558.16 753.044 557.1 754.685 555.824 756.234C554.571 757.784 553.227 759.253 551.791 760.643C550.355 762.033 548.965 763.366 547.621 764.642L536.41 775.375L557.704 775.409Z" fill="#17AE4D" fill-opacity="0.75"/>
<path d="M576.674 753.636L581.254 753.705C582.849 753.659 584.307 753.352 585.629 752.782C586.951 752.19 588.033 751.324 588.876 750.184C589.742 749.045 590.255 747.655 590.414 746.014C590.574 744.67 590.46 743.485 590.072 742.46C589.685 741.434 589.035 740.625 588.124 740.033C587.235 739.44 586.107 739.133 584.74 739.11C583.35 739.087 582.097 739.349 580.98 739.896C579.887 740.42 578.975 741.184 578.246 742.186C577.517 743.166 577.027 744.317 576.776 745.638L567.958 745.673C568.163 742.779 569.097 740.306 570.761 738.256C572.447 736.205 574.543 734.644 577.05 733.573C579.556 732.502 582.188 731.978 584.945 732.001C587.748 732.046 590.277 732.616 592.533 733.71C594.789 734.781 596.544 736.353 597.797 738.426C599.05 740.477 599.574 742.995 599.369 745.98C599.232 748.077 598.64 749.911 597.592 751.483C596.566 753.055 595.245 754.366 593.627 755.414C592.009 756.462 590.255 757.248 588.363 757.772C586.472 758.296 584.592 758.558 582.724 758.558L575.888 758.524L576.674 753.636ZM575.58 760.609L576.366 755.79L582.177 755.824C584.136 755.87 585.993 756.143 587.748 756.644C589.525 757.146 591.098 757.898 592.465 758.9C593.855 759.88 594.914 761.156 595.644 762.728C596.373 764.278 596.669 766.146 596.532 768.334C596.373 770.749 595.757 772.902 594.687 774.794C593.638 776.662 592.248 778.234 590.517 779.51C588.808 780.764 586.882 781.709 584.74 782.347C582.621 782.963 580.422 783.259 578.144 783.236C576.024 783.19 574.053 782.837 572.23 782.176C570.43 781.493 568.858 780.547 567.514 779.34C566.192 778.109 565.167 776.628 564.438 774.896C563.731 773.142 563.401 771.171 563.446 768.983H572.23C572.185 770.35 572.413 771.569 572.914 772.64C573.438 773.689 574.19 774.52 575.17 775.135C576.15 775.728 577.346 776.036 578.759 776.058C580.354 776.104 581.801 775.808 583.1 775.17C584.398 774.532 585.458 773.62 586.278 772.435C587.099 771.25 587.6 769.86 587.782 768.265C587.987 766.648 587.839 765.28 587.338 764.164C586.837 763.047 586.05 762.193 584.979 761.6C583.909 761.008 582.576 760.689 580.98 760.643L575.58 760.609Z" fill="#17AE4D" fill-opacity="0.75"/>
</g>
<g class="fight-vs" filter="url(#filter6_d_855_32194)">
<path d="M356.991 556.982C401.721 556.982 437.982 520.721 437.982 475.991C437.982 431.261 401.721 395 356.991 395C312.261 395 276 431.261 276 475.991C276 520.721 312.261 556.982 356.991 556.982Z" fill="url(#paint2_linear_855_32194)" style="mix-blend-mode:color-dodge" shape-rendering="crispEdges"/>
<path d="M437.482 475.991C437.482 520.445 401.445 556.482 356.991 556.482C312.537 556.482 276.5 520.445 276.5 475.991C276.5 431.537 312.537 395.5 356.991 395.5C401.445 395.5 437.482 431.537 437.482 475.991Z" stroke="#5A5A5A" shape-rendering="crispEdges"/>
</g>
<g class="fight-vs" filter="url(#filter7_d_855_32194)">
<path d="M356.99 547.875C396.689 547.875 428.871 515.693 428.871 475.994C428.871 436.295 396.689 404.113 356.99 404.113C317.292 404.113 285.109 436.295 285.109 475.994C285.109 515.693 317.292 547.875 356.99 547.875Z" fill="url(#paint3_linear_855_32194)" style="mix-blend-mode:screen" shape-rendering="crispEdges"/>
</g>
<path class="fight-vs" fill-rule="evenodd" clip-rule="evenodd" d="M344.578 484.63L370.104 444H358.243L341.618 470.405L335.8 444H324L333.245 484.63H344.578ZM349.485 503.67C351.371 504.945 353.844 505.997 356.865 506.806L356.906 506.786C359.927 507.595 363.13 508 366.496 508C370.408 508 373.855 507.393 376.815 506.199C379.775 505.005 382.066 503.306 383.668 501.12C385.27 498.935 386.08 496.426 386.08 493.553C386.08 491.226 385.452 489.365 384.215 487.928C382.979 486.491 381.499 485.419 379.775 484.731C378.052 484.043 375.862 483.375 373.227 482.708C370.855 482.08 369.111 481.514 367.996 480.967C366.881 480.421 366.313 479.652 366.313 478.64C366.313 477.467 366.962 476.516 368.259 475.788C369.557 475.059 371.341 474.695 373.632 474.695C375.639 474.695 377.606 474.958 379.532 475.484C381.458 476.01 383.222 476.759 384.803 477.77L389 469.232C387.175 468.099 385.006 467.249 382.492 466.642C379.958 466.055 377.241 465.751 374.342 465.751C370.388 465.751 366.921 466.358 363.982 467.552C361.021 468.746 358.751 470.446 357.169 472.631C355.568 474.816 354.777 477.366 354.777 480.259C354.777 482.667 355.406 484.589 356.663 486.066C357.92 487.543 359.42 488.636 361.163 489.344C362.907 490.073 365.097 490.781 367.732 491.469C370.064 492.096 371.767 492.663 372.882 493.209C373.997 493.755 374.544 494.504 374.544 495.475C374.544 496.608 373.936 497.478 372.72 498.126C371.503 498.753 369.902 499.077 367.57 499.077C365.239 499.077 362.927 498.733 360.596 498.065C358.264 497.377 356.075 496.386 354.027 495.07L349.485 503.67Z" fill="url(#paint4_linear_855_32194)"/>
</g>
<defs>
<filter id="filter0_f_855_32194" x="-122.316" y="-218.143" width="979.43" height="1347.56" filterUnits="userSpaceOnUse" color-interpolation-filters="sRGB">
<feFlood flood-opacity="0" result="BackgroundImageFix"/>
<feBlend mode="normal" in="SourceGraphic" in2="BackgroundImageFix" result="shape"/>
<feGaussianBlur stdDeviation="135" result="effect1_foregroundBlur_855_32194"/>
</filter>
<filter id="filter1_f_855_32194" x="102.703" y="121.512" width="313.711" height="139.178" filterUnits="userSpaceOnUse" color-interpolation-filters="sRGB">
<feFlood flood-opacity="0" result="BackgroundImageFix"/>
<feBlend mode="normal" in="SourceGraphic" in2="BackgroundImageFix" result="shape"/>
<feGaussianBlur stdDeviation="22" result="effect1_foregroundBlur_855_32194"/>
</filter>
<filter id="filter2_f_855_32194" x="102.703" y="122" width="313.711" height="139.178" filterUnits="userSpaceOnUse" color-interpolation-filters="sRGB">
<feFlood flood-opacity="0" result="BackgroundImageFix"/>
<feBlend mode="normal" in="SourceGraphic" in2="BackgroundImageFix" result="shape"/>
<feGaussianBlur stdDeviation="22" result="effect1_foregroundBlur_855_32194"/>
</filter>
<filter id="filter3_f_855_32194" x="-122.965" y="-218.141" width="979.43" height="1347.56" filterUnits="userSpaceOnUse" color-interpolation-filters="sRGB">
<feFlood flood-opacity="0" result="BackgroundImageFix"/>
<feBlend mode="normal" in="SourceGraphic" in2="BackgroundImageFix" result="shape"/>
<feGaussianBlur stdDeviation="135" result="effect1_foregroundBlur_855_32194"/>
</filter>
<filter id="filter4_f_855_32194" x="291.023" y="687.484" width="352.391" height="139.238" filterUnits="userSpaceOnUse" color-interpolation-filters="sRGB">
<feFlood flood-opacity="0" result="BackgroundImageFix"/>
<feBlend mode="normal" in="SourceGraphic" in2="BackgroundImageFix" result="shape"/>
<feGaussianBlur stdDeviation="22" result="effect1_foregroundBlur_855_32194"/>
</filter>
<filter id="filter5_f_855_32194" x="291.023" y="688" width="352.391" height="139.238" filterUnits="userSpaceOnUse" color-interpolation-filters="sRGB">
<feFlood flood-opacity="0" result="BackgroundImageFix"/>
<feBlend mode="normal" in="SourceGraphic" in2="BackgroundImageFix" result="shape"/>
<feGaussianBlur stdDeviation="22" result="effect1_foregroundBlur_855_32194"/>
</filter>
<filter id="filter6_d_855_32194" x="196" y="315" width="321.98" height="321.98" filterUnits="userSpaceOnUse" color-interpolation-filters="sRGB">
<feFlood flood-opacity="0" result="BackgroundImageFix"/>
<feColorMatrix in="SourceAlpha" type="matrix" values="0 0 0 0 0 0 0 0 0 0 0 0 0 0 0 0 0 0 127 0" result="hardAlpha"/>
<feOffset/>
<feGaussianBlur stdDeviation="40"/>
<feComposite in2="hardAlpha" operator="out"/>
<feColorMatrix type="matrix" values="0 0 0 0 0 0 0 0 0 0 0 0 0 0 0 0 0 0 0.25 0"/>
<feBlend mode="normal" in2="BackgroundImageFix" result="effect1_dropShadow_855_32194"/>
<feBlend mode="normal" in="SourceGraphic" in2="effect1_dropShadow_855_32194" result="shape"/>
</filter>
<filter id="filter7_d_855_32194" x="263.109" y="382.113" width="187.762" height="187.762" filterUnits="userSpaceOnUse" color-interpolation-filters="sRGB">
<feFlood flood-opacity="0" result="BackgroundImageFix"/>
<feColorMatrix in="SourceAlpha" type="matrix" values="0 0 0 0 0 0 0 0 0 0 0 0 0 0 0 0 0 0 127 0" result="hardAlpha"/>
<feOffset/>
<feGaussianBlur stdDeviation="11"/>
<feComposite in2="hardAlpha" operator="out"/>
<feColorMatrix type="matrix" values="0 0 0 0 0 0 0 0 0 0 0 0 0 0 0 0 0 0 0.25 0"/>
<feBlend mode="normal" in2="BackgroundImageFix" result="effect1_dropShadow_855_32194"/>
<feBlend mode="normal" in="SourceGraphic" in2="effect1_dropShadow_855_32194" result="shape"/>
</filter>
<linearGradient id="paint0_linear_855_32194" x1="224.81" y1="156.218" x2="220.324" y2="217.608" gradientUnits="userSpaceOnUse">
<stop stop-color="white"/>
<stop offset="1" stop-color="#AF9EDE"/>
</linearGradient>
<linearGradient id="paint1_linear_855_32194" x1="467.612" y1="730" x2="457.428" y2="785.596" gradientUnits="userSpaceOnUse">
<stop stop-color="#CDFADE"/>
<stop offset="1" stop-color="#6DF19D"/>
</linearGradient>
<linearGradient id="paint2_linear_855_32194" x1="318.5" y1="549" x2="390" y2="399.5" gradientUnits="userSpaceOnUse">
<stop/>
<stop offset="1" stop-color="#414141"/>
</linearGradient>
<linearGradient id="paint3_linear_855_32194" x1="387.5" y1="404" x2="341.5" y2="548" gradientUnits="userSpaceOnUse">
<stop stop-color="#515151"/>
<stop offset="0.933805" stop-color="#272525"/>
</linearGradient>
<linearGradient id="paint4_linear_855_32194" x1="380.821" y1="443.902" x2="340.126" y2="507.759" gradientUnits="userSpaceOnUse">
<stop stop-color="#BABABA"/>
<stop offset="1" stop-color="#DADADA"/>
</linearGradient>
<clipPath id="clip0_855_32194">
<rect width="713" height="952" fill="white"/>
</clipPath>
</defs>
</svg>
