<svg width="80" height="80" viewBox="0 0 80 80" fill="none" xmlns="http://www.w3.org/2000/svg">
<path d="M36.5287 59.4008L35.9688 59.3008C36.1488 59.3308 36.3387 59.3708 36.5287 59.4008Z" fill="#C2FD3F"/>
<path d="M36.97 59.4814C36.89 59.4714 36.82 59.4614 36.75 59.4414C36.8 59.4514 36.85 59.4614 36.9 59.4614C36.92 59.4614 36.95 59.4614 36.97 59.4814Z" fill="#C2FD3F"/>
<path d="M38.2191 59.6281L37.9691 59.6081C37.9091 59.5981 37.8491 59.5981 37.7891 59.5781C37.9291 59.5981 38.0691 59.6181 38.2191 59.6281Z" fill="#C2FD3F"/>
<mask id="path-4-inside-1_203_15003" fill="white">
<path d="M77.02 31.17L73.69 30.77L69.34 30.24C69.12 30.21 68.94 30.07 68.87 29.85C68.62 29.13 68.33 28.42 68.02 27.71C67.88 27.39 67.73 27.07 67.58 26.75C67.48 26.56 67.51 26.33 67.63 26.17L72.42 20.07C73.48 18.72 73.36 16.79 72.15 15.58L64.42 7.85C63.67 7.1 62.65 6.77 61.66 6.88C61.54 6.89 61.42 6.91 61.3 6.94C61.07 6.99 60.83 7.07 60.61 7.17C60.37 7.28 60.14 7.41 59.93 7.58L53.83 12.37C53.67 12.49 53.44 12.52 53.25 12.42C52.24 11.93 51.2 11.5 50.15 11.13C49.93 11.06 49.79 10.88 49.76 10.66L48.83 2.98C48.63 1.28 47.18 0 45.47 0H34.53C32.82 0 31.37 1.28 31.17 2.98L30.24 10.66C30.21 10.88 30.07 11.06 29.85 11.13C28.8 11.5 27.76 11.93 26.75 12.42C26.56 12.51 26.33 12.49 26.17 12.37L20.07 7.58C18.72 6.52 16.79 6.64 15.58 7.85L7.85 15.58C6.64 16.79 6.52 18.72 7.58 20.07L12.37 26.17C12.49 26.33 12.52 26.56 12.42 26.75C11.93 27.76 11.5 28.8 11.13 29.85C11.06 30.07 10.88 30.21 10.66 30.24L2.98 31.17C1.28 31.37 0 32.82 0 34.53V45.47C0 47.18 1.28 48.63 2.98 48.83L10.66 49.76C10.88 49.79 11.06 49.93 11.13 50.15C11.5 51.2 11.93 52.24 12.42 53.25C12.51 53.44 12.49 53.67 12.37 53.83L7.58 59.93C6.52 61.28 6.64 63.21 7.85 64.42L15.58 72.15C16.79 73.36 18.72 73.48 20.07 72.42L26.17 67.63C26.33 67.51 26.56 67.48 26.75 67.58C27.76 68.07 28.8 68.5 29.85 68.87C30.07 68.94 30.21 69.12 30.24 69.34L31.15 76.87L31.17 77.02C31.37 78.72 32.82 80 34.53 80H45.47C47.18 80 48.63 78.72 48.83 77.02L49.76 69.34C49.79 69.12 49.93 68.94 50.15 68.87C50.48 68.75 50.82 68.62 51.15 68.49C51.86 68.22 52.56 67.91 53.25 67.58C53.44 67.48 53.67 67.51 53.83 67.63L56.7 69.89H56.71L59.93 72.42C61.28 73.48 63.21 73.36 64.42 72.15L72.15 64.42C73.36 63.21 73.48 61.28 72.42 59.93L67.63 53.83C67.51 53.67 67.48 53.44 67.58 53.25C68.07 52.24 68.5 51.2 68.87 50.15C68.94 49.93 69.12 49.79 69.34 49.76L77.02 48.83C78.72 48.63 80 47.18 80 45.47V34.53C80 32.82 78.72 31.37 77.02 31.17ZM44.03 59.3C44.03 59.3 43.99 59.31 43.97 59.31C43.34 59.44 42.7 59.54 42.04 59.61C41.76 59.64 41.46 59.66 41.17 59.67H40.9C40.6 59.7 40.3 59.71 40 59.71C39.75 59.71 39.5 59.71 39.26 59.69C39.11 59.69 38.97 59.68 38.83 59.67L38.22 59.63L37.97 59.61C37.91 59.6 37.85 59.6 37.79 59.58C37.76 59.58 37.73 59.58 37.7 59.57L37.13 59.5C37.13 59.5 37.04 59.49 37 59.48H36.97C36.89 59.47 36.82 59.46 36.75 59.44C36.67 59.43 36.6 59.42 36.53 59.4L35.97 59.3C35.65 59.23 35.34 59.16 35.04 59.08C34.76 59.01 34.5 58.93 34.23 58.84C33.98 58.78 33.74 58.7 33.5 58.6C33.31 58.55 33.13 58.48 32.94 58.4C31.92 58.02 30.95 57.55 30.03 57C29.84 56.89 29.66 56.78 29.48 56.66C29.04 56.39 28.62 56.1 28.21 55.79C23.4 52.2 20.29 46.47 20.29 40C20.29 29.11 29.11 20.29 40 20.29C41.93 20.29 43.8 20.57 45.56 21.09C45.68 21.12 45.8 21.16 45.91 21.2C46.16 21.27 46.41 21.36 46.66 21.45C47.82 21.86 48.92 22.38 49.96 22.99C50.15 23.1 50.34 23.22 50.53 23.34C51.7 24.08 52.79 24.94 53.77 25.9L54.1 26.23C54.49 26.63 54.86 27.04 55.22 27.47C55.42 27.71 55.61 27.96 55.79 28.21C55.99 28.46 56.17 28.72 56.34 28.98C56.5 29.22 56.66 29.45 56.81 29.7L56.9 29.85C57.05 30.1 57.19 30.35 57.33 30.61C57.47 30.87 57.61 31.14 57.75 31.41C57.75 31.43 57.76 31.44 57.77 31.46C57.9 31.74 58.04 32.03 58.16 32.33C58.29 32.62 58.4 32.92 58.51 33.22C58.63 33.52 58.73 33.83 58.82 34.14C58.92 34.45 59.01 34.76 59.09 35.08C59.16 35.35 59.23 35.63 59.29 35.92C59.29 35.95 59.3 35.99 59.31 36.03C59.38 36.35 59.43 36.67 59.48 37C59.53 37.29 59.57 37.58 59.59 37.87C59.61 37.96 59.61 38.05 59.62 38.14C59.65 38.41 59.67 38.68 59.68 38.95C59.7 39.29 59.71 39.65 59.71 40C59.71 49.51 52.99 57.44 44.03 59.3Z"/>
</mask>
<path class="innovation-gear" d="M77.02 31.17L73.69 30.77L69.34 30.24C69.12 30.21 68.94 30.07 68.87 29.85C68.62 29.13 68.33 28.42 68.02 27.71C67.88 27.39 67.73 27.07 67.58 26.75C67.48 26.56 67.51 26.33 67.63 26.17L72.42 20.07C73.48 18.72 73.36 16.79 72.15 15.58L64.42 7.85C63.67 7.1 62.65 6.77 61.66 6.88C61.54 6.89 61.42 6.91 61.3 6.94C61.07 6.99 60.83 7.07 60.61 7.17C60.37 7.28 60.14 7.41 59.93 7.58L53.83 12.37C53.67 12.49 53.44 12.52 53.25 12.42C52.24 11.93 51.2 11.5 50.15 11.13C49.93 11.06 49.79 10.88 49.76 10.66L48.83 2.98C48.63 1.28 47.18 0 45.47 0H34.53C32.82 0 31.37 1.28 31.17 2.98L30.24 10.66C30.21 10.88 30.07 11.06 29.85 11.13C28.8 11.5 27.76 11.93 26.75 12.42C26.56 12.51 26.33 12.49 26.17 12.37L20.07 7.58C18.72 6.52 16.79 6.64 15.58 7.85L7.85 15.58C6.64 16.79 6.52 18.72 7.58 20.07L12.37 26.17C12.49 26.33 12.52 26.56 12.42 26.75C11.93 27.76 11.5 28.8 11.13 29.85C11.06 30.07 10.88 30.21 10.66 30.24L2.98 31.17C1.28 31.37 0 32.82 0 34.53V45.47C0 47.18 1.28 48.63 2.98 48.83L10.66 49.76C10.88 49.79 11.06 49.93 11.13 50.15C11.5 51.2 11.93 52.24 12.42 53.25C12.51 53.44 12.49 53.67 12.37 53.83L7.58 59.93C6.52 61.28 6.64 63.21 7.85 64.42L15.58 72.15C16.79 73.36 18.72 73.48 20.07 72.42L26.17 67.63C26.33 67.51 26.56 67.48 26.75 67.58C27.76 68.07 28.8 68.5 29.85 68.87C30.07 68.94 30.21 69.12 30.24 69.34L31.15 76.87L31.17 77.02C31.37 78.72 32.82 80 34.53 80H45.47C47.18 80 48.63 78.72 48.83 77.02L49.76 69.34C49.79 69.12 49.93 68.94 50.15 68.87C50.48 68.75 50.82 68.62 51.15 68.49C51.86 68.22 52.56 67.91 53.25 67.58C53.44 67.48 53.67 67.51 53.83 67.63L56.7 69.89H56.71L59.93 72.42C61.28 73.48 63.21 73.36 64.42 72.15L72.15 64.42C73.36 63.21 73.48 61.28 72.42 59.93L67.63 53.83C67.51 53.67 67.48 53.44 67.58 53.25C68.07 52.24 68.5 51.2 68.87 50.15C68.94 49.93 69.12 49.79 69.34 49.76L77.02 48.83C78.72 48.63 80 47.18 80 45.47V34.53C80 32.82 78.72 31.37 77.02 31.17ZM44.03 59.3C44.03 59.3 43.99 59.31 43.97 59.31C43.34 59.44 42.7 59.54 42.04 59.61C41.76 59.64 41.46 59.66 41.17 59.67H40.9C40.6 59.7 40.3 59.71 40 59.71C39.75 59.71 39.5 59.71 39.26 59.69C39.11 59.69 38.97 59.68 38.83 59.67L38.22 59.63L37.97 59.61C37.91 59.6 37.85 59.6 37.79 59.58C37.76 59.58 37.73 59.58 37.7 59.57L37.13 59.5C37.13 59.5 37.04 59.49 37 59.48H36.97C36.89 59.47 36.82 59.46 36.75 59.44C36.67 59.43 36.6 59.42 36.53 59.4L35.97 59.3C35.65 59.23 35.34 59.16 35.04 59.08C34.76 59.01 34.5 58.93 34.23 58.84C33.98 58.78 33.74 58.7 33.5 58.6C33.31 58.55 33.13 58.48 32.94 58.4C31.92 58.02 30.95 57.55 30.03 57C29.84 56.89 29.66 56.78 29.48 56.66C29.04 56.39 28.62 56.1 28.21 55.79C23.4 52.2 20.29 46.47 20.29 40C20.29 29.11 29.11 20.29 40 20.29C41.93 20.29 43.8 20.57 45.56 21.09C45.68 21.12 45.8 21.16 45.91 21.2C46.16 21.27 46.41 21.36 46.66 21.45C47.82 21.86 48.92 22.38 49.96 22.99C50.15 23.1 50.34 23.22 50.53 23.34C51.7 24.08 52.79 24.94 53.77 25.9L54.1 26.23C54.49 26.63 54.86 27.04 55.22 27.47C55.42 27.71 55.61 27.96 55.79 28.21C55.99 28.46 56.17 28.72 56.34 28.98C56.5 29.22 56.66 29.45 56.81 29.7L56.9 29.85C57.05 30.1 57.19 30.35 57.33 30.61C57.47 30.87 57.61 31.14 57.75 31.41C57.75 31.43 57.76 31.44 57.77 31.46C57.9 31.74 58.04 32.03 58.16 32.33C58.29 32.62 58.4 32.92 58.51 33.22C58.63 33.52 58.73 33.83 58.82 34.14C58.92 34.45 59.01 34.76 59.09 35.08C59.16 35.35 59.23 35.63 59.29 35.92C59.29 35.95 59.3 35.99 59.31 36.03C59.38 36.35 59.43 36.67 59.48 37C59.53 37.29 59.57 37.58 59.59 37.87C59.61 37.96 59.61 38.05 59.62 38.14C59.65 38.41 59.67 38.68 59.68 38.95C59.7 39.29 59.71 39.65 59.71 40C59.71 49.51 52.99 57.44 44.03 59.3Z" fill="#041E2D" stroke="#22AEFC" stroke-width="2" mask="url(#path-4-inside-1_203_15003)"/>
<path d="M36.5287 59.4008L35.9688 59.3008C36.1488 59.3308 36.3387 59.3708 36.5287 59.4008Z" fill="#FFCA28"/>
<path d="M38.2191 59.6281L37.9691 59.6081C37.9091 59.5981 37.8491 59.5981 37.7891 59.5781C37.9291 59.5981 38.0691 59.6181 38.2191 59.6281Z" fill="#FFCA28"/>
<path fill-rule="evenodd" clip-rule="evenodd" d="M50.5694 35.9008C50.5694 40.3108 47.8694 44.0908 44.0294 45.6708V59.3008C44.0294 59.3008 43.9894 59.3108 43.9694 59.3108C43.3394 59.4408 42.6994 59.5408 42.0394 59.6108C41.7594 59.6408 41.4594 59.6608 41.1694 59.6708H40.8994C40.5994 59.7008 40.2994 59.7108 39.9994 59.7108C39.7494 59.7108 39.4994 59.7108 39.2594 59.6908C39.1094 59.6908 38.9694 59.6808 38.8294 59.6708L38.2194 59.6308C38.0694 59.6208 37.9294 59.6008 37.7894 59.5808C37.7594 59.5808 37.7294 59.5808 37.6994 59.5708L37.1294 59.5008C37.1294 59.5008 37.0394 59.4908 36.9994 59.4808H36.9694C36.9694 59.4808 36.9194 59.4708 36.8994 59.4608C36.8494 59.4608 36.7994 59.4508 36.7494 59.4408C36.6694 59.4308 36.5994 59.4208 36.5294 59.4008C36.3394 59.3708 36.1494 59.3308 35.9694 59.2908V45.6608C32.2794 44.1308 29.6194 40.5508 29.4394 36.3608C29.2694 32.3408 31.3494 28.7808 34.5294 26.8608C35.1094 26.5008 35.8594 26.9208 35.8594 27.6008V34.5208C35.8594 34.6308 35.8794 34.7408 35.9294 34.8408C35.9694 34.9408 36.0294 35.0308 36.1094 35.1108L39.3294 38.3408C39.6494 38.6608 40.1694 38.6608 40.4894 38.3408L43.8794 35.1008C44.0394 34.9508 44.1394 34.7308 44.1394 34.5008V27.6008C44.1394 26.9108 44.8894 26.4908 45.4694 26.8408C48.5294 28.7008 50.5694 32.0508 50.5694 35.8908V35.9008Z" fill="#22AEFC"/>
<path fill-rule="evenodd" clip-rule="evenodd" d="M36.5287 59.4008L35.9688 59.3008C36.1488 59.3308 36.3387 59.3708 36.5287 59.4008Z" fill="#78909C"/>
<path fill-rule="evenodd" clip-rule="evenodd" d="M36.97 59.4814C36.89 59.4714 36.82 59.4614 36.75 59.4414C36.8 59.4514 36.85 59.4614 36.9 59.4614C36.92 59.4614 36.95 59.4614 36.97 59.4814Z" fill="#78909C"/>
<path fill-rule="evenodd" clip-rule="evenodd" d="M38.2191 59.6281L37.9691 59.6081C37.9091 59.5981 37.8491 59.5981 37.7891 59.5781C37.9291 59.5981 38.0691 59.6181 38.2191 59.6281Z" fill="#78909C"/>
</svg>
