<svg width="563" height="668" viewBox="0 0 563 668" fill="none" xmlns="http://www.w3.org/2000/svg">
    <g clip-path="url(#clip0_5_1511)">
        <path class="interface-man-3"
              d="M305.482 658.984C306.086 657.795 306.329 656.498 306.225 655.016C305.997 651.779 305.289 648.733 304.121 645.961C302.939 643.158 301.247 640.541 299.09 638.181C298.743 637.801 298.323 637.446 297.842 637.125C297.677 637.015 297.51 636.961 297.332 636.961C297.143 636.961 296.933 637.02 296.708 637.136C296.191 637.402 295.865 637.802 295.789 638.263C295.711 638.74 295.904 639.247 296.334 639.692C298.436 641.865 300.093 644.327 301.26 647.01C302.427 649.694 303.077 652.593 303.192 655.627C303.245 657.03 302.807 658.14 301.891 658.925L301.796 659.007C301.082 659.62 300.343 660.253 299.475 660.727C295.775 662.744 291.468 663.984 286.31 664.517C284.211 664.735 282.04 664.845 279.859 664.845C277.674 664.845 275.411 664.734 273.13 664.517C268.236 664.049 264.333 663.018 260.846 661.272C259.856 660.776 258.834 660.119 257.722 659.264C256.56 658.372 255.973 657.113 256.068 655.72C256.152 654.5 256.238 653.238 256.476 651.996C257.328 647.544 259.341 643.556 262.459 640.141C262.856 639.707 263.15 639.245 263.287 638.841C263.426 638.431 263.377 638.03 263.147 637.71C262.904 637.37 262.498 637.176 262.031 637.176C262.02 637.176 262.009 637.176 261.997 637.176C261.36 637.189 260.856 637.407 260.499 637.826C260.346 638.005 260.192 638.185 260.038 638.364C259.19 639.352 258.313 640.373 257.585 641.437C254.99 645.227 253.48 649.525 253.096 654.212C253 655.385 252.91 656.493 253.173 657.552C253.613 659.319 254.66 660.789 256.468 662.179C258.825 663.991 261.654 665.298 265.117 666.172C269.407 667.256 274.239 667.851 279.477 667.941C285.609 667.93 290.645 667.235 295.326 665.755C298.574 664.728 300.881 663.593 302.807 662.076C304.045 661.101 304.919 660.089 305.482 658.984Z"
              fill="white"/>
        <path class="interface-man-3"
              d="M264.372 614.759C263.504 616.805 263.058 618.978 263.047 621.217C263.026 625.488 264.816 629.749 267.959 632.908C271.032 635.996 275.05 637.697 279.274 637.697H279.342C283.58 637.676 287.803 636.036 290.928 633.198C292.553 631.721 293.83 629.983 294.723 628.03C295.679 625.939 296.167 623.654 296.174 621.238C296.181 618.847 295.711 616.569 294.777 614.467C293.902 612.5 292.649 610.741 291.051 609.237C287.962 606.33 283.82 604.646 279.689 604.619C279.652 604.618 279.616 604.618 279.579 604.618V604.125H279.578L279.576 604.618C275.184 604.619 271.046 606.346 267.924 609.481C266.405 611.006 265.21 612.782 264.372 614.759ZM279.65 607.66C279.677 607.66 279.705 607.66 279.733 607.66C286.914 607.706 293.179 613.949 293.14 621.018C293.084 627.593 287.962 634.686 279.784 634.686C279.74 634.686 279.695 634.686 279.651 634.686C272.016 634.612 266.062 628.614 266.098 621.032C266.131 613.783 272.338 607.66 279.65 607.66Z"
              fill="white"/>
        <path class="interface-man-5"
              d="M561.482 444.983C562.086 443.795 562.329 442.497 562.225 441.016C561.997 437.779 561.289 434.732 560.121 431.961C558.939 429.158 557.247 426.541 555.09 424.181C554.743 423.801 554.323 423.446 553.842 423.125C553.677 423.014 553.51 422.961 553.332 422.961C553.143 422.961 552.933 423.02 552.708 423.136C552.191 423.402 551.865 423.802 551.789 424.262C551.711 424.74 551.904 425.247 552.334 425.691C554.436 427.865 556.093 430.327 557.26 433.01C558.427 435.694 559.077 438.593 559.192 441.626C559.245 443.03 558.807 444.14 557.891 444.925L557.796 445.007C557.082 445.62 556.343 446.253 555.475 446.726C551.775 448.744 547.468 449.983 542.31 450.517C540.211 450.734 538.04 450.845 535.859 450.845C533.674 450.845 531.411 450.734 529.13 450.516C524.236 450.049 520.333 449.018 516.846 447.271C515.856 446.776 514.834 446.119 513.722 445.264C512.56 444.371 511.973 443.112 512.068 441.719C512.152 440.499 512.238 439.238 512.476 437.995C513.328 433.544 515.341 429.555 518.459 426.141C518.856 425.707 519.15 425.245 519.287 424.841C519.426 424.431 519.377 424.029 519.147 423.709C518.904 423.37 518.498 423.176 518.031 423.176C518.02 423.176 518.009 423.176 517.997 423.176C517.36 423.188 516.856 423.407 516.499 423.826C516.346 424.005 516.192 424.184 516.038 424.364C515.19 425.352 514.313 426.373 513.585 427.437C510.99 431.227 509.48 435.525 509.096 440.212C509 441.385 508.91 442.493 509.173 443.552C509.613 445.319 510.66 446.789 512.468 448.178C514.825 449.991 517.654 451.297 521.117 452.172C525.407 453.256 530.239 453.851 535.477 453.941C541.609 453.929 546.645 453.235 551.326 451.755C554.574 450.728 556.881 449.593 558.807 448.075C560.045 447.1 560.919 446.089 561.482 444.983Z"
              fill="white"/>
        <path class="interface-man-5"
              d="M520.372 400.759C519.504 402.805 519.058 404.978 519.047 407.217C519.026 411.488 520.816 415.749 523.959 418.908C527.032 421.996 531.05 423.697 535.274 423.697H535.342C539.58 423.676 543.803 422.036 546.928 419.198C548.553 417.721 549.83 415.983 550.723 414.03C551.679 411.939 552.167 409.654 552.174 407.238C552.181 404.847 551.711 402.569 550.777 400.467C549.902 398.5 548.649 396.741 547.051 395.237C543.962 392.33 539.82 390.646 535.689 390.619C535.652 390.618 535.616 390.618 535.579 390.618V390.125L535.576 390.618C531.184 390.619 527.046 392.346 523.924 395.481C522.405 397.006 521.21 398.782 520.372 400.759ZM535.65 393.66C535.677 393.66 535.705 393.66 535.733 393.66C542.914 393.706 549.179 399.949 549.14 407.018C549.084 413.593 543.962 420.686 535.784 420.686C535.74 420.686 535.695 420.686 535.651 420.686C528.016 420.612 522.062 414.614 522.098 407.032C522.131 399.783 528.338 393.66 535.65 393.66Z"
              fill="white"/>
        <path class="interface-man-1"
              d="M52.4816 444.983C53.0859 443.795 53.329 442.497 53.2247 441.016C52.9967 437.779 52.2887 434.732 51.1205 431.961C49.9392 429.158 48.2467 426.541 46.0901 424.181C45.7429 423.801 45.3231 423.446 44.8422 423.125C44.6767 423.014 44.5098 422.961 44.3322 422.961C44.1434 422.961 43.9334 423.02 43.7082 423.136C43.1915 423.402 42.8653 423.802 42.7895 424.262C42.711 424.74 42.9043 425.247 43.334 425.691C45.4359 427.865 47.0932 430.327 48.2599 433.01C49.4271 435.694 50.0772 438.593 50.1921 441.626C50.2452 443.03 49.8075 444.14 48.891 444.925L48.7955 445.007C48.0816 445.62 47.3435 446.253 46.4749 446.726C42.7746 448.744 38.4684 449.983 33.3101 450.517C31.2108 450.734 29.0402 450.845 26.8586 450.845C24.6745 450.845 22.4106 450.734 20.1297 450.516C15.2359 450.049 11.3327 449.018 7.84591 447.271C6.85602 446.776 5.83416 446.119 4.7219 445.264C3.56034 444.371 2.97305 443.112 3.06835 441.719C3.15178 440.499 3.23801 439.238 3.47586 437.995C4.32775 433.544 6.34095 429.555 9.45943 426.141C9.85599 425.707 10.15 425.245 10.2873 424.841C10.4264 424.431 10.3768 424.029 10.1475 423.709C9.90447 423.37 9.49753 423.176 9.0309 423.176C9.01982 423.176 9.00857 423.176 8.9974 423.176C8.36028 423.188 7.85633 423.407 7.4994 423.826C7.34625 424.005 7.19232 424.184 7.03833 424.364C6.19021 425.352 5.31317 426.373 4.58496 427.437C1.99021 431.227 0.480083 435.525 0.0964855 440.212C0.000443794 441.385 -0.090255 442.493 0.173345 443.552C0.61335 445.319 1.66013 446.789 3.46758 448.178C5.82526 449.991 8.65444 451.297 12.1168 452.172C16.4071 453.256 21.2388 453.851 26.4772 453.941C32.6089 453.929 37.6447 453.235 42.3257 451.755C45.5738 450.728 47.8812 449.593 49.8074 448.075C51.0447 447.1 51.9194 446.089 52.4816 444.983Z"
              fill="white"/>
        <path class="interface-man-1"
              d="M11.3717 400.759C10.504 402.805 10.0583 404.978 10.0471 407.217C10.0256 411.488 11.8158 415.749 14.9588 418.908C18.0317 421.996 22.0503 423.697 26.2743 423.697H26.3425C30.5803 423.676 34.8034 422.036 37.9282 419.198C39.5534 417.721 40.8302 415.983 41.7231 414.03C42.679 411.939 43.1673 409.654 43.1744 407.238C43.1815 404.847 42.7111 402.569 41.7765 400.467C40.9021 398.5 39.6488 396.741 38.0514 395.237C34.9621 392.33 30.8204 390.646 26.6885 390.619C26.6515 390.618 26.616 390.618 26.5791 390.618V390.125H26.5777L26.5764 390.618C22.1841 390.619 18.0459 392.346 14.924 395.481C13.4054 397.006 12.2102 398.782 11.3717 400.759ZM26.6497 393.66C26.6773 393.66 26.7051 393.66 26.7328 393.66C33.9141 393.706 40.1789 399.949 40.1396 407.018C40.0843 413.593 34.9623 420.686 26.7838 420.686C26.74 420.686 26.6953 420.686 26.6513 420.686C19.0156 420.612 13.0621 414.614 13.0975 407.032C13.1314 399.783 19.3376 393.66 26.6497 393.66Z"
              fill="white"/>
        <path class="interface-man-4"
              d="M474.482 596.984C475.086 595.795 475.329 594.498 475.225 593.016C474.997 589.779 474.289 586.733 473.121 583.961C471.939 581.158 470.247 578.541 468.09 576.181C467.743 575.801 467.323 575.446 466.842 575.125C466.677 575.015 466.51 574.961 466.332 574.961C466.143 574.961 465.933 575.02 465.708 575.136C465.191 575.402 464.865 575.802 464.789 576.263C464.711 576.74 464.904 577.247 465.334 577.692C467.436 579.865 469.093 582.327 470.26 585.01C471.427 587.694 472.077 590.593 472.192 593.627C472.245 595.03 471.807 596.14 470.891 596.925L470.796 597.007C470.082 597.62 469.343 598.253 468.475 598.727C464.775 600.744 460.468 601.984 455.31 602.517C453.211 602.735 451.04 602.845 448.859 602.845C446.674 602.845 444.411 602.734 442.13 602.517C437.236 602.049 433.333 601.018 429.846 599.272C428.856 598.776 427.834 598.119 426.722 597.264C425.56 596.372 424.973 595.113 425.068 593.72C425.152 592.5 425.238 591.238 425.476 589.996C426.328 585.544 428.341 581.556 431.459 578.141C431.856 577.707 432.15 577.245 432.287 576.841C432.426 576.431 432.377 576.03 432.147 575.71C431.904 575.37 431.498 575.176 431.031 575.176C431.02 575.176 431.009 575.176 430.997 575.176C430.36 575.189 429.856 575.407 429.499 575.826C429.346 576.005 429.192 576.185 429.038 576.364C428.19 577.352 427.313 578.373 426.585 579.437C423.99 583.227 422.48 587.525 422.096 592.212C422 593.385 421.91 594.493 422.173 595.552C422.613 597.319 423.66 598.789 425.468 600.179C427.825 601.991 430.654 603.298 434.117 604.172C438.407 605.256 443.239 605.851 448.477 605.941C454.609 605.93 459.645 605.235 464.326 603.755C467.574 602.728 469.881 601.593 471.807 600.076C473.045 599.101 473.919 598.089 474.482 596.984Z"
              fill="white"/>
        <path class="interface-man-4"
              d="M433.372 552.759C432.504 554.805 432.058 556.978 432.047 559.217C432.026 563.488 433.816 567.749 436.959 570.908C440.032 573.996 444.05 575.697 448.274 575.697H448.342C452.58 575.676 456.803 574.036 459.928 571.198C461.553 569.721 462.83 567.983 463.723 566.03C464.679 563.939 465.167 561.654 465.174 559.238C465.181 556.847 464.711 554.569 463.777 552.467C462.902 550.5 461.649 548.741 460.051 547.237C456.962 544.33 452.82 542.646 448.689 542.619C448.652 542.618 448.616 542.618 448.579 542.618V542.125H448.578L448.576 542.618C444.184 542.619 440.046 544.346 436.924 547.481C435.405 549.006 434.21 550.782 433.372 552.759ZM448.65 545.66C448.677 545.66 448.705 545.66 448.733 545.66C455.914 545.706 462.179 551.949 462.14 559.018C462.084 565.593 456.962 572.686 448.784 572.686C448.74 572.686 448.695 572.686 448.651 572.686C441.016 572.612 435.062 566.614 435.098 559.032C435.131 551.783 441.338 545.66 448.65 545.66Z"
              fill="white"/>
        <path class="interface-man-2"
              d="M136.482 596.984C137.086 595.795 137.329 594.498 137.225 593.016C136.997 589.779 136.289 586.733 135.121 583.961C133.939 581.158 132.247 578.541 130.09 576.181C129.743 575.801 129.323 575.446 128.842 575.125C128.677 575.015 128.51 574.961 128.332 574.961C128.143 574.961 127.933 575.02 127.708 575.136C127.191 575.402 126.865 575.802 126.789 576.263C126.711 576.74 126.904 577.247 127.334 577.692C129.436 579.865 131.093 582.327 132.26 585.01C133.427 587.694 134.077 590.593 134.192 593.627C134.245 595.03 133.807 596.14 132.891 596.925L132.796 597.007C132.082 597.62 131.343 598.253 130.475 598.727C126.775 600.744 122.468 601.984 117.31 602.517C115.211 602.735 113.04 602.845 110.859 602.845C108.674 602.845 106.411 602.734 104.13 602.517C99.2359 602.049 95.3327 601.018 91.8459 599.272C90.856 598.776 89.8342 598.119 88.7219 597.264C87.5603 596.372 86.973 595.113 87.0683 593.72C87.1518 592.5 87.238 591.238 87.4759 589.996C88.3278 585.544 90.3409 581.556 93.4594 578.141C93.856 577.707 94.15 577.245 94.2873 576.841C94.4264 576.431 94.3768 576.03 94.1475 575.71C93.9045 575.37 93.4975 575.176 93.0309 575.176C93.0198 575.176 93.0086 575.176 92.9974 575.176C92.3603 575.189 91.8563 575.407 91.4994 575.826C91.3463 576.005 91.1923 576.185 91.0383 576.364C90.1902 577.352 89.3132 578.373 88.585 579.437C85.9902 583.227 84.4801 587.525 84.0965 592.212C84.0004 593.385 83.9097 594.493 84.1733 595.552C84.6134 597.319 85.6601 598.789 87.4676 600.179C89.8253 601.991 92.6544 603.298 96.1168 604.172C100.407 605.256 105.239 605.851 110.477 605.941C116.609 605.93 121.645 605.235 126.326 603.755C129.574 602.728 131.881 601.593 133.807 600.076C135.045 599.101 135.919 598.089 136.482 596.984Z"
              fill="white"/>
        <path class="interface-man-2"
              d="M95.3717 552.759C94.504 554.805 94.0583 556.978 94.0471 559.217C94.0256 563.488 95.8158 567.749 98.9588 570.908C102.032 573.996 106.05 575.697 110.274 575.697H110.342C114.58 575.676 118.803 574.036 121.928 571.198C123.553 569.721 124.83 567.983 125.723 566.03C126.679 563.939 127.167 561.654 127.174 559.238C127.181 556.847 126.711 554.569 125.777 552.467C124.902 550.5 123.649 548.741 122.051 547.237C118.962 544.33 114.82 542.646 110.689 542.619C110.652 542.618 110.616 542.618 110.579 542.618V542.125L110.576 542.618C106.184 542.619 102.046 544.346 98.924 547.481C97.4054 549.006 96.2102 550.782 95.3717 552.759ZM110.65 545.66C110.677 545.66 110.705 545.66 110.733 545.66C117.914 545.706 124.179 551.949 124.14 559.018C124.084 565.593 118.962 572.686 110.784 572.686C110.74 572.686 110.695 572.686 110.651 572.686C103.016 572.612 97.0621 566.614 97.0975 559.032C97.1314 551.783 103.338 545.66 110.65 545.66Z"
              fill="white"/>
        <path class="interface-top"
              d="M329.458 35.2812H225.644C218.661 35.2812 213 40.9422 213 47.9253V125.12C213 132.103 218.661 137.764 225.644 137.764H329.458C336.441 137.764 342.102 132.103 342.102 125.12V47.9253C342.102 40.9422 336.441 35.2812 329.458 35.2812Z"
              fill="#031A0B"/>
        <path class="interface-top"
              d="M277.223 124.888C264.01 124.888 250.797 124.89 237.583 124.887C231.796 124.886 227.644 120.74 227.643 114.953C227.64 95.4629 227.64 75.9727 227.643 56.4824C227.644 50.7824 231.811 46.5972 237.492 46.5965C264.032 46.593 290.573 46.593 317.113 46.5956C322.763 46.5962 326.951 50.7816 326.952 56.4259C326.955 75.9844 326.956 95.5429 326.952 115.101C326.951 120.689 322.739 124.886 317.136 124.888C303.832 124.891 290.528 124.889 277.223 124.888ZM231.418 71.4156C231.418 71.6929 231.418 71.8947 231.418 72.0966C231.418 86.4933 231.415 100.89 231.421 115.287C231.422 118.604 233.937 121.11 237.262 121.111C263.94 121.114 290.619 121.114 317.297 121.111C320.669 121.111 323.174 118.615 323.176 115.253C323.18 100.879 323.177 86.5052 323.177 72.1312V71.4156H231.418ZM323.177 67.5913C323.177 67.2987 323.177 67.0756 323.177 66.8526C323.177 63.3274 323.181 59.8022 323.176 56.277C323.171 52.8616 320.695 50.3732 317.278 50.3727C290.623 50.3689 263.968 50.369 237.313 50.3723C233.909 50.3727 231.424 52.8708 231.419 56.2807C231.413 59.8058 231.417 63.331 231.417 66.8562C231.417 67.0951 231.417 67.3341 231.417 67.5913H323.177Z"
              fill="url(#paint0_linear_5_1511)"/>
        <path class="interface-top"
              d="M296.472 96.4761C295.279 95.2538 294.111 94.0514 292.937 92.8545C291.266 91.1501 289.588 89.4518 287.917 87.7465C287.108 86.9203 287.072 85.7544 287.82 84.9982C288.583 84.2263 289.717 84.2396 290.552 85.0852C293.827 88.4022 297.093 91.7284 300.35 95.0628C301.153 95.8848 301.153 96.9429 300.359 97.8177C297.118 101.386 293.87 104.948 290.614 108.502C289.828 109.36 288.658 109.429 287.874 108.712C287.094 107.998 287.077 106.827 287.863 105.963C290.57 102.985 293.285 100.015 295.996 97.0402C296.147 96.8751 296.285 96.6987 296.472 96.4761Z"
              fill="#D4E3F8"/>
        <path class="interface-top"
              d="M257.136 96.5045C259.033 98.6263 260.865 100.676 262.697 102.725C263.667 103.81 264.645 104.888 265.602 105.984C266.392 106.888 266.363 107.992 265.559 108.719C264.753 109.449 263.578 109.333 262.776 108.437C259.652 104.947 256.53 101.456 253.409 97.9637C252.421 96.8575 252.455 95.9215 253.483 94.8561C256.609 91.616 259.728 88.3699 262.847 85.1235C263.439 84.5079 264.136 84.2629 264.95 84.564C265.67 84.8306 266.18 85.3867 266.135 86.1492C266.103 86.6899 265.876 87.3327 265.512 87.7218C263.046 90.3644 260.52 92.9513 258.015 95.5577C257.734 95.85 257.463 96.1518 257.136 96.5045Z"
              fill="#D4E3F8"/>
        <path class="interface-top"
              d="M270.469 107.119C270.509 106.982 270.575 106.671 270.691 106.381C273.412 99.5706 276.128 92.7591 278.88 85.962C279.08 85.4692 279.467 84.9722 279.903 84.6745C280.532 84.2441 281.255 84.3689 281.875 84.8349C282.495 85.301 282.768 86.0746 282.509 86.845C282.213 87.7262 281.846 88.5836 281.5 89.4476C279.054 95.5603 276.603 101.671 274.162 107.786C273.904 108.433 273.539 108.936 272.829 109.125C271.612 109.451 270.447 108.555 270.469 107.119Z"
              fill="#D4E3F8"/>
        <path class="interface-top"
              d="M239.077 63.1608C237.03 63.159 235.294 61.4323 235.285 59.387C235.276 57.3252 236.982 55.6102 239.05 55.6014C241.154 55.5924 242.893 57.3177 242.876 59.3971C242.86 61.4525 241.134 63.1625 239.077 63.1608Z"
              fill="white"/>
        <path class="interface-top"
              d="M250.567 63.1604C248.531 63.1813 246.772 61.4536 246.75 59.4117C246.728 57.349 248.412 55.6323 250.49 55.6001C252.582 55.5676 254.343 57.2918 254.342 59.3711C254.34 61.4209 252.629 63.1394 250.567 63.1604Z"
              fill="white"/>
        <path class="interface-top"
              d="M262.021 55.6013C264.086 55.6035 265.805 57.3144 265.807 59.3696C265.809 61.4157 264.076 63.1571 262.033 63.1623C259.956 63.1676 258.193 61.4049 258.215 59.3444C258.237 57.2684 259.935 55.5991 262.021 55.6013Z"
              fill="white"/>
        <path class="interface-top"
              d="M199.515 0.99999H204.815C205.869 0.99999 206.809 1.14666 207.635 1.43999C208.462 1.71999 209.162 2.13999 209.735 2.69999C210.309 3.25999 210.749 3.95999 211.055 4.79999C211.362 5.63999 211.515 6.60666 211.515 7.69999V8.09999C211.515 9.21999 211.355 10.2133 211.035 11.08C210.729 11.9333 210.275 12.6533 209.675 13.24C209.089 13.8133 208.369 14.2533 207.515 14.56C206.662 14.8533 205.695 15 204.615 15H199.515V0.99999ZM204.415 12.04C204.869 12.04 205.295 11.9733 205.695 11.84C206.109 11.6933 206.469 11.4667 206.775 11.16C207.095 10.8533 207.342 10.4467 207.515 9.93999C207.702 9.43332 207.795 8.81999 207.795 8.09999V7.69999C207.795 7.01999 207.709 6.44666 207.535 5.97999C207.375 5.49999 207.149 5.11332 206.855 4.81999C206.575 4.51332 206.242 4.29332 205.855 4.15999C205.469 4.02666 205.055 3.95999 204.615 3.95999H203.115V12.04H204.415ZM213.812 0.99999H224.012V3.75999H217.412V6.49999H223.412V9.09999H217.412V12.24H224.012V15H213.812V0.99999ZM229.87 7.69999L225.51 0.99999H229.49L232.23 5.23999L235.01 0.99999H238.91L234.57 7.65999L239.11 15H235.09L232.17 10.1L229.25 15H225.31L229.87 7.69999ZM251.804 15.26C250.844 15.26 249.964 15.1333 249.164 14.88C248.364 14.6133 247.678 14.1933 247.104 13.62C246.544 13.0467 246.104 12.3067 245.784 11.4C245.464 10.4933 245.304 9.38666 245.304 8.07999V7.69999C245.304 6.47332 245.471 5.41999 245.804 4.53999C246.138 3.65999 246.598 2.93999 247.184 2.37999C247.771 1.81999 248.458 1.40666 249.244 1.13999C250.044 0.873323 250.898 0.73999 251.804 0.73999C252.618 0.73999 253.378 0.833323 254.084 1.01999C254.804 1.20666 255.431 1.49999 255.964 1.89999C256.511 2.29999 256.951 2.81999 257.284 3.45999C257.631 4.09999 257.838 4.87999 257.904 5.79999H254.184C254.118 5.42666 254.011 5.11332 253.864 4.85999C253.718 4.59332 253.538 4.37999 253.324 4.21999C253.111 4.04666 252.871 3.92666 252.604 3.85999C252.351 3.77999 252.084 3.73999 251.804 3.73999C251.404 3.73999 251.031 3.81332 250.684 3.95999C250.351 4.09332 250.058 4.31999 249.804 4.63999C249.564 4.94666 249.371 5.35332 249.224 5.85999C249.091 6.36666 249.024 6.97999 249.024 7.69999V8.11999C249.024 8.89332 249.098 9.54666 249.244 10.08C249.404 10.6 249.611 11.0267 249.864 11.36C250.118 11.68 250.411 11.9133 250.744 12.06C251.078 12.1933 251.431 12.26 251.804 12.26C252.484 12.26 253.024 12.1 253.424 11.78C253.838 11.4467 254.091 10.92 254.184 10.2H257.904C257.851 11.1333 257.658 11.92 257.324 12.56C257.004 13.2 256.571 13.72 256.024 14.12C255.491 14.52 254.864 14.8133 254.144 15C253.424 15.1733 252.644 15.26 251.804 15.26ZM266.304 15.26C265.384 15.26 264.51 15.1267 263.684 14.86C262.857 14.5933 262.13 14.1733 261.504 13.6C260.89 13.0133 260.404 12.2733 260.044 11.38C259.684 10.4733 259.504 9.37999 259.504 8.09999V7.69999C259.504 6.47332 259.684 5.41999 260.044 4.53999C260.404 3.65999 260.89 2.93999 261.504 2.37999C262.13 1.81999 262.857 1.40666 263.684 1.13999C264.51 0.873323 265.384 0.73999 266.304 0.73999C267.224 0.73999 268.097 0.873323 268.924 1.13999C269.75 1.40666 270.47 1.81999 271.084 2.37999C271.71 2.93999 272.204 3.65999 272.564 4.53999C272.924 5.41999 273.104 6.47332 273.104 7.69999V8.09999C273.104 9.37999 272.924 10.4733 272.564 11.38C272.204 12.2733 271.71 13.0133 271.084 13.6C270.47 14.1733 269.75 14.5933 268.924 14.86C268.097 15.1267 267.224 15.26 266.304 15.26ZM266.304 12.26C266.704 12.26 267.09 12.2 267.464 12.08C267.837 11.9467 268.164 11.7267 268.444 11.42C268.724 11.1 268.95 10.6733 269.124 10.14C269.297 9.60666 269.384 8.92666 269.384 8.09999V7.69999C269.384 6.92666 269.297 6.28666 269.124 5.77999C268.95 5.25999 268.724 4.85332 268.444 4.55999C268.164 4.25332 267.837 4.03999 267.464 3.91999C267.09 3.79999 266.704 3.73999 266.304 3.73999C265.904 3.73999 265.517 3.79999 265.144 3.91999C264.77 4.03999 264.444 4.25332 264.164 4.55999C263.884 4.85332 263.657 5.25999 263.484 5.77999C263.31 6.28666 263.224 6.92666 263.224 7.69999V8.09999C263.224 8.92666 263.31 9.60666 263.484 10.14C263.657 10.6733 263.884 11.1 264.164 11.42C264.444 11.7267 264.77 11.9467 265.144 12.08C265.517 12.2 265.904 12.26 266.304 12.26ZM275.394 0.99999H278.574L283.994 8.79999V0.99999H287.794V15H284.394L278.994 7.19999V15H275.394V0.99999ZM293.889 3.95999H289.589V0.99999H301.789V3.95999H297.489V15H293.889V3.95999ZM303.597 0.99999H309.697C311.444 0.99999 312.764 1.41999 313.657 2.25999C314.551 3.09999 314.997 4.23999 314.997 5.67999C314.997 6.67999 314.757 7.53999 314.277 8.25999C313.811 8.96666 313.104 9.48666 312.157 9.81999L315.397 15H311.397L308.677 10.2H307.197V15H303.597V0.99999ZM308.897 7.39999C309.857 7.39999 310.511 7.25999 310.857 6.97999C311.217 6.68666 311.397 6.25332 311.397 5.67999C311.397 5.10666 311.217 4.67999 310.857 4.39999C310.511 4.10666 309.857 3.95999 308.897 3.95999H307.197V7.39999H308.897ZM325.441 12.32H320.761L319.801 15H316.401L321.501 0.99999H325.101L330.201 15H326.401L325.441 12.32ZM321.781 9.55999H324.421L323.101 5.39999L321.781 9.55999ZM337.41 15.26C336.45 15.26 335.57 15.1333 334.77 14.88C333.97 14.6133 333.283 14.1933 332.71 13.62C332.15 13.0467 331.71 12.3067 331.39 11.4C331.07 10.4933 330.91 9.38666 330.91 8.07999V7.69999C330.91 6.47332 331.076 5.41999 331.41 4.53999C331.743 3.65999 332.203 2.93999 332.79 2.37999C333.376 1.81999 334.063 1.40666 334.85 1.13999C335.65 0.873323 336.503 0.73999 337.41 0.73999C338.223 0.73999 338.983 0.833323 339.69 1.01999C340.41 1.20666 341.036 1.49999 341.57 1.89999C342.116 2.29999 342.556 2.81999 342.89 3.45999C343.236 4.09999 343.443 4.87999 343.51 5.79999H339.79C339.723 5.42666 339.616 5.11332 339.47 4.85999C339.323 4.59332 339.143 4.37999 338.93 4.21999C338.716 4.04666 338.476 3.92666 338.21 3.85999C337.956 3.77999 337.69 3.73999 337.41 3.73999C337.01 3.73999 336.636 3.81332 336.29 3.95999C335.956 4.09332 335.663 4.31999 335.41 4.63999C335.17 4.94666 334.976 5.35332 334.83 5.85999C334.696 6.36666 334.63 6.97999 334.63 7.69999V8.11999C334.63 8.89332 334.703 9.54666 334.85 10.08C335.01 10.6 335.216 11.0267 335.47 11.36C335.723 11.68 336.016 11.9133 336.35 12.06C336.683 12.1933 337.036 12.26 337.41 12.26C338.09 12.26 338.63 12.1 339.03 11.78C339.443 11.4467 339.696 10.92 339.79 10.2H343.51C343.456 11.1333 343.263 11.92 342.93 12.56C342.61 13.2 342.176 13.72 341.63 14.12C341.096 14.52 340.47 14.8133 339.75 15C339.03 15.1733 338.25 15.26 337.41 15.26ZM348.577 3.95999H344.277V0.99999H356.477V3.95999H352.177V15H348.577V3.95999Z"
              fill="white"/>
        <path d="M279.679 537.816C379.267 537.816 459.999 457.084 459.999 357.496C459.999 257.908 379.267 177.176 279.679 177.176C180.091 177.176 99.359 257.908 99.359 357.496C99.359 457.084 180.091 537.816 279.679 537.816Z"
              fill="#031A0B"/>
        <g opacity="0.72">
            <g opacity="0.4" filter="url(#filter0_f_5_1511)">
                <path d="M282.703 458.1C338.114 458.1 383.033 413.181 383.033 357.77C383.033 302.359 338.114 257.44 282.703 257.44C227.292 257.44 182.373 302.359 182.373 357.77C182.373 413.181 227.292 458.1 282.703 458.1Z"
                      fill="#3BD171"/>
            </g>
        </g>
        <path d="M156.191 270.267H395.005V439.127C395.005 440.325 394.192 441.081 393.439 441.081H157.757C157.004 441.081 156.191 440.325 156.191 439.127V270.267Z"
              fill="url(#paint1_linear_5_1511)" fill-opacity="0.11" stroke="url(#paint2_linear_5_1511)"
              stroke-width="1.61293"/>
        <path d="M157.847 263.996H393.439C394.748 263.996 395.811 265.22 395.811 266.728V269.46H155.385V266.832C155.385 265.267 156.488 263.996 157.847 263.996Z"
              fill="url(#paint3_linear_5_1511)"/>
        <path d="M380.916 382.053H242.42L239.402 379.036V300.922C239.402 299.44 240.604 298.238 242.086 298.238H380.916C382.398 298.238 383.6 299.44 383.6 300.922V379.37C383.6 380.852 382.398 382.053 380.916 382.053Z"
              stroke="url(#paint4_linear_5_1511)" stroke-width="1.61293"/>
        <g filter="url(#filter1_d_5_1511)">
            <path d="M288.552 352.214C288.552 354.093 287.03 355.615 285.151 355.615H253.651C251.416 355.615 249.604 353.803 249.604 351.568V344.908V312.747C249.604 310.869 251.126 309.346 253.005 309.346H285.151C287.03 309.346 288.552 310.869 288.552 312.747V352.214Z"
                  fill="#EAEAEA"/>
        </g>
        <path d="M288.552 352.214C288.552 354.093 287.03 355.615 285.151 355.615H253.102C251.17 355.615 249.604 354.049 249.604 352.117V347.62V312.747C249.604 310.869 251.126 309.346 253.005 309.346H285.151C287.03 309.346 288.552 310.869 288.552 312.747V352.214Z"
              fill="#D4E3F8"/>
        <path d="M269.077 334.599C263.848 334.599 259.609 338.578 259.609 343.486V343.532H278.545V343.486C278.545 338.578 274.306 334.599 269.077 334.599Z"
              fill="#3F975F"/>
        <path d="M269.805 331.675C272.24 331.346 273.985 329.283 273.985 326.974V325.669C273.985 323.36 272.24 321.297 269.805 320.968C266.772 320.559 264.17 322.757 264.17 325.525V327.117C264.17 329.886 266.772 332.084 269.805 331.675Z"
              fill="#3F975F"/>
        <path d="M160.272 266.604C160.272 267.215 159.777 267.711 159.165 267.711C158.554 267.711 158.059 267.215 158.059 266.604C158.059 265.993 158.554 265.497 159.165 265.497C159.777 265.497 160.272 265.993 160.272 266.604Z"
              fill="#D4E3F8"/>
        <path d="M166.138 266.604C166.138 267.215 165.642 267.711 165.031 267.711C164.419 267.711 163.924 267.215 163.924 266.604C163.924 265.993 164.419 265.497 165.031 265.497C165.642 265.497 166.138 265.993 166.138 266.604Z"
              fill="#D4E3F8"/>
        <path d="M172.003 266.604C172.003 267.215 171.507 267.711 170.896 267.711C170.285 267.711 169.789 267.215 169.789 266.604C169.789 265.993 170.285 265.497 170.896 265.497C171.507 265.497 172.003 265.993 172.003 266.604Z"
              fill="#D4E3F8"/>
        <path d="M296.961 320.572H327.772" stroke="#3F975F" stroke-width="2.15058" stroke-miterlimit="10"
              stroke-linecap="round"/>
        <path d="M296.961 327.603H338.142" stroke="#3F975F" stroke-width="2.15058" stroke-miterlimit="10"
              stroke-linecap="round"/>
        <path d="M296.961 340.492H360.765" stroke="#3F975F" stroke-width="2.15058" stroke-miterlimit="10"
              stroke-linecap="round"/>
        <path d="M296.961 346.592H360.765" stroke="#3F975F" stroke-width="2.15058" stroke-miterlimit="10"
              stroke-linecap="round"/>
        <path d="M296.961 352.694H329.88" stroke="#3F975F" stroke-width="2.15058" stroke-miterlimit="10"
              stroke-linecap="round"/>
        <path d="M296.961 313.221H311.879" stroke="#3F975F" stroke-width="2.15058" stroke-miterlimit="10"
              stroke-linecap="round"/>
        <path d="M173.919 400.656H257.927C259.072 400.656 260.001 401.585 260.001 402.73V418.712C260.001 419.857 259.071 420.786 257.927 420.786H173.919C172.775 420.786 171.846 419.857 171.846 418.712V402.73C171.846 401.585 172.775 400.656 173.919 400.656Z"
              stroke="url(#paint5_linear_5_1511)" stroke-width="1.07529" stroke-miterlimit="10"/>
        <path d="M173.077 372.674H225.727C226.445 372.674 227.027 373.599 227.027 374.738V390.645C227.027 391.784 226.444 392.709 225.727 392.709H173.077C172.36 392.709 171.777 391.784 171.777 390.645V374.738C171.777 373.599 172.36 372.674 173.077 372.674Z"
              stroke="url(#paint6_linear_5_1511)" stroke-width="1.07529" stroke-miterlimit="10"/>
        <path d="M180.15 410.721H224.74" stroke="#D4E3F8" stroke-width="2.15058" stroke-miterlimit="10"
              stroke-linecap="round"/>
        <path d="M180.277 382.995H208.813" stroke="#D4E3F8" stroke-width="2.15058" stroke-miterlimit="10"
              stroke-linecap="round"/>
        <path d="M246.723 410.72H252.606" stroke="#D4E3F8" stroke-width="2.15058" stroke-miterlimit="10"
              stroke-linecap="round"/>
        <g filter="url(#filter2_d_5_1511)">
            <path d="M224.723 357.508H173.92C173.113 356.702 172.652 356.241 171.846 355.434V300.122C171.846 298.976 172.774 298.048 173.919 298.048H224.723C225.868 298.048 226.797 298.976 226.797 300.122V355.434C226.797 356.58 225.868 357.508 224.723 357.508Z"
                  fill="#EAEAEA"/>
        </g>
        <path d="M173.919 298.048H224.723C225.868 298.048 226.797 298.977 226.797 300.121V355.434C226.797 356.579 225.868 357.508 224.723 357.508H173.919C172.775 357.508 171.846 356.579 171.846 355.434V300.122C171.846 298.977 172.775 298.048 173.919 298.048Z"
              fill="#145E30"/>
        <path d="M331.707 394.529H382.51C383.655 394.529 384.584 395.458 384.584 396.603V451.916C384.584 453.06 383.655 453.99 382.51 453.99H331.707C330.562 453.99 329.633 453.06 329.633 451.916V396.603C329.633 395.459 330.562 394.529 331.707 394.529Z"
              fill="#176633"/>
        <path d="M192.147 337.609C190.921 337.609 189.812 337.434 188.82 337.084C187.846 336.734 187.01 336.198 186.309 335.478C185.608 334.758 185.063 333.853 184.674 332.763C184.304 331.654 184.12 330.35 184.12 328.852V316.883H186.864V328.852C186.864 331.07 187.331 332.676 188.265 333.668C189.199 334.661 190.493 335.157 192.147 335.157C193.802 335.157 195.096 334.661 196.03 333.668C196.964 332.676 197.431 331.07 197.431 328.852V316.883H200.175V328.852C200.175 330.35 199.981 331.654 199.592 332.763C199.222 333.853 198.687 334.758 197.986 335.478C197.285 336.198 196.439 336.734 195.446 337.084C194.473 337.434 193.374 337.609 192.147 337.609ZM206.028 316.883H208.772V337.317H206.028V316.883Z"
              fill="#F7FBFE"/>
        <path d="M188.82 337.084L188.613 337.656L188.617 337.657L188.82 337.084ZM184.674 332.763L184.097 332.956L184.101 332.968L184.674 332.763ZM184.12 316.883V316.274H183.511V316.883H184.12ZM186.864 316.883H187.472V316.274H186.864V316.883ZM197.431 316.883V316.274H196.823V316.883H197.431ZM200.175 316.883H200.784V316.274H200.175V316.883ZM199.592 332.763L199.018 332.562L199.016 332.568L199.592 332.763ZM195.446 337.084L195.244 336.51L195.24 336.512L195.446 337.084ZM192.147 337.001C190.979 337.001 189.94 336.834 189.022 336.51L188.617 337.657C189.684 338.034 190.864 338.217 192.147 338.217V337.001ZM189.026 336.512C188.137 336.192 187.379 335.706 186.745 335.054L185.873 335.902C186.64 336.691 187.555 337.275 188.613 337.656L189.026 336.512ZM186.745 335.054C186.114 334.405 185.611 333.579 185.247 332.559L184.101 332.968C184.516 334.127 185.103 335.111 185.873 335.902L186.745 335.054ZM185.251 332.571C184.907 331.538 184.728 330.302 184.728 328.852H183.511C183.511 330.398 183.702 331.77 184.097 332.956L185.251 332.571ZM184.728 328.852V316.883H183.511V328.852H184.728ZM184.12 317.491H186.864V316.274H184.12V317.491ZM186.255 316.883V328.852H187.472V316.883H186.255ZM186.255 328.852C186.255 331.133 186.732 332.927 187.822 334.085L188.708 333.251C187.929 332.425 187.472 331.007 187.472 328.852H186.255ZM187.822 334.085C188.895 335.225 190.364 335.765 192.147 335.765V334.549C190.622 334.549 189.503 334.096 188.708 333.251L187.822 334.085ZM192.147 335.765C193.931 335.765 195.4 335.225 196.473 334.085L195.587 333.251C194.792 334.096 193.673 334.549 192.147 334.549V335.765ZM196.473 334.085C197.563 332.927 198.039 331.133 198.039 328.852H196.823C196.823 331.007 196.365 332.425 195.587 333.251L196.473 334.085ZM198.039 328.852V316.883H196.823V328.852H198.039ZM197.431 317.491H200.175V316.274H197.431V317.491ZM199.567 316.883V328.852H200.784V316.883H199.567ZM199.567 328.852C199.567 330.299 199.379 331.532 199.018 332.562L200.165 332.965C200.583 331.776 200.784 330.401 200.784 328.852H199.567ZM199.016 332.568C198.671 333.585 198.179 334.408 197.55 335.054L198.422 335.902C199.194 335.109 199.773 334.122 200.167 332.959L199.016 332.568ZM197.55 335.054C196.918 335.704 196.152 336.19 195.244 336.51L195.649 337.657C196.725 337.277 197.653 336.693 198.422 335.902L197.55 335.054ZM195.24 336.512C194.344 336.834 193.316 337.001 192.147 337.001V338.217C193.431 338.217 194.602 338.034 195.652 337.656L195.24 336.512ZM206.028 316.883V316.274H205.419V316.883H206.028ZM208.772 316.883H209.38V316.274H208.772V316.883ZM208.772 337.317V337.926H209.38V337.317H208.772ZM206.028 337.317H205.419V337.926H206.028V337.317ZM206.028 317.491H208.772V316.274H206.028V317.491ZM208.163 316.883V337.317H209.38V316.883H208.163ZM208.772 336.709H206.028V337.926H208.772V336.709ZM206.636 337.317V316.883H205.419V337.317H206.636Z"
              fill="#F4F4F4"/>
        <g filter="url(#filter3_d_5_1511)">
            <path d="M320.42 454.236H269.617C268.81 453.429 268.35 452.968 267.543 452.162V396.849C267.543 395.704 268.471 394.775 269.617 394.775H320.42C321.566 394.775 322.494 395.704 322.494 396.849V452.162C322.494 453.307 321.566 454.236 320.42 454.236Z"
                  fill="#EAEAEA"/>
        </g>
        <path d="M269.617 394.775H320.421C321.565 394.775 322.494 395.704 322.494 396.849V452.162C322.494 453.307 321.565 454.236 320.42 454.236H269.617C268.472 454.236 267.543 453.307 267.543 452.162V396.849C267.543 395.705 268.472 394.775 269.617 394.775Z"
              fill="#D4E3F8"/>
        <path d="M277.643 412.12H294.722" stroke="#3F975F" stroke-width="2.15058" stroke-miterlimit="10"
              stroke-linecap="round"/>
        <path d="M277.643 419.152H300.47" stroke="#3F975F" stroke-width="2.15058" stroke-miterlimit="10"
              stroke-linecap="round"/>
        <path d="M277.643 432.04H313.011" stroke="#3F975F" stroke-width="2.15058" stroke-miterlimit="10"
              stroke-linecap="round"/>
        <path d="M277.643 438.141H313.011" stroke="#3F975F" stroke-width="2.15058" stroke-miterlimit="10"
              stroke-linecap="round"/>
        <path d="M277.643 444.242H295.891" stroke="#3F975F" stroke-width="2.15058" stroke-miterlimit="10"
              stroke-linecap="round"/>
        <path d="M277.643 404.77H285.912" stroke="#3F975F" stroke-width="2.15058" stroke-miterlimit="10"
              stroke-linecap="round"/>
        <path d="M338.133 404.852H373.502" stroke="white" stroke-width="2.15058" stroke-miterlimit="10"
              stroke-linecap="round"/>
        <path d="M338.133 410.952H373.502" stroke="white" stroke-width="2.15058" stroke-miterlimit="10"
              stroke-linecap="round"/>
        <path d="M338.133 417.053H356.381" stroke="white" stroke-width="2.15058" stroke-miterlimit="10"
              stroke-linecap="round"/>
        <path d="M338.133 444.375H373.347" stroke="white" stroke-width="2.15058" stroke-miterlimit="10"
              stroke-linecap="round"/>
        <path d="M350.594 287.716V283.668C350.594 281.199 348.593 279.198 346.125 279.198H201.931C199.103 279.198 196.811 281.491 196.811 284.318V290.529"
              stroke="#3F975F" stroke-width="2.15058" stroke-miterlimit="10" stroke-linecap="round"/>
        <path class="interface-top"
              d="M276.059 236.038C276.743 236.722 277.851 236.722 278.534 236.038L289.671 224.901C290.355 224.218 290.355 223.11 289.671 222.426C288.988 221.743 287.88 221.743 287.196 222.426L277.297 232.326L267.397 222.426C266.714 221.743 265.606 221.743 264.923 222.426C264.239 223.11 264.239 224.218 264.923 224.901L276.059 236.038ZM275.547 158.801V234.801H279.047V158.801H275.547Z"
              fill="#3BD171"/>
        <path class="interface-top"
              d="M278.534 157.563C277.851 156.88 276.743 156.88 276.059 157.563L264.923 168.7C264.239 169.384 264.239 170.492 264.923 171.175C265.606 171.859 266.714 171.859 267.397 171.175L277.297 161.276L287.196 171.175C287.88 171.859 288.988 171.859 289.671 171.175C290.355 170.492 290.355 169.384 289.671 168.7L278.534 157.563ZM279.047 234.801V158.801H275.547V234.801H279.047Z"
              fill="#3BD171"/>
        <path class="interface-man-4"
              d="M382.957 504.05C382.364 504.073 381.901 504.573 381.924 505.166L382.301 514.836C382.324 515.43 382.823 515.892 383.417 515.869C384.01 515.846 384.473 515.346 384.45 514.753L384.115 506.157L392.711 505.823C393.304 505.8 393.767 505.3 393.744 504.706C393.72 504.113 393.221 503.651 392.627 503.674L382.957 504.05ZM422.668 540.357L383.729 504.335L382.269 505.914L421.207 541.936L422.668 540.357Z"
              fill="#3BD171"/>
        <path class="interface-man-2"
              d="M176.981 504.051C177.574 504.074 178.036 504.574 178.013 505.167L177.637 514.837C177.614 515.431 177.114 515.893 176.521 515.87C175.927 515.847 175.465 515.347 175.488 514.754L175.822 506.158L167.227 505.824C166.633 505.8 166.171 505.301 166.194 504.707C166.217 504.114 166.717 503.652 167.31 503.675L176.981 504.051ZM137.27 540.358L176.209 504.336L177.669 505.915L138.73 541.937L137.27 540.358Z"
              fill="#3BD171"/>
        <path class="interface-man-5"
              d="M438.239 421.365C437.819 421.785 437.819 422.465 438.239 422.885L445.082 429.728C445.502 430.148 446.183 430.148 446.603 429.728C447.023 429.309 447.023 428.628 446.603 428.208L440.52 422.125L446.603 416.042C447.023 415.622 447.023 414.941 446.603 414.522C446.183 414.102 445.502 414.102 445.082 414.522L438.239 421.365ZM496.527 421.05H438.999V423.2H496.527V421.05Z"
              fill="#3BD171"/>
        <path class="interface-man-1"
              d="M123.288 421.365C123.708 421.785 123.708 422.465 123.288 422.885L116.445 429.728C116.025 430.148 115.344 430.148 114.924 429.728C114.505 429.309 114.505 428.628 114.924 428.208L121.007 422.125L114.924 416.042C114.505 415.622 114.505 414.941 114.924 414.522C115.344 414.102 116.025 414.102 116.445 414.522L123.288 421.365ZM65 421.05H122.528V423.2H65V421.05Z"
              fill="#3BD171"/>
        <path class="interface-man-3"
              d="M280.76 533.364C280.34 532.944 279.66 532.944 279.24 533.364L272.397 540.207C271.977 540.627 271.977 541.308 272.397 541.728C272.816 542.148 273.497 542.148 273.917 541.728L280 535.645L286.083 541.728C286.503 542.148 287.184 542.148 287.603 541.728C288.023 541.308 288.023 540.627 287.603 540.207L280.76 533.364ZM281.075 591.652V534.124H278.925V591.652H281.075Z"
              fill="#3BD171"/>
    </g>
    <defs>
        <filter id="filter0_f_5_1511" x="74.8442" y="149.911" width="415.718" height="415.718"
                filterUnits="userSpaceOnUse" color-interpolation-filters="sRGB">
            <feFlood flood-opacity="0" result="BackgroundImageFix"/>
            <feBlend mode="normal" in="SourceGraphic" in2="BackgroundImageFix" result="shape"/>
            <feGaussianBlur stdDeviation="53.7644" result="effect1_foregroundBlur_5_1511"/>
        </filter>
        <filter id="filter1_d_5_1511" x="243.69" y="303.432" width="54.002" height="61.3231"
                filterUnits="userSpaceOnUse" color-interpolation-filters="sRGB">
            <feFlood flood-opacity="0" result="BackgroundImageFix"/>
            <feColorMatrix in="SourceAlpha" type="matrix" values="0 0 0 0 0 0 0 0 0 0 0 0 0 0 0 0 0 0 127 0"
                           result="hardAlpha"/>
            <feOffset dx="1.61293" dy="1.61293"/>
            <feGaussianBlur stdDeviation="3.76351"/>
            <feColorMatrix type="matrix" values="0 0 0 0 0 0 0 0 0 0 0 0 0 0 0 0 0 0 0.11 0"/>
            <feBlend mode="normal" in2="BackgroundImageFix" result="effect1_dropShadow_5_1511"/>
            <feBlend mode="normal" in="SourceGraphic" in2="effect1_dropShadow_5_1511" result="shape"/>
        </filter>
        <filter id="filter2_d_5_1511" x="166.47" y="292.672" width="70.005" height="74.514" filterUnits="userSpaceOnUse"
                color-interpolation-filters="sRGB">
            <feFlood flood-opacity="0" result="BackgroundImageFix"/>
            <feColorMatrix in="SourceAlpha" type="matrix" values="0 0 0 0 0 0 0 0 0 0 0 0 0 0 0 0 0 0 127 0"
                           result="hardAlpha"/>
            <feOffset dx="2.15058" dy="2.15058"/>
            <feGaussianBlur stdDeviation="3.76351"/>
            <feColorMatrix type="matrix" values="0 0 0 0 0 0 0 0 0 0 0 0 0 0 0 0 0 0 0.25 0"/>
            <feBlend mode="normal" in2="BackgroundImageFix" result="effect1_dropShadow_5_1511"/>
            <feBlend mode="normal" in="SourceGraphic" in2="effect1_dropShadow_5_1511" result="shape"/>
        </filter>
        <filter id="filter3_d_5_1511" x="262.167" y="389.398" width="70.005" height="74.515"
                filterUnits="userSpaceOnUse" color-interpolation-filters="sRGB">
            <feFlood flood-opacity="0" result="BackgroundImageFix"/>
            <feColorMatrix in="SourceAlpha" type="matrix" values="0 0 0 0 0 0 0 0 0 0 0 0 0 0 0 0 0 0 127 0"
                           result="hardAlpha"/>
            <feOffset dx="2.15058" dy="2.15058"/>
            <feGaussianBlur stdDeviation="3.76351"/>
            <feColorMatrix type="matrix" values="0 0 0 0 0 0 0 0 0 0 0 0 0 0 0 0 0 0 0.25 0"/>
            <feBlend mode="normal" in2="BackgroundImageFix" result="effect1_dropShadow_5_1511"/>
            <feBlend mode="normal" in="SourceGraphic" in2="effect1_dropShadow_5_1511" result="shape"/>
        </filter>
        <linearGradient id="paint0_linear_5_1511" x1="286.202" y1="176.361" x2="259.251" y2="-56.8874"
                        gradientUnits="userSpaceOnUse">
            <stop stop-color="#3F975F"/>
            <stop offset="1" stop-color="#0D3D1E"/>
        </linearGradient>
        <linearGradient id="paint1_linear_5_1511" x1="377.293" y1="227.265" x2="185.134" y2="423.37"
                        gradientUnits="userSpaceOnUse">
            <stop stop-color="#3F975F"/>
            <stop offset="1" stop-color="#0D3D1E"/>
        </linearGradient>
        <linearGradient id="paint2_linear_5_1511" x1="402.824" y1="419.5" x2="389.757" y2="256.781"
                        gradientUnits="userSpaceOnUse">
            <stop stop-color="#3F975F"/>
            <stop offset="1" stop-color="#0D3D1E"/>
        </linearGradient>
        <linearGradient id="paint3_linear_5_1511" x1="402.824" y1="268.751" x2="403.517" y2="263.132"
                        gradientUnits="userSpaceOnUse">
            <stop stop-color="#3F975F"/>
            <stop offset="1" stop-color="#0D3D1E"/>
        </linearGradient>
        <linearGradient id="paint4_linear_5_1511" x1="384.406" y1="370.092" x2="346.466" y2="151.16"
                        gradientUnits="userSpaceOnUse">
            <stop stop-color="#3F975F"/>
            <stop offset="1" stop-color="#0D3D1E"/>
        </linearGradient>
        <linearGradient id="paint5_linear_5_1511" x1="260.001" y1="417.777" x2="257.917" y2="379.039"
                        gradientUnits="userSpaceOnUse">
            <stop stop-color="#3F975F"/>
            <stop offset="1" stop-color="#0D3D1E"/>
        </linearGradient>
        <linearGradient id="paint6_linear_5_1511" x1="227.027" y1="389.715" x2="231.596" y2="356.095"
                        gradientUnits="userSpaceOnUse">
            <stop stop-color="#3F975F"/>
            <stop offset="1" stop-color="#0D3D1E"/>
        </linearGradient>
        <clipPath id="clip0_5_1511">
            <rect width="563" height="668" fill="white"/>
        </clipPath>
    </defs>
</svg>
