<svg width="198" height="198" viewBox="0 0 198 198" fill="none" xmlns="http://www.w3.org/2000/svg">
<path d="M63.1125 45.55H174.488C184.187 45.55 192.05 53.413 192.05 63.1125V174.487C192.05 184.187 184.187 192.05 174.488 192.05H63.1125C53.413 192.05 45.55 184.187 45.55 174.487V63.1125C45.55 53.413 53.413 45.55 63.1125 45.55Z" fill="#22AEFC" stroke="#22AEFC" stroke-width="2"/>
<path class="innovationPlus" d="M44.5872 4.32483L154.27 23.6649C164.094 25.3971 170.654 34.7654 168.922 44.5895L149.582 154.272C147.849 164.097 138.481 170.656 128.657 168.924L18.9741 149.584C9.15003 147.852 2.5903 138.483 4.32255 128.659L23.6626 18.9764C25.3949 9.15231 34.7631 2.59258 44.5872 4.32483Z" fill="#041E2D" stroke="#22AEFC"/>
<path class="innovationPlus" d="M124.26 86.9771L93.793 81.6048L99.1652 51.1373C99.4502 49.5212 99.0815 47.8581 98.1402 46.5139C97.199 45.1696 95.7623 44.2543 94.1462 43.9694C92.5301 43.6844 90.867 44.0531 89.5227 44.9944C88.1785 45.9356 87.2632 47.3723 86.9782 48.9884L81.606 79.4559L51.1385 74.0837C49.5224 73.7987 47.8593 74.1674 46.5151 75.1087C45.1708 76.0499 44.2555 77.4866 43.9706 79.1027C43.6856 80.7188 44.0543 82.3819 44.9956 83.7262C45.9368 85.0704 47.3735 85.9857 48.9896 86.2707L79.4571 91.6429L74.0849 122.11C73.7999 123.727 74.1686 125.39 75.1099 126.734C76.0511 128.078 77.4878 128.993 79.1039 129.278C80.72 129.563 82.3831 129.195 83.7274 128.253C85.0716 127.312 85.9869 125.875 86.2719 124.259L91.6441 93.7918L122.112 99.164C123.728 99.449 125.391 99.0803 126.735 98.1391C128.079 97.1978 128.995 95.7611 129.28 94.145C129.564 92.5289 129.196 90.8658 128.255 89.5216C127.313 88.1773 125.877 87.262 124.26 86.9771Z" fill="#22AEFC"/>
</svg>
