<svg width="80" height="80" viewBox="0 0 80 80" fill="none" xmlns="http://www.w3.org/2000/svg">
    <path class="innovationArrow"
          d="M65.565 39.9335L65.565 39.9335L65.5628 39.9386C65.2443 40.6851 64.5298 41.1473 63.6977 41.1473H56.4727H55.9727V41.6473V74.9223H50.2477H26.0602C25.5215 74.9224 25.0048 74.7091 24.623 74.3291C24.2414 73.9495 24.0256 73.4342 24.0227 72.896V41.6473V41.1473H23.5227H16.2977H16.2875L16.2774 41.1478C15.4424 41.1816 14.7642 40.6616 14.4427 39.9333C14.1211 39.2045 14.1944 38.3529 14.7785 37.7611L14.784 37.7555L14.7893 37.7498L37.5393 13.2123L37.5393 13.2123L37.5429 13.2084C38.809 11.8135 41.1848 11.8087 42.4379 13.2061L42.4378 13.2062L42.4435 13.2123L65.1935 37.7498L65.1946 37.751C65.758 38.3546 65.8971 39.1787 65.565 39.9335Z"
          fill="#041E2D" stroke="#22AEFC"/>
    <path d="M66.2421 61.0844C66.2421 69.4956 59.3971 76.3406 50.9859 76.3406C30.7459 75.5005 30.7531 46.6642 50.9859 45.8281C59.3971 45.8281 66.2421 52.6731 66.2421 61.0844Z"
          fill="#22AEFC"/>
    <path class="innovationPercents"
          d="M56.9315 56.4248L46.3189 67.0375C45.4964 67.844 44.2583 66.6041 45.0719 65.7817L55.6846 55.169C56.5008 54.3554 57.762 55.6077 56.9315 56.4248ZM46.5842 59.7767C42.5027 59.6696 42.5036 53.6921 46.5842 53.5859C50.6656 53.6929 50.6648 59.6705 46.5842 59.7767ZM58.5234 65.5252C58.4164 69.6066 52.4388 69.6057 52.3327 65.5252C52.4397 61.4437 58.4173 61.4446 58.5234 65.5252Z"
          fill="black"/>
</svg>
