<svg xmlns="http://www.w3.org/2000/svg" width="724" height="786" viewBox="0 0 724 786" fill="none">
    <defs>
        <linearGradient id="paint0_linear_1143_18702" x1="422.805" y1="243.926" x2="288.223" y2="506.234"
                        gradientUnits="userSpaceOnUse">
            <stop stop-color="#4A4A4A"/>
            <stop offset="1" stop-color="#0F0E0E"/>
        </linearGradient>
        <linearGradient id="paint1_linear_1143_18702" x1="642.309" y1="496" x2="589.281" y2="658.617"
                        gradientUnits="userSpaceOnUse">
            <stop stop-color="#353333"/>
            <stop offset="1" stop-color="#010101"/>
        </linearGradient>
        <linearGradient id="paint2_linear_1143_18702" x1="606" y1="614" x2="717.117" y2="567.896"
                        gradientUnits="userSpaceOnUse">
            <stop stop-color="white"/>
            <stop offset="1" stop-color="#292727"/>
        </linearGradient>
        <linearGradient id="paint3_linear_1143_18702" x1="81.3086" y1="496" x2="28.2813" y2="658.617"
                        gradientUnits="userSpaceOnUse">
            <stop stop-color="#353333"/>
            <stop offset="1" stop-color="#010101"/>
        </linearGradient>
        <linearGradient id="paint4_linear_1143_18702" x1="43" y1="616" x2="158.684" y2="568.001"
                        gradientUnits="userSpaceOnUse">
            <stop stop-color="white"/>
            <stop offset="1" stop-color="#292727"/>
        </linearGradient>
        <linearGradient id="paint5_linear_1143_18702" x1="642.691" y1="127.266" x2="589.664" y2="289.883"
                        gradientUnits="userSpaceOnUse">
            <stop stop-color="#353333"/>
            <stop offset="1" stop-color="#010101"/>
        </linearGradient>
        <linearGradient id="paint6_linear_1143_18702" x1="609.461" y1="235.562" x2="706.506" y2="187.244"
                        gradientUnits="userSpaceOnUse">
            <stop stop-color="white"/>
            <stop offset="1" stop-color="#292727"/>
        </linearGradient>
        <linearGradient id="paint7_linear_1143_18702" x1="81.3086" y1="127.266" x2="28.2813" y2="289.883"
                        gradientUnits="userSpaceOnUse">
            <stop stop-color="#353333"/>
            <stop offset="1" stop-color="#010101"/>
        </linearGradient>
        <linearGradient id="paint8_linear_1143_18702" x1="53.7344" y1="237.562" x2="139.831" y2="201.839"
                        gradientUnits="userSpaceOnUse">
            <stop stop-color="white"/>
            <stop offset="1" stop-color="#292727"/>
        </linearGradient>
        <linearGradient id="paint9_linear_1143_18702" x1="362.309" y1="9.7632e-05" x2="309.281" y2="162.617"
                        gradientUnits="userSpaceOnUse">
            <stop stop-color="#353333"/>
            <stop offset="1" stop-color="#010101"/>
        </linearGradient>
        <linearGradient id="paint10_linear_1143_18702" x1="317" y1="110" x2="431.036" y2="35.7638"
                        gradientUnits="userSpaceOnUse">
            <stop stop-color="white"/>
            <stop offset="1" stop-color="#292727"/>
        </linearGradient>
        <linearGradient id="paint11_linear_1143_18702" x1="362.707" y1="623.602" x2="309.68" y2="786.219"
                        gradientUnits="userSpaceOnUse">
            <stop stop-color="#353333"/>
            <stop offset="1" stop-color="#010101"/>
        </linearGradient>
        <linearGradient id="paint12_linear_1143_18702" x1="351.648" y1="724.038" x2="387.83" y2="715.691"
                        gradientUnits="userSpaceOnUse">
            <stop stop-color="white"/>
            <stop offset="1" stop-color="#292727"/>
        </linearGradient>
        <linearGradient id="paint13_linear_1143_18702" x1="333.719" y1="732.484" x2="420.174" y2="695.06"
                        gradientUnits="userSpaceOnUse">
            <stop stop-color="white"/>
            <stop offset="1" stop-color="#292727"/>
        </linearGradient>
        <clipPath id="clip0_1143_18702">
            <rect width="724" height="786" fill="white"/>
        </clipPath>
    </defs>
    <g clip-path="url(#clip0_1143_18702)">
        <path fill-rule="evenodd" clip-rule="evenodd"
              d="M362 69.0297L81.3389 231.07V555.149L362 717.189L642.661 555.149V231.07L362 69.0297ZM643.661 230.492L362 67.875L80.3389 230.492V555.727L362 718.344L643.661 555.727V230.492Z"
              fill="#5A5A5A"/>
        <path fill-rule="evenodd" clip-rule="evenodd"
              d="M643.512 555.552L81.0576 230.217L81.5583 229.352L644.013 554.686L643.512 555.552Z" fill="#5A5A5A"/>
        <path fill-rule="evenodd" clip-rule="evenodd"
              d="M361.5 719.758L361.5 67.875L362.5 67.875L362.5 719.758L361.5 719.758Z" fill="#5A5A5A"/>
        <path fill-rule="evenodd" clip-rule="evenodd"
              d="M81.558 555.552L644.013 230.217L643.512 229.352L81.0573 554.686L81.558 555.552Z" fill="#5A5A5A"/>
        <path class="philosophy-icon-container"
              d="M360 281.139C361.238 280.425 362.762 280.425 364 281.139L457.969 335.392C459.207 336.107 459.969 337.427 459.969 338.856V447.363C459.969 448.792 459.207 450.112 457.969 450.827L364 505.08C362.762 505.794 361.238 505.794 360 505.08L266.031 450.827C264.793 450.112 264.031 448.792 264.031 447.363V338.856C264.031 337.427 264.793 336.107 266.031 335.392L360 281.139Z"
              fill="url(#paint0_linear_1143_18702)"/>
        <path fill-rule="evenodd" clip-rule="evenodd"
              d="M456.969 337.124L363 282.871C362.381 282.514 361.619 282.514 361 282.871L267.031 337.124C266.412 337.482 266.031 338.142 266.031 338.856V447.363C266.031 448.077 266.412 448.737 267.031 449.095L361 503.348C361.619 503.705 362.381 503.705 363 503.348L456.969 449.095C457.588 448.737 457.969 448.077 457.969 447.363V338.856C457.969 338.142 457.588 337.482 456.969 337.124ZM364 281.139C362.762 280.425 361.238 280.425 360 281.139L266.031 335.392C264.793 336.107 264.031 337.427 264.031 338.856V447.363C264.031 448.792 264.793 450.112 266.031 450.827L360 505.08C361.238 505.794 362.762 505.794 364 505.08L457.969 450.827C459.207 450.112 459.969 448.792 459.969 447.363V338.856C459.969 337.427 459.207 336.107 457.969 335.392L364 281.139Z"
              fill="#5A5A5A"/>
        <path class="philosophy-dex-logo" fill-rule="evenodd" clip-rule="evenodd"
              d="M424.338 388.51C424.333 388.479 424.325 388.447 424.316 388.413L424.31 388.386C424.304 388.371 424.3 388.357 424.295 388.343C424.291 388.329 424.287 388.315 424.281 388.301C424.281 388.301 424.28 388.294 424.277 388.286C424.275 388.28 424.273 388.272 424.27 388.267C424.203 388.069 424.09 387.848 423.921 387.655C423.921 387.655 423.916 387.644 423.91 387.644C423.82 387.542 423.713 387.452 423.589 387.384C423.577 387.372 423.562 387.362 423.548 387.354C423.543 387.35 423.538 387.347 423.533 387.344L405.217 376.71L380.154 362.16L379.732 361.917L379.592 361.832L336.547 336.94H336.536C336.496 336.917 336.192 336.781 335.922 336.742C335.793 336.725 335.669 336.719 335.669 336.719H335.506C335.279 336.734 334.912 336.973 334.829 337.026C334.821 337.031 334.814 337.036 334.814 337.036C333.745 337.655 332.676 338.276 331.607 338.898C330.538 339.519 329.468 340.14 328.399 340.76C328.387 340.769 328.374 340.779 328.361 340.789C328.342 340.802 328.323 340.817 328.303 340.833C328.275 340.856 328.253 340.878 328.225 340.907C328.202 340.924 328.18 340.941 328.163 340.969C328.146 340.986 328.129 341.009 328.112 341.031C328.005 341.15 327.932 341.28 327.876 341.399C327.853 341.439 327.843 341.673 327.832 341.713C327.798 341.821 328.079 342.133 328.063 342.207C328.057 342.241 327.748 342.064 327.742 342.103L327.035 443.139H327.041C327.03 443.824 327.21 444.26 327.665 444.616C327.69 444.633 327.715 444.651 327.741 444.668C327.784 444.698 327.828 444.729 327.874 444.758L334.435 448.566L334.452 448.578C334.485 448.595 334.519 448.606 334.553 448.617C334.56 448.625 334.57 448.627 334.578 448.63C334.583 448.631 334.588 448.632 334.592 448.634C334.612 448.64 334.633 448.646 334.654 448.651C334.675 448.657 334.696 448.663 334.716 448.668C334.73 448.674 334.744 448.678 334.758 448.682C334.772 448.687 334.786 448.691 334.8 448.697C334.814 448.697 334.827 448.699 334.841 448.702C334.857 448.705 334.873 448.708 334.89 448.708C334.919 448.714 334.947 448.714 334.975 448.714L334.997 448.714C334.997 448.714 335.048 448.725 335.076 448.725C335.122 448.725 335.172 448.721 335.219 448.714H335.251C335.251 448.714 335.256 448.708 335.262 448.708C335.267 448.708 335.267 448.708 335.273 448.702C335.29 448.702 335.307 448.702 335.324 448.691C335.352 448.685 335.38 448.68 335.408 448.668C335.448 448.668 335.487 448.651 335.526 448.634C335.566 448.623 335.605 448.606 335.645 448.589C335.718 448.555 335.791 448.515 335.864 448.476L354.321 437.769L423.595 397.588C424.231 397.18 424.36 396.631 424.36 395.924V388.669C424.355 388.612 424.349 388.555 424.338 388.51ZM342.673 358.544V376.173L357.051 367.66L342.673 358.544ZM343.617 393.113L371.522 408.742V376.173L343.617 393.113ZM342.657 427.757V410.132L357.758 419.273L342.657 427.757ZM387.132 401.994L401.594 393.113L387.132 384.367V401.994Z"
              fill="#3BD171"/>
        <path class="philosophy-dex-logo" fill-rule="evenodd" clip-rule="evenodd"
              d="M424.712 387.504C424.887 387.575 425.167 387.891 425.167 387.891C425.467 388.242 425.672 388.67 425.762 389.122V396.611C425.762 397.385 425.657 398.264 424.678 398.897L336.939 449.776C336.834 449.847 336.764 449.881 336.659 449.917C336.642 449.934 336.589 449.952 336.537 449.969C336.484 449.987 336.432 450.005 336.414 450.022H336.239H336.204C336.1 450.093 335.924 450.093 335.819 450.093C335.726 450.093 335.648 450.077 335.596 450.066C335.571 450.061 335.551 450.057 335.539 450.057C335.482 450.057 335.424 450.047 335.372 450.037C335.329 450.029 335.291 450.022 335.259 450.022H335.12L335.049 449.987C335.015 449.987 335.015 449.952 334.98 449.952C334.945 449.952 334.839 449.917 334.839 449.917C334.804 449.881 334.7 449.811 334.7 449.811L328.225 446.049L328.05 445.943C327.35 445.416 327.07 444.783 327.07 443.939C327.07 443.904 327.035 443.834 327.035 443.834V342.111C327.035 342.075 327.07 341.899 327.07 341.899C327.105 341.724 327.14 341.618 327.175 341.477C327.175 341.442 327.28 341.267 327.28 341.232C327.315 341.161 327.42 340.95 327.595 340.739L327.805 340.528C327.805 340.528 327.815 340.518 327.834 340.504C327.851 340.491 327.877 340.474 327.91 340.458L328.085 340.352L334.455 336.66C334.49 336.625 334.56 336.625 334.594 336.59C334.657 336.542 334.77 336.466 334.906 336.397C335.074 336.313 335.277 336.238 335.469 336.238H335.679H336.029C336.31 336.274 336.624 336.379 336.799 336.45C336.834 336.484 336.904 336.52 336.904 336.52L424.642 387.434L424.712 387.504ZM388.56 408.601L422.893 388.7L380.301 363.981L374.526 367.357L410.679 388.348C410.838 388.44 410.939 388.562 410.989 388.704C411.016 388.779 411.029 388.861 411.029 388.946C411.029 389.134 410.982 389.291 410.877 389.416C410.826 389.478 410.76 389.532 410.679 389.579L388.56 402.413V408.601ZM388.56 386.309V400.128L400.494 393.2L388.56 386.309ZM335.329 338.418C335.294 338.418 335.259 338.454 335.259 338.454L330.01 341.513L366.162 362.504C366.266 362.556 366.352 362.642 366.413 362.746C366.476 362.853 366.512 362.977 366.512 363.102C366.512 363.348 366.372 363.594 366.162 363.7L344.079 376.569V382.757L378.341 362.856L335.924 338.242L335.714 338.208C335.645 338.242 335.504 338.313 335.329 338.418ZM344.079 360.465V374.249L355.943 367.357L344.079 360.465ZM363.292 363.102L329.03 343.2V392.533L334.804 395.908V353.995C334.804 353.749 334.945 353.538 335.155 353.397C335.365 353.257 335.645 353.257 335.855 353.397L357.973 366.232L363.292 363.102ZM335.155 404.98C335.365 404.874 335.645 404.874 335.855 404.98L357.938 417.814L363.292 414.72L329.03 394.783V443.834C328.995 444.22 329.03 444.256 329.24 444.361L334.735 447.561L334.804 405.613C334.804 405.367 334.945 405.12 335.155 404.98ZM344.079 425.831L355.978 418.939L344.079 412.048V425.831ZM336.694 447.701L379.286 422.948V416.232L343.099 437.223C342.889 437.364 342.644 437.364 342.399 437.223C342.189 437.083 342.049 436.872 342.049 436.626L342.119 410.922L336.764 407.793L336.694 447.701ZM379.286 379.839C379.286 379.593 379.426 379.347 379.636 379.241C379.846 379.101 380.126 379.101 380.336 379.241L388.21 383.777C388.28 383.813 388.385 383.883 388.385 383.883L402.454 392.075L407.809 388.946L372.567 368.482L343.169 385.571C342.959 385.676 342.679 385.676 342.469 385.571C342.259 385.43 342.119 385.219 342.119 384.938V359.305L336.764 356.211V397.033L366.162 414.087C366.372 414.192 366.512 414.438 366.512 414.685C366.512 414.8 366.481 414.916 366.427 415.02C366.365 415.138 366.273 415.243 366.162 415.317L358.323 419.889L344.044 428.152V434.411L379.286 413.946V379.839ZM423.662 397.209C423.768 397.139 423.803 397.069 423.803 396.611V390.458L387.65 411.379C387.44 411.52 387.195 411.52 386.95 411.379C386.74 411.274 386.601 411.028 386.601 410.781V385.113L381.246 382.019V421.822L423.662 397.209ZM372.461 375.268C372.671 375.127 372.952 375.127 373.161 375.268C373.371 375.408 373.512 375.62 373.512 375.865V410.43C373.512 410.676 373.371 410.922 373.161 411.027C373.057 411.098 372.916 411.133 372.812 411.133C372.671 411.133 372.461 411.027 372.461 411.027L342.714 393.763C342.504 393.658 342.364 393.411 342.364 393.2V393.13C342.364 392.884 342.504 392.673 342.714 392.532L372.461 375.268ZM371.552 378.081L345.584 393.165L371.552 408.215V378.081Z"
              fill="#161815"/>
        <path class="philosophy-icon-container"
              d="M640.309 497.155C641.546 496.44 643.071 496.44 644.309 497.155L710.724 535.5C711.962 536.214 712.724 537.535 712.724 538.964V615.654C712.724 617.083 711.962 618.403 710.724 619.118L644.309 657.463C643.071 658.177 641.546 658.177 640.309 657.463L573.893 619.118C572.656 618.403 571.893 617.083 571.893 615.654V538.964C571.893 537.535 572.656 536.214 573.893 535.5L640.309 497.155Z"
              fill="url(#paint1_linear_1143_18702)"/>
        <path fill-rule="evenodd" clip-rule="evenodd"
              d="M709.724 537.232L643.309 498.887C642.69 498.53 641.927 498.53 641.309 498.887L574.893 537.232C574.275 537.589 573.893 538.249 573.893 538.964V615.654C573.893 616.368 574.275 617.028 574.893 617.386L641.309 655.731C641.927 656.088 642.69 656.088 643.309 655.731L709.724 617.386C710.343 617.028 710.724 616.368 710.724 615.654V538.964C710.724 538.249 710.343 537.589 709.724 537.232ZM644.309 497.155C643.071 496.44 641.546 496.44 640.309 497.155L573.893 535.5C572.656 536.214 571.893 537.535 571.893 538.964V615.654C571.893 617.083 572.656 618.403 573.893 619.118L640.309 657.463C641.546 658.177 643.071 658.177 644.309 657.463L710.724 619.118C711.962 618.403 712.724 617.083 712.724 615.654V538.964C712.724 537.535 711.962 536.214 710.724 535.5L644.309 497.155Z"
              fill="#5A5A5A"/>
        <path class="philosophy-search-icon" fill-rule="evenodd" clip-rule="evenodd"
              d="M675.107 552.133C675.654 551.098 675.958 549.882 675.958 548.604C675.958 544.407 672.552 541 668.354 541C664.157 541 660.75 544.407 660.75 548.604C660.75 552.802 664.157 556.209 668.354 556.209C669.632 556.209 670.848 555.904 671.882 555.357L675.107 558.581C675.551 559.028 676.135 559.25 676.719 559.25C677.303 559.25 677.887 559.028 678.331 558.581C679.222 557.69 679.222 556.245 678.331 555.354L675.107 552.133ZM665.312 548.604C665.312 546.931 666.681 545.563 668.354 545.563C670.027 545.563 671.396 546.931 671.396 548.604C671.396 550.277 670.027 551.646 668.354 551.646C666.681 551.646 665.312 550.277 665.312 548.604ZM611.323 559.25H649.344C652.264 559.25 654.667 556.847 654.667 553.927V546.323C654.667 543.403 652.264 541 649.344 541H611.323C608.403 541 606 543.403 606 546.323V553.927C606 556.847 608.403 559.25 611.323 559.25ZM673.677 565.333H635.656C632.736 565.333 630.333 567.736 630.333 570.656V608.677C630.333 611.597 632.736 614 635.656 614H673.677C676.597 614 679 611.597 679 608.677V570.656C679 567.736 676.597 565.333 673.677 565.333ZM654.667 577.5C657.191 577.5 659.229 579.538 659.229 582.063C659.229 584.587 657.191 586.625 654.667 586.625C652.142 586.625 650.104 584.587 650.104 582.063C650.104 579.538 652.142 577.5 654.667 577.5ZM663.792 596.511C663.792 597.758 662.757 598.792 661.51 598.792H647.823C646.576 598.792 645.542 597.758 645.542 596.511V595.385C645.542 592.222 648.401 589.667 651.929 589.667H657.404C660.932 589.667 663.792 592.222 663.792 595.385V596.511ZM615.125 612.478C620.165 612.478 624.25 608.393 624.25 603.353C624.25 598.314 620.165 594.228 615.125 594.228C610.085 594.228 606 598.314 606 603.353C606 608.393 610.085 612.478 615.125 612.478ZM621.969 579.02H608.281C607.022 579.02 606 577.998 606 576.739C606 575.48 607.022 574.458 608.281 574.458H621.969C623.228 574.458 624.25 575.48 624.25 576.739C624.25 577.998 623.228 579.02 621.969 579.02ZM621.969 588.145H608.281C607.022 588.145 606 587.123 606 585.864C606 584.605 607.022 583.583 608.281 583.583H621.969C623.228 583.583 624.25 584.605 624.25 585.864C624.25 587.123 623.228 588.145 621.969 588.145ZM621.969 569.895H608.281C607.022 569.895 606 568.873 606 567.614C606 566.355 607.022 565.333 608.281 565.333H621.969C623.228 565.333 624.25 566.355 624.25 567.614C624.25 568.873 623.228 569.895 621.969 569.895Z"
              fill="url(#paint2_linear_1143_18702)"/>
        <path class="philosophy-icon-container"
              d="M79.3086 497.155C80.5462 496.44 82.071 496.44 83.3086 497.155L149.724 535.5C150.962 536.214 151.724 537.535 151.724 538.964V615.654C151.724 617.083 150.962 618.403 149.724 619.118L83.3086 657.463C82.071 658.177 80.5462 658.177 79.3086 657.463L12.8933 619.118C11.6557 618.403 10.8933 617.083 10.8933 615.654V538.964C10.8933 537.535 11.6557 536.214 12.8933 535.5L79.3086 497.155Z"
              fill="url(#paint3_linear_1143_18702)"/>
        <path fill-rule="evenodd" clip-rule="evenodd"
              d="M148.724 537.232L82.3086 498.887C81.6898 498.53 80.9274 498.53 80.3086 498.887L13.8933 537.232C13.2745 537.589 12.8933 538.249 12.8933 538.964V615.654C12.8933 616.368 13.2745 617.028 13.8933 617.386L80.3086 655.731C80.9274 656.088 81.6898 656.088 82.3086 655.731L148.724 617.386C149.343 617.028 149.724 616.368 149.724 615.654V538.964C149.724 538.249 149.343 537.589 148.724 537.232ZM83.3086 497.155C82.071 496.44 80.5462 496.44 79.3086 497.155L12.8933 535.5C11.6557 536.214 10.8933 537.535 10.8933 538.964V615.654C10.8933 617.083 11.6557 618.403 12.8933 619.118L79.3086 657.463C80.5462 658.177 82.071 658.177 83.3086 657.463L149.724 619.118C150.962 618.403 151.724 617.083 151.724 615.654V538.964C151.724 537.535 150.962 536.214 149.724 535.5L83.3086 497.155Z"
              fill="#5A5A5A"/>
        <path class="philosophy-parts-icon" fill-rule="evenodd" clip-rule="evenodd"
              d="M107.669 540C106.768 540 106.036 540.731 106.036 541.633V544.85H97.9714C97.0696 544.85 96.3386 545.581 96.3386 546.483V560.353L89.9063 566.785V563.466L89.9048 563.382C89.8866 562.956 89.7048 562.572 89.4205 562.291L74.8886 547.759C74.5926 547.459 74.1813 547.274 73.7266 547.274H73.7263H73.7262H44.6328C43.731 547.274 43 548.005 43 548.906V607.094C43 607.996 43.731 608.727 44.6328 608.727H88.2735C89.1753 608.727 89.9063 607.996 89.9063 607.094V589.216L96.3386 595.649V609.519C96.3386 610.421 97.0696 611.152 97.9714 611.152H106.036V614.367C106.036 615.269 106.768 616 107.669 616H117.367C118.269 616 119 615.269 119 614.367V604.669C119 603.768 118.269 603.037 117.367 603.037H107.669C106.768 603.037 106.036 603.768 106.036 604.669V607.886H99.6042V594.972C99.6042 594.539 99.4322 594.124 99.126 593.818L89.9063 584.598V579.634H106.036V582.849C106.036 583.751 106.768 584.482 107.669 584.482H117.367C118.269 584.482 119 583.751 119 582.849V573.151C119 572.249 118.269 571.518 117.367 571.518H107.669C106.768 571.518 106.036 572.249 106.036 573.151V576.368H89.9063V571.404L99.126 562.184C99.4322 561.878 99.6042 561.463 99.6042 561.03V548.116H106.036V551.331C106.036 552.233 106.768 552.964 107.669 552.964H117.367C118.269 552.964 119 552.233 119 551.331V541.633C119 540.731 118.269 540 117.367 540H107.669ZM109.302 546.483L109.302 546.506V549.698H115.734V543.266H109.302V546.459L109.302 546.483ZM109.302 612.734V609.542L109.302 609.519L109.302 609.496V606.302H115.734V612.734H109.302ZM109.302 581.216V578.024L109.302 578.001L109.302 577.978V574.784H115.734V581.216H109.302ZM86.6407 565.086V578.001V605.461H46.2656V550.539H72.0938V563.453V563.453C72.0938 563.67 72.1359 563.876 72.2124 564.065C72.4545 564.664 73.0413 565.086 73.7266 565.086H86.6407ZM54.3306 556.971C53.4288 556.971 52.6977 557.702 52.6977 558.604C52.6977 559.506 53.4288 560.237 54.3306 560.237H61.604C62.5058 560.237 63.2368 559.506 63.2368 558.604C63.2368 557.702 62.5058 556.971 61.604 556.971H54.3306ZM75.3594 552.848L84.3315 561.82H75.3594V552.848ZM65.6369 569.313C66.1421 569.021 66.7645 569.021 67.2697 569.313L76.9676 574.912C77.4728 575.203 77.784 575.742 77.784 576.326V587.524C77.784 588.107 77.4728 588.646 76.9676 588.938L67.2943 594.523C67.0487 594.671 66.7609 594.756 66.4533 594.756C66.1457 594.756 65.858 594.671 65.6123 594.523L55.939 588.938C55.4338 588.646 55.1226 588.107 55.1226 587.524V576.326C55.1226 575.742 55.4338 575.203 55.939 574.912L65.6369 569.313ZM66.4533 572.612L72.8856 576.326L66.4533 580.039L60.0211 576.326L66.4533 572.612ZM58.3883 586.581V579.154L64.8205 582.868V590.295L58.3883 586.581ZM68.0861 582.868V590.295L74.5184 586.581V579.154L68.0861 582.868Z"
              fill="url(#paint4_linear_1143_18702)"/>
        <path class="philosophy-icon-container"
              d="M640.691 128.42C641.929 127.706 643.454 127.706 644.691 128.42L711.107 166.765C712.344 167.48 713.107 168.8 713.107 170.229V246.919C713.107 248.348 712.344 249.669 711.107 250.383L644.691 288.728C643.454 289.443 641.929 289.443 640.691 288.728L574.276 250.383C573.039 249.669 572.276 248.348 572.276 246.919V170.229C572.276 168.8 573.039 167.48 574.276 166.765L640.691 128.42Z"
              fill="url(#paint5_linear_1143_18702)"/>
        <path fill-rule="evenodd" clip-rule="evenodd"
              d="M710.107 168.497L643.691 130.152C643.073 129.795 642.31 129.795 641.691 130.152L575.276 168.497C574.657 168.855 574.276 169.515 574.276 170.229V246.919C574.276 247.634 574.657 248.294 575.276 248.651L641.691 286.996C642.31 287.353 643.073 287.353 643.691 286.996L710.107 248.651C710.726 248.294 711.107 247.634 711.107 246.919V170.229C711.107 169.515 710.726 168.855 710.107 168.497ZM644.691 128.42C643.454 127.706 641.929 127.706 640.691 128.42L574.276 166.765C573.039 167.48 572.276 168.8 572.276 170.229V246.919C572.276 248.348 573.039 249.669 574.276 250.383L640.691 288.728C641.929 289.443 643.454 289.443 644.691 288.728L711.107 250.383C712.344 249.669 713.107 248.348 713.107 246.919V170.229C713.107 168.8 712.344 167.48 711.107 166.765L644.691 128.42Z"
              fill="#5A5A5A"/>
        <path class="philosophy-dao-icon"
              d="M644.209 210.881H663.935C664.356 210.881 664.555 210.881 664.585 210.341C664.746 208.375 664.746 206.397 664.585 204.428C664.585 204.046 664.391 203.888 663.968 203.888H624.709C624.223 203.888 624.092 204.046 624.092 204.493V210.151C624.092 210.881 624.092 210.881 624.87 210.881H644.209ZM662.382 197.275C662.438 197.131 662.438 196.973 662.382 196.831C662.053 196.129 661.662 195.458 661.209 194.828C660.527 193.753 659.723 192.761 658.808 191.871C658.375 191.333 657.875 190.85 657.315 190.44C654.507 188.099 651.168 186.442 647.58 185.608C645.77 185.21 643.919 185.02 642.064 185.036H624.641C624.155 185.036 624.09 185.226 624.09 185.64V196.925C624.09 197.401 624.09 197.529 624.707 197.529H662.148C662.148 197.529 662.473 197.465 662.538 197.275H662.38H662.382ZM662.382 217.494C661.831 217.434 661.275 217.434 660.723 217.494H624.742C624.256 217.494 624.092 217.494 624.092 218.13V229.163C624.092 229.671 624.092 229.8 624.742 229.8H641.354C642.148 229.859 642.943 229.804 643.721 229.642C646.132 229.472 648.503 228.96 650.764 228.115C651.587 227.836 652.381 227.472 653.131 227.035H653.357C657.252 225.05 660.415 221.932 662.41 218.105C662.41 218.105 662.637 217.624 662.382 217.499V217.494ZM617.572 235.52V235.33V227.923V225.412V217.94C617.572 217.526 617.572 217.464 617.053 217.464H610.012C609.622 217.464 609.461 217.464 609.461 216.956V210.915H616.988C617.409 210.915 617.572 210.915 617.572 210.375V204.399C617.572 204.016 617.572 203.923 617.053 203.923H610.012C609.622 203.923 609.461 203.923 609.461 203.414V197.82C609.461 197.47 609.461 197.376 609.98 197.376H616.955C617.441 197.376 617.572 197.376 617.572 196.772V179.636C617.572 179.128 617.572 179 618.222 179H642.555C644.321 179.069 646.076 179.259 647.811 179.572C651.388 180.22 654.824 181.472 657.967 183.26C660.05 184.462 661.968 185.913 663.676 187.584C664.961 188.891 666.12 190.305 667.148 191.811C668.169 193.338 669.017 194.97 669.682 196.676C669.764 197.12 670.199 197.42 670.652 197.344H676.46C677.205 197.344 677.205 197.344 677.238 198.044V203.259C677.238 203.767 677.044 203.895 676.523 203.895H672.044C671.591 203.895 671.46 203.895 671.493 204.467C671.67 206.404 671.67 208.347 671.493 210.284C671.493 210.824 671.493 210.888 672.112 210.888H677.235C677.462 211.174 677.235 211.46 677.235 211.749C677.268 212.117 677.268 212.49 677.235 212.859V216.707C677.235 217.247 677.074 217.407 676.586 217.407H670.453C670.026 217.327 669.61 217.595 669.512 218.011C668.052 221.731 665.716 225.066 662.697 227.74C661.595 228.712 660.436 229.628 659.226 230.473C657.927 231.205 656.663 231.967 655.331 232.572C652.881 233.652 650.311 234.449 647.673 234.954C645.169 235.394 642.63 235.593 640.081 235.559H617.563V235.527L617.572 235.52Z"
              fill="url(#paint6_linear_1143_18702)"/>
        <path class="philosophy-icon-container"
              d="M79.3086 128.42C80.5462 127.706 82.071 127.706 83.3086 128.42L149.724 166.765C150.962 167.48 151.724 168.8 151.724 170.229V246.919C151.724 248.348 150.962 249.669 149.724 250.383L83.3086 288.728C82.071 289.443 80.5462 289.443 79.3086 288.728L12.8933 250.383C11.6557 249.669 10.8933 248.348 10.8933 246.919V170.229C10.8933 168.8 11.6557 167.48 12.8933 166.765L79.3086 128.42Z"
              fill="url(#paint7_linear_1143_18702)"/>
        <path fill-rule="evenodd" clip-rule="evenodd"
              d="M148.724 168.497L82.3086 130.152C81.6898 129.795 80.9274 129.795 80.3086 130.152L13.8933 168.497C13.2745 168.855 12.8933 169.515 12.8933 170.229V246.919C12.8933 247.634 13.2745 248.294 13.8933 248.651L80.3086 286.996C80.9274 287.353 81.6898 287.353 82.3086 286.996L148.724 248.651C149.343 248.294 149.724 247.634 149.724 246.919V170.229C149.724 169.515 149.343 168.855 148.724 168.497ZM83.3086 128.42C82.071 127.706 80.5462 127.706 79.3086 128.42L12.8933 166.765C11.6557 167.48 10.8933 168.8 10.8933 170.229V246.919C10.8933 248.348 11.6557 249.669 12.8933 250.383L79.3086 288.728C80.5462 289.443 82.071 289.443 83.3086 288.728L149.724 250.383C150.962 249.669 151.724 248.348 151.724 246.919V170.229C151.724 168.8 150.962 167.48 149.724 166.765L83.3086 128.42Z"
              fill="#5A5A5A"/>
        <path class="philosophy-tether-icon" fill-rule="evenodd" clip-rule="evenodd"
              d="M87.7699 211.405C87.4485 211.431 85.788 211.539 82.0839 211.539C79.1378 211.539 77.0461 211.443 76.3122 211.405C64.9269 210.862 56.4287 208.71 56.4287 206.134C56.4287 203.558 64.9269 201.409 76.3122 200.856V209.262C77.0568 209.32 79.1887 209.457 82.1348 209.457C85.6701 209.457 87.4405 209.297 87.7592 209.265V200.862C99.1204 201.412 107.6 203.563 107.6 206.134C107.6 208.704 99.1231 210.856 87.7592 211.402L87.7699 211.405ZM87.7699 199.993V192.471H103.625V181H60.4568V192.471H76.3096V199.99C63.4244 200.632 53.7344 203.403 53.7344 206.724C53.7344 210.045 63.4244 212.813 76.3096 213.458V237.562H87.7672V213.449C100.623 212.807 110.297 210.039 110.297 206.721C110.297 203.403 100.631 200.635 87.7672 199.99L87.7699 199.993Z"
              fill="url(#paint8_linear_1143_18702)"/>
        <path class="philosophy-icon-container"
              d="M360.308 1.1548C361.546 0.440264 363.071 0.440264 364.308 1.15479L430.724 39.4997C431.961 40.2142 432.724 41.5347 432.724 42.9638V119.654C432.724 121.083 431.961 122.403 430.724 123.118L364.308 161.463C363.071 162.177 361.546 162.177 360.308 161.463L293.893 123.118C292.656 122.403 291.893 121.083 291.893 119.654V42.9638C291.893 41.5347 292.656 40.2142 293.893 39.4997L360.308 1.1548Z"
              fill="url(#paint9_linear_1143_18702)"/>
        <path fill-rule="evenodd" clip-rule="evenodd"
              d="M429.724 41.2317L363.308 2.88685C362.69 2.52958 361.927 2.52958 361.308 2.88685L294.893 41.2317C294.274 41.589 293.893 42.2493 293.893 42.9638V119.654C293.893 120.368 294.274 121.028 294.893 121.386L361.308 159.731C361.927 160.088 362.69 160.088 363.308 159.731L429.724 121.386C430.343 121.028 430.724 120.368 430.724 119.654V42.9638C430.724 42.2493 430.343 41.589 429.724 41.2317ZM364.308 1.15479C363.071 0.440264 361.546 0.440264 360.308 1.1548L293.893 39.4997C292.656 40.2142 291.893 41.5347 291.893 42.9638V119.654C291.893 121.083 292.656 122.403 293.893 123.118L360.308 161.463C361.546 162.177 363.071 162.177 364.308 161.463L430.724 123.118C431.961 122.403 432.724 121.083 432.724 119.654V42.9638C432.724 41.5347 431.961 40.2142 430.724 39.4997L364.308 1.15479Z"
              fill="#5A5A5A"/>
        <path class="philosophy-eth-icon" fill-rule="evenodd" clip-rule="evenodd"
              d="M317 81.8394L334.871 52L352.742 81.8394L334.871 92.4829L317 81.8394ZM396.625 58.5172H373.228C371.628 58.5172 370.33 59.8435 370.33 61.4796C370.33 63.1156 371.628 64.4419 373.228 64.4419H396.625C398.225 64.4419 399.523 63.1156 399.523 61.4796C399.523 59.8435 398.225 58.5172 396.625 58.5172ZM367.433 61.4796C367.429 60.6952 367.122 59.9442 366.578 59.3911C365.448 58.2426 363.622 58.2426 362.492 59.3911C361.948 59.9441 361.641 60.6952 361.637 61.4796C361.616 61.6715 361.616 61.8653 361.637 62.0573C361.67 62.2503 361.724 62.439 361.797 62.6201C361.875 62.7956 361.967 62.964 362.072 63.1237C362.176 63.2898 362.298 63.4437 362.434 63.5829C362.566 63.7171 362.712 63.8363 362.869 63.9383C363.022 64.052 363.187 64.1464 363.362 64.2198C363.554 64.3216 363.758 64.3964 363.97 64.4419C364.158 64.4634 364.347 64.4634 364.535 64.4419C365.3 64.4426 366.035 64.1338 366.578 63.5829C366.715 63.4437 366.836 63.2898 366.94 63.1237C367.046 62.964 367.138 62.7956 367.215 62.6201C367.308 62.4412 367.381 62.2525 367.433 62.0573C367.454 61.8653 367.454 61.6715 367.433 61.4796ZM373.228 70.8992H402.205C403.805 70.8992 405.102 72.2255 405.102 73.8616C405.102 75.4976 403.805 76.8239 402.205 76.8239H373.228C371.628 76.8239 370.33 75.4976 370.33 73.8616C370.33 72.2255 371.628 70.8992 373.228 70.8992ZM366.578 71.7731C367.122 72.3261 367.429 73.0772 367.433 73.8616C367.454 74.0535 367.454 74.2473 367.433 74.4392C367.381 74.6344 367.308 74.8232 367.215 75.0021C367.138 75.1775 367.046 75.346 366.94 75.5057C366.836 75.6717 366.715 75.8257 366.578 75.9648C366.035 76.5157 365.3 76.8246 364.535 76.8239C364.347 76.8454 364.158 76.8454 363.97 76.8239C363.758 76.7783 363.554 76.7036 363.362 76.6017C363.187 76.5284 363.022 76.4339 362.869 76.3203C362.712 76.2183 362.566 76.0991 362.434 75.9648C362.298 75.8257 362.176 75.6717 362.072 75.5057C361.967 75.346 361.875 75.1775 361.797 75.0021C361.724 74.821 361.67 74.6322 361.637 74.4392C361.616 74.2473 361.616 74.0535 361.637 73.8616C361.641 73.0772 361.948 72.3261 362.492 71.7731C363.622 70.6245 365.448 70.6245 366.578 71.7731ZM367.433 86.6145C367.454 86.8064 367.454 87.0002 367.433 87.1922C367.455 87.384 367.455 87.5779 367.433 87.7698C367.387 87.9861 367.314 88.1953 367.215 88.3919C367.144 88.5706 367.052 88.7397 366.94 88.8955C366.839 89.0595 366.718 89.209 366.578 89.3399C366.45 89.4826 366.304 89.6072 366.143 89.7102C365.986 89.8243 365.816 89.9188 365.636 89.9916C365.464 90.0675 365.285 90.1222 365.1 90.1545C364.912 90.1766 364.723 90.1766 364.535 90.1545C364.345 90.1577 364.155 90.1378 363.97 90.0953C363.781 90.063 363.596 90.0083 363.419 89.9323C363.245 89.8591 363.079 89.7646 362.927 89.6509C362.766 89.5479 362.62 89.4234 362.492 89.2806C362.352 89.1462 362.226 88.9973 362.116 88.8363C362.015 88.6764 361.927 88.5079 361.855 88.3327C361.717 87.9687 361.643 87.5825 361.637 87.1922C361.641 86.4077 361.948 85.6567 362.492 85.1037C363.622 83.9551 365.448 83.9551 366.578 85.1037C366.718 85.2343 366.84 85.3838 366.94 85.548C367.049 85.7111 367.141 85.8847 367.215 86.0665C367.31 86.2393 367.383 86.4234 367.433 86.6145ZM367.433 99.9451C367.454 100.137 367.454 100.331 367.433 100.523C367.455 100.715 367.455 100.909 367.433 101.1C367.387 101.317 367.314 101.526 367.215 101.722C367.144 101.901 367.052 102.07 366.94 102.226C366.839 102.39 366.718 102.54 366.578 102.67C366.45 102.813 366.304 102.938 366.143 103.041C365.986 103.155 365.816 103.249 365.636 103.322C365.464 103.398 365.285 103.453 365.1 103.485C364.912 103.507 364.723 103.507 364.535 103.485C364.345 103.488 364.155 103.468 363.97 103.426C363.781 103.394 363.596 103.339 363.419 103.263C363.245 103.19 363.079 103.095 362.927 102.981C362.766 102.879 362.62 102.754 362.492 102.611C361.948 102.058 361.641 101.307 361.637 100.523C361.635 100.329 361.655 100.135 361.695 99.9451C361.726 99.7516 361.78 99.5626 361.855 99.3822C361.933 99.2068 362.025 99.0383 362.13 98.8786C362.231 98.7146 362.353 98.5652 362.492 98.4343C363.622 97.2857 365.448 97.2857 366.578 98.4343C366.718 98.5652 366.839 98.7146 366.94 98.8786C367.046 99.0383 367.138 99.2068 367.215 99.3822C367.31 99.5603 367.383 99.7492 367.433 99.9451ZM373.228 84.2298H405.102C406.703 84.2298 408 85.5561 408 87.1922C408 88.8282 406.703 90.1545 405.102 90.1545H373.228C371.628 90.1545 370.33 88.8282 370.33 87.1922C370.33 85.5561 371.628 84.2298 373.228 84.2298ZM373.228 97.5604H392.063C393.663 97.5604 394.96 98.8867 394.96 100.523C394.96 102.159 393.663 103.485 392.063 103.485H373.228C371.628 103.485 370.33 102.159 370.33 100.523C370.33 98.8867 371.628 97.5604 373.228 97.5604ZM352.17 84.8565L334.871 95.8358L317.164 84.8565L334.871 110L352.17 84.8565Z"
              fill="url(#paint10_linear_1143_18702)"/>
        <path class="philosophy-icon-container"
              d="M360.707 624.756C361.945 624.042 363.469 624.042 364.707 624.756L431.122 663.101C432.36 663.816 433.122 665.136 433.122 666.565V743.255C433.122 744.684 432.36 746.005 431.122 746.719L364.707 785.064C363.469 785.779 361.945 785.779 360.707 785.064L294.292 746.719C293.054 746.005 292.292 744.684 292.292 743.255V666.565C292.292 665.136 293.054 663.816 294.292 663.101L360.707 624.756Z"
              fill="url(#paint11_linear_1143_18702)"/>
        <path fill-rule="evenodd" clip-rule="evenodd"
              d="M430.122 664.833L363.707 626.488C363.088 626.131 362.326 626.131 361.707 626.488L295.292 664.833C294.673 665.191 294.292 665.851 294.292 666.565V743.255C294.292 743.97 294.673 744.63 295.292 744.987L361.707 783.332C362.326 783.689 363.088 783.689 363.707 783.332L430.122 744.987C430.741 744.63 431.122 743.97 431.122 743.255V666.565C431.122 665.851 430.741 665.191 430.122 664.833ZM364.707 624.756C363.469 624.042 361.945 624.042 360.707 624.756L294.292 663.101C293.054 663.816 292.292 665.136 292.292 666.565V743.255C292.292 744.684 293.054 746.005 294.292 746.719L360.707 785.064C361.945 785.779 363.469 785.779 364.707 785.064L431.122 746.719C432.36 746.005 433.122 744.684 433.122 743.255V666.565C433.122 665.136 432.36 663.816 431.122 663.101L364.707 624.756Z"
              fill="#5A5A5A"/>
        <path class="philosophy-dollar-icon"
              d="M373.006 710.49C373.006 704.911 369.659 702.999 362.965 702.202C358.183 701.564 357.227 700.289 357.227 698.057C357.227 695.826 358.821 694.392 362.009 694.392C364.878 694.392 366.472 695.348 367.268 697.739C367.428 698.217 367.906 698.536 368.384 698.536H370.934C371.572 698.536 372.05 698.057 372.05 697.42V697.261C371.412 693.754 368.543 691.044 364.878 690.726V686.9C364.878 686.263 364.399 685.785 363.603 685.625H361.212C360.574 685.625 360.096 686.103 359.936 686.9V690.566C355.155 691.204 352.127 694.392 352.127 698.377C352.127 703.636 355.314 705.708 362.009 706.505C366.472 707.302 367.906 708.259 367.906 710.809C367.906 713.359 365.674 715.112 362.646 715.112C358.502 715.112 357.067 713.359 356.589 710.968C356.43 710.331 355.952 710.012 355.474 710.012H352.764C352.127 710.012 351.648 710.49 351.648 711.128V711.287C352.286 715.272 354.836 718.141 360.096 718.938V722.763C360.096 723.4 360.574 723.879 361.371 724.038H363.762C364.399 724.038 364.878 723.56 365.037 722.763V718.938C369.819 718.141 373.006 714.793 373.006 710.49Z"
              fill="url(#paint12_linear_1143_18702)"/>
        <path class="philosophy-dollar-icon"
              d="M354.358 727.225C341.925 722.762 335.55 708.895 340.172 696.622C342.563 689.928 347.823 684.827 354.358 682.436C354.995 682.118 355.314 681.64 355.314 680.842V678.611C355.314 677.973 354.995 677.495 354.358 677.336C354.198 677.336 353.88 677.336 353.72 677.495C338.578 682.277 330.29 698.375 335.072 713.517C337.941 722.443 344.794 729.297 353.72 732.166C354.358 732.484 354.995 732.166 355.155 731.528C355.314 731.369 355.314 731.21 355.314 730.891V728.659C355.314 728.181 354.836 727.544 354.358 727.225ZM371.253 677.495C370.615 677.177 369.978 677.495 369.819 678.133C369.659 678.292 369.659 678.452 369.659 678.771V681.002C369.659 681.64 370.137 682.277 370.615 682.596C383.048 687.059 389.424 700.925 384.801 713.199C382.41 719.893 377.15 724.993 370.615 727.384C369.978 727.703 369.659 728.181 369.659 728.978V731.21C369.659 731.847 369.978 732.325 370.615 732.484C370.775 732.484 371.094 732.485 371.253 732.325C386.395 727.544 394.683 711.445 389.902 696.303C387.033 687.218 380.019 680.364 371.253 677.495Z"
              fill="url(#paint13_linear_1143_18702)"/>
    </g>
</svg>
