<svg width="1343" height="1534" viewBox="0 0 1343 1534" fill="none" xmlns="http://www.w3.org/2000/svg">
<path d="M683.501 3.81129L683.501 3.81136L1283.84 184.274C1292.66 186.925 1300.4 192.357 1305.9 199.764C1311.4 207.171 1314.37 216.157 1314.37 225.39V887.083C1314.37 972.588 1279.83 1060.27 1211.45 1147.71C1159.21 1214.5 1086.9 1281.62 996.479 1347.21C844.556 1457.4 694.942 1525 688.693 1527.81L689.487 1529.58L688.693 1527.81C683.187 1530.28 677.223 1531.56 671.19 1531.56C665.158 1531.56 659.193 1530.28 653.688 1527.81L653.687 1527.81C647.436 1525 497.819 1457.4 345.895 1347.21C255.471 1281.62 183.158 1214.5 130.927 1147.71C62.5435 1060.27 28 972.585 28 887.083V225.391C28.0001 216.158 30.9706 207.172 36.4702 199.765C41.9698 192.358 49.7052 186.926 58.5283 184.274L658.879 3.81136L658.879 3.81129C666.91 1.39624 675.471 1.39624 683.501 3.81129Z" fill="url(#paint0_linear_1200_6871)" stroke="url(#paint1_linear_1200_6871)" stroke-width="4"/>
<g filter="url(#filter0_d_1200_6871)">
<path d="M1156.72 303.478L681.701 160.502C675.05 158.499 667.959 158.499 661.308 160.502L186.282 303.478C178.975 305.678 172.568 310.183 168.014 316.325C163.46 322.466 161 329.917 161 337.572V861.815C161 930.003 188.515 999.803 242.777 1069.28C284.219 1122.34 341.555 1175.62 413.187 1227.65C533.525 1315.04 652.022 1368.65 657.008 1370.89C661.568 1372.94 666.508 1374 671.505 1374C676.501 1374 681.442 1372.94 686.001 1370.89C690.985 1368.65 809.48 1315.04 929.818 1227.65C1001.45 1175.62 1058.78 1122.34 1100.23 1069.28C1154.49 999.806 1182 930.005 1182 861.815V337.572C1182 329.917 1179.54 322.465 1174.99 316.324C1170.43 310.182 1164.03 305.677 1156.72 303.478Z" fill="url(#paint2_linear_1200_6871)"/>
<path d="M681.125 162.417L681.125 162.417L1156.14 305.393L1156.71 303.495L1156.14 305.393C1163.04 307.468 1169.08 311.718 1173.38 317.515C1177.68 323.311 1180 330.345 1180 337.571V861.815C1180 929.443 1152.72 998.823 1098.65 1068.05C1057.35 1120.92 1000.17 1174.08 928.643 1226.03C808.468 1313.3 690.116 1366.85 685.182 1369.07L685.999 1370.88L685.182 1369.07C680.879 1371 676.219 1372 671.505 1372C666.791 1372 662.13 1371 657.828 1369.07L657.827 1369.07C652.891 1366.85 534.537 1313.3 414.362 1226.03C342.837 1174.08 285.65 1120.92 244.353 1068.05C190.285 998.82 163 929.44 163 861.815V337.572C163 330.345 165.322 323.312 169.62 317.516C173.919 311.72 179.964 307.469 186.859 305.393L661.884 162.417L661.885 162.417C668.16 160.528 674.85 160.528 681.125 162.417Z" stroke="url(#paint3_linear_1200_6871)" stroke-width="4"/>
</g>
<g filter="url(#filter1_d_1200_6871)">
<path d="M1022.68 431.524L678.394 328.087C673.573 326.638 668.434 326.638 663.613 328.087L319.324 431.524C314.028 433.115 309.384 436.374 306.084 440.818C302.783 445.261 301 450.651 301 456.189V835.457C301 884.787 320.942 935.285 360.27 985.548C390.306 1023.94 431.863 1062.48 483.78 1100.12C570.998 1163.35 656.883 1202.13 660.497 1203.75C663.801 1205.23 667.382 1206 671.003 1206C674.625 1206 678.205 1205.23 681.51 1203.75C685.122 1202.13 771.005 1163.35 858.223 1100.12C910.141 1062.48 951.695 1023.94 981.733 985.548C1021.06 935.287 1041 884.789 1041 835.457V456.189C1041 450.651 1039.22 445.26 1035.92 440.817C1032.62 436.374 1027.97 433.115 1022.68 431.524Z" fill="url(#paint4_linear_1200_6871)"/>
<path d="M677.818 330.002L677.818 330.002L1022.1 433.439L1022.68 431.524L1022.1 433.439C1026.99 434.906 1031.27 437.911 1034.31 442.009C1037.36 446.108 1039 451.08 1039 456.189V835.457C1039 884.226 1019.29 934.302 980.158 984.315C950.265 1022.52 908.861 1060.94 857.05 1098.5C769.994 1161.61 684.255 1200.33 680.692 1201.93L680.692 1201.93C677.644 1203.29 674.343 1204 671.003 1204C667.664 1204 664.363 1203.29 661.315 1201.93L661.314 1201.93C657.75 1200.33 572.009 1161.61 484.954 1098.5C433.143 1060.94 391.737 1022.52 361.845 984.315C322.711 934.3 303 884.224 303 835.457V456.189C303 451.08 304.645 446.108 307.689 442.01C310.733 437.912 315.016 434.907 319.9 433.439L664.189 330.002L664.189 330.002C668.634 328.666 673.373 328.666 677.818 330.002Z" stroke="url(#paint5_linear_1200_6871)" stroke-width="4"/>
</g>
<defs>
<filter id="filter0_d_1200_6871" x="81" y="79" width="1181" height="1375" filterUnits="userSpaceOnUse" color-interpolation-filters="sRGB">
<feFlood flood-opacity="0" result="BackgroundImageFix"/>
<feColorMatrix in="SourceAlpha" type="matrix" values="0 0 0 0 0 0 0 0 0 0 0 0 0 0 0 0 0 0 127 0" result="hardAlpha"/>
<feOffset/>
<feGaussianBlur stdDeviation="40"/>
<feComposite in2="hardAlpha" operator="out"/>
<feColorMatrix type="matrix" values="0 0 0 0 0 0 0 0 0 0 0 0 0 0 0 0 0 0 0.25 0"/>
<feBlend mode="normal" in2="BackgroundImageFix" result="effect1_dropShadow_1200_6871"/>
<feBlend mode="normal" in="SourceGraphic" in2="effect1_dropShadow_1200_6871" result="shape"/>
</filter>
<filter id="filter1_d_1200_6871" x="221" y="247" width="900" height="1039" filterUnits="userSpaceOnUse" color-interpolation-filters="sRGB">
<feFlood flood-opacity="0" result="BackgroundImageFix"/>
<feColorMatrix in="SourceAlpha" type="matrix" values="0 0 0 0 0 0 0 0 0 0 0 0 0 0 0 0 0 0 127 0" result="hardAlpha"/>
<feOffset/>
<feGaussianBlur stdDeviation="40"/>
<feComposite in2="hardAlpha" operator="out"/>
<feColorMatrix type="matrix" values="0 0 0 0 0 0 0 0 0 0 0 0 0 0 0 0 0 0 0.25 0"/>
<feBlend mode="normal" in2="BackgroundImageFix" result="effect1_dropShadow_1200_6871"/>
<feBlend mode="normal" in="SourceGraphic" in2="effect1_dropShadow_1200_6871" result="shape"/>
</filter>
<linearGradient id="paint0_linear_1200_6871" x1="1228.68" y1="197.5" x2="411.873" y2="1515.88" gradientUnits="userSpaceOnUse">
<stop stop-color="#151515"/>
<stop offset="1" stop-color="#060606"/>
</linearGradient>
<linearGradient id="paint1_linear_1200_6871" x1="1316.37" y1="-5.42044e-05" x2="238.371" y2="1058.6" gradientUnits="userSpaceOnUse">
<stop stop-color="#232323"/>
<stop offset="1" stop-color="#080808"/>
</linearGradient>
<linearGradient id="paint2_linear_1200_6871" x1="1181.75" y1="235.76" x2="668.481" y2="1586.1" gradientUnits="userSpaceOnUse">
<stop stop-color="#1F1F1F"/>
<stop offset="1" stop-color="#070707"/>
</linearGradient>
<linearGradient id="paint3_linear_1200_6871" x1="1148.88" y1="217.155" x2="287.192" y2="1041.52" gradientUnits="userSpaceOnUse">
<stop stop-color="#1C1C1C"/>
<stop offset="1" stop-color="#1F1F1F"/>
</linearGradient>
<linearGradient id="paint4_linear_1200_6871" x1="933.663" y1="389.954" x2="261.643" y2="1471.42" gradientUnits="userSpaceOnUse">
<stop stop-color="#1C1C1C"/>
<stop offset="1" stop-color="#0F0F0F"/>
</linearGradient>
<linearGradient id="paint5_linear_1200_6871" x1="997.881" y1="352.371" x2="299.603" y2="1010.53" gradientUnits="userSpaceOnUse">
<stop stop-color="#343434"/>
<stop offset="0.96996" stop-color="#1A1A1A"/>
</linearGradient>
</defs>
</svg>
