<svg width="501" height="505" viewBox="0 0 501 505" fill="none" xmlns="http://www.w3.org/2000/svg">
<path d="M346.072 45.3281H183.343C174.192 45.3281 166.773 52.7468 166.773 61.8982V387.391C166.773 396.543 174.192 403.961 183.343 403.961H346.072C355.224 403.961 362.642 396.543 362.642 387.391V61.8982C362.642 52.7468 355.224 45.3281 346.072 45.3281Z" fill="url(#paint0_linear_498_12720)"/>
<path d="M346.071 55.8906C349.388 55.8906 352.074 58.5889 352.074 61.8934V387.386C352.074 390.703 349.376 393.389 346.071 393.389H183.354C180.038 393.389 177.352 390.691 177.352 387.386V61.8934C177.352 58.577 180.05 55.8906 183.354 55.8906H346.071Z" fill="black"/>
<path class="listings-first-round" d="M199.416 87.2676H330.003C333.337 87.2676 336.04 89.9704 336.04 93.3045V130.462C336.04 133.796 333.337 136.499 330.003 136.499H199.416C196.082 136.499 193.379 133.796 193.379 130.462V93.3045C193.379 89.9704 196.082 87.2676 199.416 87.2676Z" stroke="#2A1C41" stroke-width="2"/>
<path class="listings-first-round" d="M270.701 94.1094H205.515C203.268 94.1094 201.438 95.928 201.438 98.1865C201.438 100.433 203.268 102.264 205.515 102.264H270.701C272.948 102.264 274.778 100.433 274.778 98.1865C274.778 95.9399 272.948 94.1094 270.701 94.1094Z" fill="#9576EC"/>
<path class="listings-first-round" d="M317.784 107.809H204.195C202.672 107.809 201.438 109.043 201.438 110.566C201.438 112.089 202.672 113.324 204.195 113.324H317.784C319.307 113.324 320.542 112.089 320.542 110.566C320.542 109.043 319.307 107.809 317.784 107.809Z" fill="#5D4C7B"/>
<path class="listings-first-round" d="M286.261 117.979H204.195C202.674 117.979 201.438 119.215 201.438 120.736C201.438 122.258 202.674 123.494 204.195 123.494H286.261C287.782 123.494 289.019 122.258 289.019 120.736C289.019 119.215 287.782 117.979 286.261 117.979Z" fill="#5D4C7B"/>
<path class="listings-first-round" d="M229.439 127.152H216.066C214.545 127.152 213.309 128.389 213.309 129.91C213.309 131.432 214.545 132.668 216.066 132.668H229.439C230.96 132.668 232.197 131.432 232.197 129.91C232.197 128.389 230.96 127.152 229.439 127.152Z" fill="#9576EC"/>
<path class="listings-first-round" d="M207.309 126.07L202.875 133.749H211.742L207.309 126.07Z" fill="#3BD171"/>
<path class="listings-first-round" d="M269.001 127.152H255.629C254.107 127.152 252.871 128.389 252.871 129.91C252.871 131.432 254.107 132.668 255.629 132.668H269.001C270.523 132.668 271.759 131.432 271.759 129.91C271.759 128.389 270.523 127.152 269.001 127.152Z" fill="#9576EC"/>
<path class="listings-first-round" d="M246.867 133.749L251.301 126.07H242.434L246.867 133.749Z" fill="#FF4757"/>
<path class="listings-second-round" d="M199.416 154.318H330.003C333.337 154.318 336.04 157.021 336.04 160.355V197.513C336.04 200.847 333.337 203.55 330.003 203.55H199.416C196.082 203.55 193.379 200.847 193.379 197.513V160.355C193.379 157.021 196.082 154.318 199.416 154.318Z" stroke="#2A1C41" stroke-width="2"/>
<path class="listings-second-round" d="M270.701 161.16H205.515C203.268 161.16 201.438 162.979 201.438 165.237C201.438 167.484 203.268 169.314 205.515 169.314H270.701C272.948 169.314 274.778 167.484 274.778 165.237C274.778 162.991 272.948 161.16 270.701 161.16Z" fill="#9576EC"/>
<path class="listings-second-round" d="M317.784 174.859H204.195C202.674 174.859 201.438 176.096 201.438 177.617C201.438 179.139 202.674 180.375 204.195 180.375H317.784C319.306 180.375 320.542 179.139 320.542 177.617C320.542 176.096 319.306 174.859 317.784 174.859Z" fill="#5D4C7B"/>
<path class="listings-second-round" d="M286.261 185.029H204.195C202.674 185.029 201.438 186.266 201.438 187.787C201.438 189.308 202.674 190.545 204.195 190.545H286.261C287.782 190.545 289.019 189.308 289.019 187.787C289.019 186.266 287.782 185.029 286.261 185.029Z" fill="#5D4C7B"/>
<path class="listings-second-round" d="M229.439 194.203H216.066C214.545 194.203 213.309 195.439 213.309 196.961C213.309 198.482 214.545 199.719 216.066 199.719H229.439C230.96 199.719 232.197 198.482 232.197 196.961C232.197 195.439 230.96 194.203 229.439 194.203Z" fill="#9576EC"/>
<path class="listings-second-round" d="M207.309 193.121L202.875 200.8H211.742L207.309 193.121Z" fill="#3BD171"/>
<path class="listings-second-round" d="M269.001 194.203H255.629C254.107 194.203 252.871 195.439 252.871 196.961C252.871 198.482 254.107 199.719 255.629 199.719H269.001C270.523 199.719 271.759 198.482 271.759 196.961C271.759 195.439 270.523 194.203 269.001 194.203Z" fill="#9576EC"/>
<path class="listings-second-round" d="M246.867 200.8L251.301 193.121H242.434L246.867 200.8Z" fill="#FF4757"/>
<path class="listings-third-round" d="M199.416 221.373H330.003C333.337 221.373 336.04 224.076 336.04 227.41V264.568C336.04 267.902 333.337 270.605 330.003 270.605H199.416C196.082 270.605 193.379 267.902 193.379 264.568V227.41C193.379 224.076 196.082 221.373 199.416 221.373Z" stroke="#2A1C41" stroke-width="2"/>
<path class="listings-third-round" d="M270.701 228.223H205.515C203.268 228.223 201.438 230.041 201.438 232.3C201.438 234.546 203.268 236.377 205.515 236.377H270.701C272.948 236.377 274.778 234.546 274.778 232.3C274.778 230.053 272.948 228.223 270.701 228.223Z" fill="#9576EC"/>
<path class="listings-third-round" d="M317.784 241.926H204.195C202.674 241.926 201.438 243.162 201.438 244.684C201.438 246.205 202.674 247.441 204.195 247.441H317.784C319.306 247.441 320.542 246.205 320.542 244.684C320.542 243.162 319.306 241.926 317.784 241.926Z" fill="#5D4C7B"/>
<path class="listings-third-round" d="M286.261 252.084H204.195C202.674 252.084 201.438 253.32 201.438 254.842C201.438 256.363 202.674 257.599 204.195 257.599H286.261C287.782 257.599 289.019 256.363 289.019 254.842C289.019 253.32 287.782 252.084 286.261 252.084Z" fill="#5D4C7B"/>
<path class="listings-third-round" d="M229.439 261.258H216.066C214.545 261.258 213.309 262.494 213.309 264.016C213.309 265.537 214.545 266.773 216.066 266.773H229.439C230.96 266.773 232.197 265.537 232.197 264.016C232.197 262.494 230.96 261.258 229.439 261.258Z" fill="#9576EC"/>
<path class="listings-third-round" d="M207.309 260.176L202.875 267.855H211.742L207.309 260.176Z" fill="#3BD171"/>
<path class="listings-third-round" d="M269.001 261.258H255.629C254.107 261.258 252.871 262.494 252.871 264.016C252.871 265.537 254.107 266.773 255.629 266.773H269.001C270.523 266.773 271.759 265.537 271.759 264.016C271.759 262.494 270.523 261.258 269.001 261.258Z" fill="#9576EC"/>
<path class="listings-third-round" d="M246.867 267.855L251.301 260.176H242.434L246.867 267.855Z" fill="#FF4757"/>
<path d="M199.416 288.438H330.003C333.337 288.438 336.04 291.14 336.04 294.474V331.632C336.04 334.966 333.337 337.669 330.003 337.669H199.416C196.082 337.669 193.379 334.966 193.379 331.632V294.474C193.379 291.14 196.082 288.438 199.416 288.438Z" stroke="#2A1C41" stroke-width="2"/>
<path d="M270.701 295.277H205.515C203.268 295.277 201.438 297.096 201.438 299.354C201.438 301.601 203.268 303.432 205.515 303.432H270.701C272.948 303.432 274.778 301.613 274.778 299.354C274.778 297.108 272.948 295.277 270.701 295.277Z" fill="#9576EC"/>
<path d="M317.784 308.979H204.195C202.674 308.979 201.438 310.215 201.438 311.736C201.438 313.258 202.674 314.494 204.195 314.494H317.784C319.306 314.494 320.542 313.258 320.542 311.736C320.542 310.215 319.306 308.979 317.784 308.979Z" fill="#5D4C7B"/>
<path d="M286.261 319.148H204.195C202.674 319.148 201.438 320.385 201.438 321.906C201.438 323.428 202.674 324.664 204.195 324.664H286.261C287.782 324.664 289.019 323.428 289.019 321.906C289.019 320.385 287.782 319.148 286.261 319.148Z" fill="#5D4C7B"/>
<path d="M229.439 328.312H216.066C214.545 328.312 213.309 329.549 213.309 331.07C213.309 332.592 214.545 333.828 216.066 333.828H229.439C230.96 333.828 232.197 332.592 232.197 331.07C232.197 329.549 230.96 328.312 229.439 328.312Z" fill="#9576EC"/>
<path d="M207.309 327.238L202.875 334.917H211.742L207.309 327.238Z" fill="#3BD171"/>
<path d="M269.001 328.312H255.629C254.107 328.312 252.871 329.549 252.871 331.07C252.871 332.592 254.107 333.828 255.629 333.828H269.001C270.523 333.828 271.759 332.592 271.759 331.07C271.759 329.549 270.523 328.312 269.001 328.312Z" fill="#9576EC"/>
<path d="M246.867 334.917L251.301 327.238H242.434L246.867 334.917Z" fill="#FF4757"/>
<path d="M318.269 350.723H211.146C207.26 350.723 204.109 353.873 204.109 357.76V372.82C204.109 376.706 207.26 379.857 211.146 379.857H318.269C322.155 379.857 325.306 376.706 325.306 372.82V357.76C325.306 353.873 322.155 350.723 318.269 350.723Z" fill="url(#paint1_linear_498_12720)"/>
<path d="M108.219 31.7583C108.052 31.7583 107.874 31.7226 107.719 31.6394L78.1572 16.8642C77.7768 16.674 77.5391 16.2937 77.5391 15.8776C77.5391 15.4616 77.7768 15.0693 78.1572 14.891L107.719 0.115895C108.028 -0.0386317 108.397 -0.0386317 108.706 0.115895L138.268 14.891C138.649 15.0812 138.886 15.4616 138.886 15.8776C138.886 16.2937 138.649 16.6859 138.268 16.8642L108.706 31.6394C108.551 31.7226 108.385 31.7583 108.207 31.7583H108.219ZM81.1407 15.8658L108.219 29.4047L135.296 15.8658L108.219 2.32682L81.1407 15.8658Z" fill="white"/>
<path d="M108.219 67.0832C108.052 67.0832 107.874 67.0475 107.719 66.9643L78.1572 52.1892C77.7768 51.999 77.5391 51.6186 77.5391 51.2026V15.8753C77.5391 15.495 77.7411 15.1384 78.0621 14.9363C78.383 14.7342 78.799 14.7223 79.1438 14.8887L108.706 29.6639C109.086 29.8541 109.324 30.2345 109.324 30.6505V65.9777C109.324 66.3581 109.122 66.7147 108.801 66.9168C108.623 67.0237 108.421 67.0832 108.219 67.0832ZM79.7619 50.5131L107.101 64.1828V31.328L79.7619 17.6583V50.5131Z" fill="white"/>
<path d="M108.223 67.0832C108.021 67.0832 107.819 67.0237 107.64 66.9168C107.307 66.7147 107.117 66.3581 107.117 65.9777V30.6505C107.117 30.2345 107.355 29.8422 107.735 29.6639L137.297 14.8887C137.642 14.7223 138.046 14.7342 138.379 14.9363C138.712 15.1384 138.902 15.495 138.902 15.8753V51.2026C138.902 51.6186 138.664 52.0109 138.284 52.1892L108.722 66.9643C108.567 67.0475 108.401 67.0832 108.223 67.0832ZM109.328 31.328V64.1828L136.667 50.5131V17.6583L109.328 31.328Z" fill="white"/>
<path d="M372.066 468.754C371.9 468.754 371.722 468.719 371.567 468.635L342.005 453.86C341.624 453.67 341.387 453.29 341.387 452.874C341.387 452.458 341.624 452.065 342.005 451.887L371.567 437.112C371.876 436.957 372.245 436.957 372.554 437.112L402.116 451.887C402.496 452.077 402.734 452.458 402.734 452.874C402.734 453.29 402.496 453.682 402.116 453.86L372.554 468.635C372.399 468.719 372.233 468.754 372.054 468.754H372.066ZM344.988 452.862L372.066 466.401L399.144 452.862L372.066 439.323L344.988 452.862Z" fill="white"/>
<path d="M372.066 504.08C371.9 504.08 371.722 504.044 371.567 503.961L342.005 489.186C341.624 488.996 341.387 488.616 341.387 488.2V452.872C341.387 452.492 341.589 452.135 341.91 451.933C342.231 451.731 342.647 451.707 342.991 451.886L372.554 466.661C372.934 466.851 373.172 467.231 373.172 467.647V502.975C373.172 503.355 372.97 503.712 372.649 503.914C372.47 504.021 372.268 504.08 372.066 504.08ZM343.621 487.51L370.961 501.18V468.325L343.621 454.655V487.51Z" fill="white"/>
<path d="M372.066 504.08C371.864 504.08 371.662 504.021 371.484 503.914C371.151 503.712 370.961 503.355 370.961 502.975V467.647C370.961 467.231 371.199 466.839 371.579 466.661L401.141 451.886C401.486 451.707 401.89 451.731 402.223 451.933C402.556 452.135 402.746 452.492 402.746 452.872V488.2C402.746 488.616 402.508 489.008 402.128 489.186L372.566 503.961C372.411 504.044 372.245 504.08 372.066 504.08ZM373.172 468.325V501.18L400.511 487.51V454.655L373.172 468.325Z" fill="white"/>
<path d="M485.702 160.235C485.619 160.235 485.535 160.211 485.452 160.175L470.891 152.889C470.701 152.794 470.594 152.604 470.594 152.402C470.594 152.2 470.713 152.009 470.891 151.914L485.452 144.628C485.607 144.556 485.785 144.556 485.939 144.628L500.501 151.914C500.691 152.009 500.798 152.2 500.798 152.402C500.798 152.604 500.679 152.794 500.501 152.889L485.939 160.175C485.856 160.211 485.773 160.235 485.69 160.235H485.702ZM472.353 152.402L485.702 159.07L499.05 152.402L485.702 145.733L472.353 152.402Z" fill="white"/>
<path d="M485.702 177.65C485.619 177.65 485.535 177.626 485.452 177.59L470.891 170.304C470.701 170.209 470.594 170.018 470.594 169.816V152.402C470.594 152.212 470.689 152.034 470.855 151.939C471.01 151.844 471.212 151.832 471.39 151.915L485.951 159.202C486.142 159.297 486.249 159.487 486.249 159.689V177.103C486.249 177.293 486.153 177.471 485.987 177.566C485.904 177.626 485.797 177.65 485.702 177.65ZM471.687 169.484L485.155 176.223V160.034L471.687 153.294V169.484Z" fill="white"/>
<path d="M485.703 177.65C485.608 177.65 485.501 177.626 485.418 177.566C485.251 177.471 485.156 177.293 485.156 177.103V159.689C485.156 159.487 485.275 159.297 485.453 159.202L500.015 151.915C500.181 151.832 500.383 151.844 500.55 151.939C500.716 152.034 500.811 152.212 500.811 152.402V169.816C500.811 170.018 500.692 170.209 500.514 170.304L485.953 177.59C485.869 177.626 485.786 177.65 485.703 177.65ZM486.25 160.034V176.223L499.717 169.484V153.294L486.25 160.034Z" fill="white"/>
<path d="M113.163 410.292C113.079 410.292 112.996 410.268 112.913 410.232L98.3519 402.946C98.1617 402.851 98.0547 402.66 98.0547 402.458C98.0547 402.256 98.1736 402.066 98.3519 401.971L112.913 394.684C113.068 394.613 113.246 394.613 113.4 394.684L127.962 401.971C128.152 402.066 128.259 402.256 128.259 402.458C128.259 402.66 128.14 402.851 127.962 402.946L113.4 410.232C113.329 410.268 113.234 410.292 113.151 410.292H113.163ZM99.8139 402.458L113.163 409.127L126.511 402.458L113.163 395.79L99.8139 402.458Z" fill="white"/>
<path d="M113.163 427.706C113.079 427.706 112.996 427.683 112.913 427.647L98.3519 420.36C98.1617 420.265 98.0547 420.075 98.0547 419.873V402.459C98.0547 402.269 98.1498 402.091 98.3162 401.995C98.4826 401.9 98.6847 401.888 98.8511 401.972L113.412 409.258C113.602 409.353 113.709 409.543 113.709 409.746V427.16C113.709 427.35 113.614 427.528 113.448 427.623C113.365 427.683 113.258 427.706 113.163 427.706ZM99.1483 419.54L112.628 426.28V410.09L99.1483 403.351V419.54Z" fill="white"/>
<path d="M113.164 427.706C113.069 427.706 112.962 427.683 112.879 427.623C112.712 427.528 112.617 427.35 112.617 427.16V409.746C112.617 409.543 112.736 409.353 112.914 409.258L127.476 401.972C127.642 401.888 127.844 401.9 128.01 401.995C128.177 402.091 128.272 402.269 128.272 402.459V419.873C128.272 420.075 128.153 420.265 127.975 420.36L113.414 427.647C113.342 427.683 113.247 427.706 113.164 427.706ZM113.711 410.09V426.28L127.178 419.54V403.351L113.711 410.09Z" fill="white"/>
<path d="M15.108 227.327C15.0248 227.327 14.9416 227.303 14.8584 227.267L0.297167 219.981C0.10698 219.886 0 219.695 0 219.493C0 219.291 0.118867 219.101 0.297167 219.006L14.8584 211.72C15.0129 211.648 15.1912 211.648 15.3457 211.72L29.9069 219.006C30.0971 219.101 30.2041 219.291 30.2041 219.493C30.2041 219.695 30.0852 219.886 29.9069 219.981L15.3457 227.267C15.2744 227.303 15.1793 227.327 15.0961 227.327H15.108ZM1.75923 219.493L15.108 226.162L28.4567 219.493L15.108 212.825L1.75923 219.493Z" fill="white"/>
<path d="M15.108 244.741C15.0248 244.741 14.9416 244.718 14.8584 244.682L0.297167 237.395C0.10698 237.3 0 237.11 0 236.908V219.494C0 219.304 0.0950926 219.126 0.261506 219.031C0.416033 218.935 0.629994 218.924 0.796408 219.007L15.3576 226.293C15.5478 226.388 15.6548 226.579 15.6548 226.781V244.195C15.6548 244.385 15.5597 244.563 15.3933 244.658C15.31 244.718 15.2031 244.741 15.108 244.741ZM1.09357 236.575L14.5612 243.315V227.125L1.09357 220.386V236.575Z" fill="white"/>
<path d="M15.1093 244.741C15.0142 244.741 14.9072 244.718 14.824 244.658C14.6576 244.563 14.5625 244.385 14.5625 244.195V226.781C14.5625 226.579 14.6814 226.388 14.8597 226.293L29.4209 219.007C29.5873 218.924 29.7893 218.935 29.9558 219.031C30.1222 219.126 30.2173 219.304 30.2173 219.494V236.908C30.2173 237.11 30.0984 237.3 29.9201 237.395L15.3589 244.682C15.2876 244.718 15.1925 244.741 15.1093 244.741ZM15.6561 227.125V243.315L29.1356 236.575V220.386L15.6561 227.125Z" fill="white"/>
<path class="listings-first-round" d="M443.386 89.5407C461.971 89.5407 477.037 74.4745 477.037 55.8895C477.037 37.3044 461.971 22.2383 443.386 22.2383C424.801 22.2383 409.734 37.3044 409.734 55.8895C409.734 74.4745 424.801 89.5407 443.386 89.5407Z" fill="#9576EC"/>
<path class="listings-first-round" d="M443.388 82.5102C458.093 82.5102 470.014 70.5892 470.014 55.884C470.014 41.1787 458.093 29.2578 443.388 29.2578C428.683 29.2578 416.762 41.1787 416.762 55.884C416.762 70.5892 428.683 82.5102 443.388 82.5102Z" fill="url(#paint2_linear_498_12720)"/>
<path class="listings-first-round" fill-rule="evenodd" clip-rule="evenodd" d="M439.868 36.9665C439.868 35.0765 441.402 33.5312 443.303 33.5312H443.315C445.205 33.5312 446.751 35.0646 446.751 36.9665V40.9241C454.147 40.9579 457.956 44.0636 457.956 48.6977C457.956 51.6932 456.423 53.9992 453.986 55.2829C457.315 56.3527 459.454 58.9203 459.454 62.6765C459.454 67.8472 455.353 70.8426 447.484 70.8426H446.72V74.7896C446.72 76.6796 445.187 78.2249 443.285 78.2249C441.395 78.2249 439.85 76.6915 439.85 74.7896V70.8426H434.373C433.066 70.8426 432.008 69.7847 432.008 68.4772V43.2893C432.008 41.9817 433.066 40.9238 434.373 40.9238H439.868V36.9665ZM438.902 46.1421V53.1909H445.784C449.16 53.1909 451.003 51.9903 451.003 49.6487C451.003 47.307 449.16 46.1421 445.784 46.1421H438.902ZM452.489 61.9514C452.489 59.4314 450.563 58.2308 446.973 58.2308H438.89V65.6244H446.973C450.563 65.6244 452.489 64.5189 452.489 61.9514Z" fill="url(#paint3_linear_498_12720)"/>
<path class="listings-second-round" d="M126.338 191.611C133.33 174.391 125.039 154.764 107.82 147.772C90.6003 140.779 70.9729 149.07 63.9807 166.29C56.9886 183.51 65.2795 203.137 82.4991 210.129C99.7187 217.121 119.346 208.83 126.338 191.611Z" fill="#9576EC"/>
<path class="listings-second-round" d="M95.1613 205.555C109.867 205.555 121.787 193.634 121.787 178.929C121.787 164.224 109.867 152.303 95.1613 152.303C80.4561 152.303 68.5352 164.224 68.5352 178.929C68.5352 193.634 80.4561 205.555 95.1613 205.555Z" fill="url(#paint4_linear_498_12720)"/>
<path class="listings-second-round" d="M95.1572 178.928H82.0938L95.1572 202.285L108.209 178.928H95.1572Z" fill="#9576EC"/>
<path class="listings-second-round" d="M95.1572 155.574L82.0938 178.932L95.1572 184.708L108.209 178.932L95.1572 155.574Z" fill="url(#paint5_linear_498_12720)"/>
<path class="listings-third-round" d="M425.307 279.638C443.892 279.638 458.959 264.572 458.959 245.987C458.959 227.402 443.892 212.336 425.307 212.336C406.722 212.336 391.656 227.402 391.656 245.987C391.656 264.572 406.722 279.638 425.307 279.638Z" fill="#9576EC"/>
<path class="listings-third-round" d="M425.31 272.608C440.015 272.608 451.936 260.687 451.936 245.982C451.936 231.276 440.015 219.355 425.31 219.355C410.605 219.355 398.684 231.276 398.684 245.982C398.684 260.687 410.605 272.608 425.31 272.608Z" fill="url(#paint6_linear_498_12720)"/>
<path class="listings-third-round" d="M425.305 230.461L411.16 237.534V254.425L425.305 261.497L439.439 254.425V237.534L425.305 230.461Z" fill="url(#paint7_linear_498_12720)"/>
<path class="listings-third-round" d="M411.16 237.534L425.305 244.606L439.439 237.534L425.305 230.461L411.16 237.534Z" fill="#9576EC"/>
<path class="listings-first-round" d="M444.361 114.365H343.835C343.253 114.365 342.777 113.889 342.777 113.307C342.777 112.725 343.253 112.249 343.835 112.249H442.245V98.1634C442.245 97.5809 442.721 97.1055 443.303 97.1055C443.885 97.1055 444.361 97.5809 444.361 98.1634V114.365Z" fill="white"/>
<path class="listings-second-round" d="M186.359 179.987H134.628C134.046 179.987 133.57 179.511 133.57 178.929C133.57 178.347 134.046 177.871 134.628 177.871H186.359C186.942 177.871 187.417 178.347 187.417 178.929C187.417 179.511 186.942 179.987 186.359 179.987Z" fill="white"/>
<path d="M166.772 106.792H113.163C112.581 106.792 112.105 106.316 112.105 105.734C112.105 105.151 112.581 104.676 113.163 104.676H166.772C167.355 104.676 167.83 105.151 167.83 105.734C167.83 106.316 167.355 106.792 166.772 106.792Z" fill="white"/>
<path class="listings-third-round" d="M383.194 248.487H342.589C342.007 248.487 341.531 248.011 341.531 247.429C341.531 246.847 342.007 246.371 342.589 246.371H383.194C383.777 246.371 384.252 246.847 384.252 247.429C384.252 248.011 383.777 248.487 383.194 248.487Z" fill="white"/>
<path d="M332.686 447.672C329.702 447.672 327.277 445.247 327.277 442.264C327.277 439.28 329.702 436.855 332.686 436.855C335.669 436.855 338.094 439.28 338.094 442.264C338.094 445.247 335.669 447.672 332.686 447.672ZM332.686 438.971C330.867 438.971 329.393 440.445 329.393 442.264C329.393 444.083 330.867 445.557 332.686 445.557C334.504 445.557 335.978 444.083 335.978 442.264C335.978 440.445 334.504 438.971 332.686 438.971Z" fill="white"/>
<path d="M108.815 111.145C105.831 111.145 103.406 108.72 103.406 105.737C103.406 102.753 105.831 100.328 108.815 100.328C111.798 100.328 114.223 102.753 114.223 105.737C114.223 108.72 111.798 111.145 108.815 111.145ZM108.815 102.444C106.996 102.444 105.522 103.918 105.522 105.737C105.522 107.555 106.996 109.029 108.815 109.029C110.633 109.029 112.107 107.555 112.107 105.737C112.107 103.918 110.633 102.444 108.815 102.444Z" fill="white"/>
<path d="M57.0452 233.616C54.0616 233.616 51.6367 231.191 51.6367 228.207C51.6367 225.224 54.0616 222.799 57.0452 222.799C60.0287 222.799 62.4536 225.224 62.4536 228.207C62.4536 231.191 60.0287 233.616 57.0452 233.616ZM57.0452 224.915C55.2265 224.915 53.7525 226.389 53.7525 228.207C53.7525 230.026 55.2265 231.5 57.0452 231.5C58.8638 231.5 60.3378 230.026 60.3378 228.207C60.3378 226.389 58.8638 224.915 57.0452 224.915Z" fill="white"/>
<path d="M332.687 438.975C332.104 438.975 331.629 438.499 331.629 437.917V403.956C331.629 403.374 332.104 402.898 332.687 402.898C333.269 402.898 333.745 403.374 333.745 403.956V437.917C333.745 438.499 333.269 438.975 332.687 438.975Z" fill="white"/>
<path d="M108.812 102.441C108.229 102.441 107.754 101.965 107.754 101.383V72.8548C107.754 72.2724 108.229 71.7969 108.812 71.7969C109.394 71.7969 109.87 72.2724 109.87 72.8548V101.383C109.87 101.965 109.394 102.441 108.812 102.441Z" fill="white"/>
<path d="M56.8079 335.961C56.2255 335.961 55.75 335.485 55.75 334.903V232.511C55.75 231.929 56.2255 231.453 56.8079 231.453C57.3904 231.453 57.8658 231.929 57.8658 232.511V334.903C57.8658 335.485 57.3904 335.961 56.8079 335.961Z" fill="white"/>
<rect x="55.75" y="333.586" width="131.942" height="2.37734" rx="1.18867" fill="white"/>
<path d="M52.6962 229.26H39.0384C38.4559 229.26 37.9805 228.785 37.9805 228.202C37.9805 227.62 38.4559 227.145 39.0384 227.145H52.6962C53.2786 227.145 53.7541 227.62 53.7541 228.202C53.7541 228.785 53.2786 229.26 52.6962 229.26Z" fill="white"/>
<defs>
<linearGradient id="paint0_linear_498_12720" x1="323.202" y1="44.7454" x2="264.708" y2="403.961" gradientUnits="userSpaceOnUse">
<stop stop-color="#8D65D3"/>
<stop offset="1" stop-color="#3F276A"/>
</linearGradient>
<linearGradient id="paint1_linear_498_12720" x1="325.579" y1="365.688" x2="204.335" y2="365.688" gradientUnits="userSpaceOnUse">
<stop stop-color="#714EAF"/>
<stop offset="1" stop-color="#4B2E7E"/>
</linearGradient>
<linearGradient id="paint2_linear_498_12720" x1="466.436" y1="30.4697" x2="427.804" y2="87.5258" gradientUnits="userSpaceOnUse">
<stop stop-color="#280848"/>
<stop offset="1" stop-color="#0C0513"/>
</linearGradient>
<linearGradient id="paint3_linear_498_12720" x1="445.731" y1="33.5312" x2="445.731" y2="78.2249" gradientUnits="userSpaceOnUse">
<stop stop-color="white"/>
<stop offset="1" stop-color="#9655A6"/>
</linearGradient>
<linearGradient id="paint4_linear_498_12720" x1="118.21" y1="153.515" x2="79.5779" y2="210.571" gradientUnits="userSpaceOnUse">
<stop stop-color="#280848"/>
<stop offset="1" stop-color="#0C0513"/>
</linearGradient>
<linearGradient id="paint5_linear_498_12720" x1="95.1513" y1="155.574" x2="95.1513" y2="184.708" gradientUnits="userSpaceOnUse">
<stop stop-color="white"/>
<stop offset="1" stop-color="#5E1F6E"/>
</linearGradient>
<linearGradient id="paint6_linear_498_12720" x1="448.358" y1="220.567" x2="409.726" y2="277.623" gradientUnits="userSpaceOnUse">
<stop stop-color="#280848"/>
<stop offset="1" stop-color="#0C0513"/>
</linearGradient>
<linearGradient id="paint7_linear_498_12720" x1="425.299" y1="230.461" x2="425.299" y2="261.497" gradientUnits="userSpaceOnUse">
<stop stop-color="white"/>
<stop offset="1" stop-color="#9655A6"/>
</linearGradient>
</defs>
</svg>
