<svg width="318" height="192" viewBox="0 0 318 192" fill="none" xmlns="http://www.w3.org/2000/svg">
    <path d="M4.23056 48.3412L4.2312 48.3396C5.21794 45.97 7.58292 40.3069 9.94876 34.6418C12.3138 28.9787 14.6797 23.3134 15.6676 20.941C18.2939 14.6497 24.643 9.93534 34.5165 7.05494C44.369 4.18068 57.416 3.23744 72.8186 4.25755C103.603 6.29638 143.336 16.1452 184.68 33.372C226.023 50.6116 260.982 71.9015 284.093 92.3308C295.656 102.552 304.167 112.483 309.058 121.503C313.96 130.542 315.078 138.369 312.458 144.66C311.471 147.03 309.106 152.693 306.74 158.358L306.739 158.362C304.375 164.023 302.01 169.686 301.022 172.058C298.396 178.35 292.047 183.065 282.173 185.945C272.32 188.819 259.273 189.763 243.871 188.742C213.086 186.704 173.353 176.855 132.01 159.628C90.6664 142.389 55.7007 121.099 32.5864 100.669C21.0214 90.4474 12.5103 80.5172 7.62054 71.4975C2.72015 62.4582 1.60466 54.6324 4.23056 48.3412Z"
          fill="url(#paint0_linear_290_562)" stroke="url(#paint1_linear_290_562)" stroke-width="4"/>
    <path d="M314.304 145.429C302.483 173.751 225.657 168.651 142.677 134.075C59.6966 99.4732 2.00024 48.4935 13.8216 20.1714C25.6429 -8.1506 102.469 -3.05007 185.449 31.5259C268.429 66.1275 326.1 117.107 314.304 145.429Z"
          fill="url(#paint2_linear_290_562)"/>
    <path d="M266.839 165.601C293.713 165.601 310.714 158.885 316.022 146.147C322.074 131.665 311.637 111.52 286.661 89.4515C262.172 67.8191 226.503 46.6225 186.167 29.8343C140.702 10.8931 95.1863 0.0256348 61.2865 0.0256348C34.4128 0.0256348 17.4116 6.74092 12.1035 19.4794C6.0518 33.9608 16.4884 54.1066 41.4645 76.1748C65.9534 97.8072 101.623 119.004 141.959 135.792C187.424 154.733 232.914 165.601 266.839 165.601ZM61.2865 3.71648C94.7247 3.71648 139.728 14.4814 184.731 33.2432C224.683 49.9032 259.993 70.8436 284.174 92.2197C307.535 112.852 317.869 131.999 312.561 144.712C307.945 155.784 291.687 161.884 266.814 161.884C233.375 161.884 188.398 151.119 143.369 132.358C103.418 115.697 68.1075 94.7571 43.9263 73.381C20.5656 52.7482 10.2316 33.602 15.5396 20.8891C20.1554 9.8166 36.4129 3.71648 61.2865 3.71648Z"
          fill="url(#paint3_linear_290_562)"/>
    <path d="M182.603 38.395C252.633 67.5885 301.226 110.879 291.123 135.1C287.302 144.25 275.635 149.351 258.839 150.607C271.712 148.838 280.584 144.25 283.738 136.715C293.251 113.903 246.761 72.7915 179.885 44.9052C113.008 17.0189 51.0806 12.918 41.5415 35.755C38.3874 43.2905 41.3876 52.8251 49.2087 63.2312C38.2592 50.4158 33.6691 38.5231 37.4899 29.3729C47.5932 5.15182 112.546 9.20148 182.603 38.395Z"
          fill="url(#paint4_linear_290_562)"/>
    <g opacity="0.5">
        <path fill-rule="evenodd" clip-rule="evenodd"
              d="M199.07 62.6955C199.224 62.6955 199.711 62.8492 199.711 62.8492C200.224 63.003 200.763 63.2337 201.276 63.4644L208.917 67.8729C209.712 68.3342 210.558 68.8725 210.712 69.4107L219.277 127.746C219.277 127.746 219.303 127.9 219.277 127.977C219.277 127.977 219.277 128.028 219.277 128.054C219.277 128.08 219.277 128.131 219.277 128.131L219.174 128.182C219.174 128.182 219.097 128.362 219.02 128.387C218.969 128.413 218.892 128.438 218.841 128.438H218.79C218.79 128.438 218.687 128.49 218.661 128.49C218.636 128.49 218.585 128.49 218.559 128.515L218.456 128.567H218.354C218.354 128.567 218.277 128.567 218.251 128.567C218.226 128.567 218.123 128.567 218.123 128.567C218.046 128.567 217.892 128.515 217.892 128.515L208.456 127.644H208.199C206.994 127.413 205.968 126.978 204.84 126.234C204.789 126.209 204.686 126.157 204.686 126.157L85.806 49.7519L85.6265 49.5981C85.4726 49.47 85.3957 49.3931 85.2931 49.3162C85.2675 49.3162 85.1649 49.1624 85.1392 49.1368C85.088 49.0855 84.9854 48.9317 84.9085 48.7779V48.5985H84.8828C84.8828 48.5985 84.8828 48.5729 84.8828 48.5472L84.9341 48.4447L86.6265 45.1384C86.6265 45.1384 86.6778 45.1127 86.6778 45.0615C86.6778 45.0102 86.6778 44.9589 86.7547 44.9077C86.806 44.8308 86.9086 44.7539 87.0624 44.7283H87.2419L87.524 44.6514C87.7804 44.6514 88.1651 44.6514 88.3702 44.677C88.4215 44.677 88.5241 44.7026 88.5241 44.7026L199.019 62.5417H199.122L199.07 62.6955ZM201.07 82.4824L199.301 63.7207L148.528 55.5701L148.067 58.5433L192.172 65.4892C192.352 65.5148 192.531 65.5661 192.711 65.643C192.813 65.6943 192.89 65.7199 192.993 65.7711C193.198 65.8737 193.326 65.9762 193.403 66.0787C193.429 66.13 193.455 66.1813 193.455 66.2069L194.249 78.3559L201.07 82.4312V82.4824ZM176.941 68.0523L191.762 76.8949L191.403 70.2309L176.941 68.0523ZM89.0626 46.2917V46.3174L87.7292 49.0599L137.322 56.8773C137.322 56.8773 137.604 56.9285 137.758 56.9798C137.912 57.031 138.066 57.1079 138.194 57.1848C138.451 57.3386 138.605 57.518 138.553 57.6206L135.963 70.0002L142.759 74.2806L146.144 55.1856L89.4472 46.0867H89.2421C89.2421 46.0867 89.1652 46.1892 89.1395 46.2917H89.0626ZM118.706 59.184L133.399 68.4111L134.938 61.6446L118.731 59.184H118.706ZM135.835 57.6974L88.5754 50.2901L142.195 84.6611L150.58 85.7632L104.525 56.4672C104.269 56.3134 104.166 56.134 104.192 56.0058C104.218 55.8777 104.448 55.8264 104.756 55.8777L135.22 60.5425L135.835 57.6718V57.6974ZM161.504 92.4528C161.529 92.3247 161.734 92.2478 162.016 92.2734L192.66 96.0924L192.48 92.4785L144.784 86.3271L205.994 125.568C206.481 125.901 206.558 125.927 206.84 125.952L214.841 126.721L161.965 93.0423C161.683 92.8629 161.478 92.6322 161.478 92.4785L161.504 92.4528ZM193.172 105.986L192.737 97.4508L176.402 95.4516L193.172 105.986ZM216.354 126.132L211.969 94.4264L204.199 89.736L206.891 115.341C206.943 115.521 206.763 115.597 206.43 115.572C206.122 115.521 205.737 115.392 205.43 115.213L173.684 95.1441L166.068 94.1957L216.379 126.157L216.354 126.132ZM164.222 65.5917C163.965 65.4379 163.786 65.2585 163.811 65.156C163.811 65.0279 163.991 64.9766 164.273 65.0279L174.043 66.5144L174.274 66.5401L191.352 69.18L191.172 66.335L147.913 59.5685L145.169 76.4079C145.169 76.4079 144.913 76.5873 144.631 76.5617C144.323 76.5105 143.964 76.3823 143.656 76.2029L115.962 58.7483L108.449 57.6206L153.4 86.1477L193.608 91.3763C193.865 91.3763 194.249 91.5301 194.532 91.7095C194.66 91.7864 194.788 91.8889 194.865 91.9658C194.967 92.0684 195.019 92.1709 195.044 92.2478L195.403 97.5534L196.044 107.831L203.917 112.778L201.558 88.1469L164.196 65.5917H164.222ZM208.43 68.6162C208.43 68.6162 208.353 68.5136 207.891 68.2317L201.583 64.5921L203.635 84.5073C203.66 84.6354 203.532 84.7123 203.224 84.6611C202.994 84.6611 202.635 84.5073 202.353 84.3279L174.453 67.6166L167.786 66.617L211.789 93.1192L208.43 68.5905V68.6162ZM154.888 63.8745C154.888 63.8745 155.067 63.695 155.349 63.7463C155.631 63.7976 155.965 63.9001 156.221 64.0539L194.019 87.0191C194.301 87.1985 194.506 87.4036 194.48 87.5061C194.48 87.583 194.455 87.6342 194.378 87.6599C194.301 87.6855 194.044 87.6599 194.044 87.6599L154.067 82.303C153.785 82.2774 153.4 82.1236 153.17 81.9698L153.093 81.9186C152.811 81.7391 152.682 81.5597 152.682 81.4059L154.913 63.8232L154.888 63.8745ZM157.221 65.848L155.478 81.2778L190.249 85.9682L157.221 65.848Z"
              fill="#3BD171"/>
    </g>
    <defs>
        <linearGradient id="paint0_linear_290_562" x1="385.943" y1="165.581" x2="-26.9568" y2="66.5279"
                        gradientUnits="userSpaceOnUse">
            <stop stop-color="#0B2D17"/>
            <stop offset="1" stop-color="#010503"/>
        </linearGradient>
        <linearGradient id="paint1_linear_290_562" x1="331.163" y1="142.377" x2="-30.13" y2="121.619"
                        gradientUnits="userSpaceOnUse">
            <stop stop-color="#1F7B40"/>
            <stop offset="1" stop-color="#061A0D"/>
        </linearGradient>
        <linearGradient id="paint2_linear_290_562" x1="95.148" y1="171.18" x2="306.982" y2="-35.6252"
                        gradientUnits="userSpaceOnUse">
            <stop stop-color="#020C06"/>
            <stop offset="1" stop-color="#167C3B" stop-opacity="0.2"/>
        </linearGradient>
        <linearGradient id="paint3_linear_290_562" x1="306.149" y1="54.5161" x2="33.7567" y2="127.21"
                        gradientUnits="userSpaceOnUse">
            <stop stop-color="#125C2D"/>
            <stop offset="1" stop-color="#041209"/>
        </linearGradient>
        <linearGradient id="paint4_linear_290_562" x1="88.6876" y1="61.3522" x2="378.116" y2="57.4759"
                        gradientUnits="userSpaceOnUse">
            <stop stop-color="#0D5F2B"/>
            <stop offset="1" stop-color="#021609"/>
        </linearGradient>
    </defs>
</svg>
