<svg width="160" height="160" viewBox="0 0 160 160" fill="none" xmlns="http://www.w3.org/2000/svg">
    <g filter="url(#filter0_d_5331_37764)">
        <path fill-rule="evenodd" clip-rule="evenodd" d="M16.3473 131.378L16.364 131.35L77.6467 25.3476C77.9619 24.83 78.2928 24.547 78.6331 24.3679C79.151 24.0953 79.5922 24 80 24C80.4078 24 80.849 24.0953 81.3669 24.3679C81.7072 24.547 82.0381 24.83 82.3533 25.3476L143.636 131.35L143.653 131.378C143.955 131.882 144.012 132.24 143.998 132.525C143.972 133.083 143.833 133.558 143.586 134.003C143.378 134.378 143.097 134.678 142.678 134.934C142.34 135.141 141.963 135.258 141.451 135.258H18.549C18.0373 135.258 17.6602 135.141 17.3221 134.934C16.9025 134.678 16.6222 134.378 16.414 134.003C16.1672 133.558 16.0284 133.083 16.0018 132.525C15.9882 132.24 16.0449 131.882 16.3473 131.378Z" fill="black"/>
    </g>
    <path fill-rule="evenodd" clip-rule="evenodd" d="M16.364 131.35L16.3473 131.378C16.0449 131.882 15.9882 132.24 16.0018 132.525C16.0284 133.083 16.1672 133.558 16.414 134.003C16.6222 134.378 16.9025 134.678 17.3221 134.934C17.6602 135.141 18.0373 135.258 18.549 135.258H141.451C141.963 135.258 142.34 135.141 142.678 134.934C143.097 134.678 143.378 134.378 143.586 134.003C143.833 133.558 143.972 133.083 143.998 132.525C144.012 132.24 143.955 131.882 143.653 131.378L143.636 131.35L82.3533 25.3476C82.0381 24.83 81.7072 24.547 81.3669 24.3679C80.849 24.0953 80.4078 24 80 24C79.5922 24 79.151 24.0953 78.6331 24.3679C78.2928 24.547 77.9619 24.83 77.6467 25.3476L16.364 131.35ZM23.0292 130.007L80 31.9116L136.971 130.007H23.0292ZM80 95.5053C80.8699 95.5053 81.4095 95.2548 81.8922 94.7721C82.3749 94.2894 82.6254 93.7498 82.6254 92.8799V73.0036C82.6254 72.1337 82.3749 71.5941 81.8922 71.1114C81.4095 70.6287 80.8699 70.3781 80 70.3781C79.1301 70.3781 78.5905 70.6287 78.1078 71.1114C77.6251 71.5941 77.3745 72.1337 77.3745 73.0036V92.8799C77.3745 93.7498 77.6251 94.2894 78.1078 94.7721C78.5905 95.2548 79.1301 95.5053 80 95.5053ZM80 116C81.3253 116 82.1474 115.618 82.8829 114.883C83.6183 114.147 84 113.325 84 112C84 110.675 83.6183 109.853 82.8829 109.117C82.1474 108.382 81.3253 108 80 108C78.6747 108 77.8526 108.382 77.1171 109.117C76.3817 109.853 76 110.675 76 112C76 113.325 76.3817 114.147 77.1171 114.883C77.8526 115.618 78.6747 116 80 116Z" fill="#D13B3B"/>
    <defs>
        <filter id="filter0_d_5331_37764" x="6" y="14" width="148" height="131.258" filterUnits="userSpaceOnUse" color-interpolation-filters="sRGB">
            <feFlood flood-opacity="0" result="BackgroundImageFix"/>
            <feColorMatrix in="SourceAlpha" type="matrix" values="0 0 0 0 0 0 0 0 0 0 0 0 0 0 0 0 0 0 127 0" result="hardAlpha"/>
            <feOffset/>
            <feGaussianBlur stdDeviation="5"/>
            <feComposite in2="hardAlpha" operator="out"/>
            <feColorMatrix type="matrix" values="0 0 0 0 0.819608 0 0 0 0 0.231373 0 0 0 0 0.231373 0 0 0 0.6 0"/>
            <feBlend mode="normal" in2="BackgroundImageFix" result="effect1_dropShadow_5331_37764"/>
            <feBlend mode="normal" in="SourceGraphic" in2="effect1_dropShadow_5331_37764" result="shape"/>
        </filter>
    </defs>
</svg>
