<svg width="160" height="160" viewBox="0 0 160 160" fill="none" xmlns="http://www.w3.org/2000/svg">
    <g opacity="0.8" filter="url(#filter0_f_5331_37753)">
        <circle cx="80" cy="80" r="50.5" stroke="#3BD171" stroke-width="7"/>
    </g>
    <path d="M72.035 92.285L58.805 79.055C57.995 78.245 57.005 77.84 55.835 77.84C54.665 77.84 53.675 78.245 52.865 79.055C51.965 79.955 51.515 81.0125 51.515 82.2275C51.515 83.4425 51.92 84.455 52.73 85.265L69.2 101.735C69.92 102.455 70.865 102.815 72.035 102.815C73.205 102.815 74.15 102.455 74.87 101.735L107.27 69.335C108.08 68.525 108.485 67.535 108.485 66.365C108.485 65.195 108.035 64.16 107.135 63.26C106.325 62.45 105.312 62.045 104.097 62.045C102.882 62.045 101.825 62.495 100.925 63.395L72.035 92.285ZM80 134C72.35 134 65.24 132.627 58.67 129.882C52.1 127.137 46.385 123.335 41.525 118.475C36.665 113.615 32.8625 107.9 30.1175 101.33C27.3725 94.76 26 87.65 26 80C26 72.44 27.3725 65.375 30.1175 58.805C32.8625 52.235 36.665 46.52 41.525 41.66C46.385 36.8 52.1 32.975 58.67 30.185C65.24 27.395 72.35 26 80 26C87.56 26 94.625 27.395 101.195 30.185C107.765 32.975 113.48 36.8 118.34 41.66C123.2 46.52 127.025 52.235 129.815 58.805C132.605 65.375 134 72.44 134 80C134 87.65 132.605 94.76 129.815 101.33C127.025 107.9 123.2 113.615 118.34 118.475C113.48 123.335 107.765 127.137 101.195 129.882C94.625 132.627 87.56 134 80 134Z" fill="#3BD171"/>
    <defs>
        <filter id="filter0_f_5331_37753" x="10" y="10" width="140" height="140" filterUnits="userSpaceOnUse" color-interpolation-filters="sRGB">
            <feFlood flood-opacity="0" result="BackgroundImageFix"/>
            <feBlend mode="normal" in="SourceGraphic" in2="BackgroundImageFix" result="shape"/>
            <feGaussianBlur stdDeviation="8" result="effect1_foregroundBlur_5331_37753"/>
        </filter>
    </defs>
</svg>
