<svg width="1000" height="1000" viewBox="0 0 1000 1000" fill="none" xmlns="http://www.w3.org/2000/svg">
    <path d="M934.335 887.154C935.117 888.417 936.955 888.417 937.737 887.154L987.385 806.918C988.209 805.585 987.251 803.865 985.684 803.865H886.388C884.821 803.865 883.863 805.585 884.688 806.918L934.335 887.154Z" fill="#183527"/>
    <path d="M757.97 783.601C758.751 784.869 760.594 784.869 761.376 783.601L811.031 703.012C811.852 701.679 810.894 699.963 809.329 699.963H710.017C708.452 699.963 707.493 701.679 708.314 703.012L757.97 783.601Z" fill="#004B32"/>
    <path d="M697.849 678.971C698.63 680.239 700.473 680.239 701.255 678.971L750.91 598.382C751.731 597.049 750.773 595.333 749.208 595.333H649.896C648.331 595.333 647.372 597.049 648.193 598.382L697.849 678.971Z" fill="#7DA491"/>
    <path d="M698.213 887.139C698.992 888.407 700.834 888.41 701.618 887.144L751.26 806.918C752.084 805.585 751.126 803.865 749.559 803.865H650.613C649.049 803.865 648.09 805.58 648.909 806.912L698.213 887.139Z" fill="#A9DFC5"/>
    <path d="M517.853 991.769C518.634 993.037 520.477 993.037 521.258 991.769L570.914 911.18C571.735 909.847 570.777 908.13 569.211 908.13H469.9C468.335 908.13 467.376 909.847 468.197 911.18L517.853 991.769Z" fill="#7DA491"/>
    <path d="M876.396 570.33C877.177 571.598 879.02 571.598 879.801 570.33L929.457 489.741C930.278 488.409 929.32 486.692 927.754 486.692H828.443C826.878 486.692 825.919 488.409 826.74 489.741L876.396 570.33Z" fill="#7DA491"/>
    <path d="M701.973 706.751C701.195 705.479 699.347 705.476 698.565 706.746L648.915 787.326C648.094 788.658 649.052 790.375 650.618 790.375H749.58C751.142 790.375 752.101 788.664 751.286 787.331L701.973 706.751Z" fill="#7DA491"/>
    <path d="M640.774 604.292C639.993 603.025 638.15 603.025 637.369 604.292L587.713 684.882C586.892 686.214 587.85 687.931 589.416 687.931H688.727C690.292 687.931 691.251 686.214 690.43 684.882L640.774 604.292Z" fill="#7DA491"/>
    <path d="M761.005 606.117C760.223 604.849 758.38 604.849 757.599 606.117L707.943 686.706C707.122 688.038 708.081 689.755 709.646 689.755H808.958C810.523 689.755 811.481 688.038 810.66 686.706L761.005 606.117Z" fill="#A2C9B6"/>
    <path d="M759.555 394.669C758.774 393.402 756.931 393.402 756.15 394.669L706.494 475.258C705.673 476.591 706.632 478.308 708.197 478.308H807.508C809.073 478.308 810.032 476.591 809.211 475.258L759.555 394.669Z" fill="#7DA491"/>
    <path d="M819.311 498.933C818.532 497.665 816.69 497.662 815.907 498.928L766.265 579.155C765.44 580.487 766.398 582.207 767.965 582.207H866.912C868.476 582.207 869.435 580.492 868.616 579.16L819.311 498.933Z" fill="#183527"/>
    <path d="M464.766 498.203C463.985 496.936 462.142 496.936 461.361 498.203L411.705 578.793C410.884 580.125 411.843 581.842 413.408 581.842H512.719C514.284 581.842 515.243 580.125 514.422 578.793L464.766 498.203Z" fill="#7DA491"/>
    <path d="M700.165 916.362C699.383 915.094 697.54 915.094 696.759 916.362L647.103 996.951C646.282 998.283 647.241 1000 648.806 1000H748.118C749.683 1000 750.641 998.283 749.82 996.951L700.165 916.362Z" fill="#A2C9B6"/>
    <path d="M879.091 603.352C878.317 602.042 876.421 602.042 875.647 603.352L766.52 788.087C765.732 789.421 766.693 791.104 768.242 791.104H986.496C988.044 791.104 989.005 789.421 988.218 788.087L879.091 603.352Z" fill="#004B32"/>
    <path d="M583.201 707.976C582.428 706.666 580.534 706.665 579.759 707.973L470.278 892.713C469.488 894.046 470.449 895.732 471.999 895.732H690.609C692.157 895.732 693.119 894.048 692.331 892.715L583.201 707.976Z" fill="#A2C9B6"/>
    <path d="M519.287 780.536C520.061 781.845 521.955 781.847 522.73 780.538L632.21 595.799C633.001 594.466 632.04 592.779 630.49 592.779H411.88C410.331 592.779 409.37 594.463 410.158 595.796L519.287 780.536Z" fill="#A9DFC5"/>
    <path d="M845.609 626.837C846.39 628.105 848.234 628.105 849.015 626.837L867.888 596.194C868.709 594.861 867.75 593.145 866.185 593.145H828.439C826.874 593.145 825.915 594.861 826.736 596.194L845.609 626.837Z" fill="#7DA491"/>
    <path d="M786.57 626.837C787.351 628.105 789.195 628.105 789.976 626.837L808.849 596.194C809.669 594.861 808.711 593.145 807.146 593.145H769.4C767.835 593.145 766.876 594.861 767.697 596.194L786.57 626.837Z" fill="#7DA491"/>
    <path d="M814.475 679.72C815.253 680.983 817.087 680.99 817.873 679.732L837.065 649.067C837.898 647.735 836.941 646.006 835.369 646.006H797.291C795.726 646.006 794.768 647.723 795.588 649.055L814.475 679.72Z" fill="#7DA491"/>
    <path d="M638.089 785.06C638.87 786.329 640.714 786.329 641.495 785.06L660.368 754.418C661.189 753.085 660.23 751.369 658.665 751.369H620.919C619.354 751.369 618.396 753.085 619.216 754.418L638.089 785.06Z" fill="#7DA491"/>
    <path d="M669.957 730.375C670.738 731.643 672.581 731.643 673.362 730.375L692.235 699.732C693.056 698.4 692.098 696.683 690.533 696.683H652.786C651.221 696.683 650.263 698.4 651.083 699.732L669.957 730.375Z" fill="#7DA491"/>
    <path d="M609.843 730.375C610.624 731.643 612.468 731.643 613.249 730.375L632.122 699.732C632.943 698.4 631.984 696.683 630.419 696.683H592.673C591.108 696.683 590.149 698.4 590.97 699.732L609.843 730.375Z" fill="#7DA491"/>
    <path d="M637.003 992.128C637.785 993.396 639.628 993.396 640.409 992.128L659.282 961.485C660.103 960.152 659.144 958.436 657.579 958.436H619.833C618.268 958.436 617.31 960.152 618.13 961.485L637.003 992.128Z" fill="#7DA491"/>
    <path d="M668.152 938.539C668.933 939.807 670.777 939.807 671.558 938.539L690.431 907.896C691.251 906.564 690.293 904.847 688.728 904.847H650.982C649.417 904.847 648.458 906.564 649.279 907.896L668.152 938.539Z" fill="#7DA491"/>
    <path d="M608.772 938.561C609.55 939.824 611.383 939.83 612.17 938.573L631.362 907.908C632.195 906.576 631.238 904.847 629.666 904.847H591.588C590.023 904.847 589.065 906.564 589.885 907.896L608.772 938.561Z" fill="#7DA491"/>
    <path d="M757.601 572.879C758.382 574.147 760.226 574.147 761.007 572.879L779.88 542.236C780.701 540.903 779.742 539.187 778.177 539.187H740.431C738.866 539.187 737.907 540.903 738.728 542.236L757.601 572.879Z" fill="#7DA491"/>
    <path d="M786.206 523.629C786.985 524.907 788.841 524.907 789.621 523.629L808.513 492.649C809.325 491.316 808.366 489.608 806.805 489.608H769.022C767.461 489.608 766.501 491.316 767.314 492.649L786.206 523.629Z" fill="#7DA491"/>
    <path d="M727.178 523.629C727.958 524.907 729.814 524.907 730.594 523.629L749.485 492.649C750.298 491.316 749.339 489.608 747.778 489.608H709.994C708.433 489.608 707.474 491.316 708.287 492.649L727.178 523.629Z" fill="#7DA491"/>
    <path d="M877.47 472.66C878.257 473.917 880.091 473.911 880.868 472.648L899.755 441.983C900.576 440.65 899.617 438.934 898.052 438.934H859.974C858.403 438.934 857.445 440.663 858.279 441.995L877.47 472.66Z" fill="#7DA491"/>
    <path d="M727.906 417.94C728.687 419.208 730.531 419.208 731.312 417.94L750.185 387.297C751.005 385.965 750.047 384.249 748.482 384.249H710.736C709.171 384.249 708.212 385.965 709.033 387.297L727.906 417.94Z" fill="#7DA491"/>
    <path d="M819.669 602.45C818.891 601.188 817.058 601.181 816.271 602.438L797.08 633.103C796.246 634.435 797.203 636.164 798.775 636.164H836.853C838.418 636.164 839.376 634.448 838.556 633.115L819.669 602.45Z" fill="#A9DFC5"/>
    <path d="M640.055 706.772C639.275 705.494 637.419 705.494 636.639 706.772L617.748 737.752C616.935 739.084 617.894 740.793 619.455 740.793H657.239C658.8 740.793 659.759 739.084 658.946 737.752L640.055 706.772Z" fill="#7DA491"/>
    <path d="M641.863 912.752C641.084 911.473 639.228 911.473 638.448 912.752L619.556 943.731C618.744 945.064 619.703 946.772 621.264 946.772H659.047C660.608 946.772 661.567 945.064 660.755 943.731L641.863 912.752Z" fill="#7DA491"/>
    <path d="M494.469 757.445C493.689 756.167 491.833 756.167 491.053 757.445L472.162 788.425C471.349 789.757 472.308 791.466 473.869 791.466H511.653C513.214 791.466 514.173 789.757 513.36 788.425L494.469 757.445Z" fill="#7DA491"/>
    <path d="M759.921 494.926C759.14 493.657 757.296 493.657 756.515 494.926L737.642 525.568C736.821 526.901 737.78 528.617 739.345 528.617H777.091C778.656 528.617 779.615 526.901 778.794 525.568L759.921 494.926Z" fill="#7DA491"/>
    <path d="M545.886 549.611C545.105 548.343 543.261 548.343 542.48 549.611L523.607 580.254C522.786 581.586 523.745 583.303 525.31 583.303H563.056C564.621 583.303 565.58 581.586 564.759 580.254L545.886 549.611Z" fill="#7DA491"/>
    <path d="M849.361 442.77C848.583 441.507 846.749 441.5 845.962 442.758L826.771 473.422C825.937 474.754 826.895 476.483 828.466 476.483H866.544C868.109 476.483 869.068 474.767 868.247 473.435L849.361 442.77Z" fill="#A2C9B6"/>
    <path d="M634.466 577.26C635.247 578.528 637.091 578.528 637.872 577.26L687.527 496.671C688.349 495.338 687.39 493.622 685.825 493.622H586.513C584.948 493.622 583.989 495.338 584.81 496.671L634.466 577.26Z" fill="#7DA491"/>
    <path d="M457.736 473.722C458.517 474.99 460.36 474.99 461.141 473.722L510.797 393.133C511.618 391.8 510.659 390.084 509.094 390.084H409.783C408.218 390.084 407.259 391.8 408.08 393.133L457.736 473.722Z" fill="#7DA491"/>
    <path d="M397.615 369.091C398.396 370.359 400.239 370.359 401.02 369.091L450.676 288.502C451.497 287.169 450.538 285.453 448.973 285.453H349.662C348.096 285.453 347.138 287.169 347.959 288.502L397.615 369.091Z" fill="#7DA491"/>
    <path d="M398.341 577.26C399.122 578.528 400.966 578.528 401.747 577.26L451.402 496.671C452.224 495.338 451.265 493.622 449.7 493.622H350.388C348.823 493.622 347.864 495.338 348.685 496.671L398.341 577.26Z" fill="#7DA491"/>
    <path d="M401.747 396.859C400.966 395.591 399.122 395.591 398.341 396.859L348.685 477.448C347.864 478.78 348.823 480.497 350.388 480.497H449.7C451.265 480.497 452.224 478.78 451.402 477.448L401.747 396.859Z" fill="#A9DFC5"/>
    <path d="M459.696 84.7913C458.915 83.5235 457.072 83.5235 456.29 84.7913L406.635 165.381C405.814 166.713 406.772 168.43 408.337 168.43H507.649C509.214 168.43 510.173 166.713 509.352 165.381L459.696 84.7913Z" fill="#7DA491"/>
    <path d="M399.934 606.483C399.153 605.215 397.31 605.215 396.529 606.483L346.873 687.072C346.052 688.404 347.011 690.121 348.576 690.121H447.887C449.452 690.121 450.411 688.404 449.59 687.072L399.934 606.483Z" fill="#183527"/>
    <path d="M426.97 733.643C427.742 734.916 429.585 734.93 430.376 733.667L449.553 703.025C450.387 701.692 449.429 699.963 447.858 699.963H410.112C408.553 699.963 407.593 701.667 408.401 703L426.97 733.643Z" fill="#7DA491"/>
    <path d="M545.732 316.992C546.519 318.249 548.352 318.243 549.13 316.98L568.017 286.315C568.837 284.983 567.879 283.266 566.314 283.266H528.236C526.664 283.266 525.707 284.995 526.54 286.327L545.732 316.992Z" fill="#7DA491"/>
    <path d="M486.351 316.958C487.132 318.226 488.976 318.226 489.757 316.958L508.63 286.315C509.451 284.983 508.492 283.266 506.927 283.266H469.181C467.616 283.266 466.657 284.983 467.478 286.315L486.351 316.958Z" fill="#7DA491"/>
    <path d="M514.597 369.819C515.378 371.087 517.222 371.087 518.003 369.819L536.876 339.176C537.697 337.844 536.738 336.128 535.173 336.128H497.427C495.862 336.128 494.903 337.844 495.724 339.176L514.597 369.819Z" fill="#7DA491"/>
    <path d="M337.859 475.18C338.64 476.449 340.484 476.449 341.265 475.18L360.138 444.538C360.959 443.205 360 441.489 358.435 441.489H320.689C319.124 441.489 318.165 443.205 318.986 444.538L337.859 475.18Z" fill="#7DA491"/>
    <path d="M370.091 420.529C370.878 421.786 372.712 421.78 373.489 420.517L392.376 389.852C393.197 388.52 392.238 386.803 390.673 386.803H352.595C351.024 386.803 350.066 388.532 350.9 389.864L370.091 420.529Z" fill="#7DA491"/>
    <path d="M309.624 420.517C310.401 421.78 312.235 421.786 313.022 420.529L332.213 389.864C333.047 388.532 332.089 386.803 330.518 386.803H292.44C290.875 386.803 289.916 388.52 290.737 389.852L309.624 420.517Z" fill="#7DA491"/>
    <path d="M336.784 682.272C337.562 683.535 339.395 683.541 340.182 682.284L359.373 651.619C360.207 650.287 359.249 648.558 357.678 648.558H319.6C318.035 648.558 317.076 650.275 317.897 651.607L336.784 682.272Z" fill="#7DA491"/>
    <path d="M367.925 628.661C368.706 629.929 370.55 629.929 371.331 628.661L390.204 598.018C391.025 596.686 390.066 594.969 388.501 594.969H350.755C349.19 594.969 348.231 596.686 349.052 598.018L367.925 628.661Z" fill="#7DA491"/>
    <path d="M308.886 628.661C309.667 629.929 311.511 629.929 312.292 628.661L331.165 598.018C331.986 596.686 331.027 594.969 329.462 594.969H291.716C290.151 594.969 289.192 596.686 290.013 598.018L308.886 628.661Z" fill="#7DA491"/>
    <path d="M457.732 263.035C458.519 264.292 460.352 264.286 461.13 263.023L480.017 232.358C480.837 231.026 479.879 229.309 478.314 229.309H440.236C438.664 229.309 437.707 231.038 438.54 232.37L457.732 263.035Z" fill="#7DA491"/>
    <path d="M426.963 213.445C427.741 214.708 429.575 214.714 430.362 213.457L449.553 182.792C450.387 181.46 449.429 179.731 447.858 179.731H409.78C408.215 179.731 407.256 181.447 408.077 182.78L426.963 213.445Z" fill="#7DA491"/>
    <path d="M577.253 162.746C578.034 164.014 579.878 164.014 580.659 162.746L599.532 132.103C600.353 130.771 599.394 129.054 597.829 129.054H560.083C558.518 129.054 557.56 130.771 558.38 132.103L577.253 162.746Z" fill="#7DA491"/>
    <path d="M427.675 108.061C428.456 109.329 430.3 109.329 431.081 108.061L449.954 77.4186C450.775 76.0861 449.816 74.3698 448.251 74.3698H410.505C408.94 74.3698 407.981 76.0861 408.802 77.4186L427.675 108.061Z" fill="#7DA491"/>
    <path d="M519.448 292.595C518.667 291.326 516.824 291.326 516.042 292.595L497.169 323.237C496.349 324.57 497.307 326.286 498.872 326.286H536.618C538.183 326.286 539.142 324.57 538.321 323.237L519.448 292.595Z" fill="#7DA491"/>
    <path d="M341.978 602.849C341.202 601.576 339.356 601.57 338.571 602.837L319.361 633.839C318.535 635.171 319.493 636.893 321.061 636.893H359.176C360.737 636.893 361.696 635.184 360.884 633.851L341.978 602.849Z" fill="#A9DFC5"/>
    <path d="M194.234 447.567C193.455 446.289 191.599 446.289 190.819 447.567L171.927 478.547C171.115 479.879 172.074 481.588 173.635 481.588H211.418C212.979 481.588 213.939 479.879 213.126 478.547L194.234 447.567Z" fill="#7DA491"/>
    <path d="M460.044 185.026C459.266 183.763 457.433 183.756 456.646 185.013L437.455 215.678C436.621 217.01 437.578 218.739 439.15 218.739H477.228C478.793 218.739 479.751 217.023 478.931 215.69L460.044 185.026Z" fill="#A2C9B6"/>
    <path d="M549.144 132.914C548.363 131.646 546.519 131.646 545.738 132.914L526.865 163.557C526.044 164.889 527.003 166.605 528.568 166.605H566.314C567.879 166.605 568.837 164.889 568.017 163.557L549.144 132.914Z" fill="#7DA491"/>
    <path d="M34.8841 70.5511C34.0979 69.2898 32.2594 69.2963 31.4821 70.5631L12.2264 101.946C11.4087 103.279 12.3676 104.992 13.9311 104.992H52.7482C54.318 104.992 55.2759 103.266 54.4455 101.934L34.8841 70.5511Z" fill="#183527"/>
    <path d="M111.286 115.074C110.51 113.797 108.66 113.791 107.875 115.062L88.2951 146.782C87.4726 148.115 88.4311 149.833 89.997 149.833H128.851C130.41 149.833 131.37 148.127 130.56 146.794L111.286 115.074Z" fill="#004B32"/>
    <path d="M137.364 160.612C136.586 159.345 134.748 159.339 133.962 160.6L114.4 191.983C113.57 193.315 114.528 195.041 116.097 195.041H154.915C156.478 195.041 157.437 193.328 156.619 191.995L137.364 160.612Z" fill="#7DA491"/>
    <path d="M137.004 70.5631C136.227 69.2963 134.388 69.2898 133.602 70.5511L114.041 101.934C113.21 103.266 114.168 104.992 115.738 104.992H154.555C156.119 104.992 157.078 103.279 156.26 101.946L137.004 70.5631Z" fill="#A9DFC5"/>
    <path d="M214.88 25.346C214.094 24.0847 212.255 24.0912 211.478 25.358L192.222 56.7412C191.405 58.0738 192.364 59.7871 193.927 59.7871H232.744C234.314 59.7871 235.272 58.0614 234.442 56.7292L214.88 25.346Z" fill="#7DA491"/>
    <path d="M60.223 207.639C59.4457 206.372 57.6072 206.366 56.821 207.627L37.2596 239.01C36.4292 240.343 37.3871 242.068 38.9569 242.068H77.7741C79.3375 242.068 80.2964 240.355 79.4788 239.022L60.223 207.639Z" fill="#7DA491"/>
    <path d="M133.602 145.265C134.388 146.527 136.227 146.52 137.004 145.253L156.26 113.87C157.078 112.537 156.119 110.824 154.555 110.824H115.738C114.168 110.824 113.21 112.55 114.041 113.882L133.602 145.265Z" fill="#7DA491"/>
    <path d="M160.031 189.711C160.816 190.983 162.667 190.976 163.442 189.699L182.716 157.979C183.526 156.646 182.567 154.94 181.007 154.94H142.153C140.587 154.94 139.629 156.658 140.451 157.991L160.031 189.711Z" fill="#7DA491"/>
    <path d="M107.9 188.639C108.677 189.906 110.516 189.912 111.302 188.651L130.863 157.268C131.694 155.936 130.736 154.21 129.166 154.21H90.349C88.7855 154.21 87.8267 155.923 88.6443 157.256L107.9 188.639Z" fill="#A2C9B6"/>
    <path d="M108.606 280.157C109.392 281.418 111.231 281.412 112.008 280.145L131.264 248.762C132.082 247.429 131.123 245.716 129.559 245.716H90.742C89.1722 245.716 88.2143 247.442 89.0447 248.774L108.606 280.157Z" fill="#7DA491"/>
    <path d="M82.8906 235.281C83.6753 236.552 85.526 236.545 86.3017 235.269L105.576 203.548C106.385 202.215 105.426 200.509 103.866 200.509H65.0127C63.4468 200.509 62.4883 202.227 63.3108 203.56L82.8906 235.281Z" fill="#183527"/>
    <path d="M236.09 235.315C236.877 236.576 238.715 236.57 239.492 235.303L258.748 203.92C259.566 202.587 258.607 200.874 257.044 200.874H218.226C216.657 200.874 215.699 202.6 216.529 203.932L236.09 235.315Z" fill="#7DA491"/>
    <path d="M134.312 54.8187C135.097 56.0899 136.948 56.0834 137.724 54.8068L156.997 23.0861C157.807 21.7533 156.848 20.0476 155.288 20.0476H116.435C114.869 20.0476 113.91 21.7656 114.733 23.0981L134.312 54.8187Z" fill="#A2C9B6"/>
    <path d="M56.8137 189.937C57.5857 191.247 59.4806 191.251 60.2569 189.942L105.629 113.481C106.421 112.147 105.46 110.46 103.909 110.46H13.5005C11.9531 110.46 10.9919 112.142 11.7772 113.475L56.8137 189.937Z" fill="#004B32"/>
    <path d="M184.653 144.734C185.425 146.044 187.32 146.047 188.097 144.739L233.469 68.2775C234.26 66.9443 233.3 65.2569 231.749 65.2569H141.34C139.793 65.2569 138.832 66.9387 139.617 68.2719L184.653 144.734Z" fill="#A2C9B6"/>
    <path d="M214.179 116.654C213.402 115.346 211.508 115.349 210.736 116.66L165.699 193.122C164.914 194.455 165.875 196.137 167.422 196.137H257.831C259.382 196.137 260.342 194.449 259.551 193.116L214.179 116.654Z" fill="#A9DFC5"/>
    <path d="M124.368 2.85479C123.581 1.56365 121.701 1.57928 120.936 2.88333L114.98 13.0286C114.198 14.3618 115.159 16.041 116.705 16.041H128.845C130.406 16.041 131.365 14.3328 130.552 13L124.368 2.85479Z" fill="#7DA491"/>
    <path d="M73.2663 182.814C72.4832 181.558 70.6554 181.558 69.8724 182.814L63.6989 192.711C62.8679 194.043 63.8257 195.77 65.3958 195.77H77.7429C79.313 195.77 80.2708 194.043 79.4399 192.711L73.2663 182.814Z" fill="#7DA491"/>
    <path d="M98.9773 182.814C98.1942 181.558 96.3664 181.558 95.5834 182.814L89.4098 192.711C88.5789 194.043 89.5367 195.77 91.1067 195.77H103.454C105.024 195.77 105.982 194.043 105.151 192.711L98.9773 182.814Z" fill="#7DA491"/>
    <path d="M86.6648 160.209C85.8817 158.954 84.0539 158.954 83.2709 160.209L77.0973 170.107C76.2664 171.439 77.2242 173.165 78.7943 173.165H91.1414C92.7115 173.165 93.6693 171.439 92.8383 170.107L86.6648 160.209Z" fill="#7DA491"/>
    <path d="M163.083 114.64C162.3 113.385 160.472 113.385 159.689 114.64L153.515 124.537C152.684 125.869 153.642 127.596 155.212 127.596H167.559C169.129 127.596 170.087 125.869 169.256 124.537L163.083 114.64Z" fill="#7DA491"/>
    <path d="M149.319 138.137C148.554 136.833 146.674 136.817 145.887 138.109L139.702 148.254C138.89 149.587 139.849 151.295 141.41 151.295H153.55C155.096 151.295 156.057 149.616 155.275 148.282L149.319 138.137Z" fill="#7DA491"/>
    <path d="M175.075 138.109C174.288 136.818 172.408 136.833 171.643 138.137L165.687 148.282C164.905 149.616 165.866 151.295 167.412 151.295H179.552C181.113 151.295 182.072 149.587 181.26 148.254L175.075 138.109Z" fill="#7DA491"/>
    <path d="M163.442 24.9563C162.659 23.701 160.831 23.701 160.048 24.9563L153.875 34.8536C153.044 36.1858 154.002 37.9121 155.572 37.9121H167.919C169.489 37.9121 170.447 36.1858 169.616 34.8536L163.442 24.9563Z" fill="#7DA491"/>
    <path d="M150.048 48.2884C149.265 47.033 147.437 47.033 146.654 48.2884L140.48 58.1857C139.649 59.5178 140.607 61.2441 142.177 61.2441H154.524C156.094 61.2441 157.052 59.5178 156.221 58.1857L150.048 48.2884Z" fill="#7DA491"/>
    <path d="M175.743 48.3686C174.973 47.0877 173.122 47.0722 172.331 48.34L166.19 58.1857C165.359 59.5178 166.317 61.2441 167.887 61.2441H179.942C181.497 61.2441 182.457 59.5473 181.657 58.2143L175.743 48.3686Z" fill="#7DA491"/>
    <path d="M111.308 206.223C110.529 204.945 108.672 204.945 107.893 206.223L101.676 216.422C100.864 217.755 101.823 219.463 103.384 219.463H115.817C117.378 219.463 118.338 217.755 117.525 216.422L111.308 206.223Z" fill="#7DA491"/>
    <path d="M98.9773 227.656C98.1942 226.4 96.3664 226.4 95.5834 227.656L89.4098 237.553C88.5789 238.885 89.5367 240.611 91.1067 240.611H103.454C105.024 240.611 105.982 238.885 105.151 237.553L98.9773 227.656Z" fill="#7DA491"/>
    <path d="M124.357 227.707C123.566 226.439 121.715 226.455 120.946 227.736L115.032 237.582C114.231 238.915 115.191 240.611 116.746 240.611H128.802C130.372 240.611 131.329 238.885 130.498 237.553L124.357 227.707Z" fill="#7DA491"/>
    <path d="M59.5046 249.527C58.7216 248.271 56.8938 248.271 56.1107 249.527L49.9372 259.424C49.1062 260.756 50.064 262.482 51.6341 262.482H63.9812C65.5513 262.482 66.5091 260.756 65.6782 259.424L59.5046 249.527Z" fill="#7DA491"/>
    <path d="M124.321 273.306C123.551 272.025 121.7 272.01 120.909 273.277L114.768 283.123C113.937 284.455 114.895 286.182 116.465 286.182H128.52C130.075 286.182 131.035 284.485 130.235 283.152L124.321 273.306Z" fill="#7DA491"/>
    <path d="M82.5482 190.497C83.3313 191.753 85.1591 191.753 85.9421 190.497L92.1157 180.6C92.9466 179.268 91.9888 177.541 90.4187 177.541H78.0716C76.5015 177.541 75.5437 179.268 76.3746 180.6L82.5482 190.497Z" fill="#A9DFC5"/>
    <path d="M160.378 145.238C161.169 146.505 163.02 146.49 163.79 145.209L169.704 135.363C170.504 134.03 169.544 132.334 167.989 132.334H155.934C154.364 132.334 153.406 134.06 154.237 135.392L160.378 145.238Z" fill="#7DA491"/>
    <path d="M159.326 56.3401C160.109 57.5954 161.936 57.5954 162.719 56.34L168.893 46.4427C169.724 45.1106 168.766 43.3842 167.196 43.3842H154.849C153.279 43.3842 152.321 45.1106 153.152 46.4427L159.326 56.3401Z" fill="#7DA491"/>
    <path d="M223.06 123.418C223.843 124.674 225.671 124.674 226.454 123.418L232.627 113.521C233.458 112.189 232.501 110.462 230.93 110.462H218.583C217.013 110.462 216.055 112.189 216.886 113.521L223.06 123.418Z" fill="#7DA491"/>
    <path d="M108.259 236.797C109.042 238.052 110.87 238.052 111.653 236.797L117.827 226.9C118.658 225.568 117.7 223.841 116.13 223.841H103.783C102.213 223.841 101.255 225.568 102.086 226.9L108.259 236.797Z" fill="#7DA491"/>
    <path d="M200.974 213.102C201.757 214.357 203.585 214.357 204.368 213.102L210.541 203.205C211.372 201.872 210.415 200.146 208.844 200.146H196.497C194.927 200.146 193.969 201.872 194.8 203.205L200.974 213.102Z" fill="#7DA491"/>
    <path d="M69.8724 259.402C70.6554 260.657 72.4832 260.657 73.2663 259.402L79.4399 249.504C80.2708 248.172 79.313 246.446 77.7429 246.446H65.3958C63.8257 246.446 62.8679 248.172 63.6989 249.504L69.8724 259.402Z" fill="#A2C9B6"/>
    <path d="M164.536 204.348C163.75 203.087 161.912 203.093 161.134 204.36L141.879 235.743C141.061 237.076 142.02 238.789 143.583 238.789H182.401C183.97 238.789 184.928 237.063 184.098 235.731L164.536 204.348Z" fill="#7DA491"/>
    <path d="M240.941 249.168C240.158 247.912 238.329 247.912 237.546 249.168L217.972 280.573C217.141 281.905 218.099 283.631 219.669 283.631H258.819C260.388 283.631 261.346 281.905 260.516 280.573L240.941 249.168Z" fill="#7DA491"/>
    <path d="M267.016 294.405C266.239 293.138 264.4 293.132 263.614 294.393L244.053 325.776C243.222 327.108 244.18 328.834 245.75 328.834H284.567C286.13 328.834 287.089 327.121 286.272 325.788L267.016 294.405Z" fill="#7DA491"/>
    <path d="M266.653 204.36C265.875 203.093 264.037 203.087 263.251 204.348L243.689 235.731C242.859 237.063 243.817 238.789 245.386 238.789H284.204C285.767 238.789 286.726 237.076 285.908 235.743L266.653 204.36Z" fill="#7DA491"/>
    <path d="M263.251 279.063C264.037 280.324 265.875 280.318 266.653 279.051L285.908 247.668C286.726 246.335 285.767 244.622 284.204 244.622H245.386C243.817 244.622 242.859 246.348 243.689 247.68L263.251 279.063Z" fill="#A9DFC5"/>
    <path d="M238.25 414.283C239.035 415.554 240.885 415.547 241.661 414.271L260.935 382.55C261.745 381.217 260.785 379.511 259.226 379.511H220.372C218.806 379.511 217.848 381.229 218.67 382.562L238.25 414.283Z" fill="#7DA491"/>
    <path d="M263.983 188.619C264.764 189.891 266.612 189.891 267.393 188.619L286.635 157.258C287.453 155.925 286.494 154.212 284.93 154.212H246.446C244.882 154.212 243.923 155.925 244.741 157.258L263.983 188.619Z" fill="#183527"/>
    <path d="M254.009 136.93C253.219 135.662 251.367 135.678 250.598 136.958L244.684 146.804C243.883 148.137 244.844 149.834 246.399 149.834H258.454C260.024 149.834 260.982 148.108 260.151 146.775L254.009 136.93Z" fill="#7DA491"/>
    <path d="M202.915 316.974C202.132 315.719 200.304 315.719 199.521 316.974L193.347 326.871C192.516 328.203 193.474 329.93 195.044 329.93H207.391C208.961 329.93 209.919 328.203 209.088 326.871L202.915 316.974Z" fill="#7DA491"/>
    <path d="M228.63 316.974C227.847 315.719 226.019 315.719 225.236 316.974L219.062 326.871C218.231 328.203 219.189 329.93 220.759 329.93H233.106C234.676 329.93 235.634 328.203 234.803 326.871L228.63 316.974Z" fill="#7DA491"/>
    <path d="M216.317 294.008C215.534 292.753 213.706 292.753 212.923 294.008L206.75 303.905C205.919 305.238 206.876 306.964 208.447 306.964H220.794C222.364 306.964 223.322 305.238 222.491 303.905L216.317 294.008Z" fill="#7DA491"/>
    <path d="M292.735 248.433C291.952 247.178 290.124 247.178 289.341 248.433L283.168 258.33C282.337 259.662 283.294 261.389 284.865 261.389H297.212C298.782 261.389 299.74 259.662 298.909 258.33L292.735 248.433Z" fill="#7DA491"/>
    <path d="M278.966 272.132C278.182 270.877 276.355 270.877 275.572 272.132L269.398 282.029C268.567 283.362 269.525 285.088 271.095 285.088H283.442C285.012 285.088 285.97 283.362 285.139 282.029L278.966 272.132Z" fill="#7DA491"/>
    <path d="M305.032 272.212C304.262 270.931 302.411 270.916 301.62 272.184L295.479 282.029C294.648 283.362 295.606 285.088 297.176 285.088H309.231C310.786 285.088 311.746 283.391 310.946 282.058L305.032 272.212Z" fill="#7DA491"/>
    <path d="M293.105 158.832C292.326 157.553 290.469 157.553 289.69 158.832L283.473 169.03C282.661 170.363 283.62 172.071 285.181 172.071H297.614C299.175 172.071 300.134 170.363 299.322 169.03L293.105 158.832Z" fill="#7DA491"/>
    <path d="M279.707 182.165C278.927 180.886 277.071 180.886 276.291 182.165L270.074 192.363C269.262 193.696 270.221 195.404 271.782 195.404H284.216C285.777 195.404 286.736 193.696 285.924 192.363L279.707 182.165Z" fill="#7DA491"/>
    <path d="M305.418 182.165C304.638 180.886 302.782 180.886 302.002 182.165L295.786 192.363C294.973 193.696 295.932 195.404 297.493 195.404H309.927C311.488 195.404 312.447 193.696 311.635 192.363L305.418 182.165Z" fill="#7DA491"/>
    <path d="M240.942 340.306C240.159 339.051 238.331 339.051 237.548 340.306L231.375 350.203C230.544 351.535 231.502 353.262 233.072 353.262H245.419C246.989 353.262 247.947 351.535 247.116 350.203L240.942 340.306Z" fill="#7DA491"/>
    <path d="M254.02 361.585C253.233 360.294 251.353 360.31 250.588 361.614L244.633 371.759C243.85 373.092 244.811 374.771 246.357 374.771H258.497C260.058 374.771 261.017 373.063 260.205 371.73L254.02 361.585Z" fill="#7DA491"/>
    <path d="M189.189 383.737C188.398 382.47 186.547 382.485 185.778 383.766L179.864 393.612C179.063 394.945 180.023 396.642 181.578 396.642H193.634C195.204 396.642 196.161 394.915 195.331 393.583L189.189 383.737Z" fill="#7DA491"/>
    <path d="M253.988 407.102C253.209 405.824 251.352 405.824 250.573 407.102L244.356 417.301C243.543 418.634 244.503 420.342 246.064 420.342H258.497C260.058 420.342 261.017 418.634 260.205 417.301L253.988 407.102Z" fill="#7DA491"/>
    <path d="M212.211 324.211C212.981 325.492 214.832 325.507 215.623 324.24L221.764 314.394C222.595 313.062 221.637 311.335 220.067 311.335H208.012C206.457 311.335 205.497 313.032 206.297 314.365L212.211 324.211Z" fill="#7DA491"/>
    <path d="M288.978 190.133C289.761 191.388 291.589 191.388 292.372 190.133L298.545 180.236C299.376 178.904 298.418 177.177 296.848 177.177H284.501C282.931 177.177 281.973 178.904 282.804 180.236L288.978 190.133Z" fill="#A9DFC5"/>
    <path d="M352.727 257.132C353.496 258.413 355.348 258.428 356.138 257.161L362.28 247.315C363.111 245.983 362.153 244.256 360.583 244.256H348.528C346.973 244.256 346.012 245.953 346.813 247.286L352.727 257.132Z" fill="#7DA491"/>
    <path d="M238.227 370.821C239.014 372.112 240.894 372.097 241.659 370.793L247.614 360.647C248.397 359.314 247.436 357.635 245.89 357.635H233.75C232.189 357.635 231.23 359.343 232.042 360.676L238.227 370.821Z" fill="#A2C9B6"/>
    <path d="M330.622 347.262C331.405 348.517 333.233 348.517 334.016 347.262L340.19 337.365C341.021 336.032 340.063 334.306 338.493 334.306H326.146C324.576 334.306 323.618 336.032 324.449 337.365L330.622 347.262Z" fill="#7DA491"/>
    <path d="M199.51 393.478C200.29 394.757 202.146 394.757 202.926 393.478L209.142 383.28C209.955 381.947 208.995 380.238 207.435 380.238H195.001C193.44 380.238 192.481 381.947 193.293 383.28L199.51 393.478Z" fill="#7DA491"/>
</svg>
