<svg width="1000" height="1000" viewBox="0 0 1000 1000" fill="none" xmlns="http://www.w3.org/2000/svg">
<g clip-path="url(#clip0_1502_44964)">
<path d="M939.968 882.66L993.948 795.379H885.988L939.968 882.66Z" fill="#2C245F"/>
<path d="M761.135 777.626L815.116 689.975H707.155L761.135 777.626Z" fill="#351F78"/>
<path d="M700.176 671.483L754.156 583.832H646.195L700.176 671.483Z" fill="#6846C7"/>
<path d="M700.544 882.66L754.524 795.379H646.931L700.544 882.66Z" fill="#9576EC"/>
<path d="M517.671 988.803L571.651 901.152H463.69L517.671 988.803Z" fill="#6846C7"/>
<path d="M881.214 561.272L935.195 473.621H827.234L881.214 561.272Z" fill="#6846C7"/>
<path d="M700.911 694.044L646.931 781.695H754.524L700.911 694.044Z" fill="#6846C7"/>
<path d="M638.854 590.119L584.874 677.77H692.834L638.854 590.119Z" fill="#6846C7"/>
<path d="M760.767 591.969L706.787 679.62H814.748L760.767 591.969Z" fill="#3C2C69"/>
<path d="M759.297 377.465L705.317 465.116H813.278L759.297 377.465Z" fill="#6846C7"/>
<path d="M819.888 483.236L765.908 570.517H873.501L819.888 483.236Z" fill="#2C245F"/>
<path d="M460.386 482.495L406.406 570.146H514.367L460.386 482.495Z" fill="#6846C7"/>
<path d="M699.074 906.699L645.094 994.35H753.054L699.074 906.699Z" fill="#3C2C69"/>
<path d="M880.478 589.011L766.275 782.435H994.682L880.478 589.011Z" fill="#351F78"/>
<path d="M580.466 695.152L465.895 888.576H694.669L580.466 695.152Z" fill="#3C2C69"/>
<path d="M519.142 774.665L633.712 581.242H404.938L519.142 774.665Z" fill="#9576EC"/>
<path d="M849.998 618.596L872.765 581.613H827.231L849.998 618.596Z" fill="#6846C7"/>
<path d="M790.142 618.596L812.91 581.613H767.375L790.142 618.596Z" fill="#6846C7"/>
<path d="M818.419 672.222L841.553 635.239H795.652L818.419 672.222Z" fill="#6846C7"/>
<path d="M639.585 779.108L662.353 742.124H616.818L639.585 779.108Z" fill="#6846C7"/>
<path d="M671.902 723.631L694.669 686.648H649.135L671.902 723.631Z" fill="#6846C7"/>
<path d="M610.945 723.631L633.712 686.648H588.178L610.945 723.631Z" fill="#6846C7"/>
<path d="M638.484 989.17L661.251 952.186H615.717L638.484 989.17Z" fill="#6846C7"/>
<path d="M670.067 934.806L692.834 897.822H647.3L670.067 934.806Z" fill="#6846C7"/>
<path d="M609.841 934.806L632.976 897.822H587.074L609.841 934.806Z" fill="#6846C7"/>
<path d="M760.765 563.859L783.533 526.876H737.998L760.765 563.859Z" fill="#6846C7"/>
<path d="M789.777 513.933L812.545 476.579H767.01L789.777 513.933Z" fill="#6846C7"/>
<path d="M729.922 513.933L752.689 476.579H707.155L729.922 513.933Z" fill="#6846C7"/>
<path d="M882.314 462.156L905.081 425.172H859.18L882.314 462.156Z" fill="#6846C7"/>
<path d="M730.655 406.681L753.423 369.697H707.888L730.655 406.681Z" fill="#6846C7"/>
<path d="M820.256 588.271L797.122 625.255H843.023L820.256 588.271Z" fill="#9576EC"/>
<path d="M638.116 694.042L615.349 731.396H660.883L638.116 694.042Z" fill="#6846C7"/>
<path d="M639.953 903L617.186 940.353H662.721L639.953 903Z" fill="#6846C7"/>
<path d="M490.498 745.448L467.731 782.801H513.265L490.498 745.448Z" fill="#6846C7"/>
<path d="M759.664 479.17L736.897 516.153H782.431L759.664 479.17Z" fill="#6846C7"/>
<path d="M542.64 534.645L519.873 571.628H565.407L542.64 534.645Z" fill="#6846C7"/>
<path d="M850.366 426.282L827.232 463.265H873.133L850.366 426.282Z" fill="#3C2C69"/>
<path d="M635.915 568.302L689.895 480.651H581.934L635.915 568.302Z" fill="#6846C7"/>
<path d="M456.714 463.267L510.694 375.616H402.733L456.714 463.267Z" fill="#6846C7"/>
<path d="M395.757 357.124L449.737 269.473H341.777L395.757 357.124Z" fill="#6846C7"/>
<path d="M396.49 568.302L450.47 480.651H342.51L396.49 568.302Z" fill="#6846C7"/>
<path d="M396.49 379.686L342.51 467.336H450.47L396.49 379.686Z" fill="#9576EC"/>
<path d="M455.247 63.1063L401.267 150.757H509.228L455.247 63.1063Z" fill="#6846C7"/>
<path d="M394.655 592.341L340.675 679.992H448.636L394.655 592.341Z" fill="#2C245F"/>
<path d="M425.501 726.96L448.636 689.976H403.101L425.501 726.96Z" fill="#6846C7"/>
<path d="M545.947 304.238L568.715 267.254H522.813L545.947 304.238Z" fill="#6846C7"/>
<path d="M485.724 304.238L508.491 267.254H462.957L485.724 304.238Z" fill="#6846C7"/>
<path d="M514.368 357.864L537.135 320.88H491.6L514.368 357.864Z" fill="#6846C7"/>
<path d="M335.167 464.748L357.934 427.764H312.4L335.167 464.748Z" fill="#6846C7"/>
<path d="M367.848 409.273L390.615 372.289H344.714L367.848 409.273Z" fill="#6846C7"/>
<path d="M306.524 409.273L329.659 372.289H283.757L306.524 409.273Z" fill="#6846C7"/>
<path d="M334.066 674.811L357.201 637.828H311.299L334.066 674.811Z" fill="#6846C7"/>
<path d="M365.645 620.447L388.412 583.464H342.878L365.645 620.447Z" fill="#6846C7"/>
<path d="M305.79 620.447L328.557 583.464H283.023L305.79 620.447Z" fill="#6846C7"/>
<path d="M456.715 249.5L479.482 212.517H433.581L456.715 249.5Z" fill="#6846C7"/>
<path d="M425.501 199.206L448.636 162.222H402.734L425.501 199.206Z" fill="#6846C7"/>
<path d="M577.895 147.797L600.663 110.814H555.128L577.895 147.797Z" fill="#6846C7"/>
<path d="M426.237 92.322L449.004 55.3385H403.47L426.237 92.322Z" fill="#6846C7"/>
<path d="M515.834 273.912L493.067 310.896H538.601L515.834 273.912Z" fill="#6846C7"/>
<path d="M335.9 588.641L312.766 625.994H358.667L335.9 588.641Z" fill="#9576EC"/>
<path d="M186.076 431.089L163.309 468.443H208.843L186.076 431.089Z" fill="#6846C7"/>
<path d="M455.614 164.811L432.479 201.795H478.381L455.614 164.811Z" fill="#3C2C69"/>
<path d="M545.947 111.923L523.18 148.907H568.715L545.947 111.923Z" fill="#6846C7"/>
<path d="M24.5035 48.6802L1.36908 86.4034H48.0051L24.5035 48.6802Z" fill="#2C245F"/>
<path d="M101.987 93.799L78.4855 131.892H125.122L101.987 93.799Z" fill="#351F78"/>
<path d="M128.428 140.03L104.926 177.754H151.562L128.428 140.03Z" fill="#6846C7"/>
<path d="M128.06 48.6802L104.558 86.4034H151.194L128.06 48.6802Z" fill="#9576EC"/>
<path d="M207.012 2.82178L183.877 40.545H230.513L207.012 2.82178Z" fill="#6846C7"/>
<path d="M50.2101 187.738L26.7084 225.461H73.3445L50.2101 187.738Z" fill="#6846C7"/>
<path d="M128.06 130.043L151.194 92.3197H104.558L128.06 130.043Z" fill="#6846C7"/>
<path d="M154.866 175.167L178 137.073H131.364L154.866 175.167Z" fill="#6846C7"/>
<path d="M101.988 174.055L125.49 136.332H78.8536L101.988 174.055Z" fill="#3C2C69"/>
<path d="M102.72 266.885L125.855 229.162H79.2186L102.72 266.885Z" fill="#6846C7"/>
<path d="M76.651 221.395L99.7854 183.302H53.1494L76.651 221.395Z" fill="#2C245F"/>
<path d="M231.982 221.395L255.116 183.672H208.48L231.982 221.395Z" fill="#6846C7"/>
<path d="M128.793 38.3245L151.927 0.231505H105.291L128.793 38.3245Z" fill="#3C2C69"/>
<path d="M50.2117 175.533L99.7854 91.9504H1.00507L50.2117 175.533Z" fill="#351F78"/>
<path d="M179.838 129.676L229.412 46.0936H130.632L179.838 129.676Z" fill="#3C2C69"/>
<path d="M206.276 95.2819L157.069 178.865H255.85L206.276 95.2819Z" fill="#9576EC"/>
<path d="M63.4297 162.59L53.515 178.493H73.3445L63.4297 162.59Z" fill="#6846C7"/>
<path d="M89.5022 162.59L79.5875 178.493H99.417L89.5022 162.59Z" fill="#6846C7"/>
<path d="M77.0152 139.659L67.1004 155.562H86.9299L77.0152 139.659Z" fill="#6846C7"/>
<path d="M154.5 93.4305L144.585 109.333H164.415L154.5 93.4305Z" fill="#6846C7"/>
<path d="M140.545 117.102L130.63 133.374H150.093L140.545 117.102Z" fill="#6846C7"/>
<path d="M166.616 117.102L157.068 133.374H176.53L166.616 117.102Z" fill="#6846C7"/>
<path d="M154.868 2.45014L144.953 18.353H164.783L154.868 2.45014Z" fill="#6846C7"/>
<path d="M141.279 26.1197L131.365 42.0226H151.194L141.279 26.1197Z" fill="#6846C7"/>
<path d="M167.351 26.1197L157.436 42.0226H176.898L167.351 26.1197Z" fill="#6846C7"/>
<path d="M101.99 186.257L92.0748 202.529H111.904L101.99 186.257Z" fill="#6846C7"/>
<path d="M89.5022 208.081L79.5875 223.983H99.417L89.5022 208.081Z" fill="#6846C7"/>
<path d="M115.207 208.081L105.659 223.983H125.122L115.207 208.081Z" fill="#6846C7"/>
<path d="M49.4761 230.268L39.5613 246.171H59.3909L49.4761 230.268Z" fill="#6846C7"/>
<path d="M115.209 254.309L105.294 270.212H124.757L115.209 254.309Z" fill="#6846C7"/>
<path d="M76.282 175.905L86.1968 160.002H66.3672L76.282 175.905Z" fill="#9576EC"/>
<path d="M155.235 130.043L164.783 114.14H145.32L155.235 130.043Z" fill="#6846C7"/>
<path d="M154.132 39.8069L164.046 23.9039H144.217L154.132 39.8069Z" fill="#6846C7"/>
<path d="M218.761 107.856L228.676 91.9528H208.846L218.761 107.856Z" fill="#6846C7"/>
<path d="M102.355 222.872L112.269 206.969H92.4398L102.355 222.872Z" fill="#6846C7"/>
<path d="M196.361 198.836L206.275 182.933H186.446L196.361 198.836Z" fill="#6846C7"/>
<path d="M63.4297 245.804L73.3445 229.901H53.515L63.4297 245.804Z" fill="#3C2C69"/>
<path d="M155.965 184.411L132.83 222.134H179.466L155.965 184.411Z" fill="#6846C7"/>
<path d="M233.45 229.901L209.948 267.625H256.951L233.45 229.901Z" fill="#6846C7"/>
<path d="M259.889 275.758L236.388 313.481H283.024L259.889 275.758Z" fill="#6846C7"/>
<path d="M259.521 184.411L236.019 222.134H282.656L259.521 184.411Z" fill="#6846C7"/>
<path d="M259.521 265.776L282.656 228.052H236.019L259.521 265.776Z" fill="#9576EC"/>
<path d="M234.182 402.984L257.316 364.891H210.68L234.182 402.984Z" fill="#6846C7"/>
<path d="M260.254 174.057L283.389 136.334H237.12L260.254 174.057Z" fill="#2C245F"/>
<path d="M246.668 115.991L237.121 131.894H256.583L246.668 115.991Z" fill="#6846C7"/>
<path d="M194.891 298.69L184.976 314.592H204.806L194.891 298.69Z" fill="#6846C7"/>
<path d="M220.964 298.69L211.049 314.592H230.878L220.964 298.69Z" fill="#6846C7"/>
<path d="M208.477 275.391L198.562 291.294H218.391L208.477 275.391Z" fill="#6846C7"/>
<path d="M285.961 229.158L276.046 245.061H295.876L285.961 229.158Z" fill="#6846C7"/>
<path d="M272.004 253.199L262.089 269.102H281.919L272.004 253.199Z" fill="#6846C7"/>
<path d="M298.444 253.199L288.529 269.102H307.992L298.444 253.199Z" fill="#6846C7"/>
<path d="M286.326 138.179L276.411 154.452H296.241L286.326 138.179Z" fill="#6846C7"/>
<path d="M272.741 161.849L262.826 178.122H282.656L272.741 161.849Z" fill="#6846C7"/>
<path d="M298.813 161.849L288.899 178.122H308.728L298.813 161.849Z" fill="#6846C7"/>
<path d="M233.448 322.359L223.533 338.262H243.362L233.448 322.359Z" fill="#6846C7"/>
<path d="M246.668 343.81L237.121 360.083H256.583L246.668 343.81Z" fill="#6846C7"/>
<path d="M180.938 366.367L171.39 382.27H190.852L180.938 366.367Z" fill="#6846C7"/>
<path d="M246.668 390.038L236.753 406.311H256.583L246.668 390.038Z" fill="#6846C7"/>
<path d="M207.743 311.632L217.658 295.729H198.196L207.743 311.632Z" fill="#6846C7"/>
<path d="M285.593 175.535L295.508 159.632H275.678L285.593 175.535Z" fill="#9576EC"/>
<path d="M350.222 243.583L360.137 227.681H340.675L350.222 243.583Z" fill="#6846C7"/>
<path d="M234.183 358.972L243.731 342.699H224.268L234.183 358.972Z" fill="#3C2C69"/>
<path d="M327.822 334.935L337.737 319.032H317.907L327.822 334.935Z" fill="#6846C7"/>
<path d="M194.891 381.902L204.806 365.629H184.976L194.891 381.902Z" fill="#6846C7"/>
</g>
<defs>
<clipPath id="clip0_1502_44964">
<rect width="1000" height="1000" fill="white" transform="matrix(-1 0 0 -1 1000 1000)"/>
</clipPath>
</defs>
</svg>
