<svg width="121" height="120" viewBox="0 0 121 120" fill="none" xmlns="http://www.w3.org/2000/svg">
    <g opacity="0.6" clip-path="url(#clip0_8035_225731)">
        <path opacity="0.3" fill-rule="evenodd" clip-rule="evenodd" d="M33.9856 135.338C39.5837 135.302 45.0452 133.576 49.6794 130.377C54.3137 127.178 57.9126 122.65 60.021 117.366C62.1294 112.082 62.6527 106.28 61.5246 100.692C60.3965 95.1047 57.6677 89.9831 53.6833 85.9751C49.6989 81.967 44.6379 79.2526 39.1402 78.1751C33.6426 77.0975 27.9552 77.7053 22.7972 79.9214C17.6393 82.1376 13.2425 85.8626 10.1629 90.6255C7.08326 95.3883 5.4591 100.975 5.49577 106.679C5.54494 114.328 8.57417 121.645 13.917 127.02C19.2599 132.394 26.4788 135.387 33.9856 135.338ZM33.6412 81.7765C38.4396 81.7457 43.1395 83.1654 47.1467 85.8561C51.1538 88.5468 54.2882 92.3877 56.1535 96.893C58.0188 101.398 58.5312 106.366 57.6259 111.167C56.7207 115.969 54.4383 120.388 51.0676 123.867C47.6969 127.346 43.3891 129.729 38.6891 130.713C33.9891 131.697 29.1079 131.239 24.6628 129.396C20.2176 127.554 16.4082 124.409 13.7162 120.361C11.0243 116.313 9.57068 111.543 9.53925 106.653C9.4971 100.097 12.0127 93.7927 16.5327 89.1274C21.0527 84.4621 27.2069 81.8179 33.6412 81.7765ZM33.9326 127.098C37.9312 127.072 41.8323 125.839 45.1425 123.554C48.4527 121.269 51.0233 118.035 52.5293 114.261C54.0353 110.487 54.4091 106.342 53.6033 102.351C52.7975 98.3598 50.8484 94.7014 48.0024 91.8386C45.1564 88.9757 41.5414 87.0368 37.6145 86.2672C33.6876 85.4975 29.6252 85.9316 25.9409 87.5145C22.2567 89.0975 19.1162 91.7583 16.9164 95.1603C14.7167 98.5623 13.5565 102.553 13.5827 106.627C13.6179 112.091 15.7816 117.317 19.5979 121.156C23.4143 124.995 28.5706 127.132 33.9326 127.098ZM35.8749 114.725C35.8784 115.271 35.6688 115.796 35.2921 116.185C34.9154 116.574 34.4026 116.794 33.8664 116.798C33.3302 116.801 32.8146 116.587 32.4329 116.203C32.0513 115.82 31.8349 115.297 31.8314 114.751L31.8049 110.63C31.8014 110.084 32.011 109.559 32.3877 109.17C32.7644 108.781 33.2772 108.561 33.8134 108.557C34.3496 108.554 34.8653 108.768 35.2469 109.152C35.6285 109.536 35.8449 110.058 35.8484 110.604L35.8749 114.725ZM37.8304 104.411L41.8739 104.385C42.4101 104.382 42.9257 104.596 43.3074 104.979C43.689 105.363 43.9054 105.886 43.9089 106.432C43.9124 106.979 43.7028 107.504 43.3261 107.893C42.9494 108.282 42.4366 108.502 41.9004 108.505L37.8569 108.531C37.3207 108.535 36.8051 108.321 36.4234 107.937C36.0418 107.553 35.8254 107.031 35.8219 106.484C35.8184 105.938 36.028 105.413 36.4047 105.024C36.7814 104.635 37.2942 104.415 37.8304 104.411ZM31.7255 98.2701C31.7219 97.7237 31.9316 97.1984 32.3082 96.8096C32.6849 96.4208 33.1978 96.2005 33.734 96.197C34.2702 96.1936 34.7858 96.4073 35.1674 96.7912C35.5491 97.1751 35.7654 97.6977 35.7689 98.2441L35.7954 102.364C35.7989 102.911 35.5893 103.436 35.2126 103.825C34.836 104.213 34.3231 104.434 33.7869 104.437C33.2507 104.441 32.7351 104.227 32.3535 103.843C31.9718 103.459 31.7555 102.937 31.7519 102.39L31.7255 98.2701ZM25.7 104.489L29.7435 104.463C30.2796 104.46 30.7953 104.674 31.1769 105.057C31.5586 105.441 31.7749 105.964 31.7784 106.51C31.7819 107.057 31.5723 107.582 31.1956 107.971C30.819 108.36 30.3061 108.58 29.7699 108.583L25.7264 108.609C25.1902 108.613 24.6746 108.399 24.293 108.015C23.9113 107.631 23.695 107.109 23.6915 106.562C23.6879 106.016 23.8976 105.491 24.2743 105.102C24.6509 104.713 25.1638 104.493 25.7 104.489ZM101.786 81.2096C112.595 81.1401 123.141 77.8061 132.089 71.6292C141.037 65.4522 147.986 56.7098 152.057 46.5075C156.128 36.3051 157.139 25.1011 154.96 14.3121C152.782 3.52311 147.513 -6.36616 139.82 -14.1052C132.127 -21.8443 122.354 -27.0855 111.739 -29.1661C101.123 -31.2467 90.1418 -30.0732 80.1824 -25.7941C70.223 -21.515 61.7333 -14.3223 55.7869 -5.12577C49.8405 4.07077 46.7044 14.8582 46.7752 25.8723C46.8701 40.6419 52.7192 54.7695 63.0357 65.1472C73.3522 75.525 87.291 81.3028 101.786 81.2096ZM101.121 -22.2121C110.386 -22.2716 119.461 -19.5304 127.198 -14.3349C134.936 -9.13946 140.988 -1.72318 144.59 6.9761C148.191 15.6754 149.181 25.2669 147.433 34.5379C145.685 43.8088 141.278 52.3427 134.769 59.0604C128.261 65.7781 119.943 70.3779 110.868 72.2781C101.793 74.1783 92.3675 73.2936 83.7845 69.7359C75.2014 66.1781 67.8459 60.107 62.648 52.2905C57.4502 44.4739 54.6434 35.2629 54.5827 25.8222C54.5013 13.1626 59.3587 0.989744 68.0863 -8.01842C76.8139 -17.0266 88.6968 -22.1322 101.121 -22.2121ZM101.684 65.2986C109.404 65.2489 116.937 62.8675 123.329 58.4554C129.72 54.0433 134.684 47.7987 137.592 40.5113C140.5 33.224 141.221 25.221 139.665 17.5146C138.11 9.80823 134.346 2.74445 128.851 -2.78344C123.355 -8.31133 116.375 -12.0551 108.793 -13.5412C101.21 -15.0274 93.3663 -14.1892 86.2525 -11.1326C79.1387 -8.07611 73.0746 -2.93851 68.8272 3.63044C64.5797 10.1994 62.3397 17.9047 62.3902 25.772C62.4581 36.3216 66.636 46.4128 74.0049 53.8254C81.3738 61.2381 91.3301 65.3651 101.684 65.2986ZM105.434 41.4069C105.441 42.4619 105.036 43.4763 104.309 44.227C103.581 44.9776 102.591 45.4031 101.556 45.4098C100.52 45.4164 99.5247 45.0037 98.7878 44.2625C98.0509 43.5212 97.6331 42.5121 97.6263 41.4571L97.5752 33.5016C97.5684 32.4466 97.9732 31.4322 98.7005 30.6816C99.4278 29.9309 100.418 29.5054 101.453 29.4988C102.489 29.4921 103.484 29.9048 104.221 30.6461C104.958 31.3873 105.376 32.3964 105.383 33.4514L105.434 41.4069ZM109.21 21.4931L117.017 21.4429C118.053 21.4362 119.048 21.8489 119.785 22.5902C120.522 23.3314 120.94 24.3405 120.947 25.3955C120.953 26.4505 120.549 27.4649 119.821 28.2156C119.094 28.9662 118.104 29.3917 117.068 29.3984L109.261 29.4486C108.226 29.4552 107.23 29.0425 106.493 28.3012C105.756 27.56 105.338 26.5509 105.332 25.4959C105.325 24.4409 105.73 23.4265 106.457 22.6758C107.184 21.9252 108.174 21.4997 109.21 21.4931ZM97.4218 9.63507C97.415 8.5801 97.8198 7.5657 98.5471 6.81502C99.2744 6.06433 100.265 5.63888 101.3 5.63223C102.335 5.62557 103.331 6.03825 104.068 6.77953C104.805 7.5208 105.222 8.52991 105.229 9.58488L105.28 17.5404C105.287 18.5954 104.882 19.6098 104.155 20.3604C103.428 21.1111 102.438 21.5366 101.402 21.5432C100.367 21.5499 99.3713 21.1372 98.6344 20.3959C97.8975 19.6547 97.4797 18.6456 97.4729 17.5906L97.4218 9.63507ZM85.7872 21.6436L93.5947 21.5934C94.6301 21.5868 95.6257 21.9995 96.3626 22.7407C97.0995 23.482 97.5173 24.4911 97.524 25.5461C97.5308 26.6011 97.1261 27.6155 96.3987 28.3661C95.6714 29.1168 94.6812 29.5423 93.6459 29.5489L85.8383 29.5991C84.803 29.6058 83.8074 29.1931 83.0705 28.4518C82.3336 27.7106 81.9158 26.7014 81.909 25.6465C81.9022 24.5915 82.307 23.5771 83.0343 22.8264C83.7616 22.0757 84.7519 21.6503 85.7872 21.6436Z" fill="url(#paint0_linear_8035_225731)"/>
    </g>
    <defs>
        <linearGradient id="paint0_linear_8035_225731" x1="156.253" y1="52.0149" x2="5.15058" y2="52.9864" gradientUnits="userSpaceOnUse">
            <stop stop-color="#495C53"/>
            <stop offset="1" stop-color="#292D2D"/>
        </linearGradient>
        <clipPath id="clip0_8035_225731">
            <rect width="120" height="120" fill="white" transform="translate(120.769 119.998) rotate(179.632)"/>
        </clipPath>
    </defs>
</svg>
