<svg width="88" height="100" viewBox="0 0 88 100" fill="none" xmlns="http://www.w3.org/2000/svg">
    <path fill-rule="evenodd" clip-rule="evenodd" d="M51.6987 26.1925C53.281 33.1001 57.0528 39.3094 62.4506 43.8925C73.7495 54.4282 91.9498 75.8368 87.2367 100.785C86.377 105.471 84.4709 109.901 81.6609 113.744C74.4439 123.437 61.5458 129 46.2912 129C41.0908 129.002 35.9103 128.358 30.8682 127.082C21.9662 124.981 13.9017 120.245 7.72326 113.491C0.653532 105.168 -1.99762 88.9643 1.60037 75.8789L3.80966 67.8086L9.30133 73.9825C11.5446 76.596 14.5452 78.4446 17.886 79.2714C19.9904 79.7669 22.1853 79.7255 24.2696 79.1512C26.3539 78.5769 28.261 77.488 29.8162 75.9843C31.1115 74.6632 32.0514 73.0348 32.5481 71.2514C33.0449 69.468 33.0822 67.5875 32.6567 65.7857C31.9029 62.8333 30.635 60.0371 28.9114 57.5257C27.6995 55.7136 26.7232 53.7518 26.0078 51.6889C24.072 45.1568 26.0919 38.0557 32.0044 30.6175C35.9658 25.8502 40.232 21.3455 44.7762 17.1318C45.4776 16.4505 46.179 15.7762 46.8803 15.1019C48.283 13.7533 49.6858 12.4048 51.0885 11V15.425C50.9273 19.0256 51.1318 22.6333 51.6987 26.1925ZM30.0748 48.3114C30.4693 48.7066 31.0045 48.9286 31.5626 48.9286C32.1206 48.9286 32.6558 48.7066 33.0504 48.3114C33.445 47.9162 33.6666 47.3803 33.6666 46.8214C33.6666 39.5729 41.2414 33.7571 41.2414 33.7571C41.4624 33.5911 41.6486 33.3831 41.7894 33.145C41.9302 32.9069 42.0228 32.6434 42.0619 32.3694C42.1009 32.0955 42.0857 31.8165 42.0172 31.5485C41.9486 31.2804 41.828 31.0285 41.6622 30.8071C41.4964 30.5858 41.2887 30.3993 41.0509 30.2583C40.8132 30.1173 40.55 30.0246 40.2765 29.9855C40.0029 29.9463 39.7244 29.9615 39.4567 30.0302C39.189 30.0989 38.9375 30.2197 38.7165 30.3857C38.3377 30.6596 29.4585 37.4446 29.4585 46.8214C29.4585 47.3803 29.6802 47.9162 30.0748 48.3114ZM78.9676 90.06C80.0904 96.629 78.578 103.376 74.7595 108.835C73.6221 110.445 72.1671 111.806 70.4843 112.831C68.8015 113.857 66.9266 114.526 64.9755 114.798C64.4254 114.842 63.9145 115.1 63.5526 115.518C63.1906 115.935 63.0064 116.477 63.0394 117.029C63.0725 117.581 63.3202 118.097 63.7293 118.468C64.1385 118.839 64.6766 119.034 65.2279 119.012H65.4384C67.9528 118.677 70.3714 117.827 72.5434 116.514C74.7154 115.202 76.5943 113.456 78.0629 111.384C82.6028 105.032 84.4415 97.1359 83.1758 89.4279C83.0921 88.869 82.7902 88.3663 82.3364 88.0305C81.8826 87.6946 81.3141 87.5529 80.7561 87.6368C80.1981 87.7206 79.6961 88.023 79.3607 88.4775C79.0253 88.9319 78.8839 89.5012 78.9676 90.06Z" fill="url(#paint0_linear_8025_192747)"/>
    <g clip-path="url(#clip0_8025_192747)">
        <path fill-rule="evenodd" clip-rule="evenodd" d="M51.6987 26.1925C53.281 33.1001 57.0528 39.3094 62.4506 43.8925C73.7495 54.4282 91.9498 75.8368 87.2367 100.785C86.377 105.471 84.4709 109.901 81.6609 113.744C74.4439 123.437 61.5458 129 46.2912 129C41.0908 129.002 35.9103 128.358 30.8682 127.082C21.9662 124.981 13.9017 120.245 7.72326 113.491C0.653532 105.168 -1.99762 88.9643 1.60037 75.8789L3.80966 67.8086L9.30133 73.9825C11.5446 76.596 14.5452 78.4446 17.886 79.2714C19.9904 79.7669 22.1853 79.7255 24.2696 79.1512C26.3539 78.5769 28.261 77.488 29.8162 75.9843C31.1115 74.6632 32.0514 73.0348 32.5481 71.2514C33.0449 69.468 33.0822 67.5875 32.6567 65.7857C31.9029 62.8333 30.635 60.0371 28.9114 57.5257C27.6995 55.7136 26.7232 53.7518 26.0078 51.6889C24.072 45.1568 26.0919 38.0557 32.0044 30.6175C35.9658 25.8502 40.232 21.3455 44.7762 17.1318C45.4776 16.4505 46.179 15.7762 46.8803 15.1019C48.283 13.7533 49.6858 12.4048 51.0885 11V15.425C50.9273 19.0256 51.1318 22.6333 51.6987 26.1925ZM30.0748 48.3114C30.4693 48.7066 31.0045 48.9286 31.5626 48.9286C32.1206 48.9286 32.6558 48.7066 33.0504 48.3114C33.445 47.9162 33.6666 47.3803 33.6666 46.8214C33.6666 39.5729 41.2414 33.7571 41.2414 33.7571C41.4624 33.5911 41.6486 33.3831 41.7894 33.145C41.9302 32.9069 42.0228 32.6434 42.0619 32.3694C42.1009 32.0955 42.0857 31.8165 42.0172 31.5485C41.9486 31.2804 41.828 31.0285 41.6622 30.8071C41.4964 30.5858 41.2887 30.3993 41.0509 30.2583C40.8132 30.1173 40.55 30.0246 40.2765 29.9855C40.0029 29.9463 39.7244 29.9615 39.4567 30.0302C39.189 30.0989 38.9375 30.2197 38.7165 30.3857C38.3377 30.6596 29.4585 37.4446 29.4585 46.8214C29.4585 47.3803 29.6802 47.9162 30.0748 48.3114ZM78.9676 90.06C80.0903 96.629 78.578 103.376 74.7595 108.835C73.6221 110.445 72.1671 111.806 70.4843 112.831C68.8015 113.857 66.9266 114.526 64.9755 114.798C64.4254 114.842 63.9145 115.1 63.5526 115.518C63.1906 115.935 63.0064 116.477 63.0394 117.029C63.0725 117.581 63.3202 118.097 63.7293 118.468C64.1385 118.839 64.6766 119.034 65.2279 119.012H65.4384C67.9528 118.677 70.3714 117.827 72.5434 116.514C74.7154 115.202 76.5943 113.456 78.0629 111.384C82.6028 105.032 84.4415 97.1359 83.1758 89.4279C83.0921 88.869 82.7902 88.3663 82.3364 88.0305C81.8826 87.6946 81.3141 87.5529 80.7561 87.6368C80.1981 87.7206 79.6961 88.023 79.3607 88.4775C79.0253 88.9319 78.8839 89.5012 78.9676 90.06Z" fill="url(#paint1_linear_8025_192747)"/>
    </g>
    <defs>
        <linearGradient id="paint0_linear_8025_192747" x1="0" y1="70" x2="88" y2="70" gradientUnits="userSpaceOnUse">
            <stop stop-color="#443535"/>
            <stop offset="1" stop-color="#0F0F0F"/>
        </linearGradient>
        <linearGradient id="paint1_linear_8025_192747" x1="0" y1="70" x2="88" y2="70" gradientUnits="userSpaceOnUse">
            <stop stop-color="#495C53"/>
            <stop offset="1" stop-color="#292D2D"/>
        </linearGradient>
        <clipPath id="clip0_8025_192747">
            <rect width="88" height="100" fill="white"/>
        </clipPath>
    </defs>
</svg>
