<svg width="151" height="116" viewBox="0 0 151 116" fill="none" xmlns="http://www.w3.org/2000/svg">
    <path d="M18.9822 136C14.9242 136 11.4648 135.141 8.60379 133.423C5.74281 131.705 3.56867 129.367 2.08138 126.408C0.592668 123.498 -0.097662 120.229 0.0103893 116.602C0.114175 113.119 1.14464 109.778 3.10177 106.581L61.5549 9.80632C63.4658 6.5614 65.9492 4.12772 69.0052 2.50526C72.0626 0.835088 75.2383 0 78.5324 0C81.8265 0 84.9286 0.835088 87.8388 2.50526C90.7981 4.12772 93.1603 6.5614 94.9255 9.80632L147.612 106.581C148.472 108.156 149.116 109.802 149.542 111.52C149.968 113.238 150.156 114.932 150.106 116.602C149.998 120.229 149.113 123.498 147.451 126.408C145.788 129.367 143.474 131.705 140.511 133.423C137.547 135.141 134.037 136 129.979 136H18.9822ZM75.9788 88.1137C79.7026 88.1137 81.6466 86.1572 81.8109 82.2442L84.0452 43.3053C84.1484 41.4442 83.5501 39.8933 82.2503 38.6526C80.9997 37.3642 79.3958 36.72 77.4384 36.72C75.4333 36.72 73.7678 37.3404 72.4418 38.5811C71.1636 39.8218 70.5206 41.3726 70.5129 43.2337L70.2816 82.2442C70.2605 86.1572 72.1596 88.1137 75.9788 88.1137ZM75.2644 112.093C77.4127 112.093 79.2966 111.353 80.9161 109.874C82.5834 108.394 83.449 106.581 83.513 104.434C83.577 102.286 82.8194 100.473 81.2403 98.9937C79.7103 97.4667 77.8712 96.7032 75.7229 96.7032C73.5268 96.7032 71.6183 97.4667 69.9974 98.9937C68.3765 100.521 67.5347 102.334 67.4722 104.434C67.4082 106.581 68.1419 108.394 69.6732 109.874C71.2524 111.353 73.1161 112.093 75.2644 112.093Z" fill="url(#paint0_linear_7933_233413)"/>
    <defs>
        <linearGradient id="paint0_linear_7933_233413" x1="78.5324" y1="0" x2="78.5324" y2="136" gradientUnits="userSpaceOnUse">
            <stop stop-color="#302828"/>
            <stop offset="1" stop-color="#493131"/>
        </linearGradient>
    </defs>
</svg>
