<svg width="131" height="109" viewBox="0 0 131 109" fill="none" xmlns="http://www.w3.org/2000/svg">
    <path d="M65.5 162C64.5448 162 63.6578 161.932 62.8391 161.795C62.0203 161.658 61.2016 161.453 60.3828 161.18C41.9609 155.028 27.2917 143.647 16.375 127.037C5.45833 110.427 0 92.5519 0 73.4127V34.6557C0 31.238 0.989323 28.162 2.96797 25.4279C4.94661 22.6937 7.50521 20.7114 10.6438 19.481L59.7688 1.02532C61.6792 0.341772 63.5896 0 65.5 0C67.4104 0 69.3208 0.341772 71.2312 1.02532L120.356 19.481C123.495 20.7114 126.053 22.6937 128.032 25.4279C130.011 28.162 131 31.238 131 34.6557V73.4127C131 92.5519 125.542 110.427 114.625 127.037C103.708 143.647 89.0391 155.028 70.6172 161.18C69.7984 161.453 68.9797 161.658 68.1609 161.795C67.3422 161.932 66.4552 162 65.5 162Z" fill="url(#paint0_linear_7933_233415)"/>
    <defs>
        <linearGradient id="paint0_linear_7933_233415" x1="65.5" y1="0" x2="65.5" y2="162" gradientUnits="userSpaceOnUse">
            <stop stop-color="#242A27"/>
            <stop offset="1" stop-color="#415149"/>
        </linearGradient>
    </defs>
</svg>
