<svg width="125" height="32" viewBox="0 0 125 32" fill="none" xmlns="http://www.w3.org/2000/svg">
<path d="M10.6179 13.442C11.1765 14.4205 9.91962 14.7001 9.36101 14.77C8.52308 14.8398 8.3136 14.3506 8.45325 13.7215C8.52308 13.5119 8.66274 13.3022 8.80239 13.1624C8.94204 13.0226 9.22135 12.8828 9.43083 12.8828C9.64032 12.8828 9.91962 12.8828 10.0593 13.0226C10.3386 13.0925 10.4782 13.2323 10.6179 13.442Z" fill="#EB1A6B"/>
<path d="M13.9699 11.6934C13.3415 16.5859 21.8604 15.5375 21.7208 19.3817C22.5587 18.2634 22.9078 15.3278 20.4639 13.7902C18.2294 12.3923 15.3665 13.1611 13.9699 11.6934Z" fill="#EB1A6B"/>
<path d="M18.9272 9.8058C18.8573 9.73591 18.7874 9.73591 18.7874 9.66602C18.7874 9.73591 18.8573 9.8058 18.9272 9.8058Z" fill="#EB1A6B"/>
<path d="M20.8833 13.3713C20.8135 13.2315 20.7436 13.0917 20.604 12.9519C20.3247 12.5326 19.9057 12.253 19.4169 12.1831C19.1376 12.1132 18.7885 12.0433 18.4393 12.0433C18.0902 12.0433 17.8109 11.9734 17.4618 11.9734C16.7635 11.9035 16.135 11.8336 15.4368 11.6938C15.2971 11.6239 15.0876 11.6239 14.948 11.5541C14.8781 11.5541 14.8083 11.4842 14.6687 11.4842C14.5988 11.4143 14.529 11.4143 14.3894 11.3444C14.0402 11.2046 13.7609 10.925 13.5514 10.7153C13.0626 10.2261 12.6437 9.66692 12.2247 9.17766C11.8058 8.61851 11.4566 8.12925 10.9678 7.63999C10.5489 7.15073 9.99025 6.73137 9.43163 6.45179C8.87301 6.17222 8.17474 5.96253 7.5463 5.89264C8.24457 5.82275 8.94284 5.89264 9.57128 6.17222C10.1997 6.45179 10.8282 6.80126 11.317 7.29052C11.6661 7.5701 11.9454 7.91957 12.2247 8.26904C14.3894 7.84967 16.0652 8.19914 17.3919 8.96798C17.8109 9.17766 18.2299 9.45723 18.579 9.8067C18.6488 9.8766 18.7186 9.8766 18.7186 9.94649C18.998 10.2261 19.2773 10.5056 19.4867 10.7852C20.4643 11.6938 20.8833 12.7423 20.8833 13.3713Z" fill="#EB1A6B"/>
<path d="M7.75418 6.45117C8.3128 6.52107 8.87142 6.73075 9.22055 7.15011C9.56969 7.56948 9.70935 8.12863 9.849 8.61789C9.91883 9.03725 9.98865 9.45661 10.1283 9.80608C10.1981 10.0158 10.3378 10.1556 10.4076 10.2953C10.4774 10.4351 10.6171 10.5749 10.6869 10.7147V10.7846V10.8545C10.4774 11.0642 9.98865 10.8545 9.77917 10.7147C9.43004 10.5749 9.15073 10.2953 8.87142 10.0158C8.10332 9.17704 7.68436 7.91895 7.68436 6.80064C7.68436 6.73075 7.75418 6.59096 7.75418 6.45117Z" fill="#EB1A6B"/>
<path d="M16.8327 16.2363C15.6456 19.5213 21.0223 21.758 18.9973 25.1129C21.0223 24.2741 21.9999 21.6881 21.1619 19.6611C20.4637 17.8439 18.2292 17.145 16.8327 16.2363Z" fill="#EB1A6B"/>
<path d="M9.78055 20.5011C10.1297 20.2914 10.4788 20.0818 10.828 19.8721C11.1771 19.7323 11.5961 19.5925 12.015 19.5226C12.7831 19.3828 13.621 19.3129 14.2495 19.0333C14.5986 18.8936 14.8779 18.7538 15.1572 18.4742C15.4365 18.2645 15.5762 17.9849 15.7159 17.6355C15.8555 17.286 15.8555 16.9365 15.8555 16.5871C15.8555 16.1677 15.7159 15.8182 15.5762 15.4688C15.8555 15.7483 16.065 16.1677 16.2046 16.5871C16.3443 17.0064 16.3443 17.4258 16.2745 17.8451C16.2046 18.2645 15.9253 18.6839 15.646 19.0333C15.3667 19.3129 14.9478 19.5925 14.5288 19.7323C14.1098 19.8721 13.6909 19.942 13.2719 20.0119C12.8529 20.0119 12.5038 20.0818 12.0848 20.0818C11.3167 20.0818 10.5486 20.2215 9.78055 20.5011Z" fill="#EB1A6B"/>
<path d="M17.3215 26.3007C17.1819 26.3706 17.1121 26.5104 16.9724 26.5803C16.8328 26.6502 16.6931 26.7201 16.5534 26.79C16.2741 26.9298 15.925 26.9997 15.5759 26.9997C14.6681 26.9997 14.0397 26.3007 13.6905 25.5319C13.4112 25.0426 13.2716 24.4835 12.9923 23.9942C12.5733 23.2953 11.8052 22.7361 10.9673 22.806C10.6181 22.8759 10.269 23.0157 10.1293 23.2953C9.64055 24.0641 10.3388 25.1824 11.3164 25.0426C11.3862 25.0426 11.4561 25.0426 11.5259 24.9727C11.5957 24.9727 11.6655 24.9029 11.7354 24.833C11.875 24.6932 11.9448 24.5534 12.0147 24.4136C12.0845 24.2738 12.0845 24.0641 12.0845 23.8544C12.0147 23.6448 11.9448 23.505 11.8052 23.4351C12.0147 23.505 12.1543 23.6448 12.2242 23.8544C12.1543 24.2039 12.1543 24.4136 12.1543 24.6233C12.0845 24.833 12.0147 25.0426 11.875 25.1824C11.8052 25.2523 11.7354 25.3222 11.5957 25.3921C11.5259 25.462 11.3862 25.5319 11.3164 25.5319C11.1069 25.6018 10.8974 25.6018 10.688 25.6018C10.4086 25.5319 10.0595 25.462 9.85003 25.2523C9.57072 25.0426 9.36124 24.6932 9.08193 24.4835C8.80262 24.134 8.45349 23.9243 8.03453 23.7147C7.75522 23.5749 7.47591 23.505 7.1966 23.4351C7.05694 23.4351 6.91729 23.3652 6.77764 23.3652C6.70781 23.3652 6.35867 23.2953 6.35867 23.2953C6.84746 22.8759 7.33625 22.5265 7.82504 22.177C8.38366 21.8275 8.94228 21.6178 9.57072 21.4082C10.1992 21.1985 10.8276 21.1985 11.5259 21.2684C11.875 21.3383 12.1543 21.4082 12.5035 21.5479C12.8526 21.6877 13.1319 21.8974 13.4112 22.1071C13.6905 22.3867 13.9 22.6662 14.0397 22.9458C14.1793 23.2254 14.2491 23.5749 14.319 23.9243C14.5285 24.9029 14.4586 26.4405 15.7155 26.6502C15.7853 26.6502 15.8552 26.6502 15.925 26.6502H16.1345C16.2741 26.6502 16.4138 26.6502 16.5534 26.5803C16.7629 26.5803 17.0422 26.4405 17.3215 26.3007Z" fill="#EB1A6B"/>
<path d="M8.73257 11.4142C8.66274 11.6239 8.59292 11.7637 8.52309 11.9035C8.31361 12.183 8.0343 12.3927 7.75499 12.5325C7.47568 12.6723 7.19637 12.7422 6.84724 12.7422C6.77741 12.7422 6.70758 12.7422 6.63776 12.7422C6.42828 12.7422 6.28862 12.8121 6.07914 12.9519C5.93948 13.0917 5.79983 13.2315 5.79983 13.4411C5.79983 13.511 5.73 13.6508 5.73 13.7207C5.73 14.0003 5.66018 14.21 5.66018 14.5594C5.59035 15.1186 5.45069 15.6078 5.24121 16.0971C4.9619 16.7262 4.61277 17.2853 4.6826 17.9842C4.75242 18.4735 4.96191 18.823 5.31104 19.1026C5.86966 19.7316 7.19637 20.0112 6.91707 21.4789C6.70758 22.3876 5.24121 23.2962 3.21623 23.6457C3.42571 23.6457 2.93692 22.8069 2.93692 22.737C2.72743 22.3876 2.44813 22.0381 2.30847 21.6886C1.95934 20.9897 1.81968 20.0811 1.95934 19.3122C2.09899 18.4735 2.72744 17.8445 3.21623 17.1455C3.84467 16.3767 4.47311 15.3982 4.61277 14.3498C4.61277 14.1401 4.6826 13.7906 4.75242 13.511C4.82225 13.1616 4.89208 12.882 5.03173 12.5325C5.10156 12.3228 5.24121 12.183 5.45069 11.9734C5.52052 11.9035 5.59035 11.7637 5.59035 11.6938C5.59035 11.554 5.59035 11.4841 5.52052 11.3443L2.23864 5.40332L6.98689 11.2744C7.05672 11.3443 7.12655 11.4142 7.19637 11.4142C7.2662 11.4841 7.33603 11.4841 7.47568 11.4841C7.54551 11.4841 7.61534 11.4841 7.75499 11.4142C7.82482 11.3443 7.89465 11.3443 7.96447 11.2744C8.0343 11.2045 8.0343 11.1346 8.0343 10.9948C8.0343 10.9249 8.0343 10.7852 7.96447 10.7153C7.68516 10.2959 7.33603 9.94643 6.98689 9.52707L5.79983 8.05929L3.42571 5.12375L0.143829 1L3.70501 4.84417L6.21879 7.63993L7.47568 9.03781C7.89465 9.52707 8.31361 9.94643 8.73257 10.5056L8.8024 10.5755V10.7153C8.8024 10.9948 8.8024 11.2045 8.73257 11.4142Z" fill="#EB1A6B"/>
<path d="M9.8505 25.1837C9.64082 24.974 9.43114 24.7644 9.22147 24.5547C9.43114 24.8343 9.57093 25.0439 9.8505 25.1837Z" fill="#EB1A6B"/>
<path fill-rule="evenodd" clip-rule="evenodd" d="M71.3675 9.38637C69.0632 9.94552 68.0158 11.7628 68.6442 13.9295C68.9235 14.8381 69.7614 15.8166 71.0183 16.5156C73.183 17.7737 73.8812 18.2629 74.2304 19.0317C74.5097 19.6608 74.5795 19.8705 74.4398 20.4995C74.0907 21.8974 73.1131 22.5963 71.7166 22.5963C70.32 22.5963 69.3425 21.8275 69.0632 20.4995C68.9933 19.9404 68.8537 19.8006 68.6442 19.8006C68.3649 19.8006 68.2951 19.9404 68.2951 21.2684V22.7361L69.2028 23.0157C70.6692 23.505 72.6942 23.4351 73.8812 22.8759C76.2554 21.7576 77.1631 19.5909 76.1157 17.564C75.6967 16.7951 74.7192 15.9564 73.0433 14.908C71.2278 13.7897 70.4597 13.0209 70.32 12.252C70.1106 10.9939 71.2278 10.0154 72.764 10.0154C73.9511 10.0154 74.4398 10.295 74.8588 11.2036C75.1381 11.7628 75.2778 11.9725 75.6269 11.9725C75.9761 11.9725 76.0459 11.9026 75.9062 11.5531C75.8364 11.3434 75.7666 10.7843 75.7666 10.3649C75.7666 9.80574 75.6967 9.52616 75.4873 9.45626C74.9985 9.24658 71.9959 9.17669 71.3675 9.38637ZM25.2815 9.87563C25.2815 10.1552 25.4212 10.2251 25.7005 10.2251C26.5384 10.2251 26.6082 10.4348 26.6781 15.537C26.7479 19.9404 26.8177 20.2898 27.1669 20.9888C27.6556 21.8974 28.3539 22.5264 29.4013 23.0157C30.0996 23.3652 30.5884 23.4351 32.0548 23.4351C33.591 23.4351 33.9401 23.3652 34.778 22.9458C35.3366 22.6662 36.0349 22.177 36.3142 21.8275C37.2918 20.6393 37.4315 20.0103 37.5013 15.1177C37.6409 10.3649 37.6409 10.295 38.409 10.295C38.6185 10.295 38.6883 10.1552 38.6883 9.94552C38.6883 9.59605 38.5487 9.59605 36.5935 9.59605C34.6384 9.59605 34.4987 9.59605 34.4987 9.94552C34.4987 10.2251 34.6384 10.295 35.0573 10.3649C35.9651 10.4348 36.0349 10.7843 36.0349 15.1177C36.0349 19.521 35.8953 20.3597 34.9177 21.2684C34.0797 22.1071 33.3815 22.3867 32.1944 22.3867C30.5186 22.3867 29.2617 21.6178 28.9125 20.2199C28.7729 19.7307 28.7031 18.0532 28.7729 15.0478L28.8427 10.5746L29.4712 10.3649C29.8203 10.2251 30.0996 10.0154 30.1694 9.87563C30.2393 9.59605 29.9599 9.59605 27.7953 9.59605C25.4212 9.52616 25.2815 9.52616 25.2815 9.87563ZM41.5513 9.87563C41.5513 10.1552 41.6909 10.2251 42.04 10.2251C42.9478 10.2251 43.4366 10.5746 43.6461 11.3434C43.7857 11.7628 43.7857 13.7897 43.7857 16.6553C43.7159 21.8275 43.6461 22.177 42.5987 22.3867C42.2495 22.4565 42.1099 22.5963 42.1099 22.806C42.1099 23.0856 42.2495 23.1555 44.5538 23.1555C46.7883 23.1555 46.9978 23.1555 46.9978 22.8759C46.9978 22.6662 46.7883 22.5264 46.2297 22.3867C45.5314 22.177 45.4616 22.1071 45.2521 21.5479C44.9728 20.7092 44.9728 12.8112 45.1823 12.8811C45.2521 12.8811 45.9504 13.58 46.7185 14.4886C47.4866 15.3973 49.5116 17.7038 51.3271 19.5909C54.1201 22.5963 54.6089 23.1555 55.0279 23.1555H55.5167L55.5865 17.0048C55.6563 12.6015 55.7262 10.7843 55.8658 10.6445C56.0055 10.5047 56.3546 10.3649 56.6339 10.295C56.9831 10.2251 57.1925 10.0853 57.1925 9.94552C57.1925 9.73584 56.7736 9.66595 54.8184 9.66595C52.5141 9.59605 52.4443 9.59605 52.4443 9.94552C52.4443 10.2251 52.584 10.295 52.8633 10.295C53.0727 10.295 53.4917 10.5047 53.771 10.7144L54.2598 11.1337L54.3296 15.3274C54.3296 17.7038 54.3296 19.521 54.2598 19.521C54.19 19.521 53.6314 18.9619 53.0727 18.3328C52.5141 17.7038 50.9081 15.8865 49.5116 14.3488C48.115 12.8112 46.5788 11.1337 46.09 10.5746L45.2521 9.59605H43.4366C41.6211 9.52616 41.5513 9.52616 41.5513 9.87563ZM59.846 9.87563C59.846 10.1552 59.9856 10.2251 60.3348 10.2251C60.6141 10.2251 60.9632 10.3649 61.1727 10.5047C61.5218 10.7144 61.5218 11.0638 61.5917 15.8865C61.6615 21.8974 61.5917 22.2469 60.5442 22.3867C60.0555 22.4565 59.846 22.5963 59.846 22.806C59.846 23.0856 60.0555 23.1555 62.4994 23.1555C65.0132 23.1555 65.1528 23.1555 65.1528 22.806C65.1528 22.5264 65.0132 22.4565 64.7339 22.4565C64.5244 22.4565 64.1753 22.3168 63.9658 22.177C63.6166 21.9673 63.6166 21.6178 63.5468 16.4457C63.477 11.1337 63.477 10.924 63.8261 10.5746C64.0356 10.3649 64.3847 10.2251 64.5942 10.2251C64.9434 10.2251 65.0132 10.1552 65.0132 9.87563C65.0132 9.52616 64.8735 9.52616 62.3598 9.52616C59.9856 9.52616 59.846 9.52616 59.846 9.87563ZM78.2105 9.87563C78.2803 10.0853 78.42 10.2251 78.6993 10.2251C78.9088 10.2251 79.2579 10.4348 79.4674 10.6445C79.6769 10.8541 80.864 13.7198 82.1907 17.1446L84.495 23.2254L85.1234 23.2953L85.7518 23.3652L87.3579 19.0317C88.2656 16.6554 89.1036 14.4886 89.1734 14.279C89.3829 13.8596 89.3829 13.9295 89.9415 15.3274C90.2208 16.1661 91.0587 18.2629 91.757 20.0802L93.0139 23.3652H93.5725C93.8518 23.3652 94.1311 23.2953 94.2009 23.1555C94.2708 23.0157 95.0389 20.9888 96.0164 18.6124C96.9242 16.236 97.9716 13.58 98.3207 12.7413C99.0888 10.7843 99.2285 10.5746 99.7871 10.3649C100.066 10.295 100.276 10.0853 100.276 9.94552C100.276 9.73584 99.9268 9.66595 98.1811 9.66595C96.2259 9.66595 96.0863 9.66595 96.0863 10.0154C96.0863 10.295 96.2259 10.3649 96.5052 10.3649C97.2035 10.3649 97.4828 10.5746 97.4828 10.9939C97.4828 11.3434 94.1311 20.3597 93.9216 20.5694C93.782 20.7092 90.7794 12.3219 90.7096 11.4832C90.5699 10.7144 90.9191 10.3649 91.6872 10.3649C91.9665 10.3649 92.1061 10.295 92.1061 10.0154C92.1061 9.66595 91.9665 9.66595 89.3829 9.66595C86.7993 9.66595 86.6596 9.66595 86.6596 10.0154C86.6596 10.2251 86.7993 10.3649 86.9389 10.3649C87.4975 10.3649 88.1958 10.924 88.4053 11.4133C88.6846 12.1821 88.4751 12.951 86.8691 17.1446L85.5424 20.7092L85.2631 20.0103C85.1234 19.6608 84.2855 17.4242 83.4476 15.1177C81.7717 10.5746 81.7717 10.3649 82.8889 10.3649C83.3079 10.3649 83.3777 10.295 83.3777 10.0154C83.3777 9.66595 83.2381 9.66595 80.7941 9.66595C78.1407 9.52616 78.0709 9.52616 78.2105 9.87563ZM113.543 10.0154C113.543 10.0154 113.543 10.2251 113.543 10.295C113.543 10.3649 113.753 10.3649 113.753 10.3649C113.892 10.3649 113.962 10.4348 114.102 10.4348C114.66 10.5746 115.009 10.6445 115.149 10.9939C115.219 11.2036 115.289 12.0423 115.289 16.4457C115.289 21.0587 115.289 21.6178 115.149 21.8974C115.009 22.2469 114.73 22.4566 114.032 22.6662C114.032 22.6662 113.753 22.7361 113.683 22.806C113.613 22.8759 113.613 23.0157 113.613 23.0157C113.613 23.0157 113.613 23.1555 113.683 23.2254C113.753 23.2953 113.962 23.2953 113.962 23.2953H115.708H118.64C118.64 23.2953 118.78 23.2953 118.85 23.2254C118.92 23.1555 118.92 23.0157 118.92 23.0157C118.92 23.0157 118.92 22.8759 118.85 22.806C118.78 22.7361 118.501 22.6662 118.501 22.6662C117.872 22.5264 117.523 22.3168 117.384 21.9673C117.244 21.6877 117.244 21.0587 117.244 19.5909V17.4941C117.314 17.564 117.384 17.564 117.453 17.6339C117.803 17.8435 118.221 18.193 119.758 18.193C121.643 18.2629 122.76 17.4242 123.459 16.4457C124.157 15.4671 124.366 13.9295 123.877 12.252C123.389 10.6445 121.922 9.59605 119.897 9.52616C118.85 9.45627 117.244 9.52616 116.406 9.59605H116.196C115.428 9.59605 114.451 9.73584 113.962 9.73584C113.822 9.73584 113.822 9.73584 113.753 9.80573C113.543 9.94552 113.543 10.0154 113.543 10.0154ZM121.294 16.4457C122.062 15.7467 122.062 14.6284 122.062 13.8596C121.992 12.7413 121.503 10.5746 118.99 10.5746C118.361 10.5746 117.174 10.6445 117.104 11.4832C117.034 11.623 117.034 12.6714 117.034 14.2091V16.7252L117.314 16.865C117.453 16.9349 117.663 17.0048 117.942 17.0747C118.99 17.3543 120.526 17.1446 121.294 16.4457ZM105.234 9.73584C105.443 9.66595 105.583 9.59605 105.583 9.59605C105.583 9.59605 105.862 9.45626 105.932 9.59605C105.932 9.66595 106.072 9.87563 106.351 10.5746C106.421 10.7144 106.491 10.8541 106.491 10.9939C106.84 11.9724 107.398 13.3703 107.678 14.1392C107.957 14.908 108.516 16.3059 108.934 17.4242C109.353 18.4726 109.842 19.8006 110.122 20.4296C110.331 21.0587 110.68 21.6178 110.75 21.7576C110.82 21.8275 110.82 21.8974 110.89 21.9673C111.099 22.2469 111.309 22.6662 111.797 22.7361C111.797 22.7361 112.147 22.806 112.216 22.8759C112.286 22.9458 112.286 23.0157 112.286 23.0157V23.2254C112.286 23.2254 112.286 23.2953 112.216 23.2953C112.216 23.3652 112.077 23.2953 112.077 23.2953H109.144H107.049C107.049 23.2953 106.979 23.2953 106.909 23.2953C106.84 23.2953 106.84 23.1555 106.84 23.1555V23.0157C106.84 23.0157 106.84 22.8759 106.909 22.806C106.979 22.7361 107.328 22.6662 107.328 22.6662C107.957 22.5963 108.236 22.1071 108.306 21.8275V21.7576C108.446 21.478 108.376 21.2684 107.747 19.8006C107.328 18.8221 107.189 18.5425 107.119 18.4726C107.049 18.4726 105.932 18.4726 104.745 18.4726H102.441L102.301 18.8221C101.882 19.9404 101.533 20.9888 101.533 21.2684C101.393 21.8275 101.603 22.5264 102.441 22.6662C102.441 22.6662 102.79 22.7361 102.86 22.806C102.929 22.8759 102.999 23.0157 102.999 23.0157V23.1555C102.999 23.1555 102.999 23.2254 102.929 23.2953C102.86 23.3652 102.72 23.2953 102.72 23.2953H100.555H98.4604C98.4604 23.2953 98.3906 23.2953 98.3207 23.2254C98.2509 23.1555 98.2509 23.0856 98.2509 23.0856V22.9458C98.2509 22.9458 98.2509 22.8759 98.3906 22.7361C98.5302 22.5963 98.8095 22.5963 98.8095 22.5963C99.3682 22.5264 99.7173 21.8974 99.9268 21.5479C99.9268 21.5479 99.9268 21.478 99.9966 21.478C100.066 21.3382 100.416 20.5694 100.765 19.7307C101.114 18.892 101.463 17.9134 101.603 17.6339C102.022 16.5855 102.441 15.6069 103.069 14.0693C103.418 13.2305 103.907 11.9725 104.186 11.2735L104.675 10.0154L105.234 9.73584ZM105.094 12.7413C105.234 13.0209 105.373 13.4402 105.443 13.6499C105.513 13.8596 105.792 14.4886 106.002 15.0478C106.211 15.6069 106.491 16.236 106.63 16.5156C106.77 16.7951 106.84 17.0048 106.84 17.0048C106.84 17.0048 106.002 17.0048 104.954 17.0048C103.767 17.0048 103.069 17.0048 103.069 16.9349C103.069 16.9349 103.139 16.7951 103.139 16.6553C103.209 16.4457 103.628 15.3274 104.466 12.951C104.605 12.6015 104.745 12.252 104.745 12.1821C104.815 12.1821 104.884 12.252 105.094 12.7413Z" fill="white"/>
</svg>
