<svg width="111" height="32" viewBox="0 0 111 32" fill="none" xmlns="http://www.w3.org/2000/svg">
<path d="M52.4418 6.01367H54.7088C58.5752 10.8815 62.4573 15.7684 66.3532 20.6727C66.6714 20.3737 66.5584 20.0434 66.5584 19.7426C66.5619 15.3703 66.5601 10.998 66.5619 6.62563C66.5619 6.45352 66.5619 6.2814 66.5619 6.04844H69.3V25.9438C68.5455 26.0464 67.7753 25.9751 66.9687 25.9821C63.1179 21.1212 59.2619 16.2534 55.4059 11.3856L55.2355 11.4169C55.2077 13.0059 55.2216 14.5966 55.2199 16.1874C55.2182 17.8094 55.2199 19.4314 55.2199 21.0517C55.2199 22.6685 55.2199 24.2853 55.2199 25.9473H52.4435V6.01541L52.4418 6.01367Z" fill="#EAEDED"/>
<path d="M34.1405 15.9894C36.3571 19.3256 38.525 22.5905 40.7555 25.9475H35.1054C32.9253 22.6722 30.7209 19.3621 28.4713 15.9859C30.6948 12.648 32.9079 9.32575 35.1245 6H40.7729C38.5302 9.37617 36.3536 12.655 34.1405 15.9912V15.9894Z" fill="#17A8A7"/>
<path d="M47.7284 25.9551H44.912V6.03711H47.7284V25.9551Z" fill="#EAEDED"/>
<path d="M73.7069 23.457H88.1173V25.9379H73.7069V23.457Z" fill="#EAEDED"/>
<path d="M22.5255 11.7715C22.5255 11.1091 22.4595 10.4659 22.5394 9.84352C22.6976 8.60223 22.3534 7.35573 22.6403 6.06055H28.3251C28.4938 6.64642 28.5407 10.5685 28.386 11.7194C27.7654 11.9036 24.0015 11.9541 22.5255 11.7715Z" fill="#17A8A7"/>
<path d="M28.4418 20.1049C28.4644 22.1372 28.4957 24.0322 28.4279 25.955H22.6439V20.1066C24.525 20.0945 26.4199 20.1014 28.4418 20.1032V20.1049Z" fill="#17A8A7"/>
<path d="M74.1293 8.38451V6.04102H87.7191V8.32714C87.1628 8.49751 75.5427 8.5601 74.1293 8.38451Z" fill="#EAEDED"/>
<path d="M75.3239 17.0496V14.6191H86.5424V16.9818C85.927 17.1626 77.0258 17.2217 75.3239 17.0513V17.0496Z" fill="#EAEDED"/>
</svg>
