<svg width="99" height="25" viewBox="0 0 99 25" fill="none" xmlns="http://www.w3.org/2000/svg">
<path d="M27.8847 18.9582V5.04175H32.4095C33.8436 5.04175 35.0861 5.3344 36.137 5.9197C37.2002 6.49255 38.0223 7.302 38.6034 8.34807C39.1844 9.39414 39.475 10.6083 39.475 11.9906C39.475 13.3605 39.1844 14.5747 38.6034 15.6332C38.0223 16.6793 37.2002 17.4949 36.137 18.0802C35.0861 18.6655 33.8436 18.9582 32.4095 18.9582H27.8847ZM30.0729 16.9968H32.4466C33.4233 16.9968 34.2701 16.7913 34.9872 16.3804C35.7166 15.9694 36.2791 15.3903 36.6747 14.6432C37.0704 13.896 37.2682 13.0118 37.2682 11.9906C37.2682 10.9695 37.0642 10.0915 36.6562 9.35678C36.2606 8.60959 35.7043 8.03051 34.9872 7.61956C34.2701 7.2086 33.4233 7.00313 32.4466 7.00313H30.0729V16.9968Z" fill="#F5FFF9"/>
<path d="M41.63 18.9582V5.04175H50.7354V7.00313H43.8183V11.0006H50.3645V12.962H43.8183V16.9968H50.7354V18.9582H41.63Z" fill="#F5FFF9"/>
<path d="M51.5436 18.9582L56.0499 11.9159L51.6178 5.04175H54.1028L57.8117 10.7951H56.7546L60.4264 5.04175H62.9114L58.4978 11.9159L63.0041 18.9582H60.5192L56.7546 13.0554L57.8117 13.0741L54.01 18.9582H51.5436Z" fill="#F5FFF9"/>
<path d="M66.1546 18.9585V17.3707L69.9377 13.2985C70.6795 12.5015 71.2605 11.8601 71.6809 11.3745C72.1136 10.8763 72.4226 10.4405 72.6081 10.0669C72.8059 9.69329 72.9048 9.30102 72.9048 8.89006C72.9048 8.21759 72.7008 7.70078 72.2928 7.33964C71.8849 6.96605 71.3594 6.77925 70.7165 6.77925C70.0489 6.77925 69.4741 6.97227 68.9919 7.35832C68.5098 7.73192 68.176 8.27986 67.9905 9.00214L66.0619 8.44175C66.2102 7.70701 66.507 7.0719 66.952 6.53641C67.3971 5.98847 67.9411 5.56506 68.5839 5.26619C69.2392 4.96731 69.9439 4.81787 70.698 4.81787C71.5758 4.81787 72.3423 4.98599 72.9975 5.32222C73.6528 5.64601 74.1596 6.10055 74.5182 6.68585C74.8891 7.27115 75.0745 7.94985 75.0745 8.72194C75.0745 9.23252 74.9756 9.73065 74.7778 10.2163C74.5923 10.6895 74.3018 11.1939 73.9062 11.7294C73.5106 12.2524 73.0037 12.8439 72.3856 13.504L69.0476 17.0905H75.3341V18.9585H66.1546Z" fill="#3BD171"/>
<path d="M77.2378 18.9585V17.3707L81.0209 13.2985C81.7627 12.5015 82.3437 11.8601 82.7641 11.3745C83.1968 10.8763 83.5059 10.4405 83.6913 10.0669C83.8891 9.69329 83.988 9.30102 83.988 8.89006C83.988 8.21759 83.784 7.70078 83.376 7.33964C82.9681 6.96605 82.4426 6.77925 81.7998 6.77925C81.1322 6.77925 80.5573 6.97227 80.0751 7.35832C79.593 7.73192 79.2592 8.27986 79.0737 9.00214L77.1451 8.44175C77.2935 7.70701 77.5902 7.0719 78.0352 6.53641C78.4803 5.98847 79.0243 5.56506 79.6672 5.26619C80.3224 4.96731 81.0271 4.81787 81.7812 4.81787C82.659 4.81787 83.4255 4.98599 84.0807 5.32222C84.736 5.64601 85.2428 6.10055 85.6014 6.68585C85.9723 7.27115 86.1577 7.94985 86.1577 8.72194C86.1577 9.23252 86.0588 9.73065 85.861 10.2163C85.6756 10.6895 85.385 11.1939 84.9894 11.7294C84.5938 12.2524 84.0869 12.8439 83.4688 13.504L80.1308 17.0905H86.4173V18.9585H77.2378Z" fill="#3BD171"/>
<path d="M92.8273 19.1826C92.0856 19.1826 91.3871 19.0456 90.7318 18.7717C90.0889 18.4977 89.5326 18.1116 89.0628 17.6135C88.6054 17.1154 88.2778 16.5301 88.08 15.8576L89.9344 15.1478C90.1817 15.8078 90.5587 16.3184 91.0656 16.6795C91.5725 17.0407 92.1597 17.2212 92.8273 17.2212C93.3713 17.2212 93.8411 17.1154 94.2367 16.9037C94.6447 16.692 94.9599 16.3931 95.1825 16.0071C95.4174 15.621 95.5348 15.154 95.5348 14.6061C95.5348 14.0706 95.4174 13.6098 95.1825 13.2238C94.9599 12.8377 94.6447 12.5451 94.2367 12.3458C93.8411 12.1466 93.3713 12.0469 92.8273 12.0469C92.6048 12.0469 92.3761 12.0656 92.1412 12.103C91.9187 12.1403 91.7209 12.1902 91.5478 12.2524L91.0656 11.225L94.7003 6.91001H88.8217V5.04203H97.1482V6.81661L93.5877 11.113L93.532 10.4031C94.3603 10.4156 95.0898 10.6024 95.7203 10.9635C96.3508 11.3122 96.8391 11.7979 97.1853 12.4205C97.5438 13.0307 97.7231 13.7406 97.7231 14.55C97.7231 15.4218 97.5129 16.2125 97.0926 16.9224C96.6722 17.6197 96.0912 18.1739 95.3494 18.5849C94.62 18.9834 93.7793 19.1826 92.8273 19.1826Z" fill="#3BD171"/>
<path fill-rule="evenodd" clip-rule="evenodd" d="M21.7328 11.1562C21.7319 11.1495 21.7301 11.1428 21.7283 11.1354L21.7268 11.1297C21.7256 11.1266 21.7247 11.1236 21.7238 11.1206C21.7229 11.1176 21.722 11.1146 21.7208 11.1116C21.7208 11.1116 21.7205 11.1102 21.72 11.1085C21.7195 11.1071 21.719 11.1054 21.7184 11.1043C21.704 11.0621 21.68 11.015 21.644 10.9739C21.644 10.9739 21.6428 10.9715 21.6416 10.9715C21.6224 10.9498 21.5996 10.9305 21.5732 10.916C21.5706 10.9134 21.5673 10.9114 21.5644 10.9096C21.5632 10.9089 21.5622 10.9082 21.5612 10.9076L17.6544 8.63937L12.3085 5.53586L12.2185 5.48396L12.1885 5.46585L2.85783 0.0470778H2.85543C2.84703 0.0422493 2.78222 0.0132783 2.72461 0.00482849C2.697 0.00120712 2.6706 0 2.6706 0H2.63579C2.58747 0.00331316 2.50902 0.0541148 2.49142 0.0655113L2.49142 0.0655127C2.48978 0.0665721 2.48867 0.0672908 2.48816 0.0675988C2.26014 0.199765 2.03211 0.332233 1.80409 0.464701L1.80402 0.464745L1.80401 0.46475C1.57597 0.597229 1.34793 0.729708 1.11988 0.861885C1.11734 0.863934 1.11458 0.865983 1.11169 0.868124L1.11169 0.868125C1.10777 0.87103 1.10363 0.874104 1.09948 0.877578C1.09348 0.882406 1.08868 0.887235 1.08268 0.89327C1.07788 0.896892 1.07308 0.900513 1.06947 0.906549C1.06587 0.91017 1.06227 0.914998 1.05867 0.919827C1.03587 0.945176 1.02026 0.97294 1.00826 0.99829C1.00346 1.00674 0.999861 1.01519 0.99746 1.02364C0.990259 1.04657 0.985458 1.0671 0.981857 1.08279C0.980657 1.09003 0.979456 1.09848 0.978256 1.10693V22.8086H0.979456C0.977056 22.9546 1.01546 23.0476 1.11268 23.1236C1.11802 23.1272 1.12336 23.131 1.12876 23.1347C1.13793 23.1412 1.14727 23.1477 1.15709 23.1538L2.55657 23.9662L2.56017 23.9686C2.56737 23.9722 2.57458 23.9746 2.58178 23.9771C2.58332 23.9786 2.58535 23.9792 2.58724 23.9797C2.5883 23.98 2.58932 23.9803 2.59018 23.9807C2.59438 23.9819 2.59888 23.9831 2.60338 23.9843C2.60788 23.9855 2.61238 23.9867 2.61658 23.9879C2.61959 23.9891 2.62259 23.99 2.62559 23.9909C2.62859 23.9919 2.63159 23.9928 2.63459 23.994C2.63745 23.994 2.64032 23.9945 2.64331 23.9951C2.64659 23.9957 2.65003 23.9964 2.65379 23.9964C2.65979 23.9976 2.66579 23.9976 2.6718 23.9976L2.6766 23.9976C2.6766 23.9976 2.6874 24 2.6934 24C2.7032 24 2.71379 23.9992 2.72388 23.9976H2.73061C2.73061 23.9976 2.73181 23.9964 2.73301 23.9964C2.73421 23.9964 2.73421 23.9964 2.73541 23.9952C2.73901 23.9952 2.74261 23.9952 2.74621 23.9928C2.75221 23.9915 2.75821 23.9903 2.76421 23.9879C2.77262 23.9879 2.78102 23.9843 2.78942 23.9807C2.79782 23.9783 2.80622 23.9746 2.81462 23.971C2.83023 23.9638 2.84583 23.9553 2.86143 23.9469L6.79822 21.663L21.5744 13.0924C21.71 13.0055 21.7376 12.8884 21.7376 12.7376V11.19C21.7364 11.1779 21.7352 11.1659 21.7328 11.1562ZM4.31373 4.76451V8.22774L7.29273 6.49552L4.31373 4.76451ZM4.48521 11.9982L10.4674 15.4717V8.52469L4.48521 11.9982ZM4.31043 19.2313V15.7681L7.28943 17.4991L4.31043 19.2313ZM13.7968 13.7593L16.8015 12.016L13.7968 10.2726V13.7593Z" fill="#3BD171"/>
<path fill-rule="evenodd" clip-rule="evenodd" d="M21.8127 10.9423C21.8501 10.9573 21.9098 11.0248 21.9098 11.0248C21.9736 11.0996 22.0175 11.1909 22.0367 11.2874V12.8849C22.0367 13.0498 22.0143 13.2373 21.8053 13.3723L3.09083 24.2249C3.06841 24.2399 3.05352 24.2473 3.0311 24.2548C3.02736 24.2585 3.01615 24.2623 3.00495 24.2661C2.99374 24.2698 2.98258 24.2736 2.97884 24.2773H2.94152H2.93405C2.91168 24.2923 2.87432 24.2923 2.85195 24.2923C2.83204 24.2923 2.81545 24.2889 2.80438 24.2867C2.79887 24.2856 2.79472 24.2848 2.79222 24.2848C2.77992 24.2848 2.76757 24.2825 2.7565 24.2805C2.74743 24.2789 2.73923 24.2773 2.73249 24.2773H2.70264L2.6877 24.2698C2.68027 24.2698 2.68027 24.2623 2.6728 24.2623C2.66533 24.2623 2.64291 24.2548 2.64291 24.2548C2.63544 24.2473 2.61307 24.2324 2.61307 24.2324L1.23208 23.4298L1.19472 23.4073C1.04546 23.2949 0.985728 23.1598 0.985728 22.9798C0.985728 22.9723 0.978256 22.9573 0.978256 22.9573V1.25986C0.978256 1.25235 0.985728 1.21481 0.985728 1.21481C0.993201 1.17737 1.00067 1.15485 1.0081 1.12482C1.0081 1.11731 1.03052 1.07986 1.03052 1.07236C1.03799 1.05734 1.06036 1.0123 1.09767 0.967346L1.14246 0.922302C1.14246 0.922302 1.14451 0.920197 1.14861 0.917175C1.15235 0.914429 1.15777 0.910858 1.16488 0.907288L1.20219 0.884857L2.56081 0.0973206C2.56828 0.0898132 2.58322 0.0898132 2.59065 0.0823059C2.60409 0.0721436 2.62806 0.0559387 2.65717 0.0411987C2.69285 0.0231628 2.73618 0.00732422 2.77727 0.00732422H2.82206H2.89674C2.95647 0.0148315 3.02363 0.0373535 3.06094 0.0523682C3.06841 0.0597839 3.08336 0.0672913 3.08336 0.0672913L21.7978 10.9274L21.8127 10.9423ZM14.1015 15.4423L21.4246 11.1974L12.3398 5.92484L11.1081 6.64481L18.8193 11.1223C18.8534 11.1419 18.8748 11.1679 18.8855 11.1982C18.8913 11.2143 18.894 11.2316 18.894 11.2498C18.894 11.2899 18.884 11.3233 18.8617 11.3501C18.8507 11.3633 18.8367 11.3749 18.8193 11.3849L14.1015 14.1223V15.4423ZM14.1015 10.6873V13.6349L16.647 12.1573L14.1015 10.6873ZM2.74743 0.472321C2.73996 0.472321 2.73249 0.479828 2.73249 0.479828L1.61275 1.13232L9.32399 5.6098C9.34609 5.62088 9.36459 5.63928 9.37762 5.66144C9.39101 5.68414 9.39867 5.71069 9.39867 5.73734C9.39867 5.78979 9.36878 5.84235 9.32399 5.86487L4.61365 8.6098V9.92981L11.9218 5.68478L2.87432 0.434784L2.82953 0.427368C2.81463 0.434784 2.78475 0.449799 2.74743 0.472321ZM4.61365 5.17484V8.11487L7.14426 6.64481L4.61365 5.17484ZM8.71186 5.73734L1.40376 1.49231V12.0148L2.63544 12.7348V3.79486C2.63544 3.74231 2.66533 3.69736 2.71011 3.66733C2.7549 3.6373 2.81463 3.6373 2.85942 3.66733L7.57723 6.40485L8.71186 5.73734ZM2.71011 14.6699C2.7549 14.6473 2.81463 14.6473 2.85942 14.6699L7.56976 17.4073L8.71186 16.7473L1.40376 12.4948V22.9573C1.39629 23.0398 1.40376 23.0473 1.44855 23.0698L2.62054 23.7523L2.63544 14.8048C2.63544 14.7523 2.66533 14.6998 2.71011 14.6699ZM4.61365 19.1173L7.15173 17.6473L4.61365 16.1774V19.1173ZM3.03857 23.7823L12.1233 18.5023V17.0698L4.40466 21.5473C4.35987 21.5773 4.30761 21.5773 4.25535 21.5473C4.21056 21.5174 4.18067 21.4723 4.18067 21.4199L4.19562 15.9373L3.05352 15.2698L3.03857 23.7823ZM12.1233 9.30734C12.1233 9.25479 12.1532 9.20233 12.198 9.17981C12.2428 9.14978 12.3025 9.14978 12.3473 9.17981L14.0269 10.1473C14.0418 10.1548 14.0642 10.1699 14.0642 10.1699L17.0651 11.9173L18.2072 11.2498L10.6901 6.88486L4.41956 10.5298C4.37477 10.5524 4.31504 10.5524 4.27025 10.5298C4.22546 10.4998 4.19562 10.4549 4.19562 10.3948V4.92737L3.05352 4.26736V12.9749L9.32399 16.6123C9.36878 16.6349 9.39867 16.6873 9.39867 16.7399C9.39867 16.7645 9.39206 16.7891 9.38044 16.8115C9.36732 16.8366 9.34773 16.8589 9.32399 16.8748L7.65186 17.8499L4.60618 19.6123V20.9474L12.1233 16.5823V9.30734ZM21.5888 13.0123C21.6112 12.9973 21.6187 12.9824 21.6187 12.8849V11.5724L13.9074 16.0348C13.8627 16.0648 13.8104 16.0648 13.7581 16.0348C13.7133 16.0123 13.6835 15.9598 13.6835 15.9073V10.4323L12.5414 9.77234V18.2623L21.5888 13.0123ZM10.6677 8.33231C10.7124 8.30228 10.7722 8.30228 10.817 8.33231C10.8618 8.36224 10.8916 8.40729 10.8916 8.45975V15.8323C10.8916 15.8848 10.8618 15.9373 10.817 15.9597C10.7946 15.9748 10.7647 15.9823 10.7423 15.9823C10.7124 15.9823 10.6677 15.9597 10.6677 15.9597L4.32251 12.2773C4.27772 12.2548 4.24788 12.2022 4.24788 12.1573V12.1423C4.24788 12.0898 4.27772 12.0448 4.32251 12.0147L10.6677 8.33231ZM10.4736 8.93225L4.93463 12.1498L10.4736 15.3598V8.93225Z" fill="#161815"/>
</svg>
