<svg width="662" height="662" viewBox="0 0 662 662" fill="none" xmlns="http://www.w3.org/2000/svg">
    <g clip-path="url(#clip0_2533_79604)">
        <path d="M121.877 112.418L46.6727 112.405L84.3001 177.577L159.518 177.614L197.118 112.442L159.491 47.2691L121.877 112.418Z" fill="url(#paint0_linear_2533_79604)"/>
        <path d="M159.518 177.614L84.3001 177.577L46.6727 112.405L121.877 112.418L159.518 177.614Z" fill="url(#paint1_linear_2533_79604)"/>
        <path d="M197.118 112.441L159.518 177.614L121.877 112.418L159.491 47.2687L197.118 112.441Z" fill="url(#paint2_linear_2533_79604)"/>
        <path d="M121.879 112.421L46.6748 112.408L84.2518 47.249L159.493 47.2724L121.879 112.421Z" fill="url(#paint3_linear_2533_79604)"/>
        <path opacity="0.9" fill-rule="evenodd" clip-rule="evenodd" d="M70.6885 89.762C72.1395 91.2061 74.6067 91.9281 78.0903 91.9281C82.2986 91.9281 86.1164 91.0823 89.5422 89.3494C93.0024 87.596 96.1752 84.9348 99.0853 81.4072C100.872 79.2412 102.585 76.9926 104.251 74.7027C104.831 73.8776 105.264 73.1968 105.55 72.6605C106.508 70.8657 106.818 69.3185 106.483 68.0189C106.158 66.6986 105.284 65.7084 103.848 65.0689C102.434 64.3882 100.576 64.0581 98.3316 64.0581C90.0552 64.0581 83.0193 67.6063 77.2472 74.7027C75.1486 77.3227 73.4226 79.5506 72.0583 81.4072C71.478 82.2324 71.0447 82.9132 70.7367 83.4908C69.2954 86.1932 69.272 88.2974 70.6885 89.762ZM86.5359 85.0792C84.9392 85.925 83.3287 86.3582 81.6921 86.3582C78.8866 86.3582 78.0875 85.1824 79.3872 82.7894C79.6952 82.2118 80.0514 81.6754 80.4434 81.1597C82.3234 78.6429 83.96 76.5387 85.4219 74.8059C86.8591 73.0318 88.3705 71.7321 89.9672 70.8864C91.5873 70.0406 93.2211 69.6073 94.8577 69.6073C97.6399 69.6073 98.3921 70.7832 97.1379 73.1349C96.8298 73.7126 96.4626 74.2695 96.0597 74.8059C94.7408 76.6213 93.1042 78.7254 91.1279 81.1597C89.6908 82.9338 88.1559 84.2334 86.5359 85.0792ZM96.9029 91.2874C96.9909 91.4731 97.1807 91.5556 97.508 91.5556H103.47C103.774 91.5556 104.098 91.4731 104.454 91.2874C104.834 91.1018 105.095 90.8749 105.32 90.586L111.852 82.1075H117.767C121.601 82.1075 124.992 81.4061 127.948 79.9827C130.952 78.5592 133.591 76.3726 135.9 73.402C136.438 72.7006 136.895 72.0198 137.236 71.3803C138.435 69.1317 138.343 67.4195 136.994 66.223C135.657 65.0471 133.381 64.4489 130.131 64.4489H118.464C118.161 64.4489 117.836 64.5314 117.48 64.7171C117.1 64.9027 116.815 65.1297 116.615 65.4185L97.1366 90.586C96.9469 90.8542 96.8726 91.0811 96.9029 91.2874ZM124.597 75.8775C123.366 76.4757 122.16 76.7645 120.921 76.7645H115.894L121.251 69.8331H126.511C127.704 69.8331 128.459 70.0394 128.73 70.452C129.011 70.8439 128.961 71.4216 128.564 72.1642C128.388 72.4943 128.133 72.8862 127.808 73.3194C126.91 74.4334 125.851 75.2792 124.597 75.8775Z" fill="white"/>
        <path d="M608.246 153.969L559.217 153.96L583.748 196.449L632.786 196.473L657.3 153.984L632.769 111.495L608.246 153.969Z" fill="url(#paint4_linear_2533_79604)"/>
        <path d="M632.786 196.473L583.748 196.449L559.217 153.96L608.246 153.969L632.786 196.473Z" fill="url(#paint5_linear_2533_79604)"/>
        <path d="M657.299 153.984L632.786 196.473L608.246 153.969L632.768 111.495L657.299 153.984Z" fill="url(#paint6_linear_2533_79604)"/>
        <path d="M608.248 153.971L559.218 153.962L583.717 111.482L632.77 111.497L608.248 153.971Z" fill="url(#paint7_linear_2533_79604)"/>
        <path opacity="0.9" fill-rule="evenodd" clip-rule="evenodd" d="M615.29 124.921C615.343 125.337 615.25 125.806 615.017 126.288L607.895 139.64C607.648 140.071 607.299 140.493 606.872 140.876C606.444 141.26 605.95 141.596 605.423 141.861L588.033 148.844C587.571 148.979 587.119 149.048 586.7 149.047C586.241 149.05 585.833 148.968 585.5 148.806C585.471 148.79 585.399 148.742 585.293 148.672C585.274 148.66 585.254 148.646 585.233 148.632C585.144 148.572 585.036 148.499 584.915 148.416L581.267 145.874L581.271 145.871L578.226 143.749L599.481 126.329L604.777 126.312L583.32 144.171L583.315 144.175L587.372 146.998C587.58 147.088 587.862 147.093 588.165 147.012L594.154 144.606L600.059 142.233L601.71 141.569L601.716 141.567L600.053 131.638L604.864 127.635L606.782 137.507L612.726 126.362C612.801 126.204 612.832 126.051 612.815 125.914C612.798 125.778 612.734 125.662 612.628 125.577L603.164 118.991C603.044 118.926 602.892 118.893 602.72 118.894C602.548 118.894 602.36 118.929 602.171 118.996C602.12 119.014 585.718 125.597 585.638 125.635C585.458 125.721 585.287 125.832 585.138 125.96C584.99 126.088 584.867 126.23 584.778 126.376L579.111 137.035L575.22 140.097L582.588 126.282C582.851 125.837 583.221 125.403 583.673 125.012C584.124 124.621 584.643 124.284 585.193 124.026C585.405 123.926 585.62 123.838 585.836 123.763C585.836 123.763 601.97 117.277 602.106 117.228C602.683 117.025 603.256 116.919 603.779 116.919C604.302 116.919 604.761 117.025 605.122 117.228L614.71 123.899C615.037 124.154 615.236 124.505 615.29 124.921ZM574.614 141.235L574.613 141.235L574.614 141.236L574.614 141.235ZM574.614 141.235L577.203 143.041L597.946 126.313L595.965 126.267C594.266 126.246 592.216 126.638 590.721 127.855L579.111 137.036L575.221 140.098L574.614 141.235ZM592.836 137.649L594.149 144.604L600.054 142.232L598.351 133.059L592.836 137.649Z" fill="white"/>
        <path d="M314.752 249.113L407.599 83.8452H463.626" stroke="white" stroke-width="2"/>
        <path d="M103.525 149.302L48.2805 246.666L318.86 246.666" stroke="white" stroke-width="2"/>
        <path d="M28.1298 389.924L84.7184 297.329H272.437" stroke="white" stroke-width="2"/>
        <path d="M293.34 297.38L162.412 297.357L227.92 410.82L358.872 410.884L424.333 297.421L358.825 183.957L293.34 297.38Z" fill="url(#paint8_linear_2533_79604)"/>
        <path d="M358.872 410.884L227.92 410.82L162.412 297.357L293.34 297.38L358.872 410.884Z" fill="url(#paint9_linear_2533_79604)"/>
        <path d="M253.607 354.495L187.221 470.09" stroke="white" stroke-width="2"/>
        <path d="M424.333 297.421L358.872 410.885L293.34 297.38L358.825 183.958L424.333 297.421Z" fill="url(#paint10_linear_2533_79604)"/>
        <path d="M293.343 297.387L162.414 297.364L227.834 183.924L358.827 183.965L293.343 297.387Z" fill="url(#paint11_linear_2533_79604)"/>
        <path d="M304.382 234.503L255.753 201.224C255.452 201.046 255.105 201.085 254.426 201.354L254.449 201.342L248.248 203.711C247.825 203.898 247.575 204.181 247.48 204.311L209.059 270.809L209.073 270.791C208.798 271.241 208.789 271.484 209.078 271.708L212.7 274.187C212.987 274.321 213.196 274.301 213.641 274.136L300.739 240.88C301.217 240.683 301.488 240.433 301.769 239.951L304.5 235.223C304.57 235.081 304.68 234.683 304.382 234.503ZM277.523 232.082L285.763 237.721L271.005 243.361L277.523 232.082ZM233.362 248.915L241.587 254.54L226.861 260.167L233.362 248.915ZM261.069 220.822L246.35 226.452L252.852 215.199L261.069 220.822ZM240.263 237.682L268.962 226.715L256.289 248.649L240.263 237.682Z" fill="#BDE3F9"/>
        <path d="M248.859 251.761L241.605 254.552L229.303 246.139L213.001 274.265C212.867 274.267 212.807 274.237 212.7 274.187L209.078 271.708C208.788 271.485 208.798 271.242 209.073 270.791L209.059 270.81L228.223 237.64L248.859 251.761ZM304.559 234.867L267.812 248.885L277.533 232.064L273.457 229.3L257.143 257.52L300.739 240.88C301.218 240.683 301.489 240.433 301.769 239.95L304.501 235.223C304.577 235.067 304.571 234.978 304.559 234.867ZM255.753 201.224C255.452 201.046 255.105 201.085 254.426 201.354L254.449 201.342L248.248 203.711C248.072 203.791 247.925 203.877 247.798 203.978L268.344 218.038L246.334 226.459L243.143 232.003L280.096 217.882L255.753 201.224Z" fill="#8DC2E0"/>
        <path d="M304.597 234.859L267.812 248.885L271.005 243.36L293.042 234.939L272.407 220.819L280.093 217.882L304.382 234.503C304.522 234.609 304.591 234.723 304.597 234.859ZM247.798 203.977C247.679 204.072 247.575 204.18 247.481 204.311L228.224 237.639L232.509 240.59L248.787 212.416L261.108 220.822L268.345 218.037L247.798 203.977ZM223.587 265.764L233.362 248.915L229.303 246.139L212.991 274.288C213.153 274.286 213.346 274.243 213.585 274.163L257.145 257.518L260.539 251.644L223.587 265.764Z" fill="white"/>
        <path d="M591.436 177.157L522.088 297.978L359.319 297.978" stroke="white" stroke-width="2"/>
        <path d="M48.0059 381.192L2.39917 381.184L25.2178 420.707L70.8327 420.73L93.6351 381.206L70.8164 341.683L48.0059 381.192Z" fill="url(#paint12_linear_2533_79604)"/>
        <path d="M70.8327 420.73L25.2178 420.707L2.39917 381.184L48.0059 381.192L70.8327 420.73Z" fill="url(#paint13_linear_2533_79604)"/>
        <path d="M93.6356 381.207L70.8333 420.73L48.0064 381.192L70.8169 341.684L93.6356 381.207Z" fill="url(#paint14_linear_2533_79604)"/>
        <path d="M48.0074 381.194L2.40074 381.186L25.1888 341.671L70.818 341.685L48.0074 381.194Z" fill="url(#paint15_linear_2533_79604)"/>
        <path opacity="0.9" d="M44.4394 346.729L31.5332 356.24L20.7537 370.3L28.6857 376.267L42.9822 370.3L47.1648 356.181L44.4394 346.729ZM22.9081 369.65L31.0882 358.958L28.6778 374.022L22.9081 369.65ZM33.1834 356.535L43.1161 349.21L45.235 356.535L30.6392 372.604L33.1834 356.535ZM31.0212 374.022L44.6797 358.958L41.4541 369.65L31.0212 374.022Z" fill="white"/>
        <path d="M491.13 87.7401L439.913 87.731L465.539 132.116L516.764 132.141L542.372 87.756L516.746 43.3715L491.13 87.7401Z" fill="url(#paint16_linear_2533_79604)"/>
        <path d="M516.764 132.141L465.539 132.116L439.913 87.731L491.13 87.7401L516.764 132.141Z" fill="url(#paint17_linear_2533_79604)"/>
        <path d="M542.371 87.7558L516.764 132.141L491.13 87.7399L516.746 43.3713L542.371 87.7558Z" fill="url(#paint18_linear_2533_79604)"/>
        <path d="M491.131 87.7421L439.914 87.733L465.505 43.3576L516.747 43.3735L491.131 87.7421Z" fill="url(#paint19_linear_2533_79604)"/>
        <path opacity="0.9" fill-rule="evenodd" clip-rule="evenodd" d="M479.011 71.2181C479.85 71.2181 480.712 71.1272 481.581 70.9559C482.141 70.2696 482.627 69.5514 483.022 68.8119C485.621 63.9385 483.251 59.9891 477.728 59.9891C476.89 59.9891 476.028 60.08 475.158 60.2513C474.598 60.9377 474.112 61.6559 473.718 62.3953C471.119 67.2687 473.488 71.2181 479.011 71.2181ZM486.658 68.8119C486.587 68.9441 486.515 69.0759 486.44 69.2072C489.528 67.5891 492.253 65.1386 493.716 62.3953C496.315 57.522 493.946 53.5725 488.422 53.5725C485.313 53.5725 481.869 54.824 478.988 56.7872C479.139 56.7829 479.289 56.7808 479.439 56.7808C486.97 56.7808 490.202 62.1675 486.658 68.8119ZM483.112 73.4811C488.98 71.6547 494.694 67.3787 497.352 62.3953C500.896 55.751 497.664 50.3643 490.133 50.3643C484.485 50.3643 478.022 53.3952 473.649 57.7143C473.645 57.7154 473.642 57.7165 473.638 57.7176C473.636 57.7202 473.633 57.7229 473.63 57.7255C467.761 59.5515 462.046 63.8279 459.387 68.8119C455.844 75.4562 459.076 80.843 466.606 80.843C472.253 80.843 478.714 77.8138 483.087 73.4967C483.091 73.4954 483.095 73.4941 483.1 73.4928C483.104 73.4889 483.108 73.485 483.112 73.4811ZM477.3 74.4264C477.45 74.4264 477.601 74.4243 477.752 74.42C474.871 76.3833 471.426 77.6347 468.317 77.6347C462.794 77.6347 460.424 73.6853 463.024 68.8119C464.487 66.0686 467.212 63.6181 470.3 62.0001C470.225 62.1313 470.152 62.2631 470.082 62.3953C466.538 69.0397 469.77 74.4264 477.3 74.4264Z" fill="white"/>
        <path d="M190.46 470.401L130.088 470.391L160.294 522.709L220.677 522.739L250.861 470.42L220.655 418.102L190.46 470.401Z" fill="url(#paint20_linear_2533_79604)"/>
        <path d="M220.677 522.739L160.294 522.709L130.088 470.391L190.46 470.401L220.677 522.739Z" fill="url(#paint21_linear_2533_79604)"/>
        <path d="M250.862 470.42L220.678 522.739L190.461 470.402L220.656 418.102L250.862 470.42Z" fill="url(#paint22_linear_2533_79604)"/>
        <path d="M190.462 470.404L130.09 470.394L160.256 418.086L220.657 418.105L190.462 470.404Z" fill="url(#paint23_linear_2533_79604)"/>
        <path opacity="0.9" d="M166.25 460.754C176.548 460.754 188.816 453.402 193.654 444.332C198.491 435.261 194.065 427.909 183.767 427.909C173.998 427.909 162.455 434.528 157.166 442.951H181.81L180.337 445.712H155.693C151.997 454.135 156.481 460.754 166.25 460.754Z" fill="white"/>
        <path d="M170.972 496.551L105.515 608.736L229.744 608.736" stroke="white" stroke-width="2"/>
        <path d="M433.107 489.605L338.441 489.588L385.806 571.626L480.489 571.673L527.82 489.634L480.455 407.595L433.107 489.605Z" fill="url(#paint24_linear_2533_79604)"/>
        <path d="M480.489 571.673L385.806 571.626L338.441 489.588L433.107 489.605L480.489 571.673Z" fill="url(#paint25_linear_2533_79604)"/>
        <path d="M527.82 489.633L480.489 571.671L433.107 489.603L480.455 407.594L527.82 489.633Z" fill="url(#paint26_linear_2533_79604)"/>
        <path d="M433.11 489.608L338.444 489.591L385.745 407.57L480.458 407.599L433.11 489.608Z" fill="url(#paint27_linear_2533_79604)"/>
        <path opacity="0.9" d="M405.904 468.46L402.363 475.1L393.91 478.502L389.275 475.1L392.816 468.46L397.451 471.862L405.904 468.46ZM382.632 445.496L387.267 448.898L381.194 460.284L389.212 466.073L385.671 472.713L372.93 463.686L382.632 445.496ZM440.394 445.496L430.678 463.714L408.12 472.74L411.661 466.101L425.854 460.312L431.927 448.926L440.394 445.496ZM427.433 436.47L432.257 439.872L428.716 446.511L414.522 452.3L408.362 463.851L400.098 467.253L395.494 463.851L401.669 452.273L393.242 446.484L396.783 439.844L405.236 436.442L413.254 442.231L427.433 436.47ZM390.696 451.258L395.331 454.66L391.79 461.299L387.155 457.897L390.696 451.258ZM426.184 451.258L422.643 457.897L414.379 461.299L417.92 454.66L426.184 451.258ZM396.983 430.68L401.807 434.083L393.354 437.485L389.813 444.124L385.178 440.722L388.719 434.083L396.983 430.68ZM441.846 430.68L446.67 434.083L443.129 440.722L434.676 444.124L438.218 437.485L433.582 434.083L441.846 430.68ZM419.415 430.68L424.238 434.083L415.786 437.485L411.151 434.083L419.415 430.68ZM425.487 419.294L438.417 428.321L430.153 431.723L422.135 425.934L407.721 431.723L403.086 428.321L425.487 419.294Z" fill="white"/>
        <path d="M519.46 300.211L443.355 300.197L481.433 366.15L557.551 366.187L595.602 300.234L557.524 234.281L519.46 300.211Z" fill="url(#paint28_linear_2533_79604)"/>
        <path d="M557.551 366.187L481.433 366.15L443.355 300.197L519.46 300.211L557.551 366.187Z" fill="url(#paint29_linear_2533_79604)"/>
        <path d="M595.602 300.235L557.551 366.188L519.46 300.211L557.524 234.282L595.602 300.235Z" fill="url(#paint30_linear_2533_79604)"/>
        <path d="M519.462 300.214L443.357 300.201L481.384 234.261L557.526 234.285L519.462 300.214Z" fill="url(#paint31_linear_2533_79604)"/>
        <path opacity="0.9" fill-rule="evenodd" clip-rule="evenodd" d="M512.276 243.687L483.01 267.747L483.01 267.747L483.01 267.747L490.353 273.053L494.872 276.318L494.872 276.318L494.872 276.319L494.872 276.318L494.876 276.317L494.877 276.318L515.882 267.747L512.28 243.687L512.269 243.7L512.276 243.687ZM487.079 290.931L487.079 290.93L487.078 290.931L487.078 290.927L481.543 270.497L493.408 279.064L514.42 270.497L487.08 290.929L487.079 290.931Z" fill="white"/>
        <path d="M226.013 607.083L180.396 607.075L203.22 646.607L248.845 646.629L271.653 607.098L248.829 567.566L226.013 607.083Z" fill="url(#paint32_linear_2533_79604)"/>
        <path d="M248.845 646.629L203.22 646.607L180.396 607.075L226.013 607.083L248.845 646.629Z" fill="url(#paint33_linear_2533_79604)"/>
        <path d="M271.653 607.098L248.845 646.63L226.013 607.084L248.829 567.566L271.653 607.098Z" fill="url(#paint34_linear_2533_79604)"/>
        <path d="M248.146 608.378L366.898 608.378L406.67 537.623" stroke="white" stroke-width="2"/>
        <path d="M226.014 607.086L180.397 607.078L203.191 567.554L248.83 567.568L226.014 607.086Z" fill="url(#paint35_linear_2533_79604)"/>
        <path fill-rule="evenodd" clip-rule="evenodd" d="M196.188 598.749L201.039 598.749C202.181 598.749 202.752 598.749 203.328 598.625C203.965 598.478 204.613 598.218 205.228 597.861C205.791 597.534 206.303 597.1 207.313 596.245L207.314 596.244L207.343 596.219L218.868 586.407C219.886 585.545 220.393 585.112 220.759 584.657C221.157 584.164 221.434 583.644 221.562 583.151C221.681 582.699 221.632 582.269 221.534 581.42L221.532 581.401L221.092 577.608C221.004 576.817 220.957 576.422 220.71 576.276C220.444 576.118 220.026 576.118 219.592 576.276C219.189 576.422 218.72 576.817 217.789 577.608L195.877 596.235C194.958 597.016 194.498 597.406 194.346 597.725C194.185 598.072 194.22 598.386 194.451 598.576C194.665 598.749 195.169 598.749 196.188 598.749ZM220.239 598.749L213.288 598.749C212.263 598.749 211.747 598.749 211.539 598.576C211.308 598.386 211.276 598.067 211.437 597.72C211.587 597.403 212.047 597.016 212.968 596.243L212.968 596.243L212.989 596.225L219.261 590.97C220.184 590.195 220.647 589.81 221.044 589.664C221.478 589.507 221.89 589.507 222.156 589.664C222.397 589.806 222.447 590.175 222.547 590.904L222.547 590.905L222.555 590.964L223.234 596.219L223.235 596.23C223.238 596.252 223.24 596.274 223.243 596.296L223.243 596.296C223.334 597.031 223.38 597.406 223.198 597.715C222.994 598.061 222.615 598.381 222.182 598.571C221.78 598.749 221.264 598.749 220.239 598.749Z" fill="white"/>
    </g>
    <defs>
        <linearGradient id="paint0_linear_2533_79604" x1="129.135" y1="84.1108" x2="150.004" y2="172.395" gradientUnits="userSpaceOnUse">
            <stop stop-color="#7D97A4"/>
            <stop offset="1" stop-color="#2A3A45"/>
        </linearGradient>
        <linearGradient id="paint1_linear_2533_79604" x1="92.0784" y1="105.506" x2="90.7022" y2="186.703" gradientUnits="userSpaceOnUse">
            <stop stop-color="#7D97A4"/>
            <stop offset="1" stop-color="#2A3A45"/>
        </linearGradient>
        <linearGradient id="paint2_linear_2533_79604" x1="143.458" y1="87.6139" x2="187.728" y2="161.326" gradientUnits="userSpaceOnUse">
            <stop stop-color="#7D97A4"/>
            <stop offset="1" stop-color="#2A3A45"/>
        </linearGradient>
        <linearGradient id="paint3_linear_2533_79604" x1="151.256" y1="44.0339" x2="103.088" y2="123.855" gradientUnits="userSpaceOnUse">
            <stop stop-color="#2A3A45"/>
            <stop offset="1" stop-color="#96B5C4"/>
        </linearGradient>
        <linearGradient id="paint4_linear_2533_79604" x1="612.979" y1="135.514" x2="626.584" y2="193.071" gradientUnits="userSpaceOnUse">
            <stop stop-color="#7D97A4"/>
            <stop offset="1" stop-color="#2A3A45"/>
        </linearGradient>
        <linearGradient id="paint5_linear_2533_79604" x1="588.819" y1="149.462" x2="587.922" y2="202.399" gradientUnits="userSpaceOnUse">
            <stop stop-color="#7D97A4"/>
            <stop offset="1" stop-color="#2A3A45"/>
        </linearGradient>
        <linearGradient id="paint6_linear_2533_79604" x1="622.316" y1="137.798" x2="651.178" y2="185.855" gradientUnits="userSpaceOnUse">
            <stop stop-color="#7D97A4"/>
            <stop offset="1" stop-color="#2A3A45"/>
        </linearGradient>
        <linearGradient id="paint7_linear_2533_79604" x1="627.4" y1="109.386" x2="595.997" y2="161.425" gradientUnits="userSpaceOnUse">
            <stop stop-color="#2A3A45"/>
            <stop offset="1" stop-color="#96B5C4"/>
        </linearGradient>
        <linearGradient id="paint8_linear_2533_79604" x1="305.977" y1="248.098" x2="342.309" y2="401.799" gradientUnits="userSpaceOnUse">
            <stop stop-color="#7D97A4"/>
            <stop offset="1" stop-color="#2A3A45"/>
        </linearGradient>
        <linearGradient id="paint9_linear_2533_79604" x1="241.462" y1="285.346" x2="239.066" y2="426.708" gradientUnits="userSpaceOnUse">
            <stop stop-color="#7D97A4"/>
            <stop offset="1" stop-color="#2A3A45"/>
        </linearGradient>
        <linearGradient id="paint10_linear_2533_79604" x1="330.911" y1="254.198" x2="407.985" y2="382.529" gradientUnits="userSpaceOnUse">
            <stop stop-color="#7D97A4"/>
            <stop offset="1" stop-color="#2A3A45"/>
        </linearGradient>
        <linearGradient id="paint11_linear_2533_79604" x1="344.487" y1="178.327" x2="260.628" y2="317.293" gradientUnits="userSpaceOnUse">
            <stop stop-color="#2A3A45"/>
            <stop offset="1" stop-color="#96B5C4"/>
        </linearGradient>
        <linearGradient id="paint12_linear_2533_79604" x1="52.4077" y1="364.026" x2="65.0633" y2="417.565" gradientUnits="userSpaceOnUse">
            <stop stop-color="#7D97A4"/>
            <stop offset="1" stop-color="#2A3A45"/>
        </linearGradient>
        <linearGradient id="paint13_linear_2533_79604" x1="29.9349" y1="377" x2="29.1003" y2="426.241" gradientUnits="userSpaceOnUse">
            <stop stop-color="#7D97A4"/>
            <stop offset="1" stop-color="#2A3A45"/>
        </linearGradient>
        <linearGradient id="paint14_linear_2533_79604" x1="61.0936" y1="366.15" x2="87.9411" y2="410.852" gradientUnits="userSpaceOnUse">
            <stop stop-color="#7D97A4"/>
            <stop offset="1" stop-color="#2A3A45"/>
        </linearGradient>
        <linearGradient id="paint15_linear_2533_79604" x1="65.8228" y1="339.721" x2="36.6119" y2="388.128" gradientUnits="userSpaceOnUse">
            <stop stop-color="#2A3A45"/>
            <stop offset="1" stop-color="#96B5C4"/>
        </linearGradient>
        <linearGradient id="paint16_linear_2533_79604" x1="496.073" y1="68.4619" x2="510.285" y2="128.587" gradientUnits="userSpaceOnUse">
            <stop stop-color="#7D97A4"/>
            <stop offset="1" stop-color="#2A3A45"/>
        </linearGradient>
        <linearGradient id="paint17_linear_2533_79604" x1="470.836" y1="83.0325" x2="469.899" y2="138.331" gradientUnits="userSpaceOnUse">
            <stop stop-color="#7D97A4"/>
            <stop offset="1" stop-color="#2A3A45"/>
        </linearGradient>
        <linearGradient id="paint18_linear_2533_79604" x1="505.827" y1="70.8477" x2="535.976" y2="121.048" gradientUnits="userSpaceOnUse">
            <stop stop-color="#7D97A4"/>
            <stop offset="1" stop-color="#2A3A45"/>
        </linearGradient>
        <linearGradient id="paint19_linear_2533_79604" x1="511.137" y1="41.168" x2="478.333" y2="95.5289" gradientUnits="userSpaceOnUse">
            <stop stop-color="#2A3A45"/>
            <stop offset="1" stop-color="#96B5C4"/>
        </linearGradient>
        <linearGradient id="paint20_linear_2533_79604" x1="196.287" y1="447.677" x2="213.04" y2="518.549" gradientUnits="userSpaceOnUse">
            <stop stop-color="#7D97A4"/>
            <stop offset="1" stop-color="#2A3A45"/>
        </linearGradient>
        <linearGradient id="paint21_linear_2533_79604" x1="166.539" y1="464.852" x2="165.434" y2="530.035" gradientUnits="userSpaceOnUse">
            <stop stop-color="#7D97A4"/>
            <stop offset="1" stop-color="#2A3A45"/>
        </linearGradient>
        <linearGradient id="paint22_linear_2533_79604" x1="207.785" y1="450.49" x2="243.324" y2="509.664" gradientUnits="userSpaceOnUse">
            <stop stop-color="#7D97A4"/>
            <stop offset="1" stop-color="#2A3A45"/>
        </linearGradient>
        <linearGradient id="paint23_linear_2533_79604" x1="214.045" y1="415.505" x2="175.377" y2="479.583" gradientUnits="userSpaceOnUse">
            <stop stop-color="#2A3A45"/>
            <stop offset="1" stop-color="#96B5C4"/>
        </linearGradient>
        <linearGradient id="paint24_linear_2533_79604" x1="442.244" y1="453.971" x2="468.513" y2="565.103" gradientUnits="userSpaceOnUse">
            <stop stop-color="#7D97A4"/>
            <stop offset="1" stop-color="#2A3A45"/>
        </linearGradient>
        <linearGradient id="paint25_linear_2533_79604" x1="395.597" y1="480.903" x2="393.864" y2="583.114" gradientUnits="userSpaceOnUse">
            <stop stop-color="#7D97A4"/>
            <stop offset="1" stop-color="#2A3A45"/>
        </linearGradient>
        <linearGradient id="paint26_linear_2533_79604" x1="460.272" y1="458.38" x2="516" y2="551.169" gradientUnits="userSpaceOnUse">
            <stop stop-color="#7D97A4"/>
            <stop offset="1" stop-color="#2A3A45"/>
        </linearGradient>
        <linearGradient id="paint27_linear_2533_79604" x1="470.09" y1="403.522" x2="409.456" y2="504.001" gradientUnits="userSpaceOnUse">
            <stop stop-color="#2A3A45"/>
            <stop offset="1" stop-color="#96B5C4"/>
        </linearGradient>
        <linearGradient id="paint28_linear_2533_79604" x1="526.805" y1="271.564" x2="547.924" y2="360.906" gradientUnits="userSpaceOnUse">
            <stop stop-color="#7D97A4"/>
            <stop offset="1" stop-color="#2A3A45"/>
        </linearGradient>
        <linearGradient id="paint29_linear_2533_79604" x1="489.304" y1="293.215" x2="487.912" y2="375.385" gradientUnits="userSpaceOnUse">
            <stop stop-color="#7D97A4"/>
            <stop offset="1" stop-color="#2A3A45"/>
        </linearGradient>
        <linearGradient id="paint30_linear_2533_79604" x1="541.299" y1="275.11" x2="586.1" y2="349.705" gradientUnits="userSpaceOnUse">
            <stop stop-color="#7D97A4"/>
            <stop offset="1" stop-color="#2A3A45"/>
        </linearGradient>
        <linearGradient id="paint31_linear_2533_79604" x1="549.191" y1="231.008" x2="500.446" y2="311.785" gradientUnits="userSpaceOnUse">
            <stop stop-color="#2A3A45"/>
            <stop offset="1" stop-color="#96B5C4"/>
        </linearGradient>
        <linearGradient id="paint32_linear_2533_79604" x1="230.416" y1="589.913" x2="243.074" y2="643.464" gradientUnits="userSpaceOnUse">
            <stop stop-color="#7D97A4"/>
            <stop offset="1" stop-color="#2A3A45"/>
        </linearGradient>
        <linearGradient id="paint33_linear_2533_79604" x1="207.938" y1="602.89" x2="207.103" y2="652.143" gradientUnits="userSpaceOnUse">
            <stop stop-color="#7D97A4"/>
            <stop offset="1" stop-color="#2A3A45"/>
        </linearGradient>
        <linearGradient id="paint34_linear_2533_79604" x1="239.104" y1="592.038" x2="265.957" y2="636.75" gradientUnits="userSpaceOnUse">
            <stop stop-color="#7D97A4"/>
            <stop offset="1" stop-color="#2A3A45"/>
        </linearGradient>
        <linearGradient id="paint35_linear_2533_79604" x1="243.834" y1="565.604" x2="214.616" y2="614.021" gradientUnits="userSpaceOnUse">
            <stop stop-color="#2A3A45"/>
            <stop offset="1" stop-color="#96B5C4"/>
        </linearGradient>
        <clipPath id="clip0_2533_79604">
            <rect width="662" height="662" fill="white"/>
        </clipPath>
    </defs>
</svg>
