<svg width="713" height="713" viewBox="0 0 713 713" fill="none" xmlns="http://www.w3.org/2000/svg">
<g clip-path="url(#clip0_65_2)">
<mask id="mask0_65_2" style="mask-type:luminance" maskUnits="userSpaceOnUse" x="0" y="0" width="713" height="713">
<path d="M713 0H0V713H713V0Z" fill="white"/>
</mask>
<g mask="url(#mask0_65_2)">
<path d="M131.266 121.274L50.2686 121.26L90.7947 191.453L171.807 191.493L212.304 121.299L171.778 51.1064L131.266 121.274Z" fill="url(#paint0_linear_65_2)"/>
<path d="M171.807 191.493L90.7947 191.453L50.2686 121.26L131.266 121.274L171.807 191.493Z" fill="url(#paint1_linear_65_2)"/>
<path d="M212.304 121.299L171.807 191.493L131.266 121.274L171.778 51.1055L212.304 121.299Z" fill="url(#paint2_linear_65_2)"/>
<path d="M131.269 121.278L50.2705 121.263L90.7424 51.084L171.78 51.1091L131.269 121.278Z" fill="url(#paint3_linear_65_2)"/>
<path opacity="0.9" fill-rule="evenodd" clip-rule="evenodd" d="M76.1343 96.8726C77.697 98.4279 80.3543 99.2056 84.1063 99.2056C88.6388 99.2056 92.7507 98.2946 96.4405 96.4283C100.167 94.5397 103.584 91.6735 106.719 87.8742C108.643 85.5412 110.488 83.1194 112.282 80.6532C112.907 79.7644 113.374 79.0312 113.682 78.4536C114.713 76.5206 115.048 74.8542 114.686 73.4544C114.337 72.0324 113.395 70.9659 111.848 70.2772C110.326 69.544 108.324 69.1885 105.907 69.1885C96.993 69.1885 89.415 73.01 83.1983 80.6532C80.9379 83.4749 79.079 85.8745 77.6096 87.8742C76.9845 88.7629 76.518 89.4961 76.1862 90.1182C74.6338 93.0288 74.6087 95.2951 76.1343 96.8726ZM93.2025 91.829C91.4828 92.74 89.7483 93.2066 87.9856 93.2066C84.9639 93.2066 84.1033 91.9401 85.5031 89.3628C85.8349 88.7407 86.2185 88.163 86.6407 87.6075C88.6655 84.8969 90.4282 82.6306 92.0027 80.7643C93.5506 78.8535 95.1785 77.4537 96.8982 76.5428C98.6431 75.6318 100.403 75.1652 102.165 75.1652C105.162 75.1652 105.972 76.4317 104.621 78.9646C104.289 79.5867 103.894 80.1866 103.46 80.7643C102.04 82.7195 100.277 84.9858 98.1483 87.6075C96.6004 89.5183 94.9474 90.9181 93.2025 91.829ZM104.368 98.5155C104.463 98.7155 104.667 98.8044 105.02 98.8044H111.441C111.768 98.8044 112.118 98.7155 112.502 98.5155C112.91 98.3156 113.192 98.0712 113.433 97.7601L120.469 88.6283H126.84C130.97 88.6283 134.621 87.8729 137.805 86.3398C141.04 84.8068 143.883 82.4516 146.37 79.2522C146.949 78.4967 147.441 77.7635 147.808 77.0748C149.1 74.653 149.001 72.8088 147.547 71.5202C146.108 70.2537 143.656 69.6094 140.156 69.6094H127.591C127.263 69.6094 126.914 69.6982 126.53 69.8982C126.121 70.0982 125.815 70.3426 125.599 70.6536L104.62 97.7601C104.416 98.049 104.336 98.2934 104.368 98.5155ZM134.196 81.9184C132.87 82.5627 131.571 82.8738 130.236 82.8738H124.822L130.592 75.4084H136.258C137.542 75.4084 138.355 75.6306 138.647 76.0749C138.95 76.4971 138.896 77.1192 138.469 77.9191C138.279 78.2746 138.004 78.6967 137.654 79.1633C136.687 80.3631 135.547 81.274 134.196 81.9184Z" fill="white"/>
<path d="M655.105 166.026L602.299 166.017L628.72 211.779L681.536 211.805L707.938 166.042L681.517 120.28L655.105 166.026Z" fill="url(#paint4_linear_65_2)"/>
<path d="M681.536 211.806L628.72 211.78L602.299 166.018L655.105 166.027L681.536 211.806Z" fill="url(#paint5_linear_65_2)"/>
<path d="M707.937 166.042L681.535 211.804L655.105 166.026L681.516 120.28L707.937 166.042Z" fill="url(#paint6_linear_65_2)"/>
<path d="M655.106 166.029L602.3 166.02L628.686 120.267L681.518 120.283L655.106 166.029Z" fill="url(#paint7_linear_65_2)"/>
<path opacity="0.9" fill-rule="evenodd" clip-rule="evenodd" d="M662.692 134.741C662.749 135.189 662.648 135.694 662.398 136.213L654.728 150.593C654.461 151.057 654.085 151.512 653.625 151.925C653.165 152.338 652.632 152.7 652.065 152.985L633.335 160.506C632.837 160.652 632.35 160.726 631.899 160.725C631.405 160.728 630.965 160.64 630.607 160.466C630.576 160.448 630.498 160.397 630.384 160.321C630.364 160.308 630.342 160.294 630.319 160.279C630.224 160.214 630.107 160.135 629.976 160.045L626.048 157.308L626.053 157.304L622.773 155.019L645.664 136.257L651.369 136.239L628.258 155.474L628.254 155.478L632.623 158.518C632.847 158.615 633.151 158.62 633.478 158.533L639.927 155.942L646.287 153.386L648.066 152.671L648.072 152.669L646.281 141.975L651.462 137.664L653.528 148.296L659.93 136.293C660.011 136.123 660.044 135.957 660.026 135.81C660.008 135.663 659.939 135.539 659.825 135.448L649.632 128.354C649.502 128.284 649.339 128.248 649.154 128.249C648.968 128.25 648.766 128.287 648.562 128.359C648.507 128.378 630.841 135.469 630.755 135.51C630.561 135.602 630.377 135.721 630.217 135.859C630.057 135.997 629.925 136.15 629.829 136.308L623.725 147.788L619.535 151.086L627.471 136.207C627.753 135.727 628.153 135.26 628.639 134.839C629.124 134.418 629.684 134.055 630.276 133.777C630.504 133.669 630.736 133.574 630.969 133.493C630.969 133.493 648.346 126.508 648.492 126.455C649.114 126.236 649.731 126.122 650.294 126.122C650.857 126.122 651.352 126.236 651.74 126.455L662.067 133.639C662.42 133.914 662.634 134.292 662.692 134.741ZM618.882 152.312L621.67 154.257L644.012 136.239L641.878 136.19C640.049 136.167 637.84 136.589 636.23 137.901L623.726 147.789L619.536 151.087L618.882 152.312ZM638.508 148.449L639.922 155.94L646.282 153.385L644.447 143.505L638.508 148.449Z" fill="white"/>
<path d="M339 268.5L439 90.5H499.344" stroke="white" stroke-width="2"/>
<path d="M111.5 161L52 265.865L343.425 265.864" stroke="white" stroke-width="2"/>
<path d="M30.2969 420.16L91.245 320.432H293.425" stroke="white" stroke-width="2"/>
<path d="M315.939 320.485L174.924 320.46L245.478 442.665L386.519 442.734L457.023 320.529L386.468 198.325L315.939 320.485Z" fill="url(#paint8_linear_65_2)"/>
<path d="M386.519 442.734L245.478 442.665L174.924 320.46L315.939 320.485L386.519 442.734Z" fill="url(#paint9_linear_65_2)"/>
<path d="M273.144 382L201.644 506.5" stroke="white" stroke-width="2"/>
<path d="M457.023 320.53L386.519 442.734L315.938 320.486L386.468 198.325L457.023 320.53Z" fill="url(#paint10_linear_65_2)"/>
<path d="M315.943 320.492L174.928 320.467L245.388 198.288L386.472 198.332L315.943 320.492Z" fill="url(#paint11_linear_65_2)"/>
<path d="M637 191L562.309 321.129H387" stroke="white" stroke-width="2"/>
<path opacity="0.9" fill-rule="evenodd" clip-rule="evenodd" d="M330.689 253.375L290.942 269.643L293.64 264.584L319.252 254.093C319.346 254.055 319.429 254.011 319.503 253.96C319.652 253.858 319.763 253.73 319.845 253.576C319.882 253.506 319.906 253.44 319.914 253.378C319.931 253.262 319.893 253.162 319.789 253.087L296.222 235.928L302.92 233.168L330.689 253.375ZM273.286 212.301C273.286 212.301 273.333 212.272 273.365 212.272C273.569 212.186 273.727 212.129 273.805 212.1L273.98 212.129L301.637 232.249L261.953 248.517L264.651 243.458L290.247 232.939C290.483 232.852 290.717 232.651 290.824 232.45C290.879 232.348 290.9 232.246 290.89 232.159C290.88 232.074 290.839 232.004 290.768 231.961L267.202 214.802L273.286 212.301ZM265.579 216.181L287.91 232.45L281.732 235.008L267.31 224.517C267.181 224.402 266.928 224.402 266.676 224.517C266.425 224.632 266.206 224.804 266.099 225.006L247.826 259.267L244.072 256.508L265.579 216.181ZM244.821 266.683C244.677 266.596 244.424 266.596 244.188 266.683C243.936 266.797 243.702 266.999 243.595 267.2L225.244 301.49L221.666 298.875C221.522 298.788 221.506 298.76 221.706 298.443L243.091 258.347L265.406 274.644L259.212 277.174L244.821 266.683ZM276.294 281.37L226.956 301.605L244.418 268.982L247.9 271.54L236.631 292.551C236.523 292.752 236.558 292.925 236.687 293.04C236.847 293.155 237.069 293.155 237.32 293.04L279.222 275.88L276.294 281.37ZM295.665 245.643C295.429 245.729 295.195 245.93 295.088 246.132L280.218 274.012L239.402 290.741L242.13 285.624L258.655 278.87L267.743 275.133C267.876 275.072 268.005 274.987 268.112 274.89C268.207 274.805 268.285 274.71 268.336 274.616C268.443 274.414 268.423 274.213 268.279 274.127L249.109 260.187L266.907 226.816L270.404 229.346L259.228 250.299C259.106 250.529 259.14 250.702 259.269 250.817C259.413 250.903 259.667 250.903 259.903 250.817L293.958 236.848L316.931 253.576L310.72 256.134L301.56 249.437C301.56 249.437 301.495 249.38 301.447 249.351L296.298 245.643C296.17 245.528 295.917 245.528 295.665 245.643ZM328.063 259.842C327.864 260.216 327.802 260.273 327.676 260.33L278.558 280.45L295.911 247.914L299.408 250.443L288.217 271.425C288.11 271.626 288.129 271.827 288.273 271.914C288.434 272.029 288.656 272.029 288.907 271.914L330.746 254.812L328.063 259.842ZM291.538 242.395C291.409 242.28 291.156 242.28 290.904 242.395L256.456 256.507C256.204 256.622 255.986 256.795 255.879 256.996L255.848 257.054C255.756 257.226 255.775 257.427 255.919 257.514L275.314 271.626C275.314 271.626 275.458 271.712 275.585 271.712C275.68 271.712 275.822 271.684 275.948 271.626C276.184 271.54 276.418 271.339 276.525 271.138L291.594 242.883C291.701 242.682 291.667 242.51 291.538 242.395Z" fill="white"/>
<path d="M51.7042 410.754L2.58398 410.745L27.1606 453.313L76.2897 453.337L100.849 410.769L76.2721 368.202L51.7042 410.754Z" fill="url(#paint12_linear_65_2)"/>
<path d="M76.2897 453.337L27.1606 453.313L2.58398 410.745L51.7042 410.754L76.2897 453.337Z" fill="url(#paint13_linear_65_2)"/>
<path d="M100.848 410.77L76.2895 453.337L51.7041 410.754L76.2719 368.202L100.848 410.77Z" fill="url(#paint14_linear_65_2)"/>
<path d="M51.7057 410.757L2.58545 410.747L27.1291 368.188L76.2735 368.204L51.7057 410.757Z" fill="url(#paint15_linear_65_2)"/>
<path opacity="0.9" d="M47.863 373.636L33.9624 383.88L22.3525 399.023L30.8956 405.45L46.2935 399.023L50.7983 383.816L47.863 373.636ZM24.6728 398.323L33.4831 386.807L30.8871 403.032L24.6728 398.323ZM35.7398 384.198L46.4377 376.308L48.7198 384.198L32.9995 401.505L35.7398 384.198ZM33.411 403.032L48.1217 386.807L44.6476 398.323L33.411 403.032Z" fill="white"/>
<path d="M528.966 94.695L473.803 94.6852L501.403 142.489L556.575 142.516L584.155 94.7121L556.555 46.9082L528.966 94.695Z" fill="url(#paint16_linear_65_2)"/>
<path d="M556.575 142.516L501.403 142.489L473.803 94.6855L528.966 94.6954L556.575 142.516Z" fill="url(#paint17_linear_65_2)"/>
<path d="M584.155 94.7121L556.575 142.516L528.965 94.695L556.555 46.9082L584.155 94.7121Z" fill="url(#paint18_linear_65_2)"/>
<path d="M528.967 94.6975L473.805 94.6876L501.367 46.8936L556.557 46.9107L528.967 94.6975Z" fill="url(#paint19_linear_65_2)"/>
<path opacity="0.9" fill-rule="evenodd" clip-rule="evenodd" d="M515.914 76.9009C516.816 76.9009 517.745 76.8029 518.681 76.6185C519.285 75.8792 519.808 75.1057 520.233 74.3093C523.032 69.0604 520.48 64.8068 514.532 64.8068C513.629 64.8068 512.7 64.9047 511.764 65.0892C511.161 65.8284 510.637 66.6019 510.212 67.3984C507.413 72.6472 509.965 76.9009 515.914 76.9009ZM524.149 74.3093C524.073 74.4517 523.995 74.5936 523.914 74.735C527.24 72.9922 530.175 70.353 531.751 67.3984C534.551 62.1496 531.998 57.8959 526.05 57.8959C522.701 57.8959 518.991 59.2437 515.888 61.3582C516.051 61.3536 516.213 61.3513 516.374 61.3513C524.485 61.3513 527.966 67.153 524.149 74.3093ZM520.33 79.3381C526.65 77.3711 532.805 72.7657 535.667 67.3984C539.484 60.2421 536.003 54.4404 527.893 54.4404C521.809 54.4404 514.848 57.7049 510.138 62.3568C510.134 62.3579 510.13 62.3591 510.127 62.3603C510.124 62.3631 510.121 62.366 510.118 62.3688C503.797 64.3355 497.641 68.9413 494.778 74.3093C490.961 81.4655 494.442 87.2672 502.553 87.2672C508.635 87.2672 515.593 84.0047 520.303 79.355C520.308 79.3536 520.312 79.3522 520.317 79.3508C520.321 79.3466 520.325 79.3424 520.33 79.3381ZM514.071 80.3563C514.232 80.3563 514.394 80.354 514.557 80.3495C511.454 82.4639 507.744 83.8117 504.396 83.8117C498.447 83.8117 495.895 79.5581 498.694 74.3093C500.27 71.3547 503.205 68.7154 506.531 66.9727C506.45 67.114 506.372 67.2559 506.296 67.3984C502.479 74.5546 505.96 80.3563 514.071 80.3563Z" fill="white"/>
<path d="M205.133 506.836L140.111 506.825L172.644 563.174L237.678 563.206L270.188 506.857L237.655 450.508L205.133 506.836Z" fill="url(#paint20_linear_65_2)"/>
<path d="M237.678 563.206L172.644 563.174L140.111 506.825L205.133 506.836L237.678 563.206Z" fill="url(#paint21_linear_65_2)"/>
<path d="M270.188 506.857L237.678 563.206L205.133 506.836L237.655 450.508L270.188 506.857Z" fill="url(#paint22_linear_65_2)"/>
<path d="M205.135 506.839L140.113 506.828L172.602 450.49L237.657 450.511L205.135 506.839Z" fill="url(#paint23_linear_65_2)"/>
<path opacity="0.9" d="M179.058 496.446C190.149 496.446 203.362 488.527 208.573 478.758C213.783 468.989 209.016 461.07 197.925 461.07C187.403 461.07 174.97 468.199 169.274 477.271H195.816L194.23 480.245H167.688C163.707 489.317 168.536 496.446 179.058 496.446Z" fill="white"/>
<path d="M184.144 535L113.644 655.828H247.443" stroke="white" stroke-width="2"/>
<path d="M466.473 527.519L364.514 527.5L415.528 615.859L517.506 615.909L568.483 527.55L517.469 439.192L466.473 527.519Z" fill="url(#paint24_linear_65_2)"/>
<path d="M517.506 615.909L415.528 615.859L364.514 527.5L466.473 527.519L517.506 615.909Z" fill="url(#paint25_linear_65_2)"/>
<path d="M568.483 527.549L517.505 615.908L466.473 527.517L517.469 439.19L568.483 527.549Z" fill="url(#paint26_linear_65_2)"/>
<path d="M466.476 527.523L364.517 527.504L415.462 439.164L517.472 439.196L466.476 527.523Z" fill="url(#paint27_linear_65_2)"/>
<path opacity="0.9" d="M437.174 504.745L433.36 511.896L424.257 515.561L419.264 511.896L423.078 504.745L428.07 508.41L437.174 504.745ZM412.109 480.012L417.102 483.676L410.561 495.94L419.197 502.175L415.383 509.326L401.661 499.604L412.109 480.012ZM474.322 480.012L463.858 499.633L439.561 509.355L443.375 502.204L458.662 495.969L465.202 483.706L474.322 480.012ZM460.362 470.29L465.558 473.954L461.744 481.105L446.457 487.341L439.822 499.781L430.921 503.445L425.963 499.781L432.614 487.311L423.537 481.076L427.351 473.925L436.455 470.261L445.091 476.496L460.362 470.29ZM420.795 486.218L425.787 489.882L421.973 497.033L416.981 493.369L420.795 486.218ZM459.017 486.218L455.203 493.369L446.303 497.033L450.117 489.882L459.017 486.218ZM427.566 464.055L432.762 467.719L423.658 471.384L419.844 478.535L414.852 474.87L418.666 467.719L427.566 464.055ZM475.886 464.055L481.082 467.719L477.268 474.87L468.164 478.535L471.978 471.384L466.985 467.719L475.886 464.055ZM451.726 464.055L456.922 467.719L447.818 471.384L442.825 467.719L451.726 464.055ZM458.267 451.792L472.193 461.514L463.292 465.178L454.656 458.943L439.132 465.178L434.14 461.514L458.267 451.792Z" fill="white"/>
<path d="M559.479 323.534L477.511 323.52L518.522 394.553L600.505 394.594L641.487 323.56L600.475 252.526L559.479 323.534Z" fill="url(#paint28_linear_65_2)"/>
<path d="M600.505 394.595L518.522 394.554L477.511 323.521L559.479 323.535L600.505 394.595Z" fill="url(#paint29_linear_65_2)"/>
<path d="M641.487 323.56L600.505 394.594L559.479 323.535L600.475 252.526L641.487 323.56Z" fill="url(#paint30_linear_65_2)"/>
<path d="M559.481 323.538L477.513 323.523L518.47 252.504L600.478 252.53L559.481 323.538Z" fill="url(#paint31_linear_65_2)"/>
<path opacity="0.9" fill-rule="evenodd" clip-rule="evenodd" d="M551.741 262.656L520.221 288.57L528.129 294.284L532.997 297.801L533.001 297.8L533.002 297.801L555.625 288.57L551.746 262.656L551.734 262.67L551.741 262.656ZM524.603 313.538L524.602 313.54V313.535L518.641 291.531L531.42 300.758L554.05 291.532L524.603 313.538Z" fill="white"/>
<path d="M243.425 654.048L194.294 654.039L218.876 696.616L268.016 696.641L292.581 654.063L267.999 611.486L243.425 654.048Z" fill="url(#paint32_linear_65_2)"/>
<path d="M268.016 696.641L218.876 696.616L194.294 654.039L243.425 654.048L268.016 696.641Z" fill="url(#paint33_linear_65_2)"/>
<path d="M292.581 654.063L268.016 696.641L243.425 654.048L267.999 611.486L292.581 654.063Z" fill="url(#paint34_linear_65_2)"/>
<path d="M267.263 655.442H395.164L438 579.237" stroke="white" stroke-width="2"/>
<path d="M243.427 654.051L194.296 654.043L218.845 611.474L268 611.489L243.427 654.051Z" fill="url(#paint35_linear_65_2)"/>
<path fill-rule="evenodd" clip-rule="evenodd" d="M211.303 645.072H216.527C217.758 645.072 218.373 645.072 218.993 644.938C219.679 644.78 220.377 644.5 221.039 644.115C221.646 643.763 222.197 643.296 223.285 642.374L223.318 642.347L235.73 631.778C236.827 630.85 237.373 630.384 237.767 629.894C238.195 629.363 238.494 628.802 238.632 628.271C238.76 627.785 238.707 627.321 238.601 626.407L238.599 626.387L238.125 622.302C238.031 621.45 237.98 621.024 237.714 620.867C237.427 620.697 236.977 620.697 236.51 620.867C236.076 621.024 235.571 621.45 234.568 622.302L210.968 642.364C209.978 643.205 209.482 643.625 209.319 643.969C209.146 644.342 209.184 644.681 209.432 644.885C209.663 645.072 210.205 645.072 211.303 645.072ZM237.207 645.072H229.721C228.616 645.072 228.061 645.072 227.836 644.885C227.588 644.681 227.553 644.337 227.726 643.963C227.889 643.622 228.384 643.205 229.375 642.372L229.398 642.353L236.154 636.693C237.147 635.858 237.646 635.444 238.074 635.287C238.541 635.117 238.985 635.117 239.271 635.287C239.531 635.44 239.585 635.837 239.692 636.622L239.693 636.623L239.701 636.687L240.432 642.347L240.434 642.358C240.437 642.382 240.439 642.406 240.443 642.429C240.54 643.221 240.59 643.625 240.393 643.958C240.174 644.331 239.766 644.675 239.3 644.88C238.866 645.072 238.311 645.072 237.207 645.072Z" fill="white"/>
</g>
</g>
<defs>
<linearGradient id="paint0_linear_65_2" x1="139.084" y1="90.7864" x2="161.56" y2="185.872" gradientUnits="userSpaceOnUse">
<stop stop-color="#31B3FB"/>
<stop offset="1" stop-color="#10608D"/>
</linearGradient>
<linearGradient id="paint1_linear_65_2" x1="99.1723" y1="113.829" x2="97.69" y2="201.282" gradientUnits="userSpaceOnUse">
<stop stop-color="#31B3FB"/>
<stop offset="1" stop-color="#10608D"/>
</linearGradient>
<linearGradient id="paint2_linear_65_2" x1="154.509" y1="94.5589" x2="202.191" y2="173.95" gradientUnits="userSpaceOnUse">
<stop stop-color="#088DD7"/>
<stop offset="1" stop-color="#006096"/>
</linearGradient>
<linearGradient id="paint3_linear_65_2" x1="162.909" y1="47.6212" x2="111.03" y2="133.592" gradientUnits="userSpaceOnUse">
<stop stop-color="#72CCFE"/>
<stop offset="1" stop-color="#1292D9"/>
</linearGradient>
<linearGradient id="paint4_linear_65_2" x1="660.202" y1="146.149" x2="674.855" y2="208.14" gradientUnits="userSpaceOnUse">
<stop stop-color="#31B3FB"/>
<stop offset="1" stop-color="#10608D"/>
</linearGradient>
<linearGradient id="paint5_linear_65_2" x1="634.182" y1="161.173" x2="633.215" y2="218.188" gradientUnits="userSpaceOnUse">
<stop stop-color="#31B3FB"/>
<stop offset="1" stop-color="#10608D"/>
</linearGradient>
<linearGradient id="paint6_linear_65_2" x1="670.258" y1="148.609" x2="701.344" y2="200.368" gradientUnits="userSpaceOnUse">
<stop stop-color="#088DD7"/>
<stop offset="1" stop-color="#006096"/>
</linearGradient>
<linearGradient id="paint7_linear_65_2" x1="675.734" y1="118.009" x2="641.912" y2="174.058" gradientUnits="userSpaceOnUse">
<stop stop-color="#72CCFE"/>
<stop offset="1" stop-color="#1292D9"/>
</linearGradient>
<linearGradient id="paint8_linear_65_2" x1="329.549" y1="267.406" x2="368.68" y2="432.948" gradientUnits="userSpaceOnUse">
<stop stop-color="#31B3FB"/>
<stop offset="1" stop-color="#10608D"/>
</linearGradient>
<linearGradient id="paint9_linear_65_2" x1="260.064" y1="307.524" x2="257.483" y2="459.777" gradientUnits="userSpaceOnUse">
<stop stop-color="#31B3FB"/>
<stop offset="1" stop-color="#10608D"/>
</linearGradient>
<linearGradient id="paint10_linear_65_2" x1="356.404" y1="273.976" x2="439.416" y2="412.194" gradientUnits="userSpaceOnUse">
<stop stop-color="#088DD7"/>
<stop offset="1" stop-color="#006096"/>
</linearGradient>
<linearGradient id="paint11_linear_65_2" x1="371.027" y1="192.259" x2="280.708" y2="341.931" gradientUnits="userSpaceOnUse">
<stop stop-color="#72CCFE"/>
<stop offset="1" stop-color="#1292D9"/>
</linearGradient>
<linearGradient id="paint12_linear_65_2" x1="56.4451" y1="392.265" x2="70.0757" y2="449.929" gradientUnits="userSpaceOnUse">
<stop stop-color="#31B3FB"/>
<stop offset="1" stop-color="#10608D"/>
</linearGradient>
<linearGradient id="paint13_linear_65_2" x1="32.2411" y1="406.239" x2="31.3422" y2="459.274" gradientUnits="userSpaceOnUse">
<stop stop-color="#31B3FB"/>
<stop offset="1" stop-color="#10608D"/>
</linearGradient>
<linearGradient id="paint14_linear_65_2" x1="65.7995" y1="394.553" x2="94.7154" y2="442.699" gradientUnits="userSpaceOnUse">
<stop stop-color="#088DD7"/>
<stop offset="1" stop-color="#006096"/>
</linearGradient>
<linearGradient id="paint15_linear_65_2" x1="70.8935" y1="366.088" x2="39.4322" y2="418.224" gradientUnits="userSpaceOnUse">
<stop stop-color="#72CCFE"/>
<stop offset="1" stop-color="#1292D9"/>
</linearGradient>
<linearGradient id="paint16_linear_65_2" x1="534.29" y1="73.9316" x2="549.597" y2="138.688" gradientUnits="userSpaceOnUse">
<stop stop-color="#31B3FB"/>
<stop offset="1" stop-color="#10608D"/>
</linearGradient>
<linearGradient id="paint17_linear_65_2" x1="507.108" y1="89.625" x2="506.099" y2="149.183" gradientUnits="userSpaceOnUse">
<stop stop-color="#31B3FB"/>
<stop offset="1" stop-color="#10608D"/>
</linearGradient>
<linearGradient id="paint18_linear_65_2" x1="544.795" y1="76.5014" x2="577.267" y2="130.57" gradientUnits="userSpaceOnUse">
<stop stop-color="#088DD7"/>
<stop offset="1" stop-color="#006096"/>
</linearGradient>
<linearGradient id="paint19_linear_65_2" x1="550.515" y1="44.5353" x2="515.184" y2="103.084" gradientUnits="userSpaceOnUse">
<stop stop-color="#72CCFE"/>
<stop offset="1" stop-color="#1292D9"/>
</linearGradient>
<linearGradient id="paint20_linear_65_2" x1="211.409" y1="482.361" x2="229.453" y2="558.693" gradientUnits="userSpaceOnUse">
<stop stop-color="#31B3FB"/>
<stop offset="1" stop-color="#10608D"/>
</linearGradient>
<linearGradient id="paint21_linear_65_2" x1="179.369" y1="500.86" x2="178.179" y2="571.064" gradientUnits="userSpaceOnUse">
<stop stop-color="#31B3FB"/>
<stop offset="1" stop-color="#10608D"/>
</linearGradient>
<linearGradient id="paint22_linear_65_2" x1="223.792" y1="485.391" x2="262.069" y2="549.124" gradientUnits="userSpaceOnUse">
<stop stop-color="#088DD7"/>
<stop offset="1" stop-color="#006096"/>
</linearGradient>
<linearGradient id="paint23_linear_65_2" x1="230.535" y1="447.711" x2="188.888" y2="516.725" gradientUnits="userSpaceOnUse">
<stop stop-color="#72CCFE"/>
<stop offset="1" stop-color="#1292D9"/>
</linearGradient>
<linearGradient id="paint24_linear_65_2" x1="476.314" y1="489.14" x2="504.607" y2="608.834" gradientUnits="userSpaceOnUse">
<stop stop-color="#31B3FB"/>
<stop offset="1" stop-color="#10608D"/>
</linearGradient>
<linearGradient id="paint25_linear_65_2" x1="426.073" y1="518.147" x2="424.207" y2="628.232" gradientUnits="userSpaceOnUse">
<stop stop-color="#31B3FB"/>
<stop offset="1" stop-color="#10608D"/>
</linearGradient>
<linearGradient id="paint26_linear_65_2" x1="495.731" y1="493.889" x2="555.752" y2="593.826" gradientUnits="userSpaceOnUse">
<stop stop-color="#088DD7"/>
<stop offset="1" stop-color="#006096"/>
</linearGradient>
<linearGradient id="paint27_linear_65_2" x1="506.305" y1="434.805" x2="441" y2="543.024" gradientUnits="userSpaceOnUse">
<stop stop-color="#72CCFE"/>
<stop offset="1" stop-color="#1292D9"/>
</linearGradient>
<linearGradient id="paint28_linear_65_2" x1="567.39" y1="292.681" x2="590.135" y2="388.905" gradientUnits="userSpaceOnUse">
<stop stop-color="#31B3FB"/>
<stop offset="1" stop-color="#10608D"/>
</linearGradient>
<linearGradient id="paint29_linear_65_2" x1="527" y1="316.001" x2="525.5" y2="404.501" gradientUnits="userSpaceOnUse">
<stop stop-color="#31B3FB"/>
<stop offset="1" stop-color="#10608D"/>
</linearGradient>
<linearGradient id="paint30_linear_65_2" x1="583" y1="296.5" x2="631.252" y2="376.842" gradientUnits="userSpaceOnUse">
<stop stop-color="#088DD7"/>
<stop offset="1" stop-color="#006096"/>
</linearGradient>
<linearGradient id="paint31_linear_65_2" x1="591.5" y1="249" x2="539" y2="336" gradientUnits="userSpaceOnUse">
<stop stop-color="#72CCFE"/>
<stop offset="1" stop-color="#1292D9"/>
</linearGradient>
<linearGradient id="paint32_linear_65_2" x1="248.167" y1="635.555" x2="261.801" y2="693.231" gradientUnits="userSpaceOnUse">
<stop stop-color="#31B3FB"/>
<stop offset="1" stop-color="#10608D"/>
</linearGradient>
<linearGradient id="paint33_linear_65_2" x1="223.958" y1="649.532" x2="223.059" y2="702.578" gradientUnits="userSpaceOnUse">
<stop stop-color="#31B3FB"/>
<stop offset="1" stop-color="#10608D"/>
</linearGradient>
<linearGradient id="paint34_linear_65_2" x1="257.524" y1="637.843" x2="286.446" y2="686" gradientUnits="userSpaceOnUse">
<stop stop-color="#088DD7"/>
<stop offset="1" stop-color="#006096"/>
</linearGradient>
<linearGradient id="paint35_linear_65_2" x1="262.619" y1="609.373" x2="231.151" y2="661.521" gradientUnits="userSpaceOnUse">
<stop stop-color="#72CCFE"/>
<stop offset="1" stop-color="#1292D9"/>
</linearGradient>
<clipPath id="clip0_65_2">
<rect width="713" height="713" fill="white"/>
</clipPath>
</defs>
</svg>
