<svg width="713" height="713" viewBox="0 0 713 713" fill="none" xmlns="http://www.w3.org/2000/svg">
    <g clip-path="url(#clip0_2533_79604)">
        <path d="M131.266 121.274L50.2684 121.26L90.7945 191.453L171.807 191.493L212.304 121.299L171.778 51.1058L131.266 121.274Z" fill="url(#paint0_linear_2533_79604)"/>
        <path d="M171.807 191.493L90.7945 191.453L50.2684 121.26L131.266 121.274L171.807 191.493Z" fill="url(#paint1_linear_2533_79604)"/>
        <path d="M212.304 121.299L171.807 191.492L131.266 121.274L171.778 51.1056L212.304 121.299Z" fill="url(#paint2_linear_2533_79604)"/>
        <path d="M131.269 121.277L50.2706 121.263L90.7425 51.084L171.78 51.1092L131.269 121.277Z" fill="url(#paint3_linear_2533_79604)"/>
        <path opacity="0.9" fill-rule="evenodd" clip-rule="evenodd" d="M76.1343 96.8724C77.697 98.4277 80.3543 99.2053 84.1063 99.2053C88.6388 99.2053 92.7507 98.2944 96.4405 96.428C100.167 94.5394 103.584 91.6733 106.719 87.8739C108.643 85.541 110.488 83.1192 112.282 80.6529C112.907 79.7642 113.374 79.031 113.682 78.4533C114.713 76.5203 115.048 74.8539 114.686 73.4542C114.337 72.0322 113.395 70.9657 111.848 70.2769C110.326 69.5437 108.324 69.1882 105.907 69.1882C96.993 69.1882 89.415 73.0098 83.1983 80.6529C80.9379 83.4747 79.079 85.8743 77.6096 87.8739C76.9845 88.7627 76.518 89.4959 76.1862 90.118C74.6338 93.0286 74.6087 95.2949 76.1343 96.8724ZM93.2025 91.8288C91.4828 92.7398 89.7483 93.2063 87.9856 93.2063C84.9639 93.2063 84.1033 91.9399 85.5031 89.3626C85.8349 88.7404 86.2185 88.1628 86.6407 87.6073C88.6655 84.8967 90.4282 82.6304 92.0027 80.764C93.5506 78.8532 95.1785 77.4535 96.8982 76.5425C98.6431 75.6316 100.403 75.165 102.165 75.165C105.162 75.165 105.972 76.4314 104.621 78.9643C104.289 79.5865 103.894 80.1863 103.46 80.764C102.04 82.7192 100.277 84.9855 98.1483 87.6073C96.6004 89.5181 94.9474 90.9178 93.2025 91.8288ZM104.368 98.5153C104.463 98.7153 104.667 98.8041 105.02 98.8041H111.441C111.768 98.8041 112.118 98.7153 112.502 98.5153C112.91 98.3153 113.192 98.0709 113.433 97.7599L120.469 88.6281H126.84C130.97 88.6281 134.621 87.8727 137.805 86.3396C141.04 84.8065 143.883 82.4514 146.37 79.2519C146.949 78.4965 147.441 77.7633 147.808 77.0745C149.1 74.6527 149.001 72.8086 147.547 71.5199C146.108 70.2535 143.656 69.6091 140.156 69.6091H127.591C127.263 69.6091 126.914 69.698 126.53 69.898C126.121 70.0979 125.815 70.3423 125.599 70.6534L104.62 97.7599C104.416 98.0487 104.336 98.2931 104.368 98.5153ZM134.196 81.9181C132.87 82.5625 131.571 82.8735 130.236 82.8735H124.822L130.592 75.4081H136.258C137.542 75.4081 138.355 75.6303 138.647 76.0747C138.95 76.4968 138.896 77.119 138.469 77.9188C138.279 78.2743 138.004 78.6965 137.654 79.1631C136.687 80.3628 135.547 81.2738 134.196 81.9181Z" fill="white"/>
        <path d="M655.105 166.026L602.299 166.016L628.72 211.779L681.536 211.805L707.938 166.042L681.517 120.28L655.105 166.026Z" fill="url(#paint4_linear_2533_79604)"/>
        <path d="M681.536 211.805L628.72 211.779L602.299 166.016L655.105 166.026L681.536 211.805Z" fill="url(#paint5_linear_2533_79604)"/>
        <path d="M707.937 166.042L681.535 211.805L655.105 166.026L681.516 120.28L707.937 166.042Z" fill="url(#paint6_linear_2533_79604)"/>
        <path d="M655.106 166.028L602.3 166.019L628.686 120.266L681.518 120.282L655.106 166.028Z" fill="url(#paint7_linear_2533_79604)"/>
        <path opacity="0.9" fill-rule="evenodd" clip-rule="evenodd" d="M662.691 134.741C662.749 135.189 662.648 135.694 662.398 136.213L654.727 150.593C654.461 151.057 654.085 151.512 653.625 151.925C653.164 152.338 652.632 152.7 652.065 152.985L633.335 160.506C632.837 160.652 632.35 160.726 631.899 160.725C631.405 160.728 630.965 160.64 630.607 160.466C630.575 160.448 630.498 160.397 630.384 160.321C630.363 160.308 630.342 160.294 630.319 160.279C630.223 160.214 630.107 160.135 629.976 160.045L626.048 157.308L626.052 157.304L622.772 155.019L645.664 136.257L651.369 136.239L628.258 155.474L628.253 155.478L632.623 158.518C632.847 158.615 633.151 158.62 633.477 158.533L639.927 155.942L646.287 153.386L648.066 152.671L648.071 152.669L646.281 141.975L651.462 137.664L653.528 148.296L659.93 136.293C660.011 136.123 660.044 135.957 660.026 135.81C660.007 135.663 659.938 135.539 659.824 135.448L649.632 128.354C649.502 128.284 649.339 128.248 649.153 128.249C648.968 128.25 648.766 128.287 648.561 128.359C648.507 128.378 630.841 135.469 630.755 135.51C630.561 135.602 630.377 135.721 630.217 135.859C630.057 135.997 629.924 136.15 629.829 136.308L623.725 147.788L619.535 151.086L627.47 136.207C627.753 135.727 628.152 135.26 628.638 134.839C629.124 134.418 629.684 134.055 630.275 133.777C630.504 133.669 630.736 133.574 630.969 133.493C630.969 133.493 648.345 126.508 648.491 126.455C649.114 126.236 649.73 126.122 650.293 126.122C650.857 126.122 651.351 126.236 651.74 126.455L662.067 133.639C662.419 133.914 662.634 134.292 662.691 134.741ZM618.882 152.312L618.881 152.311L618.882 152.312L618.882 152.312ZM618.882 152.312L621.67 154.257L644.012 136.239L641.877 136.19C640.048 136.167 637.84 136.589 636.23 137.901L623.726 147.789L619.535 151.087L618.882 152.312ZM638.508 148.449L639.922 155.94L646.282 153.385L644.447 143.505L638.508 148.449Z" fill="white"/>
        <path d="M339 268.5L439 90.5H499.344" stroke="white" stroke-width="2"/>
        <path d="M111.5 161L52 265.864L343.425 265.864" stroke="white" stroke-width="2"/>
        <path d="M30.2969 420.159L91.245 320.43H293.425" stroke="white" stroke-width="2"/>
        <path d="M315.939 320.485L174.924 320.46L245.479 442.664L386.519 442.734L457.023 320.529L386.469 198.325L315.939 320.485Z" fill="url(#paint8_linear_2533_79604)"/>
        <path d="M386.519 442.734L245.479 442.664L174.924 320.46L315.939 320.485L386.519 442.734Z" fill="url(#paint9_linear_2533_79604)"/>
        <path d="M273.145 382L201.645 506.5" stroke="white" stroke-width="2"/>
        <path d="M457.023 320.529L386.519 442.734L315.938 320.485L386.468 198.325L457.023 320.529Z" fill="url(#paint10_linear_2533_79604)"/>
        <path d="M315.943 320.492L174.928 320.467L245.388 198.288L386.473 198.331L315.943 320.492Z" fill="url(#paint11_linear_2533_79604)"/>
        <path opacity="0.4" d="M326.831 256.764L274.455 220.922C274.131 220.73 273.757 220.772 273.026 221.061L273.051 221.048L266.373 223.6C265.916 223.802 265.647 224.106 265.545 224.247L224.164 295.868L224.179 295.848C223.883 296.333 223.873 296.594 224.185 296.836L228.086 299.506C228.395 299.649 228.62 299.628 229.099 299.451L322.907 263.633C323.422 263.421 323.714 263.151 324.016 262.632L326.958 257.54C327.033 257.387 327.151 256.958 326.831 256.764ZM297.902 254.157L306.777 260.231L290.883 266.304L297.902 254.157ZM250.339 272.287L259.198 278.345L243.338 284.405L250.339 272.287ZM280.181 242.029L264.328 248.094L271.331 235.973L280.181 242.029ZM257.772 260.188L288.682 248.376L275.032 272L257.772 260.188Z" fill="white"/>
        <path opacity="0.4" d="M267.03 275.352L259.217 278.358L245.967 269.297L228.409 299.59C228.265 299.592 228.2 299.559 228.086 299.506L224.185 296.836C223.872 296.595 223.883 296.333 224.179 295.848L224.164 295.868L244.805 260.143L267.03 275.352ZM327.021 257.156L287.444 272.255L297.914 254.137L293.524 251.16L275.952 281.554L322.907 263.633C323.423 263.421 323.715 263.151 324.017 262.631L326.958 257.54C327.04 257.372 327.034 257.276 327.021 257.156ZM274.455 220.922C274.131 220.73 273.757 220.772 273.026 221.061L273.051 221.048L266.373 223.6C266.183 223.686 266.024 223.779 265.887 223.887L288.016 239.031L264.311 248.1L260.874 254.071L300.673 238.863L274.455 220.922Z" fill="white"/>
        <path d="M327.062 257.147L287.444 272.254L290.883 266.304L314.617 257.234L292.392 242.026L300.67 238.863L326.83 256.764C326.981 256.879 327.056 257.001 327.062 257.147ZM265.888 223.887C265.759 223.989 265.647 224.105 265.545 224.246L244.805 260.142L249.421 263.32L266.953 232.975L280.222 242.029L288.017 239.03L265.888 223.887ZM239.811 290.434L250.339 272.287L245.967 269.297L228.399 299.615C228.574 299.612 228.781 299.566 229.039 299.48L275.955 281.552L279.61 275.225L239.811 290.434Z" fill="white"/>
        <path d="M637 191L562.309 321.129L387 321.129" stroke="white" stroke-width="2"/>
        <path d="M51.7042 410.754L2.58398 410.745L27.1605 453.313L76.2896 453.337L100.849 410.769L76.2721 368.202L51.7042 410.754Z" fill="url(#paint12_linear_2533_79604)"/>
        <path d="M76.2896 453.337L27.1605 453.313L2.58398 410.745L51.7042 410.754L76.2896 453.337Z" fill="url(#paint13_linear_2533_79604)"/>
        <path d="M100.849 410.77L76.2902 453.337L51.7047 410.754L76.2726 368.202L100.849 410.77Z" fill="url(#paint14_linear_2533_79604)"/>
        <path d="M51.7059 410.756L2.58569 410.747L27.1293 368.188L76.2738 368.204L51.7059 410.756Z" fill="url(#paint15_linear_2533_79604)"/>
        <path opacity="0.9" d="M47.8631 373.636L33.9625 383.88L22.3526 399.023L30.8957 405.45L46.2936 399.023L50.7984 383.816L47.8631 373.636ZM24.6729 398.323L33.4832 386.807L30.8872 403.032L24.6729 398.323ZM35.7399 384.198L46.4378 376.308L48.7199 384.198L32.9996 401.505L35.7399 384.198ZM33.4111 403.032L48.1218 386.807L44.6477 398.323L33.4111 403.032Z" fill="white"/>
        <path d="M528.966 94.6951L473.804 94.6853L501.403 142.489L556.576 142.516L584.155 94.7123L556.556 46.9084L528.966 94.6951Z" fill="url(#paint16_linear_2533_79604)"/>
        <path d="M556.576 142.516L501.403 142.489L473.804 94.6853L528.966 94.6951L556.576 142.516Z" fill="url(#paint17_linear_2533_79604)"/>
        <path d="M584.155 94.712L556.575 142.516L528.966 94.6948L556.556 46.9081L584.155 94.712Z" fill="url(#paint18_linear_2533_79604)"/>
        <path d="M528.967 94.6973L473.805 94.6874L501.367 46.8934L556.557 46.9105L528.967 94.6973Z" fill="url(#paint19_linear_2533_79604)"/>
        <path opacity="0.9" fill-rule="evenodd" clip-rule="evenodd" d="M515.914 76.9004C516.817 76.9004 517.746 76.8024 518.682 76.618C519.285 75.8787 519.809 75.1052 520.233 74.3088C523.033 69.0599 520.481 64.8063 514.532 64.8063C513.629 64.8063 512.7 64.9042 511.764 65.0887C511.161 65.8279 510.637 66.6014 510.213 67.3979C507.413 72.6467 509.965 76.9004 515.914 76.9004ZM524.15 74.3088C524.074 74.4512 523.995 74.5931 523.915 74.7345C527.241 72.9917 530.176 70.3525 531.752 67.3979C534.551 62.1491 531.999 57.8954 526.05 57.8954C522.702 57.8954 518.992 59.2432 515.889 61.3577C516.051 61.3531 516.213 61.3508 516.375 61.3508C524.485 61.3508 527.966 67.1525 524.15 74.3088ZM520.33 79.3376C526.65 77.3706 532.805 72.7652 535.668 67.3979C539.484 60.2416 536.003 54.4399 527.893 54.4399C521.809 54.4399 514.848 57.7044 510.138 62.3563C510.135 62.3574 510.131 62.3586 510.127 62.3598C510.124 62.3626 510.121 62.3655 510.118 62.3683C503.797 64.335 497.641 68.9408 494.778 74.3088C490.962 81.465 494.443 87.2667 502.553 87.2667C508.635 87.2667 515.594 84.0042 520.303 79.3545C520.308 79.3531 520.313 79.3517 520.317 79.3503C520.322 79.3461 520.326 79.3419 520.33 79.3376ZM514.071 80.3558C514.233 80.3558 514.395 80.3535 514.557 80.349C511.455 82.4634 507.745 83.8112 504.396 83.8112C498.447 83.8112 495.895 79.5576 498.694 74.3088C500.27 71.3542 503.205 68.7149 506.531 66.9722C506.451 67.1135 506.372 67.2554 506.296 67.3979C502.48 74.5541 505.961 80.3558 514.071 80.3558Z" fill="white"/>
        <path d="M205.133 506.836L140.11 506.825L172.643 563.174L237.678 563.206L270.188 506.857L237.655 450.508L205.133 506.836Z" fill="url(#paint20_linear_2533_79604)"/>
        <path d="M237.678 563.206L172.643 563.174L140.11 506.825L205.133 506.836L237.678 563.206Z" fill="url(#paint21_linear_2533_79604)"/>
        <path d="M270.188 506.857L237.679 563.206L205.134 506.836L237.655 450.508L270.188 506.857Z" fill="url(#paint22_linear_2533_79604)"/>
        <path d="M205.135 506.839L140.112 506.828L172.602 450.49L237.657 450.511L205.135 506.839Z" fill="url(#paint23_linear_2533_79604)"/>
        <path opacity="0.9" d="M179.058 496.446C190.149 496.446 203.362 488.527 208.572 478.758C213.783 468.989 209.016 461.07 197.925 461.07C187.403 461.07 174.97 468.199 169.274 477.271H195.816L194.23 480.245H167.687C163.707 489.317 168.536 496.446 179.058 496.446Z" fill="white"/>
        <path d="M184.144 535L113.644 655.828L247.443 655.828" stroke="white" stroke-width="2"/>
        <path d="M466.473 527.519L364.514 527.5L415.528 615.859L517.506 615.909L568.483 527.55L517.469 439.192L466.473 527.519Z" fill="url(#paint24_linear_2533_79604)"/>
        <path d="M517.506 615.909L415.528 615.859L364.514 527.5L466.473 527.519L517.506 615.909Z" fill="url(#paint25_linear_2533_79604)"/>
        <path d="M568.483 527.549L517.506 615.908L466.473 527.517L517.469 439.19L568.483 527.549Z" fill="url(#paint26_linear_2533_79604)"/>
        <path d="M466.477 527.523L364.517 527.504L415.463 439.164L517.472 439.196L466.477 527.523Z" fill="url(#paint27_linear_2533_79604)"/>
        <path opacity="0.9" d="M437.174 504.745L433.36 511.896L424.257 515.561L419.264 511.896L423.078 504.745L428.07 508.41L437.174 504.745ZM412.109 480.012L417.102 483.676L410.561 495.94L419.197 502.175L415.383 509.326L401.661 499.604L412.109 480.012ZM474.322 480.012L463.858 499.633L439.561 509.355L443.375 502.204L458.662 495.969L465.202 483.706L474.322 480.012ZM460.362 470.29L465.558 473.954L461.744 481.105L446.457 487.341L439.822 499.781L430.921 503.445L425.963 499.781L432.614 487.311L423.537 481.076L427.351 473.925L436.455 470.261L445.091 476.496L460.362 470.29ZM420.795 486.218L425.787 489.882L421.973 497.033L416.981 493.369L420.795 486.218ZM459.017 486.218L455.203 493.369L446.303 497.033L450.117 489.882L459.017 486.218ZM427.566 464.055L432.762 467.719L423.658 471.384L419.844 478.535L414.852 474.87L418.666 467.719L427.566 464.055ZM475.886 464.055L481.082 467.719L477.268 474.87L468.164 478.535L471.978 471.384L466.985 467.719L475.886 464.055ZM451.726 464.055L456.922 467.719L447.818 471.384L442.825 467.719L451.726 464.055ZM458.267 451.792L472.193 461.514L463.292 465.178L454.656 458.943L439.132 465.178L434.14 461.514L458.267 451.792Z" fill="white"/>
        <path d="M559.479 323.534L477.511 323.52L518.522 394.553L600.505 394.594L641.487 323.56L600.475 252.526L559.479 323.534Z" fill="url(#paint28_linear_2533_79604)"/>
        <path d="M600.505 394.594L518.522 394.553L477.511 323.52L559.479 323.534L600.505 394.594Z" fill="url(#paint29_linear_2533_79604)"/>
        <path d="M641.487 323.56L600.505 394.594L559.479 323.535L600.475 252.526L641.487 323.56Z" fill="url(#paint30_linear_2533_79604)"/>
        <path d="M559.481 323.538L477.513 323.523L518.47 252.504L600.478 252.53L559.481 323.538Z" fill="url(#paint31_linear_2533_79604)"/>
        <path opacity="0.9" fill-rule="evenodd" clip-rule="evenodd" d="M551.741 262.656L520.221 288.57L520.221 288.57L520.221 288.57L528.129 294.284L532.997 297.801H532.997L532.997 297.801L532.997 297.801L533.001 297.8L533.002 297.801L555.625 288.57L551.746 262.656L551.734 262.67L551.741 262.656ZM524.604 313.539L524.603 313.538L524.602 313.54L524.602 313.535L518.641 291.531L531.42 300.758L554.05 291.532L524.604 313.538L524.604 313.539Z" fill="white"/>
        <path d="M243.425 654.048L194.294 654.039L218.876 696.616L268.016 696.641L292.581 654.063L267.998 611.486L243.425 654.048Z" fill="url(#paint32_linear_2533_79604)"/>
        <path d="M268.016 696.641L218.876 696.616L194.294 654.039L243.425 654.048L268.016 696.641Z" fill="url(#paint33_linear_2533_79604)"/>
        <path d="M292.581 654.063L268.016 696.641L243.425 654.048L267.999 611.486L292.581 654.063Z" fill="url(#paint34_linear_2533_79604)"/>
        <path d="M267.263 655.442H395.164L438 579.237" stroke="white" stroke-width="2"/>
        <path d="M243.426 654.05L194.295 654.042L218.844 611.473L268 611.488L243.426 654.05Z" fill="url(#paint35_linear_2533_79604)"/>
        <path fill-rule="evenodd" clip-rule="evenodd" d="M211.302 645.072H216.527C217.757 645.072 218.372 645.072 218.992 644.938C219.678 644.78 220.376 644.5 221.038 644.115C221.645 643.763 222.197 643.296 223.284 642.374L223.285 642.374L223.317 642.347L235.729 631.778C236.826 630.85 237.372 630.384 237.766 629.894C238.195 629.363 238.494 628.802 238.631 628.271C238.759 627.785 238.706 627.321 238.601 626.407L238.598 626.387L238.125 622.302C238.03 621.45 237.98 621.024 237.713 620.867C237.427 620.697 236.977 620.697 236.51 620.867C236.075 621.024 235.57 621.45 234.567 622.302L210.968 642.364C209.977 643.205 209.482 643.625 209.318 643.969C209.145 644.342 209.183 644.681 209.431 644.885C209.662 645.072 210.205 645.072 211.302 645.072ZM237.206 645.072H229.72C228.616 645.072 228.06 645.072 227.836 644.885C227.587 644.681 227.553 644.337 227.725 643.963C227.888 643.622 228.383 643.205 229.374 642.372L229.375 642.372L229.398 642.353L236.153 636.693C237.147 635.858 237.645 635.444 238.073 635.287C238.54 635.117 238.984 635.117 239.27 635.287C239.53 635.44 239.584 635.837 239.692 636.622L239.692 636.623L239.701 636.687L240.432 642.347L240.433 642.358C240.436 642.382 240.439 642.406 240.442 642.429L240.442 642.429C240.54 643.221 240.589 643.625 240.393 643.958C240.174 644.331 239.765 644.675 239.299 644.88C238.866 645.072 238.31 645.072 237.206 645.072Z" fill="white"/>
    </g>
    <defs>
        <filter id="filter0_f_2533_79604" x="-202" y="-202" width="1117" height="1116" filterUnits="userSpaceOnUse" color-interpolation-filters="sRGB">
            <feFlood flood-opacity="0" result="BackgroundImageFix"/>
            <feBlend mode="normal" in="SourceGraphic" in2="BackgroundImageFix" result="shape"/>
            <feGaussianBlur stdDeviation="170" result="effect1_foregroundBlur_2533_79604"/>
        </filter>
        <linearGradient id="paint0_linear_2533_79604" x1="139.084" y1="90.7858" x2="161.56" y2="185.872" gradientUnits="userSpaceOnUse">
            <stop stop-color="#31B3FB"/>
            <stop offset="1" stop-color="#10608D"/>
        </linearGradient>
        <linearGradient id="paint1_linear_2533_79604" x1="99.1721" y1="113.829" x2="97.6898" y2="201.282" gradientUnits="userSpaceOnUse">
            <stop stop-color="#31B3FB"/>
            <stop offset="1" stop-color="#10608D"/>
        </linearGradient>
        <linearGradient id="paint2_linear_2533_79604" x1="154.51" y1="94.559" x2="202.191" y2="173.95" gradientUnits="userSpaceOnUse">
            <stop stop-color="#088DD7"/>
            <stop offset="1" stop-color="#006096"/>
        </linearGradient>
        <linearGradient id="paint3_linear_2533_79604" x1="162.909" y1="47.6213" x2="111.03" y2="133.592" gradientUnits="userSpaceOnUse">
            <stop stop-color="#72CCFE"/>
            <stop offset="1" stop-color="#1292D9"/>
        </linearGradient>
        <linearGradient id="paint4_linear_2533_79604" x1="660.202" y1="146.149" x2="674.855" y2="208.14" gradientUnits="userSpaceOnUse">
            <stop stop-color="#31B3FB"/>
            <stop offset="1" stop-color="#10608D"/>
        </linearGradient>
        <linearGradient id="paint5_linear_2533_79604" x1="634.182" y1="161.172" x2="633.215" y2="218.187" gradientUnits="userSpaceOnUse">
            <stop stop-color="#31B3FB"/>
            <stop offset="1" stop-color="#10608D"/>
        </linearGradient>
        <linearGradient id="paint6_linear_2533_79604" x1="670.258" y1="148.609" x2="701.344" y2="200.368" gradientUnits="userSpaceOnUse">
            <stop stop-color="#088DD7"/>
            <stop offset="1" stop-color="#006096"/>
        </linearGradient>
        <linearGradient id="paint7_linear_2533_79604" x1="675.734" y1="118.008" x2="641.912" y2="174.057" gradientUnits="userSpaceOnUse">
            <stop stop-color="#72CCFE"/>
            <stop offset="1" stop-color="#1292D9"/>
        </linearGradient>
        <linearGradient id="paint8_linear_2533_79604" x1="329.549" y1="267.406" x2="368.68" y2="432.948" gradientUnits="userSpaceOnUse">
            <stop stop-color="#31B3FB"/>
            <stop offset="1" stop-color="#10608D"/>
        </linearGradient>
        <linearGradient id="paint9_linear_2533_79604" x1="260.064" y1="307.524" x2="257.483" y2="459.776" gradientUnits="userSpaceOnUse">
            <stop stop-color="#31B3FB"/>
            <stop offset="1" stop-color="#10608D"/>
        </linearGradient>
        <linearGradient id="paint10_linear_2533_79604" x1="356.404" y1="273.976" x2="439.416" y2="412.194" gradientUnits="userSpaceOnUse">
            <stop stop-color="#088DD7"/>
            <stop offset="1" stop-color="#006096"/>
        </linearGradient>
        <linearGradient id="paint11_linear_2533_79604" x1="371.028" y1="192.259" x2="280.708" y2="341.931" gradientUnits="userSpaceOnUse">
            <stop stop-color="#72CCFE"/>
            <stop offset="1" stop-color="#1292D9"/>
        </linearGradient>
        <linearGradient id="paint12_linear_2533_79604" x1="56.4451" y1="392.265" x2="70.0757" y2="449.929" gradientUnits="userSpaceOnUse">
            <stop stop-color="#31B3FB"/>
            <stop offset="1" stop-color="#10608D"/>
        </linearGradient>
        <linearGradient id="paint13_linear_2533_79604" x1="32.241" y1="406.239" x2="31.3421" y2="459.274" gradientUnits="userSpaceOnUse">
            <stop stop-color="#31B3FB"/>
            <stop offset="1" stop-color="#10608D"/>
        </linearGradient>
        <linearGradient id="paint14_linear_2533_79604" x1="65.8002" y1="394.553" x2="94.716" y2="442.699" gradientUnits="userSpaceOnUse">
            <stop stop-color="#088DD7"/>
            <stop offset="1" stop-color="#006096"/>
        </linearGradient>
        <linearGradient id="paint15_linear_2533_79604" x1="70.8938" y1="366.088" x2="39.4325" y2="418.224" gradientUnits="userSpaceOnUse">
            <stop stop-color="#72CCFE"/>
            <stop offset="1" stop-color="#1292D9"/>
        </linearGradient>
        <linearGradient id="paint16_linear_2533_79604" x1="534.29" y1="73.9317" x2="549.597" y2="138.688" gradientUnits="userSpaceOnUse">
            <stop stop-color="#31B3FB"/>
            <stop offset="1" stop-color="#10608D"/>
        </linearGradient>
        <linearGradient id="paint17_linear_2533_79604" x1="507.109" y1="89.6249" x2="506.099" y2="149.183" gradientUnits="userSpaceOnUse">
            <stop stop-color="#31B3FB"/>
            <stop offset="1" stop-color="#10608D"/>
        </linearGradient>
        <linearGradient id="paint18_linear_2533_79604" x1="544.795" y1="76.5013" x2="577.268" y2="130.569" gradientUnits="userSpaceOnUse">
            <stop stop-color="#088DD7"/>
            <stop offset="1" stop-color="#006096"/>
        </linearGradient>
        <linearGradient id="paint19_linear_2533_79604" x1="550.515" y1="44.5351" x2="515.184" y2="103.084" gradientUnits="userSpaceOnUse">
            <stop stop-color="#72CCFE"/>
            <stop offset="1" stop-color="#1292D9"/>
        </linearGradient>
        <linearGradient id="paint20_linear_2533_79604" x1="211.409" y1="482.361" x2="229.452" y2="558.693" gradientUnits="userSpaceOnUse">
            <stop stop-color="#31B3FB"/>
            <stop offset="1" stop-color="#10608D"/>
        </linearGradient>
        <linearGradient id="paint21_linear_2533_79604" x1="179.369" y1="500.86" x2="178.179" y2="571.064" gradientUnits="userSpaceOnUse">
            <stop stop-color="#31B3FB"/>
            <stop offset="1" stop-color="#10608D"/>
        </linearGradient>
        <linearGradient id="paint22_linear_2533_79604" x1="223.793" y1="485.391" x2="262.07" y2="549.124" gradientUnits="userSpaceOnUse">
            <stop stop-color="#088DD7"/>
            <stop offset="1" stop-color="#006096"/>
        </linearGradient>
        <linearGradient id="paint23_linear_2533_79604" x1="230.535" y1="447.711" x2="188.888" y2="516.725" gradientUnits="userSpaceOnUse">
            <stop stop-color="#72CCFE"/>
            <stop offset="1" stop-color="#1292D9"/>
        </linearGradient>
        <linearGradient id="paint24_linear_2533_79604" x1="476.314" y1="489.14" x2="504.607" y2="608.834" gradientUnits="userSpaceOnUse">
            <stop stop-color="#31B3FB"/>
            <stop offset="1" stop-color="#10608D"/>
        </linearGradient>
        <linearGradient id="paint25_linear_2533_79604" x1="426.073" y1="518.147" x2="424.207" y2="628.232" gradientUnits="userSpaceOnUse">
            <stop stop-color="#31B3FB"/>
            <stop offset="1" stop-color="#10608D"/>
        </linearGradient>
        <linearGradient id="paint26_linear_2533_79604" x1="495.732" y1="493.889" x2="555.752" y2="593.826" gradientUnits="userSpaceOnUse">
            <stop stop-color="#088DD7"/>
            <stop offset="1" stop-color="#006096"/>
        </linearGradient>
        <linearGradient id="paint27_linear_2533_79604" x1="506.305" y1="434.805" x2="441.001" y2="543.024" gradientUnits="userSpaceOnUse">
            <stop stop-color="#72CCFE"/>
            <stop offset="1" stop-color="#1292D9"/>
        </linearGradient>
        <linearGradient id="paint28_linear_2533_79604" x1="567.39" y1="292.681" x2="590.135" y2="388.905" gradientUnits="userSpaceOnUse">
            <stop stop-color="#31B3FB"/>
            <stop offset="1" stop-color="#10608D"/>
        </linearGradient>
        <linearGradient id="paint29_linear_2533_79604" x1="527" y1="316" x2="525.5" y2="404.5" gradientUnits="userSpaceOnUse">
            <stop stop-color="#31B3FB"/>
            <stop offset="1" stop-color="#10608D"/>
        </linearGradient>
        <linearGradient id="paint30_linear_2533_79604" x1="583" y1="296.5" x2="631.252" y2="376.842" gradientUnits="userSpaceOnUse">
            <stop stop-color="#088DD7"/>
            <stop offset="1" stop-color="#006096"/>
        </linearGradient>
        <linearGradient id="paint31_linear_2533_79604" x1="591.5" y1="249" x2="539" y2="336" gradientUnits="userSpaceOnUse">
            <stop stop-color="#72CCFE"/>
            <stop offset="1" stop-color="#1292D9"/>
        </linearGradient>
        <linearGradient id="paint32_linear_2533_79604" x1="248.167" y1="635.555" x2="261.801" y2="693.231" gradientUnits="userSpaceOnUse">
            <stop stop-color="#31B3FB"/>
            <stop offset="1" stop-color="#10608D"/>
        </linearGradient>
        <linearGradient id="paint33_linear_2533_79604" x1="223.958" y1="649.532" x2="223.058" y2="702.578" gradientUnits="userSpaceOnUse">
            <stop stop-color="#31B3FB"/>
            <stop offset="1" stop-color="#10608D"/>
        </linearGradient>
        <linearGradient id="paint34_linear_2533_79604" x1="257.524" y1="637.843" x2="286.446" y2="686" gradientUnits="userSpaceOnUse">
            <stop stop-color="#088DD7"/>
            <stop offset="1" stop-color="#006096"/>
        </linearGradient>
        <linearGradient id="paint35_linear_2533_79604" x1="262.619" y1="609.372" x2="231.15" y2="661.52" gradientUnits="userSpaceOnUse">
            <stop stop-color="#72CCFE"/>
            <stop offset="1" stop-color="#1292D9"/>
        </linearGradient>
        <clipPath id="clip0_2533_79604">
            <rect width="713" height="713" fill="white"/>
        </clipPath>
    </defs>
</svg>
