<svg width="16" height="456" viewBox="0 0 16 456" fill="none" xmlns="http://www.w3.org/2000/svg">
    <g clip-path="url(#clip0_8115_644134)">
        <path fill-rule="evenodd" clip-rule="evenodd" d="M0.999995 3L-1 3L-1 1L0.999995 1L0.999995 3ZM6.99998 3L4.99999 3L4.99999 1L6.99998 1C8.21846 1 9.38278 1.24269 10.4453 1.68332L9.67923 3.53077C8.85526 3.18909 7.95097 3 6.99998 3ZM14 10C14 9.04902 13.8109 8.14472 13.4692 7.32075L15.3167 6.55464C15.7573 7.6172 16 8.78152 16 10L16 14.0556L14 14.0556L14 10ZM14 30.2778L14 22.1667L16 22.1667L16 30.2778L14 30.2778ZM14 46.5L14 38.3889L16 38.3889L16 46.5L14 46.5ZM14 62.7222L14 54.6111L16 54.6111L16 62.7222L14 62.7222ZM14 78.9444L14 70.8333L16 70.8333L16 78.9444L14 78.9444ZM14 95.1667L14 87.0556L16 87.0556L16 95.1667L14 95.1667ZM14 111.389L14 103.278L16 103.278L16 111.389L14 111.389ZM14 127.611L14 119.5L16 119.5L16 127.611L14 127.611ZM14 143.833L14 135.722L16 135.722L16 143.833L14 143.833ZM14 160.056L14 151.944L16 151.944L16 160.056L14 160.056ZM14 192.5L14 184.389L16 184.389L16 192.5L14 192.5ZM14 208.722L14 200.611L16 200.611L16 208.722L14 208.722ZM14 224.945L14 216.833L16 216.833L16 224.945L14 224.945ZM14 241.167L14 233.056L16 233.056L16 241.167L14 241.167ZM14 257.389L14 249.278L16 249.278L16 257.389L14 257.389ZM14 273.611L14 265.5L16 265.5L16 273.611L14 273.611ZM14 289.833L14 281.722L16 281.722L16 289.833L14 289.833ZM14 306.056L14 297.945L16 297.945L16 306.056L14 306.056ZM14 322.278L14 314.167L16 314.167L16 322.278L14 322.278ZM14 338.5L14 330.389L16 330.389L16 338.5L14 338.5ZM14 354.722L14 346.611L16 346.611L16 354.722L14 354.722ZM14 370.945L14 362.833L16 362.833L16 370.945L14 370.945ZM14 387.167L14 379.056L16 379.056L16 387.167L14 387.167ZM14 403.389L14 395.278L16 395.278L16 403.389L14 403.389ZM14 419.611L14 411.5L16 411.5L16 419.611L14 419.611ZM14 435.833L14 427.722L16 427.722L16 435.833L14 435.833ZM14 448L14 443.945L16 443.945L16 448C16 448.947 15.8113 449.853 15.4684 450.68L13.621 449.914C13.8649 449.326 14 448.68 14 448ZM9 453C9.6798 453 10.3255 452.865 10.9137 452.621L11.6798 454.468C10.853 454.811 9.9473 455 9 455L9 453Z" fill="url(#paint0_linear_8115_644134)"/>
        <path d="M14 175.5L14 169.389C14 168.837 14.4477 168.389 15 168.389C15.5523 168.389 16 168.837 16 169.389L16 175.5C16 176.052 15.5523 176.5 15 176.5C14.4477 176.5 14 176.052 14 175.5Z" fill="url(#paint1_linear_8115_644134)"/>
    </g>
    <defs>
        <linearGradient id="paint0_linear_8115_644134" x1="-1" y1="1" x2="-97.5532" y2="22.5578" gradientUnits="userSpaceOnUse">
            <stop stop-color="#404945"/>
            <stop offset="1" stop-color="#495C53"/>
        </linearGradient>
        <linearGradient id="paint1_linear_8115_644134" x1="-1" y1="1" x2="-97.5532" y2="22.5578" gradientUnits="userSpaceOnUse">
            <stop stop-color="#404945"/>
            <stop offset="1" stop-color="#495C53"/>
        </linearGradient>
        <clipPath id="clip0_8115_644134">
            <rect width="16" height="456" fill="white"/>
        </clipPath>
    </defs>
</svg>
