<svg width="16" height="250" viewBox="0 0 16 250" fill="none" xmlns="http://www.w3.org/2000/svg">
    <mask id="mask0_8119_559798" style="mask-type:alpha" maskUnits="userSpaceOnUse" x="0" y="2" width="16" height="248">
        <path fill-rule="evenodd" clip-rule="evenodd" d="M6.32075 4.53076C7.14472 4.18909 8.04902 4 9 4H10.75V2H9C7.78152 2 6.6172 2.24271 5.55464 2.68332L6.32075 4.53076ZM14.25 4H16V2H14.25V4ZM2 11C2 10.049 2.18909 9.14471 2.53077 8.32074L0.683318 7.55466C0.242694 8.61719 0 9.78152 0 11V15H2V11ZM2 31V23H0V31H2ZM2 47V39H0V47H2ZM2 81V73H0V81H2ZM2 95V87H0V95H2ZM2 113V105H0V113H2ZM2 131V123H0V131H2ZM2 149V141H0V149H2ZM2 167V159H0V167H2ZM2 183V175H0V183H2ZM2 199V191H0V199H2ZM2 215V207H0V215H2ZM2 231V223H0V231H2ZM2 243V239H0V243C0 243.947 0.188721 244.853 0.531557 245.68L2.37901 244.914C2.13511 244.326 2 243.68 2 243ZM7 248C6.3202 248 5.67448 247.865 5.08633 247.621L4.32022 249.468C5.14696 249.811 6.0527 250 7 250V248ZM6.32075 57.5308C7.14472 57.1891 8.04902 57 9 57H13.5V55H9C7.78152 55 6.6172 55.2427 5.55464 55.6833L6.32075 57.5308ZM2 63C2 62.049 2.18909 61.1447 2.53077 60.3207L0.683318 59.5547C0.242694 60.6172 0 61.7815 0 63V66.75H2V63Z" fill="url(#paint0_linear_8119_559798)"/>
    </mask>
    <g mask="url(#mask0_8119_559798)">
        <rect width="16" height="250" transform="matrix(1 0 0 -1 0 250)" fill="url(#paint1_linear_8119_559798)"/>
    </g>
    <defs>
        <linearGradient id="paint0_linear_8119_559798" x1="0" y1="250" x2="-83.1052" y2="218.03" gradientUnits="userSpaceOnUse">
            <stop stop-color="#574242"/>
            <stop offset="1" stop-color="#804D4E"/>
        </linearGradient>
        <linearGradient id="paint1_linear_8119_559798" x1="0" y1="7.86284e-07" x2="-83.2763" y2="31.7795" gradientUnits="userSpaceOnUse">
            <stop stop-color="#574242"/>
            <stop offset="1" stop-color="#804D4E"/>
        </linearGradient>
    </defs>
</svg>
