<svg width="526" height="248" viewBox="0 0 526 248" fill="none" xmlns="http://www.w3.org/2000/svg">
<g clip-path="url(#clip0_7195_9242)">
<path d="M0 20C0 8.9543 8.9543 0 20 0H506C517.046 0 526 8.9543 526 20V228C526 239.046 517.046 248 506 248H20C8.95431 248 0 239.046 0 228V20Z" fill="#1D1E1E"/>
<path d="M951.221 236.436C940.474 232.947 925.351 228.734 907.843 223.863C861.797 211.059 798.742 193.515 744.618 169.816C680.887 141.904 645.089 111.687 638.256 80.023C631.211 47.3052 654.732 20.8414 710.172 -0.915588C727.644 -7.76196 745.152 -12.9626 759.243 -17.1757L764.474 -18.7227L761.343 -19.3481C650.533 -41.3355 545.239 -52 439.482 -52C333.726 -52 228.431 -41.3026 117.586 -19.3481L114.455 -18.7227L119.614 -17.1757C133.813 -12.9626 153.206 -7.20242 171.745 0.302258L171.639 0.565636L172.101 0.466896C225.158 21.9605 247.576 47.9965 240.672 80.0559C233.84 111.72 198.042 141.904 134.311 169.849C80.187 193.548 17.1315 211.092 -28.9146 223.896C-46.4221 228.767 -61.5455 232.98 -72.292 236.469L-74 237.029L-72.4343 237.917C69.1559 316.651 250.992 360.033 439.518 360C628.044 360 809.844 316.651 951.434 237.917L953 237.029L951.292 236.469L951.221 236.436ZM743.871 171.264C764.688 180.382 788.173 189.203 815.609 198.222C804.756 203.686 793.048 209.084 780.807 214.284C756.325 201.513 734.37 189.038 715.51 177.156C711.631 174.72 707.895 172.284 704.23 169.882C712.094 167.084 718.535 164.648 724.442 162.245C731.167 165.537 737.501 168.499 743.871 171.297V171.264ZM395.002 61.6563C386.319 61.7551 377.637 61.9196 368.954 62.0842L365.609 62.15C366.072 55.0732 366.107 48.6548 365.787 42.4996C365.609 39.0435 365.253 35.4228 364.791 31.7692C373.722 31.3413 383.401 30.9793 394.29 30.6501C395.109 40.8867 395.358 51.321 395.002 61.6893V61.6563ZM396.639 63.2363C406.033 63.1375 415.427 63.1046 424.822 63.0716C424.715 75.4478 424.323 88.2189 423.683 101.056C413.434 100.99 403.222 100.891 392.973 100.727C394.931 87.7252 396.176 75.1186 396.603 63.2691L396.639 63.2363ZM365.502 63.73H367.21C376.427 63.5325 385.679 63.335 394.895 63.2363C394.432 75.0528 393.223 87.6594 391.23 100.661C380.661 100.463 370.128 100.2 359.56 99.9038C362.656 87.5935 364.613 75.4149 365.467 63.73H365.502ZM363.865 62.183C353.902 62.3805 343.938 62.578 333.975 62.8084C334.402 57.9369 334.544 53.4604 334.402 49.1156C334.259 44.1125 333.69 38.9118 332.729 33.6454C344.259 32.8554 353.937 32.263 363.083 31.8022C363.545 35.4887 363.865 39.0764 364.079 42.5654C364.399 48.6876 364.364 55.1062 363.901 62.15L363.865 62.183ZM333.868 64.4212C343.832 64.1579 353.831 63.9603 363.794 63.7628C362.94 75.4148 360.948 87.5277 357.852 99.838C347.212 99.5089 336.572 99.1138 325.933 98.653C330.132 86.8694 332.765 75.349 333.868 64.3882V64.4212ZM357.425 101.418C354.364 113.202 350.308 125.413 345.326 137.691C344.223 140.422 343.013 143.121 341.839 145.853C329.527 144.767 317.072 143.385 304.795 141.772C313.585 127.52 320.488 113.531 325.363 100.233C336.039 100.694 346.749 101.089 357.425 101.418ZM343.654 145.952C344.792 143.385 345.895 140.817 346.963 138.25C352.016 125.808 356.144 113.432 359.204 101.484C369.808 101.813 380.448 102.076 391.052 102.241C388.739 117.053 385.43 132.72 381.159 148.783C368.99 148.125 356.357 147.203 343.618 146.051V145.952H343.654ZM392.76 102.274C403.044 102.438 413.328 102.57 423.612 102.636C422.829 117.711 421.69 133.28 420.124 150.198C407.527 149.968 395.002 149.54 382.868 148.882C387.102 132.786 390.447 117.118 392.724 102.274H392.76ZM425.355 102.636H429.305C432.686 102.669 436.102 102.702 439.482 102.702C442.863 102.702 446.243 102.702 449.624 102.669H453.574C454.356 117.777 455.495 133.379 457.061 150.231C451.225 150.33 445.389 150.396 439.482 150.396C433.575 150.396 427.739 150.33 421.904 150.231C423.469 133.379 424.608 117.81 425.391 102.636H425.355ZM426.565 63.0716C430.871 63.0716 435.177 63.0716 439.447 63.0716C443.717 63.0716 448.022 63.0716 452.328 63.0716C452.435 75.5136 452.826 88.3177 453.467 101.056C448.805 101.056 444.108 101.089 439.447 101.089C434.785 101.089 430.088 101.089 425.426 101.056C426.067 88.186 426.458 75.4149 426.565 63.0716ZM426.174 30.0247C430.586 29.9918 435.034 29.9589 439.447 29.9589C443.859 29.9589 448.307 29.9589 452.72 30.0247C452.364 40.2284 452.257 50.7943 452.328 61.4588C448.022 61.4588 443.752 61.4588 439.447 61.4588C435.141 61.4588 430.871 61.4588 426.565 61.4588C426.636 50.8272 426.494 40.2284 426.174 30.0247ZM544.527 49.1485C544.385 53.4933 544.527 57.9698 544.954 62.8412C534.991 62.5779 525.027 62.3804 515.063 62.2158C514.601 55.2049 514.565 48.5889 514.885 42.4996C515.063 39.0435 515.419 35.5545 515.882 31.868C524.956 32.3288 534.884 32.9213 546.235 33.7113C545.275 38.9448 544.705 44.1453 544.563 49.1485H544.527ZM552.996 98.6859C542.357 99.1468 531.717 99.5417 521.077 99.8708C517.981 87.5605 515.989 75.4149 515.135 63.7958C525.134 63.9933 535.097 64.1908 545.061 64.4541C546.128 75.4149 548.797 86.9352 552.996 98.7189V98.6859ZM519.334 99.9038C508.765 100.233 498.232 100.463 487.663 100.661C485.706 87.6594 484.461 75.0858 483.998 63.2363C493.25 63.335 502.466 63.4995 511.683 63.697H513.391C514.245 75.4149 516.202 87.5606 519.298 99.9038H519.334ZM513.142 42.3679C512.786 48.556 512.857 55.0074 513.284 62.1171L509.939 62.0513C501.257 61.8867 492.574 61.7221 483.891 61.6234C483.536 51.2551 483.785 40.821 484.603 30.5843C495.528 30.9135 505.207 31.2755 514.103 31.7034C513.64 35.4228 513.32 38.879 513.106 42.3351L513.142 42.3679ZM485.92 100.694C475.707 100.858 465.459 100.99 455.21 101.023C454.57 88.2189 454.179 75.4477 454.072 63.0387C463.466 63.0716 472.86 63.1046 482.255 63.2033C482.717 75.0528 483.927 87.6594 485.884 100.661L485.92 100.694ZM455.282 102.636C465.566 102.57 475.849 102.471 486.133 102.274C488.446 117.118 491.756 132.786 495.99 148.882C483.892 149.507 471.366 149.968 458.733 150.198C457.168 133.379 456.029 117.81 455.246 102.636H455.282ZM487.877 102.274C498.517 102.076 509.121 101.813 519.725 101.517C522.785 113.432 526.913 125.775 531.93 138.217C532.927 140.62 533.959 143.023 534.991 145.426L535.275 146.117C522.5 147.269 509.868 148.19 497.734 148.849C493.499 132.786 490.154 117.151 487.841 102.307L487.877 102.274ZM533.567 137.625C528.621 125.413 524.564 113.234 521.504 101.451C532.215 101.122 542.89 100.727 553.566 100.266C558.441 113.564 565.344 127.553 574.133 141.805C561.857 143.385 549.402 144.767 537.09 145.919L537.019 145.788C535.845 143.056 534.635 140.357 533.532 137.625H533.567ZM555.345 100.167C566.02 99.7063 576.731 99.1797 587.406 98.5872C593.207 110.667 601.462 123.306 611.924 136.176C600.466 138.118 588.367 139.929 575.984 141.542C567.194 127.322 560.256 113.399 555.38 100.167H555.345ZM554.776 98.5872C550.577 86.8365 547.872 75.3491 546.805 64.4541C556.946 64.7174 567.088 65.0465 577.194 65.4086C578.439 75.5794 581.642 86.2111 586.695 97.0402C576.055 97.6327 565.415 98.1264 554.776 98.5872ZM577.016 63.7958C566.91 63.4337 556.768 63.1374 546.662 62.8412C546.235 57.9698 546.093 53.4933 546.235 49.1485C546.378 44.1783 546.947 39.0106 547.908 33.7771C557.8 34.4683 568.262 35.3242 579.008 36.2787C577.549 41.9072 576.695 47.5686 576.553 53.1313C576.446 56.5215 576.624 60.0763 576.98 63.7628L577.016 63.7958ZM548.228 32.2301C550.043 23.2113 553.068 14.4229 557.231 6.09537C567.977 7.11575 579.186 8.33363 591.463 9.81481C585.912 17.8132 581.891 26.2066 579.471 34.7645C568.725 33.81 558.227 32.9542 548.264 32.263L548.228 32.2301ZM546.484 32.1313C534.884 31.3414 525.169 30.7489 516.024 30.2881C517.305 21.1377 519.44 12.053 522.465 3.29756C532.962 3.98878 543.744 4.87748 555.38 5.96368C551.253 14.2912 548.264 23.0797 546.484 32.1313ZM514.316 30.1894C505.384 29.7615 495.706 29.3994 484.746 29.0702C485.564 19.8211 486.916 10.539 488.802 1.52021C500.367 1.98102 510.793 2.54058 520.721 3.16597C517.732 11.9214 515.597 21.006 514.316 30.1894ZM483.037 29.0043C473.786 28.741 464.178 28.5764 454.499 28.4777C454.819 19.0639 455.353 9.71607 456.065 0.664379C466.669 0.79604 477.095 1.05933 487.059 1.45431C485.173 10.4731 483.82 19.7223 483.037 29.0043ZM482.931 30.5843C482.112 40.821 481.863 51.2551 482.219 61.6563C472.825 61.5576 463.466 61.5246 454.072 61.4917C454.001 50.8601 454.143 40.2943 454.463 30.0577C464.462 30.1564 473.786 30.321 482.931 30.5843ZM452.791 28.4448C448.307 28.4119 443.823 28.379 439.34 28.379C434.856 28.379 430.551 28.379 426.138 28.4448C425.818 19.064 425.284 9.68312 424.608 0.631432C429.554 0.565601 434.536 0.532688 439.482 0.532688C444.428 0.532688 449.41 0.532684 454.357 0.631432C453.68 9.61729 453.147 18.9652 452.791 28.4777V28.4448ZM424.857 61.4917C415.463 61.4917 406.104 61.5576 396.71 61.6563C397.066 51.288 396.817 40.821 395.998 30.5843C405.072 30.321 414.644 30.1564 424.466 30.0577C424.821 40.2614 424.928 50.8601 424.857 61.4917ZM395.891 29.0043C395.073 19.7223 393.721 10.4402 391.87 1.45431C401.87 1.05933 412.296 0.79604 422.864 0.664379C423.54 9.61732 424.074 18.9652 424.43 28.4777C414.644 28.5764 405.072 28.741 395.891 29.0043ZM394.148 29.0373C383.366 29.3664 373.651 29.7285 364.577 30.1564C363.332 21.006 361.161 11.9214 358.172 3.13302C367.993 2.47472 378.419 1.94807 390.091 1.48726C391.977 10.506 393.329 19.7881 394.148 29.0373ZM362.869 30.2551C353.76 30.716 344.045 31.3084 332.409 32.0984C330.594 23.0467 327.605 14.2255 323.513 5.93084C335.362 4.84464 346.109 3.95593 356.428 3.26471C359.453 12.0202 361.624 21.1047 362.869 30.2551ZM330.701 32.2301C320.773 32.9213 310.275 33.7771 299.493 34.7317C297.074 26.2066 293.017 17.8132 287.501 9.81481C299.707 8.33363 310.916 7.14869 321.734 6.12832C325.897 14.4559 328.922 23.2113 330.736 32.2301H330.701ZM330.985 33.81C331.946 39.0107 332.516 44.2112 332.658 49.1814C332.8 53.5262 332.658 58.0027 332.231 62.8742C322.089 63.1375 311.983 63.4667 301.878 63.8287C302.269 60.1422 302.411 56.5874 302.305 53.23C302.162 47.6673 301.308 41.973 299.849 36.3445C310.489 35.3899 320.951 34.5341 330.95 33.8429L330.985 33.81ZM332.124 64.4541C331.021 75.3491 328.352 86.8365 324.153 98.5872C313.514 98.1264 302.874 97.5997 292.234 97.0402C297.287 86.2111 300.454 75.5465 301.735 65.4086C311.877 65.0465 321.983 64.7504 332.124 64.4541ZM323.584 100.167C318.709 113.399 311.77 127.322 302.981 141.542C290.633 139.929 278.57 138.118 267.04 136.176C277.502 123.306 285.722 110.667 291.558 98.5872C302.233 99.1797 312.909 99.7063 323.62 100.167H323.584ZM302.02 143.023C293.053 157.341 281.986 172.383 269.175 187.722C267.894 189.236 266.613 190.75 265.297 192.264L264.585 193.12C249.497 189.993 234.872 186.504 221.03 182.751C238.893 167.215 253.945 152.009 265.866 137.592C277.467 139.567 289.637 141.41 302.055 143.023H302.02ZM267.076 192.725C268.215 191.375 269.389 190.026 270.528 188.676C283.587 173.074 294.796 157.802 303.87 143.253C316.218 144.866 328.779 146.281 341.163 147.433C333.583 164.681 324.296 182.356 312.802 201.513C297.002 199.242 281.417 196.543 266.436 193.515L267.112 192.758L267.076 192.725ZM342.942 147.598C355.717 148.783 368.42 149.705 380.732 150.396C375.929 168.367 369.986 186.965 362.62 207.24C346.963 205.924 330.772 204.081 314.581 201.777C326.075 182.62 335.327 164.878 342.906 147.598H342.942ZM382.476 150.462C394.646 151.12 407.243 151.548 419.982 151.778C418.274 169.98 416.139 189.038 413.506 210.038C396.781 209.577 380.234 208.656 364.399 207.339C371.765 187.063 377.672 168.433 382.476 150.462ZM421.726 151.811C427.633 151.91 433.54 151.976 439.518 151.976C445.496 151.976 451.296 151.91 457.203 151.811C458.911 169.947 461.011 189.005 463.68 210.071C454.499 210.302 446.813 210.433 439.447 210.433C432.081 210.433 424.43 210.302 415.214 210.071C417.883 189.104 419.982 170.013 421.69 151.811H421.726ZM458.911 151.778C471.65 151.548 484.247 151.12 496.417 150.462C501.221 168.433 507.128 187.063 514.494 207.339C498.623 208.656 482.112 209.544 465.388 210.038C462.719 188.972 460.584 169.915 458.911 151.778ZM498.196 150.396C510.509 149.705 523.212 148.783 535.987 147.598C543.566 164.878 552.854 182.62 564.312 201.777C548.086 204.081 531.93 205.891 516.273 207.24C508.907 186.965 502.965 168.367 498.161 150.396H498.196ZM537.766 147.433C550.185 146.281 562.711 144.866 575.059 143.253C584.133 157.802 595.342 173.074 608.401 188.676C609.54 190.059 610.75 191.441 611.924 192.791L612.529 193.482C597.548 196.543 581.962 199.242 566.163 201.48C554.669 182.324 545.381 164.615 537.802 147.4L537.766 147.433ZM609.753 187.722C596.907 172.383 585.876 157.341 576.909 143.023C589.328 141.377 601.498 139.534 613.098 137.592C624.983 152.009 640.071 167.183 657.935 182.751C644.128 186.504 629.503 189.993 614.379 193.12L613.81 192.429C612.458 190.849 611.106 189.302 609.789 187.722H609.753ZM614.949 137.263C626.692 135.255 638.683 132.951 650.533 130.449C663.913 143.023 680.78 156.123 700.636 169.421C687.22 174.128 673.521 178.44 659.785 182.225C641.957 166.755 626.869 151.614 614.913 137.263H614.949ZM613.774 135.847C603.313 123.076 595.057 110.503 589.221 98.4885C600.074 97.8631 610.892 97.2048 621.71 96.4477C628.222 106.948 637.438 117.941 649.11 129.1C637.224 131.601 625.339 133.872 613.739 135.847H613.774ZM588.51 96.9415C583.457 86.1452 580.218 75.5795 578.937 65.4745C589.364 65.8366 599.754 66.2645 610.18 66.7253C611.533 75.8099 615.091 85.2894 620.856 94.9336C610.109 95.6577 599.327 96.349 588.545 96.9415H588.51ZM609.931 65.1124C599.541 64.6516 589.15 64.2236 578.759 63.8616C578.368 60.1751 578.226 56.5874 578.297 53.23C578.439 47.7003 579.293 42.0718 580.752 36.4762C592.175 37.4965 602.708 38.5498 612.956 39.7018C610.821 45.462 609.647 51.4196 609.504 57.4102C609.469 59.8459 609.575 62.4463 609.931 65.1453V65.1124ZM581.179 34.9292C583.634 26.437 587.727 18.0765 593.349 10.0781C605.59 11.5593 617.689 13.205 629.325 14.9166C622.137 22.4542 616.835 30.2881 613.596 38.2207C603.419 37.1016 592.815 36.0153 581.179 34.962V34.9292ZM594.416 8.56401C600.146 0.697273 607.511 -6.97195 616.336 -14.2462C630.357 -12.3701 644.555 -10.2964 658.611 -8.02529C647.437 -1.17892 638.043 6.06243 630.677 13.4684C618.97 11.7238 606.8 10.0781 594.381 8.56401H594.416ZM592.495 8.33358C580.147 6.8524 568.867 5.60167 558.014 4.5813C562.248 -3.54876 567.728 -11.5801 574.311 -19.2165C587.3 -17.8669 600.679 -16.3199 614.095 -14.5424C605.412 -7.23526 598.153 0.466843 592.495 8.33358ZM556.199 4.41666C544.171 3.29755 533.318 2.40891 523.034 1.71769C526.023 -6.64278 529.867 -14.8716 534.457 -22.7055C547.125 -21.7838 559.864 -20.6647 572.319 -19.4139C565.807 -11.7447 560.362 -3.7134 556.199 4.41666ZM521.255 1.61895C511.363 0.960644 500.83 0.401054 489.158 -0.059761C491.008 -8.5848 493.357 -16.9453 496.132 -24.9437C508.338 -24.417 520.579 -23.6929 532.606 -22.8371C528.052 -14.9704 524.244 -6.77444 521.291 1.61895H521.255ZM487.414 -0.125553C477.38 -0.520538 466.882 -0.783859 456.207 -0.948437C456.883 -9.37474 457.737 -17.8011 458.733 -26.0628C470.263 -25.8982 482.255 -25.5361 494.353 -25.0424C491.578 -17.0111 489.265 -8.65063 487.414 -0.158501V-0.125553ZM454.463 -0.981384C449.446 -1.04721 444.464 -1.08012 439.447 -1.08012C434.429 -1.08012 429.447 -1.08013 424.43 -0.981384C423.754 -9.4406 422.9 -17.8998 421.904 -26.0957C427.739 -26.1616 433.575 -26.2274 439.411 -26.2274C445.247 -26.2274 451.083 -26.1945 456.919 -26.0957C455.922 -17.8998 455.068 -9.47351 454.392 -0.981384H454.463ZM422.722 -0.948437C412.011 -0.816776 401.514 -0.520538 391.514 -0.125553C389.664 -8.6506 387.351 -17.0112 384.576 -25.0096C396.674 -25.5362 408.666 -25.8654 420.195 -26.0299C421.192 -17.834 422.046 -9.37481 422.722 -0.915588V-0.948437ZM389.771 -0.059761C378.064 0.401054 367.566 0.960644 357.674 1.61895C354.72 -6.74152 350.913 -14.9704 346.358 -22.8371C358.457 -23.6929 370.698 -24.417 382.832 -24.9437C385.607 -16.9453 387.956 -8.5848 389.806 -0.059761H389.771ZM355.895 1.71769C345.646 2.40891 334.758 3.29755 322.73 4.41666C318.531 -3.74632 313.122 -11.7447 306.61 -19.4139C319.065 -20.6647 331.804 -21.7838 344.472 -22.7055C349.062 -14.8387 352.905 -6.64278 355.895 1.71769ZM320.915 4.5813C310.062 5.60167 298.746 6.8524 286.434 8.33358C280.776 0.466843 273.517 -7.20235 264.834 -14.5424C278.356 -16.3199 291.736 -17.8998 304.618 -19.2165C311.201 -11.5801 316.681 -3.58168 320.915 4.5813ZM284.512 8.56401C271.844 10.111 259.959 11.7238 248.216 13.4684C240.85 6.06243 231.456 -1.14601 220.283 -8.02529C234.481 -10.3294 248.714 -12.403 262.592 -14.2462C271.382 -6.97195 278.748 0.73019 284.512 8.56401ZM285.58 10.0452C291.202 18.0436 295.294 26.4041 297.75 34.8962C286.149 35.9495 275.545 37.0027 265.297 38.1548C262.059 30.2222 256.792 22.3885 249.604 14.8838C261.347 13.1393 273.446 11.5264 285.58 10.0452ZM298.177 36.4762C299.671 42.0718 300.49 47.7331 300.632 53.2629C300.739 56.6531 300.561 60.2409 300.17 63.8945C289.779 64.2566 279.388 64.6845 268.998 65.1453C269.318 62.4463 269.46 59.8459 269.425 57.4102C269.282 51.4196 268.144 45.4949 265.973 39.7347C276.221 38.6156 286.754 37.5623 298.177 36.509V36.4762ZM299.992 65.4745C298.711 75.5795 295.508 86.1452 290.419 96.9415C279.637 96.349 268.855 95.6577 258.109 94.9336C263.838 85.2894 267.432 75.8099 268.784 66.7253C279.175 66.2645 289.601 65.8366 299.992 65.4745ZM289.672 98.4885C283.836 110.503 275.581 123.076 265.119 135.847C253.554 133.872 241.669 131.601 229.748 129.1C241.455 117.941 250.672 106.948 257.148 96.4477C267.966 97.2048 278.819 97.8631 289.636 98.4885H289.672ZM263.98 137.263C252.059 151.614 236.972 166.755 219.108 182.225C205.408 178.44 191.673 174.128 178.257 169.421C198.114 156.123 214.98 143.023 228.36 130.449C240.139 132.951 252.131 135.222 263.945 137.263H263.98ZM217.649 183.476C198.576 199.9 176.585 216.654 150.43 234.725C132.425 228.668 115.273 222.151 99.4737 215.37C123.778 202.665 145.627 190.256 164.344 178.44C168.543 175.773 172.635 173.14 176.585 170.507C190.143 175.313 203.949 179.69 217.649 183.476ZM219.571 184.002C233.449 187.82 248.181 191.342 263.375 194.502C247.789 212.573 229.712 231.236 208.184 251.61C189.609 246.969 170.856 241.538 152.388 235.383C178.507 217.312 200.498 200.493 219.571 184.002ZM265.226 194.897C280.313 197.991 296.006 200.723 311.877 202.994C300.419 221.954 286.932 242.098 270.634 264.612C249.355 260.958 229.001 256.778 210.034 252.104C231.527 231.729 249.604 213.001 265.19 194.897H265.226ZM313.692 203.258C329.954 205.562 346.251 207.438 362.051 208.787C355.005 228.076 346.749 248.648 336.11 273.466C314.901 271.359 293.515 268.496 272.449 264.941C288.711 242.46 302.198 222.283 313.656 203.258H313.692ZM363.83 208.919C379.772 210.236 396.39 211.157 413.292 211.651C410.339 234.758 407.029 258.062 404.147 277.876C381.942 277.185 359.631 275.77 337.924 273.63C348.564 248.812 356.784 228.207 363.83 208.919ZM415.036 211.684C424.395 211.947 432.187 212.046 439.518 212.046C446.848 212.046 454.534 211.914 463.893 211.684C466.847 234.758 470.156 257.963 473.003 277.712C460.121 278.173 449.375 278.403 439.198 278.403H436.458C427.17 278.403 417.456 278.238 405.891 277.909C408.773 258.094 412.082 234.79 415.036 211.684ZM465.601 211.618C482.504 211.124 499.122 210.236 515.063 208.886C522.073 228.076 530.258 248.516 540.755 273.104C519.476 275.276 497.271 276.79 474.711 277.613C471.864 257.996 468.555 234.856 465.601 211.618ZM516.843 208.755C532.678 207.405 548.94 205.562 565.202 203.225C576.589 222.085 589.897 242.032 605.91 264.217C584.595 267.87 563.28 270.8 542.57 272.939C532.037 248.352 523.853 227.911 516.843 208.755ZM567.017 202.994C582.887 200.723 598.58 197.991 613.668 194.897C629.111 212.836 646.939 231.334 668.076 251.38C649.038 256.054 628.755 260.267 607.761 263.92C591.712 241.736 578.404 221.822 567.017 202.994ZM615.554 194.502C630.748 191.342 645.48 187.82 659.358 184.002C678.218 200.295 699.96 216.95 725.758 234.823C707.468 240.814 688.715 246.212 669.998 250.886C648.789 230.808 630.997 212.342 615.554 194.502ZM661.279 183.476C674.979 179.657 688.786 175.313 702.344 170.507C706.294 173.14 710.386 175.773 714.585 178.44C733.16 190.157 754.795 202.468 778.921 215.074C762.908 221.822 745.686 228.24 727.716 234.198C701.917 216.358 680.175 199.736 661.279 183.476ZM722.485 161.258C716.578 163.628 710.066 166.063 702.557 168.73C682.737 155.531 665.905 142.529 652.49 130.021C657.65 128.935 662.81 127.783 667.934 126.598C681.705 138.415 700.031 150.067 722.449 161.225L722.485 161.258ZM666.51 125.314C661.386 126.499 656.262 127.618 651.102 128.705C639.395 117.645 630.179 106.75 623.631 96.349C629.716 95.9211 635.801 95.4931 641.886 95.0323C647.01 105.302 655.301 115.473 666.475 125.347L666.51 125.314ZM641.139 93.4853C634.983 93.9461 628.862 94.3741 622.706 94.802C616.906 85.2236 613.276 75.8099 611.924 66.7911L619.148 67.0873C624.556 67.3177 629.965 67.5481 635.374 67.8114C635.267 71.9588 635.694 76.1719 636.584 80.3521C637.509 84.5653 639.039 89.0088 641.139 93.4853ZM635.445 66.1986C630.072 65.9353 624.699 65.7048 619.326 65.5073L611.675 65.1783C611.355 62.4792 611.212 59.8459 611.248 57.4102C611.39 51.4855 612.529 45.5937 614.7 39.8664C624.806 40.9856 634.057 42.1046 642.882 43.2238C638.363 50.4651 635.872 58.2002 635.41 66.1986H635.445ZM643.879 41.7425C635.089 40.6234 625.766 39.5043 615.376 38.3523C618.649 30.4526 624.023 22.6518 631.353 15.18C643.701 17.0233 654.768 18.7677 665.229 20.5781C656.049 27.1611 648.861 34.2708 643.914 41.7755L643.879 41.7425ZM667.258 19.2944C656.689 17.4512 645.373 15.6737 632.741 13.7646C640.249 6.39157 649.75 -0.816872 661.066 -7.63033C675.406 -5.29334 689.818 -2.72589 703.874 -0.059761C689.142 6.06247 676.723 12.5797 667.258 19.2615V19.2944ZM757.82 -18.4265C743.871 -14.2792 726.684 -9.14434 709.496 -2.39671C708.891 -2.16631 708.286 -1.90298 707.682 -1.67257L706.65 -1.17887C692.558 -3.87791 677.933 -6.51119 663.13 -8.94691C674.659 -15.6945 688.11 -22.2117 703.127 -28.3339C721.595 -25.2728 739.956 -21.9813 757.784 -18.4594L757.82 -18.4265ZM700.173 -28.7619C685.228 -22.5738 671.919 -16.0237 660.852 -9.24314C646.405 -11.5801 631.994 -13.7525 618.009 -15.6287C626.976 -22.8371 637.438 -29.8151 649.11 -36.3323C666.226 -34.0612 683.413 -31.5268 700.173 -28.7948V-28.7619ZM646.476 -36.6615C634.911 -30.1114 624.592 -23.1334 615.803 -15.9249C602.281 -17.7024 588.759 -19.3152 575.628 -20.6647C582.318 -28.2023 590.111 -35.4766 598.793 -42.2571C614.023 -40.7101 630.072 -38.8339 646.512 -36.6615H646.476ZM596.445 -42.4875C587.833 -35.6412 580.147 -28.3669 573.6 -20.8622C560.896 -22.1459 548.05 -23.2979 535.382 -24.2195C540.008 -31.9217 545.381 -39.3605 551.395 -46.3386C566.803 -45.2195 581.962 -43.9358 596.445 -42.4875ZM549.331 -46.5032C543.389 -39.4923 538.051 -32.0534 533.496 -24.3842C521.397 -25.24 509.014 -25.9641 496.666 -26.5236C499.477 -34.3575 502.68 -41.928 506.167 -48.9719C520.437 -48.3465 534.919 -47.5236 549.331 -46.5032ZM504.317 -49.0376C500.83 -41.9609 497.663 -34.4233 494.887 -26.5894C482.753 -27.1161 470.654 -27.4782 458.911 -27.6427C459.872 -35.4437 460.975 -43.047 462.185 -50.2225C475.885 -50.0251 490.048 -49.6301 504.352 -49.0047L504.317 -49.0376ZM439.447 -50.4201C446.421 -50.4201 453.431 -50.3872 460.406 -50.2884C459.196 -43.0471 458.128 -35.6411 457.168 -27.7085C451.225 -27.7744 445.318 -27.8402 439.375 -27.8402C433.433 -27.8402 427.633 -27.8073 421.726 -27.7085C420.765 -35.5424 419.662 -43.1129 418.487 -50.2884C425.462 -50.3872 432.472 -50.4201 439.447 -50.4201ZM416.779 -50.2225C417.989 -42.9812 419.057 -35.5753 420.053 -27.6427C408.31 -27.4782 396.212 -27.1161 384.077 -26.5894C381.302 -34.4233 378.135 -41.9609 374.648 -49.0376C388.952 -49.6301 403.115 -50.0251 416.815 -50.2555L416.779 -50.2225ZM372.762 -48.9389C376.284 -41.895 379.487 -34.3574 382.263 -26.4907C369.915 -25.9311 357.531 -25.2399 345.433 -24.3512C340.878 -32.0205 335.54 -39.4593 329.598 -46.4703C343.974 -47.4906 358.492 -48.3135 372.762 -48.9389ZM327.534 -46.3715C333.512 -39.3935 338.921 -31.9876 343.547 -24.2525C330.879 -23.3309 318.033 -22.2118 305.329 -20.8952C298.782 -28.3998 291.095 -35.674 282.484 -42.5204C296.86 -43.9687 312.019 -45.2524 327.534 -46.3715ZM280.171 -42.2571C288.854 -35.4766 296.647 -28.2023 303.336 -20.6647C290.17 -19.3152 276.684 -17.7024 263.162 -15.9249C254.372 -23.1663 244.053 -30.1114 232.488 -36.6615C248.928 -38.8339 264.977 -40.7101 280.171 -42.2571ZM229.819 -36.3323C241.491 -29.848 251.953 -22.8701 260.92 -15.6287C246.793 -13.7196 232.381 -11.5801 218.361 -9.21019C207.01 -16.0236 193.666 -22.5738 178.72 -28.7619C195.516 -31.4938 212.703 -34.0612 229.784 -36.2995L229.819 -36.3323ZM121.109 -18.4265C138.972 -21.9484 157.334 -25.24 175.767 -28.3011C190.783 -22.1789 204.234 -15.6616 215.763 -8.91397C201.031 -6.47824 186.442 -3.87798 172.564 -1.14602C154.309 -8.51903 135.983 -14.0159 121.109 -18.4265ZM175.126 -0.059761C189.075 -2.72589 203.451 -5.26043 217.827 -7.63033C229.143 -0.816872 238.68 6.35865 246.152 13.7646C233.449 15.6737 222.169 17.484 211.991 19.3602C202.028 12.448 189.929 6.09539 175.09 -0.059761H175.126ZM213.735 20.5452C224.09 18.7678 235.157 16.9903 247.576 15.1471C254.906 22.6517 260.244 30.4198 263.553 38.3194C253.305 39.4715 243.982 40.5576 235.086 41.7097C230.175 34.2708 222.987 27.1612 213.771 20.5452H213.735ZM236.011 43.2238C244.694 42.1046 253.945 41.0185 264.229 39.8664C266.4 45.5608 267.574 51.4526 267.716 57.4102C267.752 59.8789 267.61 62.4792 267.289 65.1783L259.639 65.5073C254.266 65.7377 248.892 65.9353 243.484 66.1986C243.021 58.1344 240.494 50.4322 236.046 43.2238H236.011ZM242.345 80.3521C243.235 76.2048 243.626 72.0904 243.519 67.8114C248.928 67.5481 254.372 67.3177 259.781 67.0873L267.04 66.7911C265.688 75.8099 262.059 85.2236 256.258 94.802C250.102 94.3741 243.946 93.9461 237.826 93.4853C239.925 89.0088 241.491 84.5653 242.38 80.3521H242.345ZM237.043 94.9995C243.128 95.4603 249.213 95.8882 255.298 96.3161C248.75 106.75 239.534 117.645 227.826 128.672C222.667 127.585 217.543 126.466 212.418 125.281C223.592 115.44 231.883 105.236 237.007 94.9665L237.043 94.9995ZM210.96 126.631C216.084 127.816 221.243 128.935 226.403 130.054C212.988 142.562 196.156 155.564 176.336 168.763C168.828 166.096 162.316 163.628 156.409 161.291C178.827 150.132 197.153 138.48 210.96 126.664V126.631ZM135.058 171.264C141.463 168.466 147.833 165.504 154.487 162.212C160.359 164.582 166.799 167.018 174.699 169.849C171.034 172.251 167.297 174.687 163.419 177.123C144.417 189.104 122.283 201.678 97.6233 214.548C85.5602 209.314 73.9953 203.817 63.2133 198.255C90.72 189.203 114.241 180.382 135.094 171.231L135.058 171.264ZM-70.0146 237.391C-59.4816 234.033 -45.1055 230.018 -28.4165 225.41C-2.93806 218.333 28.7676 209.512 60.9714 198.979C71.6467 204.541 83.354 210.104 95.7374 215.502C57.0216 235.58 18.7684 252.828 -6.60323 264.283L-11.7274 266.587C-32.0105 257.403 -51.6175 247.562 -70.0146 237.391ZM-9.73466 267.475L-5.82042 265.698C19.7647 254.145 58.4449 236.699 97.6589 216.325C113.601 223.237 130.824 229.787 148.794 235.877C120.219 255.527 92.2856 272.906 69.7963 286.862C69.7963 286.862 60.8647 292.392 57.413 294.565C34.639 286.369 12.0429 277.251 -9.6991 267.442L-9.73466 267.475ZM59.3346 295.289C62.9286 293.05 66.7361 290.681 70.7571 288.179C93.5311 274.025 121.856 256.449 150.715 236.535C169.184 242.723 188.043 248.22 206.796 252.894C186.869 271.688 167.084 289.002 149.612 304.307L148.402 305.361C143.171 309.936 138.154 314.314 133.457 318.494C108.227 311.615 83.2829 303.814 59.3346 295.256V295.289ZM135.378 319.021C140.182 314.742 145.306 310.265 150.822 305.46C168.472 289.989 188.47 272.478 208.718 253.388C227.826 258.127 248.323 262.373 269.638 266.027C257.184 283.176 244.836 299.403 233.911 313.721C227.542 322.049 221.564 329.948 215.906 337.519C188.684 332.318 161.604 326.097 135.414 319.021H135.378ZM217.721 337.881C223.236 330.541 229.036 322.905 235.299 314.676C246.402 300.127 258.927 283.637 271.453 266.356C292.661 269.944 314.19 272.873 335.505 274.98C330.096 287.554 324.687 299.93 319.385 311.944C314.047 324.057 308.034 337.782 302.554 350.652C273.944 347.393 245.405 343.114 217.721 337.881ZM304.297 350.85C309.635 338.276 315.4 325.209 320.951 312.536C326.288 300.391 331.768 287.883 337.248 275.145C359.062 277.284 381.48 278.732 403.898 279.424L401.229 297.757C398.098 319.218 395.286 338.506 392.689 357.433C363.047 356.313 333.299 354.075 304.262 350.817L304.297 350.85ZM439.233 358.387C424.928 358.387 409.84 358.091 394.432 357.531C397.137 337.749 400.09 317.539 402.937 297.988L405.641 279.489C417.028 279.818 427.134 279.983 436.458 279.983H439.233C449.481 279.95 460.299 279.72 473.252 279.259L475.992 297.988C478.838 317.572 481.828 337.815 484.496 357.498C469.088 358.058 453.93 358.354 439.269 358.354L439.233 358.387ZM486.205 357.466C483.5 337.651 480.547 317.408 477.664 297.823L474.96 279.226C497.734 278.403 520.116 276.856 541.431 274.684C546.947 287.586 552.534 300.259 557.943 312.536C563.494 325.176 569.258 338.243 574.632 350.85C545.595 354.108 515.846 356.314 486.205 357.466ZM576.375 350.652C571.002 337.98 565.166 324.748 559.544 311.944C554.206 299.765 548.691 287.257 543.211 274.486C564.063 272.314 585.485 269.352 606.942 265.665C619.61 283.143 632.349 299.897 643.63 314.676L643.879 315.005C649.964 323.003 655.728 330.607 661.208 337.881C633.524 343.114 604.985 347.426 576.375 350.652ZM663.059 337.519C657.508 330.113 651.636 322.378 645.409 314.182L645.053 313.721C633.915 299.107 621.318 282.583 608.828 265.336C629.894 261.682 650.284 257.403 669.499 252.663C689.96 272.018 710.244 289.792 728.143 305.46C733.551 310.199 738.711 314.709 743.55 319.021C717.36 326.097 690.281 332.318 663.059 337.519ZM745.436 318.527C740.49 314.149 735.188 309.508 729.637 304.637L729.281 304.34C711.631 288.87 691.633 271.359 671.35 252.203C690.21 247.496 709.069 242.032 727.395 236.008C756.574 256.152 785.184 273.927 808.172 288.212C812.157 290.68 815.965 293.05 819.559 295.289C795.61 303.847 770.666 311.648 745.436 318.527ZM821.551 294.597C817.673 292.162 813.509 289.594 809.097 286.862C786.394 272.742 758.14 255.198 729.352 235.383C747.322 229.392 764.616 222.908 780.736 216.095C820.27 236.667 859.057 254.145 884.714 265.731L888.663 267.508C866.957 277.317 844.361 286.434 821.551 294.63V294.597ZM890.621 266.587L885.461 264.283C860.018 252.795 821.623 235.482 782.622 215.239C795.361 209.808 806.855 204.475 817.779 198.946C850.019 209.479 881.76 218.3 907.381 225.41C923.963 230.018 938.339 234.033 948.872 237.391C930.44 247.562 910.833 257.403 890.585 266.587H890.621Z" fill="url(#paint0_linear_7195_9242)"/>
</g>
<defs>
<linearGradient id="paint0_linear_7195_9242" x1="207.501" y1="81.2283" x2="939.932" y2="241.316" gradientUnits="userSpaceOnUse">
<stop stop-color="#212727"/>
<stop offset="1" stop-color="#333535"/>
</linearGradient>
<clipPath id="clip0_7195_9242">
<path d="M0 20C0 8.9543 8.9543 0 20 0H506C517.046 0 526 8.9543 526 20V228C526 239.046 517.046 248 506 248H20C8.95431 248 0 239.046 0 228V20Z" fill="white"/>
</clipPath>
</defs>
</svg>
