<svg width="724" height="787" viewBox="0 0 724 787" fill="none" xmlns="http://www.w3.org/2000/svg">
<path d="M80.8388 230.781L362 68.4524L643.161 230.781V555.438L362 717.766L80.8388 555.438V230.781Z" stroke="#5A5A5A"/>
<path d="M81.3079 229.784L643.763 555.119" stroke="#5A5A5A"/>
<path d="M362 67.875L362 719.758" stroke="#5A5A5A"/>
<path d="M643.763 229.784L81.3086 555.119" stroke="#5A5A5A"/>
<path d="M360.501 282.005C361.429 281.469 362.573 281.469 363.501 282.005L457.47 336.258C458.398 336.794 458.97 337.784 458.97 338.856V447.362C458.97 448.434 458.398 449.425 457.47 449.961L363.501 504.214C362.573 504.75 361.429 504.75 360.501 504.214L266.532 449.961C265.604 449.425 265.032 448.434 265.032 447.362V338.856C265.032 337.784 265.604 336.794 266.532 336.258L360.501 282.005Z" fill="url(#paint0_linear_647_15425)" stroke="#5A5A5A" stroke-width="2"/>
<path fill-rule="evenodd" clip-rule="evenodd" d="M424.338 388.51C424.333 388.478 424.325 388.447 424.316 388.412L424.31 388.385C424.304 388.371 424.3 388.357 424.295 388.343C424.291 388.329 424.287 388.315 424.281 388.301C424.281 388.301 424.28 388.294 424.277 388.286C424.275 388.279 424.273 388.272 424.27 388.267C424.203 388.068 424.09 387.848 423.921 387.655C423.921 387.655 423.916 387.644 423.91 387.644C423.82 387.542 423.713 387.452 423.589 387.384C423.577 387.371 423.562 387.362 423.548 387.354C423.543 387.35 423.538 387.347 423.533 387.344L405.217 376.71L380.154 362.16L379.732 361.917L379.592 361.832L336.547 336.939H336.536C336.496 336.917 336.192 336.781 335.922 336.741C335.793 336.724 335.669 336.719 335.669 336.719H335.506C335.279 336.734 334.912 336.972 334.829 337.026C334.821 337.031 334.814 337.036 334.814 337.036C333.745 337.655 332.676 338.276 331.607 338.897C330.538 339.518 329.468 340.14 328.399 340.759C328.387 340.769 328.374 340.779 328.361 340.789C328.342 340.802 328.323 340.817 328.303 340.833C328.275 340.856 328.253 340.878 328.225 340.907C328.202 340.924 328.18 340.941 328.163 340.969C328.146 340.986 328.129 341.008 328.112 341.031C328.005 341.15 327.932 341.28 327.876 341.399C327.853 341.439 327.843 341.673 327.832 341.713C327.798 341.82 328.079 342.133 328.063 342.207C328.057 342.24 327.748 342.064 327.742 342.103L327.035 443.139H327.041C327.03 443.824 327.21 444.26 327.665 444.616C327.69 444.633 327.715 444.65 327.741 444.668C327.784 444.698 327.828 444.729 327.874 444.758L334.435 448.566L334.452 448.578C334.485 448.595 334.519 448.606 334.553 448.617C334.56 448.624 334.57 448.627 334.578 448.63C334.583 448.631 334.588 448.632 334.592 448.634C334.612 448.64 334.633 448.646 334.654 448.651C334.675 448.657 334.696 448.662 334.716 448.668C334.73 448.674 334.744 448.678 334.758 448.682C334.772 448.687 334.786 448.691 334.8 448.696C334.814 448.696 334.827 448.699 334.841 448.702C334.857 448.705 334.873 448.708 334.89 448.708C334.919 448.713 334.947 448.713 334.975 448.713L334.997 448.713C334.997 448.713 335.048 448.725 335.076 448.725C335.122 448.725 335.172 448.721 335.219 448.713H335.251C335.251 448.713 335.256 448.708 335.262 448.708C335.267 448.708 335.267 448.708 335.273 448.702C335.29 448.702 335.307 448.702 335.324 448.691C335.352 448.685 335.38 448.679 335.408 448.668C335.448 448.668 335.487 448.651 335.526 448.634C335.566 448.623 335.605 448.606 335.645 448.589C335.718 448.555 335.791 448.515 335.864 448.476L354.321 437.768L423.595 397.587C424.231 397.18 424.36 396.631 424.36 395.924V388.668C424.355 388.612 424.349 388.555 424.338 388.51ZM342.673 358.544V376.173L357.051 367.66L342.673 358.544ZM343.617 393.113L371.522 408.742V376.173L343.617 393.113ZM342.657 427.757V410.131L357.758 419.273L342.657 427.757ZM387.132 401.994L401.594 393.113L387.132 384.367V401.994Z" fill="#3BD171"/>
<path fill-rule="evenodd" clip-rule="evenodd" d="M424.712 387.504C424.887 387.575 425.167 387.891 425.167 387.891C425.467 388.242 425.672 388.669 425.762 389.122V396.611C425.762 397.385 425.657 398.264 424.678 398.897L336.939 449.776C336.834 449.846 336.764 449.881 336.659 449.916C336.642 449.934 336.589 449.952 336.537 449.969C336.484 449.987 336.432 450.004 336.414 450.022H336.239H336.204C336.1 450.092 335.924 450.092 335.819 450.092C335.726 450.092 335.648 450.077 335.596 450.066C335.571 450.061 335.551 450.057 335.539 450.057C335.482 450.057 335.424 450.047 335.372 450.037C335.329 450.029 335.291 450.022 335.259 450.022H335.12L335.049 449.987C335.015 449.987 335.015 449.952 334.98 449.952C334.945 449.952 334.839 449.916 334.839 449.916C334.804 449.881 334.7 449.811 334.7 449.811L328.225 446.049L328.05 445.943C327.35 445.416 327.07 444.783 327.07 443.939C327.07 443.904 327.035 443.834 327.035 443.834V342.11C327.035 342.075 327.07 341.899 327.07 341.899C327.105 341.724 327.14 341.618 327.175 341.477C327.175 341.442 327.28 341.267 327.28 341.231C327.315 341.161 327.42 340.95 327.595 340.739L327.805 340.528C327.805 340.528 327.815 340.518 327.834 340.504C327.851 340.491 327.877 340.474 327.91 340.458L328.085 340.352L334.455 336.66C334.49 336.625 334.56 336.625 334.594 336.59C334.657 336.542 334.77 336.466 334.906 336.397C335.074 336.313 335.277 336.238 335.469 336.238H335.679H336.029C336.31 336.273 336.624 336.379 336.799 336.449C336.834 336.484 336.904 336.519 336.904 336.519L424.642 387.434L424.712 387.504ZM388.56 408.601L422.893 388.7L380.301 363.981L374.526 367.356L410.679 388.348C410.838 388.44 410.939 388.562 410.989 388.704C411.016 388.779 411.029 388.86 411.029 388.946C411.029 389.134 410.982 389.291 410.877 389.416C410.826 389.478 410.76 389.532 410.679 389.579L388.56 402.413V408.601ZM388.56 386.309V400.128L400.494 393.2L388.56 386.309ZM335.329 338.418C335.294 338.418 335.259 338.453 335.259 338.453L330.01 341.513L366.162 362.504C366.266 362.556 366.352 362.642 366.413 362.746C366.476 362.853 366.512 362.977 366.512 363.102C366.512 363.348 366.372 363.594 366.162 363.7L344.079 376.569V382.757L378.341 362.856L335.924 338.242L335.714 338.208C335.645 338.242 335.504 338.313 335.329 338.418ZM344.079 360.465V374.248L355.943 367.356L344.079 360.465ZM363.292 363.102L329.03 343.2V392.532L334.804 395.908V353.995C334.804 353.749 334.945 353.538 335.155 353.397C335.365 353.257 335.645 353.257 335.855 353.397L357.973 366.231L363.292 363.102ZM335.155 404.98C335.365 404.874 335.645 404.874 335.855 404.98L357.938 417.814L363.292 414.719L329.03 394.783V443.834C328.995 444.22 329.03 444.255 329.24 444.361L334.735 447.561L334.804 405.613C334.804 405.367 334.945 405.12 335.155 404.98ZM344.079 425.831L355.978 418.939L344.079 412.047V425.831ZM336.694 447.701L379.286 422.948V416.232L343.099 437.223C342.889 437.364 342.644 437.364 342.399 437.223C342.189 437.083 342.049 436.872 342.049 436.626L342.119 410.922L336.764 407.793L336.694 447.701ZM379.286 379.839C379.286 379.593 379.426 379.347 379.636 379.241C379.846 379.1 380.126 379.1 380.336 379.241L388.21 383.777C388.28 383.812 388.385 383.883 388.385 383.883L402.454 392.075L407.809 388.946L372.567 368.482L343.169 385.57C342.959 385.676 342.679 385.676 342.469 385.57C342.259 385.43 342.119 385.219 342.119 384.937V359.305L336.764 356.21V397.033L366.162 414.087C366.372 414.192 366.512 414.438 366.512 414.685C366.512 414.8 366.481 414.916 366.427 415.02C366.365 415.138 366.273 415.243 366.162 415.317L358.323 419.889L344.044 428.151V434.41L379.286 413.946V379.839ZM423.662 397.209C423.768 397.138 423.803 397.068 423.803 396.611V390.458L387.65 411.379C387.44 411.52 387.195 411.52 386.95 411.379C386.74 411.274 386.601 411.028 386.601 410.781V385.113L381.246 382.019V421.822L423.662 397.209ZM372.461 375.268C372.671 375.127 372.952 375.127 373.161 375.268C373.371 375.408 373.512 375.619 373.512 375.865V410.43C373.512 410.676 373.371 410.922 373.161 411.027C373.057 411.098 372.916 411.133 372.812 411.133C372.671 411.133 372.461 411.027 372.461 411.027L342.714 393.763C342.504 393.657 342.364 393.411 342.364 393.2V393.13C342.364 392.884 342.504 392.673 342.714 392.532L372.461 375.268ZM371.552 378.081L345.584 393.165L371.552 408.215V378.081Z" fill="#161815"/>
<path d="M640.809 498.021C641.737 497.485 642.88 497.485 643.809 498.021L710.224 536.366C711.152 536.902 711.724 537.892 711.724 538.964V615.653C711.724 616.725 711.152 617.716 710.224 618.252L643.809 656.596C642.88 657.132 641.737 657.132 640.809 656.596L574.393 618.252C573.465 617.716 572.893 616.725 572.893 615.653V538.964C572.893 537.892 573.465 536.902 574.393 536.366L640.809 498.021Z" fill="url(#paint1_linear_647_15425)" stroke="#5A5A5A" stroke-width="2"/>
<path fill-rule="evenodd" clip-rule="evenodd" d="M675.107 552.132C675.654 551.098 675.958 549.882 675.958 548.604C675.958 544.407 672.552 541 668.354 541C664.157 541 660.75 544.407 660.75 548.604C660.75 552.802 664.157 556.208 668.354 556.208C669.632 556.208 670.848 555.904 671.882 555.357L675.107 558.581C675.551 559.028 676.135 559.25 676.719 559.25C677.303 559.25 677.887 559.028 678.331 558.581C679.222 557.69 679.222 556.245 678.331 555.354L675.107 552.132ZM665.312 548.604C665.312 546.931 666.681 545.562 668.354 545.562C670.027 545.562 671.396 546.931 671.396 548.604C671.396 550.277 670.027 551.646 668.354 551.646C666.681 551.646 665.312 550.277 665.312 548.604ZM611.323 559.25H649.344C652.264 559.25 654.667 556.847 654.667 553.927V546.323C654.667 543.403 652.264 541 649.344 541H611.323C608.403 541 606 543.403 606 546.323V553.927C606 556.847 608.403 559.25 611.323 559.25ZM673.677 565.333H635.656C632.736 565.333 630.333 567.736 630.333 570.656V608.677C630.333 611.597 632.736 614 635.656 614H673.677C676.597 614 679 611.597 679 608.677V570.656C679 567.736 676.597 565.333 673.677 565.333ZM654.667 577.5C657.191 577.5 659.229 579.538 659.229 582.062C659.229 584.587 657.191 586.625 654.667 586.625C652.142 586.625 650.104 584.587 650.104 582.062C650.104 579.538 652.142 577.5 654.667 577.5ZM663.792 596.51C663.792 597.757 662.757 598.792 661.51 598.792H647.823C646.576 598.792 645.542 597.757 645.542 596.51V595.385C645.542 592.222 648.401 589.667 651.929 589.667H657.404C660.932 589.667 663.792 592.222 663.792 595.385V596.51ZM615.125 612.478C620.165 612.478 624.25 608.393 624.25 603.353C624.25 598.314 620.165 594.228 615.125 594.228C610.085 594.228 606 598.314 606 603.353C606 608.393 610.085 612.478 615.125 612.478ZM621.969 579.02H608.281C607.022 579.02 606 577.998 606 576.739C606 575.48 607.022 574.458 608.281 574.458H621.969C623.228 574.458 624.25 575.48 624.25 576.739C624.25 577.998 623.228 579.02 621.969 579.02ZM621.969 588.145H608.281C607.022 588.145 606 587.123 606 585.864C606 584.605 607.022 583.583 608.281 583.583H621.969C623.228 583.583 624.25 584.605 624.25 585.864C624.25 587.123 623.228 588.145 621.969 588.145ZM621.969 569.895H608.281C607.022 569.895 606 568.873 606 567.614C606 566.355 607.022 565.333 608.281 565.333H621.969C623.228 565.333 624.25 566.355 624.25 567.614C624.25 568.873 623.228 569.895 621.969 569.895Z" fill="url(#paint2_linear_647_15425)"/>
<path d="M79.8086 498.021C80.7368 497.485 81.8804 497.485 82.8086 498.021L149.224 536.366C150.152 536.902 150.724 537.892 150.724 538.964V615.653C150.724 616.725 150.152 617.716 149.224 618.252L82.8086 656.596C81.8804 657.132 80.7368 657.132 79.8086 656.596L13.3933 618.252C12.4651 617.716 11.8933 616.725 11.8933 615.653V538.964C11.8933 537.892 12.4651 536.902 13.3933 536.366L79.8086 498.021Z" fill="url(#paint3_linear_647_15425)" stroke="#5A5A5A" stroke-width="2"/>
<path fill-rule="evenodd" clip-rule="evenodd" d="M107.669 540C106.768 540 106.036 540.731 106.036 541.633V544.85H97.9714C97.0696 544.85 96.3386 545.581 96.3386 546.483V560.353L89.9063 566.785V563.466L89.9048 563.382C89.8866 562.956 89.7048 562.572 89.4205 562.291L74.8886 547.759C74.5926 547.459 74.1813 547.273 73.7266 547.273H73.7263H73.7262H44.6328C43.731 547.273 43 548.004 43 548.906V607.094C43 607.996 43.731 608.727 44.6328 608.727H88.2735C89.1753 608.727 89.9063 607.996 89.9063 607.094V589.216L96.3386 595.648V609.519C96.3386 610.421 97.0696 611.152 97.9714 611.152H106.036V614.367C106.036 615.269 106.768 616 107.669 616H117.367C118.269 616 119 615.269 119 614.367V604.669C119 603.768 118.269 603.037 117.367 603.037H107.669C106.768 603.037 106.036 603.768 106.036 604.669V607.886H99.6042V594.972C99.6042 594.539 99.4322 594.124 99.126 593.817L89.9063 584.598V579.634H106.036V582.849C106.036 583.751 106.768 584.482 107.669 584.482H117.367C118.269 584.482 119 583.751 119 582.849V573.151C119 572.249 118.269 571.518 117.367 571.518H107.669C106.768 571.518 106.036 572.249 106.036 573.151V576.368H89.9063V571.404L99.126 562.184C99.4322 561.878 99.6042 561.463 99.6042 561.029V548.115H106.036V551.331C106.036 552.232 106.768 552.963 107.669 552.963H117.367C118.269 552.963 119 552.232 119 551.331V541.633C119 540.731 118.269 540 117.367 540H107.669ZM109.302 546.483L109.302 546.506V549.698H115.734V543.266H109.302V546.459L109.302 546.483ZM109.302 612.734V609.542L109.302 609.519L109.302 609.496V606.302H115.734V612.734H109.302ZM109.302 581.216V578.024L109.302 578.001L109.302 577.978V574.784H115.734V581.216H109.302ZM86.6407 565.086V578.001V605.461H46.2656V550.539H72.0938V563.453V563.453C72.0938 563.67 72.1359 563.876 72.2124 564.065C72.4545 564.664 73.0413 565.086 73.7266 565.086H86.6407ZM54.3306 556.971C53.4288 556.971 52.6977 557.702 52.6977 558.604C52.6977 559.506 53.4288 560.237 54.3306 560.237H61.604C62.5058 560.237 63.2368 559.506 63.2368 558.604C63.2368 557.702 62.5058 556.971 61.604 556.971H54.3306ZM75.3594 552.848L84.3315 561.82H75.3594V552.848ZM65.6369 569.313C66.1421 569.021 66.7645 569.021 67.2697 569.313L76.9676 574.912C77.4728 575.203 77.784 575.742 77.784 576.326V587.524C77.784 588.107 77.4728 588.646 76.9676 588.938L67.2943 594.523C67.0487 594.671 66.7609 594.756 66.4533 594.756C66.1457 594.756 65.858 594.671 65.6123 594.523L55.939 588.938C55.4338 588.646 55.1226 588.107 55.1226 587.524V576.326C55.1226 575.742 55.4338 575.203 55.939 574.912L65.6369 569.313ZM66.4533 572.612L72.8856 576.326L66.4533 580.039L60.0211 576.326L66.4533 572.612ZM58.3883 586.581V579.154L64.8205 582.867V590.295L58.3883 586.581ZM68.0861 582.867V590.295L74.5184 586.581V579.154L68.0861 582.867Z" fill="url(#paint4_linear_647_15425)"/>
<path d="M641.191 129.286C642.12 128.75 643.263 128.75 644.191 129.286L710.607 167.631C711.535 168.167 712.107 169.158 712.107 170.229V246.919C712.107 247.991 711.535 248.981 710.607 249.517L644.191 287.862C643.263 288.398 642.12 288.398 641.191 287.862L574.776 249.517C573.848 248.981 573.276 247.991 573.276 246.919V170.229C573.276 169.158 573.848 168.167 574.776 167.631L641.191 129.286Z" fill="url(#paint5_linear_647_15425)" stroke="#5A5A5A" stroke-width="2"/>
<path d="M644.209 210.881H663.935C664.356 210.881 664.555 210.881 664.585 210.341C664.746 208.375 664.746 206.397 664.585 204.428C664.585 204.046 664.391 203.888 663.968 203.888H624.709C624.223 203.888 624.092 204.046 624.092 204.493V210.151C624.092 210.881 624.092 210.881 624.87 210.881H644.209ZM662.382 197.275C662.438 197.131 662.438 196.973 662.382 196.831C662.053 196.129 661.662 195.458 661.209 194.828C660.527 193.753 659.723 192.761 658.808 191.871C658.375 191.333 657.875 190.85 657.315 190.44C654.507 188.099 651.168 186.442 647.58 185.608C645.77 185.21 643.919 185.02 642.064 185.036H624.641C624.155 185.036 624.09 185.226 624.09 185.64V196.925C624.09 197.401 624.09 197.529 624.707 197.529H662.148C662.148 197.529 662.473 197.465 662.538 197.275H662.38H662.382ZM662.382 217.494C661.831 217.434 661.275 217.434 660.723 217.494H624.742C624.256 217.494 624.092 217.494 624.092 218.13V229.163C624.092 229.671 624.092 229.8 624.742 229.8H641.354C642.148 229.859 642.943 229.804 643.721 229.642C646.132 229.472 648.503 228.96 650.764 228.115C651.587 227.836 652.381 227.472 653.131 227.035H653.357C657.252 225.05 660.415 221.932 662.41 218.105C662.41 218.105 662.637 217.624 662.382 217.499V217.494ZM617.572 235.52V235.33V227.923V225.412V217.94C617.572 217.526 617.572 217.464 617.053 217.464H610.012C609.622 217.464 609.461 217.464 609.461 216.956V210.915H616.988C617.409 210.915 617.572 210.915 617.572 210.375V204.399C617.572 204.016 617.572 203.923 617.053 203.923H610.012C609.622 203.923 609.461 203.923 609.461 203.414V197.82C609.461 197.47 609.461 197.376 609.98 197.376H616.955C617.441 197.376 617.572 197.376 617.572 196.772V179.636C617.572 179.128 617.572 179 618.222 179H642.555C644.321 179.069 646.076 179.259 647.811 179.572C651.388 180.22 654.824 181.472 657.967 183.26C660.05 184.462 661.968 185.913 663.676 187.584C664.961 188.891 666.12 190.305 667.148 191.811C668.169 193.338 669.017 194.97 669.682 196.676C669.764 197.12 670.199 197.42 670.652 197.344H676.46C677.205 197.344 677.205 197.344 677.238 198.044V203.259C677.238 203.767 677.044 203.895 676.523 203.895H672.044C671.591 203.895 671.46 203.895 671.493 204.467C671.67 206.404 671.67 208.347 671.493 210.284C671.493 210.824 671.493 210.888 672.112 210.888H677.235C677.462 211.174 677.235 211.46 677.235 211.749C677.268 212.117 677.268 212.49 677.235 212.859V216.707C677.235 217.247 677.074 217.407 676.586 217.407H670.453C670.026 217.327 669.61 217.595 669.512 218.011C668.052 221.731 665.716 225.066 662.697 227.74C661.595 228.712 660.436 229.628 659.226 230.473C657.927 231.205 656.663 231.967 655.331 232.572C652.881 233.652 650.311 234.449 647.673 234.954C645.169 235.394 642.63 235.593 640.081 235.559H617.563V235.527L617.572 235.52Z" fill="url(#paint6_linear_647_15425)"/>
<path d="M79.8086 129.286C80.7368 128.75 81.8804 128.75 82.8086 129.286L149.224 167.631C150.152 168.167 150.724 169.158 150.724 170.229V246.919C150.724 247.991 150.152 248.981 149.224 249.517L82.8086 287.862C81.8804 288.398 80.7368 288.398 79.8086 287.862L13.3933 249.517C12.4651 248.981 11.8933 247.991 11.8933 246.919V170.229C11.8933 169.158 12.4651 168.167 13.3933 167.631L79.8086 129.286Z" fill="url(#paint7_linear_647_15425)" stroke="#5A5A5A" stroke-width="2"/>
<path fill-rule="evenodd" clip-rule="evenodd" d="M87.7689 211.405C87.4475 211.431 85.787 211.539 82.0829 211.539C79.1368 211.539 77.0451 211.443 76.3113 211.405C64.9259 210.862 56.4277 208.71 56.4277 206.134C56.4277 203.558 64.9259 201.409 76.3113 200.856V209.262C77.0558 209.32 79.1877 209.457 82.1338 209.457C85.6692 209.457 87.4395 209.297 87.7582 209.265V200.862C99.1194 201.412 107.599 203.563 107.599 206.134C107.599 208.704 99.1221 210.856 87.7582 211.402L87.7689 211.405ZM87.7689 199.993V192.471H103.624V181H60.4559V192.471H76.3086V199.99C63.4234 200.632 53.7334 203.403 53.7334 206.724C53.7334 210.045 63.4234 212.813 76.3086 213.458V237.562H87.7662V213.449C100.622 212.807 110.296 210.039 110.296 206.721C110.296 203.403 100.63 200.635 87.7662 199.99L87.7689 199.993Z" fill="url(#paint8_linear_647_15425)"/>
<path d="M360.809 2.02073C361.737 1.48483 362.88 1.48483 363.809 2.02073L430.224 40.3656C431.152 40.9015 431.724 41.8919 431.724 42.9637V119.653C431.724 120.725 431.152 121.716 430.224 122.252L363.809 160.596C362.88 161.132 361.737 161.132 360.809 160.596L294.393 122.252C293.465 121.716 292.893 120.725 292.893 119.653V42.9637C292.893 41.8919 293.465 40.9015 294.393 40.3656L360.809 2.02073Z" fill="url(#paint9_linear_647_15425)" stroke="#5A5A5A" stroke-width="2"/>
<path fill-rule="evenodd" clip-rule="evenodd" d="M317 81.8394L334.871 52L352.742 81.8394L334.871 92.4829L317 81.8394ZM396.625 58.5172H373.228C371.628 58.5172 370.331 59.8435 370.331 61.4796C370.331 63.1156 371.628 64.4419 373.228 64.4419H396.625C398.225 64.4419 399.523 63.1156 399.523 61.4796C399.523 59.8435 398.225 58.5172 396.625 58.5172ZM367.433 61.4796C367.43 60.6952 367.122 59.9442 366.578 59.3911C365.448 58.2426 363.623 58.2426 362.492 59.3911C361.948 59.9441 361.641 60.6952 361.638 61.4796C361.616 61.6715 361.616 61.8653 361.638 62.0573C361.67 62.2503 361.724 62.439 361.797 62.6201C361.875 62.7956 361.967 62.964 362.072 63.1237C362.176 63.2898 362.298 63.4437 362.434 63.5829C362.566 63.7171 362.712 63.8363 362.869 63.9383C363.022 64.052 363.187 64.1464 363.362 64.2198C363.554 64.3216 363.758 64.3964 363.97 64.4419C364.158 64.4634 364.347 64.4634 364.535 64.4419C365.3 64.4426 366.035 64.1338 366.578 63.5829C366.715 63.4437 366.836 63.2898 366.94 63.1237C367.046 62.964 367.138 62.7956 367.216 62.6201C367.308 62.4412 367.381 62.2525 367.433 62.0573C367.455 61.8653 367.455 61.6715 367.433 61.4796ZM373.228 70.8992H402.205C403.805 70.8992 405.102 72.2255 405.102 73.8616C405.102 75.4976 403.805 76.8239 402.205 76.8239H373.228C371.628 76.8239 370.331 75.4976 370.331 73.8616C370.331 72.2255 371.628 70.8992 373.228 70.8992ZM366.578 71.7731C367.122 72.3261 367.43 73.0772 367.433 73.8616C367.455 74.0535 367.455 74.2473 367.433 74.4392C367.381 74.6344 367.308 74.8232 367.216 75.0021C367.138 75.1775 367.046 75.346 366.94 75.5057C366.836 75.6717 366.715 75.8257 366.578 75.9648C366.035 76.5157 365.3 76.8246 364.535 76.8239C364.347 76.8454 364.158 76.8454 363.97 76.8239C363.758 76.7783 363.554 76.7036 363.362 76.6017C363.187 76.5284 363.022 76.4339 362.869 76.3203C362.712 76.2183 362.566 76.0991 362.434 75.9648C362.298 75.8257 362.176 75.6717 362.072 75.5057C361.967 75.346 361.875 75.1775 361.797 75.0021C361.724 74.821 361.67 74.6322 361.638 74.4392C361.616 74.2473 361.616 74.0535 361.638 73.8616C361.641 73.0772 361.948 72.3261 362.492 71.7731C363.623 70.6245 365.448 70.6245 366.578 71.7731ZM367.433 86.6145C367.454 86.8064 367.454 87.0002 367.433 87.1922C367.455 87.384 367.455 87.5779 367.433 87.7698C367.388 87.9861 367.315 88.1953 367.216 88.3919C367.144 88.5706 367.052 88.7397 366.94 88.8955C366.84 89.0595 366.718 89.209 366.578 89.3399C366.45 89.4826 366.304 89.6072 366.143 89.7102C365.986 89.8243 365.816 89.9188 365.636 89.9916C365.465 90.0675 365.285 90.1222 365.1 90.1545C364.913 90.1766 364.723 90.1766 364.535 90.1545C364.345 90.1577 364.156 90.1378 363.97 90.0953C363.781 90.063 363.596 90.0084 363.42 89.9323C363.245 89.8591 363.08 89.7646 362.927 89.6509C362.767 89.5479 362.62 89.4234 362.492 89.2806C362.352 89.1462 362.226 88.9973 362.116 88.8363C362.015 88.6764 361.928 88.5079 361.855 88.3327C361.717 87.9687 361.643 87.5825 361.638 87.1922C361.641 86.4077 361.948 85.6567 362.492 85.1037C363.623 83.9551 365.448 83.9551 366.578 85.1037C366.718 85.2343 366.84 85.3838 366.94 85.548C367.049 85.7111 367.141 85.8847 367.216 86.0665C367.31 86.2393 367.383 86.4234 367.433 86.6145ZM367.433 99.9451C367.454 100.137 367.454 100.331 367.433 100.523C367.455 100.715 367.455 100.909 367.433 101.1C367.388 101.317 367.314 101.526 367.216 101.722C367.144 101.901 367.052 102.07 366.94 102.226C366.84 102.39 366.718 102.54 366.578 102.67C366.45 102.813 366.304 102.938 366.143 103.041C365.986 103.155 365.816 103.249 365.636 103.322C365.465 103.398 365.285 103.453 365.1 103.485C364.913 103.507 364.723 103.507 364.535 103.485C364.345 103.488 364.156 103.468 363.97 103.426C363.781 103.394 363.596 103.339 363.42 103.263C363.245 103.19 363.08 103.095 362.927 102.981C362.767 102.879 362.62 102.754 362.492 102.611C361.948 102.058 361.641 101.307 361.638 100.523C361.635 100.329 361.655 100.135 361.696 99.9451C361.726 99.7516 361.78 99.5626 361.855 99.3822C361.933 99.2068 362.025 99.0383 362.13 98.8786C362.231 98.7146 362.353 98.5652 362.492 98.4343C363.623 97.2857 365.448 97.2857 366.578 98.4343C366.718 98.5652 366.84 98.7146 366.94 98.8786C367.046 99.0383 367.138 99.2068 367.216 99.3822C367.31 99.5603 367.383 99.7492 367.433 99.9451ZM373.228 84.2298H405.102C406.703 84.2298 408 85.5561 408 87.1922C408 88.8282 406.703 90.1545 405.102 90.1545H373.228C371.628 90.1545 370.331 88.8282 370.331 87.1922C370.331 85.5561 371.628 84.2298 373.228 84.2298ZM373.228 97.5604H392.063C393.663 97.5604 394.961 98.8867 394.961 100.523C394.961 102.159 393.663 103.485 392.063 103.485H373.228C371.628 103.485 370.331 102.159 370.331 100.523C370.331 98.8867 371.628 97.5604 373.228 97.5604ZM352.17 84.8565L334.871 95.8358L317.164 84.8565L334.871 110L352.17 84.8565Z" fill="url(#paint10_linear_647_15425)"/>
<path d="M361.207 625.622C362.135 625.086 363.279 625.086 364.207 625.622L430.622 663.967C431.551 664.503 432.122 665.493 432.122 666.565V743.255C432.122 744.327 431.551 745.317 430.622 745.853L364.207 784.198C363.279 784.734 362.135 784.734 361.207 784.198L294.792 745.853C293.864 745.317 293.292 744.327 293.292 743.255V666.565C293.292 665.493 293.864 664.503 294.792 663.967L361.207 625.622Z" fill="url(#paint11_linear_647_15425)" stroke="#5A5A5A" stroke-width="2"/>
<path d="M373.006 710.49C373.006 704.911 369.659 702.999 362.965 702.202C358.183 701.564 357.227 700.289 357.227 698.057C357.227 695.826 358.821 694.392 362.009 694.392C364.878 694.392 366.472 695.348 367.268 697.739C367.428 698.217 367.906 698.536 368.384 698.536H370.934C371.572 698.536 372.05 698.057 372.05 697.42V697.261C371.412 693.754 368.543 691.044 364.878 690.726V686.9C364.878 686.263 364.399 685.785 363.603 685.625H361.212C360.574 685.625 360.096 686.103 359.936 686.9V690.566C355.155 691.204 352.127 694.392 352.127 698.376C352.127 703.636 355.314 705.708 362.009 706.505C366.472 707.302 367.906 708.258 367.906 710.809C367.906 713.359 365.674 715.112 362.646 715.112C358.502 715.112 357.067 713.359 356.589 710.968C356.43 710.331 355.952 710.012 355.474 710.012H352.764C352.127 710.012 351.648 710.49 351.648 711.127V711.287C352.286 715.271 354.836 718.14 360.096 718.938V722.763C360.096 723.4 360.574 723.878 361.371 724.038H363.762C364.399 724.038 364.878 723.56 365.037 722.763V718.938C369.819 718.14 373.006 714.793 373.006 710.49Z" fill="url(#paint12_linear_647_15425)"/>
<path d="M354.359 727.225C341.926 722.762 335.551 708.895 340.173 696.622C342.564 689.927 347.824 684.827 354.359 682.436C354.996 682.118 355.315 681.639 355.315 680.842V678.611C355.315 677.973 354.996 677.495 354.359 677.336C354.199 677.336 353.881 677.336 353.721 677.495C338.579 682.277 330.291 698.375 335.073 713.517C337.942 722.443 344.795 729.297 353.721 732.166C354.359 732.484 354.996 732.166 355.156 731.528C355.315 731.369 355.315 731.209 355.315 730.891V728.659C355.315 728.181 354.837 727.544 354.359 727.225ZM371.254 677.495C370.616 677.176 369.979 677.495 369.82 678.133C369.66 678.292 369.66 678.451 369.66 678.77V681.002C369.66 681.639 370.138 682.277 370.616 682.596C383.049 687.058 389.425 700.925 384.802 713.199C382.411 719.893 377.151 724.993 370.616 727.384C369.979 727.703 369.66 728.181 369.66 728.978V731.209C369.66 731.847 369.979 732.325 370.616 732.484C370.776 732.484 371.095 732.484 371.254 732.325C386.396 727.544 394.684 711.445 389.903 696.303C387.034 687.218 380.02 680.364 371.254 677.495Z" fill="url(#paint13_linear_647_15425)"/>
<defs>
<linearGradient id="paint0_linear_647_15425" x1="422.806" y1="243.926" x2="288.224" y2="506.234" gradientUnits="userSpaceOnUse">
<stop stop-color="#4A4A4A"/>
<stop offset="1" stop-color="#0F0E0E"/>
</linearGradient>
<linearGradient id="paint1_linear_647_15425" x1="642.309" y1="496" x2="589.281" y2="658.617" gradientUnits="userSpaceOnUse">
<stop stop-color="#353333"/>
<stop offset="1" stop-color="#010101"/>
</linearGradient>
<linearGradient id="paint2_linear_647_15425" x1="606" y1="614" x2="717.117" y2="567.895" gradientUnits="userSpaceOnUse">
<stop stop-color="white"/>
<stop offset="1" stop-color="#292727"/>
</linearGradient>
<linearGradient id="paint3_linear_647_15425" x1="81.3086" y1="496" x2="28.2813" y2="658.617" gradientUnits="userSpaceOnUse">
<stop stop-color="#353333"/>
<stop offset="1" stop-color="#010101"/>
</linearGradient>
<linearGradient id="paint4_linear_647_15425" x1="43" y1="616" x2="158.684" y2="568.001" gradientUnits="userSpaceOnUse">
<stop stop-color="white"/>
<stop offset="1" stop-color="#292727"/>
</linearGradient>
<linearGradient id="paint5_linear_647_15425" x1="642.691" y1="127.266" x2="589.664" y2="289.883" gradientUnits="userSpaceOnUse">
<stop stop-color="#353333"/>
<stop offset="1" stop-color="#010101"/>
</linearGradient>
<linearGradient id="paint6_linear_647_15425" x1="609.461" y1="235.562" x2="706.506" y2="187.244" gradientUnits="userSpaceOnUse">
<stop stop-color="white"/>
<stop offset="1" stop-color="#292727"/>
</linearGradient>
<linearGradient id="paint7_linear_647_15425" x1="81.3086" y1="127.266" x2="28.2813" y2="289.883" gradientUnits="userSpaceOnUse">
<stop stop-color="#353333"/>
<stop offset="1" stop-color="#010101"/>
</linearGradient>
<linearGradient id="paint8_linear_647_15425" x1="53.7334" y1="237.562" x2="139.83" y2="201.839" gradientUnits="userSpaceOnUse">
<stop stop-color="white"/>
<stop offset="1" stop-color="#292727"/>
</linearGradient>
<linearGradient id="paint9_linear_647_15425" x1="362.309" y1="1.58034e-06" x2="309.281" y2="162.617" gradientUnits="userSpaceOnUse">
<stop stop-color="#353333"/>
<stop offset="1" stop-color="#010101"/>
</linearGradient>
<linearGradient id="paint10_linear_647_15425" x1="317" y1="110" x2="431.036" y2="35.7638" gradientUnits="userSpaceOnUse">
<stop stop-color="white"/>
<stop offset="1" stop-color="#292727"/>
</linearGradient>
<linearGradient id="paint11_linear_647_15425" x1="362.707" y1="623.602" x2="309.68" y2="786.219" gradientUnits="userSpaceOnUse">
<stop stop-color="#353333"/>
<stop offset="1" stop-color="#010101"/>
</linearGradient>
<linearGradient id="paint12_linear_647_15425" x1="351.648" y1="724.038" x2="387.83" y2="715.691" gradientUnits="userSpaceOnUse">
<stop stop-color="white"/>
<stop offset="1" stop-color="#292727"/>
</linearGradient>
<linearGradient id="paint13_linear_647_15425" x1="333.72" y1="732.484" x2="420.175" y2="695.06" gradientUnits="userSpaceOnUse">
<stop stop-color="white"/>
<stop offset="1" stop-color="#292727"/>
</linearGradient>
</defs>
</svg>
