<svg width="271" height="293" viewBox="0 0 271 293" fill="none" xmlns="http://www.w3.org/2000/svg">
<path d="M31.2127 85.9163L135.583 25.7919L239.953 85.9163V206.163L135.583 266.288L31.2127 206.163V85.9163Z" stroke="#5A5A5A"/>
<path d="M31.0736 85.3644L240.491 206.227" stroke="#5A5A5A"/>
<path d="M135.583 25.2148L135.583 267.39" stroke="#5A5A5A"/>
<path d="M240.491 85.3644L31.0737 206.227" stroke="#5A5A5A"/>
<path d="M134.086 106.03C135.013 105.496 136.154 105.496 137.081 106.03L169.557 124.739C170.487 125.275 171.06 126.266 171.06 127.339V164.741C171.06 165.814 170.487 166.805 169.557 167.34L137.081 186.049C136.154 186.583 135.013 186.583 134.086 186.049L101.609 167.34C100.68 166.805 100.107 165.814 100.107 164.741V127.339C100.107 126.266 100.68 125.275 101.609 124.739L134.086 106.03Z" fill="url(#paint0_linear_836_2461)" stroke="#5A5A5A" stroke-width="2"/>
<path fill-rule="evenodd" clip-rule="evenodd" d="M158.793 144.33C158.791 144.319 158.788 144.307 158.785 144.294L158.782 144.284C158.78 144.279 158.779 144.274 158.777 144.268C158.776 144.263 158.774 144.258 158.772 144.253C158.772 144.253 158.771 144.25 158.77 144.247C158.77 144.245 158.769 144.242 158.768 144.24C158.743 144.166 158.701 144.084 158.638 144.013C158.638 144.013 158.636 144.009 158.634 144.009C158.6 143.971 158.56 143.937 158.514 143.912C158.51 143.907 158.504 143.904 158.499 143.901C158.497 143.9 158.495 143.898 158.493 143.897L151.674 139.947L142.342 134.541L142.185 134.451L142.133 134.419L126.106 125.172H126.102C126.087 125.163 125.974 125.113 125.873 125.098C125.825 125.092 125.779 125.09 125.779 125.09H125.718C125.634 125.096 125.497 125.184 125.466 125.204C125.463 125.206 125.461 125.208 125.461 125.208C125.063 125.438 124.665 125.668 124.267 125.899C123.869 126.13 123.47 126.361 123.072 126.591C123.068 126.595 123.063 126.598 123.058 126.602C123.051 126.607 123.044 126.612 123.037 126.618C123.026 126.627 123.018 126.635 123.007 126.646C122.999 126.652 122.991 126.658 122.984 126.669C122.978 126.675 122.972 126.683 122.965 126.692C122.926 126.736 122.898 126.784 122.877 126.829C122.869 126.843 122.865 126.93 122.861 126.945C122.849 126.985 122.953 127.101 122.947 127.129C122.945 127.141 122.83 127.076 122.828 127.09L122.564 164.625H122.567C122.562 164.88 122.629 165.041 122.799 165.174C122.808 165.18 122.818 165.187 122.827 165.193C122.843 165.204 122.859 165.216 122.877 165.226L125.32 166.641L125.326 166.646C125.338 166.652 125.351 166.656 125.363 166.66C125.366 166.663 125.37 166.664 125.373 166.665C125.375 166.665 125.377 166.666 125.378 166.667C125.385 166.669 125.393 166.671 125.401 166.673C125.409 166.675 125.417 166.677 125.424 166.679C125.429 166.681 125.435 166.683 125.44 166.684C125.445 166.686 125.45 166.688 125.456 166.69C125.461 166.69 125.466 166.691 125.471 166.692C125.477 166.693 125.483 166.694 125.489 166.694C125.5 166.696 125.51 166.696 125.521 166.696L125.529 166.696C125.529 166.696 125.548 166.7 125.558 166.7C125.575 166.7 125.594 166.699 125.612 166.696H125.623C125.623 166.696 125.625 166.694 125.627 166.694C125.63 166.694 125.63 166.694 125.632 166.692C125.638 166.692 125.644 166.692 125.651 166.688C125.661 166.686 125.671 166.683 125.682 166.679C125.697 166.679 125.711 166.673 125.726 166.667C125.741 166.662 125.755 166.656 125.77 166.65C125.797 166.637 125.824 166.622 125.852 166.608L132.724 162.63L158.516 147.703C158.753 147.551 158.801 147.347 158.801 147.085V144.389C158.799 144.368 158.797 144.347 158.793 144.33ZM128.387 133.198V139.747L133.74 136.584L128.387 133.198ZM128.738 146.04L139.128 151.847V139.747L128.738 146.04ZM128.381 158.911V152.363L134.003 155.759L128.381 158.911ZM144.94 149.34L150.325 146.04L144.94 142.791V149.34Z" fill="#3BD171"/>
<path fill-rule="evenodd" clip-rule="evenodd" d="M158.932 143.957C158.998 143.984 159.102 144.101 159.102 144.101C159.213 144.231 159.29 144.39 159.323 144.558V147.341C159.323 147.628 159.284 147.955 158.919 148.19L126.252 167.092C126.213 167.118 126.187 167.131 126.148 167.144C126.141 167.15 126.122 167.157 126.102 167.163C126.083 167.17 126.063 167.176 126.057 167.183H125.991H125.978C125.939 167.209 125.874 167.209 125.835 167.209C125.8 167.209 125.771 167.203 125.752 167.199C125.742 167.197 125.735 167.196 125.731 167.196C125.709 167.196 125.688 167.192 125.668 167.189C125.653 167.186 125.638 167.183 125.627 167.183H125.574L125.548 167.17C125.535 167.17 125.535 167.157 125.522 167.157C125.509 167.157 125.47 167.144 125.47 167.144C125.457 167.131 125.418 167.105 125.418 167.105L123.008 165.707L122.942 165.668C122.682 165.472 122.577 165.237 122.577 164.923C122.577 164.91 122.564 164.884 122.564 164.884V127.094C122.564 127.081 122.577 127.015 122.577 127.015C122.591 126.95 122.604 126.911 122.617 126.858C122.617 126.845 122.656 126.78 122.656 126.767C122.669 126.741 122.708 126.662 122.773 126.584L122.851 126.506C122.851 126.506 122.855 126.502 122.862 126.497C122.868 126.492 122.878 126.486 122.89 126.48L122.955 126.441L125.327 125.069C125.34 125.056 125.366 125.056 125.379 125.043C125.402 125.025 125.444 124.997 125.495 124.971C125.557 124.94 125.633 124.912 125.705 124.912H125.783H125.913C126.018 124.925 126.135 124.964 126.2 124.991C126.213 125.003 126.239 125.017 126.239 125.017L158.906 143.931L158.932 143.957ZM145.472 151.795L158.255 144.402L142.397 135.219L140.247 136.473L153.707 144.271C153.767 144.305 153.804 144.35 153.823 144.403C153.833 144.431 153.837 144.461 153.837 144.493C153.837 144.563 153.82 144.621 153.781 144.668C153.762 144.691 153.737 144.711 153.707 144.728L145.472 149.496V151.795ZM145.472 143.513V148.647L149.915 146.074L145.472 143.513ZM125.653 125.722C125.64 125.722 125.627 125.735 125.627 125.735L123.672 126.872L137.132 134.67C137.171 134.689 137.203 134.721 137.226 134.76C137.249 134.799 137.263 134.846 137.263 134.892C137.263 134.983 137.211 135.075 137.132 135.114L128.91 139.895V142.194L141.667 134.8L125.874 125.657L125.796 125.644C125.77 125.657 125.718 125.683 125.653 125.722ZM128.91 133.912V139.033L133.328 136.473L128.91 133.912ZM136.064 134.892L123.307 127.498V145.825L125.457 147.079V131.509C125.457 131.417 125.509 131.339 125.588 131.287C125.666 131.234 125.77 131.234 125.848 131.287L134.083 136.055L136.064 134.892ZM125.588 150.45C125.666 150.41 125.77 150.41 125.848 150.45L134.07 155.217L136.064 154.068L123.307 146.662V164.884C123.294 165.028 123.307 165.041 123.385 165.08L125.431 166.269L125.457 150.685C125.457 150.593 125.509 150.502 125.588 150.45ZM128.91 158.196L133.341 155.636L128.91 153.075V158.196ZM126.161 166.321L142.019 157.125V154.63L128.545 162.428C128.467 162.48 128.376 162.48 128.285 162.428C128.207 162.376 128.154 162.297 128.154 162.206L128.181 152.657L126.187 151.495L126.161 166.321ZM142.019 141.11C142.019 141.018 142.071 140.927 142.149 140.888C142.227 140.835 142.332 140.835 142.41 140.888L145.342 142.573C145.368 142.586 145.407 142.612 145.407 142.612L150.645 145.656L152.639 144.493L139.517 136.891L128.571 143.239C128.493 143.278 128.389 143.278 128.311 143.239C128.233 143.187 128.181 143.108 128.181 143.004V133.481L126.187 132.332V147.498L137.132 153.833C137.211 153.872 137.263 153.963 137.263 154.055C137.263 154.098 137.251 154.141 137.231 154.18C137.208 154.224 137.174 154.262 137.132 154.29L134.214 155.988L128.897 159.058V161.383L142.019 153.781V141.11ZM158.541 147.563C158.581 147.537 158.594 147.511 158.594 147.341V145.055L145.133 152.827C145.055 152.879 144.964 152.879 144.873 152.827C144.794 152.788 144.742 152.696 144.742 152.605V143.069L142.749 141.92V156.707L158.541 147.563ZM139.478 139.412C139.556 139.359 139.66 139.359 139.739 139.412C139.817 139.464 139.869 139.542 139.869 139.634V152.474C139.869 152.566 139.817 152.657 139.739 152.696C139.699 152.722 139.647 152.736 139.608 152.736C139.556 152.736 139.478 152.696 139.478 152.696L128.402 146.283C128.324 146.243 128.272 146.152 128.272 146.074V146.047C128.272 145.956 128.324 145.878 128.402 145.825L139.478 139.412ZM139.139 140.457L129.471 146.061L139.139 151.651V140.457Z" fill="#161815"/>
<path d="M238.452 186.28C239.379 185.746 240.52 185.746 241.447 186.28L263.664 199.079C264.594 199.615 265.167 200.606 265.167 201.679V227.261C265.167 228.334 264.594 229.325 263.664 229.861L241.447 242.659C240.52 243.193 239.379 243.193 238.452 242.659L216.234 229.861C215.305 229.325 214.732 228.334 214.732 227.261V201.679C214.732 200.606 215.305 199.615 216.234 199.079L238.452 186.28Z" fill="url(#paint1_linear_836_2461)" stroke="#5A5A5A" stroke-width="2"/>
<path d="M29.5767 186.28C30.5036 185.746 31.6447 185.746 32.5717 186.28L54.7892 199.079C55.7188 199.615 56.2917 200.606 56.2917 201.679V227.261C56.2917 228.334 55.7188 229.325 54.7892 229.861L32.5717 242.659C31.6447 243.193 30.5036 243.193 29.5767 242.659L7.35914 229.861C6.42953 229.325 5.85665 228.334 5.85665 227.261V201.679C5.85665 200.606 6.42953 199.615 7.35914 199.079L29.5767 186.28Z" fill="url(#paint2_linear_836_2461)" stroke="#5A5A5A" stroke-width="2"/>
<path d="M238.594 49.296C239.521 48.762 240.662 48.762 241.589 49.296L263.807 62.0949C264.736 62.6304 265.309 63.6216 265.309 64.6944V90.2767C265.309 91.3495 264.736 92.3407 263.807 92.8762L241.589 105.675C240.662 106.209 239.521 106.209 238.594 105.675L216.377 92.8762C215.447 92.3407 214.874 91.3495 214.874 90.2767V64.6944C214.874 63.6216 215.447 62.6304 216.377 62.0949L238.594 49.296Z" fill="url(#paint3_linear_836_2461)" stroke="#5A5A5A" stroke-width="2"/>
<path d="M240.656 78.3419H248.001C248.158 78.3419 248.232 78.3419 248.243 78.1412C248.303 77.4108 248.303 76.676 248.243 75.9447C248.243 75.8027 248.171 75.7441 248.013 75.7441H233.396C233.215 75.7441 233.166 75.8027 233.166 75.9685V78.0706C233.166 78.3419 233.166 78.3419 233.456 78.3419H240.656ZM247.423 73.2873C247.444 73.2338 247.444 73.1751 247.423 73.1224C247.3 72.8613 247.155 72.6122 246.986 72.3783C246.732 71.9786 246.433 71.6104 246.092 71.2796C245.931 71.0798 245.745 70.9004 245.536 70.7482C244.491 69.8782 243.248 69.2626 241.912 68.953C241.237 68.8051 240.549 68.7345 239.858 68.7405H233.371C233.19 68.7405 233.166 68.811 233.166 68.965V73.1572C233.166 73.3341 233.166 73.3817 233.395 73.3817H247.336C247.336 73.3817 247.457 73.3579 247.481 73.2873H247.422H247.423ZM247.423 80.7986C247.217 80.7765 247.01 80.7765 246.805 80.7986H233.408C233.227 80.7986 233.166 80.7986 233.166 81.035V85.1338C233.166 85.3225 233.166 85.3702 233.408 85.3702H239.593C239.889 85.3923 240.185 85.3719 240.475 85.3115C241.372 85.2486 242.255 85.0581 243.097 84.7443C243.403 84.6406 243.699 84.5053 243.978 84.3429H244.063C245.513 83.6057 246.69 82.4475 247.433 81.0257C247.433 81.0257 247.517 80.8471 247.423 80.8003V80.7986ZM230.739 87.4952V87.4246V84.6729V83.74V80.9644C230.739 80.8105 230.739 80.7876 230.546 80.7876H227.924C227.779 80.7876 227.719 80.7876 227.719 80.5988V78.3547H230.521C230.678 78.3547 230.739 78.3547 230.739 78.154V75.9337C230.739 75.7917 230.739 75.7568 230.546 75.7568H227.924C227.779 75.7568 227.719 75.7568 227.719 75.568V73.4897C227.719 73.3596 227.719 73.3248 227.912 73.3248H230.509C230.69 73.3248 230.739 73.3248 230.739 73.1003V66.7344C230.739 66.5457 230.739 66.498 230.981 66.498H240.041C240.698 66.5236 241.351 66.5941 241.998 66.7106C243.329 66.9513 244.609 67.4164 245.779 68.0806C246.555 68.527 247.269 69.0661 247.905 69.6869C248.383 70.1725 248.814 70.698 249.197 71.2575C249.577 71.8247 249.893 72.431 250.141 73.0646C250.171 73.2295 250.333 73.3409 250.502 73.3129H252.664C252.942 73.3129 252.942 73.3129 252.954 73.5731V75.5102C252.954 75.699 252.882 75.7466 252.688 75.7466H251.02C250.851 75.7466 250.803 75.7466 250.815 75.9592C250.881 76.6786 250.881 77.4006 250.815 78.12C250.815 78.3207 250.815 78.3445 251.045 78.3445H252.953C253.037 78.4508 252.953 78.5571 252.953 78.6642C252.965 78.8011 252.965 78.9397 252.953 79.0766V80.5061C252.953 80.7068 252.893 80.7663 252.711 80.7663H250.428C250.269 80.7365 250.114 80.836 250.077 80.9908C249.534 82.3726 248.664 83.6116 247.54 84.6048C247.13 84.9662 246.698 85.3064 246.248 85.6202C245.764 85.8923 245.293 86.1755 244.798 86.4C243.885 86.8013 242.928 87.0973 241.946 87.2852C241.014 87.4485 240.068 87.5224 239.119 87.5097H230.735V87.4978L230.739 87.4952Z" fill="url(#paint4_linear_836_2461)"/>
<path d="M29.5767 49.296C30.5036 48.762 31.6447 48.762 32.5717 49.296L54.7892 62.0949C55.7188 62.6304 56.2917 63.6216 56.2917 64.6944V90.2767C56.2917 91.3495 55.7188 92.3407 54.7892 92.8762L32.5717 105.675C31.6447 106.209 30.5036 106.209 29.5767 105.675L7.35914 92.8762C6.42953 92.3407 5.85665 91.3495 5.85665 90.2767V64.6944C5.85665 63.6216 6.42953 62.6304 7.35914 62.0949L29.5767 49.296Z" fill="url(#paint5_linear_836_2461)" stroke="#5A5A5A" stroke-width="2"/>
<path fill-rule="evenodd" clip-rule="evenodd" d="M33.48 78.5378C33.3603 78.5475 32.742 78.5875 31.3629 78.5875C30.266 78.5875 29.4872 78.5518 29.214 78.5378C24.9749 78.3358 21.8108 77.5364 21.8108 76.5794C21.8108 75.6223 24.9749 74.8241 29.214 74.6188V77.7417C29.4912 77.7633 30.285 77.8141 31.3819 77.8141C32.6982 77.8141 33.3573 77.7546 33.476 77.7428V74.621C37.7061 74.8252 40.8632 75.6245 40.8632 76.5794C40.8632 77.5343 37.7071 78.3336 33.476 78.5367L33.48 78.5378ZM33.48 74.298V71.5036H39.3834V67.2422H23.3106V71.5036H29.213V74.2969C24.4155 74.5357 20.8076 75.5651 20.8076 76.7987C20.8076 78.0323 24.4155 79.0606 29.213 79.3004V88.2552H33.479V79.2972C38.2655 79.0584 41.8674 78.0301 41.8674 76.7976C41.8674 75.5651 38.2685 74.5367 33.479 74.2969L33.48 74.298Z" fill="url(#paint6_linear_836_2461)"/>
<path d="M134.201 2.01673C135.128 1.48275 136.269 1.48275 137.196 2.01673L159.413 14.8156C160.343 15.3511 160.916 16.3423 160.916 17.4151V42.9974C160.916 44.0702 160.343 45.0614 159.413 45.5969L137.196 58.3958C136.269 58.9297 135.128 58.9297 134.201 58.3958L111.983 45.5969C111.054 45.0614 110.481 44.0702 110.481 42.9974V17.4151C110.481 16.3423 111.054 15.3511 111.983 14.8156L134.201 2.01673Z" fill="url(#paint7_linear_836_2461)" stroke="#5A5A5A" stroke-width="2"/>
<path d="M134.349 233.685C135.276 233.151 136.417 233.151 137.344 233.685L159.562 246.484C160.491 247.019 161.064 248.01 161.064 249.083V274.665C161.064 275.738 160.491 276.729 159.562 277.265L137.344 290.064C136.417 290.598 135.276 290.598 134.349 290.064L112.132 277.265C111.202 276.729 110.629 275.738 110.629 274.665V249.083C110.629 248.01 111.202 247.019 112.132 246.484L134.349 233.685Z" fill="url(#paint8_linear_836_2461)" stroke="#5A5A5A" stroke-width="2"/>
<path d="M139.682 263.948C139.682 261.876 138.435 261.165 135.943 260.869C134.163 260.632 133.807 260.159 133.807 259.33C133.807 258.501 134.4 257.968 135.587 257.968C136.655 257.968 137.249 258.323 137.545 259.211C137.605 259.389 137.783 259.507 137.961 259.507H138.91C139.148 259.507 139.326 259.33 139.326 259.093V259.034C139.088 257.731 138.02 256.724 136.655 256.606V255.185C136.655 254.948 136.477 254.77 136.18 254.711H135.29C135.053 254.711 134.875 254.889 134.815 255.185V256.547C133.035 256.784 131.908 257.968 131.908 259.448C131.908 261.402 133.094 262.172 135.587 262.468C137.249 262.764 137.783 263.119 137.783 264.067C137.783 265.014 136.952 265.666 135.824 265.666C134.281 265.666 133.747 265.014 133.569 264.126C133.51 263.889 133.332 263.771 133.154 263.771H132.145C131.908 263.771 131.729 263.948 131.729 264.185V264.244C131.967 265.725 132.916 266.79 134.875 267.087V268.508C134.875 268.745 135.053 268.922 135.349 268.981H136.24C136.477 268.981 136.655 268.804 136.714 268.508V267.087C138.495 266.79 139.682 265.547 139.682 263.948Z" fill="url(#paint9_linear_836_2461)"/>
<path d="M132.738 270.165C128.109 268.507 125.735 263.355 127.457 258.796C128.347 256.309 130.305 254.414 132.738 253.526C132.976 253.407 133.094 253.23 133.094 252.933V252.105C133.094 251.868 132.976 251.69 132.738 251.631C132.679 251.631 132.56 251.631 132.501 251.69C126.863 253.466 123.777 259.447 125.557 265.072C126.626 268.388 129.177 270.934 132.501 272C132.738 272.119 132.976 272 133.035 271.763C133.094 271.704 133.094 271.645 133.094 271.527V270.697C133.094 270.52 132.916 270.283 132.738 270.165ZM139.029 251.69C138.791 251.572 138.554 251.69 138.495 251.927C138.435 251.986 138.435 252.045 138.435 252.164V252.993C138.435 253.23 138.613 253.466 138.791 253.585C143.42 255.243 145.794 260.394 144.073 264.954C143.183 267.441 141.224 269.336 138.791 270.224C138.554 270.342 138.435 270.52 138.435 270.816V271.645C138.435 271.882 138.554 272.059 138.791 272.119C138.851 272.119 138.969 272.119 139.029 272.059C144.667 270.283 147.753 264.302 145.972 258.677C144.904 255.302 142.293 252.756 139.029 251.69Z" fill="url(#paint10_linear_836_2461)"/>
<defs>
<linearGradient id="paint0_linear_836_2461" x1="158.223" y1="90.6179" x2="108.29" y2="188.156" gradientUnits="userSpaceOnUse">
<stop stop-color="#4A4A4A"/>
<stop offset="1" stop-color="#0F0E0E"/>
</linearGradient>
<linearGradient id="paint1_linear_836_2461" x1="239.949" y1="184.264" x2="220.285" y2="244.702" gradientUnits="userSpaceOnUse">
<stop stop-color="#353333"/>
<stop offset="1" stop-color="#010101"/>
</linearGradient>
<linearGradient id="paint2_linear_836_2461" x1="31.0742" y1="184.264" x2="11.4098" y2="244.702" gradientUnits="userSpaceOnUse">
<stop stop-color="#353333"/>
<stop offset="1" stop-color="#010101"/>
</linearGradient>
<linearGradient id="paint3_linear_836_2461" x1="240.092" y1="47.2793" x2="220.427" y2="107.718" gradientUnits="userSpaceOnUse">
<stop stop-color="#353333"/>
<stop offset="1" stop-color="#010101"/>
</linearGradient>
<linearGradient id="paint4_linear_836_2461" x1="227.719" y1="87.5111" x2="263.819" y2="69.4966" gradientUnits="userSpaceOnUse">
<stop stop-color="white"/>
<stop offset="1" stop-color="#292727"/>
</linearGradient>
<linearGradient id="paint5_linear_836_2461" x1="31.0742" y1="47.2793" x2="11.4098" y2="107.718" gradientUnits="userSpaceOnUse">
<stop stop-color="#353333"/>
<stop offset="1" stop-color="#010101"/>
</linearGradient>
<linearGradient id="paint6_linear_836_2461" x1="20.8076" y1="88.2552" x2="52.8429" y2="74.9337" gradientUnits="userSpaceOnUse">
<stop stop-color="white"/>
<stop offset="1" stop-color="#292727"/>
</linearGradient>
<linearGradient id="paint7_linear_836_2461" x1="135.698" y1="5.87098e-07" x2="116.034" y2="60.4382" gradientUnits="userSpaceOnUse">
<stop stop-color="#353333"/>
<stop offset="1" stop-color="#010101"/>
</linearGradient>
<linearGradient id="paint8_linear_836_2461" x1="135.847" y1="231.668" x2="116.182" y2="292.106" gradientUnits="userSpaceOnUse">
<stop stop-color="#353333"/>
<stop offset="1" stop-color="#010101"/>
</linearGradient>
<linearGradient id="paint9_linear_836_2461" x1="131.729" y1="268.981" x2="145.198" y2="265.867" gradientUnits="userSpaceOnUse">
<stop stop-color="white"/>
<stop offset="1" stop-color="#292727"/>
</linearGradient>
<linearGradient id="paint10_linear_836_2461" x1="125.054" y1="272.119" x2="157.221" y2="258.163" gradientUnits="userSpaceOnUse">
<stop stop-color="white"/>
<stop offset="1" stop-color="#292727"/>
</linearGradient>
</defs>
</svg>
