<svg width="562" height="998" viewBox="0 0 562 998" fill="none" xmlns="http://www.w3.org/2000/svg">
<path fill-rule="evenodd" clip-rule="evenodd" d="M366.398 199.212C359.792 216.969 347.014 242.826 319.737 270.452C278.16 187.447 283.818 97.2939 333.035 44.2666C358.112 17.2537 389.327 5.43402 411.966 0C408.259 7.50227 402.466 19.9589 396.872 35.8836C383.713 73.2845 381.498 101.67 379.444 127.994C377.594 151.711 375.874 173.755 366.398 199.212ZM295.791 268.693C296.174 258.934 295.334 244.684 288.404 230.088C276.051 204.101 250.86 190.724 219.334 173.984L219.324 173.978C213.522 170.897 208.096 168.229 202.975 165.712C184.547 156.651 170.088 149.542 156.365 132.15C151.962 126.574 148.9 121.541 146.977 118.105C144.175 133.282 142.244 158.298 153.304 184.516C167.346 217.781 202.518 253.484 236.979 254.121C238.261 254.146 239.745 254.125 241.408 254.103H241.41H241.411C251.418 253.966 267.9 253.742 285.712 262.669C290.164 264.902 293.601 267.16 295.791 268.693ZM498.29 614.444C497.545 661.132 478.017 694.533 469.144 707.911C478.17 735.601 479.669 759.434 478.5 778.16C469.812 917.185 300.331 992.824 288.307 998C271.234 972.819 249.019 933.403 236.115 881.053C216.938 803.255 228.393 737.841 236.878 704.041C229.775 690.119 223.291 673.135 219.868 653.312C205.889 572.324 253.918 506.765 267.175 489.795C259.626 478.572 235.835 440.171 242.111 389.464C242.662 385.076 254.045 303.564 319.851 280.342C377.348 260.045 439.795 297.148 468.982 343.593C499.473 392.121 497.152 456.426 463.17 506.92C472.269 519.072 499.193 558.225 498.29 614.444ZM212.801 522.769C215.718 539.072 220.423 578.116 202.461 621.992C188.139 656.985 166.011 678.877 153.601 689.52C154.614 704.884 154.033 725.402 147.675 748.333C132.228 804.089 93.1618 836.229 77.463 847.792C64.0016 835.34 36.1914 806.23 22.1024 759.461C10.462 720.834 13.4759 687.764 16.3878 670.077C13.1933 663.708 -18.3686 598.312 15.65 539.834C29.2059 516.54 48.0992 503.054 60.3672 495.954C57.6987 485.984 34.5041 393.658 91.1836 330.683L91.1962 330.669C99.9118 320.991 124.453 293.742 166.121 287.509C214.662 280.258 251.19 306.808 258.884 312.666C250.648 323.636 227.991 356.791 227.706 404.573C227.471 443.948 242.566 472.787 249.926 485.022C247.551 489.88 244.164 495.632 239.329 501.489C230.09 512.68 219.777 519.176 212.801 522.769ZM418.873 277.858C461.737 286.595 506.086 295.631 535.137 271.488C570.953 241.714 561.078 180.171 559.791 172.77C555.221 173.392 548.399 174.697 540.66 177.764C527.325 183.038 519.943 190.102 512.496 197.228C506.773 202.706 501.01 208.22 492.477 212.987C484.042 217.698 472.822 220.057 450.096 222.998C435.501 224.888 425.032 225.819 417.012 226.532C401.902 227.875 395.489 228.446 386.557 233.198C373.377 240.212 365.055 250.837 359.949 259.149C374.054 265.33 394.075 272.809 418.873 277.858Z" fill="url(#paint0_linear_652_16128)"/>
<defs>
<linearGradient id="paint0_linear_652_16128" x1="471.264" y1="183.043" x2="46.4656" y2="881.271" gradientUnits="userSpaceOnUse">
<stop stop-color="#27252D"/>
<stop offset="1" stop-color="#18171B"/>
</linearGradient>
</defs>
</svg>
