<svg width="534" height="800" viewBox="0 0 534 800" fill="none" xmlns="http://www.w3.org/2000/svg">
<g clip-path="url(#clip0_261_18853)">
<rect width="534" height="800" fill="black"/>
<path fill-rule="evenodd" clip-rule="evenodd" d="M455.045 55.7948C448.157 74.3169 434.833 101.288 406.391 130.105C363.039 43.5234 368.938 -50.5141 420.257 -105.826C446.405 -134.003 478.953 -146.332 502.559 -152C498.694 -144.174 492.653 -131.181 486.82 -114.57C473.099 -75.5579 470.79 -45.9496 468.648 -18.4915C466.719 6.24767 464.926 29.2413 455.045 55.7948ZM381.422 128.27C381.822 118.09 380.947 103.226 373.72 88.002C360.84 60.8946 334.573 46.9416 301.701 29.4801L301.69 29.4745C295.64 26.2607 289.982 23.4777 284.643 20.8518C265.428 11.4006 250.351 3.98492 236.043 -14.1563C231.451 -19.9721 228.259 -25.222 226.254 -28.8064C223.332 -12.9753 221.319 13.1182 232.851 40.4665C247.493 75.1646 284.167 112.406 320.099 113.07C321.436 113.096 322.983 113.075 324.717 113.051H324.719H324.72C335.155 112.909 352.34 112.675 370.914 121.987C375.556 124.316 379.139 126.671 381.422 128.27ZM592.57 488.918C591.793 537.618 571.43 572.458 562.179 586.412C571.59 615.295 573.153 640.155 571.934 659.688C562.876 804.703 386.157 883.601 373.619 889C355.817 862.734 332.654 821.619 319.198 767.015C299.202 685.864 311.147 617.632 319.993 582.376C312.588 567.854 305.827 550.138 302.258 529.46C287.682 444.984 337.762 376.6 351.585 358.898C343.713 347.192 318.906 307.136 325.45 254.244C326.024 249.667 337.894 164.644 406.51 140.421C466.463 119.25 531.576 157.951 562.009 206.397C593.803 257.016 591.383 324.091 555.95 376.761C565.437 389.437 593.511 430.277 592.57 488.918ZM294.889 393.293C297.93 410.299 302.836 451.025 284.107 496.791C269.173 533.292 246.1 556.128 233.16 567.228C234.216 583.255 233.611 604.657 226.981 628.576C210.874 686.734 170.14 720.259 153.771 732.32C139.735 719.331 110.737 688.968 96.0463 640.183C83.9087 599.892 87.0514 565.397 90.0877 546.948C86.7567 540.305 53.8469 472.091 89.3184 411.094C103.453 386.796 123.153 372.728 135.945 365.323C133.163 354.923 108.978 258.619 168.078 192.931L168.091 192.916C177.178 182.822 202.768 154.398 246.215 147.897C296.829 140.333 334.917 168.027 342.94 174.138C334.352 185.581 310.727 220.164 310.43 270.005C310.186 311.076 325.925 341.158 333.599 353.92C331.123 358.987 327.591 364.987 322.549 371.096C312.916 382.769 302.163 389.545 294.889 393.293ZM509.761 137.829C554.455 146.943 600.698 156.368 630.99 131.185C668.335 100.129 658.038 35.9334 656.697 28.2144C651.932 28.8626 644.818 30.2245 636.748 33.4236C622.844 38.9245 615.147 46.2925 607.382 53.7262C601.414 59.4394 595.406 65.1913 586.508 70.164C577.713 75.0775 566.014 77.5385 542.318 80.6061C527.099 82.5771 516.183 83.5482 507.821 84.2921C492.065 85.6936 485.378 86.2885 476.065 91.2455C462.322 98.5623 453.645 109.645 448.32 118.315C463.028 124.762 483.904 132.563 509.761 137.829Z" fill="#020D06"/>
<mask id="mask0_261_18853" style="mask-type:alpha" maskUnits="userSpaceOnUse" x="73" y="-152" width="586" height="1041">
<path fill-rule="evenodd" clip-rule="evenodd" d="M455.045 55.7948C448.157 74.3169 434.833 101.288 406.391 130.105C363.039 43.5234 368.938 -50.5141 420.257 -105.826C446.405 -134.003 478.953 -146.332 502.559 -152C498.694 -144.174 492.653 -131.181 486.82 -114.57C473.099 -75.5579 470.79 -45.9496 468.648 -18.4915C466.719 6.24767 464.926 29.2413 455.045 55.7948ZM381.422 128.27C381.822 118.09 380.947 103.226 373.72 88.002C360.84 60.8946 334.573 46.9416 301.701 29.4801L301.69 29.4745C295.64 26.2607 289.982 23.4777 284.643 20.8518C265.428 11.4006 250.351 3.98492 236.043 -14.1563C231.451 -19.9721 228.259 -25.222 226.254 -28.8064C223.332 -12.9753 221.319 13.1182 232.851 40.4665C247.493 75.1646 284.167 112.406 320.099 113.07C321.436 113.096 322.983 113.075 324.717 113.051H324.719H324.72C335.155 112.909 352.34 112.675 370.914 121.987C375.556 124.316 379.139 126.671 381.422 128.27ZM592.57 488.918C591.793 537.618 571.43 572.458 562.179 586.412C571.59 615.295 573.153 640.155 571.934 659.688C562.876 804.703 386.157 883.601 373.619 889C355.817 862.734 332.654 821.619 319.198 767.015C299.202 685.864 311.147 617.632 319.993 582.376C312.588 567.854 305.827 550.138 302.258 529.46C287.682 444.984 337.762 376.6 351.585 358.898C343.713 347.192 318.906 307.136 325.45 254.244C326.024 249.667 337.894 164.644 406.51 140.421C466.463 119.25 531.576 157.951 562.009 206.397C593.803 257.016 591.383 324.091 555.95 376.761C565.437 389.437 593.511 430.277 592.57 488.918ZM294.889 393.293C297.93 410.299 302.836 451.025 284.107 496.791C269.173 533.292 246.1 556.128 233.16 567.228C234.216 583.255 233.611 604.657 226.981 628.576C210.874 686.734 170.14 720.259 153.771 732.32C139.735 719.331 110.737 688.968 96.0463 640.183C83.9087 599.892 87.0514 565.397 90.0877 546.948C86.7567 540.305 53.8469 472.091 89.3184 411.094C103.453 386.796 123.153 372.728 135.945 365.323C133.163 354.923 108.978 258.619 168.078 192.931L168.091 192.916C177.178 182.822 202.768 154.398 246.215 147.897C296.829 140.333 334.917 168.027 342.94 174.138C334.352 185.581 310.727 220.164 310.43 270.005C310.186 311.076 325.925 341.158 333.599 353.92C331.123 358.987 327.591 364.987 322.549 371.096C312.916 382.769 302.163 389.545 294.889 393.293ZM509.761 137.829C554.455 146.943 600.698 156.368 630.99 131.185C668.335 100.129 658.038 35.9334 656.697 28.2144C651.932 28.8626 644.818 30.2245 636.748 33.4236C622.844 38.9245 615.147 46.2925 607.382 53.7262C601.414 59.4394 595.406 65.1913 586.508 70.164C577.713 75.0775 566.014 77.5385 542.318 80.6061C527.099 82.5771 516.183 83.5482 507.821 84.2921C492.065 85.6936 485.378 86.2885 476.065 91.2455C462.322 98.5623 453.645 109.645 448.32 118.315C463.028 124.762 483.904 132.563 509.761 137.829Z" fill="#081D10"/>
</mask>
<g mask="url(#mask0_261_18853)">
<g opacity="0.4" filter="url(#filter0_f_261_18853)">
<circle cx="401.5" cy="301.5" r="210.5" fill="#3BD171"/>
</g>
</g>
<path d="M292.66 392.191L293.973 391.515C301.09 387.848 311.597 381.225 321.006 369.823L322.549 371.096L321.007 369.823C325.615 364.24 328.932 358.749 331.322 354.008C323.376 340.593 308.188 310.602 308.43 269.993C308.718 221.674 330.653 187.53 340.149 174.545C329.619 166.786 293.534 142.848 246.511 149.875C203.809 156.265 178.628 184.2 169.578 194.253L292.66 392.191ZM292.66 392.191L292.92 393.645C295.93 410.475 300.781 450.767 282.256 496.034L284.107 496.791L282.256 496.034C267.485 532.136 244.661 554.727 231.858 565.71L231.099 566.362L231.165 567.36C232.21 583.221 231.61 604.389 225.054 628.042L226.981 628.576L225.054 628.042C209.545 684.042 170.929 716.98 153.916 729.721C139.614 716.273 112.097 686.549 97.9613 639.606L96.0463 640.183L97.9613 639.606C85.9424 599.709 89.0537 565.547 92.0611 547.273L92.1666 546.632L91.8755 546.052C90.2555 542.821 81.2895 524.309 77.1254 499.078C72.9616 473.848 73.6229 442.062 91.0473 412.099C104.944 388.211 124.325 374.361 136.947 367.054L138.273 366.286L137.877 364.806C136.51 359.696 129.819 333.232 130.805 299.919C131.79 266.6 140.446 226.633 169.564 194.268L169.565 194.268L169.577 194.254L292.66 392.191ZM453.171 55.0974L453.17 55.0977C446.523 72.9731 433.794 98.8674 406.932 126.688C365.197 41.3094 371.635 -50.4803 421.723 -104.466C446.014 -130.64 475.938 -142.976 498.884 -149.013C495.066 -141.025 489.924 -129.446 484.933 -115.234C471.126 -75.9746 468.8 -46.153 466.657 -18.6765L466.655 -18.647C464.724 6.10251 462.942 28.8371 453.171 55.0974ZM227.336 -23.0531C229.195 -20.08 231.557 -16.6107 234.473 -12.917C249.062 5.57977 264.49 13.1682 283.649 22.5916L283.761 22.6465C289.102 25.2736 294.733 28.0437 300.752 31.2408L300.757 31.2434L300.762 31.2463C300.763 31.2467 300.764 31.2471 300.765 31.2475C333.793 48.792 359.371 62.463 371.913 88.8603C378.143 101.984 379.537 114.858 379.502 124.576C377.42 123.245 374.835 121.717 371.811 120.199L371.81 120.199C352.801 110.668 335.213 110.908 324.741 111.051L324.72 111.051H324.719H324.717H324.704L324.693 111.051H324.69C322.946 111.075 321.434 111.095 320.138 111.07L320.136 111.07C302.826 110.75 285.115 101.594 269.818 88.0343C254.544 74.4955 241.895 56.754 234.694 39.6889C224.592 15.7326 225.067 -7.27237 227.336 -23.0531ZM560.512 585.307L559.978 586.112L560.277 587.031C569.601 615.646 571.144 640.251 569.938 659.564C565.46 731.257 519.517 786.772 472.811 825.155C428.895 861.246 384.582 881.958 374.344 886.499C356.765 860.318 334.29 819.903 321.14 766.536C301.251 685.819 313.131 617.943 321.933 582.862L322.116 582.135L321.775 581.467C314.444 567.093 307.758 549.568 304.229 529.12C289.809 445.553 339.376 377.783 353.161 360.129L354.054 358.986L353.244 357.782C345.454 346.196 320.982 306.652 327.435 254.493C327.709 252.308 330.784 230.137 342.276 205.546C353.771 180.949 373.569 154.171 407.175 142.307L406.51 140.421L407.176 142.307C436.546 131.935 467.259 136.197 494.472 149.109C521.699 162.028 545.298 183.554 560.316 207.461C591.656 257.357 589.318 323.577 554.291 375.644L553.498 376.822L554.349 377.959C563.735 390.501 591.501 430.901 590.57 488.886C589.802 537.042 569.664 571.503 560.512 585.307ZM510.161 135.87L510.16 135.87C485.701 130.888 465.727 123.623 451.257 117.409C456.545 109.259 464.694 99.565 477.005 93.011C485.907 88.2727 492.192 87.6903 507.998 86.2842L508 86.284C516.368 85.5396 527.316 84.5657 542.574 82.5896C566.215 79.5291 578.3 77.0404 587.483 71.91L586.508 70.164L587.484 71.9099C596.605 66.8123 602.769 60.9118 608.719 55.2151L608.765 55.1709C616.508 47.7583 623.967 40.6309 637.484 35.2834L637.485 35.2829C644.342 32.5647 650.493 31.2046 655.043 30.48C656.001 36.6094 658.036 52.5762 656.359 70.7647C654.453 91.45 647.783 114.619 629.712 129.647C615.079 141.812 596.497 145.712 575.81 145.369C555.096 145.025 532.552 140.435 510.161 135.87Z" stroke="url(#paint0_linear_261_18853)" stroke-width="4"/>
<rect x="242" width="292" height="952" fill="url(#paint1_linear_261_18853)"/>
<rect x="534" y="279" width="534" height="279" transform="rotate(180 534 279)" fill="url(#paint2_linear_261_18853)"/>
<path d="M238.317 398.615L239.63 397.939C242.179 396.626 245.934 394.26 249.293 390.191L249.356 390.116L249.425 390.047C257.806 381.714 263.759 368.539 265.355 355.281C266.953 342.006 264.144 329.101 255.618 320.945C252.757 318.209 249.029 314.949 243.798 312.684C238.594 310.43 231.79 309.115 222.734 310.467L238.317 398.615ZM238.317 398.615L238.577 400.069M238.317 398.615L238.577 400.069M238.577 400.069C239.677 406.215 241.447 420.921 234.684 437.435L234.684 437.435M238.577 400.069L234.684 437.435M234.684 437.435C229.291 450.606 220.958 458.85 216.28 462.86L215.52 463.512M234.684 437.435L215.52 463.512M215.52 463.512L215.586 464.51M215.52 463.512L215.586 464.51M215.586 464.51C215.968 470.303 215.748 478.025 213.356 486.651L213.356 486.651M215.586 464.51L213.356 486.651M213.356 486.651C207.938 506.201 194.783 518.064 188.194 523.139C182.793 517.918 173.417 507.278 168.488 490.923L168.488 490.923M213.356 486.651L168.488 490.923M168.488 490.923C164.092 476.338 165.23 463.848 166.33 457.164L166.436 456.523M168.488 490.923L166.436 456.523M166.436 456.523L166.144 455.942M166.436 456.523L166.144 455.942M166.144 455.942C165.57 454.798 162.294 448.044 160.774 438.838M166.144 455.942L160.774 438.838M183.745 390.282L182.418 391.05C177.829 393.705 170.819 398.717 165.799 407.34L183.745 390.282ZM183.745 390.282L183.348 388.802M183.745 390.282L183.348 388.802M183.348 388.802C182.855 386.959 180.398 377.253 180.76 365.042C181.121 352.824 184.295 338.299 194.857 326.569L194.859 326.566M183.348 388.802L194.859 326.566M194.859 326.566L194.861 326.564M194.859 326.566L194.861 326.564M160.774 438.838C159.254 429.635 159.513 418.143 165.799 407.341L160.774 438.838ZM194.861 326.564C194.861 326.563 194.862 326.563 194.862 326.562M194.861 326.564L194.862 326.562M194.862 326.562C198.206 322.851 207.317 312.773 222.734 310.467L194.862 326.562Z" fill="url(#paint3_linear_261_18853)" stroke="url(#paint4_linear_261_18853)" stroke-width="4"/>
<path d="M270.592 296.932L267.59 294.831C266.793 294.273 265.545 293.454 263.931 292.644C257.487 289.416 251.521 289.482 247.671 289.535H247.67L247.657 289.535H247.656L247.646 289.535C247.02 289.544 246.417 289.552 245.887 289.542L270.592 296.932ZM270.592 296.932L270.736 293.271M270.592 296.932L270.736 293.271M270.736 293.271C270.892 289.307 270.556 283.423 267.678 277.364L267.678 277.364M270.736 293.271L267.678 277.364M267.678 277.364C262.601 266.687 252.301 261.22 240.386 254.896L240.018 254.7L240.014 254.698L267.678 277.364ZM216.223 239.005L216.224 239.005C221.238 245.358 226.463 247.948 233.616 251.464L233.626 251.469C235.606 252.442 237.733 253.488 240.01 254.696L216.223 239.005ZM216.223 239.005C214.598 236.947 213.468 235.09 212.758 233.821L210.052 228.988M216.223 239.005L210.052 228.988M210.052 228.988L209.046 234.435M210.052 228.988L209.046 234.435M209.046 234.435C207.921 240.523 207.123 250.663 211.624 261.328L211.624 261.329M209.046 234.435L211.624 261.329M211.624 261.329C214.468 268.063 219.42 274.992 225.399 280.288M211.624 261.329L225.399 280.288M303.946 279.428C307.41 277.586 309.898 277.364 315.759 276.843L315.76 276.843C318.87 276.567 322.931 276.206 328.593 275.473C337.408 274.333 341.76 273.418 345.032 271.591M303.946 279.428L345.032 271.591M303.946 279.428C299.696 281.69 296.748 284.918 294.736 287.795L303.946 279.428ZM345.032 271.591L344.057 269.845C344.057 269.845 344.057 269.845 344.057 269.845L345.032 271.591ZM362.985 256.073C362.986 256.073 362.986 256.073 362.987 256.073L363.722 257.933L362.985 256.073ZM362.985 256.073C366.18 254.808 368.993 254.27 370.874 254.014M362.985 256.073L370.874 254.014M362.858 295.814L362.858 295.815C356.71 300.922 349.041 302.426 341.006 302.292C333.032 302.16 324.422 300.406 316.183 298.727L316.082 298.706C316.082 298.706 316.082 298.706 316.082 298.706L362.858 295.814ZM362.858 295.814C370.405 289.543 373.014 280.046 373.75 272.067C374.49 264.041 373.375 257.157 373.113 255.653L372.783 253.755M362.858 295.814L372.783 253.755M372.783 253.755L370.874 254.014M372.783 253.755L370.874 254.014M225.399 280.288C231.355 285.563 238.547 289.406 245.886 289.542L225.399 280.288ZM276.238 294.771L277.488 297.265L279.449 295.28C290.262 284.332 295.357 274.049 298 266.947C301.774 256.813 302.459 248.028 303.174 238.871L303.181 238.788C303.975 228.607 304.821 217.821 309.833 203.579L309.834 203.578C311.969 197.501 314.181 192.747 315.595 189.886L317.486 186.059L313.335 187.055C304.342 189.213 291.814 193.934 281.719 204.805L281.718 204.805C261.889 226.162 259.863 262.089 276.238 294.771Z" fill="url(#paint5_linear_261_18853)" stroke="url(#paint6_linear_261_18853)" stroke-width="4"/>
<path d="M269.107 586.49L268.179 585.122C261.465 575.223 252.725 559.721 247.647 539.13L249.585 538.652L247.647 539.13C240.236 509.075 244.452 483.727 247.765 470.248C245.068 464.829 242.629 458.279 241.316 450.678L243.287 450.338L241.316 450.678C236.015 419.98 253.028 394.947 259.184 386.837C255.582 381.199 247.597 366.619 249.93 347.779L249.93 347.775C250.05 346.819 251.244 338.263 255.689 328.759C260.131 319.259 267.94 308.574 281.405 303.824C293.162 299.675 305.347 301.424 315.969 306.461C326.578 311.491 335.752 319.851 341.611 329.172L341.611 329.172C353.656 348.335 352.943 373.508 340.098 393.509C344.305 399.375 353.623 414.368 353.287 435.298C353.287 435.298 353.287 435.298 353.287 435.298L351.287 435.266L269.107 586.49ZM269.107 586.49L270.625 585.837C273.036 584.799 290.83 576.877 308.477 562.385C326.09 547.92 343.87 526.646 345.606 498.876L343.61 498.751M269.107 586.49L343.61 498.751M343.61 498.751L345.606 498.876C346.061 491.603 345.504 482.425 342.176 471.808L343.61 498.751Z" fill="url(#paint7_linear_261_18853)" stroke="url(#paint8_linear_261_18853)" stroke-width="4"/>
</g>
<defs>
<filter id="filter0_f_261_18853" x="-509" y="-609" width="1821" height="1821" filterUnits="userSpaceOnUse" color-interpolation-filters="sRGB">
<feFlood flood-opacity="0" result="BackgroundImageFix"/>
<feBlend mode="normal" in="SourceGraphic" in2="BackgroundImageFix" result="shape"/>
<feGaussianBlur stdDeviation="350" result="effect1_foregroundBlur_261_18853"/>
</filter>
<linearGradient id="paint0_linear_261_18853" x1="353" y1="96.5" x2="146" y2="819.5" gradientUnits="userSpaceOnUse">
<stop stop-color="#02260F"/>
<stop offset="1"/>
</linearGradient>
<linearGradient id="paint1_linear_261_18853" x1="534" y1="476" x2="242" y2="476" gradientUnits="userSpaceOnUse">
<stop/>
<stop offset="1" stop-opacity="0"/>
</linearGradient>
<linearGradient id="paint2_linear_261_18853" x1="832.786" y1="558" x2="833.448" y2="417.842" gradientUnits="userSpaceOnUse">
<stop/>
<stop offset="1" stop-opacity="0"/>
</linearGradient>
<linearGradient id="paint3_linear_261_18853" x1="171.974" y1="497.766" x2="259.125" y2="312.794" gradientUnits="userSpaceOnUse">
<stop stop-color="#020C05"/>
<stop offset="1" stop-color="#0C4E23"/>
</linearGradient>
<linearGradient id="paint4_linear_261_18853" x1="212.891" y1="307.92" x2="212.891" y2="525.753" gradientUnits="userSpaceOnUse">
<stop stop-color="#196735"/>
<stop offset="1" stop-color="#031309"/>
</linearGradient>
<linearGradient id="paint5_linear_261_18853" x1="319" y1="185.5" x2="257.578" y2="310.292" gradientUnits="userSpaceOnUse">
<stop stop-color="#0D5426"/>
<stop offset="1" stop-color="#020E06"/>
</linearGradient>
<linearGradient id="paint6_linear_261_18853" x1="257" y1="303.5" x2="330" y2="165.5" gradientUnits="userSpaceOnUse">
<stop stop-color="#061F10"/>
<stop offset="1" stop-color="#278749"/>
</linearGradient>
<linearGradient id="paint7_linear_261_18853" x1="242" y1="584" x2="364.992" y2="290.416" gradientUnits="userSpaceOnUse">
<stop/>
<stop offset="1" stop-color="#10652E"/>
</linearGradient>
<linearGradient id="paint8_linear_261_18853" x1="351" y1="271.5" x2="268.5" y2="597.5" gradientUnits="userSpaceOnUse">
<stop stop-color="#1A803E"/>
<stop offset="1" stop-color="#03140A"/>
</linearGradient>
<clipPath id="clip0_261_18853">
<rect width="534" height="800" fill="white"/>
</clipPath>
</defs>
</svg>
