<svg width="170" height="246" viewBox="0 0 170 246" fill="none" xmlns="http://www.w3.org/2000/svg">
<path d="M127.408 18.0746C124.664 17.4082 113.945 14.8195 111.201 14.1531C79.2248 6.43818 41.5298 48.9341 27.016 109.064C12.5021 169.194 26.6313 224.198 58.6079 231.912C61.3517 232.579 72.0704 235.168 74.8142 235.834C106.791 243.549 144.486 201.053 159 140.923C173.513 80.7932 159.384 25.7894 127.408 18.0746Z" fill="url(#paint0_linear_290_573)"/>
<path d="M82.4814 238.038C79.7889 238.038 77.1221 237.731 74.5321 237.09L58.3259 233.194C42.376 229.349 30.247 214.176 24.1696 190.519C18.1436 167.118 18.7333 138.104 25.8108 108.808C39.0937 53.6245 72.532 12.0001 103.534 12.0001C106.227 12.0001 108.894 12.3076 111.483 12.9484L127.69 16.8699C143.64 20.7145 155.769 35.888 161.846 59.5452C167.872 82.9461 167.282 111.96 160.205 141.231C146.871 196.414 113.458 238.013 82.4301 238.013L82.4814 238.038ZM103.534 14.5375C73.6603 14.5375 41.299 55.3161 28.2212 109.397C21.2463 138.283 20.6566 166.861 26.5801 189.878C32.4266 212.612 43.889 227.119 58.89 230.733L75.0963 234.629C77.4811 235.193 79.9684 235.501 82.4558 235.501C112.33 235.501 144.691 194.722 157.743 140.641C164.718 111.755 165.308 83.1768 159.384 60.1604C153.538 37.4258 142.075 22.9188 127.074 19.3048L110.868 15.3833C108.483 14.8195 105.996 14.5119 103.509 14.5119L103.534 14.5375Z" fill="url(#paint1_linear_290_573)"/>
<path d="M142.764 137.015C157.285 76.8827 143.143 21.8836 111.176 14.1714C79.2095 6.45922 41.5239 48.9545 27.0028 109.087C12.4817 169.22 26.6239 224.219 58.5904 231.931C90.5569 239.643 128.243 197.148 142.764 137.015Z" fill="url(#paint2_linear_290_573)"/>
<path d="M66.2495 234.117C63.557 234.117 60.8901 233.809 58.3002 233.168C42.3504 229.324 30.2213 214.15 24.144 190.493C18.1179 167.092 18.7077 138.078 25.7851 108.782C39.0938 53.6245 72.532 12.0001 103.534 12.0001C106.227 12.0001 108.894 12.3076 111.483 12.9484C144.075 20.8171 158.666 76.6153 144.024 137.335C130.69 192.518 97.2773 234.117 66.2495 234.117ZM103.534 14.5375C73.6603 14.5375 41.299 55.3161 28.2212 109.397C21.2463 138.283 20.6566 166.861 26.58 189.878C32.4266 212.612 43.8889 227.119 58.89 230.733C61.2748 231.323 63.7621 231.605 66.2495 231.605C96.1234 231.605 128.485 190.826 141.562 136.745C155.897 77.3843 142.152 22.97 110.894 15.409C108.509 14.8451 106.022 14.5375 103.534 14.5375Z" fill="url(#paint3_linear_290_573)"/>
<path d="M132.344 134.502C144.247 85.2121 132.647 40.1285 106.435 33.8047C80.2229 27.4808 49.3249 62.3114 37.4223 111.601C25.5196 160.89 37.1196 205.974 63.3316 212.298C89.5435 218.622 120.442 183.791 132.344 134.502Z" fill="url(#paint4_linear_290_573)"/>
<path d="M132.573 134.543C143.861 87.7987 132.868 45.0453 108.019 39.0503C83.1697 33.0552 53.8749 66.0887 42.587 112.833C31.299 159.576 42.2925 202.33 67.1416 208.325C91.9906 214.32 121.285 181.286 132.573 134.543Z" fill="url(#paint5_linear_290_573)"/>
<g opacity="0.5">
<path fill-rule="evenodd" clip-rule="evenodd" d="M129.687 109.496L129.975 109.785C130.172 110.055 130.285 110.407 130.37 110.787L130.37 117.208C130.384 117.875 130.315 118.65 129.668 119.283L64.6893 177.779C64.6893 177.779 64.5486 177.917 64.4625 177.974C64.4625 177.974 64.4062 178.029 64.3483 178.058C64.3185 178.06 64.2622 178.115 64.2341 178.143L64.085 178.152C64.085 178.152 63.8532 178.27 63.7952 178.3C63.7356 178.304 63.676 178.308 63.6164 178.311L63.5865 178.313C63.5865 178.313 63.4971 178.319 63.4673 178.321C63.4375 178.323 63.4077 178.325 63.3778 178.327L63.2288 178.337C63.2288 178.337 63.2254 178.286 63.1658 178.29C63.1062 178.293 63.0747 178.27 63.0747 178.27C63.073 178.244 62.9786 178.173 62.9786 178.173L58.5044 174.767L58.3785 174.673C57.926 174.163 57.7931 173.504 57.9134 172.597C57.9118 172.571 57.9068 172.495 57.9068 172.495L69.7125 79.6659L69.7621 79.5085C69.8134 79.3767 69.8382 79.2981 69.8613 79.1938C69.8596 79.1682 69.9407 79.0345 69.939 79.0089C69.9655 78.9558 70.0449 78.7965 70.1823 78.6077L70.3511 78.4426L70.4074 78.3875L70.5216 78.303L74.8974 75.1659C74.8974 75.1659 74.9554 75.1364 74.9835 75.1089C75.0415 75.0794 75.0961 74.9988 75.1822 74.9418C75.2964 74.8572 75.4421 74.7963 75.5614 74.7886L75.9191 74.7652C76.098 74.7535 76.2819 74.8185 76.3746 74.8638L76.4376 74.9111L129.663 109.6L129.667 109.651L129.687 109.496ZM105.459 130.935L128.563 110.623L102.039 93.2721L98.1983 96.3486L120.727 111.212C120.727 111.212 120.888 111.381 120.924 111.482C120.927 111.533 120.932 111.609 120.937 111.686C120.948 111.84 120.896 111.971 120.845 112.103C120.819 112.156 120.762 112.211 120.706 112.266L105.747 125.265L105.487 130.907L105.459 130.935ZM106.381 111.148L105.824 123.231L113.985 116.173L106.381 111.148ZM75.2989 76.2698L75.241 76.2993L71.64 78.9234L93.0733 93.062C93.0733 93.062 93.1992 93.1565 93.2341 93.2313C93.2391 93.308 93.2756 93.4084 93.2525 93.5126C93.2658 93.7172 93.1285 93.906 92.9861 94.0181L77.5814 106.147L77.0298 111.449L100.795 92.5572L75.6483 76.1185L75.529 76.1263C75.529 76.1263 75.3833 76.1872 75.2691 76.2717L75.2989 76.2698ZM78.9878 92.8526L77.8121 104.18L86.1576 97.6495L78.9878 92.8526ZM91.1987 93.6983L70.8591 80.2587L65.7545 121.253L69.3967 123.84L73.5406 88.3028C73.5571 88.0962 73.6663 87.935 73.807 87.7974C73.9494 87.6853 74.1266 87.648 74.2542 87.7681L87.5268 96.6096L91.1706 93.7258L91.1987 93.6983ZM68.6548 132.185C68.827 132.071 69.0042 132.034 69.16 132.126L83.5746 142.408L87.5991 138.935L65.4991 123.298L59.4122 172.165C59.3197 172.582 59.3528 172.631 59.5086 172.724L63.2901 175.61L68.3389 132.848C68.3536 132.615 68.4877 132.376 68.6565 132.21L68.6548 132.185ZM72.8324 151.664L82.0715 143.688L74.2519 138.112L72.8324 151.664ZM64.7807 175.513L98.3211 145.4L98.7064 138.928L70.8836 163.53C70.7147 163.695 70.5375 163.732 70.3503 163.616C70.2227 163.496 70.1182 163.271 70.1611 163.012L72.966 137.22L69.4796 134.725L64.7509 175.515L64.7807 175.513ZM100.618 106.336C100.604 106.132 100.74 105.917 100.882 105.805C101.023 105.668 101.202 105.656 101.33 105.776L106.272 109.023L106.397 109.092L115.32 115.059L118.861 111.976L96.8623 97.4377L76.2048 113.943C76.0624 114.055 75.8537 114.068 75.7278 113.974C75.6018 113.879 75.5305 113.704 75.5436 113.446L77.856 92.0276L74.6629 89.899L70.6792 124.681L89.6971 138.053C89.6971 138.053 89.9258 138.346 89.9127 138.604C89.9194 138.706 89.8682 138.838 89.8152 138.944C89.7623 139.05 89.6812 139.184 89.5951 139.241L83.7051 144.403L72.5987 154.042L71.9119 160.483L98.8342 136.762L100.619 106.362L100.618 106.336ZM129.037 117.886C129.037 117.886 129.118 117.752 129.123 117.367L129.137 112.075L104.735 133.602C104.595 133.74 104.418 133.777 104.26 133.659C104.136 133.59 104.031 133.365 104.046 133.133L105.157 110.278L101.806 108.031L99.7945 144.122L129.067 117.884L129.037 117.886ZM96.4185 103.015C96.5592 102.877 96.7381 102.865 96.8657 102.986C96.9917 103.08 97.063 103.255 97.0466 103.462L95.0296 133.98C95.0149 134.212 94.9106 134.45 94.7385 134.564C94.654 134.646 94.5663 134.678 94.4768 134.684C94.3874 134.689 94.2333 134.622 94.2333 134.622L75.0664 121.26C75.0664 121.26 74.8675 120.965 74.8856 120.784L74.8822 120.733C74.9268 120.499 75.0344 120.312 75.2049 120.172L96.3904 103.042L96.4185 103.015ZM95.678 105.426L77.1413 120.483L93.8259 132.055L95.6482 105.428L95.678 105.426Z" fill="#3BD171"/>
</g>
<defs>
<linearGradient id="paint0_linear_290_573" x1="75.7859" y1="236.738" x2="150.731" y2="17.6478" gradientUnits="userSpaceOnUse">
<stop stop-color="#041A0C"/>
<stop offset="1" stop-color="#0F7333"/>
</linearGradient>
<linearGradient id="paint1_linear_290_573" x1="148.176" y1="27.8676" x2="65.5661" y2="244.186" gradientUnits="userSpaceOnUse">
<stop stop-color="#157E3B"/>
<stop offset="1" stop-color="#101407"/>
</linearGradient>
<linearGradient id="paint2_linear_290_573" x1="127.737" y1="34.6808" x2="67.2288" y2="224.586" gradientUnits="userSpaceOnUse">
<stop stop-color="#0E5026"/>
<stop offset="1" stop-color="#051D0E"/>
</linearGradient>
<linearGradient id="paint3_linear_290_573" x1="84.8651" y1="12.0001" x2="84.8651" y2="234.117" gradientUnits="userSpaceOnUse">
<stop stop-color="#157036"/>
<stop offset="1" stop-color="#093218"/>
</linearGradient>
<linearGradient id="paint4_linear_290_573" x1="137.105" y1="70.4501" x2="57.0216" y2="201.587" gradientUnits="userSpaceOnUse">
<stop stop-color="#076529"/>
<stop offset="1" stop-color="#041D0D"/>
</linearGradient>
<linearGradient id="paint5_linear_290_573" x1="42.587" y1="112.833" x2="132.569" y2="134.562" gradientUnits="userSpaceOnUse">
<stop stop-color="#062C14"/>
<stop offset="1" stop-color="#095123"/>
</linearGradient>
</defs>
</svg>
