<svg width="424" height="256" viewBox="0 0 424 256" fill="none" xmlns="http://www.w3.org/2000/svg">
    <path d="M4.15193 64.8486L4.15257 64.8471C5.47007 61.6832 8.62734 54.1229 11.7857 46.5601L11.787 46.5571L11.7908 46.5478C14.9472 38.9897 18.1038 31.4313 19.4223 28.2649C23.039 19.5997 31.7407 13.2119 45.0209 9.33767C58.2795 5.46974 75.7863 4.21237 96.394 5.57721C137.589 8.30551 190.714 21.4792 245.965 44.501C301.216 67.5399 347.962 96.0017 378.889 123.34C394.36 137.016 405.785 150.335 412.367 162.473C418.96 174.631 420.545 185.306 416.937 193.97C415.629 197.11 412.51 204.579 409.376 212.084L409.302 212.261C406.144 219.822 402.986 227.385 401.667 230.553C398.05 239.218 389.348 245.606 376.068 249.48C362.81 253.348 345.303 254.605 324.695 253.24C283.501 250.512 230.375 237.338 175.124 214.317C119.873 191.278 73.1185 162.816 42.1875 135.478C26.7142 121.802 15.2878 108.483 8.70756 96.3449C2.11665 84.1872 0.535389 73.5133 4.15193 64.8486Z" fill="url(#paint0_linear_3028_15236)" stroke="url(#paint1_linear_3028_15236)" stroke-width="4"/>
    <path d="M418.784 194.74C403 232.555 300.422 225.745 189.626 179.579C78.8303 133.379 1.79375 65.3105 17.5777 27.4947C33.3616 -10.321 135.94 -3.51076 246.736 42.6553C357.531 88.8555 434.534 156.924 418.784 194.74Z" fill="url(#paint2_linear_3028_15236)"/>
    <g opacity="0.5">
        <path d="M252.83 84.3024L118.214 70.7733C117.456 70.7214 117.24 70.9445 117.338 71.6035L117.327 71.5783L117.991 77.4979C118.103 77.9311 118.634 78.386 118.899 78.5855L262.701 175.169L262.665 175.141C263.625 175.802 264.27 176.088 265.142 176.198L275.169 177.206C275.794 177.213 275.933 177.083 275.901 176.665L266.66 93.5441C266.571 93.0706 266.146 92.6421 265.104 91.9406L254.881 85.0743C254.562 84.874 253.59 84.3576 252.83 84.3024ZM221.506 95.2805L244.316 97.5734L245.894 111.662L221.506 95.2805ZM226.115 137.393L248.871 139.676L250.446 153.735L226.115 137.393ZM175.957 90.7026L177.547 104.762L153.212 88.4172L175.957 90.7026ZM202.201 120.866L199.131 93.4668L246.564 125.324L202.201 120.866Z" fill="#14AA4A"/>
        <path d="M248.094 132.734L248.92 139.681L214.883 136.265L275.657 177.142C275.539 177.214 275.402 177.209 275.169 177.206L265.143 176.199C264.272 176.089 263.626 175.803 262.666 175.141L262.702 175.17L190.973 126.994L248.094 132.734ZM253.974 84.6319L257.841 119.687L221.466 95.2542L210.251 94.1494L271.267 135.142L266.66 93.5438C266.571 93.0703 266.146 92.6419 265.104 91.9399L254.882 85.0741C254.532 84.8551 254.285 84.7545 253.974 84.6319ZM118.214 70.7733C117.456 70.7214 117.24 70.9445 117.338 71.6035L117.327 71.5783L117.991 77.4979C118.042 77.6802 118.138 77.8551 118.292 78.037L175.17 83.7532L177.549 104.777L189.549 112.823L185.599 77.545L118.214 70.7733Z" fill="#058D36"/>
        <path d="M253.988 84.6036L257.84 119.687L245.893 111.662L243.536 90.6231L186.417 84.8839L185.595 77.546L252.83 84.3026C253.247 84.3537 253.616 84.449 253.988 84.6036ZM118.292 78.0362C118.438 78.2074 118.633 78.3855 118.898 78.5849L190.971 126.992L202.881 128.205L141.955 87.2844L175.993 90.6832L175.168 83.7519L118.292 78.0362ZM262.513 161.885L226.113 137.392L214.882 136.265L275.71 177.174C275.854 177.089 275.917 176.941 275.922 176.725L271.266 135.139L258.562 126.606L262.513 161.885Z" fill="#3BD171"/>
    </g>
    <path d="M355.41 221.672C391.292 221.672 413.992 212.706 421.079 195.698C429.159 176.362 415.224 149.463 381.876 119.998C349.178 91.114 301.553 62.8121 247.695 40.3964C186.991 15.106 126.217 0.595703 80.9541 0.595703C45.0722 0.595703 22.3721 9.56199 15.2848 26.5705C7.20448 45.9062 21.1395 72.805 54.4878 102.27C87.1855 131.154 134.811 159.456 188.668 181.872C249.373 207.162 310.112 221.672 355.41 221.672ZM80.9541 5.52374C125.601 5.52374 185.69 19.8971 245.778 44.9479C299.122 67.1925 346.268 95.1522 378.555 123.694C409.746 151.243 423.544 176.807 416.457 193.781C410.294 208.565 388.587 216.71 355.375 216.71C310.728 216.71 250.674 202.337 190.551 177.286C137.208 155.041 90.0616 127.082 57.7747 98.5403C26.5834 70.9912 12.7853 45.4271 19.8727 28.4527C26.0356 13.6687 47.7428 5.52374 80.9541 5.52374Z" fill="url(#paint3_linear_3028_15236)"/>
    <path d="M242.932 51.8261C336.437 90.8054 401.319 148.607 387.829 180.947C382.728 193.165 367.149 199.975 344.723 201.652C361.911 199.29 373.757 193.165 377.968 183.103C390.671 152.645 328.597 97.7526 239.303 60.5186C150.009 23.2846 67.3228 17.809 54.5861 48.3012C50.3748 58.3626 54.3807 71.0933 64.8234 84.9876C50.2036 67.8764 44.0749 51.9972 49.1765 39.7798C62.6664 7.43967 149.392 12.8468 242.932 51.8261Z" fill="url(#paint4_linear_3028_15236)"/>
    <defs>
        <linearGradient id="paint0_linear_3028_15236" x1="514.435" y1="221.646" x2="-36.871" y2="89.39" gradientUnits="userSpaceOnUse">
            <stop stop-color="#0B2D17"/>
            <stop offset="1" stop-color="#010503"/>
        </linearGradient>
        <linearGradient id="paint1_linear_3028_15236" x1="441.293" y1="190.664" x2="-41.1078" y2="162.947" gradientUnits="userSpaceOnUse">
            <stop stop-color="#1F7B40"/>
            <stop offset="1" stop-color="#061A0D"/>
        </linearGradient>
        <linearGradient id="paint2_linear_3028_15236" x1="126.165" y1="229.122" x2="409.007" y2="-47.0053" gradientUnits="userSpaceOnUse">
            <stop stop-color="#020C06"/>
            <stop offset="1" stop-color="#167C3B" stop-opacity="0.2"/>
        </linearGradient>
        <linearGradient id="paint3_linear_3028_15236" x1="407.895" y1="73.3517" x2="44.1962" y2="170.413" gradientUnits="userSpaceOnUse">
            <stop stop-color="#125C2D"/>
            <stop offset="1" stop-color="#041209"/>
        </linearGradient>
        <linearGradient id="paint4_linear_3028_15236" x1="117.536" y1="82.4788" x2="503.983" y2="77.3031" gradientUnits="userSpaceOnUse">
            <stop stop-color="#0D5F2B"/>
            <stop offset="1" stop-color="#021609"/>
        </linearGradient>
    </defs>
</svg>
