<svg width="210" height="306" viewBox="0 0 210 306" fill="none" xmlns="http://www.w3.org/2000/svg">
    <path d="M157.818 22.9881C154.417 22.1619 141.129 18.9527 137.728 18.1265C98.0861 8.56242 51.3557 61.2446 33.3629 135.788C15.3701 210.331 32.886 278.519 72.5274 288.083C75.9289 288.909 89.2169 292.118 92.6183 292.944C132.26 302.509 178.99 249.826 196.983 175.283C214.976 100.74 197.46 32.5522 157.818 22.9881Z" fill="url(#paint0_linear_7195_6078)"/>
    <path d="M102.124 295.677C98.7859 295.677 95.4799 295.295 92.2691 294.501L72.1782 289.671C52.4052 284.905 37.3688 266.094 29.8347 236.767C22.3642 207.756 23.0953 171.788 31.8692 135.469C48.3361 67.0589 89.7896 15.457 128.223 15.457C131.561 15.457 134.867 15.8383 138.078 16.6327L158.169 21.4942C177.942 26.2604 192.978 45.0709 200.512 74.3988C207.983 103.409 207.251 139.378 198.478 175.664C181.947 244.075 140.525 295.645 102.06 295.645L102.124 295.677ZM128.223 18.6027C91.1883 18.6027 51.07 69.156 34.8574 136.2C26.2107 172.01 25.4796 207.439 32.8229 235.972C40.0709 264.156 54.2808 282.141 72.8776 286.621L92.9685 291.451C95.9249 292.15 99.0085 292.531 102.092 292.531C139.127 292.531 179.245 241.978 195.426 174.933C204.072 139.123 204.804 103.695 197.46 75.1614C190.212 46.9774 176.002 28.993 157.406 24.5128L137.315 19.6513C134.358 18.9522 131.275 18.5709 128.191 18.5709L128.223 18.6027Z" fill="url(#paint1_linear_7195_6078)"/>
    <path d="M176.854 170.438C194.856 95.8917 177.324 27.7093 137.695 18.1485C98.0662 8.58771 51.3473 61.2691 33.3454 135.816C15.3436 210.362 32.8758 278.544 72.5047 288.105C112.134 297.666 158.852 244.985 176.854 170.438Z" fill="url(#paint2_linear_7195_6078)"/>
    <path d="M81.999 290.815C78.6611 290.815 75.355 290.434 72.1443 289.639C52.3713 284.873 37.3349 266.063 29.8008 236.735C22.3302 207.725 23.0614 171.756 31.8353 135.438C48.334 67.0588 89.7874 15.457 128.221 15.457C131.559 15.457 134.865 15.8383 138.076 16.6327C178.48 26.3875 196.568 95.5606 178.416 170.834C161.886 239.245 120.464 290.815 81.999 290.815ZM128.221 18.6027C91.1862 18.6027 51.0679 69.156 34.8553 136.2C26.2086 172.01 25.4774 207.439 32.8208 235.972C40.0688 264.156 54.2786 282.141 72.8754 286.621C75.8319 287.352 78.9154 287.701 81.999 287.701C119.034 287.701 159.152 237.148 175.365 170.104C193.135 96.5138 176.096 29.0565 137.344 19.683C134.388 18.984 131.304 18.6027 128.221 18.6027Z" fill="url(#paint3_linear_7195_6078)"/>
    <path d="M163.937 167.322C178.692 106.218 164.312 50.3279 131.817 42.4882C99.3219 34.6485 61.0176 77.828 46.2619 138.932C31.5062 200.037 45.8867 255.927 78.3817 263.766C110.877 271.606 149.181 228.426 163.937 167.322Z" fill="url(#paint4_linear_7195_6078)"/>
    <path d="M164.22 167.373C178.214 109.424 164.585 56.4231 133.78 48.991C102.974 41.5589 66.6577 82.5106 52.664 140.459C38.6704 198.407 52.299 251.409 83.1044 258.841C113.91 266.273 150.227 225.321 164.22 167.373Z" fill="url(#paint5_linear_7195_6078)"/>
    <g opacity="0.5">
        <path d="M147.736 150.667L100.446 108.123C100.159 107.895 99.8808 107.943 99.3782 108.284L99.3942 108.269L94.785 111.266C94.4754 111.503 94.3298 111.862 94.2797 112.028L76.8475 196.595L76.8551 196.572C76.7249 197.144 76.7691 197.453 77.0565 197.74L80.5788 200.909C80.8443 201.08 81.0124 201.055 81.3445 200.847L146.098 158.778C146.451 158.528 146.621 158.21 146.749 157.597L147.988 151.585C148.015 151.404 148.02 150.897 147.736 150.667ZM125.044 147.496L133.057 154.705L122.087 161.839L125.044 147.496ZM92.2062 168.79L100.204 175.98L89.2567 183.099L92.2062 168.79ZM109.043 133.1L98.1027 140.224L101.053 125.912L109.043 133.1ZM95.4901 154.505L116.824 140.632L111.074 168.526L95.4901 154.505Z" fill="#51836B"/>
        <path d="M105.609 172.465L100.221 175.996L88.2592 165.241L80.8434 201.009C80.7336 201.012 80.6772 200.973 80.5789 200.909L77.0564 197.74C76.7689 197.454 76.7248 197.145 76.855 196.572L76.8474 196.595L85.5426 154.413L105.609 172.465ZM147.96 151.131L120.637 168.865L125.049 147.473L121.091 143.939L113.685 179.827L146.098 158.778C146.451 158.528 146.621 158.21 146.749 157.596L147.988 151.585C148.017 151.387 147.994 151.273 147.96 151.131ZM100.446 108.123C100.159 107.895 99.8808 107.943 99.3782 108.284L99.3942 108.269L94.785 111.266C94.6566 111.367 94.5533 111.476 94.47 111.604L114.451 129.579L98.0907 140.232L96.6478 147.282L124.118 129.419L100.446 108.123Z" fill="#3E7159"/>
        <path d="M147.989 151.121L120.638 168.864L122.087 161.838L138.468 151.185L118.402 133.134L124.115 129.418L147.735 150.667C147.874 150.803 147.955 150.948 147.989 151.121ZM94.4705 111.603C94.3924 111.724 94.3299 111.861 94.2798 112.027L85.5428 154.412L89.7137 158.184L97.0995 122.354L109.075 133.101L114.451 129.578L94.4705 111.603ZM87.7559 190.217L92.206 168.79L88.259 165.241L80.8402 201.039C80.9738 201.036 81.1237 200.983 81.304 200.881L113.686 179.825L115.226 172.354L87.7559 190.217Z" fill="#7DA491"/>
    </g>
    <defs>
        <linearGradient id="paint0_linear_7195_6078" x1="93.823" y1="294.066" x2="186.732" y2="22.459" gradientUnits="userSpaceOnUse">
            <stop stop-color="#3C4C4A"/>
            <stop offset="1" stop-color="#7DA491"/>
        </linearGradient>
        <linearGradient id="paint1_linear_7195_6078" x1="183.566" y1="35.128" x2="81.154" y2="303.299" gradientUnits="userSpaceOnUse">
            <stop stop-color="#7DA491"/>
            <stop offset="1" stop-color="#3C4C4A"/>
        </linearGradient>
        <linearGradient id="paint2_linear_7195_6078" x1="158.225" y1="43.574" x2="83.2137" y2="278.999" gradientUnits="userSpaceOnUse">
            <stop stop-color="#496055"/>
            <stop offset="1" stop-color="#23342C"/>
        </linearGradient>
        <linearGradient id="paint3_linear_7195_6078" x1="105.077" y1="15.457" x2="105.077" y2="290.815" gradientUnits="userSpaceOnUse">
            <stop stop-color="#7DA491"/>
            <stop offset="1" stop-color="#3C4C4A"/>
        </linearGradient>
        <linearGradient id="paint4_linear_7195_6078" x1="169.838" y1="87.9175" x2="70.5592" y2="250.488" gradientUnits="userSpaceOnUse">
            <stop stop-color="#527162"/>
            <stop offset="1" stop-color="#42504B"/>
        </linearGradient>
        <linearGradient id="paint5_linear_7195_6078" x1="52.664" y1="140.459" x2="164.214" y2="167.397" gradientUnits="userSpaceOnUse">
            <stop stop-color="#3C4C4A"/>
            <stop offset="1" stop-color="#1C3026"/>
        </linearGradient>
    </defs>
</svg>
