<svg width="394" height="238" viewBox="0 0 394 238" fill="none" xmlns="http://www.w3.org/2000/svg">
    <path d="M4.62096 60.6538L4.6216 60.6523C5.84498 57.7144 8.77699 50.6936 11.7098 43.6707L11.7118 43.6661C14.6429 36.6474 17.5745 29.6275 18.799 26.6869C22.1335 18.6979 30.1649 12.7868 42.4746 9.19574C54.7628 5.61092 70.999 4.44305 90.1236 5.70967C128.352 8.24153 177.662 20.4679 228.95 41.8385C280.239 63.2251 323.627 89.6436 352.326 115.013C366.684 127.705 377.279 140.059 383.379 151.308C389.49 162.578 390.943 172.441 387.616 180.43C386.392 183.368 383.46 190.388 380.527 197.411C377.595 204.432 374.663 211.454 373.438 214.395C370.104 222.384 362.072 228.295 349.762 231.886C337.474 235.471 321.238 236.639 302.113 235.372C263.885 232.841 214.575 220.614 163.287 199.243C111.998 177.857 68.6025 151.438 39.8986 126.069C25.5389 113.377 14.9431 101.023 8.84447 89.7739C2.73522 78.5047 1.28667 68.6423 4.62096 60.6538Z" fill="url(#paint0_linear_7195_6065)" stroke="url(#paint1_linear_7195_6065)" stroke-width="4"/>
    <path d="M389.463 181.199C374.808 216.31 279.567 209.987 176.696 167.123C73.8256 124.227 2.29943 61.0276 16.9544 25.9167C31.6093 -9.19411 126.85 -2.87098 229.721 39.9929C332.592 82.8885 404.086 146.088 389.463 181.199Z" fill="url(#paint2_linear_7195_6065)"/>
    <g opacity="0.5">
        <path d="M235.38 78.6608L110.393 66.0995C109.689 66.0513 109.488 66.2584 109.579 66.8703L109.569 66.8468L110.185 72.343C110.289 72.7453 110.782 73.1676 111.028 73.3528L244.544 163.028L244.511 163.002C245.402 163.616 246.001 163.881 246.811 163.983L256.121 164.919C256.701 164.926 256.83 164.805 256.8 164.417L248.22 87.2415C248.137 86.8018 247.743 86.404 246.776 85.7527L237.284 79.3775C236.987 79.1915 236.085 78.712 235.38 78.6608ZM206.296 88.8537L227.475 90.9825L228.94 104.064L206.296 88.8537ZM210.575 127.954L231.704 130.073L233.166 143.127L210.575 127.954ZM164.005 84.6032L165.481 97.6568L142.887 82.4813L164.005 84.6032ZM188.372 112.609L185.521 87.1697L229.561 116.749L188.372 112.609Z" fill="#51836B"/>
        <path d="M230.982 123.628L231.749 130.078L200.147 126.907L256.573 164.86C256.464 164.926 256.337 164.922 256.121 164.919L246.811 163.984C246.003 163.882 245.403 163.616 244.512 163.002L244.545 163.028L177.947 118.298L230.982 123.628ZM236.442 78.9668L240.032 111.515L206.259 88.8292L195.846 87.8035L252.498 125.864L248.221 87.2412C248.138 86.8016 247.743 86.4038 246.775 85.752L237.284 79.3773C236.96 79.174 236.731 79.0806 236.442 78.9668ZM110.393 66.0995C109.689 66.0513 109.488 66.2584 109.579 66.8703L109.569 66.8468L110.185 72.343C110.233 72.5123 110.321 72.6747 110.465 72.8436L163.274 78.1509L165.483 97.6713L176.625 105.141L172.957 72.3868L110.393 66.0995Z" fill="#3E6351"/>
        <path d="M236.454 78.9405L240.031 111.514L228.939 104.063L226.75 84.5293L173.717 79.2007L172.954 72.3876L235.379 78.6609C235.766 78.7084 236.109 78.7969 236.454 78.9405ZM110.465 72.8428C110.6 73.0017 110.782 73.1671 111.027 73.3523L177.945 118.297L189.003 119.423L132.435 81.4295L164.038 84.5852L163.273 78.1496L110.465 72.8428ZM244.37 150.694L210.574 127.953L200.146 126.907L256.623 164.89C256.757 164.81 256.815 164.673 256.82 164.473L252.496 125.861L240.701 117.939L244.37 150.694Z" fill="#7DA491"/>
    </g>
    <path d="M330.622 206.205C363.937 206.205 385.013 197.88 391.594 182.088C399.096 164.136 386.158 139.161 355.195 111.803C324.836 84.9853 280.617 58.7077 230.612 37.8954C174.249 14.4141 117.823 0.94165 75.7976 0.94165C42.4823 0.94165 21.4059 9.26659 14.8255 25.0585C7.32317 43.0111 20.2615 67.9859 51.2244 95.3438C81.5833 122.161 125.802 148.439 175.807 169.251C232.17 192.733 288.564 206.205 330.622 206.205ZM75.7976 5.51719C117.251 5.51719 173.041 18.8625 228.832 42.1214C278.36 62.7749 322.134 88.7347 352.111 115.235C381.071 140.813 393.883 164.549 387.302 180.309C381.58 194.035 361.426 201.598 330.59 201.598C289.136 201.598 233.378 188.252 177.556 164.994C128.028 144.34 84.2536 118.38 54.2761 91.8803C25.316 66.3018 12.5048 42.5663 19.0853 26.8061C24.8074 13.0795 44.9618 5.51719 75.7976 5.51719Z" fill="url(#paint3_linear_7195_6065)"/>
    <path d="M226.189 48.5077C313.006 84.6988 373.247 138.366 360.722 168.393C355.985 179.736 341.521 186.06 320.699 187.617C336.658 185.424 347.657 179.736 351.567 170.395C363.361 142.115 305.726 91.1491 222.82 56.5784C139.913 22.0077 63.1413 16.9238 51.3156 45.2349C47.4055 54.5766 51.1249 66.3967 60.8207 79.2972C47.2466 63.4099 41.5563 48.6665 46.2929 37.323C58.8179 7.2961 139.341 12.3165 226.189 48.5077Z" fill="url(#paint4_linear_7195_6065)"/>
    <defs>
        <linearGradient id="paint0_linear_7195_6065" x1="478.272" y1="206.181" x2="-33.5996" y2="83.3846" gradientUnits="userSpaceOnUse">
            <stop stop-color="#142F22"/>
            <stop offset="1" stop-color="#3A4942"/>
        </linearGradient>
        <linearGradient id="paint1_linear_7195_6065" x1="410.362" y1="177.415" x2="-37.5334" y2="151.681" gradientUnits="userSpaceOnUse">
            <stop stop-color="#3A4841"/>
            <stop offset="1" stop-color="#3C4C4A"/>
        </linearGradient>
        <linearGradient id="paint2_linear_7195_6065" x1="117.775" y1="213.122" x2="380.386" y2="-43.2544" gradientUnits="userSpaceOnUse">
            <stop stop-color="#4B605C"/>
            <stop offset="1" stop-color="#1F2B25"/>
        </linearGradient>
        <linearGradient id="paint3_linear_7195_6065" x1="379.353" y1="68.4935" x2="41.6689" y2="158.612" gradientUnits="userSpaceOnUse">
            <stop stop-color="#576B5E"/>
            <stop offset="1" stop-color="#586660"/>
        </linearGradient>
        <linearGradient id="paint4_linear_7195_6065" x1="109.763" y1="76.9677" x2="468.567" y2="72.1623" gradientUnits="userSpaceOnUse">
            <stop stop-color="#495F55"/>
            <stop offset="1" stop-color="#182D2A"/>
        </linearGradient>
    </defs>
</svg>
