<svg width="226" height="329" viewBox="0 0 226 329" fill="none" xmlns="http://www.w3.org/2000/svg">
    <path d="M170.02 23.9223C166.357 23.0326 152.045 19.5761 148.382 18.6863C105.686 8.38537 55.3558 65.1261 35.9768 145.412C16.5979 225.698 35.4633 299.139 78.1586 309.44C81.8221 310.33 96.1338 313.786 99.7973 314.676C142.493 324.977 192.823 268.236 212.202 187.95C231.581 107.665 212.716 34.2233 170.02 23.9223Z" fill="url(#paint0_linear_3028_15249)"/>
    <path d="M110.035 317.618C106.44 317.618 102.879 317.208 99.4212 316.352L77.7825 311.15C56.4862 306.017 40.2914 285.757 32.1769 254.17C24.1309 222.925 24.9184 184.185 34.3682 145.069C52.1037 71.3882 96.7506 15.811 138.145 15.811C141.74 15.811 145.301 16.2217 148.759 17.0773L170.398 22.3133C191.694 27.4467 207.889 47.7063 216.003 79.2936C224.049 110.539 223.262 149.278 213.812 188.36C196.008 262.041 151.395 317.584 109.967 317.584L110.035 317.618ZM138.145 19.1991C98.2571 19.1991 55.0482 73.6469 37.5866 145.856C28.2737 184.425 27.4862 222.583 35.3953 253.315C43.2017 283.67 58.5063 303.04 78.5358 307.865L100.174 313.067C103.359 313.82 106.68 314.23 110.001 314.23C149.889 314.23 193.098 259.783 210.525 187.573C219.838 149.005 220.625 110.847 212.716 80.115C204.91 49.7597 189.605 30.3898 169.576 25.5644L147.937 20.3284C144.753 19.5755 141.432 19.1648 138.111 19.1648L138.145 19.1991Z" fill="url(#paint1_linear_3028_15249)"/>
    <path d="M190.523 182.732C209.911 102.443 191.029 29.0073 148.347 18.71C105.665 8.41265 55.3468 65.1525 35.9581 145.442C16.5694 225.732 35.4523 299.167 78.1341 309.464C120.816 319.761 171.134 263.022 190.523 182.732Z" fill="url(#paint2_linear_3028_15249)"/>
    <path d="M88.36 312.382C84.7649 312.382 81.2041 311.972 77.746 311.116C56.4497 305.983 40.2549 285.723 32.1404 254.136C24.0944 222.891 24.8819 184.151 34.3317 145.035C52.1014 71.3882 96.7484 15.811 138.143 15.811C141.738 15.811 145.299 16.2217 148.757 17.0773C192.274 27.5835 211.755 102.086 192.205 183.159C174.401 256.839 129.789 312.382 88.36 312.382ZM138.143 19.1991C98.2549 19.1991 55.0459 73.6469 37.5843 145.856C28.2715 184.425 27.484 222.583 35.3931 253.315C43.1994 283.67 58.504 303.04 78.5335 307.865C81.7177 308.652 85.0388 309.029 88.36 309.029C128.248 309.029 171.457 254.581 188.918 182.372C208.058 103.112 189.706 30.4582 147.969 20.3626C144.785 19.6097 141.464 19.1991 138.143 19.1991Z" fill="url(#paint3_linear_3028_15249)"/>
    <path d="M176.61 179.376C192.503 113.564 177.014 53.3685 142.016 44.9248C107.017 36.4812 65.7622 82.9871 49.8697 148.799C33.9772 214.611 49.4655 274.806 84.4639 283.25C119.462 291.694 160.718 245.188 176.61 179.376Z" fill="url(#paint4_linear_3028_15249)"/>
    <path d="M176.915 179.43C191.987 117.018 177.309 59.933 144.13 51.9284C110.951 43.9238 71.8368 88.0303 56.7651 150.443C41.6934 212.856 56.3719 269.94 89.5506 277.945C122.729 285.949 161.844 241.843 176.915 179.43Z" fill="url(#paint5_linear_3028_15249)"/>
    <g opacity="0.5">
        <path d="M159.161 161.438L108.228 115.616C107.919 115.371 107.619 115.423 107.078 115.789L107.095 115.773L102.131 119.001C101.798 119.256 101.641 119.643 101.587 119.822L82.8116 210.904L82.8198 210.879C82.6795 211.495 82.7272 211.828 83.0367 212.137L86.8304 215.55C87.1163 215.734 87.2973 215.708 87.655 215.484L157.397 170.173C157.777 169.905 157.96 169.562 158.098 168.901L159.432 162.426C159.461 162.231 159.467 161.685 159.161 161.438ZM134.721 158.022L143.352 165.787L131.536 173.47L134.721 158.022ZM99.3535 180.957L107.967 188.701L96.1767 196.368L99.3535 180.957ZM117.488 142.518L105.704 150.19L108.882 134.776L117.488 142.518ZM102.89 165.572L125.868 150.629L119.675 180.672L102.89 165.572Z" fill="#14AA4A"/>
        <path d="M113.789 184.915L107.986 188.718L95.1025 177.135L87.1154 215.658C86.997 215.661 86.9363 215.619 86.8304 215.55L83.0366 212.137C82.727 211.829 82.6794 211.496 82.8197 210.879L82.8115 210.904L92.1766 165.472L113.789 184.915ZM159.402 161.937L129.975 181.038L134.726 157.997L130.463 154.191L122.487 192.844L157.397 170.173C157.777 169.905 157.96 169.562 158.098 168.901L159.433 162.426C159.464 162.213 159.439 162.09 159.402 161.937ZM108.228 115.616C107.919 115.371 107.619 115.423 107.078 115.789L107.095 115.773L102.131 119.001C101.993 119.11 101.881 119.227 101.792 119.365L123.312 138.725L105.691 150.198L104.137 157.792L133.724 138.553L108.228 115.616Z" fill="#058D36"/>
        <path d="M159.434 161.927L129.975 181.037L131.536 173.47L149.18 161.996L127.567 142.554L133.721 138.552L159.16 161.438C159.31 161.584 159.398 161.74 159.434 161.927ZM101.792 119.364C101.708 119.494 101.641 119.642 101.587 119.821L92.1768 165.471L96.6691 169.533L104.624 130.943L117.522 142.518L123.312 138.724L101.792 119.364ZM94.5604 204.035L99.3533 180.956L95.1022 177.134L87.1119 215.69C87.2558 215.687 87.4173 215.63 87.6114 215.521L122.489 192.842L124.147 184.795L94.5604 204.035Z" fill="#3BD171"/>
    </g>
    <defs>
        <linearGradient id="paint0_linear_3028_15249" x1="101.095" y1="315.884" x2="201.162" y2="23.3525" gradientUnits="userSpaceOnUse">
            <stop stop-color="#041A0C"/>
            <stop offset="1" stop-color="#0F7333"/>
        </linearGradient>
        <linearGradient id="paint1_linear_3028_15249" x1="197.751" y1="36.9975" x2="87.4497" y2="325.828" gradientUnits="userSpaceOnUse">
            <stop stop-color="#157E3B"/>
            <stop offset="1" stop-color="#101407"/>
        </linearGradient>
        <linearGradient id="paint2_linear_3028_15249" x1="170.458" y1="46.0943" x2="89.6682" y2="299.656" gradientUnits="userSpaceOnUse">
            <stop stop-color="#0E5026"/>
            <stop offset="1" stop-color="#051D0E"/>
        </linearGradient>
        <linearGradient id="paint3_linear_3028_15249" x1="113.216" y1="15.811" x2="113.216" y2="312.382" gradientUnits="userSpaceOnUse">
            <stop stop-color="#157036"/>
            <stop offset="1" stop-color="#093218"/>
        </linearGradient>
        <linearGradient id="paint4_linear_3028_15249" x1="182.966" y1="93.8539" x2="76.0388" y2="268.949" gradientUnits="userSpaceOnUse">
            <stop stop-color="#076529"/>
            <stop offset="1" stop-color="#041D0D"/>
        </linearGradient>
        <linearGradient id="paint5_linear_3028_15249" x1="56.7651" y1="150.443" x2="176.909" y2="179.456" gradientUnits="userSpaceOnUse">
            <stop stop-color="#062C14"/>
            <stop offset="1" stop-color="#095123"/>
        </linearGradient>
    </defs>
</svg>
