<svg width="52" height="52" viewBox="0 0 52 52" fill="none" xmlns="http://www.w3.org/2000/svg">
<g clip-path="url(#clip0_211_403)">
<circle cx="26" cy="26" r="26" fill="black"/>
<path fill-rule="evenodd" clip-rule="evenodd" d="M44.949 24.587C44.9476 24.5774 44.9452 24.5678 44.9425 24.5573L44.9404 24.5491C44.9387 24.5448 44.9374 24.5405 44.9361 24.5362C44.9348 24.5319 44.9335 24.5276 44.9318 24.5233C44.9318 24.5233 44.9313 24.5213 44.9306 24.5189C44.9299 24.5168 44.9291 24.5145 44.9283 24.5129C44.9077 24.4526 44.8732 24.3855 44.8215 24.3269C44.8215 24.3269 44.8198 24.3234 44.8181 24.3234C44.7906 24.2924 44.7578 24.2649 44.7199 24.2442C44.7162 24.2405 44.7115 24.2376 44.7073 24.235C44.7057 24.234 44.7041 24.2331 44.7027 24.2321L39.0966 20.9953L31.4254 16.5665L31.2962 16.4924L31.2531 16.4666L17.8638 8.73369H17.8604C17.8483 8.7268 17.7553 8.68545 17.6727 8.67339C17.633 8.66823 17.5952 8.6665 17.5952 8.6665H17.5452C17.4759 8.67123 17.3633 8.74373 17.338 8.75999L17.338 8.75999C17.3357 8.76151 17.3341 8.76253 17.3334 8.76297C17.0062 8.95158 16.6789 9.14062 16.3517 9.32966L16.3516 9.32972L16.3516 9.32973C16.0244 9.51878 15.6972 9.70783 15.3699 9.89646C15.3663 9.89938 15.3623 9.90231 15.3582 9.90536L15.3582 9.90536C15.3525 9.90951 15.3466 9.91389 15.3406 9.91885C15.332 9.92574 15.3251 9.93263 15.3165 9.94125C15.3096 9.94641 15.3028 9.95158 15.2976 9.9602C15.2924 9.96536 15.2872 9.97225 15.2821 9.97914C15.2494 10.0153 15.227 10.0549 15.2097 10.0911C15.2029 10.1032 15.1977 10.1152 15.1942 10.1273C15.1839 10.16 15.177 10.1893 15.1719 10.2117C15.1701 10.222 15.1684 10.2341 15.1667 10.2462V41.2155H15.1684C15.165 41.4239 15.2201 41.5566 15.3596 41.6651C15.3672 41.6702 15.3749 41.6756 15.3827 41.681C15.3958 41.6902 15.4092 41.6995 15.4233 41.7082L17.4315 42.8675L17.4367 42.871C17.447 42.8761 17.4574 42.8796 17.4677 42.883C17.4699 42.8852 17.4728 42.886 17.4755 42.8868C17.4771 42.8872 17.4785 42.8876 17.4798 42.8882C17.4858 42.8899 17.4922 42.8916 17.4987 42.8933C17.5052 42.8951 17.5116 42.8968 17.5177 42.8985C17.522 42.9002 17.5263 42.9015 17.5306 42.9028C17.5349 42.9041 17.5392 42.9054 17.5435 42.9071C17.5476 42.9071 17.5517 42.9079 17.556 42.9087C17.5607 42.9096 17.5656 42.9106 17.571 42.9106C17.5797 42.9123 17.5883 42.9123 17.5969 42.9123L17.6038 42.9123C17.6038 42.9123 17.6193 42.9157 17.6279 42.9157C17.6419 42.9157 17.6571 42.9146 17.6716 42.9123H17.6813C17.6813 42.9123 17.683 42.9106 17.6847 42.9106C17.6864 42.9106 17.6864 42.9106 17.6882 42.9089C17.6933 42.9089 17.6985 42.9089 17.7037 42.9054C17.7123 42.9037 17.7209 42.902 17.7295 42.8985C17.7416 42.8985 17.7536 42.8933 17.7657 42.8882C17.7777 42.8847 17.7898 42.8796 17.8018 42.8744C17.8242 42.8641 17.8466 42.852 17.869 42.8399L23.5182 39.5807L44.7217 27.3501C44.9163 27.2261 44.9559 27.059 44.9559 26.8436V24.6352C44.9542 24.618 44.9524 24.6008 44.949 24.587ZM19.953 15.4657V20.4079L24.2278 17.936L19.953 15.4657ZM20.1991 25.7885L28.7833 30.7454V20.8317L20.1991 25.7885ZM19.9483 36.1106V31.1684L24.2231 33.6386L19.9483 36.1106ZM33.561 28.3018L37.8727 25.8139L33.561 23.326V28.3018Z" fill="#C2FD3F"/>
<path fill-rule="evenodd" clip-rule="evenodd" d="M45.0637 24.282C45.1173 24.3034 45.2029 24.3997 45.2029 24.3997C45.2945 24.5065 45.3575 24.6367 45.3851 24.7744V27.0541C45.3851 27.2896 45.3529 27.5572 45.053 27.7497L18.1982 43.2369C18.166 43.2583 18.1446 43.2689 18.1125 43.2796C18.1071 43.285 18.091 43.2903 18.0749 43.2957C18.0589 43.3011 18.0428 43.3064 18.0375 43.3118H17.9839H17.9732C17.9411 43.3332 17.8875 43.3332 17.8554 43.3332C17.8268 43.3332 17.803 43.3284 17.7871 43.3252C17.7792 43.3237 17.7733 43.3225 17.7697 43.3225C17.752 43.3225 17.7343 43.3192 17.7184 43.3163C17.7054 43.314 17.6936 43.3118 17.684 43.3118H17.6411L17.6197 43.3011C17.609 43.3011 17.609 43.2903 17.5983 43.2903C17.5876 43.2903 17.5554 43.2796 17.5554 43.2796C17.5447 43.2689 17.5126 43.2476 17.5126 43.2476L15.5309 42.1023L15.4773 42.0702C15.2631 41.9098 15.1774 41.7171 15.1774 41.4602C15.1774 41.4495 15.1667 41.4281 15.1667 41.4281V10.4647C15.1667 10.454 15.1774 10.4004 15.1774 10.4004C15.1881 10.347 15.1989 10.3148 15.2095 10.272C15.2095 10.2613 15.2417 10.2078 15.2417 10.1971C15.2524 10.1757 15.2845 10.1114 15.338 10.0472L15.4023 9.98297C15.4023 9.98297 15.4053 9.97996 15.4111 9.97565C15.4165 9.97173 15.4243 9.96664 15.4345 9.96154L15.488 9.92953L17.4376 8.80568C17.4483 8.79496 17.4698 8.79496 17.4804 8.78425C17.4997 8.76975 17.5341 8.74662 17.5759 8.72559C17.6271 8.69985 17.6893 8.67725 17.7482 8.67725H17.8125H17.9197C18.0054 8.68796 18.1017 8.7201 18.1553 8.74153C18.166 8.75211 18.1875 8.76282 18.1875 8.76282L45.0423 24.2607L45.0637 24.282ZM33.9983 30.7037L44.5067 24.646L31.4702 17.1218L29.7028 18.1493L40.7682 24.5389C40.8171 24.5668 40.8478 24.6039 40.8632 24.6472C40.8715 24.6702 40.8753 24.6949 40.8753 24.7209C40.8753 24.7781 40.8609 24.8258 40.829 24.8639C40.8132 24.8827 40.7931 24.8993 40.7682 24.9136L33.9983 28.82V30.7037ZM33.9983 23.9181V28.1244L37.651 26.0159L33.9983 23.9181ZM17.7054 9.34082C17.6947 9.34082 17.684 9.35153 17.684 9.35153L16.0772 10.2827L27.1426 16.6723C27.1743 16.6881 27.2009 16.7143 27.2196 16.746C27.2388 16.7784 27.2498 16.8162 27.2498 16.8543C27.2498 16.9291 27.2069 17.0041 27.1426 17.0363L20.3834 20.9534V22.8371L30.8704 16.7793L17.8875 9.28725L17.8232 9.27667C17.8018 9.28725 17.759 9.30868 17.7054 9.34082ZM20.3834 16.0516V20.2471L24.0148 18.1493L20.3834 16.0516ZM26.2642 16.8543L15.7773 10.7964V25.8126L17.5447 26.84V14.0823C17.5447 14.0073 17.5876 13.9431 17.6519 13.9003C17.7161 13.8574 17.8018 13.8574 17.8661 13.9003L24.6361 17.8068L26.2642 16.8543ZM17.6519 29.6014C17.7161 29.5693 17.8018 29.5693 17.8661 29.6014L24.6253 33.5079L26.2642 32.566L15.7773 26.4976V41.4281C15.7666 41.5458 15.7773 41.5565 15.8415 41.5886L17.5233 42.5626L17.5447 29.794C17.5447 29.7192 17.5876 29.6442 17.6519 29.6014ZM20.3834 35.9482L24.0255 33.8505L20.3834 31.7527V35.9482ZM18.1232 42.6053L31.1596 35.0706V33.0263L20.0835 39.4159C20.0192 39.4588 19.9442 39.4588 19.8692 39.4159C19.805 39.3732 19.7621 39.3089 19.7621 39.234L19.7835 31.4102L18.1446 30.4576L18.1232 42.6053ZM31.1596 21.9489C31.1596 21.8739 31.2024 21.799 31.2668 21.7669C31.331 21.724 31.4167 21.724 31.4809 21.7669L33.8911 23.1476C33.9126 23.1583 33.9447 23.1797 33.9447 23.1797L38.2509 25.6734L39.8899 24.7209L29.1029 18.4918L20.1049 23.6934C20.0406 23.7256 19.9549 23.7256 19.8906 23.6934C19.8264 23.6506 19.7835 23.5864 19.7835 23.5007V15.6984L18.1446 14.7565V27.1826L27.1426 32.3735C27.2069 32.4056 27.2498 32.4805 27.2498 32.5554C27.2498 32.5906 27.2403 32.6257 27.2236 32.6576C27.2048 32.6935 27.1767 32.7253 27.1426 32.748L24.7432 34.1395L20.3727 36.6546V38.5598L31.1596 32.3306V21.9489ZM44.7423 27.236C44.7745 27.2146 44.7852 27.1933 44.7852 27.0541V25.1811L33.7198 31.5493C33.6555 31.5922 33.5805 31.5922 33.5055 31.5493C33.4412 31.5172 33.3984 31.4423 33.3984 31.3673V23.5543L31.7595 22.6124V34.728L44.7423 27.236ZM29.0708 20.5574C29.135 20.5146 29.2207 20.5146 29.285 20.5574C29.3493 20.6001 29.3922 20.6644 29.3922 20.7393V31.2603C29.3922 31.3352 29.3493 31.4102 29.285 31.4422C29.2529 31.4636 29.21 31.4743 29.1779 31.4743C29.135 31.4743 29.0708 31.4422 29.0708 31.4422L19.9656 26.1872C19.9013 26.155 19.8585 26.08 19.8585 26.0159V25.9944C19.8585 25.9196 19.9013 25.8553 19.9656 25.8124L29.0708 20.5574ZM28.7923 21.4136L20.844 26.0052L28.7923 30.586V21.4136Z" fill="#1A1C19"/>
</g>
<defs>
<clipPath id="clip0_211_403">
<rect width="52" height="52" rx="26" fill="white"/>
</clipPath>
</defs>
</svg>
