<svg width="562" height="657" viewBox="0 0 562 657" fill="none" xmlns="http://www.w3.org/2000/svg">
<rect width="534" height="608" transform="translate(14 20)" fill="black"/>
<g opacity="0.2" filter="url(#filter0_d_261_9792)">
<path d="M524.832 92.3247L286.126 20.752C282.784 19.7493 279.221 19.7493 275.878 20.752L37.1684 92.3247C33.4961 93.426 30.2768 95.6812 27.9882 98.7555C25.6996 101.83 24.4636 105.56 24.4636 109.392V371.824C24.4636 405.958 38.2905 440.9 65.558 475.679C86.3833 502.241 115.196 528.914 151.193 554.957C211.665 598.706 271.212 625.544 273.717 626.664C276.009 627.69 278.491 628.22 281.002 628.22C283.513 628.22 285.996 627.69 288.287 626.664C290.792 625.544 350.338 598.706 410.81 554.957C446.806 528.914 475.618 502.241 496.444 475.679C523.712 440.901 537.536 405.96 537.536 371.824V109.392C537.537 105.56 536.301 101.83 534.012 98.755C531.724 95.6805 528.504 93.4255 524.832 92.3247Z" fill="url(#paint0_radial_261_9792)" fill-opacity="0.7" shape-rendering="crispEdges"/>
<path d="M285.552 22.6676L285.552 22.6677L524.257 94.2405L524.832 92.3247L524.257 94.2405C527.518 95.2179 530.376 97.2199 532.408 99.9493C534.44 102.679 535.537 105.99 535.536 109.391V371.824C535.536 405.395 521.944 439.915 494.871 474.445C474.189 500.822 445.528 527.37 409.638 553.336C349.328 596.968 289.926 623.74 287.471 624.838L287.47 624.838C285.436 625.749 283.232 626.22 281.002 626.22C278.773 626.22 276.569 625.749 274.535 624.838L274.534 624.838C272.078 623.74 212.674 596.968 152.365 553.336C116.475 527.37 87.8123 500.822 67.1319 474.445C40.0584 439.913 26.4636 405.394 26.4636 371.824V109.392C26.4636 105.99 27.5608 102.679 29.5925 99.9498C31.6243 97.2205 34.4824 95.2183 37.7429 94.2404L276.453 22.6677L276.453 22.6676C279.421 21.7775 282.584 21.7775 285.552 22.6676Z" stroke="url(#paint1_linear_261_9792)" stroke-width="4" shape-rendering="crispEdges"/>
</g>
<g opacity="0.2" filter="url(#filter1_d_261_9792)">
<path d="M483.477 131.636L285.257 72.2021C282.482 71.3695 279.523 71.3695 276.747 72.2021L78.5234 131.636C75.4739 132.551 72.8006 134.423 70.9002 136.976C68.9997 139.529 67.9733 142.626 67.9733 145.808V363.732C67.9733 392.077 79.4551 421.092 102.098 449.973C119.391 472.03 143.317 494.179 173.209 515.805C223.424 552.134 272.872 574.42 274.953 575.35C276.855 576.202 278.917 576.643 281.002 576.643C283.087 576.643 285.149 576.202 287.051 575.35C289.131 574.42 338.578 552.134 388.794 515.805C418.685 494.179 442.61 472.03 459.904 449.973C482.547 421.093 494.027 392.078 494.027 363.732V145.808C494.027 142.626 493.001 139.529 491.101 136.976C489.2 134.423 486.527 132.55 483.477 131.636Z" fill="url(#paint2_radial_261_9792)" fill-opacity="0.7" shape-rendering="crispEdges"/>
<path d="M284.682 74.1177L284.683 74.1178L482.902 133.552L483.477 131.636L482.903 133.552C485.54 134.342 487.853 135.962 489.496 138.17L491.101 136.976L489.496 138.17C491.14 140.378 492.027 143.056 492.027 145.808V363.732C492.027 391.514 480.779 420.107 458.33 448.739C441.181 470.611 417.406 492.636 387.621 514.185C337.568 550.396 288.265 572.617 286.235 573.525L286.234 573.525C284.588 574.262 282.805 574.643 281.002 574.643C279.199 574.643 277.416 574.262 275.77 573.525L275.769 573.525C273.738 572.617 224.434 550.396 174.381 514.185C144.596 492.636 120.82 470.611 103.672 448.739C81.223 420.106 69.9733 391.512 69.9733 363.732V145.808C69.9733 143.057 70.8609 140.378 72.5045 138.17C74.1481 135.962 76.4602 134.343 79.0979 133.552L277.321 74.1178L277.322 74.1177C279.722 73.3976 282.282 73.3976 284.682 74.1177Z" stroke="url(#paint3_linear_261_9792)" stroke-width="4" shape-rendering="crispEdges"/>
</g>
<g opacity="0.3" filter="url(#filter2_d_261_9792)">
<path d="M416.22 195.584L283.843 155.897C281.989 155.341 280.013 155.341 278.16 155.897L145.78 195.584C143.743 196.195 141.958 197.445 140.689 199.15C139.42 200.855 138.734 202.923 138.734 205.048V350.568C138.734 369.495 146.402 388.87 161.524 408.155C173.073 422.884 189.051 437.674 209.013 452.115C242.549 476.374 275.572 491.256 276.961 491.877C278.232 492.446 279.609 492.74 281.001 492.74C282.394 492.74 283.771 492.446 285.041 491.877C286.43 491.256 319.452 476.374 352.988 452.115C372.95 437.674 388.928 422.884 400.478 408.155C415.599 388.871 423.266 369.496 423.266 350.568V205.048C423.266 202.923 422.581 200.855 421.312 199.15C420.043 197.445 418.257 196.195 416.22 195.584Z" fill="url(#paint4_radial_261_9792)" fill-opacity="0.7" shape-rendering="crispEdges"/>
<path d="M283.268 157.813L283.269 157.813L415.646 197.5L416.22 195.584L415.646 197.5C417.271 197.987 418.695 198.985 419.708 200.344C420.72 201.704 421.266 203.353 421.266 205.048V350.568C421.266 368.931 413.832 387.884 398.904 406.921C387.499 421.465 371.672 436.131 351.816 450.495C318.443 474.636 285.564 489.452 284.225 490.051L284.224 490.052C283.21 490.505 282.112 490.74 281.001 490.74C279.891 490.74 278.792 490.505 277.779 490.052L277.778 490.051C276.438 489.452 243.559 474.636 210.186 450.495C190.33 436.131 174.501 421.465 163.097 406.921C148.17 387.884 140.734 368.931 140.734 350.568V205.048C140.734 203.354 141.281 201.704 142.293 200.345C143.305 198.985 144.729 197.987 146.354 197.5C146.354 197.5 146.354 197.5 146.354 197.5L278.734 157.813L278.734 157.813C280.213 157.369 281.79 157.369 283.268 157.813Z" stroke="url(#paint5_linear_261_9792)" stroke-opacity="0.6" stroke-width="4" shape-rendering="crispEdges"/>
</g>
<path opacity="0.5" fill-rule="evenodd" clip-rule="evenodd" d="M347.32 317.508C347.492 317.577 347.768 317.889 347.768 317.889C348.063 318.234 348.266 318.656 348.355 319.101V326.48C348.355 327.242 348.251 328.108 347.285 328.731L260.767 378.858C260.663 378.928 260.594 378.962 260.49 378.997C260.473 379.014 260.421 379.031 260.37 379.049C260.318 379.066 260.266 379.083 260.249 379.101H260.076H260.042C259.938 379.17 259.766 379.17 259.662 379.17C259.57 379.17 259.494 379.154 259.442 379.144C259.417 379.139 259.398 379.135 259.386 379.135C259.329 379.135 259.272 379.125 259.221 379.115C259.179 379.108 259.141 379.101 259.11 379.101H258.972L258.903 379.066C258.869 379.066 258.869 379.031 258.834 379.031C258.799 379.031 258.696 378.997 258.696 378.997C258.661 378.962 258.558 378.893 258.558 378.893L252.173 375.186L252.001 375.082C251.311 374.563 251.035 373.939 251.035 373.108C251.035 373.073 251 373.004 251 373.004V272.785C251 272.751 251.035 272.577 251.035 272.577C251.069 272.404 251.104 272.3 251.138 272.162C251.138 272.127 251.242 271.954 251.242 271.919C251.276 271.85 251.38 271.642 251.552 271.434L251.759 271.226C251.759 271.226 251.769 271.216 251.788 271.203C251.805 271.19 251.83 271.173 251.863 271.157L252.035 271.053L258.316 267.416C258.351 267.381 258.42 267.381 258.454 267.346C258.516 267.299 258.627 267.225 258.762 267.156C258.927 267.073 259.127 267 259.317 267H259.524H259.869C260.145 267.035 260.456 267.139 260.628 267.208C260.663 267.242 260.732 267.277 260.732 267.277L347.251 317.439L347.32 317.508ZM311.67 338.293L345.525 318.686L303.525 294.332L297.831 297.658L333.481 318.339C333.638 318.429 333.737 318.549 333.787 318.689C333.814 318.764 333.826 318.844 333.826 318.928C333.826 319.113 333.78 319.268 333.677 319.391C333.626 319.452 333.561 319.506 333.481 319.552L311.67 332.196V338.293ZM311.67 316.33V329.944L323.438 323.119L311.67 316.33ZM259.179 269.148C259.145 269.148 259.11 269.182 259.11 269.182L253.933 272.196L289.583 292.877C289.685 292.928 289.771 293.013 289.831 293.116C289.893 293.221 289.928 293.343 289.928 293.466C289.928 293.709 289.79 293.951 289.583 294.055L267.807 306.734V312.831L301.593 293.224L259.766 268.974L259.559 268.94C259.49 268.974 259.352 269.044 259.179 269.148ZM267.807 290.868V304.448L279.506 297.658L267.807 290.868ZM286.753 293.466L252.967 273.859V322.461L258.661 325.787V284.494C258.661 284.252 258.799 284.044 259.007 283.905C259.214 283.766 259.49 283.766 259.697 283.905L281.508 296.55L286.753 293.466ZM259.007 334.725C259.214 334.621 259.49 334.621 259.697 334.725L281.473 347.369L286.753 344.32L252.967 324.679V373.004C252.933 373.385 252.967 373.419 253.174 373.523L258.592 376.676L258.661 335.348C258.661 335.106 258.799 334.863 259.007 334.725ZM267.807 355.267L279.541 348.477L267.807 341.688V355.267ZM260.525 376.814L302.525 352.427V345.81L266.841 366.491C266.634 366.63 266.392 366.63 266.15 366.491C265.943 366.353 265.805 366.145 265.805 365.902L265.874 340.579L260.594 337.496L260.525 376.814ZM302.525 309.956C302.525 309.713 302.663 309.471 302.87 309.367C303.077 309.228 303.353 309.228 303.56 309.367L311.325 313.836C311.394 313.87 311.498 313.94 311.498 313.94L325.371 322.011L330.651 318.928L295.899 298.767L266.909 315.602C266.702 315.707 266.426 315.707 266.219 315.602C266.012 315.464 265.874 315.256 265.874 314.979V289.725L260.594 286.677V326.896L289.583 343.697C289.79 343.801 289.928 344.043 289.928 344.286C289.928 344.4 289.898 344.513 289.844 344.617C289.783 344.733 289.693 344.836 289.583 344.909L281.853 349.413L267.772 357.554V363.72L302.525 343.558V309.956ZM346.284 327.069C346.388 326.999 346.422 326.93 346.422 326.48V320.418L310.773 341.029C310.566 341.168 310.324 341.168 310.083 341.029C309.875 340.925 309.737 340.683 309.737 340.44V315.152L304.457 312.104V351.318L346.284 327.069ZM295.795 305.452C296.002 305.314 296.278 305.314 296.485 305.452C296.692 305.591 296.83 305.799 296.83 306.041V340.094C296.83 340.336 296.692 340.579 296.485 340.683C296.382 340.752 296.244 340.787 296.14 340.787C296.002 340.787 295.795 340.683 295.795 340.683L266.461 323.674C266.254 323.57 266.116 323.327 266.116 323.119V323.05C266.116 322.808 266.254 322.6 266.461 322.461L295.795 305.452ZM294.898 308.223L269.291 323.085L294.898 337.912V308.223Z" fill="#3BD171"/>
<defs>
<filter id="filter0_d_261_9792" x="0.463562" y="0" width="561.073" height="656.22" filterUnits="userSpaceOnUse" color-interpolation-filters="sRGB">
<feFlood flood-opacity="0" result="BackgroundImageFix"/>
<feColorMatrix in="SourceAlpha" type="matrix" values="0 0 0 0 0 0 0 0 0 0 0 0 0 0 0 0 0 0 127 0" result="hardAlpha"/>
<feOffset dy="4"/>
<feGaussianBlur stdDeviation="12"/>
<feComposite in2="hardAlpha" operator="out"/>
<feColorMatrix type="matrix" values="0 0 0 0 0 0 0 0 0 0 0 0 0 0 0 0 0 0 0.65 0"/>
<feBlend mode="normal" in2="BackgroundImageFix" result="effect1_dropShadow_261_9792"/>
<feBlend mode="normal" in="SourceGraphic" in2="effect1_dropShadow_261_9792" result="shape"/>
</filter>
<filter id="filter1_d_261_9792" x="43.9733" y="51.5776" width="474.054" height="553.065" filterUnits="userSpaceOnUse" color-interpolation-filters="sRGB">
<feFlood flood-opacity="0" result="BackgroundImageFix"/>
<feColorMatrix in="SourceAlpha" type="matrix" values="0 0 0 0 0 0 0 0 0 0 0 0 0 0 0 0 0 0 127 0" result="hardAlpha"/>
<feOffset dy="4"/>
<feGaussianBlur stdDeviation="12"/>
<feComposite in2="hardAlpha" operator="out"/>
<feColorMatrix type="matrix" values="0 0 0 0 0 0 0 0 0 0 0 0 0 0 0 0 0 0 0.65 0"/>
<feBlend mode="normal" in2="BackgroundImageFix" result="effect1_dropShadow_261_9792"/>
<feBlend mode="normal" in="SourceGraphic" in2="effect1_dropShadow_261_9792" result="shape"/>
</filter>
<filter id="filter2_d_261_9792" x="104.734" y="127.48" width="352.532" height="405.26" filterUnits="userSpaceOnUse" color-interpolation-filters="sRGB">
<feFlood flood-opacity="0" result="BackgroundImageFix"/>
<feColorMatrix in="SourceAlpha" type="matrix" values="0 0 0 0 0 0 0 0 0 0 0 0 0 0 0 0 0 0 127 0" result="hardAlpha"/>
<feOffset dy="6"/>
<feGaussianBlur stdDeviation="17"/>
<feComposite in2="hardAlpha" operator="out"/>
<feColorMatrix type="matrix" values="0 0 0 0 0 0 0 0 0 0 0 0 0 0 0 0 0 0 0.25 0"/>
<feBlend mode="normal" in2="BackgroundImageFix" result="effect1_dropShadow_261_9792"/>
<feBlend mode="normal" in="SourceGraphic" in2="effect1_dropShadow_261_9792" result="shape"/>
</filter>
<radialGradient id="paint0_radial_261_9792" cx="0" cy="0" r="1" gradientUnits="userSpaceOnUse" gradientTransform="translate(441.022 161.461) rotate(105.59) scale(595.419 502.282)">
<stop stop-color="#3BD171" stop-opacity="0.5"/>
<stop offset="1" stop-color="#3BD171" stop-opacity="0"/>
</radialGradient>
<linearGradient id="paint1_linear_261_9792" x1="537.536" y1="20" x2="109.976" y2="440.937" gradientUnits="userSpaceOnUse">
<stop stop-color="#3BD171" stop-opacity="0.47"/>
<stop offset="1" stop-color="#3BD171" stop-opacity="0.06"/>
</linearGradient>
<radialGradient id="paint2_radial_261_9792" cx="0" cy="0" r="1" gradientUnits="userSpaceOnUse" gradientTransform="translate(413.882 189.046) rotate(105.59) scale(494.435 417.093)">
<stop stop-color="#3BD171" stop-opacity="0.5"/>
<stop offset="1" stop-color="#3BD171" stop-opacity="0"/>
</radialGradient>
<linearGradient id="paint3_linear_261_9792" x1="494.027" y1="71.5776" x2="138.981" y2="421.122" gradientUnits="userSpaceOnUse">
<stop stop-color="#3BD171" stop-opacity="0.47"/>
<stop offset="1" stop-color="#3BD171" stop-opacity="0.06"/>
</linearGradient>
<radialGradient id="paint4_radial_261_9792" cx="0" cy="0" r="1" gradientUnits="userSpaceOnUse" gradientTransform="translate(346.231 233.355) rotate(121.521) scale(424.321 357.982)">
<stop stop-color="#3BD171" stop-opacity="0.5"/>
<stop offset="1" stop-color="#3BD171" stop-opacity="0"/>
</radialGradient>
<linearGradient id="paint5_linear_261_9792" x1="406.687" y1="165.214" x2="138.734" y2="418.309" gradientUnits="userSpaceOnUse">
<stop stop-color="#3BD171"/>
<stop offset="0.96996" stop-color="#3BD171" stop-opacity="0"/>
</linearGradient>
</defs>
</svg>
