<svg>
    <symbol fill="none" xmlns="http://www.w3.org/2000/svg" viewBox="0 0 24 24" id="error">
        <path d="M6.22656 19.7422C5.78385 19.7422 5.40365 19.6484 5.08594 19.4609C4.76823 19.2734 4.52344 19.0182 4.35156 18.6953C4.17969 18.3776 4.09375 18.0208 4.09375 17.625C4.09375 17.2448 4.19531 16.8802 4.39844 16.5312L10.4609 5.96875C10.6589 5.61458 10.9219 5.34896 11.25 5.17188C11.5781 4.98958 11.9219 4.89844 12.2812 4.89844C12.6406 4.89844 12.9818 4.98958 13.3047 5.17188C13.6328 5.34896 13.8984 5.61458 14.1016 5.96875L20.1641 16.5312C20.263 16.7031 20.3385 16.8828 20.3906 17.0703C20.4427 17.2578 20.4688 17.4427 20.4688 17.625C20.4688 18.0208 20.3828 18.3776 20.2109 18.6953C20.0391 19.0182 19.7943 19.2734 19.4766 19.4609C19.1589 19.6484 18.7786 19.7422 18.3359 19.7422H6.22656ZM12.2891 14.5156C12.6953 14.5156 12.901 14.3021 12.9062 13.875L13.0234 9.625C13.0286 9.42188 12.9583 9.2526 12.8125 9.11719C12.6719 8.97656 12.4948 8.90625 12.2812 8.90625C12.0625 8.90625 11.8828 8.97396 11.7422 9.10938C11.6068 9.24479 11.5417 9.41406 11.5469 9.61719L11.6484 13.875C11.6589 14.3021 11.8724 14.5156 12.2891 14.5156ZM12.2891 17.1328C12.5234 17.1328 12.7266 17.0521 12.8984 16.8906C13.0755 16.7292 13.1641 16.5312 13.1641 16.2969C13.1641 16.0625 13.0755 15.8646 12.8984 15.7031C12.7266 15.5365 12.5234 15.4531 12.2891 15.4531C12.0495 15.4531 11.8438 15.5365 11.6719 15.7031C11.5 15.8698 11.4141 16.0677 11.4141 16.2969C11.4141 16.5312 11.5 16.7292 11.6719 16.8906C11.849 17.0521 12.0547 17.1328 12.2891 17.1328Z"
              fill="currentColor"/>
    </symbol>
    <symbol fill="none" xmlns="http://www.w3.org/2000/svg" viewBox="0 0 24 24" id="done">
        <path d="M10.525 14.275L8.075 11.825C7.925 11.675 7.74167 11.6 7.525 11.6C7.30833 11.6 7.125 11.675 6.975 11.825C6.80833 11.9917 6.725 12.1875 6.725 12.4125C6.725 12.6375 6.8 12.825 6.95 12.975L10 16.025C10.1333 16.1583 10.3083 16.225 10.525 16.225C10.7417 16.225 10.9167 16.1583 11.05 16.025L17.05 10.025C17.2 9.875 17.275 9.69167 17.275 9.475C17.275 9.25833 17.1917 9.06667 17.025 8.9C16.875 8.75 16.6875 8.675 16.4625 8.675C16.2375 8.675 16.0417 8.75833 15.875 8.925L10.525 14.275ZM12 22C10.5833 22 9.26667 21.7458 8.05 21.2375C6.83333 20.7292 5.775 20.025 4.875 19.125C3.975 18.225 3.27083 17.1667 2.7625 15.95C2.25417 14.7333 2 13.4167 2 12C2 10.6 2.25417 9.29167 2.7625 8.075C3.27083 6.85833 3.975 5.8 4.875 4.9C5.775 4 6.83333 3.29167 8.05 2.775C9.26667 2.25833 10.5833 2 12 2C13.4 2 14.7083 2.25833 15.925 2.775C17.1417 3.29167 18.2 4 19.1 4.9C20 5.8 20.7083 6.85833 21.225 8.075C21.7417 9.29167 22 10.6 22 12C22 13.4167 21.7417 14.7333 21.225 15.95C20.7083 17.1667 20 18.225 19.1 19.125C18.2 20.025 17.1417 20.7292 15.925 21.2375C14.7083 21.7458 13.4 22 12 22Z"
              fill="currentColor"/>
    </symbol>
    <symbol fill="none" xmlns="http://www.w3.org/2000/svg" viewBox="0 0 24 24" id="info">
        <path d="M11.5391 20.6191C10.3145 20.6191 9.16016 20.3848 8.07617 19.916C6.99805 19.4473 6.0459 18.7998 5.21973 17.9736C4.39355 17.1475 3.74609 16.1953 3.27734 15.1172C2.80859 14.0332 2.57422 12.8789 2.57422 11.6543C2.57422 10.4297 2.80859 9.27832 3.27734 8.2002C3.74609 7.11621 4.39062 6.16113 5.21094 5.33496C6.03711 4.50879 6.98926 3.86133 8.06738 3.39258C9.15137 2.92383 10.3057 2.68945 11.5303 2.68945C12.7549 2.68945 13.9092 2.92383 14.9932 3.39258C16.0771 3.86133 17.0322 4.50879 17.8584 5.33496C18.6846 6.16113 19.332 7.11621 19.8008 8.2002C20.2695 9.27832 20.5039 10.4297 20.5039 11.6543C20.5039 12.8789 20.2695 14.0332 19.8008 15.1172C19.332 16.1953 18.6846 17.1475 17.8584 17.9736C17.0322 18.7998 16.0771 19.4473 14.9932 19.916C13.915 20.3848 12.7637 20.6191 11.5391 20.6191ZM11.5391 19.125C12.5762 19.125 13.5459 18.9316 14.4482 18.5449C15.3506 18.1582 16.1445 17.625 16.8301 16.9453C17.5156 16.2598 18.0488 15.4658 18.4297 14.5635C18.8164 13.6611 19.0098 12.6914 19.0098 11.6543C19.0098 10.6172 18.8164 9.64746 18.4297 8.74512C18.043 7.84277 17.5068 7.04883 16.8213 6.36328C16.1416 5.67773 15.3477 5.14453 14.4395 4.76367C13.5371 4.37695 12.5674 4.18359 11.5303 4.18359C10.4932 4.18359 9.52344 4.37695 8.62109 4.76367C7.71875 5.14453 6.92773 5.67773 6.24805 6.36328C5.56836 7.04883 5.03516 7.84277 4.64844 8.74512C4.26758 9.64746 4.07715 10.6172 4.07715 11.6543C4.07715 12.6914 4.26758 13.6611 4.64844 14.5635C5.03516 15.4658 5.56836 16.2598 6.24805 16.9453C6.93359 17.625 7.72754 18.1582 8.62988 18.5449C9.53223 18.9316 10.502 19.125 11.5391 19.125ZM10.001 16.5674C9.81934 16.5674 9.66699 16.5088 9.54395 16.3916C9.4209 16.2744 9.35938 16.1279 9.35938 15.9521C9.35938 15.7764 9.4209 15.6299 9.54395 15.5127C9.66699 15.3955 9.81934 15.3369 10.001 15.3369H11.0908V11.3027H10.1504C9.96875 11.3027 9.81641 11.2441 9.69336 11.127C9.57031 11.0098 9.50879 10.8633 9.50879 10.6875C9.50879 10.5117 9.57031 10.3652 9.69336 10.248C9.81641 10.1309 9.96875 10.0723 10.1504 10.0723H11.8027C12.0254 10.0723 12.1953 10.1455 12.3125 10.292C12.4297 10.4326 12.4883 10.623 12.4883 10.8633V15.3369H13.5781C13.7598 15.3369 13.9121 15.3955 14.0352 15.5127C14.1582 15.6299 14.2197 15.7764 14.2197 15.9521C14.2197 16.1279 14.1582 16.2744 14.0352 16.3916C13.9121 16.5088 13.7598 16.5674 13.5781 16.5674H10.001ZM11.46 8.60449C11.1436 8.60449 10.874 8.49316 10.6514 8.27051C10.4287 8.04785 10.3174 7.77832 10.3174 7.46191C10.3174 7.13965 10.4287 6.86719 10.6514 6.64453C10.874 6.42188 11.1436 6.31055 11.46 6.31055C11.7822 6.31055 12.0518 6.42188 12.2686 6.64453C12.4912 6.86719 12.6025 7.13965 12.6025 7.46191C12.6025 7.77832 12.4912 8.04785 12.2686 8.27051C12.0518 8.49316 11.7822 8.60449 11.46 8.60449Z"
              fill="currentColor"/>
    </symbol>

    <symbol fill="none" xmlns="http://www.w3.org/2000/svg" viewBox="0 0 24 24" id="close">
        <path d="M18.2987 5.70973C17.9087 5.31973 17.2787 5.31973 16.8887 5.70973L11.9988 10.5897L7.10875 5.69973C6.71875 5.30973 6.08875 5.30973 5.69875 5.69973C5.30875 6.08973 5.30875 6.71973 5.69875 7.10973L10.5888 11.9997L5.69875 16.8897C5.30875 17.2797 5.30875 17.9097 5.69875 18.2997C6.08875 18.6897 6.71875 18.6897 7.10875 18.2997L11.9988 13.4097L16.8887 18.2997C17.2787 18.6897 17.9087 18.6897 18.2987 18.2997C18.6887 17.9097 18.6887 17.2797 18.2987 16.8897L13.4087 11.9997L18.2987 7.10973C18.6787 6.72973 18.6787 6.08973 18.2987 5.70973V5.70973Z"
              fill="currentColor"></path>
    </symbol>

    <symbol fill="none" xmlns="http://www.w3.org/2000/svg" viewBox="0 0 24 24" id="flag">
        <path d="M7 14V20C7 20.2833 6.90417 20.5208 6.7125 20.7125C6.52083 20.9042 6.28333 21 6 21C5.71667 21 5.47917 20.9042 5.2875 20.7125C5.09583 20.5208 5 20.2833 5 20V5C5 4.71667 5.09583 4.47917 5.2875 4.2875C5.47917 4.09583 5.71667 4 6 4H13.175C13.4083 4 13.6167 4.075 13.8 4.225C13.9833 4.375 14.1 4.56667 14.15 4.8L14.4 6H19C19.2833 6 19.5208 6.09583 19.7125 6.2875C19.9042 6.47917 20 6.71667 20 7V15C20 15.2833 19.9042 15.5208 19.7125 15.7125C19.5208 15.9042 19.2833 16 19 16H13.825C13.5917 16 13.3833 15.925 13.2 15.775C13.0167 15.625 12.9 15.4333 12.85 15.2L12.6 14H7Z"
              fill="currentColor"/>
    </symbol>
    <symbol fill="none" xmlns="http://www.w3.org/2000/svg" viewBox="0 0 24 24" id="arrow-right">
        <path d="M15.9619 11.6543C15.9619 11.874 15.874 12.0674 15.707 12.2344L8.74609 19.0459C8.58789 19.2041 8.39453 19.2832 8.16602 19.2832C7.71777 19.2832 7.36621 18.9404 7.36621 18.4834C7.36621 18.2549 7.4541 18.0615 7.59473 17.9121L13.9932 11.6543L7.59473 5.39648C7.4541 5.24707 7.36621 5.04492 7.36621 4.8252C7.36621 4.36816 7.71777 4.02539 8.16602 4.02539C8.39453 4.02539 8.58789 4.10449 8.74609 4.25391L15.707 11.0742C15.874 11.2324 15.9619 11.4346 15.9619 11.6543Z"
              fill="currentColor"/>
    </symbol>
    <symbol fill="none" xmlns="http://www.w3.org/2000/svg" viewBox="0 0 24 24" id="arrow-left">
        <path d="M7.36621 11.6543C7.36621 11.874 7.4541 12.0674 7.62109 12.2344L14.582 19.0459C14.7402 19.2041 14.9336 19.2832 15.1621 19.2832C15.6104 19.2832 15.9619 18.9404 15.9619 18.4834C15.9619 18.2549 15.874 18.0615 15.7334 17.9121L9.33496 11.6543L15.7334 5.39648C15.874 5.24707 15.9619 5.04492 15.9619 4.8252C15.9619 4.36816 15.6104 4.02539 15.1621 4.02539C14.9336 4.02539 14.7402 4.10449 14.582 4.25391L7.62109 11.0742C7.4541 11.2324 7.36621 11.4346 7.36621 11.6543Z"
              fill="currentColor"/>
    </symbol>
    <symbol fill="none" xmlns="http://www.w3.org/2000/svg" viewBox="0 0 24 24" id="check">
        <path d="M9.45222 15.7004L18.5272 6.62539C18.6783 6.47539 18.8578 6.40039 19.0655 6.40039C19.2733 6.40039 19.4522 6.47583 19.6022 6.62672C19.7522 6.77758 19.8272 6.95675 19.8272 7.16422C19.8272 7.37167 19.7522 7.55039 19.6022 7.70039L9.97722 17.3254C9.82722 17.4754 9.65222 17.5504 9.45222 17.5504C9.25222 17.5504 9.07722 17.4754 8.92722 17.3254L4.37722 12.7754C4.22722 12.6243 4.15639 12.4448 4.16472 12.2371C4.17305 12.0293 4.25266 11.8504 4.40355 11.7004C4.55441 11.5504 4.73358 11.4754 4.94105 11.4754C5.1485 11.4754 5.32722 11.5504 5.47722 11.7004L9.45222 15.7004Z"
              fill="currentColor"/>
    </symbol>
    <symbol fill="none" xmlns="http://www.w3.org/2000/svg" viewBox="0 0 24 24" id="soy-logo">
        <path fill-rule="evenodd" clip-rule="evenodd"
              d="M13.9969 5.91136C13.8671 6.26001 13.616 6.76769 13.08 7.31011C12.263 5.68038 12.3742 3.91029 13.3413 2.86914C13.834 2.33876 14.4474 2.10669 14.8922 2C14.8194 2.1473 14.7056 2.39188 14.5956 2.70455C14.3371 3.43888 14.2936 3.99621 14.2532 4.51306C14.2168 4.97873 14.1831 5.41154 13.9969 5.91136ZM12.6095 7.27558C12.617 7.08396 12.6005 6.80418 12.4643 6.5176C12.2216 6.00736 11.7266 5.74472 11.1072 5.41604L11.1071 5.41604L11.1071 5.41603L11.1069 5.41593C10.993 5.35544 10.8863 5.30306 10.7857 5.25364L10.7857 5.25364L10.7857 5.25362L10.7857 5.25362C10.4236 5.07572 10.1395 4.93613 9.86984 4.59466C9.78332 4.48519 9.72316 4.38637 9.68538 4.3189C9.63032 4.61689 9.59238 5.10805 9.8097 5.62283C10.0856 6.27596 10.7767 6.97696 11.4539 6.98946C11.479 6.98995 11.5082 6.98955 11.5408 6.98911L11.5409 6.98911H11.5409C11.7376 6.98643 12.0614 6.98203 12.4114 7.1573C12.4989 7.20115 12.5664 7.24547 12.6095 7.27558ZM15.028 7.45552C15.8702 7.62706 16.7416 7.80447 17.3125 7.33045C18.0162 6.74587 17.8222 5.53751 17.7969 5.39221C17.7071 5.40441 17.5731 5.43005 17.421 5.49026C17.159 5.59381 17.0139 5.7325 16.8676 5.87242C16.7551 5.97996 16.6419 6.08823 16.4742 6.18184C16.3085 6.27432 16.088 6.32065 15.6415 6.37839C15.3547 6.41549 15.149 6.43377 14.9915 6.44777L14.9914 6.44777L14.9914 6.44777C14.6945 6.47415 14.5685 6.48535 14.393 6.57866C14.134 6.71638 13.9705 6.92499 13.8701 7.08819C14.1473 7.20955 14.5407 7.35638 15.028 7.45552ZM11.1814 12.6692C11.2387 12.9893 11.3312 13.7559 10.9782 14.6174C10.6968 15.3044 10.262 15.7343 10.0182 15.9432C10.0381 16.2449 10.0267 16.6477 9.90172 17.098C9.59819 18.1927 8.83057 18.8237 8.5221 19.0508C8.25759 18.8063 7.71114 18.2347 7.4343 17.3165C7.20557 16.5581 7.26479 15.9088 7.32201 15.5615C7.25924 15.4364 6.63907 14.1524 7.30751 13.0043C7.57388 12.5469 7.94512 12.2821 8.18618 12.1427C8.13374 11.947 7.67798 10.1342 8.7917 8.89775L8.79195 8.89747C8.9632 8.70746 9.44542 8.17245 10.2642 8.05007C11.218 7.9077 11.7195 8.32515 12.0149 8.60759C12.0838 8.67348 12.1457 8.74485 12.2007 8.82088C12.4306 8.44773 12.7744 8.08935 13.2849 7.90935C14.4147 7.51084 15.6417 8.23932 16.2152 9.15123C16.8143 10.104 16.7687 11.3666 16.101 12.358C16.2798 12.5966 16.8088 13.3654 16.7911 14.4692C16.7765 15.3859 16.3927 16.0417 16.2184 16.3043C16.3957 16.848 16.4252 17.3159 16.4022 17.6836C16.2315 20.4133 12.9013 21.8984 12.6651 22C12.3296 21.5056 11.8931 20.7317 11.6395 19.7038C11.2627 18.1763 11.4878 16.892 11.6545 16.2283C11.5149 15.955 11.3875 15.6215 11.3203 15.2323C11.0456 13.6422 11.9893 12.355 12.2498 12.0218C12.2119 11.9654 12.153 11.8741 12.0886 11.7528C11.9761 11.9395 11.8464 12.1085 11.7027 12.2514C11.5211 12.4711 11.3185 12.5987 11.1814 12.6692Z"
              fill="currentColor"/>
    </symbol>
    <symbol fill="none" xmlns="http://www.w3.org/2000/svg" viewBox="0 0 24 24" id="fight">
        <path d="M19.05 21.6004L16.125 18.7004L13.925 20.9004L13.225 20.2004C12.8417 19.8171 12.65 19.3421 12.65 18.7754C12.65 18.2087 12.8417 17.7337 13.225 17.3504L17.45 13.1254C17.8333 12.7421 18.3083 12.5504 18.875 12.5504C19.4417 12.5504 19.9167 12.7421 20.3 13.1254L21 13.8254L18.8 16.0254L21.7 18.9504C21.9 19.1504 22 19.3837 22 19.6504C22 19.9171 21.9 20.1504 21.7 20.3504L20.45 21.6004C20.25 21.8004 20.0167 21.9004 19.75 21.9004C19.4833 21.9004 19.25 21.8004 19.05 21.6004ZM22 5.90039L10.65 17.2504L10.775 17.3504C11.1583 17.7337 11.35 18.2087 11.35 18.7754C11.35 19.3421 11.1583 19.8171 10.775 20.2004L10.075 20.9004L7.875 18.7004L4.95 21.6004C4.75 21.8004 4.51667 21.9004 4.25 21.9004C3.98333 21.9004 3.75 21.8004 3.55 21.6004L2.3 20.3504C2.1 20.1504 2 19.9171 2 19.6504C2 19.3837 2.1 19.1504 2.3 18.9504L5.2 16.0254L3 13.8254L3.7 13.1254C4.08333 12.7421 4.55833 12.5504 5.125 12.5504C5.69167 12.5504 6.16667 12.7421 6.55 13.1254L6.65 13.2504L18 1.90039H22V5.90039ZM6.95 10.8504L2 5.90039V1.90039H6L10.95 6.85039L6.95 10.8504Z"
              fill="currentColor"/>
    </symbol>
    <symbol fill="none" xmlns="http://www.w3.org/2000/svg" viewBox="0 0 24 24" id="target">
        <path d="M12 22C10.6167 22 9.31667 21.7375 8.1 21.2125C6.88333 20.6875 5.825 19.975 4.925 19.075C4.025 18.175 3.3125 17.1167 2.7875 15.9C2.2625 14.6833 2 13.3833 2 12C2 10.6167 2.2625 9.31667 2.7875 8.1C3.3125 6.88333 4.025 5.825 4.925 4.925C5.825 4.025 6.88333 3.3125 8.1 2.7875C9.31667 2.2625 10.6167 2 12 2C13.3833 2 14.6833 2.2625 15.9 2.7875C17.1167 3.3125 18.175 4.025 19.075 4.925C19.975 5.825 20.6875 6.88333 21.2125 8.1C21.7375 9.31667 22 10.6167 22 12C22 13.3833 21.7375 14.6833 21.2125 15.9C20.6875 17.1167 19.975 18.175 19.075 19.075C18.175 19.975 17.1167 20.6875 15.9 21.2125C14.6833 21.7375 13.3833 22 12 22ZM12 20C14.2333 20 16.125 19.225 17.675 17.675C19.225 16.125 20 14.2333 20 12C20 9.76667 19.225 7.875 17.675 6.325C16.125 4.775 14.2333 4 12 4C9.76667 4 7.875 4.775 6.325 6.325C4.775 7.875 4 9.76667 4 12C4 14.2333 4.775 16.125 6.325 17.675C7.875 19.225 9.76667 20 12 20ZM12 18C10.3333 18 8.91667 17.4167 7.75 16.25C6.58333 15.0833 6 13.6667 6 12C6 10.3333 6.58333 8.91667 7.75 7.75C8.91667 6.58333 10.3333 6 12 6C13.6667 6 15.0833 6.58333 16.25 7.75C17.4167 8.91667 18 10.3333 18 12C18 13.6667 17.4167 15.0833 16.25 16.25C15.0833 17.4167 13.6667 18 12 18ZM12 16C13.1 16 14.0417 15.6083 14.825 14.825C15.6083 14.0417 16 13.1 16 12C16 10.9 15.6083 9.95833 14.825 9.175C14.0417 8.39167 13.1 8 12 8C10.9 8 9.95833 8.39167 9.175 9.175C8.39167 9.95833 8 10.9 8 12C8 13.1 8.39167 14.0417 9.175 14.825C9.95833 15.6083 10.9 16 12 16ZM12 14C11.45 14 10.9792 13.8042 10.5875 13.4125C10.1958 13.0208 10 12.55 10 12C10 11.45 10.1958 10.9792 10.5875 10.5875C10.9792 10.1958 11.45 10 12 10C12.55 10 13.0208 10.1958 13.4125 10.5875C13.8042 10.9792 14 11.45 14 12C14 12.55 13.8042 13.0208 13.4125 13.4125C13.0208 13.8042 12.55 14 12 14Z"
              fill="currentColor"/>
    </symbol>
    <symbol fill="none" xmlns="http://www.w3.org/2000/svg" viewBox="0 0 24 24" id="lamp">
        <path d="M12 22C11.5667 22 11.175 21.8958 10.825 21.6875C10.475 21.4792 10.2 21.2 10 20.85C9.45 20.85 8.97917 20.6542 8.5875 20.2625C8.19583 19.8708 8 19.4 8 18.85V15.3C7.01667 14.65 6.22917 13.7917 5.6375 12.725C5.04583 11.6583 4.75 10.5 4.75 9.25C4.75 7.23333 5.45417 5.52083 6.8625 4.1125C8.27083 2.70417 9.98333 2 12 2C14.0167 2 15.7292 2.70417 17.1375 4.1125C18.5458 5.52083 19.25 7.23333 19.25 9.25C19.25 10.5333 18.9542 11.7 18.3625 12.75C17.7708 13.8 16.9833 14.65 16 15.3V18.85C16 19.4 15.8042 19.8708 15.4125 20.2625C15.0208 20.6542 14.55 20.85 14 20.85C13.8 21.2 13.525 21.4792 13.175 21.6875C12.825 21.8958 12.4333 22 12 22ZM10 18.85H14V17.95H10V18.85ZM10 16.95H14V16H10V16.95ZM12.75 14V11.3L14.425 9.625C14.575 9.475 14.65 9.3 14.65 9.1C14.65 8.9 14.575 8.725 14.425 8.575C14.275 8.425 14.1 8.35 13.9 8.35C13.7 8.35 13.525 8.425 13.375 8.575L12 9.95L10.625 8.575C10.475 8.425 10.3 8.35 10.1 8.35C9.9 8.35 9.725 8.425 9.575 8.575C9.425 8.725 9.35 8.9 9.35 9.1C9.35 9.3 9.425 9.475 9.575 9.625L11.25 11.3V14H12.75Z"
              fill="currentColor"/>
    </symbol>
    <symbol fill="none" xmlns="http://www.w3.org/2000/svg" viewBox="0 0 24 24" id="code">
        <path d="M4.82578 12.0254L8.70078 15.9004C8.88411 16.0837 8.97578 16.3171 8.97578 16.6004C8.97578 16.8837 8.88411 17.1171 8.70078 17.3004C8.51745 17.4837 8.28411 17.5754 8.00078 17.5754C7.71745 17.5754 7.48411 17.4837 7.30078 17.3004L2.70078 12.7004C2.60078 12.6004 2.52995 12.4921 2.48828 12.3754C2.44661 12.2587 2.42578 12.1337 2.42578 12.0004C2.42578 11.8671 2.44661 11.7421 2.48828 11.6254C2.52995 11.5087 2.60078 11.4004 2.70078 11.3004L7.30078 6.70039C7.50078 6.50039 7.73828 6.40039 8.01328 6.40039C8.28828 6.40039 8.52578 6.50039 8.72578 6.70039C8.92578 6.90039 9.02578 7.13789 9.02578 7.41289C9.02578 7.68789 8.92578 7.92539 8.72578 8.12539L4.82578 12.0254ZM19.1758 11.9754L15.3008 8.10039C15.1174 7.91706 15.0258 7.68372 15.0258 7.40039C15.0258 7.11706 15.1174 6.88372 15.3008 6.70039C15.4841 6.51706 15.7174 6.42539 16.0008 6.42539C16.2841 6.42539 16.5174 6.51706 16.7008 6.70039L21.3008 11.3004C21.4008 11.4004 21.4716 11.5087 21.5133 11.6254C21.5549 11.7421 21.5758 11.8671 21.5758 12.0004C21.5758 12.1337 21.5549 12.2587 21.5133 12.3754C21.4716 12.4921 21.4008 12.6004 21.3008 12.7004L16.7008 17.3004C16.5008 17.5004 16.2674 17.5962 16.0008 17.5879C15.7341 17.5796 15.5008 17.4754 15.3008 17.2754C15.1008 17.0754 15.0008 16.8379 15.0008 16.5629C15.0008 16.2879 15.1008 16.0504 15.3008 15.8504L19.1758 11.9754Z"
              fill="currentColor"/>
    </symbol>
    <symbol fill="none" xmlns="http://www.w3.org/2000/svg" viewBox="0 0 24 24" id="search">
        <path d="M3 10.0137C3 6.14648 6.14648 3 10.0137 3C13.8809 3 17.0273 6.14648 17.0273 10.0137C17.0273 11.6133 16.4912 13.0811 15.5859 14.2588L19.8838 18.583C20.0684 18.7676 20.1738 19.0225 20.1738 19.3037C20.1738 19.8926 19.7607 20.3408 19.1631 20.3408C18.8818 20.3408 18.6182 20.2441 18.416 20.042L14.0918 15.709C12.9404 16.5352 11.543 17.0273 10.0137 17.0273C6.14648 17.0273 3 13.8809 3 10.0137ZM4.50293 10.0137C4.50293 13.0547 6.97266 15.5244 10.0137 15.5244C13.0547 15.5244 15.5244 13.0547 15.5244 10.0137C15.5244 6.97266 13.0547 4.50293 10.0137 4.50293C6.97266 4.50293 4.50293 6.97266 4.50293 10.0137Z"
              fill="currentColor"/>
    </symbol>
    <symbol fill="none" xmlns="http://www.w3.org/2000/svg" viewBox="0 0 24 24" id="email">
        <path d="M4 20C3.45 20 2.97917 19.8042 2.5875 19.4125C2.19583 19.0208 2 18.55 2 18V6C2 5.45 2.19583 4.97917 2.5875 4.5875C2.97917 4.19583 3.45 4 4 4H20C20.55 4 21.0208 4.19583 21.4125 4.5875C21.8042 4.97917 22 5.45 22 6V18C22 18.55 21.8042 19.0208 21.4125 19.4125C21.0208 19.8042 20.55 20 20 20H4ZM12 12.825C12.0833 12.825 12.1708 12.8125 12.2625 12.7875C12.3542 12.7625 12.4417 12.725 12.525 12.675L19.6 8.25C19.7333 8.16667 19.8333 8.0625 19.9 7.9375C19.9667 7.8125 20 7.675 20 7.525C20 7.19167 19.8583 6.94167 19.575 6.775C19.2917 6.60833 19 6.61667 18.7 6.8L12 11L5.3 6.8C5 6.61667 4.70833 6.6125 4.425 6.7875C4.14167 6.9625 4 7.20833 4 7.525C4 7.69167 4.03333 7.8375 4.1 7.9625C4.16667 8.0875 4.26667 8.18333 4.4 8.25L11.475 12.675C11.5583 12.725 11.6458 12.7625 11.7375 12.7875C11.8292 12.8125 11.9167 12.825 12 12.825Z"
              fill="currentColor"/>
    </symbol>
    <symbol fill="none" xmlns="http://www.w3.org/2000/svg" viewBox="0 0 24 24" id="telegram">
        <path d="M2.91512 11.8078C9.19912 9.04334 17.3311 5.67284 18.4536 5.20634C21.3981 3.98534 22.3016 4.21934 21.8511 6.92334C21.5276 8.86684 20.5941 15.3013 19.8501 19.3063C19.4086 21.6813 18.4181 21.9628 16.8606 20.9353C16.1116 20.4408 12.3311 17.9408 11.5106 17.3538C10.7616 16.8188 9.72862 16.1753 11.0241 14.9078C11.4851 14.4563 14.5071 11.5708 16.8616 9.32484C17.1701 9.02984 16.7826 8.54534 16.4266 8.78184C13.2531 10.8863 8.85312 13.8073 8.29312 14.1878C7.44712 14.7623 6.63462 15.0258 5.17612 14.6068C4.07412 14.2903 2.99762 13.9128 2.57862 13.7688C0.965116 13.2148 1.34812 12.4973 2.91512 11.8078Z"
              fill="currentColor"/>
    </symbol>
    <symbol fill="none" xmlns="http://www.w3.org/2000/svg" viewBox="0 0 24 24" id="contact">
        <path d="M2 21C1.45 21 0.979167 20.8042 0.5875 20.4125C0.195833 20.0208 0 19.55 0 19V5C0 4.45 0.195833 3.97917 0.5875 3.5875C0.979167 3.19583 1.45 3 2 3H22C22.55 3 23.0208 3.19583 23.4125 3.5875C23.8042 3.97917 24 4.45 24 5V19C24 19.55 23.8042 20.0208 23.4125 20.4125C23.0208 20.8042 22.55 21 22 21H2ZM9 14C9.83333 14 10.5417 13.7083 11.125 13.125C11.7083 12.5417 12 11.8333 12 11C12 10.1667 11.7083 9.45833 11.125 8.875C10.5417 8.29167 9.83333 8 9 8C8.16667 8 7.45833 8.29167 6.875 8.875C6.29167 9.45833 6 10.1667 6 11C6 11.8333 6.29167 12.5417 6.875 13.125C7.45833 13.7083 8.16667 14 9 14ZM2.1 19H15.9C15.2 17.75 14.2333 16.7708 13 16.0625C11.7667 15.3542 10.4333 15 9 15C7.56667 15 6.23333 15.3542 5 16.0625C3.76667 16.7708 2.8 17.75 2.1 19ZM15 11H20C20.2833 11 20.5208 10.9042 20.7125 10.7125C20.9042 10.5208 21 10.2833 21 10V7C21 6.71667 20.9042 6.47917 20.7125 6.2875C20.5208 6.09583 20.2833 6 20 6H15C14.7167 6 14.4792 6.09583 14.2875 6.2875C14.0958 6.47917 14 6.71667 14 7V10C14 10.2833 14.0958 10.5208 14.2875 10.7125C14.4792 10.9042 14.7167 11 15 11ZM17.5 8.75L19.35 7.45C19.4833 7.35 19.625 7.3375 19.775 7.4125C19.925 7.4875 20 7.60833 20 7.775C20 7.79167 19.9417 7.90833 19.825 8.125L18.075 9.35C17.8917 9.48333 17.7 9.55 17.5 9.55C17.3 9.55 17.1083 9.48333 16.925 9.35L15.175 8.125C15.1583 8.10833 15.1 7.99167 15 7.775C15 7.60833 15.075 7.4875 15.225 7.4125C15.375 7.3375 15.5167 7.35 15.65 7.45L17.5 8.75Z"
              fill="currentColor"/>
    </symbol>
    <symbol fill="none" xmlns="http://www.w3.org/2000/svg" viewBox="0 0 24 24" id="upcoming">
        <path d="M19 22H16C15.7167 22 15.4792 21.9042 15.2875 21.7125C15.0958 21.5208 15 21.2833 15 21C15 20.7167 15.0958 20.4792 15.2875 20.2875C15.4792 20.0958 15.7167 20 16 20H19V10H5V13C5 13.2833 4.90417 13.5208 4.7125 13.7125C4.52083 13.9042 4.28333 14 4 14C3.71667 14 3.47917 13.9042 3.2875 13.7125C3.09583 13.5208 3 13.2833 3 13V6C3 5.45 3.19583 4.97917 3.5875 4.5875C3.97917 4.19583 4.45 4 5 4H6V3C6 2.71667 6.09583 2.47917 6.2875 2.2875C6.47917 2.09583 6.71667 2 7 2C7.28333 2 7.52083 2.09583 7.7125 2.2875C7.90417 2.47917 8 2.71667 8 3V4H16V3C16 2.71667 16.0958 2.47917 16.2875 2.2875C16.4792 2.09583 16.7167 2 17 2C17.2833 2 17.5208 2.09583 17.7125 2.2875C17.9042 2.47917 18 2.71667 18 3V4H19C19.55 4 20.0208 4.19583 20.4125 4.5875C20.8042 4.97917 21 5.45 21 6V20C21 20.55 20.8042 21.0208 20.4125 21.4125C20.0208 21.8042 19.55 22 19 22ZM9.175 20H2C1.71667 20 1.47917 19.9042 1.2875 19.7125C1.09583 19.5208 1 19.2833 1 19C1 18.7167 1.09583 18.4792 1.2875 18.2875C1.47917 18.0958 1.71667 18 2 18H9.175L7.3 16.1C7.11667 15.9167 7.02083 15.6875 7.0125 15.4125C7.00417 15.1375 7.1 14.9 7.3 14.7C7.48333 14.5167 7.71667 14.425 8 14.425C8.28333 14.425 8.51667 14.5167 8.7 14.7L12.3 18.3C12.5 18.5 12.6 18.7333 12.6 19C12.6 19.2667 12.5 19.5 12.3 19.7L8.7 23.3C8.51667 23.4833 8.2875 23.5792 8.0125 23.5875C7.7375 23.5958 7.5 23.5 7.3 23.3C7.11667 23.1167 7.025 22.8833 7.025 22.6C7.025 22.3167 7.11667 22.0833 7.3 21.9L9.175 20Z"
              fill="currentColor"/>
    </symbol>
    <symbol fill="none" xmlns="http://www.w3.org/2000/svg" viewBox="0 0 24 24" id="gas">
        <path d="M5 21C4.71667 21 4.47917 20.9042 4.2875 20.7125C4.09583 20.5208 4 20.2833 4 20V5C4 4.45 4.19583 3.97917 4.5875 3.5875C4.97917 3.19583 5.45 3 6 3H12C12.55 3 13.0208 3.19583 13.4125 3.5875C13.8042 3.97917 14 4.45 14 5V12H15C15.55 12 16.0208 12.1958 16.4125 12.5875C16.8042 12.9792 17 13.45 17 14V18.5C17 18.7833 17.0958 19.0208 17.2875 19.2125C17.4792 19.4042 17.7167 19.5 18 19.5C18.2833 19.5 18.5208 19.4042 18.7125 19.2125C18.9042 19.0208 19 18.7833 19 18.5V11.3C18.85 11.3833 18.6917 11.4375 18.525 11.4625C18.3583 11.4875 18.1833 11.5 18 11.5C17.3 11.5 16.7083 11.2583 16.225 10.775C15.7417 10.2917 15.5 9.7 15.5 9C15.5 8.46667 15.6458 7.9875 15.9375 7.5625C16.2292 7.1375 16.6167 6.83333 17.1 6.65L15.525 5.075C15.375 4.925 15.3 4.75 15.3 4.55C15.3 4.35 15.375 4.175 15.525 4.025C15.675 3.875 15.85 3.8 16.05 3.8C16.25 3.8 16.425 3.86667 16.575 4L19.75 7.1C20 7.35 20.1875 7.64167 20.3125 7.975C20.4375 8.30833 20.5 8.65 20.5 9V18.5C20.5 19.2 20.2583 19.7917 19.775 20.275C19.2917 20.7583 18.7 21 18 21C17.3 21 16.7083 20.7583 16.225 20.275C15.7417 19.7917 15.5 19.2 15.5 18.5V13.5H14V20C14 20.2833 13.9042 20.5208 13.7125 20.7125C13.5208 20.9042 13.2833 21 13 21H5ZM6 10H12V5H6V10ZM18 10C18.2833 10 18.5208 9.90417 18.7125 9.7125C18.9042 9.52083 19 9.28333 19 9C19 8.71667 18.9042 8.47917 18.7125 8.2875C18.5208 8.09583 18.2833 8 18 8C17.7167 8 17.4792 8.09583 17.2875 8.2875C17.0958 8.47917 17 8.71667 17 9C17 9.28333 17.0958 9.52083 17.2875 9.7125C17.4792 9.90417 17.7167 10 18 10Z"
              fill="currentColor"/>
    </symbol>
    <symbol fill="none" xmlns="http://www.w3.org/2000/svg" viewBox="0 0 24 24" id="chart">
        <path d="M2.75 21C2.5375 21 2.35938 20.9281 2.21563 20.7844C2.07187 20.6406 2 20.4625 2 20.25V9.75C2 9.5375 2.07187 9.35938 2.21563 9.21563C2.35938 9.07188 2.5375 9 2.75 9H6.25C6.4625 9 6.64062 9.07188 6.78438 9.21563C6.92812 9.35938 7 9.5375 7 9.75V20.25C7 20.4625 6.92812 20.6406 6.78438 20.7844C6.64062 20.9281 6.4625 21 6.25 21H2.75ZM10.25 21C10.0375 21 9.85938 20.9281 9.71563 20.7844C9.57188 20.6406 9.5 20.4625 9.5 20.25V3.75C9.5 3.5375 9.57188 3.35938 9.71563 3.21563C9.85938 3.07187 10.0375 3 10.25 3H13.75C13.9625 3 14.1406 3.07187 14.2844 3.21563C14.4281 3.35938 14.5 3.5375 14.5 3.75V20.25C14.5 20.4625 14.4281 20.6406 14.2844 20.7844C14.1406 20.9281 13.9625 21 13.75 21H10.25ZM17.75 21C17.5375 21 17.3594 20.9281 17.2156 20.7844C17.0719 20.6406 17 20.4625 17 20.25V11.75C17 11.5375 17.0719 11.3594 17.2156 11.2156C17.3594 11.0719 17.5375 11 17.75 11H21.25C21.4625 11 21.6406 11.0719 21.7844 11.2156C21.9281 11.3594 22 11.5375 22 11.75V20.25C22 20.4625 21.9281 20.6406 21.7844 20.7844C21.6406 20.9281 21.4625 21 21.25 21H17.75Z"
              fill="currentColor"/>
    </symbol>
    <symbol fill="none" xmlns="http://www.w3.org/2000/svg" viewBox="0 0 24 24" id="forward">
        <path d="M18.2236 14.8799C18.2236 15.1201 18.1416 15.3193 17.9775 15.4775C17.8193 15.6357 17.6348 15.7148 17.4238 15.7148C17.207 15.7148 17.0195 15.6328 16.8613 15.4688C16.709 15.3047 16.6328 15.1201 16.6328 14.915V11.6631L16.791 7.55859L15.3408 9.20215L6.61328 17.9209C6.45508 18.0791 6.27051 18.1582 6.05957 18.1582C5.91309 18.1582 5.77832 18.1201 5.65527 18.0439C5.53223 17.9678 5.43262 17.8682 5.35645 17.7451C5.28027 17.6162 5.24219 17.4814 5.24219 17.3408C5.24219 17.1357 5.32422 16.9512 5.48828 16.7871L14.1982 8.05957L15.833 6.62695L11.5439 6.76758H8.48535C8.28027 6.76758 8.0957 6.69141 7.93164 6.53906C7.77344 6.38086 7.69434 6.19629 7.69434 5.98535C7.69434 5.77441 7.77051 5.58984 7.92285 5.43164C8.0752 5.26758 8.27441 5.18555 8.52051 5.18555H17.3623C17.626 5.18555 17.834 5.26465 17.9863 5.42285C18.1387 5.58105 18.2148 5.78613 18.2148 6.03809L18.2236 14.8799Z"
              fill="currentColor"/>
    </symbol>
    <symbol fill="none" xmlns="http://www.w3.org/2000/svg" viewBox="0 0 24 24" id="wallet">
        <path d="M16 13.5C16.4333 13.5 16.7917 13.3583 17.075 13.075C17.3583 12.7917 17.5 12.4333 17.5 12C17.5 11.5667 17.3583 11.2083 17.075 10.925C16.7917 10.6417 16.4333 10.5 16 10.5C15.5667 10.5 15.2083 10.6417 14.925 10.925C14.6417 11.2083 14.5 11.5667 14.5 12C14.5 12.4333 14.6417 12.7917 14.925 13.075C15.2083 13.3583 15.5667 13.5 16 13.5ZM13 17C12.45 17 11.9792 16.8042 11.5875 16.4125C11.1958 16.0208 11 15.55 11 15V9C11 8.45 11.1958 7.97917 11.5875 7.5875C11.9792 7.19583 12.45 7 13 7H20C20.55 7 21.0208 7.19583 21.4125 7.5875C21.8042 7.97917 22 8.45 22 9V15C22 15.55 21.8042 16.0208 21.4125 16.4125C21.0208 16.8042 20.55 17 20 17H13ZM5 21C4.45 21 3.97917 20.8042 3.5875 20.4125C3.19583 20.0208 3 19.55 3 19V5C3 4.45 3.19583 3.97917 3.5875 3.5875C3.97917 3.19583 4.45 3 5 3H19C19.55 3 20.0208 3.19583 20.4125 3.5875C20.8042 3.97917 21 4.45 21 5H13C11.8167 5 10.8542 5.37083 10.1125 6.1125C9.37083 6.85417 9 7.81667 9 9V15C9 16.1833 9.37083 17.1458 10.1125 17.8875C10.8542 18.6292 11.8167 19 13 19H21C21 19.55 20.8042 20.0208 20.4125 20.4125C20.0208 20.8042 19.55 21 19 21H5Z"
              fill="currentColor"/>
    </symbol>
    <symbol fill="none" xmlns="http://www.w3.org/2000/svg" viewBox="0 0 24 24" id="references">
        <path d="M6 23C5.16667 23 4.45833 22.7083 3.875 22.125C3.29167 21.5417 3 20.8333 3 20C3 19.1667 3.29167 18.4583 3.875 17.875C4.45833 17.2917 5.16667 17 6 17C6.23333 17 6.45 17.025 6.65 17.075C6.85 17.125 7.04167 17.1917 7.225 17.275L8.65 15.5C8.18333 14.9833 7.85833 14.4 7.675 13.75C7.49167 13.1 7.45 12.45 7.55 11.8L5.525 11.125C5.24167 11.5417 4.88333 11.875 4.45 12.125C4.01667 12.375 3.53333 12.5 3 12.5C2.16667 12.5 1.45833 12.2083 0.875 11.625C0.291667 11.0417 0 10.3333 0 9.5C0 8.66667 0.291667 7.95833 0.875 7.375C1.45833 6.79167 2.16667 6.5 3 6.5C3.83333 6.5 4.54167 6.79167 5.125 7.375C5.70833 7.95833 6 8.66667 6 9.5V9.7L8.025 10.4C8.35833 9.8 8.80417 9.29167 9.3625 8.875C9.92083 8.45833 10.55 8.19167 11.25 8.075V5.9C10.6 5.71667 10.0625 5.3625 9.6375 4.8375C9.2125 4.3125 9 3.7 9 3C9 2.16667 9.29167 1.45833 9.875 0.875C10.4583 0.291667 11.1667 0 12 0C12.8333 0 13.5417 0.291667 14.125 0.875C14.7083 1.45833 15 2.16667 15 3C15 3.7 14.7833 4.3125 14.35 4.8375C13.9167 5.3625 13.3833 5.71667 12.75 5.9V8.075C13.45 8.19167 14.0792 8.45833 14.6375 8.875C15.1958 9.29167 15.6417 9.8 15.975 10.4L18 9.7V9.5C18 8.66667 18.2917 7.95833 18.875 7.375C19.4583 6.79167 20.1667 6.5 21 6.5C21.8333 6.5 22.5417 6.79167 23.125 7.375C23.7083 7.95833 24 8.66667 24 9.5C24 10.3333 23.7083 11.0417 23.125 11.625C22.5417 12.2083 21.8333 12.5 21 12.5C20.4667 12.5 19.9792 12.375 19.5375 12.125C19.0958 11.875 18.7417 11.5417 18.475 11.125L16.45 11.8C16.55 12.45 16.5083 13.0958 16.325 13.7375C16.1417 14.3792 15.8167 14.9667 15.35 15.5L16.775 17.25C16.9583 17.1667 17.15 17.1042 17.35 17.0625C17.55 17.0208 17.7667 17 18 17C18.8333 17 19.5417 17.2917 20.125 17.875C20.7083 18.4583 21 19.1667 21 20C21 20.8333 20.7083 21.5417 20.125 22.125C19.5417 22.7083 18.8333 23 18 23C17.1667 23 16.4583 22.7083 15.875 22.125C15.2917 21.5417 15 20.8333 15 20C15 19.6667 15.0542 19.3458 15.1625 19.0375C15.2708 18.7292 15.4167 18.45 15.6 18.2L14.175 16.425C13.4917 16.8083 12.7625 17 11.9875 17C11.2125 17 10.4833 16.8083 9.8 16.425L8.4 18.2C8.58333 18.45 8.72917 18.7292 8.8375 19.0375C8.94583 19.3458 9 19.6667 9 20C9 20.8333 8.70833 21.5417 8.125 22.125C7.54167 22.7083 6.83333 23 6 23Z"
              fill="currentColor"/>
    </symbol>
    <symbol fill="none" xmlns="http://www.w3.org/2000/svg" viewBox="0 0 24 24" id="architecture">
        <path d="M11 21.725L4 17.7C3.68333 17.5167 3.4375 17.275 3.2625 16.975C3.0875 16.675 3 16.3417 3 15.975V8.025C3 7.65833 3.0875 7.325 3.2625 7.025C3.4375 6.725 3.68333 6.48333 4 6.3L11 2.275C11.3167 2.09167 11.65 2 12 2C12.35 2 12.6833 2.09167 13 2.275L20 6.3C20.3167 6.48333 20.5625 6.725 20.7375 7.025C20.9125 7.325 21 7.65833 21 8.025V15.975C21 16.3417 20.9125 16.675 20.7375 16.975C20.5625 17.275 20.3167 17.5167 20 17.7L13 21.725C12.6833 21.9083 12.35 22 12 22C11.65 22 11.3167 21.9083 11 21.725ZM11 12.575V19.425L12 20L13 19.425V12.575L19 9.1V8.05L17.925 7.425L12 10.85L6.075 7.425L5 8.05V9.1L11 12.575Z"
              fill="currentColor"/>
    </symbol>
    <symbol fill="none" xmlns="http://www.w3.org/2000/svg" viewBox="0 0 24 24" id="reports">
        <path d="M6 22C5.45 22 4.97917 21.8042 4.5875 21.4125C4.19583 21.0208 4 20.55 4 20V4C4 3.45 4.19583 2.97917 4.5875 2.5875C4.97917 2.19583 5.45 2 6 2H13.175C13.4417 2 13.6958 2.05 13.9375 2.15C14.1792 2.25 14.3917 2.39167 14.575 2.575L19.425 7.425C19.6083 7.60833 19.75 7.82083 19.85 8.0625C19.95 8.30417 20 8.55833 20 8.825V20C20 20.55 19.8042 21.0208 19.4125 21.4125C19.0208 21.8042 18.55 22 18 22H6ZM13 8C13 8.28333 13.0958 8.52083 13.2875 8.7125C13.4792 8.90417 13.7167 9 14 9H18L13 4V8ZM10.925 15.125L9.525 13.725C9.425 13.625 9.31667 13.55 9.2 13.5C9.08333 13.45 8.9625 13.425 8.8375 13.425C8.7125 13.425 8.5875 13.45 8.4625 13.5C8.3375 13.55 8.225 13.625 8.125 13.725C7.925 13.925 7.825 14.1625 7.825 14.4375C7.825 14.7125 7.925 14.95 8.125 15.15L10.25 17.3C10.35 17.4 10.4583 17.4708 10.575 17.5125C10.6917 17.5542 10.8167 17.575 10.95 17.575C11.0833 17.575 11.2083 17.5542 11.325 17.5125C11.4417 17.4708 11.55 17.4 11.65 17.3L15.875 13.075C16.075 12.875 16.175 12.6333 16.175 12.35C16.175 12.0667 16.075 11.825 15.875 11.625C15.675 11.425 15.4333 11.325 15.15 11.325C14.8667 11.325 14.625 11.425 14.425 11.625L10.925 15.125Z"
              fill="currentColor"/>
    </symbol>
    <symbol fill="none" xmlns="http://www.w3.org/2000/svg" viewBox="0 0 24 24" id="to-top">
        <path d="M10.9982 7.82578L6.09816 12.7258C5.89816 12.9258 5.66482 13.0216 5.39816 13.0133C5.13149 13.0049 4.89816 12.9008 4.69816 12.7008C4.51482 12.5008 4.41899 12.2674 4.41066 12.0008C4.40232 11.7341 4.49816 11.5008 4.69816 11.3008L11.2982 4.70078C11.3982 4.60078 11.5065 4.52995 11.6232 4.48828C11.7398 4.44661 11.8648 4.42578 11.9982 4.42578C12.1315 4.42578 12.2565 4.44661 12.3732 4.48828C12.4898 4.52995 12.5982 4.60078 12.6982 4.70078L19.2982 11.3008C19.4815 11.4841 19.5732 11.7133 19.5732 11.9883C19.5732 12.2633 19.4815 12.5008 19.2982 12.7008C19.0982 12.9008 18.8607 13.0008 18.5857 13.0008C18.3107 13.0008 18.0732 12.9008 17.8732 12.7008L12.9982 7.82578V19.0008C12.9982 19.2841 12.9023 19.5216 12.7107 19.7133C12.519 19.9049 12.2815 20.0008 11.9982 20.0008C11.7148 20.0008 11.4773 19.9049 11.2857 19.7133C11.094 19.5216 10.9982 19.2841 10.9982 19.0008V7.82578Z" fill="#F5FFF9"/>
    </symbol>

</svg>
