<svg width="80" height="80" viewBox="0 0 80 80" fill="none" xmlns="http://www.w3.org/2000/svg">
    <path d="M78.1476 2L43.8203 27.4068L50.2038 12.4338L78.1476 2Z" fill="#E17726"/>
    <path d="M1.93359 2.0293L29.8026 12.435L35.864 27.6044L1.93359 2.0293Z" fill="#E27625"/>
    <path d="M64.3311 56.0327L79.5032 56.3215L74.2008 74.3397L55.6875 69.241L64.3311 56.0327Z" fill="#E27625"/>
    <path d="M15.6682 56.0327L24.2798 69.241L5.79753 74.3401L0.527344 56.3216L15.6682 56.0327Z" fill="#E27625"/>
    <path d="M35.0426 23.7402L35.6628 43.7719L17.1094 42.9275L22.3868 34.9636L22.4535 34.8868L35.0426 23.7402Z" fill="#E27625"/>
    <path d="M44.7681 23.5176L57.5493 34.8884L57.6154 34.9646L62.8929 42.9285L44.3438 43.7727L44.7681 23.5176Z" fill="#E27625"/>
    <path d="M24.8249 56.0913L34.9556 63.9869L23.1875 69.6702L24.8249 56.0913Z" fill="#E27625"/>
    <path d="M55.1786 56.0894L56.782 69.6695L45.0469 63.9857L55.1786 56.0894Z" fill="#E27625"/>
    <path d="M45.3047 63.2437L57.2131 69.0115L46.1359 74.2776L46.2509 70.797L45.3047 63.2437Z" fill="#D5BFB2"/>
    <path d="M34.6917 63.2456L33.7825 70.7394L33.8571 74.2728L22.7539 69.0109L34.6917 63.2456Z" fill="#D5BFB2"/>
    <path d="M31.2525 46.3872L34.3644 52.929L23.7695 49.8245L31.2525 46.3872Z" fill="#233447"/>
    <path d="M48.7478 46.3872L56.266 49.8237L45.6367 52.9274L48.7478 46.3872Z" fill="#233447"/>
    <path d="M25.6338 56.0249L23.9212 70.1037L14.7422 56.3327L25.6338 56.0249Z" fill="#CC6228"/>
    <path d="M54.3672 56.0249L65.2592 56.3327L56.0456 70.1041L54.3672 56.0249Z" fill="#CC6228"/>
    <path d="M63.1597 42.1323L55.233 50.213L49.1216 47.4194L46.1955 53.5724L44.2773 42.9917L63.1597 42.1323Z" fill="#CC6228"/>
    <path d="M16.8359 42.1323L35.7216 42.9918L33.8034 53.5725L30.8768 47.4203L24.7975 50.2133L16.8359 42.1323Z" fill="#CC6228"/>
    <path d="M16.3008 40.4736L25.269 49.5764L25.5798 58.563L16.3008 40.4736Z" fill="#E27525"/>
    <path d="M63.7057 40.458L54.4102 58.5797L54.7601 49.5771L63.7057 40.458Z" fill="#E27525"/>
    <path d="M35.2824 41.0283L35.6433 43.3008L36.5353 48.962L35.9619 66.3498L33.2509 52.382L33.25 52.2376L35.2824 41.0283Z" fill="#E27525"/>
    <path d="M44.7124 40.9971L46.7503 52.2377L46.7494 52.3821L44.0316 66.3848L43.9241 62.8824L43.5 48.8592L44.7124 40.9971Z" fill="#E27525"/>
    <path d="M55.5594 49.2163L55.2559 57.0241L45.7953 64.3972L43.8828 63.0455L46.0266 52.0001L55.5594 49.2163Z" fill="#F5841F"/>
    <path d="M24.4727 49.2163L33.9726 52.0002L36.1163 63.0454L34.2038 64.397L24.7427 57.0233L24.4727 49.2163Z" fill="#F5841F"/>
    <path d="M20.9453 67.2856L33.0491 73.0222L32.9978 70.5726L34.0105 69.6834H45.9899L47.0393 70.5696L46.962 73.0175L58.9889 67.3001L53.1366 72.1376L46.0598 76.9995H33.9136L26.8414 72.1177L20.9453 67.2856Z" fill="#C0AC9D"/>
    <path d="M44.4383 62.4795L46.1496 63.6887L47.1525 71.6924L45.7012 70.4666H34.3026L32.8789 71.7171L33.8489 63.6893L35.5608 62.4795H44.4383Z" fill="#161616"/>
    <path d="M75.879 2.70312L79.9995 15.0683L77.4262 27.5706L79.2586 28.9847L76.779 30.877L78.6425 32.3166L76.1749 34.5646L77.6899 35.662L73.6693 40.3589L57.1787 35.5562L57.0358 35.4796L45.1523 25.4522L75.879 2.70312Z" fill="#763E1A"/>
    <path d="M4.12063 2.70312L34.8473 25.4522L22.9639 35.4796L22.821 35.5562L6.33023 40.3589L2.30975 35.662L3.82352 34.5654L1.35703 32.3166L3.21705 30.8786L0.700418 28.9808L2.60197 27.5659L0 15.0687L4.12063 2.70312Z" fill="#763E1A"/>
    <path d="M56.3722 34.5049L73.8451 39.5934L79.5218 57.0938L64.5456 57.0937L54.2266 57.224L61.731 42.5924L56.3722 34.5049Z" fill="#F5841F"/>
    <path d="M23.6258 34.5049L18.266 42.5924L25.7715 57.224L15.4575 57.0938H0.507812L6.15261 39.5935L23.6258 34.5049Z" fill="#F5841F"/>
    <path d="M51.0567 12.3506L46.1694 25.5539L45.1323 43.3903L44.7354 48.9808L44.7039 63.2622H35.2941L35.2636 49.0076L34.8655 43.3854L33.8279 25.5539L28.9414 12.3506H51.0567Z" fill="#F5841F"/>
</svg>
