<svg width="32" height="32" viewBox="0 0 32 32" fill="none" xmlns="http://www.w3.org/2000/svg">
<g clip-path="url(#clip0_1515_3401)">
<path d="M16 32C24.8368 32 32 24.8368 32 16C32 7.1632 24.8368 0 16 0C7.1632 0 0 7.1632 0 16C0 24.8368 7.1632 32 16 32Z" fill="#F5F5F5"/>
<path fill-rule="evenodd" clip-rule="evenodd" d="M9.24386 21.3656C8.76546 21.0728 8.47266 20.5528 8.47266 19.9928V16.8664C8.47266 16.4952 8.77506 16.1944 9.14626 16.196C9.26466 16.196 9.38146 16.228 9.48386 16.2872L16.5383 20.4008C16.9511 20.6408 17.2055 21.0824 17.2055 21.5608V24.7992C17.2071 25.244 16.8471 25.6056 16.4023 25.6056C16.2535 25.6056 16.1063 25.564 15.9799 25.4872L9.24386 21.3656ZM19.7591 15.4312C20.1719 15.6712 20.4247 16.1144 20.4263 16.5912V23.164C20.4263 23.3576 20.3223 23.5368 20.1527 23.6312L18.6087 24.5C18.5895 24.5112 18.5687 24.5192 18.5463 24.5256V20.876C18.5463 20.404 18.2983 19.9656 17.8919 19.7224L11.6967 16.0168V11.8968C11.6967 11.5256 11.9991 11.2248 12.3703 11.2264C12.4887 11.2264 12.6055 11.2584 12.7079 11.3176L19.7591 15.4312ZM22.8471 10.5768C23.2615 10.8168 23.5159 11.26 23.5159 11.7384V21.3384C23.5143 21.5352 23.4055 21.716 23.2327 21.8104L21.7687 22.6008V15.9176C21.7687 15.4456 21.5207 15.0088 21.1175 14.7656L14.7847 10.9672V7.06003C14.7847 6.94163 14.8167 6.82483 14.8743 6.72243C15.0615 6.40243 15.4727 6.29363 15.7927 6.47923L22.8471 10.5768Z" fill="#00D395"/>
</g>
<defs>
<clipPath id="clip0_1515_3401">
<rect width="32" height="32" fill="white"/>
</clipPath>
</defs>
</svg>
