<svg width="32" height="32" viewBox="0 0 32 32" fill="none" xmlns="http://www.w3.org/2000/svg">
<path d="M1.33203 25.334V22.934C1.33203 22.1784 1.52648 21.484 1.91536 20.8507C2.30425 20.2173 2.82092 19.734 3.46536 19.4007C4.84314 18.7118 6.24314 18.1951 7.66536 17.8507C9.08759 17.5062 10.532 17.334 11.9987 17.334C13.4654 17.334 14.9098 17.5062 16.332 17.8507C17.7543 18.1951 19.1543 18.7118 20.532 19.4007C21.1765 19.734 21.6931 20.2173 22.082 20.8507C22.4709 21.484 22.6654 22.1784 22.6654 22.934V25.334C22.6654 25.7118 22.5376 26.0284 22.282 26.284C22.0265 26.5395 21.7098 26.6673 21.332 26.6673H2.66536C2.28759 26.6673 1.97092 26.5395 1.71536 26.284C1.45981 26.0284 1.33203 25.7118 1.33203 25.334ZM24.6987 26.6673C24.8987 26.5118 25.0543 26.3173 25.1654 26.084C25.2765 25.8507 25.332 25.5895 25.332 25.3007V22.6673C25.332 21.6895 25.0598 20.7507 24.5154 19.8507C23.9709 18.9507 23.1987 18.1784 22.1987 17.534C23.332 17.6673 24.3987 17.8951 25.3987 18.2173C26.3987 18.5395 27.332 18.934 28.1987 19.4007C28.9987 19.8451 29.6098 20.3395 30.032 20.884C30.4543 21.4284 30.6654 22.0229 30.6654 22.6673V25.334C30.6654 25.7118 30.5376 26.0284 30.282 26.284C30.0265 26.5395 29.7098 26.6673 29.332 26.6673H24.6987ZM11.9987 16.0007C10.532 16.0007 9.27648 15.4784 8.23203 14.434C7.18759 13.3895 6.66536 12.134 6.66536 10.6673C6.66536 9.20065 7.18759 7.9451 8.23203 6.90065C9.27648 5.85621 10.532 5.33398 11.9987 5.33398C13.4654 5.33398 14.7209 5.85621 15.7654 6.90065C16.8098 7.9451 17.332 9.20065 17.332 10.6673C17.332 12.134 16.8098 13.3895 15.7654 14.434C14.7209 15.4784 13.4654 16.0007 11.9987 16.0007ZM25.332 10.6673C25.332 12.134 24.8098 13.3895 23.7654 14.434C22.7209 15.4784 21.4654 16.0007 19.9987 16.0007C19.7543 16.0007 19.4431 15.9729 19.0654 15.9173C18.6876 15.8618 18.3765 15.8007 18.132 15.734C18.732 15.0229 19.1931 14.234 19.5154 13.3673C19.8376 12.5007 19.9987 11.6007 19.9987 10.6673C19.9987 9.73398 19.8376 8.83398 19.5154 7.96732C19.1931 7.10065 18.732 6.31176 18.132 5.60065C18.4431 5.48954 18.7543 5.41732 19.0654 5.38398C19.3765 5.35065 19.6876 5.33398 19.9987 5.33398C21.4654 5.33398 22.7209 5.85621 23.7654 6.90065C24.8098 7.9451 25.332 9.20065 25.332 10.6673Z" fill="#F5FFF9"/>
</svg>
