<svg width="32" height="32" viewBox="0 0 32 32" fill="none" xmlns="http://www.w3.org/2000/svg">
<g clip-path="url(#clip0_1515_3421)">
<path d="M16 31.9734C11.7599 31.9707 7.69396 30.286 4.69438 27.2891C1.69478 24.2923 0.00651828 20.2279 0 15.9877C0.00651734 11.7474 1.69469 7.68278 4.69423 4.68556C7.69374 1.68834 11.7597 0.00325428 16 0C20.2404 0.00325428 24.3063 1.68834 27.3058 4.68556C30.3052 7.68278 31.9936 11.7474 32 15.9877C31.9936 20.2279 30.3052 24.2923 27.3056 27.2891C24.3061 30.286 20.2402 31.9707 16 31.9734ZM16 1.23077C12.0859 1.23348 8.33275 2.78873 5.56391 5.55525C2.79508 8.32177 1.23675 12.0737 1.23077 15.9877C1.23458 19.9023 2.7923 23.6552 5.56165 26.4219C8.33103 29.1887 12.0855 30.7426 16 30.7426C19.9146 30.7426 23.669 29.1887 26.4384 26.4219C29.2076 23.6552 30.7655 19.9023 30.7692 15.9877C30.7633 12.0737 29.2049 8.32177 26.4362 5.55525C23.6672 2.78873 19.9141 1.23348 16 1.23077Z" fill="white"/>
<path d="M18.021 29.4435C14.508 29.4408 11.1396 28.0446 8.65463 25.5617C6.16966 23.0786 4.77104 19.7112 4.76562 16.1983C4.77104 12.6853 6.16966 9.31797 8.65463 6.8349C11.1396 4.35185 14.508 2.95583 18.021 2.95312C21.5339 2.95583 24.9024 4.35185 27.3874 6.8349C29.8723 9.31797 31.2709 12.6853 31.2763 16.1983C31.2709 19.7112 29.8723 23.0786 27.3874 25.5617C24.9024 28.0446 21.5339 29.4408 18.021 29.4435ZM18.021 3.90901C14.7618 3.91172 11.6367 5.20711 9.33129 7.51096C7.02588 9.81481 5.72843 12.939 5.72356 16.1983C5.72897 19.4571 7.0267 22.5808 9.33203 24.8843C11.6374 27.1878 14.7621 28.4828 18.021 28.4855C21.2799 28.4828 24.4046 27.1878 26.7099 24.8843C29.0154 22.5808 30.3129 19.4571 30.3186 16.1983C30.3129 12.9394 29.0154 9.81567 26.7099 7.51226C24.4046 5.20885 21.2799 3.91379 18.021 3.91108V3.90901Z" fill="white"/>
<path d="M20.046 26.9173C17.2604 26.915 14.5895 25.8081 12.619 23.8392C10.6486 21.8703 9.53951 19.2002 9.53516 16.4147C9.53951 13.6291 10.6486 10.9591 12.619 8.99014C14.5895 7.02123 17.2604 5.91428 20.046 5.91211C22.8317 5.91373 25.5028 7.02052 27.4735 8.98955C29.444 10.9586 30.5529 13.629 30.5566 16.4147C30.5524 19.2002 29.4432 21.8703 27.4728 23.8392C25.5023 25.8081 22.8315 26.915 20.046 26.9173ZM20.046 6.59519C17.4414 6.59681 14.9438 7.63162 13.1014 9.47253C11.2589 11.3135 10.222 13.8101 10.2182 16.4147C10.2225 19.0189 11.2597 21.515 13.1021 23.3555C14.9445 25.1959 17.4417 26.2305 20.046 26.2322C22.6501 26.2305 25.1474 25.1959 26.9898 23.3555C28.8323 21.515 29.8693 19.0189 29.8738 16.4147C29.8698 13.8101 28.833 11.3135 26.9906 9.47253C25.1481 7.63162 22.6505 6.59681 20.046 6.59519Z" fill="white"/>
<path d="M22.0669 24.3873C20.0088 24.3857 18.0353 23.5678 16.5794 22.113C15.1235 20.6583 14.304 18.6854 14.3008 16.6273C14.3035 14.5688 15.1227 12.5954 16.5787 11.1402C18.0346 9.68505 20.0084 8.86686 22.0669 8.86523C24.1254 8.86686 26.0993 9.68505 27.5553 11.1402C29.0113 12.5954 29.8302 14.5688 29.8329 16.6273C29.8297 18.6854 29.0103 20.6583 27.5545 22.113C26.0985 23.5678 24.1251 24.3857 22.0669 24.3873ZM22.0669 9.2755C20.1172 9.27712 18.2478 10.0521 16.8688 11.4303C15.4898 12.8086 14.7138 14.6776 14.711 16.6273C14.7143 18.5766 15.4905 20.4451 16.8695 21.8229C18.2485 23.2007 20.1176 23.9754 22.0669 23.977C24.0163 23.9754 25.8854 23.2007 27.2643 21.8229C28.6433 20.4451 29.4196 18.5766 29.4228 16.6273C29.4201 14.6776 28.6443 12.8086 27.2651 11.4303C25.8861 10.0521 24.0166 9.27712 22.0669 9.2755Z" fill="white"/>
</g>
<defs>
<clipPath id="clip0_1515_3421">
<rect width="32" height="32" fill="white"/>
</clipPath>
</defs>
</svg>
