<svg width="80" height="87" viewBox="0 0 80 87" fill="none" xmlns="http://www.w3.org/2000/svg">
<path d="M65.5667 31.933L65.5667 31.933L65.5645 31.9381C65.246 32.6846 64.5315 33.1469 63.6994 33.1469H56.4744H55.9744V33.6469V66.9219H50.2494H26.0619C25.5232 66.9219 25.0065 66.7086 24.6247 66.3286C24.2431 65.949 24.0273 65.4337 24.0244 64.8955V33.6469V33.1469H23.5244H16.2994H16.2892L16.2791 33.1473C15.4441 33.1812 14.7659 32.6611 14.4445 31.9328C14.1228 31.204 14.1961 30.3524 14.7802 29.7606L14.7857 29.755L14.791 29.7493L37.541 5.2118L37.541 5.21182L37.5446 5.20791C38.8107 3.81303 41.1866 3.80823 42.4396 5.20566L42.4396 5.2057L42.4452 5.2118L65.1952 29.7493L65.1963 29.7505C65.7597 30.3541 65.8988 31.1782 65.5667 31.933Z" fill="#25422F" stroke="#3BD171"/>
<path d="M65.3267 76.2882C62.4499 84.1922 53.6766 88.2833 45.7726 85.4065C27.0407 77.6946 36.9099 50.5997 56.2085 56.7341C64.1125 59.611 68.2036 68.3842 65.3267 76.2882Z" fill="#3BD171"/>
<path d="M58.1737 68.7245L44.5713 75.0674C43.5226 75.544 42.7832 73.9554 43.829 73.4608L57.4314 67.1179C58.4768 66.6325 59.2335 68.2406 58.1737 68.7245ZM47.304 68.3352C43.5052 66.8387 45.5505 61.2219 49.4213 62.5178C53.22 64.0143 51.1747 69.6311 47.304 68.3352ZM56.5571 77.8205C55.0606 81.6192 49.4438 79.5739 50.7397 75.7031C52.2362 71.9044 57.853 73.9497 56.5571 77.8205Z" fill="black"/>
</svg>
