<svg width="80" height="80" viewBox="0 0 80 80" fill="none" xmlns="http://www.w3.org/2000/svg">
<path d="M25.5 19H70.5C74.0899 19 77 21.9101 77 25.5V70.5C77 74.0899 74.0899 77 70.5 77H25.5C21.9101 77 19 74.0899 19 70.5V25.5C19 21.9101 21.9101 19 25.5 19Z" fill="#3BD171" stroke="#3BD171" stroke-width="2"/>
<path d="M17.9645 2.0411L62.2808 9.85527C66.0881 10.5266 68.6302 14.1572 67.9589 17.9645L60.1448 62.2808C59.4734 66.0881 55.8428 68.6302 52.0356 67.9589L7.71921 60.1448C3.91195 59.4734 1.36977 55.8428 2.0411 52.0356L9.85526 7.71922C10.5266 3.91196 14.1572 1.36978 17.9645 2.0411Z" fill="#25422F" stroke="#3BD171"/>
<path d="M50.2062 35.1427L37.8961 32.9721L40.0667 20.662C40.1819 20.0091 40.0329 19.3371 39.6526 18.794C39.2723 18.2508 38.6918 17.881 38.0388 17.7659C37.3859 17.6508 36.7139 17.7997 36.1708 18.18C35.6276 18.5603 35.2578 19.1408 35.1427 19.7938L32.9721 32.1039L20.662 29.9333C20.009 29.8182 19.3371 29.9671 18.7939 30.3474C18.2508 30.7277 17.881 31.3082 17.7658 31.9612C17.6507 32.6142 17.7997 33.2861 18.18 33.8292C18.5603 34.3724 19.1408 34.7422 19.7937 34.8573L32.1038 37.0279L29.9332 49.338C29.8181 49.991 29.9671 50.663 30.3474 51.2061C30.7277 51.7492 31.3082 52.119 31.9611 52.2342C32.6141 52.3493 33.2861 52.2003 33.8292 51.82C34.3723 51.4397 34.7421 50.8592 34.8573 50.2063L37.0279 37.8962L49.338 40.0668C49.9909 40.1819 50.6629 40.0329 51.206 39.6526C51.7492 39.2723 52.119 38.6918 52.2341 38.0389C52.3493 37.3859 52.2003 36.7139 51.82 36.1708C51.4397 35.6277 50.8592 35.2579 50.2062 35.1427Z" fill="#3BD171"/>
</svg>
