<svg width="80" height="80" viewBox="0 0 80 80" fill="none" xmlns="http://www.w3.org/2000/svg">
<g clip-path="url(#clip0_203_15004)">
<path d="M36.53 59.4001L35.97 59.3C36.15 59.33 36.34 59.3701 36.53 59.4001Z" fill="#C2FD3F"/>
<path d="M36.97 59.4799C36.89 59.4699 36.82 59.4599 36.75 59.4399C36.8 59.4499 36.85 59.4599 36.9 59.4599C36.92 59.4599 36.95 59.4599 36.97 59.4799Z" fill="#C2FD3F"/>
<path d="M38.22 59.6301L37.97 59.6101C37.91 59.6001 37.85 59.6001 37.79 59.5801C37.93 59.6001 38.07 59.6201 38.22 59.6301Z" fill="#C2FD3F"/>
<mask id="path-4-inside-1_203_15004" fill="white">
<path d="M77.02 31.17L73.69 30.77L69.34 30.24C69.12 30.21 68.94 30.07 68.87 29.85C68.62 29.13 68.33 28.42 68.02 27.71C67.88 27.39 67.73 27.07 67.58 26.75C67.48 26.56 67.51 26.33 67.63 26.17L72.42 20.07C73.48 18.72 73.36 16.79 72.15 15.58L64.42 7.85C63.67 7.1 62.65 6.77 61.66 6.88C61.54 6.89 61.42 6.91 61.3 6.94C61.07 6.99 60.83 7.07 60.61 7.17C60.37 7.28 60.14 7.41 59.93 7.58L53.83 12.37C53.67 12.49 53.44 12.52 53.25 12.42C52.24 11.93 51.2 11.5 50.15 11.13C49.93 11.06 49.79 10.88 49.76 10.66L48.83 2.98C48.63 1.28 47.18 0 45.47 0H34.53C32.82 0 31.37 1.28 31.17 2.98L30.24 10.66C30.21 10.88 30.07 11.06 29.85 11.13C28.8 11.5 27.76 11.93 26.75 12.42C26.56 12.51 26.33 12.49 26.17 12.37L20.07 7.58C18.72 6.52 16.79 6.64 15.58 7.85L7.85 15.58C6.64 16.79 6.52 18.72 7.58 20.07L12.37 26.17C12.49 26.33 12.52 26.56 12.42 26.75C11.93 27.76 11.5 28.8 11.13 29.85C11.06 30.07 10.88 30.21 10.66 30.24L2.98 31.17C1.28 31.37 0 32.82 0 34.53V45.47C0 47.18 1.28 48.63 2.98 48.83L10.66 49.76C10.88 49.79 11.06 49.93 11.13 50.15C11.5 51.2 11.93 52.24 12.42 53.25C12.51 53.44 12.49 53.67 12.37 53.83L7.58 59.93C6.52 61.28 6.64 63.21 7.85 64.42L15.58 72.15C16.79 73.36 18.72 73.48 20.07 72.42L26.17 67.63C26.33 67.51 26.56 67.48 26.75 67.58C27.76 68.07 28.8 68.5 29.85 68.87C30.07 68.94 30.21 69.12 30.24 69.34L31.15 76.87L31.17 77.02C31.37 78.72 32.82 80 34.53 80H45.47C47.18 80 48.63 78.72 48.83 77.02L49.76 69.34C49.79 69.12 49.93 68.94 50.15 68.87C50.48 68.75 50.82 68.62 51.15 68.49C51.86 68.22 52.56 67.91 53.25 67.58C53.44 67.48 53.67 67.51 53.83 67.63L56.7 69.89H56.71L59.93 72.42C61.28 73.48 63.21 73.36 64.42 72.15L72.15 64.42C73.36 63.21 73.48 61.28 72.42 59.93L67.63 53.83C67.51 53.67 67.48 53.44 67.58 53.25C68.07 52.24 68.5 51.2 68.87 50.15C68.94 49.93 69.12 49.79 69.34 49.76L77.02 48.83C78.72 48.63 80 47.18 80 45.47V34.53C80 32.82 78.72 31.37 77.02 31.17ZM44.03 59.3C44.03 59.3 43.99 59.31 43.97 59.31C43.34 59.44 42.7 59.54 42.04 59.61C41.76 59.64 41.46 59.66 41.17 59.67H40.9C40.6 59.7 40.3 59.71 40 59.71C39.75 59.71 39.5 59.71 39.26 59.69C39.11 59.69 38.97 59.68 38.83 59.67L38.22 59.63L37.97 59.61C37.91 59.6 37.85 59.6 37.79 59.58C37.76 59.58 37.73 59.58 37.7 59.57L37.13 59.5C37.13 59.5 37.04 59.49 37 59.48H36.97C36.89 59.47 36.82 59.46 36.75 59.44C36.67 59.43 36.6 59.42 36.53 59.4L35.97 59.3C35.65 59.23 35.34 59.16 35.04 59.08C34.76 59.01 34.5 58.93 34.23 58.84C33.98 58.78 33.74 58.7 33.5 58.6C33.31 58.55 33.13 58.48 32.94 58.4C31.92 58.02 30.95 57.55 30.03 57C29.84 56.89 29.66 56.78 29.48 56.66C29.04 56.39 28.62 56.1 28.21 55.79C23.4 52.2 20.29 46.47 20.29 40C20.29 29.11 29.11 20.29 40 20.29C41.93 20.29 43.8 20.57 45.56 21.09C45.68 21.12 45.8 21.16 45.91 21.2C46.16 21.27 46.41 21.36 46.66 21.45C47.82 21.86 48.92 22.38 49.96 22.99C50.15 23.1 50.34 23.22 50.53 23.34C51.7 24.08 52.79 24.94 53.77 25.9L54.1 26.23C54.49 26.63 54.86 27.04 55.22 27.47C55.42 27.71 55.61 27.96 55.79 28.21C55.99 28.46 56.17 28.72 56.34 28.98C56.5 29.22 56.66 29.45 56.81 29.7L56.9 29.85C57.05 30.1 57.19 30.35 57.33 30.61C57.47 30.87 57.61 31.14 57.75 31.41C57.75 31.43 57.76 31.44 57.77 31.46C57.9 31.74 58.04 32.03 58.16 32.33C58.29 32.62 58.4 32.92 58.51 33.22C58.63 33.52 58.73 33.83 58.82 34.14C58.92 34.45 59.01 34.76 59.09 35.08C59.16 35.35 59.23 35.63 59.29 35.92C59.29 35.95 59.3 35.99 59.31 36.03C59.38 36.35 59.43 36.67 59.48 37C59.53 37.29 59.57 37.58 59.59 37.87C59.61 37.96 59.61 38.05 59.62 38.14C59.65 38.41 59.67 38.68 59.68 38.95C59.7 39.29 59.71 39.65 59.71 40C59.71 49.51 52.99 57.44 44.03 59.3Z"/>
</mask>
<path d="M77.02 31.17L73.69 30.77L69.34 30.24C69.12 30.21 68.94 30.07 68.87 29.85C68.62 29.13 68.33 28.42 68.02 27.71C67.88 27.39 67.73 27.07 67.58 26.75C67.48 26.56 67.51 26.33 67.63 26.17L72.42 20.07C73.48 18.72 73.36 16.79 72.15 15.58L64.42 7.85C63.67 7.1 62.65 6.77 61.66 6.88C61.54 6.89 61.42 6.91 61.3 6.94C61.07 6.99 60.83 7.07 60.61 7.17C60.37 7.28 60.14 7.41 59.93 7.58L53.83 12.37C53.67 12.49 53.44 12.52 53.25 12.42C52.24 11.93 51.2 11.5 50.15 11.13C49.93 11.06 49.79 10.88 49.76 10.66L48.83 2.98C48.63 1.28 47.18 0 45.47 0H34.53C32.82 0 31.37 1.28 31.17 2.98L30.24 10.66C30.21 10.88 30.07 11.06 29.85 11.13C28.8 11.5 27.76 11.93 26.75 12.42C26.56 12.51 26.33 12.49 26.17 12.37L20.07 7.58C18.72 6.52 16.79 6.64 15.58 7.85L7.85 15.58C6.64 16.79 6.52 18.72 7.58 20.07L12.37 26.17C12.49 26.33 12.52 26.56 12.42 26.75C11.93 27.76 11.5 28.8 11.13 29.85C11.06 30.07 10.88 30.21 10.66 30.24L2.98 31.17C1.28 31.37 0 32.82 0 34.53V45.47C0 47.18 1.28 48.63 2.98 48.83L10.66 49.76C10.88 49.79 11.06 49.93 11.13 50.15C11.5 51.2 11.93 52.24 12.42 53.25C12.51 53.44 12.49 53.67 12.37 53.83L7.58 59.93C6.52 61.28 6.64 63.21 7.85 64.42L15.58 72.15C16.79 73.36 18.72 73.48 20.07 72.42L26.17 67.63C26.33 67.51 26.56 67.48 26.75 67.58C27.76 68.07 28.8 68.5 29.85 68.87C30.07 68.94 30.21 69.12 30.24 69.34L31.15 76.87L31.17 77.02C31.37 78.72 32.82 80 34.53 80H45.47C47.18 80 48.63 78.72 48.83 77.02L49.76 69.34C49.79 69.12 49.93 68.94 50.15 68.87C50.48 68.75 50.82 68.62 51.15 68.49C51.86 68.22 52.56 67.91 53.25 67.58C53.44 67.48 53.67 67.51 53.83 67.63L56.7 69.89H56.71L59.93 72.42C61.28 73.48 63.21 73.36 64.42 72.15L72.15 64.42C73.36 63.21 73.48 61.28 72.42 59.93L67.63 53.83C67.51 53.67 67.48 53.44 67.58 53.25C68.07 52.24 68.5 51.2 68.87 50.15C68.94 49.93 69.12 49.79 69.34 49.76L77.02 48.83C78.72 48.63 80 47.18 80 45.47V34.53C80 32.82 78.72 31.37 77.02 31.17ZM44.03 59.3C44.03 59.3 43.99 59.31 43.97 59.31C43.34 59.44 42.7 59.54 42.04 59.61C41.76 59.64 41.46 59.66 41.17 59.67H40.9C40.6 59.7 40.3 59.71 40 59.71C39.75 59.71 39.5 59.71 39.26 59.69C39.11 59.69 38.97 59.68 38.83 59.67L38.22 59.63L37.97 59.61C37.91 59.6 37.85 59.6 37.79 59.58C37.76 59.58 37.73 59.58 37.7 59.57L37.13 59.5C37.13 59.5 37.04 59.49 37 59.48H36.97C36.89 59.47 36.82 59.46 36.75 59.44C36.67 59.43 36.6 59.42 36.53 59.4L35.97 59.3C35.65 59.23 35.34 59.16 35.04 59.08C34.76 59.01 34.5 58.93 34.23 58.84C33.98 58.78 33.74 58.7 33.5 58.6C33.31 58.55 33.13 58.48 32.94 58.4C31.92 58.02 30.95 57.55 30.03 57C29.84 56.89 29.66 56.78 29.48 56.66C29.04 56.39 28.62 56.1 28.21 55.79C23.4 52.2 20.29 46.47 20.29 40C20.29 29.11 29.11 20.29 40 20.29C41.93 20.29 43.8 20.57 45.56 21.09C45.68 21.12 45.8 21.16 45.91 21.2C46.16 21.27 46.41 21.36 46.66 21.45C47.82 21.86 48.92 22.38 49.96 22.99C50.15 23.1 50.34 23.22 50.53 23.34C51.7 24.08 52.79 24.94 53.77 25.9L54.1 26.23C54.49 26.63 54.86 27.04 55.22 27.47C55.42 27.71 55.61 27.96 55.79 28.21C55.99 28.46 56.17 28.72 56.34 28.98C56.5 29.22 56.66 29.45 56.81 29.7L56.9 29.85C57.05 30.1 57.19 30.35 57.33 30.61C57.47 30.87 57.61 31.14 57.75 31.41C57.75 31.43 57.76 31.44 57.77 31.46C57.9 31.74 58.04 32.03 58.16 32.33C58.29 32.62 58.4 32.92 58.51 33.22C58.63 33.52 58.73 33.83 58.82 34.14C58.92 34.45 59.01 34.76 59.09 35.08C59.16 35.35 59.23 35.63 59.29 35.92C59.29 35.95 59.3 35.99 59.31 36.03C59.38 36.35 59.43 36.67 59.48 37C59.53 37.29 59.57 37.58 59.59 37.87C59.61 37.96 59.61 38.05 59.62 38.14C59.65 38.41 59.67 38.68 59.68 38.95C59.7 39.29 59.71 39.65 59.71 40C59.71 49.51 52.99 57.44 44.03 59.3Z" fill="#25422F" stroke="#3BD171" stroke-width="2" mask="url(#path-4-inside-1_203_15004)"/>
<path d="M36.53 59.4001L35.97 59.3C36.15 59.33 36.34 59.3701 36.53 59.4001Z" fill="#FFCA28"/>
<path d="M38.22 59.6301L37.97 59.6101C37.91 59.6001 37.85 59.6001 37.79 59.5801C37.93 59.6001 38.07 59.6201 38.22 59.6301Z" fill="#FFCA28"/>
<path fill-rule="evenodd" clip-rule="evenodd" d="M50.57 35.9001C50.57 40.3101 47.87 44.0901 44.03 45.6701V59.3001C44.03 59.3001 43.99 59.3101 43.97 59.3101C43.34 59.4401 42.7 59.5401 42.04 59.6101C41.76 59.6401 41.46 59.6601 41.17 59.6701H40.9C40.6 59.7001 40.3 59.7101 40 59.7101C39.75 59.7101 39.5 59.7101 39.26 59.6901C39.11 59.6901 38.97 59.6801 38.83 59.6701L38.22 59.6301C38.07 59.6201 37.93 59.6001 37.79 59.5801C37.76 59.5801 37.73 59.5801 37.7 59.5701L37.13 59.5001C37.13 59.5001 37.04 59.4901 37 59.4801H36.97C36.97 59.4801 36.92 59.4701 36.9 59.4601C36.85 59.4601 36.8 59.4501 36.75 59.4401C36.67 59.4301 36.6 59.4201 36.53 59.4001C36.34 59.3701 36.15 59.3301 35.97 59.2901V45.6601C32.28 44.1301 29.62 40.5501 29.44 36.3601C29.27 32.3401 31.35 28.7801 34.53 26.8601C35.11 26.5001 35.86 26.9201 35.86 27.6001V34.5201C35.86 34.6301 35.88 34.7401 35.93 34.8401C35.97 34.9401 36.03 35.0301 36.11 35.1101L39.33 38.3401C39.65 38.6601 40.17 38.6601 40.49 38.3401L43.88 35.1001C44.04 34.9501 44.14 34.7301 44.14 34.5001V27.6001C44.14 26.9101 44.89 26.4901 45.47 26.8401C48.53 28.7001 50.57 32.0501 50.57 35.8901V35.9001Z" fill="#3BD171"/>
<path fill-rule="evenodd" clip-rule="evenodd" d="M36.53 59.4001L35.97 59.3C36.15 59.33 36.34 59.3701 36.53 59.4001Z" fill="#78909C"/>
<path fill-rule="evenodd" clip-rule="evenodd" d="M36.97 59.4799C36.89 59.4699 36.82 59.4599 36.75 59.4399C36.8 59.4499 36.85 59.4599 36.9 59.4599C36.92 59.4599 36.95 59.4599 36.97 59.4799Z" fill="#78909C"/>
<path fill-rule="evenodd" clip-rule="evenodd" d="M38.22 59.6301L37.97 59.6101C37.91 59.6001 37.85 59.6001 37.79 59.5801C37.93 59.6001 38.07 59.6201 38.22 59.6301Z" fill="#78909C"/>
</g>
<defs>
<clipPath id="clip0_203_15004">
<rect width="80" height="80" fill="white"/>
</clipPath>
</defs>
</svg>
