<svg width="631" height="573" viewBox="0 0 631 573" fill="none" xmlns="http://www.w3.org/2000/svg">
    <path opacity="0.2" d="M79.668 572.746C62.6355 572.746 48.1154 569.129 36.1077 561.894C24.1 554.659 14.9754 544.812 8.73404 532.352C2.48667 520.093 -0.409488 506.327 0.0455544 491.054C0.482635 476.384 4.8092 462.316 13.0252 448.852L258.412 41.298C266.434 27.6325 276.858 17.3833 289.686 10.5506C302.519 3.51686 315.849 0 329.676 0C343.502 0 356.522 3.51686 368.736 10.5506C381.157 17.3833 391.071 27.6325 398.479 41.298L619.581 448.852C623.19 455.484 625.889 462.417 627.677 469.652C629.466 476.886 630.255 484.02 630.046 491.054C629.591 506.327 625.874 520.093 618.896 532.352C611.912 544.812 602.201 554.659 589.762 561.894C577.323 569.129 562.588 572.746 545.555 572.746H79.668ZM318.921 371.079C334.55 371.079 342.711 362.84 343.402 346.361L352.797 182.374C353.23 174.537 350.72 168.005 345.265 162.78C340.016 157.354 333.284 154.641 325.068 154.641C316.652 154.641 309.661 157.254 304.095 162.479C298.73 167.704 296.031 174.235 295.997 182.073L295.01 346.361C294.92 362.84 302.89 371.079 318.921 371.079ZM315.912 472.063C324.929 472.063 332.837 468.948 339.635 462.718C346.634 456.488 350.268 448.852 350.537 439.809C350.806 430.765 347.628 423.129 341 416.899C334.579 410.468 326.86 407.252 317.843 407.252C308.625 407.252 300.614 410.468 293.81 416.899C287.006 423.33 283.472 430.966 283.209 439.809C282.939 448.852 286.018 456.488 292.445 462.718C299.072 468.948 306.895 472.063 315.912 472.063Z" fill="url(#paint0_linear_8025_192187)"/>
    <defs>
        <linearGradient id="paint0_linear_8025_192187" x1="329.676" y1="0" x2="329.676" y2="572.746" gradientUnits="userSpaceOnUse">
            <stop stop-color="#302828"/>
            <stop offset="1" stop-color="#493131"/>
        </linearGradient>
    </defs>
</svg>
