<svg width="531" height="654" viewBox="0 0 531 654" fill="none" xmlns="http://www.w3.org/2000/svg">
    <path opacity="0.2" d="M265.5 654C261.628 654 258.033 653.724 254.714 653.172C251.395 652.62 248.077 651.792 244.758 650.689C170.086 625.853 110.625 579.908 66.375 512.852C22.125 445.796 0 373.635 0 296.37V139.906C0 126.109 4.01016 113.691 12.0305 102.653C20.0508 91.6152 30.4219 83.6127 43.1438 78.6456L242.269 4.13924C250.013 1.37975 257.756 0 265.5 0C273.244 0 280.987 1.37975 288.731 4.13924L487.856 78.6456C500.578 83.6127 510.949 91.6152 518.97 102.653C526.99 113.691 531 126.109 531 139.906V296.37C531 373.635 508.875 445.796 464.625 512.852C420.375 579.908 360.914 625.853 286.242 650.689C282.923 651.792 279.605 652.62 276.286 653.172C272.967 653.724 269.372 654 265.5 654Z" fill="url(#paint0_linear_8025_192671)"/>
    <defs>
        <linearGradient id="paint0_linear_8025_192671" x1="265.5" y1="0" x2="265.5" y2="654" gradientUnits="userSpaceOnUse">
            <stop stop-color="#242A27"/>
            <stop offset="1" stop-color="#415149"/>
        </linearGradient>
    </defs>
</svg>
