<svg width="25" height="24" viewBox="0 0 25 24" fill="none" xmlns="http://www.w3.org/2000/svg">
    <path d="M22.2637 6.86667H15.4582V5H22.2637V6.86667ZM23.9417 16.2C23.512 17.4105 21.9691 19 18.9824 19C15.9939 19 13.5731 17.3863 13.5731 13.7033C13.5731 10.054 15.8334 8.178 18.8872 8.178C21.8835 8.178 23.7132 9.8412 24.1128 12.3089C24.1886 12.7812 24.2188 13.4177 24.2052 14.3063H16.4012C16.5276 17.3032 19.7874 17.3975 20.8617 16.2H23.9417ZM16.4693 12.4667H21.2963C21.1942 11.0228 20.1919 10.3956 18.8881 10.3956C17.4629 10.3956 16.6744 11.1124 16.4693 12.4667ZM7.16132 18.9888H0.875V5.0196H7.63479C12.9586 5.0952 13.0597 10.1007 10.2792 11.4652C13.644 12.6412 13.7568 18.9888 7.16132 18.9888ZM3.79164 10.6H7.27604C9.71435 10.6 10.1013 7.8 6.97271 7.8H3.79164V10.6ZM7.0884 13.4H3.79164V16.2149H7.03979C10.0099 16.2149 9.8281 13.4 7.0884 13.4Z" fill="#F5FFF9"/>
</svg>
