<svg width="25" height="24" viewBox="0 0 25 24" fill="none" xmlns="http://www.w3.org/2000/svg">
    <path d="M4.08332 20C3.53332 20 3.06249 19.8042 2.67082 19.4125C2.27915 19.0208 2.08332 18.55 2.08332 18V6C2.08332 5.45 2.27915 4.97917 2.67082 4.5875C3.06249 4.19583 3.53332 4 4.08332 4H20.0833C20.6333 4 21.1042 4.19583 21.4958 4.5875C21.8875 4.97917 22.0833 5.45 22.0833 6V18C22.0833 18.55 21.8875 19.0208 21.4958 19.4125C21.1042 19.8042 20.6333 20 20.0833 20H4.08332ZM12.0833 12.825C12.1667 12.825 12.2542 12.8125 12.3458 12.7875C12.4375 12.7625 12.525 12.725 12.6083 12.675L19.6833 8.25C19.8167 8.16667 19.9167 8.0625 19.9833 7.9375C20.05 7.8125 20.0833 7.675 20.0833 7.525C20.0833 7.19167 19.9417 6.94167 19.6583 6.775C19.375 6.60833 19.0833 6.61667 18.7833 6.8L12.0833 11L5.38332 6.8C5.08332 6.61667 4.79165 6.6125 4.50832 6.7875C4.22499 6.9625 4.08332 7.20833 4.08332 7.525C4.08332 7.69167 4.11665 7.8375 4.18332 7.9625C4.24999 8.0875 4.34999 8.18333 4.48332 8.25L11.5583 12.675C11.6417 12.725 11.7292 12.7625 11.8208 12.7875C11.9125 12.8125 12 12.825 12.0833 12.825Z" fill="#F5FFF9"/>
</svg>
