<svg width="25" height="24" viewBox="0 0 25 24" fill="none" xmlns="http://www.w3.org/2000/svg">
<path d="M8.20404 13.1194H10.157V21.6935C10.157 21.8628 10.2857 22 10.4444 22H13.7558C13.9145 22 14.0431 21.8628 14.0431 21.6935V13.1598H16.2883C16.4342 13.1598 16.5571 13.043 16.5737 12.8883L16.9147 9.73176C16.9241 9.64491 16.8983 9.55794 16.8438 9.49279C16.7893 9.42758 16.7112 9.39025 16.6293 9.39025H14.0432V7.41155C14.0432 6.81508 14.3444 6.51261 14.9384 6.51261C15.0231 6.51261 16.6293 6.51261 16.6293 6.51261C16.788 6.51261 16.9167 6.37538 16.9167 6.20616V3.30872C16.9167 3.13944 16.788 3.00227 16.6293 3.00227H14.2991C14.2826 3.00141 14.2461 3 14.1923 3C13.788 3 12.3826 3.08464 11.2725 4.17377C10.0424 5.3807 10.2134 6.8258 10.2543 7.07636V9.39019H8.20404C8.0453 9.39019 7.91667 9.52736 7.91667 9.69664V12.8129C7.91667 12.9822 8.0453 13.1194 8.20404 13.1194Z" fill="#F5FFF9"/>
</svg>
