<svg width="25" height="24" viewBox="0 0 25 24" fill="none" xmlns="http://www.w3.org/2000/svg">
<path d="M12.6013 2C6.83618 2 2.16669 6.59124 2.16669 12.2538C2.16669 16.785 5.15621 20.6275 9.30136 21.9823C9.82309 22.0788 10.0144 21.7614 10.0144 21.4893C10.0144 21.2458 10.0057 20.6006 10.0014 19.7458C7.09879 20.3641 6.48662 18.3702 6.48662 18.3702C6.01185 17.1867 5.32577 16.8702 5.32577 16.8702C4.38057 16.2346 5.39881 16.2476 5.39881 16.2476C6.44662 16.3189 6.99705 17.3041 6.99705 17.3041C7.92747 18.8719 9.43962 18.4189 10.0361 18.1572C10.13 17.4937 10.3987 17.0424 10.697 16.7859C8.37964 16.5293 5.94402 15.6476 5.94402 11.719C5.94402 10.5999 6.34836 9.6851 7.01792 8.96772C6.90053 8.7086 6.54836 7.666 7.10922 6.25385C7.10922 6.25385 7.98312 5.97907 9.97874 7.30514C10.8135 7.07732 11.7005 6.96427 12.5874 6.95906C13.4743 6.96427 14.3613 7.07732 15.1961 7.30514C17.1786 5.97907 18.0525 6.25385 18.0525 6.25385C18.6134 7.666 18.2612 8.7086 18.1569 8.96772C18.8221 9.6851 19.2264 10.5999 19.2264 11.719C19.2264 15.6581 16.7873 16.525 14.4656 16.7772C14.8308 17.085 15.17 17.7137 15.17 18.6745C15.17 20.0467 15.1569 21.1493 15.1569 21.4823C15.1569 21.751 15.3395 22.0719 15.8743 21.9693C20.049 20.6232 23.0359 16.778 23.0359 12.2538C23.0359 6.59124 18.3638 2 12.6013 2Z" fill="#F5FFF9"/>
</svg>
