<svg width="25" height="24" viewBox="0 0 25 24" fill="none" xmlns="http://www.w3.org/2000/svg">
    <path fill-rule="evenodd" clip-rule="evenodd" d="M5.20517 3C4.47052 3 3.875 3.57748 3.875 4.28941V19.7106C3.875 20.4228 4.47052 21 5.20517 21H20.5448C21.2795 21 21.875 20.4228 21.875 19.7106V4.28941C21.875 3.57748 21.2795 3 20.5448 3H5.20517ZM9.33134 18.0678V9.93977H6.6126V18.0678H9.33134ZM7.97196 8.83002C8.92004 8.83002 9.51014 8.20588 9.51014 7.42589C9.49247 6.62834 8.92004 6.02151 7.98994 6.02151C7.05994 6.02151 6.45188 6.62834 6.45188 7.42589C6.45188 8.20588 7.04186 8.83002 7.95424 8.83002H7.97196ZM10.8356 18.0678H13.5543V13.5287C13.5543 13.2858 13.572 13.0431 13.6438 12.8695C13.8403 12.3841 14.2876 11.8815 15.0387 11.8815C16.0225 11.8815 16.416 12.6268 16.416 13.7195V18.0678H19.1345V13.4073C19.1345 10.9107 17.7932 9.74904 16.0045 9.74904C14.5623 9.74904 13.9157 10.5367 13.5544 11.0905V9.93977H10.8357C10.8713 10.7024 10.8356 18.0678 10.8356 18.0678ZM13.5544 11.0905V11.1185H13.5362L13.5544 11.0905Z" fill="#F5FFF9"/>
</svg>
