<svg width="24" height="24" viewBox="0 0 24 24" fill="none" xmlns="http://www.w3.org/2000/svg">
<path d="M6.13557 4C4.95889 4 4.00086 4.95785 4 6.13545C4 7.31305 4.95803 8.27108 6.13557 8.27108C7.31268 8.27108 8.27022 7.31305 8.27022 6.13545C8.27022 4.95797 7.31262 4 6.13557 4ZM7.73834 9.12911H4.53255C4.49628 9.12911 4.46036 9.13625 4.42685 9.15014C4.39334 9.16402 4.36289 9.18437 4.33724 9.21002C4.31159 9.23567 4.29125 9.26613 4.27737 9.29964C4.2635 9.33316 4.25636 9.36908 4.25637 9.40535V19.7238C4.25637 19.7971 4.28547 19.8673 4.33726 19.9191C4.38906 19.9709 4.45931 20 4.53255 20H7.73828C7.81153 20 7.88177 19.9709 7.93357 19.9191C7.98537 19.8673 8.01449 19.7971 8.01452 19.7238V9.40535C8.01455 9.36907 8.00742 9.33315 7.99355 9.29962C7.97968 9.2661 7.95934 9.23564 7.93369 9.20999C7.90804 9.18433 7.87758 9.16398 7.84406 9.1501C7.81054 9.13623 7.77462 9.12909 7.73834 9.12911ZM15.9338 9.00763C14.7606 9.00763 13.7297 9.36486 13.1006 9.94738V9.40535C13.1006 9.25274 12.9769 9.12911 12.8243 9.12911H9.74917C9.71289 9.12911 9.67697 9.13625 9.64345 9.15014C9.60994 9.16402 9.57949 9.18437 9.55383 9.21002C9.52818 9.23567 9.50783 9.26612 9.49395 9.29964C9.48007 9.33315 9.47292 9.36908 9.47292 9.40535V19.7238C9.47292 19.7601 9.48007 19.796 9.49395 19.8295C9.50784 19.863 9.52818 19.8935 9.55384 19.9191C9.57949 19.9448 9.60994 19.9651 9.64346 19.979C9.67697 19.9929 9.7129 20 9.74917 20H12.9519C13.0251 20 13.0954 19.9709 13.1472 19.9191C13.199 19.8673 13.2281 19.7971 13.2281 19.7238V14.6188C13.2281 13.154 13.4975 12.2462 14.8421 12.2462C16.1668 12.2478 16.2659 13.2213 16.2659 14.7063V19.7238C16.2659 19.7601 16.2731 19.796 16.287 19.8295C16.3008 19.863 16.3212 19.8935 16.3469 19.9191C16.3725 19.9448 16.403 19.9651 16.4365 19.979C16.47 19.9929 16.5059 20 16.5422 20H19.7464C19.8196 20 19.8899 19.9709 19.9417 19.9191C19.9935 19.8673 20.0226 19.7971 20.0226 19.7238V14.0637C20.0225 11.7097 19.5578 9.00763 15.9338 9.00763Z" fill="white"/>
</svg>
