<svg width="25" height="24" viewBox="0 0 25 24" fill="none" xmlns="http://www.w3.org/2000/svg">
<path d="M21.5477 12.1396C21.5028 11.0617 20.6045 10.2082 19.504 10.2307C19.0099 10.2532 18.5608 10.4553 18.2239 10.7697C16.6968 9.71416 14.8776 9.15271 13.0136 9.10779L13.8895 4.90811L16.7866 5.49203C16.8764 6.23314 17.5277 6.77214 18.2688 6.68231C19.0099 6.59248 19.5489 5.94119 19.4591 5.20007C19.3693 4.45895 18.718 3.91995 17.9769 4.00979C17.5502 4.0547 17.1684 4.30174 16.9663 4.66107L13.6649 4.00979C13.4403 3.96487 13.2157 4.09962 13.1708 4.3242L12.1827 9.01796C10.2962 9.04042 8.47707 9.62433 6.90499 10.6799C6.11896 9.93874 4.8613 9.9612 4.12018 10.7697C3.37906 11.5557 3.40152 12.8134 4.21001 13.5545C4.36722 13.6893 4.54689 13.824 4.74901 13.9138C4.72655 14.116 4.72655 14.3181 4.74901 14.4978C4.74901 17.5296 8.27494 20 12.6318 20C16.9887 20 20.5146 17.5521 20.5146 14.4978C20.5371 14.2956 20.5371 14.0935 20.5146 13.9138C21.1435 13.5994 21.5702 12.9032 21.5477 12.1396ZM8.00545 13.5096C8.00545 12.7685 8.61182 12.1621 9.35294 12.1621C10.0941 12.1621 10.7004 12.7685 10.7004 13.5096C10.7004 14.2507 10.0941 14.8571 9.35294 14.8571C8.61182 14.8571 8.00545 14.2507 8.00545 13.5096ZM15.8658 17.2376C14.9001 17.9563 13.7323 18.3381 12.542 18.2707C11.3517 18.3156 10.1614 17.9563 9.21819 17.2376C9.08344 17.0804 9.1059 16.8559 9.2631 16.7211C9.39785 16.6088 9.57752 16.6088 9.73472 16.7211C10.5432 17.305 11.5314 17.6194 12.542 17.5745C13.5526 17.6194 14.5408 17.3499 15.3717 16.7436C15.5289 16.6088 15.7535 16.6088 15.9107 16.7436C16.0455 16.9008 16.0455 17.1254 15.9107 17.2826V17.2376H15.8658ZM15.6412 14.9245C14.9001 14.9245 14.2937 14.3181 14.2937 13.577C14.2937 12.8358 14.9001 12.2295 15.6412 12.2295C16.3823 12.2295 16.9887 12.8358 16.9887 13.577C17.0112 14.3181 16.4497 14.9469 15.6861 14.9694H15.6188L15.6412 14.9245Z" fill="#A2AAA9"/>
</svg>
