<svg width="25" height="24" viewBox="0 0 25 24" fill="none" xmlns="http://www.w3.org/2000/svg">
<path d="M21.7485 5.0374C21.7472 5.29156 21.7142 5.54245 21.6816 5.79361C21.6523 6.01747 21.6268 6.24187 21.5975 6.46573C21.5614 6.74337 21.5241 7.02074 21.486 7.29783C21.4478 7.57492 21.4087 7.85202 21.3693 8.12884C21.3241 8.44606 21.2774 8.76301 21.2323 9.08024C21.1934 9.35269 21.1563 9.62541 21.1177 9.89814C21.0803 10.1619 21.0422 10.4253 21.0046 10.689C20.9748 10.8987 20.9467 11.1083 20.9152 11.3177C20.8768 11.5741 20.8304 11.8293 20.7976 12.0865C20.7731 12.2779 20.7423 12.4676 20.7145 12.6584C20.6678 12.9784 20.6249 13.2992 20.5789 13.6191C20.532 13.9451 20.484 14.271 20.4351 14.5967C20.3969 14.8501 20.3555 15.1026 20.3174 15.3559C20.2886 15.5465 20.2634 15.7376 20.2349 15.9281C20.1952 16.1938 20.1533 16.4591 20.1142 16.725C20.0776 16.9737 20.0443 17.223 20.0082 17.4719C19.9617 17.7935 19.914 18.1148 19.8673 18.4364C19.8211 18.7534 19.7737 19.0703 19.7295 19.3878C19.682 19.7288 19.6252 20.0657 19.4644 20.3717C19.2887 20.7064 19.0396 20.9297 18.6806 20.9871C18.4701 21.0206 18.2628 20.9846 18.0586 20.9276C17.4959 20.7706 16.9852 20.4897 16.5084 20.1391C16.0227 19.7821 15.5289 19.4392 15.0397 19.0881C14.3687 18.6065 13.6987 18.1236 13.0376 17.6265C12.5829 17.2847 12.1326 16.9363 11.6974 16.5661C11.5464 16.4378 11.3919 16.3125 11.267 16.1493C10.9666 15.7561 10.965 15.3125 11.2647 14.9123C11.4033 14.7272 11.5807 14.5869 11.7314 14.4163C11.8642 14.2661 12.0159 14.1392 12.1561 13.9983C12.5004 13.6516 12.8407 13.3002 13.185 12.9533C13.6861 12.4485 14.1811 11.9366 14.6756 11.4247C15.31 10.7679 15.9404 10.1064 16.5616 9.43513C16.7714 9.20855 16.9468 8.95684 17.0582 8.65709C17.0832 8.58966 17.1054 8.52195 17.1054 8.44743C17.1054 8.30437 17.0498 8.24049 16.9163 8.23312C16.8396 8.22875 16.7674 8.25332 16.6952 8.2768C16.3955 8.37481 16.1267 8.54216 15.8629 8.71879C15.2282 9.14412 14.6191 9.61122 13.9991 10.0603C13.215 10.6281 12.433 11.1993 11.6504 11.769C10.8815 12.3286 10.1128 12.8886 9.34413 13.4485C9.09724 13.6284 8.84632 13.8023 8.60473 13.9901C8.39445 14.1536 8.15766 14.2328 7.90977 14.2847C7.74492 14.3191 7.57629 14.336 7.40994 14.333C7.15901 14.3284 6.90834 14.306 6.66145 14.2478C6.13764 14.1239 5.63251 13.9311 5.12284 13.7559C4.46952 13.5312 3.81974 13.2932 3.1687 13.0606C2.91424 12.9696 2.72895 12.674 2.75192 12.3903C2.76631 12.211 2.86855 12.0832 2.98265 11.9672C3.21566 11.73 3.50091 11.5847 3.79122 11.4537C4.44756 11.1575 5.10617 10.8673 5.76378 10.5749C6.44082 10.2741 7.11887 9.97512 7.79516 9.67237C8.18972 9.49574 8.581 9.31037 8.97582 9.13402C9.43147 8.93009 9.8899 8.73326 10.3458 8.53015C10.6649 8.38819 10.9812 8.23913 11.3 8.0969C11.4868 8.01363 11.6774 7.94019 11.864 7.85693C12.1081 7.748 12.3469 7.62488 12.5938 7.52442C12.8477 7.42095 13.0974 7.30684 13.3481 7.19545C14.1412 6.84247 14.9357 6.49221 15.725 6.1294C16.3834 5.82664 17.0443 5.53044 17.7052 5.23423C18.4665 4.89326 19.2297 4.55747 19.9905 4.21513C20.2995 4.07617 20.6158 3.98445 20.9531 4.00219C21.4643 4.02895 21.7018 4.34071 21.747 4.83456C21.7533 4.90199 21.7477 4.97079 21.7477 5.03904L21.7485 5.0374Z" fill="#A2AAA9"/>
</svg>
