<svg width="25" height="24" viewBox="0 0 25 24" fill="none" xmlns="http://www.w3.org/2000/svg">
    <path d="M21.7115 6.77577C21.025 7.07692 20.2935 7.27654 19.5308 7.37346C20.3154 6.905 20.9142 6.16885 21.1958 5.28154C20.4642 5.71769 19.6565 6.02577 18.7958 6.19769C18.1012 5.45808 17.1112 5 16.0312 5C13.9358 5 12.2488 6.70077 12.2488 8.78577C12.2488 9.08577 12.2742 9.37423 12.3365 9.64885C9.19 9.49538 6.40577 7.98731 4.53538 5.69C4.20885 6.25654 4.01731 6.905 4.01731 7.60308C4.01731 8.91385 4.69231 10.0758 5.69846 10.7485C5.09038 10.7369 4.49385 10.5604 3.98846 10.2823C3.98846 10.2938 3.98846 10.3088 3.98846 10.3238C3.98846 12.1631 5.30038 13.6908 7.02077 14.0427C6.71269 14.1269 6.37692 14.1673 6.02846 14.1673C5.78615 14.1673 5.54154 14.1535 5.31192 14.1027C5.80231 15.6015 7.19385 16.7035 8.84846 16.7392C7.56077 17.7465 5.92577 18.3535 4.15577 18.3535C3.84538 18.3535 3.54769 18.3396 3.25 18.3015C4.92654 19.3827 6.91346 20 9.05615 20C16.0208 20 19.8285 14.2308 19.8285 9.23C19.8285 9.06269 19.8227 8.90115 19.8146 8.74077C20.5658 8.20769 21.1969 7.54192 21.7115 6.77577Z" fill="#F5FFF9"/>
</svg>
